<svg width="1600" height="1728" viewBox="0 0 1600 1728" fill="none" xmlns="http://www.w3.org/2000/svg">
<path d="M655.7 395.6V259.5C655.7 245.5 667.2 234 681.2 234H912.7C926.7 234 938.2 245.5 938.2 259.5V395.6" stroke="#007BFF" stroke-width="2" stroke-miterlimit="10"/>
<path opacity="0.12" d="M906.2 409.2H687.6C679.4 409.2 672.7 402.5 672.7 394.3V265.9C672.7 257.7 679.4 251 687.6 251H906.2C914.4 251 921.1 257.7 921.1 265.9V394.3C921.2 402.5 914.4 409.2 906.2 409.2Z" fill="#007BFF"/>
<path d="M931.4 439.5H663.4C659.4 439.5 656.2 436.2 656.2 432.3C656.2 428.3 659.5 425.1 663.4 425.1H931.4C935.4 425.1 938.6 428.4 938.6 432.3C938.6 436.2 935.3 439.5 931.4 439.5Z" stroke="#007BFF" stroke-width="2" stroke-miterlimit="10"/>
<path d="M77.8999 903.7V767.6C77.8999 753.6 89.3999 742.1 103.4 742.1H334.9C348.9 742.1 360.4 753.6 360.4 767.6V903.7" stroke="#007BFF" stroke-width="2" stroke-miterlimit="10"/>
<path opacity="0.12" d="M328.5 917.3H109.9C101.7 917.3 95 910.6 95 902.4V774C95 765.8 101.7 759.1 109.9 759.1H328.5C336.7 759.1 343.4 765.8 343.4 774V902.4C343.5 910.6 336.7 917.3 328.5 917.3Z" fill="#007BFF"/>
<path d="M262.6 1007.6H175.7C171.7 1007.6 168.5 1004.4 168.5 1000.4C168.5 996.4 171.7 993.2 175.7 993.2H262.6C266.6 993.2 269.8 996.4 269.8 1000.4C269.8 1004.4 266.6 1007.6 262.6 1007.6Z" stroke="#007BFF" stroke-width="2" stroke-miterlimit="10"/>
<path d="M219.2 985.5V926.3" stroke="#007BFF" stroke-width="2" stroke-miterlimit="10"/>
<path d="M1059.2 301.6L1048 289.6C1045.7 287.1 1045.8 283.3 1048.3 281L1060.3 269.8" stroke="#082E51" stroke-width="4" stroke-miterlimit="10" stroke-linecap="round" stroke-linejoin="round"/>
<path d="M1052.5 285.4C1052.5 285.4 1265 256 1313 416" stroke="#082E51" stroke-width="4" stroke-miterlimit="10" stroke-linecap="round" stroke-linejoin="round"/>
<path d="M603.2 754.4L588.7 746.7C585.7 745.1 584.6 741.5 586.2 738.5L594 724" stroke="#007BFF" stroke-width="4" stroke-miterlimit="10" stroke-linecap="round"/>
<path d="M591.7 741.2C591.7 741.2 828.6 656.5 1052.5 780.9" stroke="#007BFF" stroke-width="4" stroke-miterlimit="10" stroke-linecap="round"/>
<path d="M1028.6 874.8L1043.1 882.5C1046.1 884.1 1047.2 887.7 1045.6 890.7L1037.9 905.2" stroke="#007BFF" stroke-width="4" stroke-miterlimit="10" stroke-linecap="round"/>
<path d="M1040.1 888C1040.1 888 803.2 972.7 579.3 848.3" stroke="#007BFF" stroke-width="4" stroke-miterlimit="10" stroke-linecap="round"/>
<path d="M1218.6 427.2L1226.3 441.7C1227.9 444.7 1226.8 448.3 1223.8 449.9L1209.3 457.6" stroke="#082E51" stroke-width="4" stroke-miterlimit="10" stroke-linecap="round" stroke-linejoin="round"/>
<path d="M1220.8 444.5C1220.8 444.5 1102.3 429.7 1040.1 352.8" stroke="#082E51" stroke-width="4" stroke-miterlimit="10" stroke-linecap="round" stroke-linejoin="round"/>
<path d="M825.3 1349.8L808.9 1350.6C805.5 1350.8 802.7 1348.2 802.5 1344.8L801.7 1328.4" stroke="#082E51" stroke-width="4" stroke-miterlimit="10" stroke-linecap="round" stroke-linejoin="round"/>
<path d="M808.7 1344.4C808.7 1344.4 923.6 1163.2 1076.7 1230" stroke="#082E51" stroke-width="4" stroke-miterlimit="10" stroke-linecap="round" stroke-linejoin="round"/>
<path d="M1024.2 1309.3L1040.2 1312.8C1043.5 1313.5 1045.6 1316.7 1044.9 1320L1041.4 1336" stroke="#082E51" stroke-width="4" stroke-miterlimit="10" stroke-linecap="round" stroke-linejoin="round"/>
<path d="M1038.9 1318.8C1038.9 1318.8 951 1399.6 852.2 1397.4" stroke="#082E51" stroke-width="4" stroke-miterlimit="10" stroke-linecap="round" stroke-linejoin="round"/>
<path d="M684.112 92.5288H678.703V111H671.251V67.6469H678.703V85.9978H683.551L698.136 67.6469H707.111L689.962 88.482L708.553 111H699.138L684.112 92.5288ZM750.464 67.6469V111H743.012V73.7772H728.267L727.385 90.0046C726.904 97.4572 725.649 102.786 723.619 105.992C721.615 109.197 718.423 110.866 714.043 111H711.078V104.469L713.201 104.309C715.605 104.042 717.328 102.653 718.37 100.142C719.412 97.6308 720.08 92.9829 720.373 86.1982L721.175 67.6469H750.464ZM790.412 67.6469H797.824V111H790.412V79.3867L770.418 111H763.005V67.6469H770.418V99.3003L790.412 67.6469ZM827.714 111.801C821.838 111.801 817.056 109.878 813.37 106.032C809.684 102.158 807.841 96.9897 807.841 90.5255V89.1632C807.841 84.8626 808.656 81.0295 810.285 77.6638C811.941 74.2714 814.238 71.6269 817.177 69.7304C820.142 67.8071 823.347 66.8455 826.793 66.8455C832.429 66.8455 836.81 68.702 839.935 72.4149C843.06 76.1278 844.623 81.4435 844.623 88.3618V91.447H815.253C815.36 95.7209 816.602 99.1801 818.98 101.825C821.384 104.442 824.429 105.751 828.115 105.751C830.733 105.751 832.95 105.217 834.766 104.148C836.583 103.08 838.172 101.664 839.534 99.9013L844.062 103.427C840.429 109.01 834.98 111.801 827.714 111.801ZM826.793 72.9358C823.801 72.9358 821.29 74.031 819.26 76.2213C817.23 78.385 815.975 81.4301 815.494 85.3567H837.21V84.7958C836.997 81.0295 835.982 78.1179 834.165 76.0611C832.349 73.9776 829.891 72.9358 826.793 72.9358ZM888.657 111H881.245V92.4888H861.331V111H853.879V67.6469H861.331V86.4386H881.245V67.6469H888.657V111ZM932.812 73.657H918.267V111H910.855V73.657H896.591V67.6469H932.812V73.657Z" fill="black"/>
<path d="M103.112 1081.53H97.7031V1100H90.2505V1056.65H97.7031V1075H102.551L117.136 1056.65H126.111L108.962 1077.48L127.553 1100H118.138L103.112 1081.53ZM169.464 1056.65V1100H162.012V1062.78H147.267L146.385 1079C145.904 1086.46 144.649 1091.79 142.619 1094.99C140.615 1098.2 137.423 1099.87 133.043 1100H130.078V1093.47L132.201 1093.31C134.605 1093.04 136.328 1091.65 137.37 1089.14C138.412 1086.63 139.08 1081.98 139.373 1075.2L140.175 1056.65H169.464ZM209.412 1056.65H216.824V1100H209.412V1068.39L189.418 1100H182.005V1056.65H189.418V1088.3L209.412 1056.65ZM246.714 1100.8C240.838 1100.8 236.056 1098.88 232.37 1095.03C228.684 1091.16 226.841 1085.99 226.841 1079.53V1078.16C226.841 1073.86 227.656 1070.03 229.285 1066.66C230.941 1063.27 233.238 1060.63 236.177 1058.73C239.142 1056.81 242.347 1055.85 245.793 1055.85C251.429 1055.85 255.81 1057.7 258.935 1061.41C262.06 1065.13 263.623 1070.44 263.623 1077.36V1080.45H234.253C234.36 1084.72 235.602 1088.18 237.98 1090.82C240.384 1093.44 243.429 1094.75 247.115 1094.75C249.733 1094.75 251.95 1094.22 253.766 1093.15C255.583 1092.08 257.172 1090.66 258.534 1088.9L263.062 1092.43C259.429 1098.01 253.98 1100.8 246.714 1100.8ZM245.793 1061.94C242.801 1061.94 240.29 1063.03 238.26 1065.22C236.23 1067.38 234.975 1070.43 234.494 1074.36H256.21V1073.8C255.997 1070.03 254.982 1067.12 253.165 1065.06C251.349 1062.98 248.891 1061.94 245.793 1061.94ZM307.657 1100H300.245V1081.49H280.331V1100H272.879V1056.65H280.331V1075.44H300.245V1056.65H307.657V1100ZM351.812 1062.66H337.267V1100H329.855V1062.66H315.591V1056.65H351.812V1062.66Z" fill="black"/>
<path d="M394.112 1643.53H388.703V1662H381.251V1618.65H388.703V1637H393.551L408.136 1618.65H417.111L399.962 1639.48L418.553 1662H409.138L394.112 1643.53ZM460.464 1618.65V1662H453.012V1624.78H438.267L437.385 1641C436.904 1648.46 435.649 1653.79 433.619 1656.99C431.615 1660.2 428.423 1661.87 424.043 1662H421.078V1655.47L423.201 1655.31C425.605 1655.04 427.328 1653.65 428.37 1651.14C429.412 1648.63 430.08 1643.98 430.373 1637.2L431.175 1618.65H460.464ZM500.412 1618.65H507.824V1662H500.412V1630.39L480.418 1662H473.005V1618.65H480.418V1650.3L500.412 1618.65ZM537.714 1662.8C531.838 1662.8 527.056 1660.88 523.37 1657.03C519.684 1653.16 517.841 1647.99 517.841 1641.53V1640.16C517.841 1635.86 518.656 1632.03 520.285 1628.66C521.941 1625.27 524.238 1622.63 527.177 1620.73C530.142 1618.81 533.347 1617.85 536.793 1617.85C542.429 1617.85 546.81 1619.7 549.935 1623.41C553.06 1627.13 554.623 1632.44 554.623 1639.36V1642.45H525.253C525.36 1646.72 526.602 1650.18 528.98 1652.82C531.384 1655.44 534.429 1656.75 538.115 1656.75C540.733 1656.75 542.95 1656.22 544.766 1655.15C546.583 1654.08 548.172 1652.66 549.534 1650.9L554.062 1654.43C550.429 1660.01 544.98 1662.8 537.714 1662.8ZM536.793 1623.94C533.801 1623.94 531.29 1625.03 529.26 1627.22C527.23 1629.38 525.975 1632.43 525.494 1636.36H547.21V1635.8C546.997 1632.03 545.982 1629.12 544.165 1627.06C542.349 1624.98 539.891 1623.94 536.793 1623.94ZM598.657 1662H591.245V1643.49H571.331V1662H563.879V1618.65H571.331V1637.44H591.245V1618.65H598.657V1662ZM642.812 1624.66H628.267V1662H620.855V1624.66H606.591V1618.65H642.812V1624.66Z" fill="black"/>
<path d="M692.646 612.923C692.646 608.676 693.474 604.856 695.13 601.463C696.813 598.071 699.137 595.453 702.102 593.61C705.094 591.767 708.5 590.846 712.319 590.846C718.223 590.846 722.991 592.889 726.623 596.976C730.283 601.063 732.113 606.499 732.113 613.283V613.804C732.113 618.025 731.298 621.818 729.669 625.183C728.066 628.522 725.755 631.127 722.737 632.997C719.745 634.866 716.299 635.801 712.399 635.801C706.523 635.801 701.755 633.758 698.095 629.671C694.463 625.584 692.646 620.175 692.646 613.444V612.923ZM700.099 613.804C700.099 618.612 701.207 622.472 703.424 625.384C705.668 628.295 708.66 629.751 712.399 629.751C716.166 629.751 719.158 628.282 721.375 625.344C723.592 622.379 724.7 618.238 724.7 612.923C724.7 608.168 723.565 604.322 721.294 601.383C719.051 598.418 716.059 596.936 712.319 596.936C708.66 596.936 705.708 598.392 703.464 601.303C701.221 604.215 700.099 608.382 700.099 613.804ZM772.741 597.657H758.197V635H750.784V597.657H736.52V591.647H772.741V597.657ZM780.635 635V591.647H797.543C803.313 591.647 807.734 592.662 810.805 594.692C813.904 596.695 815.453 599.647 815.453 603.547C815.453 605.55 814.852 607.367 813.65 608.996C812.448 610.599 810.672 611.828 808.321 612.682C810.939 613.297 813.036 614.499 814.612 616.288C816.215 618.078 817.016 620.215 817.016 622.699C817.016 626.679 815.547 629.724 812.608 631.835C809.697 633.945 805.57 635 800.228 635H780.635ZM788.047 615.968V629.03H800.308C803.406 629.03 805.717 628.456 807.239 627.307C808.789 626.158 809.563 624.542 809.563 622.459C809.563 618.132 806.385 615.968 800.027 615.968H788.047ZM788.047 610.038H797.623C804.568 610.038 808.041 608.008 808.041 603.948C808.041 599.887 804.755 597.791 798.184 597.657H788.047V610.038ZM844.823 635.801C838.946 635.801 834.165 633.878 830.479 630.032C826.792 626.158 824.949 620.99 824.949 614.525V613.163C824.949 608.863 825.764 605.029 827.393 601.664C829.05 598.271 831.347 595.627 834.285 593.73C837.25 591.807 840.455 590.846 843.901 590.846C849.537 590.846 853.918 592.702 857.043 596.415C860.169 600.128 861.731 605.443 861.731 612.362V615.447H832.362C832.469 619.721 833.711 623.18 836.088 625.825C838.492 628.442 841.537 629.751 845.223 629.751C847.841 629.751 850.058 629.217 851.875 628.148C853.691 627.08 855.28 625.664 856.643 623.901L861.17 627.427C857.538 633.01 852.088 635.801 844.823 635.801ZM843.901 596.936C840.91 596.936 838.399 598.031 836.369 600.221C834.338 602.385 833.083 605.43 832.602 609.357H854.319V608.796C854.105 605.029 853.09 602.118 851.274 600.061C849.457 597.978 847 596.936 843.901 596.936ZM902.079 597.657H887.535V635H880.122V597.657H865.858V591.647H902.079V597.657Z" fill="#007BFF"/>
<path d="M679.434 992.951C679.434 990.921 678.659 989.319 677.11 988.143C675.561 986.941 673.437 986.34 670.739 986.34C668.122 986.34 665.931 987.021 664.168 988.384C662.432 989.746 661.564 991.349 661.564 993.192H654.191C654.191 989.426 655.767 986.34 658.919 983.936C662.071 981.532 666.011 980.33 670.739 980.33C675.815 980.33 679.768 981.425 682.599 983.616C685.431 985.779 686.847 988.878 686.847 992.911C686.847 994.861 686.259 996.651 685.084 998.28C683.908 999.91 682.239 1001.21 680.075 1002.17C685.124 1003.88 687.648 1007.24 687.648 1012.26C687.648 1016.24 686.112 1019.4 683.04 1021.72C679.968 1024.04 675.868 1025.21 670.739 1025.21C665.744 1025.21 661.617 1023.99 658.358 1021.56C655.126 1019.1 653.51 1015.79 653.51 1011.62H660.883C660.883 1013.73 661.818 1015.55 663.687 1017.07C665.584 1018.57 667.935 1019.32 670.739 1019.32C673.571 1019.32 675.855 1018.66 677.591 1017.35C679.327 1016.04 680.195 1014.35 680.195 1012.26C680.195 1009.83 679.461 1008.1 677.992 1007.06C676.549 1005.99 674.292 1005.45 671.22 1005.45H663.808V999.202H671.861C676.91 999.068 679.434 996.985 679.434 992.951ZM724.029 1024.44C723.602 1023.59 723.255 1022.07 722.988 1019.88C719.542 1023.46 715.428 1025.25 710.647 1025.25C706.373 1025.25 702.86 1024.04 700.109 1021.64C697.384 1019.21 696.022 1016.14 696.022 1012.42C696.022 1007.91 697.732 1004.41 701.151 1001.93C704.596 999.416 709.431 998.16 715.655 998.16H722.867V994.755C722.867 992.163 722.093 990.107 720.543 988.584C718.994 987.035 716.71 986.26 713.692 986.26C711.047 986.26 708.83 986.928 707.041 988.264C705.251 989.599 704.356 991.215 704.356 993.112H696.904C696.904 990.948 697.665 988.865 699.187 986.861C700.737 984.831 702.82 983.228 705.438 982.053C708.082 980.878 710.981 980.29 714.133 980.29C719.128 980.29 723.041 981.546 725.872 984.056C728.704 986.541 730.173 989.973 730.28 994.354V1014.31C730.28 1018.29 730.787 1021.45 731.802 1023.8V1024.44H724.029ZM711.729 1018.8C714.052 1018.8 716.256 1018.19 718.34 1016.99C720.423 1015.79 721.932 1014.23 722.867 1012.3V1003.41H717.058C707.976 1003.41 703.435 1006.07 703.435 1011.38C703.435 1013.71 704.209 1015.52 705.758 1016.83C707.308 1018.14 709.298 1018.8 711.729 1018.8ZM777.359 1024.44H769.947V987.222H749.993V1024.44H742.54V981.091H777.359V1024.44ZM825.881 1003.25C825.881 1009.85 824.372 1015.16 821.353 1019.2C818.335 1023.23 814.248 1025.25 809.093 1025.25C803.831 1025.25 799.69 1023.58 796.672 1020.24V1041.11H789.259V981.091H796.031L796.391 985.9C799.41 982.16 803.603 980.29 808.973 980.29C814.181 980.29 818.295 982.253 821.313 986.18C824.358 990.107 825.881 995.569 825.881 1002.57V1003.25ZM818.469 1002.41C818.469 997.519 817.427 993.659 815.343 990.828C813.26 987.996 810.402 986.581 806.769 986.581C802.281 986.581 798.916 988.571 796.672 992.551V1013.27C798.889 1017.22 802.281 1019.2 806.849 1019.2C810.402 1019.2 813.22 1017.79 815.303 1014.99C817.413 1012.16 818.469 1007.96 818.469 1002.41ZM833.374 1002.37C833.374 998.12 834.202 994.3 835.858 990.908C837.541 987.516 839.865 984.898 842.83 983.055C845.821 981.212 849.227 980.29 853.047 980.29C858.95 980.29 863.718 982.334 867.351 986.42C871.011 990.507 872.84 995.943 872.84 1002.73V1003.25C872.84 1007.47 872.026 1011.26 870.396 1014.63C868.793 1017.97 866.483 1020.57 863.464 1022.44C860.473 1024.31 857.027 1025.25 853.127 1025.25C847.25 1025.25 842.482 1023.2 838.823 1019.12C835.19 1015.03 833.374 1009.62 833.374 1002.89V1002.37ZM840.826 1003.25C840.826 1008.06 841.935 1011.92 844.152 1014.83C846.396 1017.74 849.387 1019.2 853.127 1019.2C856.893 1019.2 859.885 1017.73 862.102 1014.79C864.319 1011.82 865.428 1007.68 865.428 1002.37C865.428 997.613 864.293 993.766 862.022 990.828C859.778 987.863 856.787 986.38 853.047 986.38C849.387 986.38 846.436 987.836 844.192 990.748C841.948 993.659 840.826 997.826 840.826 1003.25ZM899.525 1019.2C902.17 1019.2 904.48 1018.39 906.457 1016.79C908.434 1015.19 909.529 1013.19 909.742 1010.78H916.754C916.621 1013.27 915.766 1015.63 914.19 1017.87C912.614 1020.12 910.504 1021.91 907.859 1023.24C905.242 1024.58 902.464 1025.25 899.525 1025.25C893.622 1025.25 888.921 1023.28 885.421 1019.36C881.949 1015.4 880.213 1010.01 880.213 1003.17V1001.93C880.213 997.706 880.987 993.953 882.537 990.668C884.086 987.382 886.303 984.831 889.188 983.015C892.099 981.198 895.532 980.29 899.485 980.29C904.347 980.29 908.38 981.746 911.586 984.657C914.818 987.569 916.541 991.349 916.754 995.997H909.742C909.529 993.192 908.46 990.895 906.537 989.105C904.641 987.289 902.29 986.38 899.485 986.38C895.719 986.38 892.794 987.743 890.71 990.467C888.654 993.165 887.625 997.078 887.625 1002.21V1003.61C887.625 1008.6 888.654 1012.45 890.71 1015.15C892.767 1017.85 895.705 1019.2 899.525 1019.2Z" fill="#007BFF"/>
<path d="M1258 1276.75C1260.64 1276.75 1262.95 1275.95 1264.93 1274.35C1266.91 1272.74 1268 1270.74 1268.22 1268.34H1275.23C1275.09 1270.82 1274.24 1273.19 1272.66 1275.43C1271.09 1277.67 1268.98 1279.46 1266.33 1280.8C1263.72 1282.13 1260.94 1282.8 1258 1282.8C1252.1 1282.8 1247.39 1280.84 1243.9 1276.91C1240.42 1272.96 1238.69 1267.56 1238.69 1260.72V1259.48C1238.69 1255.26 1239.46 1251.51 1241.01 1248.22C1242.56 1244.94 1244.78 1242.39 1247.66 1240.57C1250.57 1238.75 1254.01 1237.85 1257.96 1237.85C1262.82 1237.85 1266.85 1239.3 1270.06 1242.21C1273.29 1245.12 1275.01 1248.9 1275.23 1253.55H1268.22C1268 1250.75 1266.93 1248.45 1265.01 1246.66C1263.11 1244.84 1260.76 1243.94 1257.96 1243.94C1254.19 1243.94 1251.27 1245.3 1249.18 1248.02C1247.13 1250.72 1246.1 1254.63 1246.1 1259.76V1261.16C1246.1 1266.16 1247.13 1270.01 1249.18 1272.7C1251.24 1275.4 1254.18 1276.75 1258 1276.75ZM1301.55 1282.8C1295.68 1282.8 1290.89 1280.88 1287.21 1277.03C1283.52 1273.16 1281.68 1267.99 1281.68 1261.53V1260.16C1281.68 1255.86 1282.49 1252.03 1284.12 1248.66C1285.78 1245.27 1288.08 1242.63 1291.01 1240.73C1293.98 1238.81 1297.18 1237.85 1300.63 1237.85C1306.27 1237.85 1310.65 1239.7 1313.77 1243.41C1316.9 1247.13 1318.46 1252.44 1318.46 1259.36V1262.45H1289.09C1289.2 1266.72 1290.44 1270.18 1292.82 1272.82C1295.22 1275.44 1298.27 1276.75 1301.95 1276.75C1304.57 1276.75 1306.79 1276.22 1308.6 1275.15C1310.42 1274.08 1312.01 1272.66 1313.37 1270.9L1317.9 1274.43C1314.27 1280.01 1308.82 1282.8 1301.55 1282.8ZM1300.63 1243.94C1297.64 1243.94 1295.13 1245.03 1293.1 1247.22C1291.07 1249.38 1289.81 1252.43 1289.33 1256.36H1311.05V1255.8C1310.83 1252.03 1309.82 1249.12 1308 1247.06C1306.19 1244.98 1303.73 1243.94 1300.63 1243.94ZM1363.7 1260.8C1363.7 1267.4 1362.19 1272.72 1359.17 1276.75C1356.15 1280.78 1352.06 1282.8 1346.91 1282.8C1341.65 1282.8 1337.51 1281.13 1334.49 1277.79V1298.67H1327.08V1238.65H1333.85L1334.21 1243.45C1337.23 1239.72 1341.42 1237.85 1346.79 1237.85C1352 1237.85 1356.11 1239.81 1359.13 1243.74C1362.17 1247.66 1363.7 1253.12 1363.7 1260.12V1260.8ZM1356.28 1259.96C1356.28 1255.07 1355.24 1251.21 1353.16 1248.38C1351.08 1245.55 1348.22 1244.14 1344.58 1244.14C1340.1 1244.14 1336.73 1246.13 1334.49 1250.11V1270.82C1336.7 1274.77 1340.1 1276.75 1344.66 1276.75C1348.22 1276.75 1351.04 1275.35 1353.12 1272.54C1355.23 1269.71 1356.28 1265.52 1356.28 1259.96ZM1373.83 1282V1238.65H1390.74C1396.51 1238.65 1400.93 1239.66 1404.01 1241.69C1407.1 1243.7 1408.65 1246.65 1408.65 1250.55C1408.65 1252.55 1408.05 1254.37 1406.85 1256C1405.65 1257.6 1403.87 1258.83 1401.52 1259.68C1404.14 1260.3 1406.24 1261.5 1407.81 1263.29C1409.41 1265.08 1410.22 1267.22 1410.22 1269.7C1410.22 1273.68 1408.75 1276.72 1405.81 1278.83C1402.9 1280.94 1398.77 1282 1393.43 1282H1373.83ZM1381.25 1262.97V1276.03H1393.51C1396.61 1276.03 1398.92 1275.46 1400.44 1274.31C1401.99 1273.16 1402.76 1271.54 1402.76 1269.46C1402.76 1265.13 1399.58 1262.97 1393.23 1262.97H1381.25ZM1381.25 1257.04H1390.82C1397.77 1257.04 1401.24 1255.01 1401.24 1250.95C1401.24 1246.89 1397.95 1244.79 1391.38 1244.66H1381.25V1257.04ZM1438.02 1282.8C1432.15 1282.8 1427.36 1280.88 1423.68 1277.03C1419.99 1273.16 1418.15 1267.99 1418.15 1261.53V1260.16C1418.15 1255.86 1418.96 1252.03 1420.59 1248.66C1422.25 1245.27 1424.55 1242.63 1427.48 1240.73C1430.45 1238.81 1433.66 1237.85 1437.1 1237.85C1442.74 1237.85 1447.12 1239.7 1450.24 1243.41C1453.37 1247.13 1454.93 1252.44 1454.93 1259.36V1262.45H1425.56C1425.67 1266.72 1426.91 1270.18 1429.29 1272.82C1431.69 1275.44 1434.74 1276.75 1438.42 1276.75C1441.04 1276.75 1443.26 1276.22 1445.07 1275.15C1446.89 1274.08 1448.48 1272.66 1449.84 1270.9L1454.37 1274.43C1450.74 1280.01 1445.29 1282.8 1438.02 1282.8ZM1437.1 1243.94C1434.11 1243.94 1431.6 1245.03 1429.57 1247.22C1427.54 1249.38 1426.28 1252.43 1425.8 1256.36H1447.52V1255.8C1447.3 1252.03 1446.29 1249.12 1444.47 1247.06C1442.66 1244.98 1440.2 1243.94 1437.1 1243.94ZM1500.17 1260.8C1500.17 1267.4 1498.66 1272.72 1495.64 1276.75C1492.62 1280.78 1488.53 1282.8 1483.38 1282.8C1478.12 1282.8 1473.98 1281.13 1470.96 1277.79V1298.67H1463.55V1238.65H1470.32L1470.68 1243.45C1473.7 1239.72 1477.89 1237.85 1483.26 1237.85C1488.47 1237.85 1492.58 1239.81 1495.6 1243.74C1498.64 1247.66 1500.17 1253.12 1500.17 1260.12V1260.8ZM1492.75 1259.96C1492.75 1255.07 1491.71 1251.21 1489.63 1248.38C1487.55 1245.55 1484.69 1244.14 1481.05 1244.14C1476.57 1244.14 1473.2 1246.13 1470.96 1250.11V1270.82C1473.18 1274.77 1476.57 1276.75 1481.14 1276.75C1484.69 1276.75 1487.51 1275.35 1489.59 1272.54C1491.7 1269.71 1492.75 1265.52 1492.75 1259.96Z" fill="black"/>
<path d="M1190.8 230.019L1204.79 207.662H1213.84L1195.41 236.59L1214.28 266H1205.15L1190.8 243.242L1176.38 266H1167.28L1186.2 236.59L1167.72 207.662H1176.74L1190.8 230.019ZM1233.15 207.662L1252.23 255.262L1271.3 207.662H1281.28V266H1273.58V243.282L1274.3 218.76L1255.15 266H1249.26L1230.15 218.881L1230.91 243.282V266H1223.22V207.662H1233.15ZM1302.59 259.709H1330.24V266H1294.86V207.662H1302.59V259.709Z" fill="black"/>
<path d="M748.213 776.662H755.946V817.971C755.946 823.554 754.263 827.921 750.897 831.073C747.558 834.225 743.097 835.801 737.515 835.801C731.718 835.801 727.204 834.319 723.972 831.354C720.74 828.389 719.124 824.235 719.124 818.893H726.817C726.817 822.232 727.725 824.836 729.541 826.706C731.384 828.576 734.042 829.511 737.515 829.511C740.693 829.511 743.258 828.509 745.208 826.506C747.184 824.502 748.186 821.698 748.213 818.091V776.662ZM786.237 808.996C779.639 807.1 774.831 804.776 771.812 802.024C768.821 799.246 767.325 795.827 767.325 791.767C767.325 787.173 769.155 783.38 772.814 780.388C776.5 777.369 781.282 775.86 787.158 775.86C791.165 775.86 794.731 776.635 797.856 778.184C801.008 779.733 803.439 781.87 805.149 784.595C806.885 787.32 807.753 790.298 807.753 793.53H800.02C800.02 790.004 798.898 787.239 796.654 785.236C794.411 783.206 791.245 782.191 787.158 782.191C783.365 782.191 780.4 783.032 778.263 784.715C776.153 786.371 775.098 788.682 775.098 791.647C775.098 794.024 776.1 796.041 778.103 797.697C780.133 799.326 783.566 800.822 788.4 802.185C793.262 803.547 797.055 805.056 799.78 806.712C802.531 808.342 804.561 810.252 805.87 812.442C807.205 814.632 807.873 817.21 807.873 820.175C807.873 824.903 806.03 828.696 802.344 831.554C798.658 834.386 793.729 835.801 787.559 835.801C783.552 835.801 779.813 835.04 776.34 833.517C772.868 831.968 770.183 829.858 768.287 827.187C766.417 824.516 765.482 821.484 765.482 818.091H773.215C773.215 821.617 774.51 824.409 777.101 826.466C779.719 828.496 783.205 829.511 787.559 829.511C791.619 829.511 794.731 828.683 796.895 827.027C799.058 825.37 800.14 823.113 800.14 820.255C800.14 817.397 799.139 815.193 797.135 813.644C795.132 812.068 791.499 810.519 786.237 808.996ZM862.646 807.714C862.646 813.43 861.684 818.425 859.761 822.699C857.838 826.946 855.113 830.192 851.587 832.436C848.061 834.679 843.947 835.801 839.246 835.801C834.652 835.801 830.578 834.679 827.026 832.436C823.473 830.165 820.708 826.946 818.732 822.779C816.782 818.586 815.78 813.737 815.727 808.235V804.028C815.727 798.418 816.701 793.463 818.651 789.163C820.601 784.862 823.353 781.577 826.905 779.306C830.485 777.009 834.572 775.86 839.166 775.86C843.841 775.86 847.954 776.996 851.507 779.266C855.086 781.51 857.838 784.782 859.761 789.083C861.684 793.356 862.646 798.338 862.646 804.028V807.714ZM854.993 803.948C854.993 797.029 853.604 791.727 850.826 788.041C848.048 784.328 844.161 782.471 839.166 782.471C834.305 782.471 830.471 784.328 827.667 788.041C824.889 791.727 823.46 796.856 823.379 803.427V807.714C823.379 814.419 824.782 819.694 827.587 823.541C830.418 827.36 834.305 829.27 839.246 829.27C844.215 829.27 848.061 827.467 850.786 823.861C853.51 820.228 854.913 815.033 854.993 808.275V803.948ZM919.021 835H911.288L881.918 790.044V835H874.185V776.662H881.918L911.368 821.818V776.662H919.021V835Z" fill="black"/>
<path d="M927.607 1485H919.874V1458.03H890.464V1485H882.771V1426.66H890.464V1451.74H919.874V1426.66H927.607V1485ZM980.376 1432.99H961.624V1485H953.972V1432.99H935.26V1426.66H980.376V1432.99ZM998.967 1426.66L1018.04 1474.26L1037.11 1426.66H1047.09V1485H1039.4V1462.28L1040.12 1437.76L1020.96 1485H1015.07L995.962 1437.88L996.724 1462.28V1485H989.031V1426.66H998.967ZM1068.4 1478.71H1096.05V1485H1060.67V1426.66H1068.4V1478.71Z" fill="black"/>
<path opacity="0.12" d="M1469.5 1137.8H1284.9C1274.6 1137.8 1266.2 1129.4 1266.2 1119.1V577.5C1266.2 567.2 1274.6 558.8 1284.9 558.8H1469.5C1479.8 558.8 1488.2 567.2 1488.2 577.5V1119.1C1488.2 1129.4 1479.8 1137.8 1469.5 1137.8Z" fill="#007BFF"/>
<path d="M1484.4 1158.6H1270C1258.5 1158.6 1249.2 1149.3 1249.2 1137.8V558.9C1249.2 547.4 1258.5 538.1 1270 538.1H1484.5C1496 538.1 1505.3 547.4 1505.3 558.9V1137.8C1505.3 1149.2 1495.9 1158.6 1484.4 1158.6Z" stroke="#007BFF" stroke-width="2" stroke-miterlimit="10"/>
<path d="M1511.2 1185.4H1243.2C1239.2 1185.4 1236 1182.1 1236 1178.2C1236 1174.2 1239.3 1171 1243.2 1171H1511.2C1515.2 1171 1518.4 1174.3 1518.4 1178.2C1518.4 1182.1 1515.1 1185.4 1511.2 1185.4Z" stroke="#007BFF" stroke-width="2" stroke-miterlimit="10"/>
<path opacity="0.12" d="M607 1532H413.1C405.3 1532 399.1 1525.7 399.1 1518V1220.3C399.1 1212.5 405.4 1206.3 413.1 1206.3H607C614.8 1206.3 621 1212.6 621 1220.3V1518C621 1525.7 614.7 1532 607 1532Z" fill="#007BFF"/>
<path d="M613.8 1561.4H406.2C402.2 1561.4 399 1558.2 399 1554.2C399 1550.2 402.2 1547 406.2 1547H613.8C617.8 1547 621 1550.2 621 1554.2C621 1558.2 617.8 1561.4 613.8 1561.4Z" stroke="#007BFF" stroke-width="2" stroke-miterlimit="10"/>
</svg>
