<svg width="1600" height="1728" viewBox="0 0 1600 1728" fill="none" xmlns="http://www.w3.org/2000/svg">
<path d="M77.8999 903.7V767.6C77.8999 753.6 89.3999 742.1 103.4 742.1H334.9C348.9 742.1 360.4 753.6 360.4 767.6V903.7" stroke="#007BFF" stroke-width="2" stroke-miterlimit="10"/>
<path opacity="0.12" d="M328.5 917.3H109.9C101.7 917.3 95 910.6 95 902.4V774C95 765.8 101.7 759.1 109.9 759.1H328.5C336.7 759.1 343.4 765.8 343.4 774V902.4C343.5 910.6 336.7 917.3 328.5 917.3Z" fill="#007BFF"/>
<path d="M262.6 1007.6H175.7C171.7 1007.6 168.5 1004.4 168.5 1000.4C168.5 996.4 171.7 993.2 175.7 993.2H262.6C266.6 993.2 269.8 996.4 269.8 1000.4C269.8 1004.4 266.6 1007.6 262.6 1007.6Z" stroke="#007BFF" stroke-width="2" stroke-miterlimit="10"/>
<path d="M219.2 985.5V926.3" stroke="#007BFF" stroke-width="2" stroke-miterlimit="10"/>
<path d="M603.2 754.4L588.7 746.7C585.7 745.1 584.6 741.5 586.2 738.5L594 724" stroke="#007BFF" stroke-width="4" stroke-miterlimit="10" stroke-linecap="round"/>
<path d="M591.7 741.2C591.7 741.2 828.6 656.5 1052.5 780.9" stroke="#007BFF" stroke-width="4" stroke-miterlimit="10" stroke-linecap="round"/>
<path d="M1028.6 874.8L1043.1 882.5C1046.1 884.1 1047.2 887.7 1045.6 890.7L1037.9 905.2" stroke="#007BFF" stroke-width="4" stroke-miterlimit="10" stroke-linecap="round"/>
<path d="M1040.1 888C1040.1 888 803.2 972.7 579.3 848.3" stroke="#007BFF" stroke-width="4" stroke-miterlimit="10" stroke-linecap="round"/>
<path d="M103.112 1089.53H97.7031V1108H90.2505V1064.65H97.7031V1083H102.551L117.136 1064.65H126.111L108.962 1085.48L127.553 1108H118.138L103.112 1089.53ZM169.464 1064.65V1108H162.012V1070.78H147.267L146.385 1087C145.904 1094.46 144.649 1099.79 142.619 1102.99C140.615 1106.2 137.423 1107.87 133.043 1108H130.078V1101.47L132.201 1101.31C134.605 1101.04 136.328 1099.65 137.37 1097.14C138.412 1094.63 139.08 1089.98 139.373 1083.2L140.175 1064.65H169.464ZM209.412 1064.65H216.824V1108H209.412V1076.39L189.418 1108H182.005V1064.65H189.418V1096.3L209.412 1064.65ZM246.714 1108.8C240.838 1108.8 236.056 1106.88 232.37 1103.03C228.684 1099.16 226.841 1093.99 226.841 1087.53V1086.16C226.841 1081.86 227.656 1078.03 229.285 1074.66C230.941 1071.27 233.238 1068.63 236.177 1066.73C239.142 1064.81 242.347 1063.85 245.793 1063.85C251.429 1063.85 255.81 1065.7 258.935 1069.41C262.06 1073.13 263.623 1078.44 263.623 1085.36V1088.45H234.253C234.36 1092.72 235.602 1096.18 237.98 1098.82C240.384 1101.44 243.429 1102.75 247.115 1102.75C249.733 1102.75 251.95 1102.22 253.766 1101.15C255.583 1100.08 257.172 1098.66 258.534 1096.9L263.062 1100.43C259.429 1106.01 253.98 1108.8 246.714 1108.8ZM245.793 1069.94C242.801 1069.94 240.29 1071.03 238.26 1073.22C236.23 1075.38 234.975 1078.43 234.494 1082.36H256.21V1081.8C255.997 1078.03 254.982 1075.12 253.165 1073.06C251.349 1070.98 248.891 1069.94 245.793 1069.94ZM307.657 1108H300.245V1089.49H280.331V1108H272.879V1064.65H280.331V1083.44H300.245V1064.65H307.657V1108ZM351.812 1070.66H337.267V1108H329.855V1070.66H315.591V1064.65H351.812V1070.66Z" fill="black"/>
<path d="M705.646 612.923C705.646 608.676 706.474 604.856 708.13 601.463C709.813 598.071 712.137 595.453 715.102 593.61C718.094 591.767 721.5 590.846 725.319 590.846C731.223 590.846 735.991 592.889 739.623 596.976C743.283 601.063 745.113 606.499 745.113 613.283V613.804C745.113 618.025 744.298 621.818 742.669 625.183C741.066 628.522 738.755 631.127 735.737 632.997C732.745 634.866 729.299 635.801 725.399 635.801C719.523 635.801 714.755 633.758 711.095 629.671C707.463 625.584 705.646 620.175 705.646 613.444V612.923ZM713.099 613.804C713.099 618.612 714.207 622.472 716.424 625.384C718.668 628.295 721.66 629.751 725.399 629.751C729.166 629.751 732.158 628.282 734.375 625.344C736.592 622.379 737.7 618.238 737.7 612.923C737.7 608.168 736.565 604.322 734.294 601.383C732.051 598.418 729.059 596.936 725.319 596.936C721.66 596.936 718.708 598.392 716.464 601.303C714.221 604.215 713.099 608.382 713.099 613.804ZM785.741 597.657H771.197V635H763.784V597.657H749.52V591.647H785.741V597.657ZM793.635 635V591.647H810.543C816.313 591.647 820.734 592.662 823.805 594.692C826.904 596.695 828.453 599.647 828.453 603.547C828.453 605.55 827.852 607.367 826.65 608.996C825.448 610.599 823.672 611.828 821.321 612.682C823.939 613.297 826.036 614.499 827.612 616.288C829.215 618.078 830.016 620.215 830.016 622.699C830.016 626.679 828.547 629.724 825.608 631.835C822.697 633.945 818.57 635 813.228 635H793.635ZM801.047 615.968V629.03H813.308C816.406 629.03 818.717 628.456 820.239 627.307C821.789 626.158 822.563 624.542 822.563 622.459C822.563 618.132 819.385 615.968 813.027 615.968H801.047ZM801.047 610.038H810.623C817.568 610.038 821.041 608.008 821.041 603.948C821.041 599.887 817.755 597.791 811.184 597.657H801.047V610.038ZM857.823 635.801C851.946 635.801 847.165 633.878 843.479 630.032C839.792 626.158 837.949 620.99 837.949 614.525V613.163C837.949 608.863 838.764 605.029 840.393 601.664C842.05 598.271 844.347 595.627 847.285 593.73C850.25 591.807 853.455 590.846 856.901 590.846C862.537 590.846 866.918 592.702 870.043 596.415C873.169 600.128 874.731 605.443 874.731 612.362V615.447H845.362C845.469 619.721 846.711 623.18 849.088 625.825C851.492 628.442 854.537 629.751 858.223 629.751C860.841 629.751 863.058 629.217 864.875 628.148C866.691 627.08 868.28 625.664 869.643 623.901L874.17 627.427C870.538 633.01 865.088 635.801 857.823 635.801ZM856.901 596.936C853.91 596.936 851.399 598.031 849.369 600.221C847.338 602.385 846.083 605.43 845.602 609.357H867.319V608.796C867.105 605.029 866.09 602.118 864.274 600.061C862.457 597.978 860 596.936 856.901 596.936ZM915.079 597.657H900.535V635H893.122V597.657H878.858V591.647H915.079V597.657Z" fill="#007BFF"/>
<path d="M716.45 1000.51C716.45 998.477 715.675 996.874 714.126 995.699C712.576 994.497 710.453 993.896 707.755 993.896C705.137 993.896 702.947 994.577 701.184 995.939C699.448 997.301 698.58 998.904 698.58 1000.75H691.207C691.207 996.981 692.783 993.896 695.935 991.492C699.087 989.088 703.027 987.886 707.755 987.886C712.83 987.886 716.784 988.981 719.615 991.171C722.446 993.335 723.862 996.433 723.862 1000.47C723.862 1002.42 723.275 1004.21 722.099 1005.84C720.924 1007.47 719.254 1008.76 717.091 1009.72C722.139 1011.43 724.664 1014.8 724.664 1019.82C724.664 1023.8 723.128 1026.95 720.056 1029.28C716.984 1031.6 712.884 1032.76 707.755 1032.76C702.76 1032.76 698.633 1031.55 695.374 1029.12C692.142 1026.66 690.526 1023.35 690.526 1019.18H697.898C697.898 1021.29 698.833 1023.1 700.703 1024.63C702.6 1026.12 704.95 1026.87 707.755 1026.87C710.586 1026.87 712.87 1026.22 714.607 1024.91C716.343 1023.6 717.211 1021.9 717.211 1019.82C717.211 1017.39 716.476 1015.65 715.007 1014.61C713.565 1013.54 711.308 1013.01 708.236 1013.01H700.823V1006.76H708.877C713.925 1006.62 716.45 1004.54 716.45 1000.51ZM761.045 1032C760.618 1031.15 760.27 1029.62 760.003 1027.43C756.557 1031.01 752.444 1032.8 747.662 1032.8C743.388 1032.8 739.876 1031.6 737.125 1029.2C734.4 1026.76 733.038 1023.69 733.038 1019.98C733.038 1015.47 734.747 1011.97 738.166 1009.48C741.612 1006.97 746.447 1005.72 752.671 1005.72H759.883V1002.31C759.883 999.719 759.108 997.662 757.559 996.14C756.01 994.59 753.726 993.816 750.707 993.816C748.063 993.816 745.846 994.483 744.056 995.819C742.267 997.155 741.372 998.771 741.372 1000.67H733.919C733.919 998.504 734.68 996.42 736.203 994.417C737.752 992.387 739.836 990.784 742.454 989.609C745.098 988.433 747.996 987.846 751.148 987.846C756.143 987.846 760.057 989.101 762.888 991.612C765.719 994.096 767.189 997.529 767.295 1001.91V1021.86C767.295 1025.84 767.803 1029.01 768.818 1031.36V1032H761.045ZM748.744 1026.35C751.068 1026.35 753.272 1025.75 755.355 1024.55C757.439 1023.35 758.948 1021.78 759.883 1019.86V1010.96H754.073C744.991 1010.96 740.45 1013.62 740.45 1018.94C740.45 1021.26 741.225 1023.08 742.774 1024.39C744.323 1025.7 746.313 1026.35 748.744 1026.35ZM814.375 1032H806.962V994.777H787.009V1032H779.556V988.647H814.375V1032ZM862.897 1010.8C862.897 1017.4 861.387 1022.72 858.369 1026.75C855.351 1030.78 851.264 1032.8 846.108 1032.8C840.846 1032.8 836.706 1031.13 833.687 1027.79V1048.67H826.275V988.647H833.046L833.407 993.455C836.425 989.715 840.619 987.846 845.988 987.846C851.197 987.846 855.311 989.809 858.329 993.735C861.374 997.662 862.897 1003.12 862.897 1010.12V1010.8ZM855.484 1009.96C855.484 1005.07 854.442 1001.21 852.359 998.383C850.275 995.552 847.417 994.136 843.784 994.136C839.297 994.136 835.931 996.126 833.687 1000.11V1020.82C835.904 1024.77 839.297 1026.75 843.865 1026.75C847.417 1026.75 850.235 1025.35 852.319 1022.54C854.429 1019.71 855.484 1015.52 855.484 1009.96ZM870.389 1009.92C870.389 1005.68 871.217 1001.86 872.874 998.463C874.556 995.071 876.88 992.453 879.845 990.61C882.837 988.767 886.243 987.846 890.062 987.846C895.966 987.846 900.734 989.889 904.367 993.976C908.026 998.063 909.856 1003.5 909.856 1010.28V1010.8C909.856 1015.02 909.041 1018.82 907.412 1022.18C905.809 1025.52 903.498 1028.13 900.48 1030C897.488 1031.87 894.043 1032.8 890.143 1032.8C884.266 1032.8 879.498 1030.76 875.839 1026.67C872.206 1022.58 870.389 1017.17 870.389 1010.44V1009.92ZM877.842 1010.8C877.842 1015.61 878.95 1019.47 881.167 1022.38C883.411 1025.3 886.403 1026.75 890.143 1026.75C893.909 1026.75 896.901 1025.28 899.118 1022.34C901.335 1019.38 902.443 1015.24 902.443 1009.92C902.443 1005.17 901.308 1001.32 899.038 998.383C896.794 995.418 893.802 993.936 890.062 993.936C886.403 993.936 883.451 995.392 881.208 998.303C878.964 1001.21 877.842 1005.38 877.842 1010.8ZM936.541 1026.75C939.185 1026.75 941.496 1025.95 943.473 1024.35C945.449 1022.74 946.544 1020.74 946.758 1018.34H953.77C953.636 1020.82 952.782 1023.19 951.206 1025.43C949.63 1027.67 947.519 1029.46 944.875 1030.8C942.257 1032.13 939.479 1032.8 936.541 1032.8C930.638 1032.8 925.936 1030.84 922.437 1026.91C918.965 1022.96 917.228 1017.56 917.228 1010.72V1009.48C917.228 1005.26 918.003 1001.51 919.552 998.223C921.102 994.937 923.319 992.387 926.203 990.57C929.115 988.754 932.547 987.846 936.501 987.846C941.362 987.846 945.396 989.301 948.601 992.213C951.833 995.124 953.556 998.904 953.77 1003.55H946.758C946.544 1000.75 945.476 998.45 943.553 996.66C941.656 994.844 939.306 993.936 936.501 993.936C932.734 993.936 929.81 995.298 927.726 998.023C925.669 1000.72 924.641 1004.63 924.641 1009.76V1011.16C924.641 1016.16 925.669 1020.01 927.726 1022.7C929.783 1025.4 932.721 1026.75 936.541 1026.75Z" fill="#007BFF"/>
<path d="M1265 1289.75C1267.64 1289.75 1269.95 1288.95 1271.93 1287.35C1273.91 1285.74 1275 1283.74 1275.22 1281.34H1282.23C1282.09 1283.82 1281.24 1286.19 1279.66 1288.43C1278.09 1290.67 1275.98 1292.46 1273.33 1293.8C1270.72 1295.13 1267.94 1295.8 1265 1295.8C1259.1 1295.8 1254.39 1293.84 1250.9 1289.91C1247.42 1285.96 1245.69 1280.56 1245.69 1273.72V1272.48C1245.69 1268.26 1246.46 1264.51 1248.01 1261.22C1249.56 1257.94 1251.78 1255.39 1254.66 1253.57C1257.57 1251.75 1261.01 1250.85 1264.96 1250.85C1269.82 1250.85 1273.85 1252.3 1277.06 1255.21C1280.29 1258.12 1282.01 1261.9 1282.23 1266.55H1275.22C1275 1263.75 1273.93 1261.45 1272.01 1259.66C1270.11 1257.84 1267.76 1256.94 1264.96 1256.94C1261.19 1256.94 1258.27 1258.3 1256.18 1261.02C1254.13 1263.72 1253.1 1267.63 1253.1 1272.76V1274.16C1253.1 1279.16 1254.13 1283.01 1256.18 1285.7C1258.24 1288.4 1261.18 1289.75 1265 1289.75ZM1308.55 1295.8C1302.68 1295.8 1297.89 1293.88 1294.21 1290.03C1290.52 1286.16 1288.68 1280.99 1288.68 1274.53V1273.16C1288.68 1268.86 1289.49 1265.03 1291.12 1261.66C1292.78 1258.27 1295.08 1255.63 1298.01 1253.73C1300.98 1251.81 1304.18 1250.85 1307.63 1250.85C1313.27 1250.85 1317.65 1252.7 1320.77 1256.41C1323.9 1260.13 1325.46 1265.44 1325.46 1272.36V1275.45H1296.09C1296.2 1279.72 1297.44 1283.18 1299.82 1285.82C1302.22 1288.44 1305.27 1289.75 1308.95 1289.75C1311.57 1289.75 1313.79 1289.22 1315.6 1288.15C1317.42 1287.08 1319.01 1285.66 1320.37 1283.9L1324.9 1287.43C1321.27 1293.01 1315.82 1295.8 1308.55 1295.8ZM1307.63 1256.94C1304.64 1256.94 1302.13 1258.03 1300.1 1260.22C1298.07 1262.38 1296.81 1265.43 1296.33 1269.36H1318.05V1268.8C1317.83 1265.03 1316.82 1262.12 1315 1260.06C1313.19 1257.98 1310.73 1256.94 1307.63 1256.94ZM1370.7 1273.8C1370.7 1280.4 1369.19 1285.72 1366.17 1289.75C1363.15 1293.78 1359.06 1295.8 1353.91 1295.8C1348.65 1295.8 1344.51 1294.13 1341.49 1290.79V1311.67H1334.08V1251.65H1340.85L1341.21 1256.45C1344.23 1252.72 1348.42 1250.85 1353.79 1250.85C1359 1250.85 1363.11 1252.81 1366.13 1256.74C1369.17 1260.66 1370.7 1266.12 1370.7 1273.12V1273.8ZM1363.28 1272.96C1363.28 1268.07 1362.24 1264.21 1360.16 1261.38C1358.08 1258.55 1355.22 1257.14 1351.58 1257.14C1347.1 1257.14 1343.73 1259.13 1341.49 1263.11V1283.82C1343.7 1287.77 1347.1 1289.75 1351.66 1289.75C1355.22 1289.75 1358.04 1288.35 1360.12 1285.54C1362.23 1282.71 1363.28 1278.52 1363.28 1272.96ZM1380.83 1295V1251.65H1397.74C1403.51 1251.65 1407.93 1252.66 1411.01 1254.69C1414.1 1256.7 1415.65 1259.65 1415.65 1263.55C1415.65 1265.55 1415.05 1267.37 1413.85 1269C1412.65 1270.6 1410.87 1271.83 1408.52 1272.68C1411.14 1273.3 1413.24 1274.5 1414.81 1276.29C1416.41 1278.08 1417.22 1280.22 1417.22 1282.7C1417.22 1286.68 1415.75 1289.72 1412.81 1291.83C1409.9 1293.94 1405.77 1295 1400.43 1295H1380.83ZM1388.25 1275.97V1289.03H1400.51C1403.61 1289.03 1405.92 1288.46 1407.44 1287.31C1408.99 1286.16 1409.76 1284.54 1409.76 1282.46C1409.76 1278.13 1406.58 1275.97 1400.23 1275.97H1388.25ZM1388.25 1270.04H1397.82C1404.77 1270.04 1408.24 1268.01 1408.24 1263.95C1408.24 1259.89 1404.95 1257.79 1398.38 1257.66H1388.25V1270.04ZM1445.02 1295.8C1439.15 1295.8 1434.36 1293.88 1430.68 1290.03C1426.99 1286.16 1425.15 1280.99 1425.15 1274.53V1273.16C1425.15 1268.86 1425.96 1265.03 1427.59 1261.66C1429.25 1258.27 1431.55 1255.63 1434.48 1253.73C1437.45 1251.81 1440.66 1250.85 1444.1 1250.85C1449.74 1250.85 1454.12 1252.7 1457.24 1256.41C1460.37 1260.13 1461.93 1265.44 1461.93 1272.36V1275.45H1432.56C1432.67 1279.72 1433.91 1283.18 1436.29 1285.82C1438.69 1288.44 1441.74 1289.75 1445.42 1289.75C1448.04 1289.75 1450.26 1289.22 1452.07 1288.15C1453.89 1287.08 1455.48 1285.66 1456.84 1283.9L1461.37 1287.43C1457.74 1293.01 1452.29 1295.8 1445.02 1295.8ZM1444.1 1256.94C1441.11 1256.94 1438.6 1258.03 1436.57 1260.22C1434.54 1262.38 1433.28 1265.43 1432.8 1269.36H1454.52V1268.8C1454.3 1265.03 1453.29 1262.12 1451.47 1260.06C1449.66 1257.98 1447.2 1256.94 1444.1 1256.94ZM1507.17 1273.8C1507.17 1280.4 1505.66 1285.72 1502.64 1289.75C1499.62 1293.78 1495.53 1295.8 1490.38 1295.8C1485.12 1295.8 1480.98 1294.13 1477.96 1290.79V1311.67H1470.55V1251.65H1477.32L1477.68 1256.45C1480.7 1252.72 1484.89 1250.85 1490.26 1250.85C1495.47 1250.85 1499.58 1252.81 1502.6 1256.74C1505.64 1260.66 1507.17 1266.12 1507.17 1273.12V1273.8ZM1499.75 1272.96C1499.75 1268.07 1498.71 1264.21 1496.63 1261.38C1494.55 1258.55 1491.69 1257.14 1488.05 1257.14C1483.57 1257.14 1480.2 1259.13 1477.96 1263.11V1283.82C1480.18 1287.77 1483.57 1289.75 1488.14 1289.75C1491.69 1289.75 1494.51 1288.35 1496.59 1285.54C1498.7 1282.71 1499.75 1278.52 1499.75 1272.96Z" fill="black"/>
<path opacity="0.12" d="M1469.5 1137.8H1284.9C1274.6 1137.8 1266.2 1129.4 1266.2 1119.1V577.5C1266.2 567.2 1274.6 558.8 1284.9 558.8H1469.5C1479.8 558.8 1488.2 567.2 1488.2 577.5V1119.1C1488.2 1129.4 1479.8 1137.8 1469.5 1137.8Z" fill="#007BFF"/>
<path d="M1484.4 1158.6H1270C1258.5 1158.6 1249.2 1149.3 1249.2 1137.8V558.9C1249.2 547.4 1258.5 538.1 1270 538.1H1484.5C1496 538.1 1505.3 547.4 1505.3 558.9V1137.8C1505.3 1149.2 1495.9 1158.6 1484.4 1158.6Z" stroke="#007BFF" stroke-width="2" stroke-miterlimit="10"/>
<path d="M1511.2 1185.4H1243.2C1239.2 1185.4 1236 1182.1 1236 1178.2C1236 1174.2 1239.3 1171 1243.2 1171H1511.2C1515.2 1171 1518.4 1174.3 1518.4 1178.2C1518.4 1182.1 1515.1 1185.4 1511.2 1185.4Z" stroke="#007BFF" stroke-width="2" stroke-miterlimit="10"/>
</svg>
