<?xml version="1.0" encoding="utf-8"?>
<!-- Generator: Adobe Illustrator 20.1.0, SVG Export Plug-In . SVG Version: 6.00 Build 0)  -->
<svg version="1.1" id="Layer_1" xmlns="http://www.w3.org/2000/svg" xmlns:xlink="http://www.w3.org/1999/xlink" x="0px" y="0px"
	 viewBox="0 0 1600 818.1" style="enable-background:new 0 0 1600 818.1;" xml:space="preserve">
<style type="text/css">
	.st0{opacity:0.12;fill:#007BFF;enable-background:new    ;}
	.st1{fill:none;stroke:#007BFF;stroke-width:4;stroke-miterlimit:10;}
	.st2{fill:#FFFFFF;}
	.st3{fill:#082E51;}
</style>
<rect x="26" y="50" class="st0" width="1054" height="724"/>
<rect x="76" y="120" class="st1" width="962" height="152"/>
<rect x="76" y="333" class="st2" width="962" height="361"/>
<rect x="130.6" y="394" class="st1" width="859.4" height="216"/>
<rect x="140.7" y="170" class="st1" width="593.3" height="50"/>
<rect x="166.7" y="425.8" class="st1" width="786.9" height="57.9"/>
<rect x="166.7" y="524.1" class="st1" width="786.9" height="57.9"/>
<rect x="1332.8" y="300" class="st3" width="163.4" height="242"/>
<circle class="st1" cx="1414.5" cy="204.4" r="84.4"/>
<rect x="1274.6" y="333" class="st0" width="49.5" height="143.1"/>
<rect x="1505" y="333" class="st0" width="49.5" height="143.1"/>
<rect x="1343" y="553" class="st0" width="59.6" height="143.1"/>
<rect x="1430" y="553" class="st0" width="59.6" height="143.1"/>
<g>
	<path class="st3" d="M44.7,74.9L57,68.6v1.8l-10.3,5.2v0.1L57,80.8v1.8l-12.2-6.3V74.9z"/>
	<path class="st3" d="M60.7,63.9H63v8H63c0.4-0.7,1-1.2,1.7-1.6c0.7-0.4,1.5-0.7,2.4-0.7c1.7,0,4.5,1.1,4.5,5.5v7.6h-2.3v-7.3
		c0-2.1-0.8-3.8-3-3.8c-1.5,0-2.7,1.1-3.1,2.3C63,74.1,63,74.5,63,74.9v7.7h-2.3V63.9z"/>
	<path class="st3" d="M78,66.2v3.7h3.3v1.8H78v6.9c0,1.6,0.4,2.5,1.7,2.5c0.6,0,1.1-0.1,1.3-0.2l0.1,1.7c-0.4,0.2-1.2,0.3-2.1,0.3
		c-1.1,0-2-0.3-2.5-1c-0.7-0.7-0.9-1.8-0.9-3.3v-7h-2v-1.8h2v-3.1L78,66.2z"/>
	<path class="st3" d="M83.9,73.3c0-1.3,0-2.4-0.1-3.5h2l0.1,2.1h0.1c0.7-1.2,1.9-2.3,4-2.3c1.7,0,3.1,1.1,3.6,2.6h0.1
		c0.4-0.7,0.9-1.3,1.4-1.7c0.8-0.6,1.6-0.9,2.8-0.9c1.7,0,4.2,1.1,4.2,5.5v7.5h-2.3v-7.2c0-2.5-0.9-3.9-2.8-3.9
		c-1.3,0-2.3,1-2.7,2.1c-0.1,0.3-0.2,0.7-0.2,1.2v7.9h-2.3V75c0-2-0.9-3.5-2.7-3.5c-1.5,0-2.5,1.2-2.9,2.3c-0.1,0.3-0.2,0.7-0.2,1.1
		v7.7h-2.3V73.3z"/>
	<path class="st3" d="M106,63.9h2.3v18.7H106V63.9z"/>
	<path class="st3" d="M124.3,76.3L112,82.6v-1.8l10.4-5.2v-0.1L112,70.4v-1.8l12.2,6.3V76.3z"/>
</g>
<g>
	<path class="st3" d="M1363.2,31.4l12.2-6.3v1.8l-10.3,5.2v0.1l10.3,5.2v1.8l-12.2-6.3V31.4z"/>
	<path class="st3" d="M1379.1,20.4h2.3v8h0.1c0.4-0.7,0.9-1.2,1.7-1.6c0.7-0.4,1.5-0.7,2.4-0.7c1.7,0,4.5,1.1,4.5,5.5v7.6h-2.3v-7.3
		c0-2.1-0.8-3.8-3-3.8c-1.5,0-2.7,1.1-3.1,2.3c-0.1,0.3-0.2,0.7-0.2,1.1v7.7h-2.3V20.4z"/>
	<path class="st3" d="M1396.4,22.7v3.7h3.3v1.8h-3.3V35c0,1.6,0.4,2.5,1.7,2.5c0.6,0,1.1-0.1,1.3-0.2l0.1,1.7
		c-0.4,0.2-1.2,0.3-2.1,0.3c-1.1,0-2-0.3-2.5-1c-0.7-0.7-0.9-1.8-0.9-3.3v-7h-2v-1.8h2v-3.1L1396.4,22.7z"/>
	<path class="st3" d="M1402.4,29.8c0-1.3,0-2.4-0.1-3.5h2l0.1,2.1h0.1c0.7-1.2,1.9-2.3,4-2.3c1.7,0,3.1,1.1,3.6,2.6h0.1
		c0.4-0.7,0.9-1.3,1.4-1.7c0.8-0.6,1.6-0.9,2.8-0.9c1.7,0,4.2,1.1,4.2,5.5v7.5h-2.3v-7.2c0-2.5-0.9-3.9-2.8-3.9
		c-1.3,0-2.3,1-2.7,2.1c-0.1,0.3-0.2,0.7-0.2,1.2v7.9h-2.3v-7.7c0-2-0.9-3.5-2.7-3.5c-1.5,0-2.5,1.2-2.9,2.3
		c-0.1,0.3-0.2,0.7-0.2,1.1v7.7h-2.3V29.8z"/>
	<path class="st3" d="M1424.4,20.4h2.3v18.7h-2.3V20.4z"/>
	<path class="st3" d="M1442.7,32.8l-12.2,6.3v-1.8l10.4-5.2v-0.1l-10.4-5.2v-1.8l12.2,6.3V32.8z"/>
</g>
<g>
	<path class="st3" d="M1357.2,776.9l12.2-6.3v1.8l-10.3,5.2v0.1l10.3,5.2v1.8l-12.2-6.3V776.9z"/>
	<path class="st3" d="M1371.1,785.6l7.4-19.1h1.8l-7.4,19.1H1371.1z"/>
	<path class="st3" d="M1382.1,765.8h2.3v8h0.1c0.4-0.7,1-1.2,1.7-1.6c0.7-0.4,1.5-0.7,2.4-0.7c1.7,0,4.5,1.1,4.5,5.5v7.6h-2.3v-7.3
		c0-2.1-0.8-3.8-3-3.8c-1.5,0-2.7,1.1-3.1,2.3c-0.1,0.3-0.2,0.7-0.2,1.1v7.7h-2.3V765.8z"/>
	<path class="st3" d="M1399.5,768.1v3.7h3.3v1.8h-3.3v6.9c0,1.6,0.4,2.5,1.7,2.5c0.6,0,1.1-0.1,1.3-0.2l0.1,1.7
		c-0.4,0.2-1.2,0.3-2.1,0.3c-1.1,0-2-0.3-2.5-1c-0.7-0.7-0.9-1.8-0.9-3.3v-7h-2v-1.8h2v-3.1L1399.5,768.1z"/>
	<path class="st3" d="M1405.4,775.3c0-1.3,0-2.4-0.1-3.5h2l0.1,2.1h0.1c0.7-1.2,1.9-2.3,4-2.3c1.7,0,3.1,1.1,3.6,2.6h0.1
		c0.4-0.7,0.9-1.3,1.4-1.7c0.8-0.6,1.6-0.9,2.8-0.9c1.7,0,4.2,1.1,4.2,5.5v7.5h-2.3v-7.2c0-2.5-0.9-3.9-2.8-3.9
		c-1.3,0-2.3,1-2.7,2.1c-0.1,0.3-0.2,0.7-0.2,1.2v7.9h-2.3v-7.7c0-2-0.9-3.5-2.7-3.5c-1.5,0-2.5,1.2-2.9,2.3
		c-0.1,0.3-0.2,0.7-0.2,1.1v7.7h-2.3V775.3z"/>
	<path class="st3" d="M1427.4,765.8h2.3v18.7h-2.3V765.8z"/>
	<path class="st3" d="M1445.7,778.3l-12.2,6.3v-1.8l10.4-5.2v-0.1l-10.4-5.2v-1.8l12.2,6.3V778.3z"/>
</g>
<g>
	<path class="st3" d="M1364.7,145.3l12.2-6.3v1.8l-10.3,5.2v0.1l10.3,5.2v1.8l-12.2-6.3V145.3z"/>
	<path class="st3" d="M1380.7,134.3h2.3v8h0.1c0.4-0.7,0.9-1.2,1.7-1.6c0.7-0.4,1.5-0.7,2.4-0.7c1.7,0,4.5,1.1,4.5,5.5v7.6h-2.3
		v-7.3c0-2.1-0.8-3.8-3-3.8c-1.5,0-2.7,1.1-3.1,2.3c-0.1,0.3-0.2,0.7-0.2,1.1v7.7h-2.3V134.3z"/>
	<path class="st3" d="M1396.6,147.1c0.1,3.1,2.1,4.4,4.4,4.4c1.7,0,2.7-0.3,3.5-0.7l0.4,1.7c-0.8,0.4-2.2,0.8-4.2,0.8
		c-3.9,0-6.3-2.6-6.3-6.4s2.3-6.9,6-6.9c4.2,0,5.3,3.7,5.3,6c0,0.5-0.1,0.8-0.1,1.1H1396.6z M1403.4,145.4c0-1.5-0.6-3.8-3.2-3.8
		c-2.3,0-3.4,2.2-3.6,3.8H1403.4z"/>
	<path class="st3" d="M1415.6,153l-0.2-1.6h-0.1c-0.7,1-2.1,1.9-3.9,1.9c-2.6,0-3.9-1.8-3.9-3.7c0-3.1,2.7-4.8,7.7-4.8v-0.3
		c0-1.1-0.3-3-2.9-3c-1.2,0-2.4,0.4-3.3,1l-0.5-1.5c1.1-0.7,2.6-1.1,4.2-1.1c3.9,0,4.9,2.7,4.9,5.2v4.8c0,1.1,0.1,2.2,0.2,3.1
		H1415.6z M1415.3,146.5c-2.5-0.1-5.4,0.4-5.4,2.9c0,1.5,1,2.2,2.2,2.2c1.7,0,2.7-1.1,3.1-2.1c0.1-0.2,0.1-0.5,0.1-0.7V146.5z"/>
	<path class="st3" d="M1432.3,134.3v15.4c0,1.1,0,2.4,0.1,3.3h-2.1l-0.1-2.2h-0.1c-0.7,1.4-2.3,2.5-4.4,2.5c-3.1,0-5.5-2.6-5.5-6.5
		c0-4.2,2.6-6.9,5.7-6.9c2,0,3.3,0.9,3.9,2h0.1v-7.6H1432.3z M1430,145.5c0-0.3,0-0.7-0.1-1c-0.3-1.5-1.6-2.7-3.4-2.7
		c-2.4,0-3.8,2.1-3.8,4.9c0,2.6,1.3,4.7,3.8,4.7c1.6,0,3-1,3.4-2.8c0.1-0.3,0.1-0.6,0.1-1V145.5z"/>
	<path class="st3" d="M1448.2,146.8L1436,153v-1.8l10.4-5.2V146l-10.4-5.2V139l12.2,6.3V146.8z"/>
</g>
<g>
	<path class="st3" d="M1370.7,264.3l12.2-6.3v1.8l-10.3,5.2v0.1l10.3,5.2v1.8l-12.2-6.3V264.3z"/>
	<path class="st3" d="M1384.7,273.1l7.4-19.1h1.8l-7.4,19.1H1384.7z"/>
	<path class="st3" d="M1395.7,253.3h2.3v8h0.1c0.4-0.7,0.9-1.2,1.7-1.6c0.7-0.4,1.5-0.7,2.4-0.7c1.7,0,4.5,1.1,4.5,5.5v7.6h-2.3
		v-7.3c0-2.1-0.8-3.8-3-3.8c-1.5,0-2.7,1.1-3.1,2.3c-0.1,0.3-0.2,0.7-0.2,1.1v7.7h-2.3V253.3z"/>
	<path class="st3" d="M1411.7,266.1c0.1,3.1,2.1,4.4,4.4,4.4c1.7,0,2.7-0.3,3.5-0.7l0.4,1.7c-0.8,0.4-2.2,0.8-4.2,0.8
		c-3.9,0-6.3-2.6-6.3-6.4s2.3-6.9,6-6.9c4.2,0,5.3,3.7,5.3,6c0,0.5-0.1,0.8-0.1,1.1H1411.7z M1418.5,264.4c0-1.5-0.6-3.8-3.2-3.8
		c-2.3,0-3.4,2.2-3.6,3.8H1418.5z"/>
	<path class="st3" d="M1430.7,272l-0.2-1.6h-0.1c-0.7,1-2.1,1.9-3.9,1.9c-2.6,0-3.9-1.8-3.9-3.7c0-3.1,2.7-4.8,7.7-4.8v-0.3
		c0-1.1-0.3-3-2.9-3c-1.2,0-2.4,0.4-3.3,1l-0.5-1.5c1.1-0.7,2.6-1.1,4.2-1.1c3.9,0,4.9,2.7,4.9,5.2v4.8c0,1.1,0.1,2.2,0.2,3.1
		H1430.7z M1430.3,265.5c-2.5-0.1-5.4,0.4-5.4,2.9c0,1.5,1,2.2,2.2,2.2c1.7,0,2.7-1.1,3.1-2.1c0.1-0.2,0.1-0.5,0.1-0.7V265.5z"/>
	<path class="st3" d="M1447.4,253.3v15.4c0,1.1,0,2.4,0.1,3.3h-2.1l-0.1-2.2h-0.1c-0.7,1.4-2.3,2.5-4.4,2.5c-3.1,0-5.5-2.6-5.5-6.5
		c0-4.2,2.6-6.9,5.7-6.9c2,0,3.3,0.9,3.9,2h0.1v-7.6H1447.4z M1445,264.5c0-0.3,0-0.7-0.1-1c-0.3-1.5-1.6-2.7-3.4-2.7
		c-2.4,0-3.8,2.1-3.8,4.9c0,2.6,1.3,4.7,3.8,4.7c1.6,0,3-1,3.4-2.8c0.1-0.3,0.1-0.6,0.1-1V264.5z"/>
	<path class="st3" d="M1463.3,265.8L1451,272v-1.8l10.4-5.2V265l-10.4-5.2V258l12.2,6.3V265.8z"/>
</g>
<g>
	<path class="st2" d="M1370.7,505.3l12.2-6.3v1.8l-10.3,5.2v0.1l10.3,5.2v1.8l-12.2-6.3V505.3z"/>
	<path class="st2" d="M1384.7,514.1l7.4-19.1h1.8l-7.4,19.1H1384.7z"/>
	<path class="st2" d="M1395.6,513c0.1-0.9,0.1-2.2,0.1-3.3v-15.4h2.3v8h0.1c0.8-1.4,2.3-2.3,4.4-2.3c3.2,0,5.4,2.6,5.4,6.5
		c0,4.6-2.9,6.8-5.7,6.8c-1.8,0-3.3-0.7-4.3-2.4h-0.1l-0.1,2.1H1395.6z M1398,507.9c0,0.3,0.1,0.6,0.1,0.8c0.4,1.6,1.8,2.7,3.5,2.7
		c2.4,0,3.9-2,3.9-4.9c0-2.6-1.3-4.8-3.8-4.8c-1.6,0-3.1,1.1-3.5,2.9c-0.1,0.3-0.1,0.6-0.1,1V507.9z"/>
	<path class="st2" d="M1422.3,506.6c0,4.7-3.3,6.8-6.4,6.8c-3.5,0-6.1-2.5-6.1-6.6c0-4.3,2.8-6.8,6.3-6.8
		C1419.8,500,1422.3,502.6,1422.3,506.6z M1412.2,506.7c0,2.8,1.6,4.9,3.9,4.9c2.2,0,3.9-2.1,3.9-5c0-2.2-1.1-4.9-3.8-4.9
		S1412.2,504.3,1412.2,506.7z"/>
	<path class="st2" d="M1436.3,494.3v15.4c0,1.1,0,2.4,0.1,3.3h-2.1l-0.1-2.2h-0.1c-0.7,1.4-2.3,2.5-4.4,2.5c-3.1,0-5.5-2.6-5.5-6.5
		c0-4.2,2.6-6.9,5.7-6.9c2,0,3.3,0.9,3.9,2h0.1v-7.6H1436.3z M1433.9,505.5c0-0.3,0-0.7-0.1-1c-0.3-1.5-1.6-2.7-3.4-2.7
		c-2.4,0-3.8,2.1-3.8,4.9c0,2.6,1.3,4.7,3.8,4.7c1.6,0,3-1,3.4-2.8c0.1-0.3,0.1-0.6,0.1-1V505.5z"/>
	<path class="st2" d="M1441,500.3l2.8,7.5c0.3,0.8,0.6,1.8,0.8,2.6h0.1c0.2-0.8,0.5-1.7,0.8-2.7l2.5-7.5h2.5l-3.5,9.1
		c-1.7,4.4-2.8,6.6-4.4,8c-1.1,1-2.3,1.4-2.9,1.5l-0.6-2c0.6-0.2,1.3-0.6,2-1.1c0.6-0.5,1.4-1.4,2-2.6c0.1-0.2,0.2-0.4,0.2-0.6
		s-0.1-0.3-0.2-0.6l-4.7-11.8H1441z"/>
	<path class="st2" d="M1464.6,506.8l-12.2,6.3v-1.8l10.4-5.2V506l-10.4-5.2V499l12.2,6.3V506.8z"/>
</g>
<g>
	<path class="st2" d="M1377.2,348.3l12.2-6.3v1.8l-10.3,5.2v0.1l10.3,5.2v1.8l-12.2-6.3V348.3z"/>
	<path class="st2" d="M1393,356c0.1-0.9,0.1-2.2,0.1-3.3v-15.4h2.3v8h0.1c0.8-1.4,2.3-2.3,4.4-2.3c3.2,0,5.4,2.6,5.4,6.5
		c0,4.6-2.9,6.8-5.7,6.8c-1.8,0-3.3-0.7-4.3-2.4h-0.1l-0.1,2.1H1393z M1395.4,350.9c0,0.3,0.1,0.6,0.1,0.8c0.4,1.6,1.8,2.7,3.5,2.7
		c2.4,0,3.9-2,3.9-4.9c0-2.6-1.3-4.8-3.8-4.8c-1.6,0-3.1,1.1-3.5,2.9c-0.1,0.3-0.1,0.6-0.1,1V350.9z"/>
	<path class="st2" d="M1419.7,349.6c0,4.7-3.3,6.8-6.4,6.8c-3.5,0-6.1-2.5-6.1-6.6c0-4.3,2.8-6.8,6.3-6.8
		C1417.2,343,1419.7,345.6,1419.7,349.6z M1409.5,349.7c0,2.8,1.6,4.9,3.9,4.9c2.2,0,3.9-2.1,3.9-5c0-2.2-1.1-4.9-3.8-4.9
		C1410.7,344.7,1409.5,347.3,1409.5,349.7z"/>
	<path class="st2" d="M1433.6,337.3v15.4c0,1.1,0,2.4,0.1,3.3h-2.1l-0.1-2.2h-0.1c-0.7,1.4-2.3,2.5-4.4,2.5c-3.1,0-5.5-2.6-5.5-6.5
		c0-4.2,2.6-6.9,5.7-6.9c2,0,3.3,0.9,3.9,2h0.1v-7.6H1433.6z M1431.3,348.5c0-0.3,0-0.7-0.1-1c-0.3-1.5-1.6-2.7-3.4-2.7
		c-2.4,0-3.8,2.1-3.8,4.9c0,2.6,1.3,4.7,3.8,4.7c1.6,0,3-1,3.4-2.8c0.1-0.3,0.1-0.6,0.1-1V348.5z"/>
	<path class="st2" d="M1438.3,343.3l2.8,7.5c0.3,0.8,0.6,1.8,0.8,2.6h0.1c0.2-0.8,0.5-1.7,0.8-2.7l2.5-7.5h2.5l-3.5,9.1
		c-1.7,4.4-2.8,6.6-4.4,8c-1.1,1-2.3,1.4-2.9,1.5l-0.6-2c0.6-0.2,1.3-0.6,2-1.1c0.6-0.5,1.4-1.4,2-2.6c0.1-0.2,0.2-0.4,0.2-0.6
		s-0.1-0.3-0.2-0.6l-4.7-11.8H1438.3z"/>
	<path class="st2" d="M1462,349.8l-12.2,6.3v-1.8l10.4-5.2V349l-10.4-5.2V342l12.2,6.3V349.8z"/>
</g>
<g>
	<path class="st3" d="M1400.7,185.3l12.2-6.3v1.8l-10.3,5.2v0.1l10.3,5.2v1.8l-12.2-6.3V185.3z"/>
	<path class="st3" d="M1419.5,176.6v3.7h3.3v1.8h-3.3v6.9c0,1.6,0.4,2.5,1.7,2.5c0.6,0,1.1-0.1,1.3-0.2l0.1,1.7
		c-0.4,0.2-1.2,0.3-2.1,0.3c-1.1,0-2-0.3-2.5-1c-0.7-0.7-0.9-1.8-0.9-3.3v-7h-2v-1.8h2v-3.1L1419.5,176.6z"/>
	<path class="st3" d="M1428,176.7c0,0.8-0.6,1.4-1.5,1.4c-0.8,0-1.4-0.6-1.4-1.4c0-0.8,0.6-1.5,1.5-1.5
		C1427.4,175.2,1428,175.9,1428,176.7z M1425.4,193v-12.8h2.3V193H1425.4z"/>
	<path class="st3" d="M1434.4,176.6v3.7h3.3v1.8h-3.3v6.9c0,1.6,0.4,2.5,1.7,2.5c0.6,0,1.1-0.1,1.3-0.2l0.1,1.7
		c-0.4,0.2-1.2,0.3-2.1,0.3c-1.1,0-2-0.3-2.5-1c-0.7-0.7-0.9-1.8-0.9-3.3v-7h-2v-1.8h2v-3.1L1434.4,176.6z"/>
	<path class="st3" d="M1440.3,174.3h2.3V193h-2.3V174.3z"/>
	<path class="st3" d="M1447.8,187.1c0.1,3.1,2.1,4.4,4.4,4.4c1.7,0,2.7-0.3,3.5-0.7l0.4,1.7c-0.8,0.4-2.2,0.8-4.2,0.8
		c-3.9,0-6.3-2.6-6.3-6.4s2.3-6.9,6-6.9c4.2,0,5.3,3.7,5.3,6c0,0.5-0.1,0.8-0.1,1.1H1447.8z M1454.6,185.4c0-1.5-0.6-3.8-3.2-3.8
		c-2.3,0-3.4,2.2-3.6,3.8H1454.6z"/>
	<path class="st3" d="M1471.8,186.8l-12.2,6.3v-1.8l10.4-5.2V186l-10.4-5.2V179l12.2,6.3V186.8z"/>
</g>
<g>
	<path class="st3" d="M1394.5,225.3l12.2-6.3v1.8l-10.3,5.2v0.1l10.3,5.2v1.8l-12.2-6.3V225.3z"/>
	<path class="st3" d="M1408.5,234.1l7.4-19.1h1.8l-7.4,19.1H1408.5z"/>
	<path class="st3" d="M1422.3,216.6v3.7h3.3v1.8h-3.3v6.9c0,1.6,0.4,2.5,1.7,2.5c0.6,0,1.1-0.1,1.3-0.2l0.1,1.7
		c-0.4,0.2-1.2,0.3-2.1,0.3c-1.1,0-2-0.3-2.5-1c-0.7-0.7-0.9-1.8-0.9-3.3v-7h-2v-1.8h2v-3.1L1422.3,216.6z"/>
	<path class="st3" d="M1430.8,216.7c0,0.8-0.6,1.4-1.5,1.4c-0.8,0-1.4-0.6-1.4-1.4c0-0.8,0.6-1.5,1.5-1.5
		C1430.3,215.2,1430.8,215.9,1430.8,216.7z M1428.3,233v-12.8h2.3V233H1428.3z"/>
	<path class="st3" d="M1437.2,216.6v3.7h3.3v1.8h-3.3v6.9c0,1.6,0.4,2.5,1.7,2.5c0.6,0,1.1-0.1,1.3-0.2l0.1,1.7
		c-0.4,0.2-1.2,0.3-2.1,0.3c-1.1,0-2-0.3-2.5-1c-0.7-0.7-0.9-1.8-0.9-3.3v-7h-2v-1.8h2v-3.1L1437.2,216.6z"/>
	<path class="st3" d="M1443.2,214.3h2.3V233h-2.3V214.3z"/>
	<path class="st3" d="M1450.7,227.1c0.1,3.1,2.1,4.4,4.4,4.4c1.7,0,2.7-0.3,3.5-0.7l0.4,1.7c-0.8,0.4-2.2,0.8-4.2,0.8
		c-3.9,0-6.3-2.6-6.3-6.4s2.3-6.9,6-6.9c4.2,0,5.3,3.7,5.3,6c0,0.5-0.1,0.8-0.1,1.1H1450.7z M1457.5,225.4c0-1.5-0.6-3.8-3.2-3.8
		c-2.3,0-3.4,2.2-3.6,3.8H1457.5z"/>
	<path class="st3" d="M1474.7,226.8l-12.2,6.3v-1.8l10.4-5.2V226l-10.4-5.2V219l12.2,6.3V226.8z"/>
</g>
<g>
	<path class="st3" d="M98.7,150.9l12.2-6.3v1.8l-10.3,5.2v0.1l10.3,5.2v1.8l-12.2-6.3V150.9z"/>
	<path class="st3" d="M114.7,139.9h2.3v8h0.1c0.4-0.7,1-1.2,1.7-1.6c0.7-0.4,1.5-0.7,2.4-0.7c1.7,0,4.5,1.1,4.5,5.5v7.6h-2.3v-7.3
		c0-2.1-0.8-3.8-3-3.8c-1.5,0-2.7,1.1-3.1,2.3c-0.1,0.3-0.2,0.7-0.2,1.1v7.7h-2.3V139.9z"/>
	<path class="st3" d="M130.6,152.7c0.1,3.1,2.1,4.4,4.4,4.4c1.7,0,2.7-0.3,3.5-0.7l0.4,1.7c-0.8,0.4-2.2,0.8-4.2,0.8
		c-3.9,0-6.3-2.6-6.3-6.4s2.3-6.9,6-6.9c4.2,0,5.3,3.7,5.3,6c0,0.5-0.1,0.8-0.1,1.1H130.6z M137.4,151c0-1.5-0.6-3.8-3.2-3.8
		c-2.3,0-3.4,2.2-3.6,3.8H137.4z"/>
	<path class="st3" d="M149.6,158.6l-0.2-1.6h-0.1c-0.7,1-2.1,1.9-3.9,1.9c-2.6,0-3.9-1.8-3.9-3.7c0-3.1,2.7-4.8,7.7-4.8v-0.3
		c0-1.1-0.3-3-2.9-3c-1.2,0-2.4,0.4-3.3,1l-0.5-1.5c1.1-0.7,2.6-1.1,4.2-1.1c3.9,0,4.9,2.7,4.9,5.2v4.8c0,1.1,0.1,2.2,0.2,3.1H149.6
		z M149.3,152.1c-2.5-0.1-5.4,0.4-5.4,2.9c0,1.5,1,2.2,2.2,2.2c1.7,0,2.7-1.1,3.1-2.1c0.1-0.2,0.1-0.5,0.1-0.7V152.1z"/>
	<path class="st3" d="M166.3,139.9v15.4c0,1.1,0,2.4,0.1,3.3h-2.1l-0.1-2.2h-0.1c-0.7,1.4-2.3,2.5-4.4,2.5c-3.1,0-5.5-2.6-5.5-6.5
		c0-4.2,2.6-6.9,5.7-6.9c2,0,3.3,0.9,3.9,2h0.1v-7.6H166.3z M164,151c0-0.3,0-0.7-0.1-1c-0.3-1.5-1.6-2.7-3.4-2.7
		c-2.4,0-3.8,2.1-3.8,4.9c0,2.6,1.3,4.7,3.8,4.7c1.6,0,3-1,3.4-2.8c0.1-0.3,0.1-0.6,0.1-1V151z"/>
	<path class="st3" d="M182.2,152.3l-12.2,6.3v-1.8l10.4-5.2v-0.1l-10.4-5.2v-1.8l12.2,6.3V152.3z"/>
</g>
<g>
	<path class="st3" d="M98.7,242.9l12.2-6.3v1.8l-10.3,5.2v0.1l10.3,5.2v1.8l-12.2-6.3V242.9z"/>
	<path class="st3" d="M112.7,251.7l7.4-19.1h1.8l-7.4,19.1H112.7z"/>
	<path class="st3" d="M123.7,231.9h2.3v8h0.1c0.4-0.7,1-1.2,1.7-1.6c0.7-0.4,1.5-0.7,2.4-0.7c1.7,0,4.5,1.1,4.5,5.5v7.6h-2.3v-7.3
		c0-2.1-0.8-3.8-3-3.8c-1.5,0-2.7,1.1-3.1,2.3c-0.1,0.3-0.2,0.7-0.2,1.1v7.7h-2.3V231.9z"/>
	<path class="st3" d="M139.7,244.7c0.1,3.1,2.1,4.4,4.4,4.4c1.7,0,2.7-0.3,3.5-0.7l0.4,1.7c-0.8,0.4-2.2,0.8-4.2,0.8
		c-3.9,0-6.3-2.6-6.3-6.4s2.3-6.9,6-6.9c4.2,0,5.3,3.7,5.3,6c0,0.5-0.1,0.8-0.1,1.1H139.7z M146.5,243c0-1.5-0.6-3.8-3.2-3.8
		c-2.3,0-3.4,2.2-3.6,3.8H146.5z"/>
	<path class="st3" d="M158.7,250.6l-0.2-1.6h-0.1c-0.7,1-2.1,1.9-3.9,1.9c-2.6,0-3.9-1.8-3.9-3.7c0-3.1,2.7-4.8,7.7-4.8v-0.3
		c0-1.1-0.3-3-2.9-3c-1.2,0-2.4,0.4-3.3,1l-0.5-1.5c1.1-0.7,2.6-1.1,4.2-1.1c3.9,0,4.9,2.7,4.9,5.2v4.8c0,1.1,0.1,2.2,0.2,3.1H158.7
		z M158.3,244.1c-2.5-0.1-5.4,0.4-5.4,2.9c0,1.5,1,2.2,2.2,2.2c1.7,0,2.7-1.1,3.1-2.1c0.1-0.2,0.1-0.5,0.1-0.7V244.1z"/>
	<path class="st3" d="M175.3,231.9v15.4c0,1.1,0,2.4,0.1,3.3h-2.1l-0.1-2.2h-0.1c-0.7,1.4-2.3,2.5-4.4,2.5c-3.1,0-5.5-2.6-5.5-6.5
		c0-4.2,2.6-6.9,5.7-6.9c2,0,3.3,0.9,3.9,2h0.1v-7.6H175.3z M173,243c0-0.3,0-0.7-0.1-1c-0.3-1.5-1.6-2.7-3.4-2.7
		c-2.4,0-3.8,2.1-3.8,4.9c0,2.6,1.3,4.7,3.8,4.7c1.6,0,3-1,3.4-2.8c0.1-0.3,0.1-0.6,0.1-1V243z"/>
	<path class="st3" d="M191.3,244.3l-12.2,6.3v-1.8l10.4-5.2v-0.1l-10.4-5.2v-1.8l12.2,6.3V244.3z"/>
</g>
<g>
	<path class="st3" d="M382.7,192.9l12.2-6.3v1.8l-10.3,5.2v0.1l10.3,5.2v1.8l-12.2-6.3V192.9z"/>
	<path class="st3" d="M396.7,201.7l7.4-19.1h1.8l-7.4,19.1H396.7z"/>
	<path class="st3" d="M410.5,184.2v3.7h3.3v1.8h-3.3v6.9c0,1.6,0.4,2.5,1.7,2.5c0.6,0,1.1-0.1,1.3-0.2l0.1,1.7
		c-0.4,0.2-1.2,0.3-2.1,0.3c-1.1,0-2-0.3-2.5-1c-0.7-0.7-0.9-1.8-0.9-3.3v-7h-2v-1.8h2v-3.1L410.5,184.2z"/>
	<path class="st3" d="M419,184.3c0,0.8-0.6,1.4-1.5,1.4c-0.8,0-1.4-0.6-1.4-1.4c0-0.8,0.6-1.5,1.5-1.5
		C418.5,182.8,419,183.4,419,184.3z M416.5,200.6v-12.8h2.3v12.8H416.5z"/>
	<path class="st3" d="M425.4,184.2v3.7h3.3v1.8h-3.3v6.9c0,1.6,0.4,2.5,1.7,2.5c0.6,0,1.1-0.1,1.3-0.2l0.1,1.7
		c-0.4,0.2-1.2,0.3-2.1,0.3c-1.1,0-2-0.3-2.5-1c-0.7-0.7-0.9-1.8-0.9-3.3v-7h-2v-1.8h2v-3.1L425.4,184.2z"/>
	<path class="st3" d="M431.4,181.9h2.3v18.7h-2.3V181.9z"/>
	<path class="st3" d="M438.9,194.7c0.1,3.1,2.1,4.4,4.4,4.4c1.7,0,2.7-0.3,3.5-0.7l0.4,1.7c-0.8,0.4-2.2,0.8-4.2,0.8
		c-3.9,0-6.3-2.6-6.3-6.4s2.3-6.9,6-6.9c4.2,0,5.3,3.7,5.3,6c0,0.5-0.1,0.8-0.1,1.1H438.9z M445.7,193c0-1.5-0.6-3.8-3.2-3.8
		c-2.3,0-3.4,2.2-3.6,3.8H445.7z"/>
	<path class="st3" d="M462.9,194.3l-12.2,6.3v-1.8l10.4-5.2v-0.1l-10.4-5.2v-1.8l12.2,6.3V194.3z"/>
</g>
<g>
	<path class="st3" d="M103.7,366.9l12.2-6.3v1.8l-10.3,5.2v0.1l10.3,5.2v1.8l-12.2-6.3V366.9z"/>
	<path class="st3" d="M119.6,374.6c0.1-0.9,0.1-2.2,0.1-3.3v-15.4h2.3v8h0.1c0.8-1.4,2.3-2.3,4.4-2.3c3.2,0,5.4,2.6,5.4,6.5
		c0,4.6-2.9,6.8-5.7,6.8c-1.8,0-3.3-0.7-4.3-2.4h-0.1l-0.1,2.1H119.6z M122,369.5c0,0.3,0.1,0.6,0.1,0.8c0.4,1.6,1.8,2.7,3.5,2.7
		c2.4,0,3.9-2,3.9-4.9c0-2.6-1.3-4.8-3.8-4.8c-1.6,0-3.1,1.1-3.5,2.9c-0.1,0.3-0.1,0.6-0.1,1V369.5z"/>
	<path class="st3" d="M146.2,368.1c0,4.7-3.3,6.8-6.4,6.8c-3.5,0-6.1-2.5-6.1-6.6c0-4.3,2.8-6.8,6.3-6.8
		C143.8,361.6,146.2,364.2,146.2,368.1z M136.1,368.3c0,2.8,1.6,4.9,3.9,4.9c2.2,0,3.9-2.1,3.9-5c0-2.2-1.1-4.9-3.8-4.9
		C137.3,363.3,136.1,365.8,136.1,368.3z"/>
	<path class="st3" d="M160.2,355.9v15.4c0,1.1,0,2.4,0.1,3.3h-2.1l-0.1-2.2h-0.1c-0.7,1.4-2.3,2.5-4.4,2.5c-3.1,0-5.5-2.6-5.5-6.5
		c0-4.2,2.6-6.9,5.7-6.9c2,0,3.3,0.9,3.9,2h0.1v-7.6H160.2z M157.9,367c0-0.3,0-0.7-0.1-1c-0.3-1.5-1.6-2.7-3.4-2.7
		c-2.4,0-3.8,2.1-3.8,4.9c0,2.6,1.3,4.7,3.8,4.7c1.6,0,3-1,3.4-2.8c0.1-0.3,0.1-0.6,0.1-1V367z"/>
	<path class="st3" d="M164.9,361.8l2.8,7.5c0.3,0.8,0.6,1.8,0.8,2.6h0.1c0.2-0.8,0.5-1.7,0.8-2.7l2.5-7.5h2.5l-3.5,9.1
		c-1.7,4.4-2.8,6.6-4.4,8c-1.1,1-2.3,1.4-2.9,1.5l-0.6-2c0.6-0.2,1.3-0.6,2-1.1c0.6-0.5,1.4-1.4,2-2.6c0.1-0.2,0.2-0.4,0.2-0.6
		s-0.1-0.3-0.2-0.6l-4.7-11.8H164.9z"/>
	<path class="st3" d="M188.6,368.3l-12.2,6.3v-1.8l10.4-5.2v-0.1l-10.4-5.2v-1.8l12.2,6.3V368.3z"/>
</g>
<g>
	<path class="st3" d="M103.7,663.9l12.2-6.3v1.8l-10.3,5.2v0.1l10.3,5.2v1.8l-12.2-6.3V663.9z"/>
	<path class="st3" d="M117.7,672.7l7.4-19.1h1.8l-7.4,19.1H117.7z"/>
	<path class="st3" d="M128.6,671.6c0.1-0.9,0.1-2.2,0.1-3.3v-15.4h2.3v8h0.1c0.8-1.4,2.3-2.3,4.4-2.3c3.2,0,5.4,2.6,5.4,6.5
		c0,4.6-2.9,6.8-5.7,6.8c-1.8,0-3.3-0.7-4.3-2.4h-0.1l-0.1,2.1H128.6z M131,666.5c0,0.3,0.1,0.6,0.1,0.8c0.4,1.6,1.8,2.7,3.5,2.7
		c2.4,0,3.9-2,3.9-4.9c0-2.6-1.3-4.8-3.8-4.8c-1.6,0-3.1,1.1-3.5,2.9c-0.1,0.3-0.1,0.6-0.1,1V666.5z"/>
	<path class="st3" d="M155.3,665.1c0,4.7-3.3,6.8-6.4,6.8c-3.5,0-6.1-2.5-6.1-6.6c0-4.3,2.8-6.8,6.3-6.8
		C152.8,658.6,155.3,661.2,155.3,665.1z M145.2,665.3c0,2.8,1.6,4.9,3.9,4.9c2.2,0,3.9-2.1,3.9-5c0-2.2-1.1-4.9-3.8-4.9
		C146.3,660.3,145.2,662.8,145.2,665.3z"/>
	<path class="st3" d="M169.3,652.9v15.4c0,1.1,0,2.4,0.1,3.3h-2.1l-0.1-2.2h-0.1c-0.7,1.4-2.3,2.5-4.4,2.5c-3.1,0-5.5-2.6-5.5-6.5
		c0-4.2,2.6-6.9,5.7-6.9c2,0,3.3,0.9,3.9,2h0.1v-7.6H169.3z M166.9,664c0-0.3,0-0.7-0.1-1c-0.3-1.5-1.6-2.7-3.4-2.7
		c-2.4,0-3.8,2.1-3.8,4.9c0,2.6,1.3,4.7,3.8,4.7c1.6,0,3-1,3.4-2.8c0.1-0.3,0.1-0.6,0.1-1V664z"/>
	<path class="st3" d="M174,658.8l2.8,7.5c0.3,0.8,0.6,1.8,0.8,2.6h0.1c0.2-0.8,0.5-1.7,0.8-2.7l2.5-7.5h2.5L180,668
		c-1.7,4.4-2.8,6.6-4.4,8c-1.1,1-2.3,1.4-2.9,1.5l-0.6-2c0.6-0.2,1.3-0.6,2-1.1c0.6-0.5,1.4-1.4,2-2.6c0.1-0.2,0.2-0.4,0.2-0.6
		s-0.1-0.3-0.2-0.6l-4.7-11.8H174z"/>
	<path class="st3" d="M197.6,665.3l-12.2,6.3v-1.8l10.4-5.2v-0.1l-10.4-5.2v-1.8l12.2,6.3V665.3z"/>
</g>
<g>
	<path class="st3" d="M44.7,737.9l12.2-6.3v1.8l-10.3,5.2v0.1l10.3,5.2v1.8l-12.2-6.3V737.9z"/>
	<path class="st3" d="M58.7,746.7l7.4-19.1h1.8l-7.4,19.1H58.7z"/>
	<path class="st3" d="M69.7,726.9H72v8h0.1c0.4-0.7,1-1.2,1.7-1.6c0.7-0.4,1.5-0.7,2.4-0.7c1.7,0,4.5,1.1,4.5,5.5v7.6h-2.3v-7.3
		c0-2.1-0.8-3.8-3-3.8c-1.5,0-2.7,1.1-3.1,2.3c-0.1,0.3-0.2,0.7-0.2,1.1v7.7h-2.3V726.9z"/>
	<path class="st3" d="M87.1,729.2v3.7h3.3v1.8h-3.3v6.9c0,1.6,0.4,2.5,1.7,2.5c0.6,0,1.1-0.1,1.3-0.2l0.1,1.7
		c-0.4,0.2-1.2,0.3-2.1,0.3c-1.1,0-2-0.3-2.5-1c-0.7-0.7-0.9-1.8-0.9-3.3v-7h-2v-1.8h2v-3.1L87.1,729.2z"/>
	<path class="st3" d="M93,736.3c0-1.3,0-2.4-0.1-3.5h2l0.1,2.1h0.1c0.7-1.2,1.9-2.3,4-2.3c1.7,0,3.1,1.1,3.6,2.6h0.1
		c0.4-0.7,0.9-1.3,1.4-1.7c0.8-0.6,1.6-0.9,2.8-0.9c1.7,0,4.2,1.1,4.2,5.5v7.5H109v-7.2c0-2.5-0.9-3.9-2.8-3.9c-1.3,0-2.3,1-2.7,2.1
		c-0.1,0.3-0.2,0.7-0.2,1.2v7.9H101V738c0-2-0.9-3.5-2.7-3.5c-1.5,0-2.5,1.2-2.9,2.3c-0.1,0.3-0.2,0.7-0.2,1.1v7.7H93V736.3z"/>
	<path class="st3" d="M115,726.9h2.3v18.7H115V726.9z"/>
	<path class="st3" d="M133.3,739.3l-12.2,6.3v-1.8l10.4-5.2v-0.1l-10.4-5.2v-1.8l12.2,6.3V739.3z"/>
</g>
<g>
	<path class="st3" d="M186,555.7l13.9-7.1v2.1l-11.7,5.9v0.1l11.7,5.9v2.1l-13.9-7.1V555.7z"/>
	<path class="st3" d="M204,554.7c0-1.9-0.1-3.3-0.1-4.7h2.4l0.1,2.5h0.1c1.1-1.8,2.8-2.8,5.1-2.8c3.5,0,6.1,3,6.1,7.4
		c0,5.2-3.2,7.8-6.6,7.8c-1.9,0-3.6-0.8-4.5-2.3h-0.1v7.9H204V554.7z M206.6,558.6c0,0.4,0.1,0.7,0.1,1.1c0.5,1.8,2.1,3.1,3.9,3.1
		c2.8,0,4.4-2.3,4.4-5.6c0-2.9-1.5-5.4-4.3-5.4c-1.8,0-3.5,1.3-4,3.3c-0.1,0.3-0.2,0.7-0.2,1.1V558.6z"/>
	<path class="st3" d="M234.7,557.4l-13.9,7.1v-2.1l11.8-5.9v-0.1l-11.8-5.9v-2.1l13.9,7.1V557.4z"/>
	<path class="st3" d="M247.9,546.5h-6.1v-2.2h14.9v2.2h-6.2v17.9h-2.6V546.5z"/>
	<path class="st3" d="M258.6,543.3h2.6v9h0.1c0.4-0.7,1.1-1.4,1.9-1.9c0.8-0.4,1.7-0.7,2.7-0.7c1.9,0,5.1,1.2,5.1,6.2v8.6h-2.6v-8.3
		c0-2.3-0.9-4.3-3.3-4.3c-1.7,0-3,1.2-3.5,2.6c-0.1,0.4-0.2,0.7-0.2,1.3v8.7h-2.6V543.3z"/>
	<path class="st3" d="M278.1,545.9c0,0.9-0.6,1.6-1.7,1.6c-0.9,0-1.6-0.7-1.6-1.6c0-0.9,0.7-1.6,1.6-1.6
		C277.5,544.3,278.1,545,278.1,545.9z M275.2,564.5V550h2.6v14.5H275.2z"/>
	<path class="st3" d="M281.8,561.8c0.8,0.5,2.2,1,3.5,1c1.9,0,2.8-1,2.8-2.2c0-1.3-0.7-1.9-2.7-2.7c-2.6-0.9-3.8-2.4-3.8-4.1
		c0-2.3,1.9-4.2,5-4.2c1.5,0,2.8,0.4,3.6,0.9l-0.7,1.9c-0.6-0.4-1.6-0.8-3-0.8c-1.6,0-2.4,0.9-2.4,2c0,1.2,0.9,1.7,2.8,2.5
		c2.5,1,3.8,2.2,3.8,4.4c0,2.5-2,4.3-5.4,4.3c-1.6,0-3-0.4-4.1-1L281.8,561.8z"/>
	<path class="st3" d="M303.3,545.9c0,0.9-0.6,1.6-1.7,1.6c-0.9,0-1.6-0.7-1.6-1.6c0-0.9,0.7-1.6,1.6-1.6
		C302.7,544.3,303.3,545,303.3,545.9z M300.4,564.5V550h2.6v14.5H300.4z"/>
	<path class="st3" d="M307,561.8c0.8,0.5,2.2,1,3.5,1c1.9,0,2.8-1,2.8-2.2c0-1.3-0.7-1.9-2.7-2.7c-2.6-0.9-3.8-2.4-3.8-4.1
		c0-2.3,1.9-4.2,5-4.2c1.5,0,2.8,0.4,3.6,0.9l-0.7,1.9c-0.6-0.4-1.6-0.8-3-0.8c-1.6,0-2.4,0.9-2.4,2c0,1.2,0.9,1.7,2.8,2.5
		c2.5,1,3.8,2.2,3.8,4.4c0,2.5-2,4.3-5.4,4.3c-1.6,0-3-0.4-4.1-1L307,561.8z"/>
	<path class="st3" d="M333.5,564.5l-0.2-1.8h-0.1c-0.8,1.1-2.4,2.2-4.4,2.2c-2.9,0-4.4-2.1-4.4-4.2c0-3.5,3.1-5.4,8.7-5.4V555
		c0-1.2-0.3-3.3-3.3-3.3c-1.3,0-2.8,0.4-3.8,1.1l-0.6-1.7c1.2-0.8,2.9-1.3,4.8-1.3c4.4,0,5.5,3,5.5,5.9v5.4c0,1.3,0.1,2.5,0.2,3.5
		H333.5z M333.2,557.1c-2.9-0.1-6.1,0.4-6.1,3.3c0,1.7,1.1,2.5,2.5,2.5c1.9,0,3.1-1.2,3.5-2.4c0.1-0.3,0.1-0.6,0.1-0.8V557.1z"/>
	<path class="st3" d="M346.3,554.7c0-1.9-0.1-3.3-0.1-4.7h2.4l0.1,2.5h0.1c1.1-1.8,2.8-2.8,5.1-2.8c3.5,0,6.1,3,6.1,7.4
		c0,5.2-3.2,7.8-6.6,7.8c-1.9,0-3.6-0.8-4.5-2.3h-0.1v7.9h-2.6V554.7z M348.9,558.6c0,0.4,0.1,0.7,0.1,1.1c0.5,1.8,2.1,3.1,3.9,3.1
		c2.8,0,4.4-2.3,4.4-5.6c0-2.9-1.5-5.4-4.3-5.4c-1.8,0-3.5,1.3-4,3.3c-0.1,0.3-0.2,0.7-0.2,1.1V558.6z"/>
	<path class="st3" d="M371.3,564.5l-0.2-1.8H371c-0.8,1.1-2.4,2.2-4.4,2.2c-2.9,0-4.4-2.1-4.4-4.2c0-3.5,3.1-5.4,8.7-5.4V555
		c0-1.2-0.3-3.3-3.3-3.3c-1.3,0-2.8,0.4-3.8,1.1l-0.6-1.7c1.2-0.8,2.9-1.3,4.8-1.3c4.4,0,5.5,3,5.5,5.9v5.4c0,1.3,0.1,2.5,0.2,3.5
		H371.3z M370.9,557.1c-2.9-0.1-6.1,0.4-6.1,3.3c0,1.7,1.1,2.5,2.5,2.5c1.9,0,3.1-1.2,3.5-2.4c0.1-0.3,0.1-0.6,0.1-0.8V557.1z"/>
	<path class="st3" d="M377.7,554.5c0-1.7,0-3.2-0.1-4.5h2.3l0.1,2.8h0.1c0.7-1.9,2.2-3.2,4-3.2c0.3,0,0.5,0,0.7,0.1v2.5
		c-0.3-0.1-0.5-0.1-0.9-0.1c-1.9,0-3.2,1.4-3.5,3.4c-0.1,0.4-0.1,0.8-0.1,1.2v7.7h-2.6V554.5z"/>
	<path class="st3" d="M395.3,564.5l-0.2-1.8H395c-0.8,1.1-2.4,2.2-4.4,2.2c-2.9,0-4.4-2.1-4.4-4.2c0-3.5,3.1-5.4,8.7-5.4V555
		c0-1.2-0.3-3.3-3.3-3.3c-1.3,0-2.8,0.4-3.8,1.1l-0.6-1.7c1.2-0.8,2.9-1.3,4.8-1.3c4.4,0,5.5,3,5.5,5.9v5.4c0,1.3,0.1,2.5,0.2,3.5
		H395.3z M394.9,557.1c-2.9-0.1-6.1,0.4-6.1,3.3c0,1.7,1.1,2.5,2.5,2.5c1.9,0,3.1-1.2,3.5-2.4c0.1-0.3,0.1-0.6,0.1-0.8V557.1z"/>
	<path class="st3" d="M414.2,550c-0.1,1-0.1,2.2-0.1,4v8.4c0,3.3-0.7,5.4-2.1,6.6c-1.4,1.3-3.4,1.7-5.3,1.7c-1.7,0-3.6-0.4-4.8-1.2
		l0.7-2c1,0.6,2.5,1.1,4.2,1.1c2.7,0,4.7-1.4,4.7-5.1V562h-0.1c-0.8,1.3-2.4,2.4-4.6,2.4c-3.6,0-6.2-3-6.2-7.1
		c0-4.9,3.2-7.7,6.5-7.7c2.5,0,3.9,1.3,4.5,2.5h0.1l0.1-2.2H414.2z M411.5,555.7c0-0.4,0-0.8-0.1-1.2c-0.5-1.5-1.8-2.8-3.7-2.8
		c-2.5,0-4.3,2.1-4.3,5.5c0,2.8,1.4,5.2,4.3,5.2c1.6,0,3.1-1,3.6-2.7c0.1-0.4,0.2-1,0.2-1.4V555.7z"/>
	<path class="st3" d="M418.3,554.5c0-1.7,0-3.2-0.1-4.5h2.3l0.1,2.8h0.1c0.7-1.9,2.2-3.2,4-3.2c0.3,0,0.5,0,0.7,0.1v2.5
		c-0.3-0.1-0.5-0.1-0.9-0.1c-1.9,0-3.2,1.4-3.5,3.4c-0.1,0.4-0.1,0.8-0.1,1.2v7.7h-2.6V554.5z"/>
	<path class="st3" d="M435.9,564.5l-0.2-1.8h-0.1c-0.8,1.1-2.4,2.2-4.4,2.2c-2.9,0-4.4-2.1-4.4-4.2c0-3.5,3.1-5.4,8.7-5.4V555
		c0-1.2-0.3-3.3-3.3-3.3c-1.3,0-2.8,0.4-3.8,1.1l-0.6-1.7c1.2-0.8,2.9-1.3,4.8-1.3c4.4,0,5.5,3,5.5,5.9v5.4c0,1.3,0.1,2.5,0.2,3.5
		H435.9z M435.5,557.1c-2.9-0.1-6.1,0.4-6.1,3.3c0,1.7,1.1,2.5,2.5,2.5c1.9,0,3.1-1.2,3.5-2.4c0.1-0.3,0.1-0.6,0.1-0.8V557.1z"/>
	<path class="st3" d="M442.3,554.7c0-1.9-0.1-3.3-0.1-4.7h2.4l0.1,2.5h0.1c1.1-1.8,2.8-2.8,5.1-2.8c3.5,0,6.1,3,6.1,7.4
		c0,5.2-3.2,7.8-6.6,7.8c-1.9,0-3.6-0.8-4.5-2.3h-0.1v7.9h-2.6V554.7z M444.9,558.6c0,0.4,0.1,0.7,0.1,1.1c0.5,1.8,2.1,3.1,3.9,3.1
		c2.8,0,4.4-2.3,4.4-5.6c0-2.9-1.5-5.4-4.3-5.4c-1.8,0-3.5,1.3-4,3.3c-0.1,0.3-0.2,0.7-0.2,1.1V558.6z"/>
	<path class="st3" d="M459.3,543.3h2.6v9h0.1c0.4-0.7,1.1-1.4,1.9-1.9c0.8-0.4,1.7-0.7,2.7-0.7c1.9,0,5.1,1.2,5.1,6.2v8.6H469v-8.3
		c0-2.3-0.9-4.3-3.3-4.3c-1.7,0-3,1.2-3.5,2.6c-0.1,0.4-0.2,0.7-0.2,1.3v8.7h-2.6V543.3z"/>
	<path class="st3" d="M482,555.7l13.9-7.1v2.1l-11.7,5.9v0.1l11.7,5.9v2.1l-13.9-7.1V555.7z"/>
	<path class="st3" d="M497.9,565.7l8.3-21.7h2l-8.4,21.7H497.9z"/>
	<path class="st3" d="M510.3,554.7c0-1.9-0.1-3.3-0.1-4.7h2.4l0.1,2.5h0.1c1.1-1.8,2.8-2.8,5.1-2.8c3.5,0,6.1,3,6.1,7.4
		c0,5.2-3.2,7.8-6.6,7.8c-1.9,0-3.6-0.8-4.5-2.3h-0.1v7.9h-2.6V554.7z M512.9,558.6c0,0.4,0.1,0.7,0.1,1.1c0.5,1.8,2.1,3.1,3.9,3.1
		c2.8,0,4.4-2.3,4.4-5.6c0-2.9-1.5-5.4-4.3-5.4c-1.8,0-3.5,1.3-4,3.3c-0.1,0.3-0.2,0.7-0.2,1.1V558.6z"/>
	<path class="st3" d="M541,557.4l-13.9,7.1v-2.1l11.8-5.9v-0.1l-11.8-5.9v-2.1l13.9,7.1V557.4z"/>
</g>
<g>
	<path class="st3" d="M194,454.7l13.9-7.1v2.1l-11.7,5.9v0.1l11.7,5.9v2.1l-13.9-7.1V454.7z"/>
	<path class="st3" d="M212,442.3h2.6v9h0.1c0.4-0.7,1.1-1.4,1.9-1.9c0.8-0.4,1.7-0.7,2.7-0.7c1.9,0,5.1,1.2,5.1,6.2v8.6h-2.6v-8.3
		c0-2.3-0.9-4.3-3.3-4.3c-1.7,0-3,1.2-3.5,2.6c-0.1,0.4-0.2,0.7-0.2,1.3v8.7H212V442.3z"/>
	<path class="st3" d="M233.5,446.5L233.5,446.5l-3.4,1.8l-0.5-2l4.2-2.3h2.2v19.4h-2.5V446.5z"/>
	<path class="st3" d="M257.6,456.4l-13.9,7.1v-2.1l11.8-5.9v-0.1l-11.8-5.9v-2.1l13.9,7.1V456.4z"/>
	<path class="st3" d="M270.8,445.5h-6.1v-2.2h14.9v2.2h-6.2v17.9h-2.6V445.5z"/>
	<path class="st3" d="M281.5,442.3h2.6v9h0.1c0.4-0.7,1.1-1.4,1.9-1.9c0.8-0.4,1.7-0.7,2.7-0.7c1.9,0,5.1,1.2,5.1,6.2v8.6h-2.6v-8.3
		c0-2.3-0.9-4.3-3.3-4.3c-1.7,0-3,1.2-3.5,2.6c-0.1,0.4-0.2,0.7-0.2,1.3v8.7h-2.6V442.3z"/>
	<path class="st3" d="M301,444.9c0,0.9-0.6,1.6-1.7,1.6c-0.9,0-1.6-0.7-1.6-1.6c0-0.9,0.7-1.6,1.6-1.6
		C300.4,443.3,301,444,301,444.9z M298.1,463.5V449h2.6v14.5H298.1z"/>
	<path class="st3" d="M304.7,460.8c0.8,0.5,2.2,1,3.5,1c1.9,0,2.8-1,2.8-2.2c0-1.3-0.7-1.9-2.7-2.7c-2.6-0.9-3.8-2.4-3.8-4.1
		c0-2.3,1.9-4.2,5-4.2c1.5,0,2.8,0.4,3.6,0.9l-0.7,1.9c-0.6-0.4-1.6-0.8-3-0.8c-1.6,0-2.4,0.9-2.4,2c0,1.2,0.9,1.7,2.8,2.5
		c2.5,1,3.8,2.2,3.8,4.4c0,2.5-2,4.3-5.4,4.3c-1.6,0-3-0.4-4.1-1L304.7,460.8z"/>
	<path class="st3" d="M326.2,444.9c0,0.9-0.6,1.6-1.7,1.6c-0.9,0-1.6-0.7-1.6-1.6c0-0.9,0.7-1.6,1.6-1.6
		C325.6,443.3,326.2,444,326.2,444.9z M323.3,463.5V449h2.6v14.5H323.3z"/>
	<path class="st3" d="M329.9,460.8c0.8,0.5,2.2,1,3.5,1c1.9,0,2.8-1,2.8-2.2c0-1.3-0.7-1.9-2.7-2.7c-2.6-0.9-3.8-2.4-3.8-4.1
		c0-2.3,1.9-4.2,5-4.2c1.5,0,2.8,0.4,3.6,0.9l-0.7,1.9c-0.6-0.4-1.6-0.8-3-0.8c-1.6,0-2.4,0.9-2.4,2c0,1.2,0.9,1.7,2.8,2.5
		c2.5,1,3.8,2.2,3.8,4.4c0,2.5-2,4.3-5.4,4.3c-1.6,0-3-0.4-4.1-1L329.9,460.8z"/>
	<path class="st3" d="M356.5,463.5l-0.2-1.8h-0.1c-0.8,1.1-2.4,2.2-4.4,2.2c-2.9,0-4.4-2.1-4.4-4.2c0-3.5,3.1-5.4,8.7-5.4V454
		c0-1.2-0.3-3.3-3.3-3.3c-1.3,0-2.8,0.4-3.8,1.1l-0.6-1.7c1.2-0.8,2.9-1.3,4.8-1.3c4.4,0,5.5,3,5.5,5.9v5.4c0,1.3,0.1,2.5,0.2,3.5
		H356.5z M356.1,456.1c-2.9-0.1-6.1,0.4-6.1,3.3c0,1.7,1.1,2.5,2.5,2.5c1.9,0,3.1-1.2,3.5-2.4c0.1-0.3,0.1-0.6,0.1-0.8V456.1z"/>
	<path class="st3" d="M369.2,442.3h2.6v9h0.1c0.4-0.7,1.1-1.4,1.9-1.9c0.8-0.4,1.7-0.7,2.7-0.7c1.9,0,5.1,1.2,5.1,6.2v8.6h-2.6v-8.3
		c0-2.3-0.9-4.3-3.3-4.3c-1.7,0-3,1.2-3.5,2.6c-0.1,0.4-0.2,0.7-0.2,1.3v8.7h-2.6V442.3z"/>
	<path class="st3" d="M387.3,456.7c0.1,3.6,2.3,5,5,5c1.9,0,3-0.3,4-0.7l0.4,1.9c-0.9,0.4-2.5,0.9-4.8,0.9c-4.5,0-7.1-2.9-7.1-7.3
		s2.6-7.8,6.8-7.8c4.7,0,6,4.2,6,6.8c0,0.5-0.1,1-0.1,1.2H387.3z M395,454.8c0-1.7-0.7-4.3-3.6-4.3c-2.7,0-3.8,2.5-4,4.3H395z"/>
	<path class="st3" d="M408.8,463.5l-0.2-1.8h-0.1c-0.8,1.1-2.4,2.2-4.4,2.2c-2.9,0-4.4-2.1-4.4-4.2c0-3.5,3.1-5.4,8.7-5.4V454
		c0-1.2-0.3-3.3-3.3-3.3c-1.3,0-2.8,0.4-3.8,1.1l-0.6-1.7c1.2-0.8,2.9-1.3,4.8-1.3c4.4,0,5.5,3,5.5,5.9v5.4c0,1.3,0.1,2.5,0.2,3.5
		H408.8z M408.4,456.1c-2.9-0.1-6.1,0.4-6.1,3.3c0,1.7,1.1,2.5,2.5,2.5c1.9,0,3.1-1.2,3.5-2.4c0.1-0.3,0.1-0.6,0.1-0.8V456.1z"/>
	<path class="st3" d="M427.7,442.3v17.5c0,1.3,0,2.8,0.1,3.7h-2.4l-0.1-2.5h-0.1c-0.8,1.6-2.6,2.8-4.9,2.8c-3.5,0-6.2-3-6.2-7.4
		c0-4.8,3-7.8,6.5-7.8c2.2,0,3.7,1,4.4,2.2h0.1v-8.6H427.7z M425,454.9c0-0.3,0-0.8-0.1-1.1c-0.4-1.7-1.8-3-3.8-3
		c-2.7,0-4.3,2.4-4.3,5.6c0,2.9,1.4,5.4,4.3,5.4c1.8,0,3.4-1.2,3.9-3.1c0.1-0.4,0.1-0.7,0.1-1.1V454.9z"/>
	<path class="st3" d="M435,444.9c0,0.9-0.6,1.6-1.7,1.6c-0.9,0-1.6-0.7-1.6-1.6c0-0.9,0.7-1.6,1.6-1.6
		C434.3,443.3,435,444,435,444.9z M432,463.5V449h2.6v14.5H432z"/>
	<path class="st3" d="M439,452.9c0-1.5,0-2.7-0.1-3.9h2.3l0.1,2.4h0.1c0.7-1.4,2.4-2.7,4.8-2.7c2,0,5.1,1.2,5.1,6.2v8.6h-2.6v-8.3
		c0-2.3-0.9-4.3-3.3-4.3c-1.7,0-3.1,1.2-3.5,2.7c-0.1,0.3-0.2,0.8-0.2,1.2v8.7H439V452.9z"/>
	<path class="st3" d="M468.1,449c-0.1,1-0.1,2.2-0.1,4v8.4c0,3.3-0.7,5.4-2.1,6.6c-1.4,1.3-3.4,1.7-5.3,1.7c-1.7,0-3.6-0.4-4.8-1.2
		l0.7-2c1,0.6,2.5,1.1,4.2,1.1c2.7,0,4.7-1.4,4.7-5.1V461h-0.1c-0.8,1.3-2.4,2.4-4.6,2.4c-3.6,0-6.2-3-6.2-7.1
		c0-4.9,3.2-7.7,6.5-7.7c2.5,0,3.9,1.3,4.5,2.5h0.1l0.1-2.2H468.1z M465.4,454.7c0-0.4,0-0.8-0.1-1.2c-0.5-1.5-1.8-2.8-3.7-2.8
		c-2.5,0-4.3,2.1-4.3,5.5c0,2.8,1.4,5.2,4.3,5.2c1.6,0,3.1-1,3.6-2.7c0.1-0.4,0.2-1,0.2-1.4V454.7z"/>
	<path class="st3" d="M478.5,454.7l13.9-7.1v2.1l-11.7,5.9v0.1l11.7,5.9v2.1l-13.9-7.1V454.7z"/>
	<path class="st3" d="M494.3,464.7l8.3-21.7h2l-8.4,21.7H494.3z"/>
	<path class="st3" d="M506.7,442.3h2.6v9h0.1c0.4-0.7,1.1-1.4,1.9-1.9c0.8-0.4,1.7-0.7,2.7-0.7c1.9,0,5.1,1.2,5.1,6.2v8.6h-2.6v-8.3
		c0-2.3-0.9-4.3-3.3-4.3c-1.7,0-3,1.2-3.5,2.6c-0.1,0.4-0.2,0.7-0.2,1.3v8.7h-2.6V442.3z"/>
	<path class="st3" d="M528.2,446.5L528.2,446.5l-3.4,1.8l-0.5-2l4.2-2.3h2.2v19.4h-2.5V446.5z"/>
	<path class="st3" d="M552.3,456.4l-13.9,7.1v-2.1l11.8-5.9v-0.1l-11.8-5.9v-2.1l13.9,7.1V456.4z"/>
</g>
<g>
	<path class="st3" d="M162.7,192.9l12.2-6.3v1.8l-10.3,5.2v0.1l10.3,5.2v1.8l-12.2-6.3V192.9z"/>
	<path class="st3" d="M181.5,184.2v3.7h3.3v1.8h-3.3v6.9c0,1.6,0.4,2.5,1.7,2.5c0.6,0,1.1-0.1,1.3-0.2l0.1,1.7
		c-0.4,0.2-1.2,0.3-2.1,0.3c-1.1,0-2-0.3-2.5-1c-0.7-0.7-0.9-1.8-0.9-3.3v-7h-2v-1.8h2v-3.1L181.5,184.2z"/>
	<path class="st3" d="M190,184.3c0,0.8-0.6,1.4-1.5,1.4c-0.8,0-1.4-0.6-1.4-1.4c0-0.8,0.6-1.5,1.5-1.5
		C189.4,182.8,190,183.4,190,184.3z M187.4,200.6v-12.8h2.3v12.8H187.4z"/>
	<path class="st3" d="M196.4,184.2v3.7h3.3v1.8h-3.3v6.9c0,1.6,0.4,2.5,1.7,2.5c0.6,0,1.1-0.1,1.3-0.2l0.1,1.7
		c-0.4,0.2-1.2,0.3-2.1,0.3c-1.1,0-2-0.3-2.5-1c-0.7-0.7-0.9-1.8-0.9-3.3v-7h-2v-1.8h2v-3.1L196.4,184.2z"/>
	<path class="st3" d="M202.3,181.9h2.3v18.7h-2.3V181.9z"/>
	<path class="st3" d="M209.8,194.7c0.1,3.1,2.1,4.4,4.4,4.4c1.7,0,2.7-0.3,3.5-0.7l0.4,1.7c-0.8,0.4-2.2,0.8-4.2,0.8
		c-3.9,0-6.3-2.6-6.3-6.4s2.3-6.9,6-6.9c4.2,0,5.3,3.7,5.3,6c0,0.5-0.1,0.8-0.1,1.1H209.8z M216.6,193c0-1.5-0.6-3.8-3.2-3.8
		c-2.3,0-3.4,2.2-3.6,3.8H216.6z"/>
	<path class="st3" d="M233.8,194.3l-12.2,6.3v-1.8l10.4-5.2v-0.1l-10.4-5.2v-1.8l12.2,6.3V194.3z"/>
</g>
<g>
	<path class="st3" d="M254,183c1.1-0.2,2.6-0.3,4.4-0.3c2.3,0,3.9,0.5,5,1.5c1,0.8,1.6,2.1,1.6,3.7c0,1.6-0.5,2.9-1.4,3.8
		c-1.2,1.3-3.2,2-5.4,2c-0.7,0-1.3,0-1.8-0.2v7.1H254V183z M256.3,191.6c0.5,0.1,1.1,0.2,1.9,0.2c2.8,0,4.5-1.3,4.5-3.8
		c0-2.3-1.7-3.5-4.2-3.5c-1,0-1.8,0.1-2.2,0.2V191.6z"/>
	<path class="st3" d="M274.4,200.6l-0.2-1.6h-0.1c-0.7,1-2.1,1.9-3.9,1.9c-2.6,0-3.9-1.8-3.9-3.7c0-3.1,2.7-4.8,7.7-4.8v-0.3
		c0-1.1-0.3-3-2.9-3c-1.2,0-2.4,0.4-3.3,1l-0.5-1.5c1.1-0.7,2.6-1.1,4.2-1.1c3.9,0,4.9,2.7,4.9,5.2v4.8c0,1.1,0.1,2.2,0.2,3.1H274.4
		z M274,194.1c-2.5-0.1-5.4,0.4-5.4,2.9c0,1.5,1,2.2,2.2,2.2c1.7,0,2.7-1.1,3.1-2.1c0.1-0.2,0.1-0.5,0.1-0.7V194.1z"/>
	<path class="st3" d="M291,187.8c-0.1,0.9-0.1,2-0.1,3.5v7.4c0,2.9-0.6,4.7-1.8,5.8c-1.2,1.2-3,1.5-4.6,1.5c-1.5,0-3.2-0.4-4.2-1.1
		l0.6-1.8c0.8,0.5,2.2,1,3.7,1c2.4,0,4.1-1.2,4.1-4.5v-1.4h-0.1c-0.7,1.2-2.1,2.1-4.1,2.1c-3.2,0-5.4-2.7-5.4-6.2
		c0-4.3,2.8-6.8,5.8-6.8c2.2,0,3.4,1.2,4,2.2h0.1l0.1-1.9H291z M288.6,192.9c0-0.4,0-0.7-0.1-1.1c-0.4-1.3-1.6-2.5-3.2-2.5
		c-2.2,0-3.8,1.9-3.8,4.8c0,2.5,1.3,4.6,3.8,4.6c1.4,0,2.7-0.9,3.2-2.4c0.1-0.4,0.2-0.8,0.2-1.2V192.9z"/>
	<path class="st3" d="M296.1,194.7c0.1,3.1,2.1,4.4,4.4,4.4c1.7,0,2.7-0.3,3.5-0.7l0.4,1.7c-0.8,0.4-2.2,0.8-4.2,0.8
		c-3.9,0-6.3-2.6-6.3-6.4s2.3-6.9,6-6.9c4.2,0,5.3,3.7,5.3,6c0,0.5-0.1,0.8-0.1,1.1H296.1z M302.9,193c0-1.5-0.6-3.8-3.2-3.8
		c-2.3,0-3.4,2.2-3.6,3.8H302.9z"/>
	<path class="st3" d="M316.4,184.2v3.7h3.3v1.8h-3.3v6.9c0,1.6,0.4,2.5,1.7,2.5c0.6,0,1.1-0.1,1.3-0.2l0.1,1.7
		c-0.4,0.2-1.2,0.3-2.1,0.3c-1.1,0-2-0.3-2.5-1c-0.7-0.7-0.9-1.8-0.9-3.3v-7h-2v-1.8h2v-3.1L316.4,184.2z"/>
	<path class="st3" d="M324.9,184.3c0,0.8-0.6,1.4-1.5,1.4c-0.8,0-1.4-0.6-1.4-1.4c0-0.8,0.6-1.5,1.5-1.5
		C324.4,182.8,324.9,183.4,324.9,184.3z M322.3,200.6v-12.8h2.3v12.8H322.3z"/>
	<path class="st3" d="M331.3,184.2v3.7h3.3v1.8h-3.3v6.9c0,1.6,0.4,2.5,1.7,2.5c0.6,0,1.1-0.1,1.3-0.2l0.1,1.7
		c-0.4,0.2-1.2,0.3-2.1,0.3c-1.1,0-2-0.3-2.5-1c-0.7-0.7-0.9-1.8-0.9-3.3v-7h-2v-1.8h2v-3.1L331.3,184.2z"/>
	<path class="st3" d="M337.2,181.9h2.3v18.7h-2.3V181.9z"/>
	<path class="st3" d="M344.8,194.7c0.1,3.1,2.1,4.4,4.4,4.4c1.7,0,2.7-0.3,3.5-0.7l0.4,1.7c-0.8,0.4-2.2,0.8-4.2,0.8
		c-3.9,0-6.3-2.6-6.3-6.4s2.3-6.9,6-6.9c4.2,0,5.3,3.7,5.3,6c0,0.5-0.1,0.8-0.1,1.1H344.8z M351.6,193c0-1.5-0.6-3.8-3.2-3.8
		c-2.3,0-3.4,2.2-3.6,3.8H351.6z"/>
</g>
</svg>
