<svg width="1600" height="819" viewBox="0 0 1600 819" fill="none" xmlns="http://www.w3.org/2000/svg">
<path opacity="0.12" d="M1080 50H26V774H1080V50Z" fill="#007BFF"/>
<path d="M1038 120H76V272H1038V120Z" stroke="#007BFF" stroke-width="4" stroke-miterlimit="10"/>
<path d="M1038 333H76V694H1038V333Z" fill="white"/>
<path d="M990 394H130.6V610H990V394Z" stroke="#007BFF" stroke-width="4" stroke-miterlimit="10"/>
<path d="M734 170H140.7V220H734V170Z" stroke="#007BFF" stroke-width="4" stroke-miterlimit="10"/>
<path d="M953.6 425.8H166.7V483.7H953.6V425.8Z" stroke="#007BFF" stroke-width="4" stroke-miterlimit="10"/>
<path d="M953.6 524.1H166.7V582H953.6V524.1Z" stroke="#007BFF" stroke-width="4" stroke-miterlimit="10"/>
<path d="M1496.2 300H1332.8V542H1496.2V300Z" fill="#082E51"/>
<path d="M1414.5 288.8C1461.11 288.8 1498.9 251.013 1498.9 204.4C1498.9 157.787 1461.11 120 1414.5 120C1367.89 120 1330.1 157.787 1330.1 204.4C1330.1 251.013 1367.89 288.8 1414.5 288.8Z" stroke="#007BFF" stroke-width="4" stroke-miterlimit="10"/>
<path opacity="0.12" d="M1324.1 333H1274.6V476.1H1324.1V333Z" fill="#007BFF"/>
<path opacity="0.12" d="M1554.5 333H1505V476.1H1554.5V333Z" fill="#007BFF"/>
<path opacity="0.12" d="M1402.6 553H1343V696.1H1402.6V553Z" fill="#007BFF"/>
<path opacity="0.12" d="M1489.6 553H1430V696.1H1489.6V553Z" fill="#007BFF"/>
<path d="M44.7002 74.8999L57.0002 68.5999V70.3999L46.7002 75.5999V75.6999L57.0002 80.7999V82.5999L44.8002 76.2999V74.8999H44.7002Z" fill="#082E51"/>
<path d="M60.7002 63.8999H63.0002V71.8999C63.4002 71.1999 64.0002 70.6999 64.7002 70.2999C65.4002 69.8999 66.2002 69.5999 67.1002 69.5999C68.8002 69.5999 71.6002 70.6999 71.6002 75.0999V82.6999H69.3002V75.3999C69.3002 73.2999 68.5002 71.5999 66.3002 71.5999C64.8002 71.5999 63.6002 72.6999 63.2002 73.8999C63.0002 74.0999 63.0002 74.4999 63.0002 74.8999V82.5999H60.7002V63.8999Z" fill="#082E51"/>
<path d="M78.0001 66.2V69.9H81.3001V71.7H78.0001V78.6C78.0001 80.2 78.4001 81.1 79.7001 81.1C80.3001 81.1 80.8001 81 81.0001 80.9L81.1001 82.6C80.7001 82.8 79.9001 82.9 79.0001 82.9C77.9001 82.9 77.0001 82.6 76.5001 81.9C75.8001 81.2 75.6001 80.1 75.6001 78.6V71.6H73.6001V69.8H75.6001V66.7L78.0001 66.2Z" fill="#082E51"/>
<path d="M83.9002 73.2999C83.9002 71.9999 83.9002 70.8999 83.8002 69.7999H85.8002L85.9002 71.8999H86.0002C86.7002 70.6999 87.9002 69.5999 90.0002 69.5999C91.7002 69.5999 93.1002 70.6999 93.6002 72.1999H93.7002C94.1002 71.4999 94.6002 70.8999 95.1002 70.4999C95.9002 69.8999 96.7002 69.5999 97.9002 69.5999C99.6002 69.5999 102.1 70.6999 102.1 75.0999V82.5999H99.8002V75.3999C99.8002 72.8999 98.9002 71.4999 97.0002 71.4999C95.7002 71.4999 94.7002 72.4999 94.3002 73.5999C94.2002 73.8999 94.1002 74.2999 94.1002 74.7999V82.6999H91.8002V74.9999C91.8002 72.9999 90.9002 71.4999 89.1002 71.4999C87.6002 71.4999 86.6002 72.6999 86.2002 73.7999C86.1002 74.0999 86.0002 74.4999 86.0002 74.8999V82.5999H83.7002V73.2999H83.9002Z" fill="#082E51"/>
<path d="M106 63.8999H108.3V82.5999H106V63.8999Z" fill="#082E51"/>
<path d="M124.3 76.2999L112 82.5999V80.7999L122.4 75.5999V75.4999L112 70.3999V68.5999L124.2 74.8999V76.2999H124.3Z" fill="#082E51"/>
<path d="M1363.2 31.3999L1375.4 25.0999V26.8999L1365.1 32.0999V32.1999L1375.4 37.3999V39.1999L1363.2 32.8999V31.3999Z" fill="#082E51"/>
<path d="M1379.1 20.3999H1381.4V28.3999H1381.5C1381.9 27.6999 1382.4 27.1999 1383.2 26.7999C1383.9 26.3999 1384.7 26.0999 1385.6 26.0999C1387.3 26.0999 1390.1 27.1999 1390.1 31.5999V39.1999H1387.8V31.8999C1387.8 29.7999 1387 28.0999 1384.8 28.0999C1383.3 28.0999 1382.1 29.1999 1381.7 30.3999C1381.6 30.6999 1381.5 31.0999 1381.5 31.4999V39.1999H1379.2V20.3999H1379.1Z" fill="#082E51"/>
<path d="M1396.4 22.7V26.4H1399.7V28.2H1396.4V35C1396.4 36.6 1396.8 37.5 1398.1 37.5C1398.7 37.5 1399.2 37.3999 1399.4 37.2999L1399.5 39C1399.1 39.2 1398.3 39.2999 1397.4 39.2999C1396.3 39.2999 1395.4 38.9999 1394.9 38.2999C1394.2 37.5999 1394 36.5 1394 35V28H1392V26.2H1394V23.1L1396.4 22.7Z" fill="#082E51"/>
<path d="M1402.4 29.7999C1402.4 28.4999 1402.4 27.3999 1402.3 26.2999H1404.3L1404.4 28.3999H1404.5C1405.2 27.1999 1406.4 26.0999 1408.5 26.0999C1410.2 26.0999 1411.6 27.1999 1412.1 28.6999H1412.2C1412.6 27.9999 1413.1 27.3999 1413.6 26.9999C1414.4 26.3999 1415.2 26.0999 1416.4 26.0999C1418.1 26.0999 1420.6 27.1999 1420.6 31.5999V39.0999H1418.3V31.8999C1418.3 29.3999 1417.4 27.9999 1415.5 27.9999C1414.2 27.9999 1413.2 28.9999 1412.8 30.0999C1412.7 30.3999 1412.6 30.7999 1412.6 31.2999V39.1999H1410.3V31.4999C1410.3 29.4999 1409.4 27.9999 1407.6 27.9999C1406.1 27.9999 1405.1 29.1999 1404.7 30.2999C1404.6 30.5999 1404.5 30.9999 1404.5 31.3999V39.0999H1402.2V29.7999H1402.4Z" fill="#082E51"/>
<path d="M1424.4 20.3999H1426.7V39.0999H1424.4V20.3999Z" fill="#082E51"/>
<path d="M1442.7 32.8L1430.5 39.1V37.3L1440.9 32.1V32L1430.5 26.8V25L1442.7 31.3V32.8Z" fill="#082E51"/>
<path d="M1357.2 776.9L1369.4 770.6V772.4L1359.1 777.6V777.7L1369.4 782.9V784.7L1357.2 778.4V776.9Z" fill="#082E51"/>
<path d="M1371.1 785.6L1378.5 766.5H1380.3L1372.9 785.6H1371.1Z" fill="#082E51"/>
<path d="M1382.1 765.8H1384.4V773.8H1384.5C1384.9 773.1 1385.5 772.6 1386.2 772.2C1386.9 771.8 1387.7 771.5 1388.6 771.5C1390.3 771.5 1393.1 772.6 1393.1 777V784.6H1390.8V777.3C1390.8 775.2 1390 773.5 1387.8 773.5C1386.3 773.5 1385.1 774.6 1384.7 775.8C1384.6 776.1 1384.5 776.5 1384.5 776.9V784.6H1382.2V765.8H1382.1Z" fill="#082E51"/>
<path d="M1399.5 768.1V771.8H1402.8V773.6H1399.5V780.5C1399.5 782.1 1399.9 783 1401.2 783C1401.8 783 1402.3 782.9 1402.5 782.8L1402.6 784.5C1402.2 784.7 1401.4 784.8 1400.5 784.8C1399.4 784.8 1398.5 784.5 1398 783.8C1397.3 783.1 1397.1 782 1397.1 780.5V773.5H1395.1V771.7H1397.1V768.6L1399.5 768.1Z" fill="#082E51"/>
<path d="M1405.4 775.3C1405.4 774 1405.4 772.9 1405.3 771.8H1407.3L1407.4 773.9H1407.5C1408.2 772.7 1409.4 771.6 1411.5 771.6C1413.2 771.6 1414.6 772.7 1415.1 774.2H1415.2C1415.6 773.5 1416.1 772.9 1416.6 772.5C1417.4 771.9 1418.2 771.6 1419.4 771.6C1421.1 771.6 1423.6 772.7 1423.6 777.1V784.6H1421.3V777.4C1421.3 774.9 1420.4 773.5 1418.5 773.5C1417.2 773.5 1416.2 774.5 1415.8 775.6C1415.7 775.9 1415.6 776.3 1415.6 776.8V784.7H1413.3V777C1413.3 775 1412.4 773.5 1410.6 773.5C1409.1 773.5 1408.1 774.7 1407.7 775.8C1407.6 776.1 1407.5 776.5 1407.5 776.9V784.6H1405.2V775.3H1405.4Z" fill="#082E51"/>
<path d="M1427.4 765.8H1429.7V784.5H1427.4V765.8Z" fill="#082E51"/>
<path d="M1445.7 778.3L1433.5 784.6V782.8L1443.9 777.6V777.5L1433.5 772.3V770.5L1445.7 776.8V778.3Z" fill="#082E51"/>
<path d="M1364.7 145.3L1376.9 139V140.8L1366.6 146V146.1L1376.9 151.3V153.1L1364.7 146.8V145.3Z" fill="#082E51"/>
<path d="M1380.7 134.3H1383V142.3H1383.1C1383.5 141.6 1384 141.1 1384.8 140.7C1385.5 140.3 1386.3 140 1387.2 140C1388.9 140 1391.7 141.1 1391.7 145.5V153.1H1389.4V145.8C1389.4 143.7 1388.6 142 1386.4 142C1384.9 142 1383.7 143.1 1383.3 144.3C1383.2 144.6 1383.1 145 1383.1 145.4V153.1H1380.8V134.3H1380.7Z" fill="#082E51"/>
<path d="M1396.6 147.1C1396.7 150.2 1398.7 151.5 1401 151.5C1402.7 151.5 1403.7 151.2 1404.5 150.8L1404.9 152.5C1404.1 152.9 1402.7 153.3 1400.7 153.3C1396.8 153.3 1394.4 150.7 1394.4 146.9C1394.4 143.1 1396.7 140 1400.4 140C1404.6 140 1405.7 143.7 1405.7 146C1405.7 146.5 1405.6 146.8 1405.6 147.1H1396.6ZM1403.4 145.4C1403.4 143.9 1402.8 141.6 1400.2 141.6C1397.9 141.6 1396.8 143.8 1396.6 145.4H1403.4Z" fill="#082E51"/>
<path d="M1415.6 153L1415.4 151.4H1415.3C1414.6 152.4 1413.2 153.3 1411.4 153.3C1408.8 153.3 1407.5 151.5 1407.5 149.6C1407.5 146.5 1410.2 144.8 1415.2 144.8V144.5C1415.2 143.4 1414.9 141.5 1412.3 141.5C1411.1 141.5 1409.9 141.9 1409 142.5L1408.5 141C1409.6 140.3 1411.1 139.9 1412.7 139.9C1416.6 139.9 1417.6 142.6 1417.6 145.1V149.9C1417.6 151 1417.7 152.1 1417.8 153H1415.6ZM1415.3 146.5C1412.8 146.4 1409.9 146.9 1409.9 149.4C1409.9 150.9 1410.9 151.6 1412.1 151.6C1413.8 151.6 1414.8 150.5 1415.2 149.5C1415.3 149.3 1415.3 149 1415.3 148.8V146.5V146.5Z" fill="#082E51"/>
<path d="M1432.3 134.3V149.7C1432.3 150.8 1432.3 152.1 1432.4 153H1430.3L1430.2 150.8H1430.1C1429.4 152.2 1427.8 153.3 1425.7 153.3C1422.6 153.3 1420.2 150.7 1420.2 146.8C1420.2 142.6 1422.8 139.9 1425.9 139.9C1427.9 139.9 1429.2 140.8 1429.8 141.9H1429.9V134.3H1432.3V134.3ZM1430 145.5C1430 145.2 1430 144.8 1429.9 144.5C1429.6 143 1428.3 141.8 1426.5 141.8C1424.1 141.8 1422.7 143.9 1422.7 146.7C1422.7 149.3 1424 151.4 1426.5 151.4C1428.1 151.4 1429.5 150.4 1429.9 148.6C1430 148.3 1430 148 1430 147.6V145.5Z" fill="#082E51"/>
<path d="M1448.2 146.8L1436 153V151.2L1446.4 146L1436 140.8V139L1448.2 145.3V146.8Z" fill="#082E51"/>
<path d="M1370.7 264.3L1382.9 258V259.8L1372.6 265V265.1L1382.9 270.3V272.1L1370.7 265.8V264.3Z" fill="#082E51"/>
<path d="M1384.7 273.1L1392.1 254H1393.9L1386.5 273.1H1384.7Z" fill="#082E51"/>
<path d="M1395.7 253.3H1398V261.3H1398.1C1398.5 260.6 1399 260.1 1399.8 259.7C1400.5 259.3 1401.3 259 1402.2 259C1403.9 259 1406.7 260.1 1406.7 264.5V272.1H1404.4V264.8C1404.4 262.7 1403.6 261 1401.4 261C1399.9 261 1398.7 262.1 1398.3 263.3C1398.2 263.6 1398.1 264 1398.1 264.4V272.1H1395.8V253.3H1395.7Z" fill="#082E51"/>
<path d="M1411.7 266.1C1411.8 269.2 1413.8 270.5 1416.1 270.5C1417.8 270.5 1418.8 270.2 1419.6 269.8L1420 271.5C1419.2 271.9 1417.8 272.3 1415.8 272.3C1411.9 272.3 1409.5 269.7 1409.5 265.9C1409.5 262.1 1411.8 259 1415.5 259C1419.7 259 1420.8 262.7 1420.8 265C1420.8 265.5 1420.7 265.8 1420.7 266.1H1411.7V266.1ZM1418.5 264.4C1418.5 262.9 1417.9 260.6 1415.3 260.6C1413 260.6 1411.9 262.8 1411.7 264.4H1418.5Z" fill="#082E51"/>
<path d="M1430.7 272L1430.5 270.4H1430.4C1429.7 271.4 1428.3 272.3 1426.5 272.3C1423.9 272.3 1422.6 270.5 1422.6 268.6C1422.6 265.5 1425.3 263.8 1430.3 263.8V263.5C1430.3 262.4 1430 260.5 1427.4 260.5C1426.2 260.5 1425 260.9 1424.1 261.5L1423.6 260C1424.7 259.3 1426.2 258.9 1427.8 258.9C1431.7 258.9 1432.7 261.6 1432.7 264.1V268.9C1432.7 270 1432.8 271.1 1432.9 272H1430.7V272ZM1430.3 265.5C1427.8 265.4 1424.9 265.9 1424.9 268.4C1424.9 269.9 1425.9 270.6 1427.1 270.6C1428.8 270.6 1429.8 269.5 1430.2 268.5C1430.3 268.3 1430.3 268 1430.3 267.8V265.5V265.5Z" fill="#082E51"/>
<path d="M1447.4 253.3V268.7C1447.4 269.8 1447.4 271.1 1447.5 272H1445.4L1445.3 269.8H1445.2C1444.5 271.2 1442.9 272.3 1440.8 272.3C1437.7 272.3 1435.3 269.7 1435.3 265.8C1435.3 261.6 1437.9 258.9 1441 258.9C1443 258.9 1444.3 259.8 1444.9 260.9H1445V253.3H1447.4V253.3ZM1445 264.5C1445 264.2 1445 263.8 1444.9 263.5C1444.6 262 1443.3 260.8 1441.5 260.8C1439.1 260.8 1437.7 262.9 1437.7 265.7C1437.7 268.3 1439 270.4 1441.5 270.4C1443.1 270.4 1444.5 269.4 1444.9 267.6C1445 267.3 1445 267 1445 266.6V264.5Z" fill="#082E51"/>
<path d="M1463.3 265.8L1451 272V270.2L1461.4 265L1451 259.8V258L1463.2 264.3V265.8H1463.3Z" fill="#082E51"/>
<path d="M1370.7 505.3L1382.9 499V500.8L1372.6 506V506.1L1382.9 511.3V513.1L1370.7 506.8V505.3Z" fill="white"/>
<path d="M1384.7 514.1L1392.1 495H1393.9L1386.5 514.1H1384.7Z" fill="white"/>
<path d="M1395.6 513C1395.7 512.1 1395.7 510.8 1395.7 509.7V494.3H1398V502.3H1398.1C1398.9 500.9 1400.4 500 1402.5 500C1405.7 500 1407.9 502.6 1407.9 506.5C1407.9 511.1 1405 513.3 1402.2 513.3C1400.4 513.3 1398.9 512.6 1397.9 510.9H1397.8L1397.7 513H1395.6ZM1398 507.9C1398 508.2 1398.1 508.5 1398.1 508.7C1398.5 510.3 1399.9 511.4 1401.6 511.4C1404 511.4 1405.5 509.4 1405.5 506.5C1405.5 503.9 1404.2 501.7 1401.7 501.7C1400.1 501.7 1398.6 502.8 1398.2 504.6C1398.1 504.9 1398.1 505.2 1398.1 505.6V507.9H1398Z" fill="white"/>
<path d="M1422.3 506.6C1422.3 511.3 1419 513.4 1415.9 513.4C1412.4 513.4 1409.8 510.9 1409.8 506.8C1409.8 502.5 1412.6 500 1416.1 500C1419.8 500 1422.3 502.6 1422.3 506.6ZM1412.2 506.7C1412.2 509.5 1413.8 511.6 1416.1 511.6C1418.3 511.6 1420 509.5 1420 506.6C1420 504.4 1418.9 501.7 1416.2 501.7C1413.5 501.7 1412.2 504.3 1412.2 506.7Z" fill="white"/>
<path d="M1436.3 494.3V509.7C1436.3 510.8 1436.3 512.1 1436.4 513H1434.3L1434.2 510.8H1434.1C1433.4 512.2 1431.8 513.3 1429.7 513.3C1426.6 513.3 1424.2 510.7 1424.2 506.8C1424.2 502.6 1426.8 499.9 1429.9 499.9C1431.9 499.9 1433.2 500.8 1433.8 501.9H1433.9V494.3H1436.3V494.3ZM1433.9 505.5C1433.9 505.2 1433.9 504.8 1433.8 504.5C1433.5 503 1432.2 501.8 1430.4 501.8C1428 501.8 1426.6 503.9 1426.6 506.7C1426.6 509.3 1427.9 511.4 1430.4 511.4C1432 511.4 1433.4 510.4 1433.8 508.6C1433.9 508.3 1433.9 508 1433.9 507.6V505.5Z" fill="white"/>
<path d="M1441 500.3L1443.8 507.8C1444.1 508.6 1444.4 509.6 1444.6 510.4H1444.7C1444.9 509.6 1445.2 508.7 1445.5 507.7L1448 500.2H1450.5L1447 509.3C1445.3 513.7 1444.2 515.9 1442.6 517.3C1441.5 518.3 1440.3 518.7 1439.7 518.8L1439.1 516.8C1439.7 516.6 1440.4 516.2 1441.1 515.7C1441.7 515.2 1442.5 514.3 1443.1 513.1C1443.2 512.9 1443.3 512.7 1443.3 512.5C1443.3 512.3 1443.2 512.2 1443.1 511.9L1438.4 500.1H1441V500.3Z" fill="white"/>
<path d="M1464.6 506.8L1452.4 513.1V511.3L1462.8 506.1V506L1452.4 500.8V499L1464.6 505.3V506.8Z" fill="white"/>
<path d="M1377.2 348.3L1389.4 342V343.8L1379.1 349V349.1L1389.4 354.3V356.1L1377.2 349.8V348.3Z" fill="white"/>
<path d="M1393 356C1393.1 355.1 1393.1 353.8 1393.1 352.7V337.3H1395.4V345.3H1395.5C1396.3 343.9 1397.8 343 1399.9 343C1403.1 343 1405.3 345.6 1405.3 349.5C1405.3 354.1 1402.4 356.3 1399.6 356.3C1397.8 356.3 1396.3 355.6 1395.3 353.9H1395.2L1395.1 356H1393V356ZM1395.4 350.9C1395.4 351.2 1395.5 351.5 1395.5 351.7C1395.9 353.3 1397.3 354.4 1399 354.4C1401.4 354.4 1402.9 352.4 1402.9 349.5C1402.9 346.9 1401.6 344.7 1399.1 344.7C1397.5 344.7 1396 345.8 1395.6 347.6C1395.5 347.9 1395.5 348.2 1395.5 348.6V350.9H1395.4Z" fill="white"/>
<path d="M1419.7 349.6C1419.7 354.3 1416.4 356.4 1413.3 356.4C1409.8 356.4 1407.2 353.9 1407.2 349.8C1407.2 345.5 1410 343 1413.5 343C1417.2 343 1419.7 345.6 1419.7 349.6ZM1409.5 349.7C1409.5 352.5 1411.1 354.6 1413.4 354.6C1415.6 354.6 1417.3 352.5 1417.3 349.6C1417.3 347.4 1416.2 344.7 1413.5 344.7C1410.7 344.7 1409.5 347.3 1409.5 349.7Z" fill="white"/>
<path d="M1433.6 337.3V352.7C1433.6 353.8 1433.6 355.1 1433.7 356H1431.6L1431.5 353.8H1431.4C1430.7 355.2 1429.1 356.3 1427 356.3C1423.9 356.3 1421.5 353.7 1421.5 349.8C1421.5 345.6 1424.1 342.9 1427.2 342.9C1429.2 342.9 1430.5 343.8 1431.1 344.9H1431.2V337.3H1433.6ZM1431.3 348.5C1431.3 348.2 1431.3 347.8 1431.2 347.5C1430.9 346 1429.6 344.8 1427.8 344.8C1425.4 344.8 1424 346.9 1424 349.7C1424 352.3 1425.3 354.4 1427.8 354.4C1429.4 354.4 1430.8 353.4 1431.2 351.6C1431.3 351.3 1431.3 351 1431.3 350.6V348.5Z" fill="white"/>
<path d="M1438.3 343.3L1441.1 350.8C1441.4 351.6 1441.7 352.6 1441.9 353.4H1442C1442.2 352.6 1442.5 351.7 1442.8 350.7L1445.3 343.2H1447.8L1444.3 352.3C1442.6 356.7 1441.5 358.9 1439.9 360.3C1438.8 361.3 1437.6 361.7 1437 361.8L1436.4 359.8C1437 359.6 1437.7 359.2 1438.4 358.7C1439 358.2 1439.8 357.3 1440.4 356.1C1440.5 355.9 1440.6 355.7 1440.6 355.5C1440.6 355.3 1440.5 355.2 1440.4 354.9L1435.7 343.1H1438.3V343.3Z" fill="white"/>
<path d="M1462 349.8L1449.8 356.1V354.3L1460.2 349.1V349L1449.8 343.8V342L1462 348.3V349.8Z" fill="white"/>
<path d="M1400.7 185.3L1412.9 179V180.8L1402.6 186V186.1L1412.9 191.3V193.1L1400.7 186.8V185.3Z" fill="#082E51"/>
<path d="M1419.5 176.6V180.3H1422.8V182.1H1419.5V189C1419.5 190.6 1419.9 191.5 1421.2 191.5C1421.8 191.5 1422.3 191.4 1422.5 191.3L1422.6 193C1422.2 193.2 1421.4 193.3 1420.5 193.3C1419.4 193.3 1418.5 193 1418 192.3C1417.3 191.6 1417.1 190.5 1417.1 189V182H1415.1V180.2H1417.1V177.1L1419.5 176.6Z" fill="#082E51"/>
<path d="M1428 176.7C1428 177.5 1427.4 178.1 1426.5 178.1C1425.7 178.1 1425.1 177.5 1425.1 176.7C1425.1 175.9 1425.7 175.2 1426.6 175.2C1427.4 175.2 1428 175.9 1428 176.7ZM1425.4 193V180.2H1427.7V193H1425.4Z" fill="#082E51"/>
<path d="M1434.4 176.6V180.3H1437.7V182.1H1434.4V189C1434.4 190.6 1434.8 191.5 1436.1 191.5C1436.7 191.5 1437.2 191.4 1437.4 191.3L1437.5 193C1437.1 193.2 1436.3 193.3 1435.4 193.3C1434.3 193.3 1433.4 193 1432.9 192.3C1432.2 191.6 1432 190.5 1432 189V182H1430V180.2H1432V177.1L1434.4 176.6Z" fill="#082E51"/>
<path d="M1440.3 174.3H1442.6V193H1440.3V174.3Z" fill="#082E51"/>
<path d="M1447.8 187.1C1447.9 190.2 1449.9 191.5 1452.2 191.5C1453.9 191.5 1454.9 191.2 1455.7 190.8L1456.1 192.5C1455.3 192.9 1453.9 193.3 1451.9 193.3C1448 193.3 1445.6 190.7 1445.6 186.9C1445.6 183.1 1447.9 180 1451.6 180C1455.8 180 1456.9 183.7 1456.9 186C1456.9 186.5 1456.8 186.8 1456.8 187.1H1447.8ZM1454.6 185.4C1454.6 183.9 1454 181.6 1451.4 181.6C1449.1 181.6 1448 183.8 1447.8 185.4H1454.6Z" fill="#082E51"/>
<path d="M1471.8 186.8L1459.6 193.1V191.3L1470 186.1V186L1459.6 180.8V179L1471.8 185.3V186.8Z" fill="#082E51"/>
<path d="M1394.5 225.3L1406.7 219V220.8L1396.4 226V226.1L1406.7 231.3V233.1L1394.5 226.8V225.3Z" fill="#082E51"/>
<path d="M1408.5 234.1L1415.9 215H1417.7L1410.3 234.1H1408.5Z" fill="#082E51"/>
<path d="M1422.3 216.6V220.3H1425.6V222.1H1422.3V229C1422.3 230.6 1422.7 231.5 1424 231.5C1424.6 231.5 1425.1 231.4 1425.3 231.3L1425.4 233C1425 233.2 1424.2 233.3 1423.3 233.3C1422.2 233.3 1421.3 233 1420.8 232.3C1420.1 231.6 1419.9 230.5 1419.9 229V222H1417.9V220.2H1419.9V217.1L1422.3 216.6Z" fill="#082E51"/>
<path d="M1430.8 216.7C1430.8 217.5 1430.2 218.1 1429.3 218.1C1428.5 218.1 1427.9 217.5 1427.9 216.7C1427.9 215.9 1428.5 215.2 1429.4 215.2C1430.3 215.2 1430.8 215.9 1430.8 216.7ZM1428.3 233V220.2H1430.6V233H1428.3Z" fill="#082E51"/>
<path d="M1437.2 216.6V220.3H1440.5V222.1H1437.2V229C1437.2 230.6 1437.6 231.5 1438.9 231.5C1439.5 231.5 1440 231.4 1440.2 231.3L1440.3 233C1439.9 233.2 1439.1 233.3 1438.2 233.3C1437.1 233.3 1436.2 233 1435.7 232.3C1435 231.6 1434.8 230.5 1434.8 229V222H1432.8V220.2H1434.8V217.1L1437.2 216.6Z" fill="#082E51"/>
<path d="M1443.2 214.3H1445.5V233H1443.2V214.3Z" fill="#082E51"/>
<path d="M1450.7 227.1C1450.8 230.2 1452.8 231.5 1455.1 231.5C1456.8 231.5 1457.8 231.2 1458.6 230.8L1459 232.5C1458.2 232.9 1456.8 233.3 1454.8 233.3C1450.9 233.3 1448.5 230.7 1448.5 226.9C1448.5 223.1 1450.8 220 1454.5 220C1458.7 220 1459.8 223.7 1459.8 226C1459.8 226.5 1459.7 226.8 1459.7 227.1H1450.7ZM1457.5 225.4C1457.5 223.9 1456.9 221.6 1454.3 221.6C1452 221.6 1450.9 223.8 1450.7 225.4H1457.5Z" fill="#082E51"/>
<path d="M1474.7 226.8L1462.5 233.1V231.3L1472.9 226.1V226L1462.5 220.8V219L1474.7 225.3V226.8Z" fill="#082E51"/>
<path d="M98.7002 150.9L110.9 144.6V146.4L100.6 151.6V151.7L110.9 156.9V158.7L98.7002 152.4V150.9Z" fill="#082E51"/>
<path d="M114.7 139.9H117V147.9H117.1C117.5 147.2 118.1 146.7 118.8 146.3C119.5 145.9 120.3 145.6 121.2 145.6C122.9 145.6 125.7 146.7 125.7 151.1V158.7H123.4V151.4C123.4 149.3 122.6 147.6 120.4 147.6C118.9 147.6 117.7 148.7 117.3 149.9C117.2 150.2 117.1 150.6 117.1 151V158.7H114.8V139.9H114.7Z" fill="#082E51"/>
<path d="M130.6 152.7C130.7 155.8 132.7 157.1 135 157.1C136.7 157.1 137.7 156.8 138.5 156.4L138.9 158.1C138.1 158.5 136.7 158.9 134.7 158.9C130.8 158.9 128.4 156.3 128.4 152.5C128.4 148.7 130.7 145.6 134.4 145.6C138.6 145.6 139.7 149.3 139.7 151.6C139.7 152.1 139.6 152.4 139.6 152.7H130.6ZM137.4 151C137.4 149.5 136.8 147.2 134.2 147.2C131.9 147.2 130.8 149.4 130.6 151H137.4Z" fill="#082E51"/>
<path d="M149.6 158.6L149.4 157H149.3C148.6 158 147.2 158.9 145.4 158.9C142.8 158.9 141.5 157.1 141.5 155.2C141.5 152.1 144.2 150.4 149.2 150.4V150.1C149.2 149 148.9 147.1 146.3 147.1C145.1 147.1 143.9 147.5 143 148.1L142.5 146.6C143.6 145.9 145.1 145.5 146.7 145.5C150.6 145.5 151.6 148.2 151.6 150.7V155.5C151.6 156.6 151.7 157.7 151.8 158.6H149.6ZM149.3 152.1C146.8 152 143.9 152.5 143.9 155C143.9 156.5 144.9 157.2 146.1 157.2C147.8 157.2 148.8 156.1 149.2 155.1C149.3 154.9 149.3 154.6 149.3 154.4V152.1V152.1Z" fill="#082E51"/>
<path d="M166.3 139.9V155.3C166.3 156.4 166.3 157.7 166.4 158.6H164.3L164.2 156.4H164.1C163.4 157.8 161.8 158.9 159.7 158.9C156.6 158.9 154.2 156.3 154.2 152.4C154.2 148.2 156.8 145.5 159.9 145.5C161.9 145.5 163.2 146.4 163.8 147.5H163.9V139.9H166.3V139.9ZM164 151C164 150.7 164 150.3 163.9 150C163.6 148.5 162.3 147.3 160.5 147.3C158.1 147.3 156.7 149.4 156.7 152.2C156.7 154.8 158 156.9 160.5 156.9C162.1 156.9 163.5 155.9 163.9 154.1C164 153.8 164 153.5 164 153.1V151Z" fill="#082E51"/>
<path d="M182.2 152.3L170 158.6V156.8L180.4 151.6V151.5L170 146.3V144.5L182.2 150.8V152.3Z" fill="#082E51"/>
<path d="M98.7002 242.9L110.9 236.6V238.4L100.6 243.6V243.7L110.9 248.9V250.7L98.7002 244.4V242.9Z" fill="#082E51"/>
<path d="M112.7 251.7L120.1 232.6H121.9L114.5 251.7H112.7Z" fill="#082E51"/>
<path d="M123.7 231.9H126V239.9H126.1C126.5 239.2 127.1 238.7 127.8 238.3C128.5 237.9 129.3 237.6 130.2 237.6C131.9 237.6 134.7 238.7 134.7 243.1V250.7H132.4V243.4C132.4 241.3 131.6 239.6 129.4 239.6C127.9 239.6 126.7 240.7 126.3 241.9C126.2 242.2 126.1 242.6 126.1 243V250.7H123.8V231.9H123.7Z" fill="#082E51"/>
<path d="M139.7 244.7C139.8 247.8 141.8 249.1 144.1 249.1C145.8 249.1 146.8 248.8 147.6 248.4L148 250.1C147.2 250.5 145.8 250.9 143.8 250.9C139.9 250.9 137.5 248.3 137.5 244.5C137.5 240.7 139.8 237.6 143.5 237.6C147.7 237.6 148.8 241.3 148.8 243.6C148.8 244.1 148.7 244.4 148.7 244.7H139.7ZM146.5 243C146.5 241.5 145.9 239.2 143.3 239.2C141 239.2 139.9 241.4 139.7 243H146.5Z" fill="#082E51"/>
<path d="M158.7 250.6L158.5 249H158.4C157.7 250 156.3 250.9 154.5 250.9C151.9 250.9 150.6 249.1 150.6 247.2C150.6 244.1 153.3 242.4 158.3 242.4V242.1C158.3 241 158 239.1 155.4 239.1C154.2 239.1 153 239.5 152.1 240.1L151.6 238.6C152.7 237.9 154.2 237.5 155.8 237.5C159.7 237.5 160.7 240.2 160.7 242.7V247.5C160.7 248.6 160.8 249.7 160.9 250.6H158.7ZM158.3 244.1C155.8 244 152.9 244.5 152.9 247C152.9 248.5 153.9 249.2 155.1 249.2C156.8 249.2 157.8 248.1 158.2 247.1C158.3 246.9 158.3 246.6 158.3 246.4V244.1V244.1Z" fill="#082E51"/>
<path d="M175.3 231.9V247.3C175.3 248.4 175.3 249.7 175.4 250.6H173.3L173.2 248.4H173.1C172.4 249.8 170.8 250.9 168.7 250.9C165.6 250.9 163.2 248.3 163.2 244.4C163.2 240.2 165.8 237.5 168.9 237.5C170.9 237.5 172.2 238.4 172.8 239.5H172.9V231.9H175.3V231.9ZM173 243C173 242.7 173 242.3 172.9 242C172.6 240.5 171.3 239.3 169.5 239.3C167.1 239.3 165.7 241.4 165.7 244.2C165.7 246.8 167 248.9 169.5 248.9C171.1 248.9 172.5 247.9 172.9 246.1C173 245.8 173 245.5 173 245.1V243Z" fill="#082E51"/>
<path d="M191.3 244.3L179.1 250.6V248.8L189.5 243.6V243.5L179.1 238.3V236.5L191.3 242.8V244.3Z" fill="#082E51"/>
<path d="M382.7 192.9L394.9 186.6V188.4L384.6 193.6V193.7L394.9 198.9V200.7L382.7 194.4V192.9Z" fill="#082E51"/>
<path d="M396.7 201.7L404.1 182.6H405.9L398.5 201.7H396.7Z" fill="#082E51"/>
<path d="M410.5 184.2V187.9H413.8V189.7H410.5V196.6C410.5 198.2 410.9 199.1 412.2 199.1C412.8 199.1 413.3 199 413.5 198.9L413.6 200.6C413.2 200.8 412.4 200.9 411.5 200.9C410.4 200.9 409.5 200.6 409 199.9C408.3 199.2 408.1 198.1 408.1 196.6V189.6H406.1V187.8H408.1V184.7L410.5 184.2Z" fill="#082E51"/>
<path d="M419 184.3C419 185.1 418.4 185.7 417.5 185.7C416.7 185.7 416.1 185.1 416.1 184.3C416.1 183.5 416.7 182.8 417.6 182.8C418.5 182.8 419 183.4 419 184.3ZM416.5 200.6V187.8H418.8V200.6H416.5Z" fill="#082E51"/>
<path d="M425.4 184.2V187.9H428.7V189.7H425.4V196.6C425.4 198.2 425.8 199.1 427.1 199.1C427.7 199.1 428.2 199 428.4 198.9L428.5 200.6C428.1 200.8 427.3 200.9 426.4 200.9C425.3 200.9 424.4 200.6 423.9 199.9C423.2 199.2 423 198.1 423 196.6V189.6H421V187.8H423V184.7L425.4 184.2Z" fill="#082E51"/>
<path d="M431.4 181.9H433.7V200.6H431.4V181.9Z" fill="#082E51"/>
<path d="M438.9 194.7C439 197.8 441 199.1 443.3 199.1C445 199.1 446 198.8 446.8 198.4L447.2 200.1C446.4 200.5 445 200.9 443 200.9C439.1 200.9 436.7 198.3 436.7 194.5C436.7 190.7 439 187.6 442.7 187.6C446.9 187.6 448 191.3 448 193.6C448 194.1 447.9 194.4 447.9 194.7H438.9ZM445.7 193C445.7 191.5 445.1 189.2 442.5 189.2C440.2 189.2 439.1 191.4 438.9 193H445.7Z" fill="#082E51"/>
<path d="M462.9 194.3L450.7 200.6V198.8L461.1 193.6V193.5L450.7 188.3V186.5L462.9 192.8V194.3Z" fill="#082E51"/>
<path d="M103.7 366.9L115.9 360.6V362.4L105.6 367.6V367.7L115.9 372.9V374.7L103.7 368.4V366.9Z" fill="#082E51"/>
<path d="M119.6 374.6C119.7 373.7 119.7 372.4 119.7 371.3V355.9H122V363.9H122.1C122.9 362.5 124.4 361.6 126.5 361.6C129.7 361.6 131.9 364.2 131.9 368.1C131.9 372.7 129 374.9 126.2 374.9C124.4 374.9 122.9 374.2 121.9 372.5H121.8L121.7 374.6H119.6V374.6ZM122 369.5C122 369.8 122.1 370.1 122.1 370.3C122.5 371.9 123.9 373 125.6 373C128 373 129.5 371 129.5 368.1C129.5 365.5 128.2 363.3 125.7 363.3C124.1 363.3 122.6 364.4 122.2 366.2C122.1 366.5 122.1 366.8 122.1 367.2V369.5H122Z" fill="#082E51"/>
<path d="M146.2 368.1C146.2 372.8 142.9 374.9 139.8 374.9C136.3 374.9 133.7 372.4 133.7 368.3C133.7 364 136.5 361.5 140 361.5C143.8 361.6 146.2 364.2 146.2 368.1ZM136.1 368.3C136.1 371.1 137.7 373.2 140 373.2C142.2 373.2 143.9 371.1 143.9 368.2C143.9 366 142.8 363.3 140.1 363.3C137.3 363.3 136.1 365.8 136.1 368.3Z" fill="#082E51"/>
<path d="M160.2 355.9V371.3C160.2 372.4 160.2 373.7 160.3 374.6H158.2L158.1 372.4H158C157.3 373.8 155.7 374.9 153.6 374.9C150.5 374.9 148.1 372.3 148.1 368.4C148.1 364.2 150.7 361.5 153.8 361.5C155.8 361.5 157.1 362.4 157.7 363.5H157.8V355.9H160.2ZM157.9 367C157.9 366.7 157.9 366.3 157.8 366C157.5 364.5 156.2 363.3 154.4 363.3C152 363.3 150.6 365.4 150.6 368.2C150.6 370.8 151.9 372.9 154.4 372.9C156 372.9 157.4 371.9 157.8 370.1C157.9 369.8 157.9 369.5 157.9 369.1V367Z" fill="#082E51"/>
<path d="M164.9 361.8L167.7 369.3C168 370.1 168.3 371.1 168.5 371.9H168.6C168.8 371.1 169.1 370.2 169.4 369.2L171.9 361.7H174.4L170.9 370.8C169.2 375.2 168.1 377.4 166.5 378.8C165.4 379.8 164.2 380.2 163.6 380.3L163 378.3C163.6 378.1 164.3 377.7 165 377.2C165.6 376.7 166.4 375.8 167 374.6C167.1 374.4 167.2 374.2 167.2 374C167.2 373.8 167.1 373.7 167 373.4L162.3 361.6H164.9V361.8Z" fill="#082E51"/>
<path d="M188.6 368.3L176.4 374.6V372.8L186.8 367.6V367.5L176.4 362.3V360.5L188.6 366.8V368.3Z" fill="#082E51"/>
<path d="M103.7 663.9L115.9 657.6V659.4L105.6 664.6V664.7L115.9 669.9V671.7L103.7 665.4V663.9Z" fill="#082E51"/>
<path d="M117.7 672.7L125.1 653.6H126.9L119.5 672.7H117.7Z" fill="#082E51"/>
<path d="M128.6 671.6C128.7 670.7 128.7 669.4 128.7 668.3V652.9H131V660.9H131.1C131.9 659.5 133.4 658.6 135.5 658.6C138.7 658.6 140.9 661.2 140.9 665.1C140.9 669.7 138 671.9 135.2 671.9C133.4 671.9 131.9 671.2 130.9 669.5H130.8L130.7 671.6H128.6V671.6ZM131 666.5C131 666.8 131.1 667.1 131.1 667.3C131.5 668.9 132.9 670 134.6 670C137 670 138.5 668 138.5 665.1C138.5 662.5 137.2 660.3 134.7 660.3C133.1 660.3 131.6 661.4 131.2 663.2C131.1 663.5 131.1 663.8 131.1 664.2V666.5H131Z" fill="#082E51"/>
<path d="M155.3 665.1C155.3 669.8 152 671.9 148.9 671.9C145.4 671.9 142.8 669.4 142.8 665.3C142.8 661 145.6 658.5 149.1 658.5C152.8 658.6 155.3 661.2 155.3 665.1ZM145.2 665.3C145.2 668.1 146.8 670.2 149.1 670.2C151.3 670.2 153 668.1 153 665.2C153 663 151.9 660.3 149.2 660.3C146.3 660.3 145.2 662.8 145.2 665.3Z" fill="#082E51"/>
<path d="M169.3 652.9V668.3C169.3 669.4 169.3 670.7 169.4 671.6H167.3L167.2 669.4H167.1C166.4 670.8 164.8 671.9 162.7 671.9C159.6 671.9 157.2 669.3 157.2 665.4C157.2 661.2 159.8 658.5 162.9 658.5C164.9 658.5 166.2 659.4 166.8 660.5H166.9V652.9H169.3V652.9ZM166.9 664C166.9 663.7 166.9 663.3 166.8 663C166.5 661.5 165.2 660.3 163.4 660.3C161 660.3 159.6 662.4 159.6 665.2C159.6 667.8 160.9 669.9 163.4 669.9C165 669.9 166.4 668.9 166.8 667.1C166.9 666.8 166.9 666.5 166.9 666.1V664Z" fill="#082E51"/>
<path d="M174 658.8L176.8 666.3C177.1 667.1 177.4 668.1 177.6 668.9H177.7C177.9 668.1 178.2 667.2 178.5 666.2L181 658.7H183.5L180 668C178.3 672.4 177.2 674.6 175.6 676C174.5 677 173.3 677.4 172.7 677.5L172.1 675.5C172.7 675.3 173.4 674.9 174.1 674.4C174.7 673.9 175.5 673 176.1 671.8C176.2 671.6 176.3 671.4 176.3 671.2C176.3 671 176.2 670.9 176.1 670.6L171.4 658.8H174Z" fill="#082E51"/>
<path d="M197.6 665.3L185.4 671.6V669.8L195.8 664.6V664.5L185.4 659.3V657.5L197.6 663.8V665.3Z" fill="#082E51"/>
<path d="M44.7002 737.9L56.9002 731.6V733.4L46.6002 738.6V738.7L56.9002 743.9V745.7L44.7002 739.4V737.9Z" fill="#082E51"/>
<path d="M58.7002 746.7L66.1002 727.6H67.9002L60.5002 746.7H58.7002Z" fill="#082E51"/>
<path d="M69.7002 726.9H72.0002V734.9H72.1002C72.5002 734.2 73.1002 733.7 73.8002 733.3C74.5002 732.9 75.3002 732.6 76.2002 732.6C77.9002 732.6 80.7002 733.7 80.7002 738.1V745.7H78.4002V738.4C78.4002 736.3 77.6002 734.6 75.4002 734.6C73.9002 734.6 72.7002 735.7 72.3002 736.9C72.2002 737.2 72.1002 737.6 72.1002 738V745.7H69.8002V726.9H69.7002Z" fill="#082E51"/>
<path d="M87.1002 729.2V732.9H90.4002V734.7H87.1002V741.6C87.1002 743.2 87.5002 744.1 88.8002 744.1C89.4002 744.1 89.9002 744 90.1002 743.9L90.2002 745.6C89.8002 745.8 89.0002 745.9 88.1002 745.9C87.0002 745.9 86.1002 745.6 85.6002 744.9C84.9002 744.2 84.7002 743.1 84.7002 741.6V734.6H82.7002V732.8H84.7002V729.7L87.1002 729.2Z" fill="#082E51"/>
<path d="M93.0004 736.3C93.0004 735 93.0004 733.9 92.9004 732.8H94.9004L95.0004 734.9H95.1004C95.8004 733.7 97.0004 732.6 99.1004 732.6C100.8 732.6 102.2 733.7 102.7 735.2H102.8C103.2 734.5 103.7 733.9 104.2 733.5C105 732.9 105.8 732.6 107 732.6C108.7 732.6 111.2 733.7 111.2 738.1V745.6H109V738.4C109 735.9 108.1 734.5 106.2 734.5C104.9 734.5 103.9 735.5 103.5 736.6C103.4 736.9 103.3 737.3 103.3 737.8V745.7H101V738C101 736 100.1 734.5 98.3004 734.5C96.8004 734.5 95.8004 735.7 95.4004 736.8C95.3004 737.1 95.2004 737.5 95.2004 737.9V745.6H93.0004V736.3Z" fill="#082E51"/>
<path d="M115 726.9H117.3V745.6H115V726.9Z" fill="#082E51"/>
<path d="M133.3 739.3L121.1 745.6V743.8L131.5 738.6V738.5L121.1 733.3V731.5L133.3 737.8V739.3V739.3Z" fill="#082E51"/>
<path d="M186 555.7L199.9 548.6V550.7L188.2 556.6V556.7L199.9 562.6V564.7L186 557.6V555.7Z" fill="#082E51"/>
<path d="M204 554.7C204 552.8 203.9 551.4 203.9 550H206.3L206.4 552.5H206.5C207.6 550.7 209.3 549.7 211.6 549.7C215.1 549.7 217.7 552.7 217.7 557.1C217.7 562.3 214.5 564.9 211.1 564.9C209.2 564.9 207.5 564.1 206.6 562.6H206.5V570.5H204V554.7ZM206.6 558.6C206.6 559 206.7 559.3 206.7 559.7C207.2 561.5 208.8 562.8 210.6 562.8C213.4 562.8 215 560.5 215 557.2C215 554.3 213.5 551.8 210.7 551.8C208.9 551.8 207.2 553.1 206.7 555.1C206.6 555.4 206.5 555.8 206.5 556.2V558.6H206.6Z" fill="#082E51"/>
<path d="M234.7 557.4L220.8 564.5V562.4L232.6 556.5V556.4L220.8 550.5V548.4L234.7 555.5V557.4Z" fill="#082E51"/>
<path d="M482 555.7L495.9 548.6V550.7L484.2 556.6V556.7L495.9 562.6V564.7L482 557.6V555.7Z" fill="#082E51"/>
<path d="M497.9 565.7L506.2 544H508.2L499.8 565.7H497.9Z" fill="#082E51"/>
<path d="M510.3 554.7C510.3 552.8 510.2 551.4 510.2 550H512.6L512.7 552.5H512.8C513.9 550.7 515.6 549.7 517.9 549.7C521.4 549.7 524 552.7 524 557.1C524 562.3 520.8 564.9 517.4 564.9C515.5 564.9 513.8 564.1 512.9 562.6H512.8V570.5H510.2V554.7H510.3ZM512.9 558.6C512.9 559 513 559.3 513 559.7C513.5 561.5 515.1 562.8 516.9 562.8C519.7 562.8 521.3 560.5 521.3 557.2C521.3 554.3 519.8 551.8 517 551.8C515.2 551.8 513.5 553.1 513 555.1C512.9 555.4 512.8 555.8 512.8 556.2V558.6H512.9Z" fill="#082E51"/>
<path d="M541 557.4L527.1 564.5V562.4L538.9 556.5V556.4L527.1 550.5V548.4L541 555.5V557.4Z" fill="#082E51"/>
<path d="M194 454.7L207.9 447.6V449.7L196.2 455.6V455.7L207.9 461.6V463.7L194 456.6V454.7Z" fill="#082E51"/>
<path d="M212 442.3H214.6V451.3H214.7C215.1 450.6 215.8 449.9 216.6 449.4C217.4 449 218.3 448.7 219.3 448.7C221.2 448.7 224.4 449.9 224.4 454.9V463.5H221.8V455.2C221.8 452.9 220.9 450.9 218.5 450.9C216.8 450.9 215.5 452.1 215 453.5C214.9 453.9 214.8 454.2 214.8 454.8V463.5H212V442.3Z" fill="#082E51"/>
<path d="M233.5 446.5L230.1 448.3L229.6 446.3L233.8 444H236V463.4H233.5V446.5V446.5Z" fill="#082E51"/>
<path d="M257.6 456.4L243.7 463.5V461.4L255.5 455.5V455.4L243.7 449.5V447.4L257.6 454.5V456.4Z" fill="#082E51"/>
<path d="M478.5 454.7L492.4 447.6V449.7L480.7 455.6V455.7L492.4 461.6V463.7L478.5 456.6V454.7Z" fill="#082E51"/>
<path d="M494.3 464.7L502.6 443H504.6L496.2 464.7H494.3Z" fill="#082E51"/>
<path d="M506.7 442.3H509.3V451.3H509.4C509.8 450.6 510.5 449.9 511.3 449.4C512.1 449 513 448.7 514 448.7C515.9 448.7 519.1 449.9 519.1 454.9V463.5H516.5V455.2C516.5 452.9 515.6 450.9 513.2 450.9C511.5 450.9 510.2 452.1 509.7 453.5C509.6 453.9 509.5 454.2 509.5 454.8V463.5H506.9V442.3H506.7Z" fill="#082E51"/>
<path d="M528.2 446.5L524.8 448.3L524.3 446.3L528.5 444H530.7V463.4H528.2V446.5V446.5Z" fill="#082E51"/>
<path d="M552.3 456.4L538.4 463.5V461.4L550.2 455.5V455.4L538.4 449.5V447.4L552.3 454.5V456.4Z" fill="#082E51"/>
<path d="M162.7 192.9L174.9 186.6V188.4L164.6 193.6V193.7L174.9 198.9V200.7L162.7 194.4V192.9Z" fill="#082E51"/>
<path d="M181.5 184.2V187.9H184.8V189.7H181.5V196.6C181.5 198.2 181.9 199.1 183.2 199.1C183.8 199.1 184.3 199 184.5 198.9L184.6 200.6C184.2 200.8 183.4 200.9 182.5 200.9C181.4 200.9 180.5 200.6 180 199.9C179.3 199.2 179.1 198.1 179.1 196.6V189.6H177.1V187.8H179.1V184.7L181.5 184.2Z" fill="#082E51"/>
<path d="M190 184.3C190 185.1 189.4 185.7 188.5 185.7C187.7 185.7 187.1 185.1 187.1 184.3C187.1 183.5 187.7 182.8 188.6 182.8C189.4 182.8 190 183.4 190 184.3ZM187.4 200.6V187.8H189.7V200.6H187.4Z" fill="#082E51"/>
<path d="M196.4 184.2V187.9H199.7V189.7H196.4V196.6C196.4 198.2 196.8 199.1 198.1 199.1C198.7 199.1 199.2 199 199.4 198.9L199.5 200.6C199.1 200.8 198.3 200.9 197.4 200.9C196.3 200.9 195.4 200.6 194.9 199.9C194.2 199.2 194 198.1 194 196.6V189.6H192V187.8H194V184.7L196.4 184.2Z" fill="#082E51"/>
<path d="M202.3 181.9H204.6V200.6H202.3V181.9Z" fill="#082E51"/>
<path d="M209.8 194.7C209.9 197.8 211.9 199.1 214.2 199.1C215.9 199.1 216.9 198.8 217.7 198.4L218.1 200.1C217.3 200.5 215.9 200.9 213.9 200.9C210 200.9 207.6 198.3 207.6 194.5C207.6 190.7 209.9 187.6 213.6 187.6C217.8 187.6 218.9 191.3 218.9 193.6C218.9 194.1 218.8 194.4 218.8 194.7H209.8ZM216.6 193C216.6 191.5 216 189.2 213.4 189.2C211.1 189.2 210 191.4 209.8 193H216.6Z" fill="#082E51"/>
<path d="M233.8 194.3L221.6 200.6V198.8L232 193.6V193.5L221.6 188.3V186.5L233.8 192.8V194.3Z" fill="#082E51"/>
<path d="M270.32 201H268.059V193.113H259.457V201H257.207V183.938H259.457V191.273H268.059V183.938H270.32V201ZM281.805 201C281.68 200.75 281.578 200.305 281.5 199.664C280.492 200.711 279.289 201.234 277.891 201.234C276.641 201.234 275.613 200.883 274.809 200.18C274.012 199.469 273.613 198.57 273.613 197.484C273.613 196.164 274.113 195.141 275.113 194.414C276.121 193.68 277.535 193.312 279.355 193.312H281.465V192.316C281.465 191.559 281.238 190.957 280.785 190.512C280.332 190.059 279.664 189.832 278.781 189.832C278.008 189.832 277.359 190.027 276.836 190.418C276.312 190.809 276.051 191.281 276.051 191.836H273.871C273.871 191.203 274.094 190.594 274.539 190.008C274.992 189.414 275.602 188.945 276.367 188.602C277.141 188.258 277.988 188.086 278.91 188.086C280.371 188.086 281.516 188.453 282.344 189.188C283.172 189.914 283.602 190.918 283.633 192.199V198.035C283.633 199.199 283.781 200.125 284.078 200.812V201H281.805ZM278.207 199.348C278.887 199.348 279.531 199.172 280.141 198.82C280.75 198.469 281.191 198.012 281.465 197.449V194.848H279.766C277.109 194.848 275.781 195.625 275.781 197.18C275.781 197.859 276.008 198.391 276.461 198.773C276.914 199.156 277.496 199.348 278.207 199.348ZM294.004 191.789C294.004 191.195 293.777 190.727 293.324 190.383C292.871 190.031 292.25 189.855 291.461 189.855C290.695 189.855 290.055 190.055 289.539 190.453C289.031 190.852 288.777 191.32 288.777 191.859H286.621C286.621 190.758 287.082 189.855 288.004 189.152C288.926 188.449 290.078 188.098 291.461 188.098C292.945 188.098 294.102 188.418 294.93 189.059C295.758 189.691 296.172 190.598 296.172 191.777C296.172 192.348 296 192.871 295.656 193.348C295.312 193.824 294.824 194.203 294.191 194.484C295.668 194.984 296.406 195.969 296.406 197.438C296.406 198.602 295.957 199.523 295.059 200.203C294.16 200.883 292.961 201.223 291.461 201.223C290 201.223 288.793 200.867 287.84 200.156C286.895 199.438 286.422 198.469 286.422 197.25H288.578C288.578 197.867 288.852 198.398 289.398 198.844C289.953 199.281 290.641 199.5 291.461 199.5C292.289 199.5 292.957 199.309 293.465 198.926C293.973 198.543 294.227 198.047 294.227 197.438C294.227 196.727 294.012 196.219 293.582 195.914C293.16 195.602 292.5 195.445 291.602 195.445H289.434V193.617H291.789C293.266 193.578 294.004 192.969 294.004 191.789ZM299.418 201V188.32H304.363C306.051 188.32 307.344 188.617 308.242 189.211C309.148 189.797 309.602 190.66 309.602 191.801C309.602 192.387 309.426 192.918 309.074 193.395C308.723 193.863 308.203 194.223 307.516 194.473C308.281 194.652 308.895 195.004 309.355 195.527C309.824 196.051 310.059 196.676 310.059 197.402C310.059 198.566 309.629 199.457 308.77 200.074C307.918 200.691 306.711 201 305.148 201H299.418ZM301.586 195.434V199.254H305.172C306.078 199.254 306.754 199.086 307.199 198.75C307.652 198.414 307.879 197.941 307.879 197.332C307.879 196.066 306.949 195.434 305.09 195.434H301.586ZM301.586 193.699H304.387C306.418 193.699 307.434 193.105 307.434 191.918C307.434 190.73 306.473 190.117 304.551 190.078H301.586V193.699ZM320.758 201C320.633 200.75 320.531 200.305 320.453 199.664C319.445 200.711 318.242 201.234 316.844 201.234C315.594 201.234 314.566 200.883 313.762 200.18C312.965 199.469 312.566 198.57 312.566 197.484C312.566 196.164 313.066 195.141 314.066 194.414C315.074 193.68 316.488 193.312 318.309 193.312H320.418V192.316C320.418 191.559 320.191 190.957 319.738 190.512C319.285 190.059 318.617 189.832 317.734 189.832C316.961 189.832 316.312 190.027 315.789 190.418C315.266 190.809 315.004 191.281 315.004 191.836H312.824C312.824 191.203 313.047 190.594 313.492 190.008C313.945 189.414 314.555 188.945 315.32 188.602C316.094 188.258 316.941 188.086 317.863 188.086C319.324 188.086 320.469 188.453 321.297 189.188C322.125 189.914 322.555 190.918 322.586 192.199V198.035C322.586 199.199 322.734 200.125 323.031 200.812V201H320.758ZM317.16 199.348C317.84 199.348 318.484 199.172 319.094 198.82C319.703 198.469 320.145 198.012 320.418 197.449V194.848H318.719C316.062 194.848 314.734 195.625 314.734 197.18C314.734 197.859 314.961 198.391 315.414 198.773C315.867 199.156 316.449 199.348 317.16 199.348ZM336.344 201H334.176V195.586H328.352V201H326.172V188.32H328.352V193.816H334.176V188.32H336.344V201ZM348.039 188.32H350.207V201H348.039V191.754L342.191 201H340.023V188.32H342.191V197.578L348.039 188.32ZM358.949 201.234C357.23 201.234 355.832 200.672 354.754 199.547C353.676 198.414 353.137 196.902 353.137 195.012V194.613C353.137 193.355 353.375 192.234 353.852 191.25C354.336 190.258 355.008 189.484 355.867 188.93C356.734 188.367 357.672 188.086 358.68 188.086C360.328 188.086 361.609 188.629 362.523 189.715C363.438 190.801 363.895 192.355 363.895 194.379V195.281H355.305C355.336 196.531 355.699 197.543 356.395 198.316C357.098 199.082 357.988 199.465 359.066 199.465C359.832 199.465 360.48 199.309 361.012 198.996C361.543 198.684 362.008 198.27 362.406 197.754L363.73 198.785C362.668 200.418 361.074 201.234 358.949 201.234ZM358.68 189.867C357.805 189.867 357.07 190.188 356.477 190.828C355.883 191.461 355.516 192.352 355.375 193.5H361.727V193.336C361.664 192.234 361.367 191.383 360.836 190.781C360.305 190.172 359.586 189.867 358.68 189.867Z" fill="black"/>
<path d="M284.805 457.586C285.023 458.992 285.465 459.98 286.129 460.551C286.801 461.113 287.762 461.395 289.012 461.395C290.363 461.395 291.43 460.867 292.211 459.812C293 458.758 293.402 457.293 293.418 455.418H286.703V453.566H293.418C293.418 451.715 293.012 450.25 292.199 449.172C291.395 448.094 290.266 447.555 288.812 447.555C287.641 447.555 286.727 447.859 286.07 448.469C285.422 449.078 285 450.062 284.805 451.422H282.543C282.723 449.633 283.359 448.234 284.453 447.227C285.547 446.211 287 445.703 288.812 445.703C290.188 445.703 291.395 446.031 292.434 446.688C293.48 447.336 294.281 448.266 294.836 449.477C295.398 450.68 295.68 452.066 295.68 453.637V455.336C295.68 456.906 295.402 458.293 294.848 459.496C294.293 460.699 293.508 461.625 292.492 462.273C291.484 462.914 290.324 463.234 289.012 463.234C287.152 463.234 285.66 462.746 284.535 461.77C283.418 460.785 282.754 459.391 282.543 457.586H284.805ZM308.055 452.078H303.801V463H301.633V452.078H297.461V450.32H308.055V452.078ZM309.098 456.543C309.098 455.301 309.34 454.184 309.824 453.191C310.316 452.199 310.996 451.434 311.863 450.895C312.738 450.355 313.734 450.086 314.852 450.086C316.578 450.086 317.973 450.684 319.035 451.879C320.105 453.074 320.641 454.664 320.641 456.648V456.801C320.641 458.035 320.402 459.145 319.926 460.129C319.457 461.105 318.781 461.867 317.898 462.414C317.023 462.961 316.016 463.234 314.875 463.234C313.156 463.234 311.762 462.637 310.691 461.441C309.629 460.246 309.098 458.664 309.098 456.695V456.543ZM311.277 456.801C311.277 458.207 311.602 459.336 312.25 460.188C312.906 461.039 313.781 461.465 314.875 461.465C315.977 461.465 316.852 461.035 317.5 460.176C318.148 459.309 318.473 458.098 318.473 456.543C318.473 455.152 318.141 454.027 317.477 453.168C316.82 452.301 315.945 451.867 314.852 451.867C313.781 451.867 312.918 452.293 312.262 453.145C311.605 453.996 311.277 455.215 311.277 456.801ZM336.285 453.789C336.285 453.195 336.059 452.727 335.605 452.383C335.152 452.031 334.531 451.855 333.742 451.855C332.977 451.855 332.336 452.055 331.82 452.453C331.312 452.852 331.059 453.32 331.059 453.859H328.902C328.902 452.758 329.363 451.855 330.285 451.152C331.207 450.449 332.359 450.098 333.742 450.098C335.227 450.098 336.383 450.418 337.211 451.059C338.039 451.691 338.453 452.598 338.453 453.777C338.453 454.348 338.281 454.871 337.938 455.348C337.594 455.824 337.105 456.203 336.473 456.484C337.949 456.984 338.688 457.969 338.688 459.438C338.688 460.602 338.238 461.523 337.34 462.203C336.441 462.883 335.242 463.223 333.742 463.223C332.281 463.223 331.074 462.867 330.121 462.156C329.176 461.438 328.703 460.469 328.703 459.25H330.859C330.859 459.867 331.133 460.398 331.68 460.844C332.234 461.281 332.922 461.5 333.742 461.5C334.57 461.5 335.238 461.309 335.746 460.926C336.254 460.543 336.508 460.047 336.508 459.438C336.508 458.727 336.293 458.219 335.863 457.914C335.441 457.602 334.781 457.445 333.883 457.445H331.715V455.617H334.07C335.547 455.578 336.285 454.969 336.285 453.789ZM349.328 463C349.203 462.75 349.102 462.305 349.023 461.664C348.016 462.711 346.812 463.234 345.414 463.234C344.164 463.234 343.137 462.883 342.332 462.18C341.535 461.469 341.137 460.57 341.137 459.484C341.137 458.164 341.637 457.141 342.637 456.414C343.645 455.68 345.059 455.312 346.879 455.312H348.988V454.316C348.988 453.559 348.762 452.957 348.309 452.512C347.855 452.059 347.188 451.832 346.305 451.832C345.531 451.832 344.883 452.027 344.359 452.418C343.836 452.809 343.574 453.281 343.574 453.836H341.395C341.395 453.203 341.617 452.594 342.062 452.008C342.516 451.414 343.125 450.945 343.891 450.602C344.664 450.258 345.512 450.086 346.434 450.086C347.895 450.086 349.039 450.453 349.867 451.188C350.695 451.914 351.125 452.918 351.156 454.199V460.035C351.156 461.199 351.305 462.125 351.602 462.812V463H349.328ZM345.73 461.348C346.41 461.348 347.055 461.172 347.664 460.82C348.273 460.469 348.715 460.012 348.988 459.449V456.848H347.289C344.633 456.848 343.305 457.625 343.305 459.18C343.305 459.859 343.531 460.391 343.984 460.773C344.438 461.156 345.02 461.348 345.73 461.348ZM362.746 452.113H356.898V463H354.719V450.32H362.746V452.113ZM363.824 456.543C363.824 455.301 364.066 454.184 364.551 453.191C365.043 452.199 365.723 451.434 366.59 450.895C367.465 450.355 368.461 450.086 369.578 450.086C371.305 450.086 372.699 450.684 373.762 451.879C374.832 453.074 375.367 454.664 375.367 456.648V456.801C375.367 458.035 375.129 459.145 374.652 460.129C374.184 461.105 373.508 461.867 372.625 462.414C371.75 462.961 370.742 463.234 369.602 463.234C367.883 463.234 366.488 462.637 365.418 461.441C364.355 460.246 363.824 458.664 363.824 456.695V456.543ZM366.004 456.801C366.004 458.207 366.328 459.336 366.977 460.188C367.633 461.039 368.508 461.465 369.602 461.465C370.703 461.465 371.578 461.035 372.227 460.176C372.875 459.309 373.199 458.098 373.199 456.543C373.199 455.152 372.867 454.027 372.203 453.168C371.547 452.301 370.672 451.867 369.578 451.867C368.508 451.867 367.645 452.293 366.988 453.145C366.332 453.996 366.004 455.215 366.004 456.801ZM388.293 450.32V463H386.113V452.113H381.801L381.543 456.859C381.402 459.039 381.035 460.598 380.441 461.535C379.855 462.473 378.922 462.961 377.641 463H376.773V461.09L377.395 461.043C378.098 460.965 378.602 460.559 378.906 459.824C379.211 459.09 379.406 457.73 379.492 455.746L379.727 450.32H388.293ZM391.199 456.543C391.199 455.301 391.441 454.184 391.926 453.191C392.418 452.199 393.098 451.434 393.965 450.895C394.84 450.355 395.836 450.086 396.953 450.086C398.68 450.086 400.074 450.684 401.137 451.879C402.207 453.074 402.742 454.664 402.742 456.648V456.801C402.742 458.035 402.504 459.145 402.027 460.129C401.559 461.105 400.883 461.867 400 462.414C399.125 462.961 398.117 463.234 396.977 463.234C395.258 463.234 393.863 462.637 392.793 461.441C391.73 460.246 391.199 458.664 391.199 456.695V456.543ZM393.379 456.801C393.379 458.207 393.703 459.336 394.352 460.188C395.008 461.039 395.883 461.465 396.977 461.465C398.078 461.465 398.953 461.035 399.602 460.176C400.25 459.309 400.574 458.098 400.574 456.543C400.574 455.152 400.242 454.027 399.578 453.168C398.922 452.301 398.047 451.867 396.953 451.867C395.883 451.867 395.02 452.293 394.363 453.145C393.707 453.996 393.379 455.215 393.379 456.801ZM405.66 463V450.32H410.605C412.293 450.32 413.586 450.617 414.484 451.211C415.391 451.797 415.844 452.66 415.844 453.801C415.844 454.387 415.668 454.918 415.316 455.395C414.965 455.863 414.445 456.223 413.758 456.473C414.523 456.652 415.137 457.004 415.598 457.527C416.066 458.051 416.301 458.676 416.301 459.402C416.301 460.566 415.871 461.457 415.012 462.074C414.16 462.691 412.953 463 411.391 463H405.66ZM407.828 457.434V461.254H411.414C412.32 461.254 412.996 461.086 413.441 460.75C413.895 460.414 414.121 459.941 414.121 459.332C414.121 458.066 413.191 457.434 411.332 457.434H407.828ZM407.828 455.699H410.629C412.66 455.699 413.676 455.105 413.676 453.918C413.676 452.73 412.715 452.117 410.793 452.078H407.828V455.699ZM418.598 456.543C418.598 455.301 418.84 454.184 419.324 453.191C419.816 452.199 420.496 451.434 421.363 450.895C422.238 450.355 423.234 450.086 424.352 450.086C426.078 450.086 427.473 450.684 428.535 451.879C429.605 453.074 430.141 454.664 430.141 456.648V456.801C430.141 458.035 429.902 459.145 429.426 460.129C428.957 461.105 428.281 461.867 427.398 462.414C426.523 462.961 425.516 463.234 424.375 463.234C422.656 463.234 421.262 462.637 420.191 461.441C419.129 460.246 418.598 458.664 418.598 456.695V456.543ZM420.777 456.801C420.777 458.207 421.102 459.336 421.75 460.188C422.406 461.039 423.281 461.465 424.375 461.465C425.477 461.465 426.352 461.035 427 460.176C427.648 459.309 427.973 458.098 427.973 456.543C427.973 455.152 427.641 454.027 426.977 453.168C426.32 452.301 425.445 451.867 424.352 451.867C423.281 451.867 422.418 452.293 421.762 453.145C421.105 453.996 420.777 455.215 420.777 456.801ZM436.809 457.598H435.227V463H433.047V450.32H435.227V455.688H436.645L440.91 450.32H443.535L438.52 456.414L443.957 463H441.203L436.809 457.598Z" fill="black"/>
<path d="M286.828 559.586C287.047 560.992 287.488 561.98 288.152 562.551C288.824 563.113 289.785 563.395 291.035 563.395C292.387 563.395 293.453 562.867 294.234 561.812C295.023 560.758 295.426 559.293 295.441 557.418H288.727V555.566H295.441C295.441 553.715 295.035 552.25 294.223 551.172C293.418 550.094 292.289 549.555 290.836 549.555C289.664 549.555 288.75 549.859 288.094 550.469C287.445 551.078 287.023 552.062 286.828 553.422H284.566C284.746 551.633 285.383 550.234 286.477 549.227C287.57 548.211 289.023 547.703 290.836 547.703C292.211 547.703 293.418 548.031 294.457 548.688C295.504 549.336 296.305 550.266 296.859 551.477C297.422 552.68 297.703 554.066 297.703 555.637V557.336C297.703 558.906 297.426 560.293 296.871 561.496C296.316 562.699 295.531 563.625 294.516 564.273C293.508 564.914 292.348 565.234 291.035 565.234C289.176 565.234 287.684 564.746 286.559 563.77C285.441 562.785 284.777 561.391 284.566 559.586H286.828ZM310.078 554.078H305.824V565H303.656V554.078H299.484V552.32H310.078V554.078ZM311.121 558.543C311.121 557.301 311.363 556.184 311.848 555.191C312.34 554.199 313.02 553.434 313.887 552.895C314.762 552.355 315.758 552.086 316.875 552.086C318.602 552.086 319.996 552.684 321.059 553.879C322.129 555.074 322.664 556.664 322.664 558.648V558.801C322.664 560.035 322.426 561.145 321.949 562.129C321.48 563.105 320.805 563.867 319.922 564.414C319.047 564.961 318.039 565.234 316.898 565.234C315.18 565.234 313.785 564.637 312.715 563.441C311.652 562.246 311.121 560.664 311.121 558.695V558.543ZM313.301 558.801C313.301 560.207 313.625 561.336 314.273 562.188C314.93 563.039 315.805 563.465 316.898 563.465C318 563.465 318.875 563.035 319.523 562.176C320.172 561.309 320.496 560.098 320.496 558.543C320.496 557.152 320.164 556.027 319.5 555.168C318.844 554.301 317.969 553.867 316.875 553.867C315.805 553.867 314.941 554.293 314.285 555.145C313.629 555.996 313.301 557.215 313.301 558.801ZM341.707 565H339.539V554.113H333.703V565H331.523V552.32H341.707V565ZM353.016 565C352.891 564.75 352.789 564.305 352.711 563.664C351.703 564.711 350.5 565.234 349.102 565.234C347.852 565.234 346.824 564.883 346.02 564.18C345.223 563.469 344.824 562.57 344.824 561.484C344.824 560.164 345.324 559.141 346.324 558.414C347.332 557.68 348.746 557.312 350.566 557.312H352.676V556.316C352.676 555.559 352.449 554.957 351.996 554.512C351.543 554.059 350.875 553.832 349.992 553.832C349.219 553.832 348.57 554.027 348.047 554.418C347.523 554.809 347.262 555.281 347.262 555.836H345.082C345.082 555.203 345.305 554.594 345.75 554.008C346.203 553.414 346.812 552.945 347.578 552.602C348.352 552.258 349.199 552.086 350.121 552.086C351.582 552.086 352.727 552.453 353.555 553.188C354.383 553.914 354.812 554.918 354.844 556.199V562.035C354.844 563.199 354.992 564.125 355.289 564.812V565H353.016ZM349.418 563.348C350.098 563.348 350.742 563.172 351.352 562.82C351.961 562.469 352.402 562.012 352.676 561.449V558.848H350.977C348.32 558.848 346.992 559.625 346.992 561.18C346.992 561.859 347.219 562.391 347.672 562.773C348.125 563.156 348.707 563.348 349.418 563.348ZM368.953 558.801C368.953 560.73 368.512 562.285 367.629 563.465C366.746 564.645 365.551 565.234 364.043 565.234C362.504 565.234 361.293 564.746 360.41 563.77V569.875H358.242V552.32H360.223L360.328 553.727C361.211 552.633 362.438 552.086 364.008 552.086C365.531 552.086 366.734 552.66 367.617 553.809C368.508 554.957 368.953 556.555 368.953 558.602V558.801ZM366.785 558.555C366.785 557.125 366.48 555.996 365.871 555.168C365.262 554.34 364.426 553.926 363.363 553.926C362.051 553.926 361.066 554.508 360.41 555.672V561.73C361.059 562.887 362.051 563.465 363.387 563.465C364.426 563.465 365.25 563.055 365.859 562.234C366.477 561.406 366.785 560.18 366.785 558.555ZM379.547 565C379.422 564.75 379.32 564.305 379.242 563.664C378.234 564.711 377.031 565.234 375.633 565.234C374.383 565.234 373.355 564.883 372.551 564.18C371.754 563.469 371.355 562.57 371.355 561.484C371.355 560.164 371.855 559.141 372.855 558.414C373.863 557.68 375.277 557.312 377.098 557.312H379.207V556.316C379.207 555.559 378.98 554.957 378.527 554.512C378.074 554.059 377.406 553.832 376.523 553.832C375.75 553.832 375.102 554.027 374.578 554.418C374.055 554.809 373.793 555.281 373.793 555.836H371.613C371.613 555.203 371.836 554.594 372.281 554.008C372.734 553.414 373.344 552.945 374.109 552.602C374.883 552.258 375.73 552.086 376.652 552.086C378.113 552.086 379.258 552.453 380.086 553.188C380.914 553.914 381.344 554.918 381.375 556.199V562.035C381.375 563.199 381.523 564.125 381.82 564.812V565H379.547ZM375.949 563.348C376.629 563.348 377.273 563.172 377.883 562.82C378.492 562.469 378.934 562.012 379.207 561.449V558.848H377.508C374.852 558.848 373.523 559.625 373.523 561.18C373.523 561.859 373.75 562.391 374.203 562.773C374.656 563.156 375.238 563.348 375.949 563.348ZM392.965 554.113H387.117V565H384.938V552.32H392.965V554.113ZM405.562 558.801C405.562 560.73 405.121 562.285 404.238 563.465C403.355 564.645 402.16 565.234 400.652 565.234C399.113 565.234 397.902 564.746 397.02 563.77V569.875H394.852V552.32H396.832L396.938 553.727C397.82 552.633 399.047 552.086 400.617 552.086C402.141 552.086 403.344 552.66 404.227 553.809C405.117 554.957 405.562 556.555 405.562 558.602V558.801ZM403.395 558.555C403.395 557.125 403.09 555.996 402.48 555.168C401.871 554.34 401.035 553.926 399.973 553.926C398.66 553.926 397.676 554.508 397.02 555.672V561.73C397.668 562.887 398.66 563.465 399.996 563.465C401.035 563.465 401.859 563.055 402.469 562.234C403.086 561.406 403.395 560.18 403.395 558.555ZM416.156 565C416.031 564.75 415.93 564.305 415.852 563.664C414.844 564.711 413.641 565.234 412.242 565.234C410.992 565.234 409.965 564.883 409.16 564.18C408.363 563.469 407.965 562.57 407.965 561.484C407.965 560.164 408.465 559.141 409.465 558.414C410.473 557.68 411.887 557.312 413.707 557.312H415.816V556.316C415.816 555.559 415.59 554.957 415.137 554.512C414.684 554.059 414.016 553.832 413.133 553.832C412.359 553.832 411.711 554.027 411.188 554.418C410.664 554.809 410.402 555.281 410.402 555.836H408.223C408.223 555.203 408.445 554.594 408.891 554.008C409.344 553.414 409.953 552.945 410.719 552.602C411.492 552.258 412.34 552.086 413.262 552.086C414.723 552.086 415.867 552.453 416.695 553.188C417.523 553.914 417.953 554.918 417.984 556.199V562.035C417.984 563.199 418.133 564.125 418.43 564.812V565H416.156ZM412.559 563.348C413.238 563.348 413.883 563.172 414.492 562.82C415.102 562.469 415.543 562.012 415.816 561.449V558.848H414.117C411.461 558.848 410.133 559.625 410.133 561.18C410.133 561.859 410.359 562.391 410.812 562.773C411.266 563.156 411.848 563.348 412.559 563.348ZM420.914 558.895C420.914 556.777 421.324 555.113 422.145 553.902C422.965 552.691 424.09 552.086 425.52 552.086C426.184 552.086 426.766 552.199 427.266 552.426V547H429.434V552.496C429.98 552.223 430.621 552.086 431.355 552.086C432.793 552.086 433.922 552.691 434.742 553.902C435.562 555.113 435.973 556.859 435.973 559.141C435.973 561.008 435.562 562.492 434.742 563.594C433.93 564.695 432.809 565.246 431.379 565.246C430.621 565.246 429.973 565.121 429.434 564.871V569.875H427.266V564.906C426.75 565.133 426.16 565.246 425.496 565.246C424.074 565.246 422.953 564.695 422.133 563.594C421.32 562.492 420.914 560.984 420.914 559.07V558.895ZM433.805 558.895C433.805 557.301 433.531 556.066 432.984 555.191C432.438 554.309 431.684 553.867 430.723 553.867C430.23 553.867 429.801 553.945 429.434 554.102V563.277C429.785 563.41 430.223 563.477 430.746 563.477C431.715 563.477 432.465 563.102 432.996 562.352C433.535 561.602 433.805 560.449 433.805 558.895ZM423.082 559.141C423.082 560.562 423.336 561.641 423.844 562.375C424.352 563.109 425.082 563.477 426.035 563.477C426.488 563.477 426.898 563.406 427.266 563.266V554.066C426.938 553.934 426.535 553.867 426.059 553.867C425.105 553.867 424.371 554.293 423.855 555.145C423.34 555.996 423.082 557.328 423.082 559.141Z" fill="black"/>
</svg>
