<svg width="2407" height="1725" viewBox="0 0 2407 1725" fill="none" xmlns="http://www.w3.org/2000/svg">
<path d="M884 394.558V222.001C884 204.251 901.3 189.67 922.362 189.67H1270.62C1291.69 189.67 1308.99 204.251 1308.99 222.001V394.558" stroke="#007BFF" stroke-width="2" stroke-miterlimit="10"/>
<path opacity="0.12" d="M1260.85 411.801H931.989C919.653 411.801 909.574 403.306 909.574 392.909V230.115C909.574 219.719 919.653 211.224 931.989 211.224H1260.85C1273.18 211.224 1283.26 219.719 1283.26 230.115V392.909C1283.41 403.306 1273.18 411.801 1260.85 411.801Z" fill="#007BFF"/>
<path d="M1298.76 450.217H895.583C889.566 450.217 884.752 446.033 884.752 441.088C884.752 436.017 889.716 431.96 895.583 431.96H1298.76C1304.77 431.96 1309.59 436.144 1309.59 441.088C1309.59 446.033 1304.62 450.217 1298.76 450.217Z" stroke="#007BFF" stroke-width="2" stroke-miterlimit="10"/>
<path d="M99 846.143V665.708C99 647.147 116.3 631.901 137.362 631.901H485.624C506.686 631.901 523.986 647.147 523.986 665.708V846.143" stroke="#007BFF" stroke-width="2" stroke-miterlimit="10"/>
<path opacity="0.12" d="M475.997 864.173H147.14C134.804 864.173 124.725 855.291 124.725 844.42V674.193C124.725 663.322 134.804 654.439 147.14 654.439H475.997C488.333 654.439 498.412 663.322 498.412 674.193V844.42C498.562 855.291 488.333 864.173 475.997 864.173Z" fill="#007BFF"/>
<path d="M376.858 983.889H246.128C240.11 983.889 235.296 979.647 235.296 974.344C235.296 969.041 240.11 964.798 246.128 964.798H376.858C382.876 964.798 387.69 969.041 387.69 974.344C387.69 979.647 382.876 983.889 376.858 983.889Z" stroke="#007BFF" stroke-width="2" stroke-miterlimit="10"/>
<path d="M311.568 954.59V876.105" stroke="#007BFF" stroke-width="2" stroke-miterlimit="10"/>
<path d="M1441.2 311.259L1420.98 299.28C1416.83 296.784 1417.01 292.99 1421.52 290.694L1443.18 279.514" stroke="#082E51" stroke-width="4" stroke-miterlimit="10" stroke-linecap="round" stroke-linejoin="round"/>
<path d="M1429.1 295.087C1429.1 295.087 1812.62 265.738 1899.24 425.46" stroke="#082E51" stroke-width="4" stroke-miterlimit="10" stroke-linecap="round" stroke-linejoin="round"/>
<path d="M743.162 730.463L716.047 716.202C710.437 713.238 708.38 706.571 711.372 701.014L725.958 674.159" stroke="#007BFF" stroke-width="4" stroke-miterlimit="10" stroke-linecap="round"/>
<path d="M721.657 706.015C721.657 706.015 1164.66 549.141 1583.36 779.544" stroke="#007BFF" stroke-width="4" stroke-miterlimit="10" stroke-linecap="round"/>
<path d="M1541.27 885.694L1568.1 896.988C1573.65 899.335 1575.68 904.615 1572.72 909.015L1558.47 930.282" stroke="#007BFF" stroke-width="4" stroke-miterlimit="10" stroke-linecap="round"/>
<path d="M1562.55 905.055C1562.55 905.055 1124.25 1029.28 710 846.827" stroke="#007BFF" stroke-width="4" stroke-miterlimit="10" stroke-linecap="round"/>
<path d="M1804.57 506.519L1820.68 520.994C1824.03 523.989 1821.73 527.583 1815.45 529.18L1785.11 536.866" stroke="#082E51" stroke-width="4" stroke-miterlimit="10" stroke-linecap="round" stroke-linejoin="round"/>
<path d="M1809.17 523.789C1809.17 523.789 1561.17 509.015 1431 432.248" stroke="#082E51" stroke-width="4" stroke-miterlimit="10" stroke-linecap="round" stroke-linejoin="round"/>
<path d="M1074.21 1347.46L1038.62 1348.26C1031.25 1348.45 1025.17 1345.86 1024.74 1342.47L1023 1326.09" stroke="#082E51" stroke-width="4" stroke-miterlimit="10" stroke-linecap="round" stroke-linejoin="round"/>
<path d="M1038.19 1342.07C1038.19 1342.07 1287.53 1161.18 1619.76 1227.86" stroke="#082E51" stroke-width="4" stroke-miterlimit="10" stroke-linecap="round" stroke-linejoin="round"/>
<path d="M1527.87 1325.69L1563.39 1329.19C1570.72 1329.89 1575.38 1333.08 1573.83 1336.38L1566.05 1352.35" stroke="#082E51" stroke-width="4" stroke-miterlimit="10" stroke-linecap="round" stroke-linejoin="round"/>
<path d="M1560.5 1335.18C1560.5 1335.18 1365.35 1415.84 1146 1413.64" stroke="#082E51" stroke-width="4" stroke-miterlimit="10" stroke-linecap="round" stroke-linejoin="round"/>
<path d="M983.496 126.409H978.086V144.88H970.634V101.527H978.086V119.878H982.935L997.519 101.527H1006.49L989.345 122.362L1007.94 144.88H998.521L983.496 126.409ZM1049.85 101.527V144.88H1042.39V107.657H1027.65L1026.77 123.885C1026.29 131.337 1025.03 136.666 1023 139.872C1021 143.077 1017.81 144.747 1013.43 144.88H1010.46V138.349L1012.58 138.189C1014.99 137.922 1016.71 136.533 1017.75 134.022C1018.8 131.511 1019.46 126.863 1019.76 120.078L1020.56 101.527H1049.85ZM1089.79 101.527H1097.21V144.88H1089.79V113.267L1069.8 144.88H1062.39V101.527H1069.8V133.18L1089.79 101.527ZM1127.1 145.682C1121.22 145.682 1116.44 143.758 1112.75 139.912C1109.07 136.039 1107.22 130.87 1107.22 124.406V123.043C1107.22 118.743 1108.04 114.91 1109.67 111.544C1111.32 108.152 1113.62 105.507 1116.56 103.611C1119.53 101.687 1122.73 100.726 1126.18 100.726C1131.81 100.726 1136.19 102.582 1139.32 106.295C1142.44 110.008 1144.01 115.324 1144.01 122.242V125.327H1114.64C1114.74 129.601 1115.99 133.06 1118.36 135.705C1120.77 138.322 1123.81 139.631 1127.5 139.631C1130.12 139.631 1132.33 139.097 1134.15 138.029C1135.97 136.96 1137.56 135.544 1138.92 133.781L1143.45 137.307C1139.81 142.89 1134.36 145.682 1127.1 145.682ZM1126.18 106.816C1123.18 106.816 1120.67 107.911 1118.64 110.102C1116.61 112.265 1115.36 115.31 1114.88 119.237H1136.59V118.676C1136.38 114.91 1135.37 111.998 1133.55 109.941C1131.73 107.858 1129.27 106.816 1126.18 106.816ZM1188.04 144.88H1180.63V126.369H1160.71V144.88H1153.26V101.527H1160.71V120.319H1180.63V101.527H1188.04V144.88ZM1232.2 107.537H1217.65V144.88H1210.24V107.537H1195.97V101.527H1232.2V107.537Z" fill="black"/>
<path d="M213.863 1079.75H208.454V1098.22H201.002V1054.87H208.454V1073.22H213.302L227.887 1054.87H236.862L219.713 1075.7L238.305 1098.22H228.889L213.863 1079.75ZM280.215 1054.87V1098.22H272.763V1061H258.018L257.136 1077.23C256.656 1084.68 255.4 1090.01 253.37 1093.21C251.367 1096.42 248.175 1098.09 243.794 1098.22H240.829V1091.69L242.952 1091.53C245.356 1091.26 247.079 1089.87 248.121 1087.36C249.163 1084.85 249.831 1080.21 250.125 1073.42L250.926 1054.87H280.215ZM320.163 1054.87H327.575V1098.22H320.163V1066.61L300.169 1098.22H292.756V1054.87H300.169V1086.52L320.163 1054.87ZM357.466 1099.02C351.589 1099.02 346.808 1097.1 343.121 1093.25C339.435 1089.38 337.592 1084.21 337.592 1077.75V1076.39C337.592 1072.08 338.407 1068.25 340.036 1064.89C341.692 1061.49 343.989 1058.85 346.928 1056.95C349.893 1055.03 353.098 1054.07 356.544 1054.07C362.18 1054.07 366.561 1055.92 369.686 1059.64C372.811 1063.35 374.374 1068.67 374.374 1075.58V1078.67H345.005C345.111 1082.94 346.353 1086.4 348.731 1089.05C351.135 1091.66 354.18 1092.97 357.866 1092.97C360.484 1092.97 362.701 1092.44 364.517 1091.37C366.334 1090.3 367.923 1088.89 369.285 1087.12L373.813 1090.65C370.18 1096.23 364.731 1099.02 357.466 1099.02ZM356.544 1060.16C353.552 1060.16 351.041 1061.25 349.011 1063.44C346.981 1065.61 345.726 1068.65 345.245 1072.58H366.962V1072.02C366.748 1068.25 365.733 1065.34 363.916 1063.28C362.1 1061.2 359.643 1060.16 356.544 1060.16ZM418.408 1098.22H410.996V1079.71H391.082V1098.22H383.63V1054.87H391.082V1073.66H410.996V1054.87H418.408V1098.22ZM462.563 1060.88H448.018V1098.22H440.606V1060.88H426.342V1054.87H462.563V1060.88Z" fill="black"/>
<path d="M611.496 1683.7H606.087V1702.17H598.634V1658.82H606.087V1677.17H610.935L625.519 1658.82H634.494L617.346 1679.65L635.937 1702.17H626.521L611.496 1683.7ZM677.848 1658.82V1702.17H670.395V1664.95H655.65L654.769 1681.18C654.288 1688.63 653.032 1693.96 651.002 1697.16C648.999 1700.37 645.807 1702.04 641.426 1702.17H638.461V1695.64L640.585 1695.48C642.989 1695.21 644.712 1693.82 645.753 1691.31C646.795 1688.8 647.463 1684.15 647.757 1677.37L648.558 1658.82H677.848ZM717.795 1658.82H725.207V1702.17H717.795V1670.56L697.801 1702.17H690.389V1658.82H697.801V1690.47L717.795 1658.82ZM755.098 1702.97C749.221 1702.97 744.44 1701.05 740.754 1697.2C737.067 1693.33 735.224 1688.16 735.224 1681.7V1680.34C735.224 1676.03 736.039 1672.2 737.668 1668.84C739.325 1665.44 741.622 1662.8 744.56 1660.9C747.525 1658.98 750.73 1658.02 754.176 1658.02C759.812 1658.02 764.193 1659.87 767.318 1663.59C770.444 1667.3 772.006 1672.62 772.006 1679.53V1682.62H742.637C742.744 1686.89 743.986 1690.35 746.363 1693C748.767 1695.61 751.812 1696.92 755.499 1696.92C758.116 1696.92 760.333 1696.39 762.15 1695.32C763.966 1694.25 765.555 1692.84 766.918 1691.07L771.445 1694.6C767.813 1700.18 762.363 1702.97 755.098 1702.97ZM754.176 1664.11C751.185 1664.11 748.674 1665.2 746.644 1667.39C744.614 1669.56 743.358 1672.6 742.877 1676.53H764.594V1675.97C764.38 1672.2 763.365 1669.29 761.549 1667.23C759.732 1665.15 757.275 1664.11 754.176 1664.11ZM816.041 1702.17H808.628V1683.66H788.715V1702.17H781.262V1658.82H788.715V1677.61H808.628V1658.82H816.041V1702.17ZM860.195 1664.83H845.651V1702.17H838.238V1664.83H823.974V1658.82H860.195V1664.83Z" fill="black"/>
<path d="M995.025 574.018C995.025 569.771 995.853 565.951 997.51 562.559C999.192 559.167 1001.52 556.549 1004.48 554.706C1007.47 552.863 1010.88 551.941 1014.7 551.941C1020.6 551.941 1025.37 553.984 1029 558.071C1032.66 562.158 1034.49 567.594 1034.49 574.379V574.9C1034.49 579.12 1033.68 582.913 1032.05 586.279C1030.45 589.618 1028.13 592.222 1025.12 594.092C1022.12 595.962 1018.68 596.897 1014.78 596.897C1008.9 596.897 1004.13 594.853 1000.47 590.767C996.842 586.68 995.025 581.271 995.025 574.539V574.018ZM1002.48 574.9C1002.48 579.708 1003.59 583.568 1005.8 586.479C1008.05 589.391 1011.04 590.847 1014.78 590.847C1018.55 590.847 1021.54 589.378 1023.75 586.439C1025.97 583.474 1027.08 579.334 1027.08 574.018C1027.08 569.264 1025.94 565.417 1023.67 562.479C1021.43 559.514 1018.44 558.031 1014.7 558.031C1011.04 558.031 1008.09 559.487 1005.84 562.399C1003.6 565.31 1002.48 569.477 1002.48 574.9ZM1075.12 558.753H1060.58V596.096H1053.16V558.753H1038.9V552.742H1075.12V558.753ZM1083.01 596.096V552.742H1099.92C1105.69 552.742 1110.11 553.757 1113.18 555.788C1116.28 557.791 1117.83 560.743 1117.83 564.642C1117.83 566.646 1117.23 568.462 1116.03 570.092C1114.83 571.694 1113.05 572.923 1110.7 573.778C1113.32 574.392 1115.42 575.594 1116.99 577.384C1118.59 579.174 1119.4 581.311 1119.4 583.795C1119.4 587.775 1117.93 590.82 1114.99 592.93C1112.08 595.04 1107.95 596.096 1102.61 596.096H1083.01ZM1090.43 577.063V590.125H1102.69C1105.79 590.125 1108.1 589.551 1109.62 588.403C1111.17 587.254 1111.94 585.638 1111.94 583.554C1111.94 579.227 1108.76 577.063 1102.41 577.063H1090.43ZM1090.43 571.133H1100C1106.95 571.133 1110.42 569.103 1110.42 565.043C1110.42 560.983 1107.13 558.886 1100.56 558.753H1090.43V571.133ZM1147.2 596.897C1141.33 596.897 1136.54 594.974 1132.86 591.127C1129.17 587.254 1127.33 582.085 1127.33 575.621V574.259C1127.33 569.958 1128.14 566.125 1129.77 562.759C1131.43 559.367 1133.73 556.722 1136.66 554.826C1139.63 552.903 1142.83 551.941 1146.28 551.941C1151.92 551.941 1156.3 553.798 1159.42 557.51C1162.55 561.223 1164.11 566.539 1164.11 573.457V576.543H1134.74C1134.85 580.816 1136.09 584.276 1138.47 586.92C1140.87 589.538 1143.92 590.847 1147.6 590.847C1150.22 590.847 1152.44 590.312 1154.25 589.244C1156.07 588.175 1157.66 586.76 1159.02 584.997L1163.55 588.523C1159.92 594.105 1154.47 596.897 1147.2 596.897ZM1146.28 558.031C1143.29 558.031 1140.78 559.126 1138.75 561.317C1136.72 563.481 1135.46 566.526 1134.98 570.452H1156.7V569.891C1156.48 566.125 1155.47 563.213 1153.65 561.157C1151.84 559.073 1149.38 558.031 1146.28 558.031ZM1204.46 558.753H1189.91V596.096H1182.5V558.753H1168.24V552.742H1204.46V558.753Z" fill="#007BFF"/>
<path d="M1001.79 1028.8C1001.79 1026.76 1001.02 1025.16 999.469 1023.99C997.92 1022.78 995.796 1022.18 993.098 1022.18C990.481 1022.18 988.29 1022.87 986.527 1024.23C984.791 1025.59 983.923 1027.19 983.923 1029.04H976.551C976.551 1025.27 978.127 1022.18 981.278 1019.78C984.43 1017.38 988.37 1016.17 993.098 1016.17C998.174 1016.17 1002.13 1017.27 1004.96 1019.46C1007.79 1021.62 1009.21 1024.72 1009.21 1028.76C1009.21 1030.7 1008.62 1032.49 1007.44 1034.12C1006.27 1035.75 1004.6 1037.05 1002.43 1038.01C1007.48 1039.72 1010.01 1043.09 1010.01 1048.11C1010.01 1052.09 1008.47 1055.24 1005.4 1057.56C1002.33 1059.89 998.227 1061.05 993.098 1061.05C988.103 1061.05 983.976 1059.83 980.718 1057.4C977.485 1054.95 975.869 1051.63 975.869 1047.47H983.242C983.242 1049.58 984.177 1051.39 986.047 1052.92C987.943 1054.41 990.294 1055.16 993.098 1055.16C995.93 1055.16 998.214 1054.51 999.95 1053.2C1001.69 1051.89 1002.55 1050.19 1002.55 1048.11C1002.55 1045.68 1001.82 1043.94 1000.35 1042.9C998.908 1041.83 996.651 1041.3 993.579 1041.3H986.167V1035.05H994.22C999.269 1034.91 1001.79 1032.83 1001.79 1028.8ZM1046.39 1060.29C1045.96 1059.43 1045.61 1057.91 1045.35 1055.72C1041.9 1059.3 1037.79 1061.09 1033.01 1061.09C1028.73 1061.09 1025.22 1059.89 1022.47 1057.48C1019.74 1055.05 1018.38 1051.98 1018.38 1048.27C1018.38 1043.75 1020.09 1040.25 1023.51 1037.77C1026.96 1035.26 1031.79 1034 1038.01 1034H1045.23V1030.6C1045.23 1028.01 1044.45 1025.95 1042.9 1024.43C1041.35 1022.88 1039.07 1022.1 1036.05 1022.1C1033.41 1022.1 1031.19 1022.77 1029.4 1024.11C1027.61 1025.44 1026.72 1027.06 1026.72 1028.96H1019.26C1019.26 1026.79 1020.02 1024.71 1021.55 1022.7C1023.1 1020.67 1025.18 1019.07 1027.8 1017.9C1030.44 1016.72 1033.34 1016.13 1036.49 1016.13C1041.49 1016.13 1045.4 1017.39 1048.23 1019.9C1051.06 1022.38 1052.53 1025.82 1052.64 1030.2V1050.15C1052.64 1054.13 1053.15 1057.3 1054.16 1059.65V1060.29H1046.39ZM1034.09 1054.64C1036.41 1054.64 1038.62 1054.04 1040.7 1052.84C1042.78 1051.63 1044.29 1050.07 1045.23 1048.15V1039.25H1039.42C1030.33 1039.25 1025.79 1041.91 1025.79 1047.23C1025.79 1049.55 1026.57 1051.37 1028.12 1052.68C1029.67 1053.98 1031.66 1054.64 1034.09 1054.64ZM1099.72 1060.29H1092.31V1023.07H1072.35V1060.29H1064.9V1016.94H1099.72V1060.29ZM1148.24 1039.09C1148.24 1045.69 1146.73 1051.01 1143.71 1055.04C1140.69 1059.07 1136.61 1061.09 1131.45 1061.09C1126.19 1061.09 1122.05 1059.42 1119.03 1056.08V1076.96H1111.62V1016.94H1118.39L1118.75 1021.74C1121.77 1018 1125.96 1016.13 1131.33 1016.13C1136.54 1016.13 1140.65 1018.1 1143.67 1022.02C1146.72 1025.95 1148.24 1031.41 1148.24 1038.41V1039.09ZM1140.83 1038.25C1140.83 1033.36 1139.79 1029.5 1137.7 1026.67C1135.62 1023.84 1132.76 1022.42 1129.13 1022.42C1124.64 1022.42 1121.27 1024.41 1119.03 1028.39V1049.11C1121.25 1053.06 1124.64 1055.04 1129.21 1055.04C1132.76 1055.04 1135.58 1053.64 1137.66 1050.83C1139.77 1048 1140.83 1043.81 1140.83 1038.25ZM1155.73 1038.21C1155.73 1033.96 1156.56 1030.14 1158.22 1026.75C1159.9 1023.36 1162.22 1020.74 1165.19 1018.9C1168.18 1017.06 1171.59 1016.13 1175.41 1016.13C1181.31 1016.13 1186.08 1018.18 1189.71 1022.26C1193.37 1026.35 1195.2 1031.79 1195.2 1038.57V1039.09C1195.2 1043.31 1194.38 1047.11 1192.76 1050.47C1191.15 1053.81 1188.84 1056.42 1185.82 1058.28C1182.83 1060.15 1179.39 1061.09 1175.49 1061.09C1169.61 1061.09 1164.84 1059.05 1161.18 1054.96C1157.55 1050.87 1155.73 1045.46 1155.73 1038.73V1038.21ZM1163.19 1039.09C1163.19 1043.9 1164.29 1047.76 1166.51 1050.67C1168.75 1053.58 1171.75 1055.04 1175.49 1055.04C1179.25 1055.04 1182.24 1053.57 1184.46 1050.63C1186.68 1047.67 1187.79 1043.53 1187.79 1038.21C1187.79 1033.46 1186.65 1029.61 1184.38 1026.67C1182.14 1023.71 1179.15 1022.22 1175.41 1022.22C1171.75 1022.22 1168.79 1023.68 1166.55 1026.59C1164.31 1029.5 1163.19 1033.67 1163.19 1039.09ZM1221.88 1055.04C1224.53 1055.04 1226.84 1054.24 1228.82 1052.64C1230.79 1051.03 1231.89 1049.03 1232.1 1046.63H1239.11C1238.98 1049.11 1238.13 1051.47 1236.55 1053.72C1234.97 1055.96 1232.86 1057.75 1230.22 1059.09C1227.6 1060.42 1224.82 1061.09 1221.88 1061.09C1215.98 1061.09 1211.28 1059.13 1207.78 1055.2C1204.31 1051.25 1202.57 1045.85 1202.57 1039.01V1037.77C1202.57 1033.55 1203.35 1029.8 1204.9 1026.51C1206.44 1023.23 1208.66 1020.67 1211.55 1018.86C1214.46 1017.04 1217.89 1016.13 1221.84 1016.13C1226.71 1016.13 1230.74 1017.59 1233.94 1020.5C1237.18 1023.41 1238.9 1027.19 1239.11 1031.84H1232.1C1231.89 1029.04 1230.82 1026.74 1228.9 1024.95C1227 1023.13 1224.65 1022.22 1221.84 1022.22C1218.08 1022.22 1215.15 1023.59 1213.07 1026.31C1211.01 1029.01 1209.98 1032.92 1209.98 1038.05V1039.45C1209.98 1044.45 1211.01 1048.29 1213.07 1050.99C1215.13 1053.69 1218.06 1055.04 1221.88 1055.04Z" fill="#007BFF"/>
<path d="M1949.49 1274.66C1952.13 1274.66 1954.44 1273.86 1956.42 1272.25C1958.39 1270.65 1959.49 1268.65 1959.7 1266.24H1966.71C1966.58 1268.73 1965.73 1271.09 1964.15 1273.34C1962.57 1275.58 1960.46 1277.37 1957.82 1278.7C1955.2 1280.04 1952.42 1280.71 1949.49 1280.71C1943.58 1280.71 1938.88 1278.74 1935.38 1274.82C1931.91 1270.86 1930.17 1265.47 1930.17 1258.63V1257.39C1930.17 1253.17 1930.95 1249.41 1932.5 1246.13C1934.05 1242.84 1936.26 1240.29 1939.15 1238.48C1942.06 1236.66 1945.49 1235.75 1949.45 1235.75C1954.31 1235.75 1958.34 1237.21 1961.55 1240.12C1964.78 1243.03 1966.5 1246.81 1966.71 1251.46H1959.7C1959.49 1248.65 1958.42 1246.36 1956.5 1244.57C1954.6 1242.75 1952.25 1241.84 1949.45 1241.84C1945.68 1241.84 1942.75 1243.2 1940.67 1245.93C1938.61 1248.63 1937.59 1252.54 1937.59 1257.67V1259.07C1937.59 1264.07 1938.61 1267.91 1940.67 1270.61C1942.73 1273.31 1945.67 1274.66 1949.49 1274.66ZM1993.04 1280.71C1987.16 1280.71 1982.38 1278.78 1978.7 1274.94C1975.01 1271.06 1973.17 1265.9 1973.17 1259.43V1258.07C1973.17 1253.77 1973.98 1249.94 1975.61 1246.57C1977.27 1243.18 1979.56 1240.53 1982.5 1238.64C1985.47 1236.71 1988.67 1235.75 1992.12 1235.75C1997.75 1235.75 2002.13 1237.61 2005.26 1241.32C2008.39 1245.03 2009.95 1250.35 2009.95 1257.27V1260.35H1980.58C1980.69 1264.63 1981.93 1268.09 1984.3 1270.73C1986.71 1273.35 1989.75 1274.66 1993.44 1274.66C1996.06 1274.66 1998.27 1274.12 2000.09 1273.05C2001.91 1271.99 2003.5 1270.57 2004.86 1268.81L2009.39 1272.33C2005.75 1277.92 2000.3 1280.71 1993.04 1280.71ZM1992.12 1241.84C1989.13 1241.84 1986.62 1242.94 1984.59 1245.13C1982.55 1247.29 1981.3 1250.34 1980.82 1254.26H2002.54V1253.7C2002.32 1249.94 2001.31 1247.02 1999.49 1244.97C1997.67 1242.88 1995.22 1241.84 1992.12 1241.84ZM2055.18 1258.71C2055.18 1265.31 2053.67 1270.62 2050.66 1274.66C2047.64 1278.69 2043.55 1280.71 2038.4 1280.71C2033.13 1280.71 2028.99 1279.04 2025.97 1275.7V1296.57H2018.56V1236.55H2025.33L2025.69 1241.36C2028.71 1237.62 2032.91 1235.75 2038.28 1235.75C2043.48 1235.75 2047.6 1237.72 2050.62 1241.64C2053.66 1245.57 2055.18 1251.03 2055.18 1258.03V1258.71ZM2047.77 1257.87C2047.77 1252.98 2046.73 1249.12 2044.65 1246.29C2042.56 1243.46 2039.7 1242.04 2036.07 1242.04C2031.58 1242.04 2028.22 1244.03 2025.97 1248.01V1268.73C2028.19 1272.68 2031.58 1274.66 2036.15 1274.66C2039.7 1274.66 2042.52 1273.26 2044.61 1270.45C2046.72 1267.62 2047.77 1263.43 2047.77 1257.87ZM2065.32 1279.91V1236.55H2082.23C2088 1236.55 2092.42 1237.57 2095.49 1239.6C2098.59 1241.6 2100.14 1244.55 2100.14 1248.45C2100.14 1250.46 2099.54 1252.27 2098.34 1253.9C2097.13 1255.51 2095.36 1256.73 2093.01 1257.59C2095.63 1258.2 2097.72 1259.41 2099.3 1261.19C2100.9 1262.98 2101.7 1265.12 2101.7 1267.61C2101.7 1271.59 2100.23 1274.63 2097.3 1276.74C2094.38 1278.85 2090.26 1279.91 2084.91 1279.91H2065.32ZM2072.73 1260.87V1273.94H2084.99C2088.09 1273.94 2090.4 1273.36 2091.93 1272.21C2093.48 1271.06 2094.25 1269.45 2094.25 1267.37C2094.25 1263.04 2091.07 1260.87 2084.71 1260.87H2072.73ZM2072.73 1254.94H2082.31C2089.25 1254.94 2092.73 1252.91 2092.73 1248.85C2092.73 1244.79 2089.44 1242.7 2082.87 1242.56H2072.73V1254.94ZM2129.51 1280.71C2123.63 1280.71 2118.85 1278.78 2115.17 1274.94C2111.48 1271.06 2109.64 1265.9 2109.64 1259.43V1258.07C2109.64 1253.77 2110.45 1249.94 2112.08 1246.57C2113.74 1243.18 2116.03 1240.53 2118.97 1238.64C2121.94 1236.71 2125.14 1235.75 2128.59 1235.75C2134.22 1235.75 2138.6 1237.61 2141.73 1241.32C2144.86 1245.03 2146.42 1250.35 2146.42 1257.27V1260.35H2117.05C2117.16 1264.63 2118.4 1268.09 2120.77 1270.73C2123.18 1273.35 2126.22 1274.66 2129.91 1274.66C2132.53 1274.66 2134.75 1274.12 2136.56 1273.05C2138.38 1271.99 2139.97 1270.57 2141.33 1268.81L2145.86 1272.33C2142.22 1277.92 2136.78 1280.71 2129.51 1280.71ZM2128.59 1241.84C2125.6 1241.84 2123.09 1242.94 2121.06 1245.13C2119.03 1247.29 2117.77 1250.34 2117.29 1254.26H2139.01V1253.7C2138.79 1249.94 2137.78 1247.02 2135.96 1244.97C2134.14 1242.88 2131.69 1241.84 2128.59 1241.84ZM2191.65 1258.71C2191.65 1265.31 2190.15 1270.62 2187.13 1274.66C2184.11 1278.69 2180.02 1280.71 2174.87 1280.71C2169.6 1280.71 2165.46 1279.04 2162.45 1275.7V1296.57H2155.03V1236.55H2161.8L2162.16 1241.36C2165.18 1237.62 2169.38 1235.75 2174.75 1235.75C2179.95 1235.75 2184.07 1237.72 2187.09 1241.64C2190.13 1245.57 2191.65 1251.03 2191.65 1258.03V1258.71ZM2184.24 1257.87C2184.24 1252.98 2183.2 1249.12 2181.12 1246.29C2179.03 1243.46 2176.17 1242.04 2172.54 1242.04C2168.05 1242.04 2164.69 1244.03 2162.45 1248.01V1268.73C2164.66 1272.68 2168.05 1274.66 2172.62 1274.66C2176.17 1274.66 2178.99 1273.26 2181.08 1270.45C2183.19 1267.62 2184.24 1263.43 2184.24 1257.87Z" fill="black"/>
<path d="M1662.8 202.736L1676.79 180.379H1685.84L1667.41 209.307L1686.28 238.717H1677.15L1662.8 215.959L1648.38 238.717H1639.28L1658.2 209.307L1639.72 180.379H1648.74L1662.8 202.736ZM1705.15 180.379L1724.23 227.979L1743.3 180.379H1753.28V238.717H1745.58V215.999L1746.3 191.477L1727.15 238.717H1721.26L1702.15 191.598L1702.91 215.999V238.717H1695.22V180.379H1705.15ZM1774.59 232.426H1802.24V238.717H1766.86V180.379H1774.59V232.426Z" fill="black"/>
<path d="M1033.96 768.356H1041.7V809.666C1041.7 815.248 1040.01 819.616 1036.65 822.768C1033.31 825.92 1028.85 827.496 1023.27 827.496C1017.47 827.496 1012.95 826.013 1009.72 823.048C1006.49 820.083 1004.87 815.93 1004.87 810.587H1012.57C1012.57 813.926 1013.48 816.531 1015.29 818.4C1017.14 820.27 1019.79 821.205 1023.27 821.205C1026.44 821.205 1029.01 820.204 1030.96 818.2C1032.94 816.197 1033.94 813.392 1033.96 809.786V768.356ZM1071.99 800.691C1065.39 798.794 1060.58 796.47 1057.56 793.719C1054.57 790.941 1053.08 787.522 1053.08 783.462C1053.08 778.867 1054.91 775.074 1058.57 772.082C1062.25 769.064 1067.03 767.555 1072.91 767.555C1076.92 767.555 1080.48 768.329 1083.61 769.879C1086.76 771.428 1089.19 773.565 1090.9 776.289C1092.64 779.014 1093.5 781.992 1093.5 785.225H1085.77C1085.77 781.699 1084.65 778.934 1082.41 776.931C1080.16 774.9 1077 773.885 1072.91 773.885C1069.12 773.885 1066.15 774.727 1064.01 776.41C1061.9 778.066 1060.85 780.376 1060.85 783.341C1060.85 785.719 1061.85 787.735 1063.85 789.392C1065.88 791.021 1069.32 792.517 1074.15 793.879C1079.01 795.241 1082.81 796.751 1085.53 798.407C1088.28 800.036 1090.31 801.946 1091.62 804.136C1092.96 806.327 1093.62 808.904 1093.62 811.869C1093.62 816.597 1091.78 820.39 1088.09 823.249C1084.41 826.08 1079.48 827.496 1073.31 827.496C1069.3 827.496 1065.56 826.735 1062.09 825.212C1058.62 823.663 1055.93 821.552 1054.04 818.881C1052.17 816.21 1051.23 813.178 1051.23 809.786H1058.97C1058.97 813.312 1060.26 816.103 1062.85 818.16C1065.47 820.19 1068.96 821.205 1073.31 821.205C1077.37 821.205 1080.48 820.377 1082.65 818.721C1084.81 817.065 1085.89 814.808 1085.89 811.95C1085.89 809.091 1084.89 806.888 1082.89 805.338C1080.88 803.762 1077.25 802.213 1071.99 800.691ZM1148.4 799.408C1148.4 805.125 1147.44 810.12 1145.51 814.394C1143.59 818.641 1140.86 821.886 1137.34 824.13C1133.81 826.374 1129.7 827.496 1125 827.496C1120.4 827.496 1116.33 826.374 1112.78 824.13C1109.22 821.86 1106.46 818.641 1104.48 814.474C1102.53 810.28 1101.53 805.432 1101.48 799.929V795.722C1101.48 790.113 1102.45 785.158 1104.4 780.857C1106.35 776.557 1109.1 773.271 1112.66 771.001C1116.24 768.703 1120.32 767.555 1124.92 767.555C1129.59 767.555 1133.71 768.69 1137.26 770.96C1140.84 773.204 1143.59 776.476 1145.51 780.777C1147.44 785.051 1148.4 790.033 1148.4 795.722V799.408ZM1140.74 795.642C1140.74 788.724 1139.35 783.421 1136.58 779.735C1133.8 776.022 1129.91 774.166 1124.92 774.166C1120.06 774.166 1116.22 776.022 1113.42 779.735C1110.64 783.421 1109.21 788.55 1109.13 795.121V799.408C1109.13 806.113 1110.53 811.389 1113.34 815.235C1116.17 819.055 1120.06 820.965 1125 820.965C1129.97 820.965 1133.81 819.162 1136.54 815.556C1139.26 811.923 1140.66 806.727 1140.74 799.969V795.642ZM1204.77 826.694H1197.04L1167.67 781.739V826.694H1159.94V768.356H1167.67L1197.12 813.512V768.356H1204.77V826.694Z" fill="black"/>
<path d="M1312.32 1529.47H1304.58V1502.51H1275.17V1529.47H1267.48V1471.13H1275.17V1496.22H1304.58V1471.13H1312.32V1529.47ZM1365.09 1477.46H1346.33V1529.47H1338.68V1477.46H1319.97V1471.13H1365.09V1477.46ZM1383.68 1471.13L1402.75 1518.73L1421.82 1471.13H1431.8V1529.47H1424.11V1506.75L1424.83 1482.23L1405.68 1529.47H1399.79L1380.67 1482.35L1381.43 1506.75V1529.47H1373.74V1471.13H1383.68ZM1453.12 1523.18H1480.76V1529.47H1445.38V1471.13H1453.12V1523.18Z" fill="black"/>
<path opacity="0.12" d="M2210.68 1135.82H1932.97C1917.48 1135.82 1904.84 1127.44 1904.84 1117.16V576.497C1904.84 566.215 1917.48 557.83 1932.97 557.83H2210.68C2226.17 557.83 2238.81 566.215 2238.81 576.497V1117.16C2238.81 1127.44 2226.17 1135.82 2210.68 1135.82Z" fill="#007BFF"/>
<path d="M2233.09 1156.59H1910.56C1893.26 1156.59 1879.27 1147.3 1879.27 1135.82V557.93C1879.27 546.45 1893.26 537.166 1910.56 537.166H2233.24C2250.55 537.166 2264.54 546.45 2264.54 557.93V1135.82C2264.54 1147.2 2250.39 1156.59 2233.09 1156.59Z" stroke="#007BFF" stroke-width="2" stroke-miterlimit="10"/>
<path d="M2273.41 1183.34H1870.24C1864.22 1183.34 1859.41 1180.05 1859.41 1176.15C1859.41 1172.16 1864.37 1168.97 1870.24 1168.97H2273.41C2279.43 1168.97 2284.24 1172.26 2284.24 1176.15C2284.24 1180.05 2279.28 1183.34 2273.41 1183.34Z" stroke="#007BFF" stroke-width="2" stroke-miterlimit="10"/>
<path opacity="0.12" d="M819.259 1529.34H615.092C606.879 1529.34 600.351 1523.05 600.351 1515.36V1218.18C600.351 1210.4 606.985 1204.21 615.092 1204.21H819.259C827.472 1204.21 834 1210.49 834 1218.18V1515.36C834 1523.05 827.367 1529.34 819.259 1529.34Z" fill="#007BFF"/>
<path d="M826.419 1558.69H607.827C603.615 1558.69 600.246 1555.49 600.246 1551.5C600.246 1547.51 603.615 1544.31 607.827 1544.31H826.419C830.631 1544.31 834 1547.51 834 1551.5C834 1555.49 830.631 1558.69 826.419 1558.69Z" stroke="#007BFF" stroke-width="2" stroke-miterlimit="10"/>
</svg>
