<svg enable-background="new 0 0 1474 706.3" viewBox="0 0 1474 706.3" xmlns="http://www.w3.org/2000/svg"><path d="m526.7 571.1c-76.4-57.3-108.7-156.3-80.8-247.7l6.7 20.2c.6 1.7 1.7 3.2 3.2 4.2l40.4 26.9-9.2 9.2c-1.5 1.5-2.4 3.6-2.4 5.7v24.4c0 1.3.3 2.5.9 3.6l16.2 32.4c1.1 2.2 3.2 3.8 5.7 4.3l34 6.8v74.4c0 1 .2 2 .6 3l16.2 40.5c.9 2.2 2.7 3.9 5 4.7l24.3 8.1c.8.3 1.7.4 2.5.4 4.5 0 8.1-3.6 8.1-8.1v-36.5l29.2-21.9c2-1.5 3.2-3.9 3.2-6.5v-21l30-30c1.1-1.1 1.9-2.6 2.2-4.1l8.1-40.5c.9-4.4-2-8.7-6.4-9.5-.5-.1-1.1-.2-1.6-.2h-27.8l-21.9-36.6c-1.5-2.4-4.1-3.9-6.9-3.9h-51.7l-13.9-27.9c-1.2-2.3-3.4-4-6-4.4s-5.2.4-7 2.3l-10.6 10.5v-12.9c0-2.1-.9-4.2-2.4-5.7l-13.8-13.8v-13.9l49.8-7.1c1.1-.2 2.1-.5 3-1.1l40.5-24.3c1.1-.7 2.1-1.6 2.8-2.8l22.8-37.9 21.5-7.2c2.4-.8 4.3-2.7 5.1-5.1l8.1-24.3c1.4-4.2-.9-8.8-5.2-10.2-.4-.1-.8-.2-1.2-.3l-46.9-7.8-9.2-6.1c51-16.6 105.5-15.5 157.7 6l-15.8 7.8h-30.5c-3.1 0-5.9 1.7-7.3 4.5l-16.1 32.3c-2 4-.4 8.9 3.6 10.9.3.2.7.3 1.1.4l24.3 8.1c1.5.5 3 .6 4.5.2l30.1-7.5 22.1 7.3c.3.1.6.2 1 .3l40.5 8.1c2.1.4 4.3 0 6.1-1.2l18.4-12.3c9.1 10.1 17.2 21 24.4 32.6l-39.9 13.3-43.2-7.2-14.3-21.4c-1.5-2.2-4-3.6-6.7-3.6h-48.6c-2.1 0-4.2.9-5.7 2.4l-24.3 24.3c-1.8 1.8-2.7 4.4-2.3 6.9l8.1 56.7c.4 2.8 2.3 5.2 4.9 6.3l56.7 24.3c1.6.7 3.4.8 5.2.4l28.9-7.2 17.7 11.8v28.1c0 1.3.3 2.5.8 3.6l31.6 63.1v30.5c0 2.1.9 4.2 2.4 5.7l17 17c-75.2 100.1-217.4 120.4-317.6 45.2z" fill="#007bff" opacity=".12"/><circle cx="662.8" cy="389.4" fill="none" opacity=".12" r="229.2" stroke="#007bff" stroke-miterlimit="10" stroke-width="4"/><path d="m44.7 331.9v-105.4c0-10.8 8.9-19.7 19.7-19.7h179.3c10.8 0 19.7 8.9 19.7 19.7v105.4" style="fill:none;stroke:#007bff;stroke-width:4;stroke-linecap:round;stroke-linejoin:round;stroke-miterlimit:10"/><path d="m238.7 342.5h-169.3c-6.3 0-11.5-5.2-11.5-11.5v-99.4c0-6.3 5.2-11.5 11.5-11.5h169.3c6.3 0 11.5 5.2 11.5 11.5v99.4c.1 6.3-5.1 11.5-11.5 11.5z" fill="#007bff" opacity=".12"/><path d="m258.2 365.9h-207.5c-3.1 0-5.6-2.6-5.6-5.6 0-3.1 2.6-5.6 5.6-5.6h207.5c3.1 0 5.6 2.6 5.6 5.6 0 3.1-2.5 5.6-5.6 5.6z" fill="none" stroke="#007bff" stroke-miterlimit="10" stroke-width="4"/><path d="m96.5 635.9v-169.2c0-6.3 4.2-11.5 9.4-11.5h81c5.2 0 9.4 5.2 9.4 11.5v169.3c0 6.3-4.2 11.5-9.4 11.5h-81c-5.2.1-9.4-5.2-9.4-11.6z" fill="#007bff" opacity=".12"/><path d="m188.6 660.7h-85.7c-10.2 0-18.4-8.2-18.4-18.4v-182c0-10.2 8.2-18.4 18.4-18.4h85.7c10.2 0 18.4 8.2 18.4 18.4v182c0 10.2-8.2 18.4-18.4 18.4z" fill="none" stroke="#007bff" stroke-miterlimit="10" stroke-width="4"/><path d="m263.8 281.2h213.2" fill="none" stroke="#007bff" stroke-linecap="round" stroke-miterlimit="10" stroke-width="4"/><path d="m207 551.3h362" fill="none" stroke="#007bff" stroke-linecap="round" stroke-miterlimit="10" stroke-width="4"/><path d="m858 358.3h275.6" fill="none" stroke="#007bff" stroke-linecap="round" stroke-miterlimit="10" stroke-width="4"/><path d="m589.3 49.2v35.3h-4.4v-35.3z" fill="#082e51"/><path d="m616 84.5v-14.9c0-4.6-2.1-6.9-6.3-6.9-4.4 0-7.4 3.9-7.4 8.3v13.5h-4.2v-24.9h4.1v2.7h1.1c1.4-1.9 4.2-3.3 7.5-3.3 6.1 0 9.5 3.8 9.5 9.7v15.8z" fill="#082e51"/><path d="m640 59.6v3.7h-6.3v13.7c0 2.5 1.1 3.8 4.4 3.8h1.8v3.8h-1.9c-5.4 0-8.6-1.7-8.6-7v-14.3h-4.3v-3.7h4.3v-7.5h4.2v7.5z" fill="#082e51"/><path d="m668.2 72h-19c.1 5.9 2.8 9.5 8 9.5 3.5 0 5.6-1.5 6.3-3.9h4.3c-.8 4.3-4.4 7.5-10.6 7.5-7.8 0-12.1-5.7-12.1-13.3s4.4-12.8 11.9-12.8c7.4 0 11 5.5 11.1 11.6v1.4zm-18.8-3.5h14.4c-.2-3.2-2.7-5.9-6.9-5.9-4.5 0-6.9 2.8-7.5 5.9z" fill="#082e51"/><path d="m688.9 63.6h-2.1c-4.9 0-8 3-8 8.5v12.5h-4.2v-25h4.1v3h1.1c1.2-1.5 3.6-3 7.2-3h1.9z" fill="#082e51"/><path d="m712.4 84.5v-14.9c0-4.6-2.1-6.9-6.3-6.9-4.4 0-7.4 3.9-7.4 8.3v13.5h-4.2v-24.9h4.1v2.7h1.1c1.4-1.9 4.2-3.3 7.5-3.3 6.1 0 9.5 3.8 9.5 9.7v15.8z" fill="#082e51"/><path d="m745.9 72h-19c.1 5.9 2.8 9.5 8 9.5 3.5 0 5.6-1.5 6.3-3.9h4.3c-.8 4.3-4.4 7.5-10.6 7.5-7.8 0-12.1-5.7-12.1-13.3s4.4-12.9 12-12.9c7.4 0 11 5.5 11.1 11.6zm-18.7-3.5h14.4c-.2-3.2-2.7-5.9-6.9-5.9-4.5 0-7 2.8-7.5 5.9z" fill="#082e51"/><path d="m764.5 59.6v3.7h-6.3v13.7c0 2.5 1.1 3.8 4.5 3.8h1.8v3.8h-1.9c-5.4 0-8.6-1.7-8.6-7v-14.3h-4.3v-3.7h4.3v-7.5h4.2v7.5z" fill="#082e51"/><path d="m1259.8 61.2 6.4 18.3h1.1l3.8-30.3h4.3l-4.4 35.3h-7.1l-6.6-18.9h-1.1l-6.6 18.9h-7.1l-4.4-35.3h4.4l3.8 30.3h1.1l6.4-18.3z" fill="#082e51"/><path d="m1302.9 72h-19c.1 5.9 2.8 9.5 8 9.5 3.5 0 5.6-1.5 6.3-3.9h4.3c-.8 4.3-4.4 7.5-10.6 7.5-7.8 0-12.1-5.7-12.1-13.3s4.4-12.9 12-12.9c7.4 0 11 5.5 11.1 11.6zm-18.8-3.5h14.4c-.2-3.2-2.7-5.9-6.9-5.9-4.5 0-6.9 2.8-7.5 5.9z" fill="#082e51"/><path d="m1333.2 72.1c0 7.4-4.1 13.1-10.9 13.1-4 0-6.4-1.6-7.8-3.3h-1.1v2.7h-4.1v-36h4.2v13.7h1.1c1.3-1.8 3.7-3.3 7.6-3.3 7 0 11 5.6 11 13.1zm-4.2 0c0-5.5-2.7-9.4-7.7-9.4-5.5 0-7.8 4.5-7.8 9.4s2.3 9.4 7.8 9.4c5 0 7.7-3.9 7.7-9.4z" fill="#082e51"/><path d="m951.6 326.5h-.8c-1.1 1.4-3.1 2.4-5.7 2.4-4.2 0-6.6-2.8-6.6-5.9 0-2.9 1.9-6.1 7-6.1h5.9v-.7c0-2.2-1.3-3.8-4.5-3.8-2.7 0-4.1 1.1-4.2 2.6h-3.1c.3-3.4 3.2-5.3 7.3-5.3 4.6 0 7.5 2.2 7.5 6.3v12.4h-2.9v-1.9zm-.1-5.5v-1.7h-5.5c-3 0-4.4 1.3-4.4 3.5 0 2.1 1.5 3.4 4.2 3.4 3.1 0 5.7-2.3 5.7-5.2z" fill="#082e51"/><path d="m975.6 322.9c-.7 3.6-3.4 6-7.7 6-5.7 0-8.9-4.2-8.9-9.6 0-5.5 3.2-9.6 8.9-9.6 4.4 0 7 2.4 7.6 5.8h-3.1c-.6-1.8-2-3.1-4.5-3.1-4.1 0-5.8 3.2-5.8 6.9s1.7 7 5.8 7c2.6 0 4.1-1.3 4.6-3.3h3.1z" fill="#082e51"/><path d="m995.7 322.9c-.7 3.6-3.4 6-7.7 6-5.7 0-8.9-4.2-8.9-9.6 0-5.5 3.2-9.6 8.9-9.6 4.4 0 7 2.4 7.6 5.8h-3.1c-.6-1.8-2-3.1-4.5-3.1-4.1 0-5.8 3.2-5.8 6.9s1.7 7 5.8 7c2.6 0 4.1-1.3 4.6-3.3h3.1z" fill="#082e51"/><path d="m1016.1 319.3h-13.9c.1 4.4 2.1 7 5.8 7 2.6 0 4.1-1.1 4.6-2.8h3.1c-.6 3.1-3.2 5.5-7.8 5.5-5.7 0-8.9-4.2-8.9-9.8s3.3-9.4 8.8-9.4c5.4 0 8 4 8.2 8.5v1zm-13.7-2.6h10.6c-.2-2.3-2-4.3-5-4.3-3.4 0-5.2 2-5.6 4.3z" fill="#082e51"/><path d="m1027.7 317.3 2.1.3c3.2.5 5.2 2.2 5.2 5.5 0 3-2.6 5.7-7.5 5.7-5.2 0-7.7-2.3-8.1-5.8h3.1c.3 2.1 2.1 3.1 4.9 3.1s4.6-1 4.6-3c0-1.6-1-2.5-3.3-2.9l-4.1-.7c-2.6-.5-4.4-1.8-4.4-4.6 0-3 2.3-5.4 7.2-5.4 4.3 0 6.8 2 7.2 5.2h-3.1c-.3-1.7-2-2.5-4.3-2.5-2.4 0-4 .9-4 2.4 0 1.4.9 2 2.8 2.2z" fill="#082e51"/><path d="m1046.4 317.3 2.1.3c3.2.5 5.2 2.2 5.2 5.5 0 3-2.6 5.7-7.5 5.7-5.2 0-7.7-2.3-8.1-5.8h3.1c.3 2.1 2.1 3.1 4.9 3.1s4.6-1 4.6-3c0-1.6-1-2.5-3.3-2.9l-4.1-.7c-2.6-.5-4.4-1.8-4.4-4.6 0-3 2.3-5.4 7.2-5.4 4.3 0 6.8 2 7.2 5.2h-3.1c-.3-1.7-2-2.5-4.3-2.5-2.4 0-4 .9-4 2.4 0 1.4.9 2 2.8 2.2z" fill="#082e51"/><path d="m118.7 49.2v22.7c0 8.4-4.8 13.2-13.9 13.2-9 0-13.9-4.9-13.9-13.2v-22.7h4.4v22.6c0 5.5 3.3 9.2 9.4 9.2 6.2 0 9.4-3.7 9.4-9.2v-22.6z" fill="#082e51"/><path d="m136.5 69.4 2.8.4c4.4.7 7.1 3 7.1 7.5 0 4.1-3.5 7.8-10.2 7.8-7.1 0-10.5-3.1-11.1-7.9h4.3c.4 2.8 2.9 4.2 6.6 4.2s6.2-1.3 6.2-4.1c0-2.2-1.4-3.4-4.5-3.9l-5.6-.9c-3.6-.6-6-2.5-6-6.3 0-4.2 3.1-7.4 9.8-7.4 5.9 0 9.3 2.8 9.8 7.1h-4.2c-.3-2.4-2.7-3.5-5.8-3.5-3.2 0-5.4 1.2-5.4 3.3 0 1.9 1.2 2.7 3.8 3.1z" fill="#082e51"/><path d="m174.2 72h-19c.1 5.9 2.8 9.5 8 9.5 3.5 0 5.6-1.5 6.3-3.9h4.3c-.8 4.3-4.4 7.5-10.6 7.5-7.8 0-12.1-5.7-12.1-13.3s4.4-12.9 12-12.9c7.4 0 11 5.5 11.1 11.6zm-18.7-3.5h14.4c-.2-3.2-2.7-5.9-6.9-5.9-4.5 0-7 2.8-7.5 5.9z" fill="#082e51"/><path d="m195 63.6h-2.1c-4.9 0-8 3-8 8.5v12.5h-4.2v-25h4.1v3h1.1c1.2-1.5 3.6-3 7.2-3h1.9z" fill="#082e51"/><path d="m209.8 69.4 2.8.4c4.4.7 7.1 3 7.1 7.5 0 4.1-3.5 7.8-10.2 7.8-7.1 0-10.5-3.1-11.1-7.9h4.3c.4 2.8 2.9 4.2 6.6 4.2s6.2-1.3 6.2-4.1c0-2.2-1.4-3.4-4.5-3.9l-5.6-.9c-3.6-.6-6-2.5-6-6.3 0-4.2 3.1-7.4 9.8-7.4 5.9 0 9.3 2.8 9.8 7.1h-4.2c-.3-2.4-2.7-3.5-5.8-3.5-3.2 0-5.4 1.2-5.4 3.3 0 1.9 1.2 2.7 3.8 3.1z" fill="#082e51"/><g stroke-miterlimit="10" stroke-width="4"><path d="m644.1 576.3h-54.2c-6.6 0-11.9-5.3-11.9-11.9v-119.8c0-6.6 5.3-11.9 11.9-11.9h54.2c6.6 0 11.9 5.3 11.9 11.9v119.9c0 6.5-5.3 11.8-11.9 11.8z" fill="#fff" stroke="#082e51" stroke-linecap="round" stroke-linejoin="round"/><path d="m578 463.2h78" fill="#fff" stroke="#082e51" stroke-linecap="round" stroke-linejoin="round"/><path d="m578 471.7h78" fill="#fff" stroke="#082e51" stroke-linecap="round" stroke-linejoin="round"/><path d="m578 492.4h78" fill="#fff" stroke="#082e51" stroke-linecap="round" stroke-linejoin="round"/><path d="m578 500.7h78" fill="#fff" stroke="#082e51" stroke-linecap="round" stroke-linejoin="round"/><path d="m578 521.7h78" fill="#fff" stroke="#082e51" stroke-linecap="round" stroke-linejoin="round"/><path d="m578 529h78" fill="#fff" stroke="#082e51" stroke-linecap="round" stroke-linejoin="round"/><path d="m578 550.9h78" fill="#fff" stroke="#082e51" stroke-linecap="round" stroke-linejoin="round"/><path d="m543.1 303.8h-54.2c-6.6 0-11.9-5.3-11.9-11.9v-119.9c0-6.6 5.3-11.9 11.9-11.9h54.2c6.6 0 11.9 5.3 11.9 11.9v119.9c0 6.6-5.3 11.9-11.9 11.9z" fill="#fff" stroke="#082e51" stroke-linecap="round" stroke-linejoin="round"/><path d="m477 190.7h78" fill="#fff" stroke="#082e51" stroke-linecap="round" stroke-linejoin="round"/><path d="m477 199.2h78" fill="#fff" stroke="#082e51" stroke-linecap="round" stroke-linejoin="round"/><path d="m477 219.9h78" fill="#fff" stroke="#082e51" stroke-linecap="round" stroke-linejoin="round"/><path d="m477 228.2h78" fill="#fff" stroke="#082e51" stroke-linecap="round" stroke-linejoin="round"/><path d="m477 249.2h78" fill="#fff" stroke="#082e51" stroke-linecap="round" stroke-linejoin="round"/><path d="m477 256.5h78" fill="#fff" stroke="#082e51" stroke-linecap="round" stroke-linejoin="round"/><path d="m477 278.4h78" fill="#fff" stroke="#082e51" stroke-linecap="round" stroke-linejoin="round"/><path d="m846.1 447.5h-54.2c-6.6 0-11.9-5.3-11.9-11.9v-119.9c0-6.6 5.3-11.9 11.9-11.9h54.2c6.6 0 11.9 5.3 11.9 11.9v119.9c0 6.6-5.4 11.9-11.9 11.9z" fill="#fff" stroke="#082e51" stroke-linecap="round" stroke-linejoin="round"/><path d="m780 334.4h78" fill="#fff" stroke="#082e51" stroke-linecap="round" stroke-linejoin="round"/><path d="m780 342.8h78" fill="#fff" stroke="#082e51" stroke-linecap="round" stroke-linejoin="round"/><path d="m780 363.6h78" fill="#fff" stroke="#082e51" stroke-linecap="round" stroke-linejoin="round"/><path d="m780 371.8h78" fill="#fff" stroke="#082e51" stroke-linecap="round" stroke-linejoin="round"/><path d="m780 392.8h78" fill="#fff" stroke="#082e51" stroke-linecap="round" stroke-linejoin="round"/><path d="m780 400.2h78" fill="#fff" stroke="#082e51" stroke-linecap="round" stroke-linejoin="round"/><path d="m780 422.1h78" fill="#fff" stroke="#082e51" stroke-linecap="round" stroke-linejoin="round"/><path d="m565 261.3 205 120" fill="none" stroke="#007bff" stroke-linecap="round"/><path d="m770 427.3-101.5 118" fill="none" stroke="#007bff" stroke-linecap="round"/><path d="m516 313.3 53 200" fill="none" stroke="#007bff" stroke-linecap="round"/><path d="m137.8 466.8h15.7" fill="none" stroke="#007bff" stroke-linecap="round" stroke-linejoin="round"/></g><path d="m1351.8 316.7c-.6 0-1.2 0-1.6 0-.6 0-1.1-.3-1.5-.7s-.5-1-.4-1.6l.7-3.9c.2-.9.9-1.6 1.8-1.7h2.2c4.5 0 7.3-.3 8.3-.8.4-2.3.3-11.5 0-14-1.5-2.8-17.5-22.9-22.6-27.5h-11.6c-1.1 0-2-.9-2-2v-5.8c0-1.1.9-2 2-2h41.5c1 0 1.7.7 1.9 1.6.2.3.2.7.2 1.1l-.1.8v4.2c0 1.1-.9 2-2 2h-8.7c3.1 4.3 6.6 8.8 9.5 12.6 1.5 1.9 2.8 3.7 3.9 5.1l11.2-10.2h-4.8c-.9 0-1.7-.6-1.9-1.5l-1.4-5.8c-.1-.6 0-1.2.4-1.7s1-.8 1.6-.8h36.4c.7 0 1.4.4 1.8 1 .3.6.3 1.2.1 1.8-.1.3-.2.5-.3.7l-2.6 3.8c-.1.1-.2.2-.3.3l-.8 1.2c-.4.6-1 .9-1.7.9h-6.5l-.5.1c-.5.1-1 .2-1.4.3-2.7 1.1-21.5 16-23.1 19.4-.2 1.5 0 10.4.2 14.3h4.6c3.7 0 6 0 7 .2s1.7 1.1 1.7 2.1l-.2 4.1c0 .5-.3 1-.7 1.4-.4.3-.8.5-1.3.5-.1 0-.1 0-.2 0-1.3-.1-9.9-.1-13.1-.1h-8.4c-1.4 0-4.3.1-7.2.1-3.4.4-7.5.5-10.1.5zm61.2 0-3-.2-2.8-.2c-1-.1-1.8-.9-1.8-2v-6.1c0-.6.2-1.1.7-1.5.4-.3.8-.5 1.3-.5h.2l3.5.4 3.1.2c.6 0 1.1.3 1.4.7.4.4.5 1 .4 1.6l-.9 6c-.1 1-1 1.7-2 1.7 0-.1 0-.1-.1-.1zm.7-10.2-5.6-.5c-1-.1-1.8-.9-1.8-2l-.2-26c0-.6.3-1.2.7-1.6.4-.3.8-.5 1.3-.5h.4c1.1.2 10.9 1.2 11.9 1.2.6 0 1.2.3 1.5.8s.5 1.1.3 1.7l-6.5 25.2c-.2.9-1 1.5-1.9 1.5 0 .2-.1.2-.1.2z" fill="#fff"/><path d="m1368.7 258.8v.4h.1l-.1 1v4.4h-12.5c5.6 8.2 13.6 18 17 22.7l16.7-15.2h-9.9l-1.4-5.8h36.4l-.3.4h.1l-2.6 3.8h-.1l-1 1.6h-6.7c-.9.2-1.6.4-2.2.5-2.3.6-23.1 16.8-24.5 20.8-.3 1.4 0 14.7.3 16.7 1.4.3 11.3 0 13.1.3l-.2 4.1c-1.2-.1-7.3-.1-13.3-.1-3 0-5.9 0-8.3 0-3.2 0-12.8.3-17.5.3-.6 0-1.1 0-1.6 0l.7-3.9c2-.1 10.2.4 12-1.6.9-1 .6-13.6.3-15.7-.8-2.3-19-25.2-23.8-29h-12.3v-5.8h41.6m39.4 19.4c1.3.3 11.1 1.2 12.2 1.2l-6.5 25.2-5.6-.5zm-.8 30 3.6.4 3.2.2-.9 6-3-.2-2.8-.2zm-38.6-53.3h-41.5c-2.2 0-4 1.8-4 4v5.8c0 2.2 1.8 4 4 4h10.8c5.1 4.9 19.1 22.3 21.4 26.1.2 2.3.3 8.7.1 11.7-1.9.3-5.2.3-6.4.3-1 0-1.7 0-2.3 0-1.8.1-3.3 1.5-3.6 3.3l-.7 3.9c-.2 1.1.1 2.3.8 3.2s1.8 1.4 3 1.5h1.7c2.6 0 6.7-.1 10.3-.2 3-.1 5.8-.1 7.2-.1h3.7 4.6c7.8 0 12.2 0 13 .1h.3c1 0 1.9-.4 2.6-1 .8-.7 1.3-1.7 1.4-2.8l.2-4.1c.1-2-1.3-3.8-3.3-4.2-1.1-.2-3.1-.2-7.3-.2-.8 0-1.8 0-2.7 0-.2-3.8-.3-9.6-.2-11.6.8-1.1 3.8-4.2 10.5-9.7 5.3-4.3 10-7.7 11.4-8.5.3-.1.7-.1 1.1-.2-.3.6-.5 1.2-.5 1.9l.2 26c0 .4.1.8.2 1.2-.7.8-1.2 1.8-1.2 2.8v6.1c0 2.1 1.6 3.8 3.7 4l2.8.2 3.1.2h.3c2 0 3.7-1.4 4-3.4l.9-6c.2-1-.1-2.1-.7-2.9.1-.3.3-.6.3-.9l6.5-25.2c.3-1.2.1-2.4-.7-3.4-.7-1-1.8-1.6-3.1-1.6-.5 0-3.5-.3-6.4-.6.1-.1.2-.2.3-.3l.7-1c.1-.2.3-.3.4-.5l2.6-3.8c.3-.4.4-.8.6-1.2.4-1.1.4-2.3-.2-3.4-.7-1.3-2-2.1-3.5-2.1h-36.4c-1.2 0-2.4.6-3.1 1.5-.8 1-1 2.2-.7 3.4l1.4 5.8c.4 1.7 1.8 2.9 3.5 3l-5.8 5.3c-.8-1.1-1.7-2.2-2.6-3.4-2.2-2.9-4.7-6.1-7.2-9.4h4.7c2.2 0 4-1.8 4-4v-4.1l.1-.7c.1-.7 0-1.4-.3-2.1-.7-1.5-2.2-2.7-4-2.7z" fill="#082e51"/><path d="m1277 256.8c0-7.9-7.1-15-15-15h-60c-7.9 0-15 7.1-15 15v60c0 7.9 7.1 15 15 15h30v-34h-11v-15h11v-5.8c0-10.1 7.6-19.2 16.9-19.2h12.1v15h-12.1c-1.3 0-2.9 1.6-2.9 4v6h15v15h-15v34h16c7.9 0 15-7.1 15-15z" style="fill:#fff;stroke:#082e51;stroke-width:4;stroke-linecap:round;stroke-linejoin:round;stroke-miterlimit:10"/><path d="m1197.5 506.6c-2.4 0-4.7-.4-6.8-1.2-2.2-.8-4-1.9-5.6-3.3s-3-3.1-3.9-5c-1-1.9-1.5-4.1-1.5-6.4v-31.8c0-2.2.5-4.3 1.5-6.3 1-1.9 2.3-3.6 3.9-5.1 1.6-1.4 3.5-2.5 5.6-3.3s4.4-1.3 6.8-1.3h65c2.4 0 4.7.4 6.9 1.3 2.1.8 4 1.9 5.6 3.3s3 3.1 3.9 5.1c1 2 1.5 4.1 1.5 6.3v31.8c0 2.3-.5 4.4-1.5 6.4-.9 1.9-2.3 3.6-3.9 5s-3.5 2.5-5.6 3.3-4.5 1.2-6.9 1.2zm63-40.6c-.4 0-.9 0-1.4.1-1.1.2-2 .5-2.7 1-1 .7-1.7 1.5-2.1 2.7-.5 1.2-.7 3.1-.7 5.5v8.9c0 3.1.8 5.3 2.2 6.5 1.5 1.2 3 1.8 4.5 1.8h.5c1.7-.1 3.3-.9 4.6-2.3.9-.9 1.4-2.1 1.4-3.6 0-.1 0-.2 0-.4h-1.3v1.2c0 1.4-.6 2.6-1.6 3.4-.9.7-2 1.1-3.2 1.1h-1c-1.3 0-2.3-.4-3.2-1.1-1-.8-1.5-2-1.5-3.3v-6.9c0-1.1.9-2 2-2h9.5v-2c0-1.5 0-2.9-.1-4.2 0-1.3-.1-2.2-.3-2.8 0-.1 0-.1 0-.2-.1-.8-.5-1.4-1-1.9-.8-.6-1.6-1-2.6-1.2-.7-.2-1.4-.3-2-.3zm-49.8 17.4c0 1.3 0 2.5-.1 3.6s0 1.4 0 1.6v.2l.3 2.5c0 .2.1.4.5.7s1 .4 1.6.4c.8 0 1.6-.1 2.4-.4.3-.1.6-.2.9-.4-.9-.2-2.1-.8-2.9-2.9-.3-.6-.3-1.3-.2-2.3 0-.6.1-1.5.1-2.8l-.1-16h-2.7zm28.7 8.1c.8.4 1.4.7 1.8.8.3.1.7.1 1 .1.5 0 .8-.1 1.1-.3.6-.4 1.1-1 1.5-2 .5-1.1.7-2.5.7-4v-14.8c0-2.8-1.2-3.8-2-4.4-.3-.2-.8-.3-1.3-.3-.2 0-.4 0-.7.1.4.2.9.4 1.3.7 1.4 1.1 1.7 2.3 1.7 3.1v16.8c0 .9-.3 2.1-1.7 3.1-1 .8-2.1 1.1-3.4 1.1.1 0 .1 0 0 0zm-39.5.8v-31.5c0-1.1.9-2 2-2h6v-1.1h-17.5v.9h4.9c1.1 0 2 .9 2 2v31.7zm24.1-.1v-24.5h-2.7v15.9c0 1.1 0 2.2.1 2.8 0 .4.1 1.4-.4 2.2h.1c.9.2 1.5 1.1 1.5 2l-.1 1.5zm8-.3h1.8l.1-.8c.1-.7.6-1.3 1.3-1.5-.6-.8-.8-1.6-.8-2.2v-16.8c0-.6.2-1.4.8-2.2-.4-.4-.6-.9-.6-1.5v-9.2h-2.7v34.2zm25-14.2c-.5 0-1.1-.2-1.4-.6s-.6-.9-.6-1.5l.1-3.5c0-1.2.5-2.4 1.5-3.3s2.1-1.3 3.4-1.3h.3c1.3 0 2.5.4 3.4 1.2 1.1.9 1.7 2.1 1.7 3.5l-.2 3.6c0 1.1-.9 1.9-2 1.9zm-28.1-36.6c-1.8 0-3.5-.3-5-.8-1.6-.5-2.9-1.5-3.7-2.9-.7-1-1.3-2.2-1.7-3.8v-.1c-.3-1.5-.5-3.6-.5-6.4v-7.8c0-2.8.3-5.2.8-7.1v-.1c.7-2.2 2-3.9 3.6-4.9 1.6-1.2 3.7-1.8 6.1-1.8 2 0 3.8.3 5.3 1 1.6.6 2.9 1.8 3.9 3.3.7 1.1 1.2 2.2 1.6 3.6.3 1.4.5 3.2.5 5.4v7.6c0 2.8-.2 4.9-.5 6.3-.2 1.4-.8 2.9-1.8 4.5-1.1 1.6-2.4 2.6-3.7 3.1-1.5.6-3.1.9-4.9.9zm0-26.9c-.2 0-.4 0-.6.3-.2.2-.3.5-.3.8v15.7c0 .2 0 .4.3.7.2.2.4.3.7.3.2 0 .4 0 .7-.3.2-.2.3-.4.3-.7v-15.7c0-.3-.1-.6-.3-.8-.5-.2-.7-.3-.8-.3zm-23.8 26.8c-1.1 0-2-.9-2-2v-22.2l-8.7-19.1c-.3-.6-.2-1.3.1-1.9.4-.6 1-.9 1.7-.9h7.8c.9 0 1.7.6 1.9 1.4l2.5 8.3 2.5-8.3c.3-.8 1-1.4 1.9-1.4h7.7c.7 0 1.3.3 1.7.9s.4 1.3.2 1.9l-8.2 19.1v22.2c0 1.1-.9 2-2 2zm41.9-.3c-1.5 0-2.8-.4-3.9-1.1-.9-.6-1.7-1.5-2.3-2.7 0-.1-.1-.1-.1-.2-.3-.6-.4-1.2-.5-1.8 0-.3-.1-.6-.2-.9 0-.1 0-.1 0-.2-.1-.6-.2-1.4-.2-2.3v-23.1c0-1.1.9-2 2-2h6.2c1.1 0 2 .9 2 2v23s0 .1.1.1h.3c.2 0 .3-.1.4-.1.1-.1.1-.1.1-.1v-23c0-1.1.9-2 2-2h5.8c1.1 0 2 .9 2 2v29.5c0 1.1-.9 2-2 2h-7.4c-.4 0-.7-.1-1-.3-1 .9-2.1 1.2-3.3 1.2z" fill="#fff"/><path d="m1220.5 396.8-8.3 19.5v22.7h-7.1v-22.7l-8.9-19.5h7.8l4.4 14.6 4.4-14.6zm8 10.6c1.8 0 3.3.3 4.5.9 1.2.5 2.2 1.3 3 2.5.6.9 1 1.9 1.3 3 .3 1.2.4 2.8.4 4.9v7.6c0 2.8-.2 4.7-.4 6-.1 1.1-.6 2.3-1.5 3.7-.9 1.2-1.8 2-2.8 2.4-1.2.6-2.6.9-4.1.9-1.6 0-3-.2-4.3-.7-1.2-.4-2.1-1.1-2.7-2.1-.6-.8-1.1-1.9-1.5-3.3-.3-1.3-.4-3.3-.4-5.9v-7.8c0-2.7.3-4.9.7-6.6.6-1.8 1.5-3.1 2.8-3.9 1.3-1.1 3-1.6 5-1.6m.4 26.6c.8 0 1.5-.3 2.1-.9s.9-1.3.9-2.1v-15.7c0-.9-.3-1.6-.9-2.2s-1.3-.9-2.1-.9-1.5.3-2.1.9-.9 1.3-.9 2.2v15.7c0 .8.3 1.5.9 2.1.5.6 1.2.9 2.1.9m29.9-25.5v29.5h-7.4l.1-2.4c-.7 1-1.3 1.7-2 2.2-.8.5-1.6.7-2.5.7-1.1 0-2-.2-2.8-.7-.6-.4-1.2-1.1-1.7-2-.2-.4-.3-.8-.4-1.2s-.1-.8-.2-1.2c-.1-.5-.1-1.1-.1-2v-3.2-19.9h6.2v23c0 .6.2 1.1.6 1.5.5.4 1 .7 1.7.7s1.3-.2 1.7-.7c.5-.4.7-.9.7-1.5v-23h6.1m3.7 36.7c2.2 0 4.2.4 6.1 1.1s3.6 1.7 5.1 3c1.5 1.2 2.6 2.7 3.4 4.4s1.3 3.5 1.3 5.4v31.8c0 2-.4 3.8-1.3 5.5-.8 1.7-2 3.1-3.4 4.4-1.5 1.3-3.1 2.2-5 3-1.9.7-4 1.1-6.2 1.1h-65c-2.2 0-4.2-.4-6.1-1.1s-3.6-1.7-5-3-2.6-2.7-3.5-4.4c-.8-1.7-1.3-3.5-1.3-5.5v-31.8c0-1.9.4-3.7 1.3-5.4.8-1.7 2-3.2 3.5-4.4 1.4-1.2 3.1-2.2 5-3 1.9-.7 3.9-1.1 6.1-1.1zm-32.5 49 5.5-.1.4-2.4c1.8 1.5 3.4 2.4 4.8 2.8.5.1 1 .2 1.4.2.8 0 1.5-.2 2.2-.6 1-.6 1.8-1.6 2.3-3s.8-3 .8-4.7v-14.8c0-2.8-1-4.9-3-6.1-.7-.4-1.5-.6-2.3-.6-1.6 0-3.4.7-5.5 2.2v-11.2h-6.7v38.3m-41.6-33.4h6.9v33.7h6.6v-33.5h8v-5.1h-21.5zm72 33.9h.6c2.3-.1 4.3-1.1 6-2.9 1.3-1.3 2-3 2-5.1-.1-.7-.2-1.4-.3-2.3h-5v.7 2.5c0 .8-.3 1.4-.8 1.8-.6.4-1.2.6-2 .6h-1c-.8 0-1.4-.2-1.9-.6s-.8-1-.8-1.8v-.3-2.8-3.8h11.5v-4c0-1.5 0-2.9-.1-4.3 0-1.4-.2-2.5-.4-3.2-.2-1.3-.8-2.4-1.8-3.2s-2.1-1.3-3.5-1.6c-.8-.2-1.6-.3-2.4-.3-.5 0-1.1 0-1.7.1-1.4.2-2.6.6-3.6 1.4-1.3.9-2.2 2.1-2.8 3.6s-.9 3.6-.9 6.2v8.9c0 3.8 1 6.4 3 8 1.9 1.7 3.9 2.4 5.9 2.4m-43.4-4.8c-.7 0-1.2-.5-1.6-1.7-.1-.2-.1-.7-.1-1.4 0-.8.1-1.7.1-2.9l-.1-18h-6.7l.2 17.7c0 1.4 0 2.6-.1 3.5 0 .9 0 1.7.1 2.1.1.8.2 1.6.3 2.5s.5 1.6 1.4 2.1c.8.5 1.7.7 2.7.7 1.1 0 2.1-.2 3.1-.5s1.9-.8 2.7-1.4 1.5-1.3 1.8-1.9l-.1 3.5 5.5.1v-28.6h-6.7v17.9c0 1.3 0 2.3.1 3 0 .7-.1 1.2-.3 1.3-.2.8-.8 1.3-1.7 1.7-.2.3-.4.3-.6.3m22.6-21.4c.8 0 1.4.2 2.1.7.6.5.9 1 .9 1.5v16.8c0 .6-.3 1.1-.9 1.5s-1.3.7-2.1.7-1.5-.2-2.1-.7c-.6-.4-.9-.9-.9-1.5v-16.8c0-.6.3-1.1.9-1.5.7-.5 1.3-.7 2.1-.7m20.9 1.2c.9 0 1.6.2 2.2.7s.9 1.1.9 2l-.2 3.5h-6.4l.1-3.5c0-.8.3-1.4.9-1.9s1.3-.8 2.1-.8zm-39.9-76.7h-7.7c-1.8 0-3.3 1.2-3.8 2.8l-.6 2-.6-2c-.5-1.7-2.1-2.8-3.8-2.8h-7.8c-1.4 0-2.6.7-3.4 1.8s-.8 2.6-.3 3.8l8.5 18.7v21.9c0 .8.2 1.5.6 2.1h-4.2c-2.6 0-5.2.5-7.6 1.4-2.3.9-4.4 2.1-6.2 3.7-1.9 1.6-3.4 3.5-4.4 5.7-1.1 2.2-1.7 4.7-1.7 7.2v31.8c0 2.6.6 5 1.7 7.3 1.1 2.1 2.6 4 4.4 5.6 1.8 1.5 3.9 2.8 6.2 3.7 2.4.9 4.9 1.3 7.5 1.3h65c2.7 0 5.2-.5 7.6-1.3 2.4-.9 4.5-2.1 6.2-3.7 1.8-1.6 3.3-3.5 4.4-5.6 1.1-2.2 1.7-4.6 1.7-7.3v-31.8c0-2.5-.6-4.9-1.7-7.2-1.1-2.2-2.6-4.1-4.5-5.7-1.8-1.5-3.9-2.8-6.2-3.6-2.4-.9-4.9-1.4-7.6-1.4h-1c.8-.7 1.3-1.8 1.3-3v-29.5c0-2.2-1.8-4-4-4h-5.8c-.9 0-1.8.3-2.4.8-.7-.5-1.5-.8-2.4-.8h-6.2c-1.7 0-3.1 1.1-3.7 2.6-1-1.1-2.2-1.9-3.6-2.5-1.7-.8-3.8-1.2-6.1-1.2-2.8 0-5.2.7-7.2 2.1-.1 0-.1.1-.2.1l3-7.1c.2-.5.4-1.1.4-1.7.2-2.4-1.6-4.2-3.8-4.2zm-4.9 48.2c.4-.6.6-1.3.6-2.1v-6.8c.1.6.2 1.2.3 1.7 0 .1 0 .2.1.2.5 1.8 1.1 3.2 2 4.4.6 1 1.5 1.9 2.5 2.6zm20.6 0c1-.7 2-1.7 2.9-2.9 0-.1.1-.1.1-.2.7 1.3 1.6 2.3 2.6 3h-5.6z" fill="#082e51"/><path d="m1397.7 422.3c-.5-.6-1.3-.7-2-.4l-55.7 24.4c-.6.3-1 .9-1 1.6s.4 1.3 1 1.6l13.3 6.5 3.3 19.9c.1.8.7 1.4 1.5 1.5.6.1 1.1-.1 1.5-.5l10.5-10.5 15 10.7c.5.3 1.1.4 1.6.2s.9-.7 1.1-1.3l10.4-52.2c0-.5-.1-1-.5-1.5zm-43.1 30.5-9.8-4.8 38.7-17zm5.4 5.2-1.6 8.1-1.7-10.4 21.3-16-17.4 17.5c-.4.1-.5.4-.6.8zm1.1 12.4 1.8-9.1 4.2 3zm23.7 2.3-20.4-14.6 29.2-29.3z" fill="#082e51"/><circle cx="1371.7" cy="450.7" r="46.1" style="fill:none;stroke:#082e51;stroke-width:4;stroke-linecap:round;stroke-linejoin:round;stroke-miterlimit:10"/></svg>