<?xml version="1.0" encoding="utf-8"?>
<!-- Generator: Adobe Illustrator 20.1.0, SVG Export Plug-In . SVG Version: 6.00 Build 0)  -->
<svg version="1.1" id="Layer_1" xmlns="http://www.w3.org/2000/svg" xmlns:xlink="http://www.w3.org/1999/xlink" x="0px" y="0px"
	 viewBox="0 0 1474 706.3" style="enable-background:new 0 0 1474 706.3;" xml:space="preserve">
<style type="text/css">
	.st0{opacity:0.12;fill:#007BFF;enable-background:new    ;}
	.st1{opacity:0.12;fill:none;stroke:#007BFF;stroke-width:4;stroke-miterlimit:10;enable-background:new    ;}
	.st2{fill:none;stroke:#007BFF;stroke-width:4;stroke-linecap:round;stroke-linejoin:round;stroke-miterlimit:10;}
	.st3{fill:none;stroke:#007BFF;stroke-width:4;stroke-miterlimit:10;}
	.st4{fill:none;stroke:#007BFF;stroke-width:4;stroke-linecap:round;stroke-miterlimit:10;}
	.st5{fill:#082E51;}
	.st6{fill:#FFFFFF;stroke:#082E51;stroke-width:4;stroke-linecap:round;stroke-linejoin:round;stroke-miterlimit:10;}
	.st7{fill:#FFFFFF;}
	.st8{fill:none;stroke:#082E51;stroke-width:4;stroke-linecap:round;stroke-linejoin:round;stroke-miterlimit:10;}
</style>
<g>
	<path class="st0" d="M526.7,571.1c-76.4-57.3-108.7-156.3-80.8-247.7l6.7,20.2c0.6,1.7,1.7,3.2,3.2,4.2l40.4,26.9l-9.2,9.2
		c-1.5,1.5-2.4,3.6-2.4,5.7V414c0,1.3,0.3,2.5,0.9,3.6l16.2,32.4c1.1,2.2,3.2,3.8,5.7,4.3l34,6.8v74.4c0,1,0.2,2,0.6,3l16.2,40.5
		c0.9,2.2,2.7,3.9,5,4.7l24.3,8.1c0.8,0.3,1.7,0.4,2.5,0.4c4.5,0,8.1-3.6,8.1-8.1v-36.5l29.2-21.9c2-1.5,3.2-3.9,3.2-6.5v-21l30-30
		c1.1-1.1,1.9-2.6,2.2-4.1l8.1-40.5c0.9-4.4-2-8.7-6.4-9.5c-0.5-0.1-1.1-0.2-1.6-0.2h-27.8l-21.9-36.6c-1.5-2.4-4.1-3.9-6.9-3.9
		h-51.7l-13.9-27.9c-1.2-2.3-3.4-4-6-4.4c-2.6-0.4-5.2,0.4-7,2.3L517,353.9v-12.9c0-2.1-0.9-4.2-2.4-5.7l-13.8-13.8v-13.9l49.8-7.1
		c1.1-0.2,2.1-0.5,3-1.1l40.5-24.3c1.1-0.7,2.1-1.6,2.8-2.8l22.8-37.9l21.5-7.2c2.4-0.8,4.3-2.7,5.1-5.1l8.1-24.3
		c1.4-4.2-0.9-8.8-5.2-10.2c-0.4-0.1-0.8-0.2-1.2-0.3l-46.9-7.8l-9.2-6.1c51-16.6,105.5-15.5,157.7,6l-15.8,7.8h-30.5
		c-3.1,0-5.9,1.7-7.3,4.5L679.9,224c-2,4-0.4,8.9,3.6,10.9c0.3,0.2,0.7,0.3,1.1,0.4l24.3,8.1c1.5,0.5,3,0.6,4.5,0.2l30.1-7.5
		l22.1,7.3c0.3,0.1,0.6,0.2,1,0.3l40.5,8.1c2.1,0.4,4.3,0,6.1-1.2l18.4-12.3c9.1,10.1,17.2,21,24.4,32.6l-39.9,13.3l-43.2-7.2
		l-14.3-21.4c-1.5-2.2-4-3.6-6.7-3.6h-48.6c-2.1,0-4.2,0.9-5.7,2.4l-24.3,24.3c-1.8,1.8-2.7,4.4-2.3,6.9l8.1,56.7
		c0.4,2.8,2.3,5.2,4.9,6.3l56.7,24.3c1.6,0.7,3.4,0.8,5.2,0.4l28.9-7.2l17.7,11.8v28.1c0,1.3,0.3,2.5,0.8,3.6l31.6,63.1v30.5
		c0,2.1,0.9,4.2,2.4,5.7l17,17C769.1,626,626.9,646.3,526.7,571.1z"/>
	<circle class="st1" cx="662.8" cy="389.4" r="229.2"/>
</g>
<g>
	<path class="st2" d="M44.7,331.9V226.5c0-10.8,8.9-19.7,19.7-19.7h179.3c10.8,0,19.7,8.9,19.7,19.7v105.4"/>
	<path class="st0" d="M238.7,342.5H69.4c-6.3,0-11.5-5.2-11.5-11.5v-99.4c0-6.3,5.2-11.5,11.5-11.5h169.3c6.3,0,11.5,5.2,11.5,11.5
		v99.4C250.3,337.3,245.1,342.5,238.7,342.5z"/>
	<path class="st3" d="M258.2,365.9H50.7c-3.1,0-5.6-2.6-5.6-5.6l0,0c0-3.1,2.6-5.6,5.6-5.6h207.5c3.1,0,5.6,2.6,5.6,5.6l0,0
		C263.8,363.4,261.3,365.9,258.2,365.9z"/>
</g>
<g>
	<path class="st0" d="M96.5,635.9V466.7c0-6.3,4.2-11.5,9.4-11.5h81c5.2,0,9.4,5.2,9.4,11.5v169.3c0,6.3-4.2,11.5-9.4,11.5h-81
		C100.7,647.6,96.5,642.3,96.5,635.9z"/>
	<path class="st3" d="M188.6,660.7h-85.7c-10.2,0-18.4-8.2-18.4-18.4v-182c0-10.2,8.2-18.4,18.4-18.4h85.7
		c10.2,0,18.4,8.2,18.4,18.4v182C207,652.5,198.8,660.7,188.6,660.7z"/>
</g>
<line class="st4" x1="263.8" y1="281.2" x2="477" y2="281.2"/>
<line class="st4" x1="207" y1="551.3" x2="569" y2="551.3"/>
<line class="st4" x1="858" y1="358.3" x2="1133.6" y2="358.3"/>
<g>
	<g>
		<path class="st5" d="M589.3,49.2v35.3h-4.4V49.2H589.3z"/>
		<path class="st5" d="M616,84.5V69.6c0-4.6-2.1-6.9-6.3-6.9c-4.4,0-7.4,3.9-7.4,8.3v13.5h-4.2V59.6h4.1v2.7h1.1
			c1.4-1.9,4.2-3.3,7.5-3.3c6.1,0,9.5,3.8,9.5,9.7v15.8H616z"/>
		<path class="st5" d="M640,59.6v3.7h-6.3V77c0,2.5,1.1,3.8,4.4,3.8h1.8v3.8h-1.9c-5.4,0-8.6-1.7-8.6-7V63.3h-4.3v-3.7h4.3v-7.5h4.2
			v7.5H640z"/>
		<path class="st5" d="M668.2,72h-19c0.1,5.9,2.8,9.5,8,9.5c3.5,0,5.6-1.5,6.3-3.9h4.3c-0.8,4.3-4.4,7.5-10.6,7.5
			c-7.8,0-12.1-5.7-12.1-13.3S649.5,59,657,59c7.4,0,11,5.5,11.1,11.6V72z M649.4,68.5h14.4c-0.2-3.2-2.7-5.9-6.9-5.9
			C652.4,62.6,650,65.4,649.4,68.5z"/>
		<path class="st5" d="M688.9,63.6h-2.1c-4.9,0-8,3-8,8.5v12.5h-4.2V59.6h4.1v3h1.1c1.2-1.5,3.6-3,7.2-3h1.9V63.6z"/>
		<path class="st5" d="M712.4,84.5V69.6c0-4.6-2.1-6.9-6.3-6.9c-4.4,0-7.4,3.9-7.4,8.3v13.5h-4.2V59.6h4.1v2.7h1.1
			c1.4-1.9,4.2-3.3,7.5-3.3c6.1,0,9.5,3.8,9.5,9.7v15.8H712.4z"/>
		<path class="st5" d="M745.9,72h-19c0.1,5.9,2.8,9.5,8,9.5c3.5,0,5.6-1.5,6.3-3.9h4.3c-0.8,4.3-4.4,7.5-10.6,7.5
			c-7.8,0-12.1-5.7-12.1-13.3s4.4-12.9,12-12.9c7.4,0,11,5.5,11.1,11.6V72z M727.2,68.5h14.4c-0.2-3.2-2.7-5.9-6.9-5.9
			C730.2,62.6,727.7,65.4,727.2,68.5z"/>
		<path class="st5" d="M764.5,59.6v3.7h-6.3V77c0,2.5,1.1,3.8,4.5,3.8h1.8v3.8h-1.9c-5.4,0-8.6-1.7-8.6-7V63.3h-4.3v-3.7h4.3v-7.5
			h4.2v7.5H764.5z"/>
	</g>
</g>
<g>
	<g>
		<path class="st5" d="M1259.8,61.2l6.4,18.3h1.1l3.8-30.3h4.3l-4.4,35.3h-7.1l-6.6-18.9h-1.1l-6.6,18.9h-7.1l-4.4-35.3h4.4
			l3.8,30.3h1.1l6.4-18.3H1259.8z"/>
		<path class="st5" d="M1302.9,72h-19c0.1,5.9,2.8,9.5,8,9.5c3.5,0,5.6-1.5,6.3-3.9h4.3c-0.8,4.3-4.4,7.5-10.6,7.5
			c-7.8,0-12.1-5.7-12.1-13.3s4.4-12.9,12-12.9c7.4,0,11,5.5,11.1,11.6V72z M1284.1,68.5h14.4c-0.2-3.2-2.7-5.9-6.9-5.9
			C1287.1,62.6,1284.7,65.4,1284.1,68.5z"/>
		<path class="st5" d="M1333.2,72.1c0,7.4-4.1,13.1-10.9,13.1c-4,0-6.4-1.6-7.8-3.3h-1.1v2.7h-4.1V48.6h4.2v13.7h1.1
			c1.3-1.8,3.7-3.3,7.6-3.3C1329.2,59,1333.2,64.6,1333.2,72.1z M1329,72.1c0-5.5-2.7-9.4-7.7-9.4c-5.5,0-7.8,4.5-7.8,9.4
			s2.3,9.4,7.8,9.4C1326.3,81.5,1329,77.6,1329,72.1z"/>
	</g>
</g>
<g>
	<g>
		<path class="st5" d="M951.6,326.5h-0.8c-1.1,1.4-3.1,2.4-5.7,2.4c-4.2,0-6.6-2.8-6.6-5.9c0-2.9,1.9-6.1,7-6.1h5.9v-0.7
			c0-2.2-1.3-3.8-4.5-3.8c-2.7,0-4.1,1.1-4.2,2.6h-3.1c0.3-3.4,3.2-5.3,7.3-5.3c4.6,0,7.5,2.2,7.5,6.3v12.4h-2.9V326.5z M951.5,321
			v-1.7H946c-3,0-4.4,1.3-4.4,3.5c0,2.1,1.5,3.4,4.2,3.4C948.9,326.2,951.5,323.9,951.5,321z"/>
		<path class="st5" d="M975.6,322.9c-0.7,3.6-3.4,6-7.7,6c-5.7,0-8.9-4.2-8.9-9.6c0-5.5,3.2-9.6,8.9-9.6c4.4,0,7,2.4,7.6,5.8h-3.1
			c-0.6-1.8-2-3.1-4.5-3.1c-4.1,0-5.8,3.2-5.8,6.9c0,3.7,1.7,7,5.8,7c2.6,0,4.1-1.3,4.6-3.3H975.6z"/>
		<path class="st5" d="M995.7,322.9c-0.7,3.6-3.4,6-7.7,6c-5.7,0-8.9-4.2-8.9-9.6c0-5.5,3.2-9.6,8.9-9.6c4.4,0,7,2.4,7.6,5.8h-3.1
			c-0.6-1.8-2-3.1-4.5-3.1c-4.1,0-5.8,3.2-5.8,6.9c0,3.7,1.7,7,5.8,7c2.6,0,4.1-1.3,4.6-3.3H995.7z"/>
		<path class="st5" d="M1016.1,319.3h-13.9c0.1,4.4,2.1,7,5.8,7c2.6,0,4.1-1.1,4.6-2.8h3.1c-0.6,3.1-3.2,5.5-7.8,5.5
			c-5.7,0-8.9-4.2-8.9-9.8c0-5.6,3.3-9.4,8.8-9.4c5.4,0,8,4,8.2,8.5V319.3z M1002.4,316.7h10.6c-0.2-2.3-2-4.3-5-4.3
			C1004.6,312.4,1002.8,314.4,1002.4,316.7z"/>
		<path class="st5" d="M1027.7,317.3l2.1,0.3c3.2,0.5,5.2,2.2,5.2,5.5c0,3-2.6,5.7-7.5,5.7c-5.2,0-7.7-2.3-8.1-5.8h3.1
			c0.3,2.1,2.1,3.1,4.9,3.1c2.8,0,4.6-1,4.6-3c0-1.6-1-2.5-3.3-2.9l-4.1-0.7c-2.6-0.5-4.4-1.8-4.4-4.6c0-3,2.3-5.4,7.2-5.4
			c4.3,0,6.8,2,7.2,5.2h-3.1c-0.3-1.7-2-2.5-4.3-2.5c-2.4,0-4,0.9-4,2.4c0,1.4,0.9,2,2.8,2.2L1027.7,317.3z"/>
		<path class="st5" d="M1046.4,317.3l2.1,0.3c3.2,0.5,5.2,2.2,5.2,5.5c0,3-2.6,5.7-7.5,5.7c-5.2,0-7.7-2.3-8.1-5.8h3.1
			c0.3,2.1,2.1,3.1,4.9,3.1c2.8,0,4.6-1,4.6-3c0-1.6-1-2.5-3.3-2.9l-4.1-0.7c-2.6-0.5-4.4-1.8-4.4-4.6c0-3,2.3-5.4,7.2-5.4
			c4.3,0,6.8,2,7.2,5.2h-3.1c-0.3-1.7-2-2.5-4.3-2.5c-2.4,0-4,0.9-4,2.4c0,1.4,0.9,2,2.8,2.2L1046.4,317.3z"/>
	</g>
</g>
<g>
	<g>
		<path class="st5" d="M118.7,49.2v22.7c0,8.4-4.8,13.2-13.9,13.2c-9,0-13.9-4.9-13.9-13.2V49.2h4.4v22.6c0,5.5,3.3,9.2,9.4,9.2
			c6.2,0,9.4-3.7,9.4-9.2V49.2H118.7z"/>
		<path class="st5" d="M136.5,69.4l2.8,0.4c4.4,0.7,7.1,3,7.1,7.5c0,4.1-3.5,7.8-10.2,7.8c-7.1,0-10.5-3.1-11.1-7.9h4.3
			c0.4,2.8,2.9,4.2,6.6,4.2s6.2-1.3,6.2-4.1c0-2.2-1.4-3.4-4.5-3.9l-5.6-0.9c-3.6-0.6-6-2.5-6-6.3c0-4.2,3.1-7.4,9.8-7.4
			c5.9,0,9.3,2.8,9.8,7.1h-4.2c-0.3-2.4-2.7-3.5-5.8-3.5c-3.2,0-5.4,1.2-5.4,3.3c0,1.9,1.2,2.7,3.8,3.1L136.5,69.4z"/>
		<path class="st5" d="M174.2,72h-19c0.1,5.9,2.8,9.5,8,9.5c3.5,0,5.6-1.5,6.3-3.9h4.3c-0.8,4.3-4.4,7.5-10.6,7.5
			c-7.8,0-12.1-5.7-12.1-13.3s4.4-12.9,12-12.9c7.4,0,11,5.5,11.1,11.6V72z M155.5,68.5h14.4c-0.2-3.2-2.7-5.9-6.9-5.9
			C158.5,62.6,156,65.4,155.5,68.5z"/>
		<path class="st5" d="M195,63.6h-2.1c-4.9,0-8,3-8,8.5v12.5h-4.2V59.6h4.1v3h1.1c1.2-1.5,3.6-3,7.2-3h1.9V63.6z"/>
		<path class="st5" d="M209.8,69.4l2.8,0.4c4.4,0.7,7.1,3,7.1,7.5c0,4.1-3.5,7.8-10.2,7.8c-7.1,0-10.5-3.1-11.1-7.9h4.3
			c0.4,2.8,2.9,4.2,6.6,4.2s6.2-1.3,6.2-4.1c0-2.2-1.4-3.4-4.5-3.9l-5.6-0.9c-3.6-0.6-6-2.5-6-6.3c0-4.2,3.1-7.4,9.8-7.4
			c5.9,0,9.3,2.8,9.8,7.1h-4.2c-0.3-2.4-2.7-3.5-5.8-3.5c-3.2,0-5.4,1.2-5.4,3.3c0,1.9,1.2,2.7,3.8,3.1L209.8,69.4z"/>
	</g>
</g>
<g>
	<g>
		<path class="st6" d="M644.1,576.3h-54.2c-6.6,0-11.9-5.3-11.9-11.9V444.6c0-6.6,5.3-11.9,11.9-11.9h54.2c6.6,0,11.9,5.3,11.9,11.9
			v119.9C656,571,650.7,576.3,644.1,576.3z"/>
		<line class="st6" x1="578" y1="463.2" x2="656" y2="463.2"/>
		<line class="st6" x1="578" y1="471.7" x2="656" y2="471.7"/>
		<line class="st6" x1="578" y1="492.4" x2="656" y2="492.4"/>
		<line class="st6" x1="578" y1="500.7" x2="656" y2="500.7"/>
		<line class="st6" x1="578" y1="521.7" x2="656" y2="521.7"/>
		<line class="st6" x1="578" y1="529" x2="656" y2="529"/>
		<line class="st6" x1="578" y1="550.9" x2="656" y2="550.9"/>
	</g>
</g>
<g>
	<g>
		<path class="st6" d="M543.1,303.8h-54.2c-6.6,0-11.9-5.3-11.9-11.9V172c0-6.6,5.3-11.9,11.9-11.9h54.2c6.6,0,11.9,5.3,11.9,11.9
			v119.9C555,298.5,549.7,303.8,543.1,303.8z"/>
		<line class="st6" x1="477" y1="190.7" x2="555" y2="190.7"/>
		<line class="st6" x1="477" y1="199.2" x2="555" y2="199.2"/>
		<line class="st6" x1="477" y1="219.9" x2="555" y2="219.9"/>
		<line class="st6" x1="477" y1="228.2" x2="555" y2="228.2"/>
		<line class="st6" x1="477" y1="249.2" x2="555" y2="249.2"/>
		<line class="st6" x1="477" y1="256.5" x2="555" y2="256.5"/>
		<line class="st6" x1="477" y1="278.4" x2="555" y2="278.4"/>
	</g>
</g>
<g>
	<g>
		<path class="st6" d="M846.1,447.5h-54.2c-6.6,0-11.9-5.3-11.9-11.9V315.7c0-6.6,5.3-11.9,11.9-11.9h54.2c6.6,0,11.9,5.3,11.9,11.9
			v119.9C858,442.2,852.6,447.5,846.1,447.5z"/>
		<line class="st6" x1="780" y1="334.4" x2="858" y2="334.4"/>
		<line class="st6" x1="780" y1="342.8" x2="858" y2="342.8"/>
		<line class="st6" x1="780" y1="363.6" x2="858" y2="363.6"/>
		<line class="st6" x1="780" y1="371.8" x2="858" y2="371.8"/>
		<line class="st6" x1="780" y1="392.8" x2="858" y2="392.8"/>
		<line class="st6" x1="780" y1="400.2" x2="858" y2="400.2"/>
		<line class="st6" x1="780" y1="422.1" x2="858" y2="422.1"/>
	</g>
</g>
<line class="st4" x1="565" y1="261.3" x2="770" y2="381.3"/>
<line class="st4" x1="770" y1="427.3" x2="668.5" y2="545.3"/>
<line class="st4" x1="516" y1="313.3" x2="569" y2="513.3"/>
<line class="st2" x1="137.8" y1="466.8" x2="153.5" y2="466.8"/>
<g>
	<g>
		<path class="st7" d="M1351.8,316.7c-0.6,0-1.2,0-1.6,0c-0.6,0-1.1-0.3-1.5-0.7c-0.4-0.4-0.5-1-0.4-1.6l0.7-3.9
			c0.2-0.9,0.9-1.6,1.8-1.7c0.5,0,1.2,0,2.2,0c4.5,0,7.3-0.3,8.3-0.8c0.4-2.3,0.3-11.5,0-14c-1.5-2.8-17.5-22.9-22.6-27.5h-11.6
			c-1.1,0-2-0.9-2-2v-5.8c0-1.1,0.9-2,2-2h41.5c1,0,1.7,0.7,1.9,1.6c0.2,0.3,0.2,0.7,0.2,1.1l-0.1,0.8v4.2c0,1.1-0.9,2-2,2h-8.7
			c3.1,4.3,6.6,8.8,9.5,12.6c1.5,1.9,2.8,3.7,3.9,5.1l11.2-10.2h-4.8c-0.9,0-1.7-0.6-1.9-1.5l-1.4-5.8c-0.1-0.6,0-1.2,0.4-1.7
			s1-0.8,1.6-0.8h36.4c0.7,0,1.4,0.4,1.8,1c0.3,0.6,0.3,1.2,0.1,1.8c-0.1,0.3-0.2,0.5-0.3,0.7l-2.6,3.8c-0.1,0.1-0.2,0.2-0.3,0.3
			l-0.8,1.2c-0.4,0.6-1,0.9-1.7,0.9h-6.5l-0.5,0.1c-0.5,0.1-1,0.2-1.4,0.3c-2.7,1.1-21.5,16-23.1,19.4c-0.2,1.5,0,10.4,0.2,14.3
			c1.3,0,3.1,0,4.6,0c3.7,0,6,0,7,0.2c1,0.2,1.7,1.1,1.7,2.1l-0.2,4.1c0,0.5-0.3,1-0.7,1.4c-0.4,0.3-0.8,0.5-1.3,0.5
			c-0.1,0-0.1,0-0.2,0c-1.3-0.1-9.9-0.1-13.1-0.1l-8.4,0c-1.4,0-4.3,0.1-7.2,0.1C1358.5,316.6,1354.4,316.7,1351.8,316.7z
			 M1413,316.7l-3-0.2l-2.8-0.2c-1-0.1-1.8-0.9-1.8-2l0-6.1c0-0.6,0.2-1.1,0.7-1.5c0.4-0.3,0.8-0.5,1.3-0.5c0.1,0,0.2,0,0.2,0
			l3.5,0.4l3.1,0.2c0.6,0,1.1,0.3,1.4,0.7c0.4,0.4,0.5,1,0.4,1.6l-0.9,6c-0.1,1-1,1.7-2,1.7C1413.1,316.7,1413.1,316.7,1413,316.7z
			 M1413.7,306.5l-5.6-0.5c-1-0.1-1.8-0.9-1.8-2l-0.2-26c0-0.6,0.3-1.2,0.7-1.6c0.4-0.3,0.8-0.5,1.3-0.5c0.1,0,0.3,0,0.4,0
			c1.1,0.2,10.9,1.2,11.9,1.2c0.6,0,1.2,0.3,1.5,0.8s0.5,1.1,0.3,1.7l-6.5,25.2c-0.2,0.9-1,1.5-1.9,1.5
			C1413.8,306.5,1413.7,306.5,1413.7,306.5z"/>
		<path class="st5" d="M1368.7,258.8v0.4c0,0,0.1,0,0.1,0l-0.1,1v4.4h-12.5c5.6,8.2,13.6,18,17,22.7l16.7-15.2h-9.9l-1.4-5.8h36.4
			l-0.3,0.4c0,0,0.1,0,0.1,0l-2.6,3.8c0,0-0.1,0-0.1,0l-1,1.6h-6.7c-0.9,0.2-1.6,0.4-2.2,0.5c-2.3,0.6-23.1,16.8-24.5,20.8
			c-0.3,1.4,0,14.7,0.3,16.7c1.4,0.3,11.3,0,13.1,0.3l-0.2,4.1c-1.2-0.1-7.3-0.1-13.3-0.1c-3,0-5.9,0-8.3,0
			c-3.2,0-12.8,0.3-17.5,0.3c-0.6,0-1.1,0-1.6,0l0.7-3.9c2-0.1,10.2,0.4,12-1.6c0.9-1,0.6-13.6,0.3-15.7c-0.8-2.3-19-25.2-23.8-29
			h-12.3v-5.8H1368.7 M1408.1,278.1c1.3,0.3,11.1,1.2,12.2,1.2l-6.5,25.2l-5.6-0.5L1408.1,278.1 M1407.3,308.1l3.6,0.4l3.2,0.2
			l-0.9,6l-3-0.2l-2.8-0.2L1407.3,308.1 M1368.7,254.8h-41.5c-2.2,0-4,1.8-4,4v5.8c0,2.2,1.8,4,4,4h10.8
			c5.1,4.9,19.1,22.3,21.4,26.1c0.2,2.3,0.3,8.7,0.1,11.7c-1.9,0.3-5.2,0.3-6.4,0.3c-1,0-1.7,0-2.3,0c-1.8,0.1-3.3,1.5-3.6,3.3
			l-0.7,3.9c-0.2,1.1,0.1,2.3,0.8,3.2s1.8,1.4,3,1.5c0.5,0,1,0,1.7,0c2.6,0,6.7-0.1,10.3-0.2c3-0.1,5.8-0.1,7.2-0.1l3.7,0l4.6,0
			c7.8,0,12.2,0,13,0.1c0.1,0,0.2,0,0.3,0c1,0,1.9-0.4,2.6-1c0.8-0.7,1.3-1.7,1.4-2.8l0.2-4.1c0.1-2-1.3-3.8-3.3-4.2
			c-1.1-0.2-3.1-0.2-7.3-0.2c-0.8,0-1.8,0-2.7,0c-0.2-3.8-0.3-9.6-0.2-11.6c0.8-1.1,3.8-4.2,10.5-9.7c5.3-4.3,10-7.7,11.4-8.5
			c0.3-0.1,0.7-0.1,1.1-0.2l0,0c-0.3,0.6-0.5,1.2-0.5,1.9l0.2,26c0,0.4,0.1,0.8,0.2,1.2c-0.7,0.8-1.2,1.8-1.2,2.8l0,6.1
			c0,2.1,1.6,3.8,3.7,4l2.8,0.2l3.1,0.2c0.1,0,0.2,0,0.3,0c2,0,3.7-1.4,4-3.4l0.9-6c0.2-1-0.1-2.1-0.7-2.9c0.1-0.3,0.3-0.6,0.3-0.9
			l6.5-25.2c0.3-1.2,0.1-2.4-0.7-3.4c-0.7-1-1.8-1.6-3.1-1.6c-0.5,0-3.5-0.3-6.4-0.6c0.1-0.1,0.2-0.2,0.3-0.3l0.7-1
			c0.1-0.2,0.3-0.3,0.4-0.5l2.6-3.8c0.3-0.4,0.4-0.8,0.6-1.2c0.4-1.1,0.4-2.3-0.2-3.4c-0.7-1.3-2-2.1-3.5-2.1h-36.4
			c-1.2,0-2.4,0.6-3.1,1.5c-0.8,1-1,2.2-0.7,3.4l1.4,5.8c0.4,1.7,1.8,2.9,3.5,3l-5.8,5.3c-0.8-1.1-1.7-2.2-2.6-3.4
			c-2.2-2.9-4.7-6.1-7.2-9.4h4.7c2.2,0,4-1.8,4-4v-4.1l0.1-0.7c0.1-0.7,0-1.4-0.3-2.1C1372,256,1370.5,254.8,1368.7,254.8
			L1368.7,254.8z"/>
	</g>
</g>
<g>
	<path id="Facebook__x28_alt_x29_" class="st6" d="M1277,256.8c0-7.9-7.1-15-15-15h-60c-7.9,0-15,7.1-15,15v60c0,7.9,7.1,15,15,15
		h30v-34h-11v-15h11v-5.8c0-10.1,7.6-19.2,16.9-19.2h12.1v15h-12.1c-1.3,0-2.9,1.6-2.9,4v6h15v15h-15v34h16c7.9,0,15-7.1,15-15
		V256.8z"/>
</g>
<g>
	<g>
		<path class="st7" d="M1197.5,506.6c-2.4,0-4.7-0.4-6.8-1.2c-2.2-0.8-4-1.9-5.6-3.3c-1.6-1.4-3-3.1-3.9-5c-1-1.9-1.5-4.1-1.5-6.4
			v-31.8c0-2.2,0.5-4.3,1.5-6.3c1-1.9,2.3-3.6,3.9-5.1c1.6-1.4,3.5-2.5,5.6-3.3c2.1-0.8,4.4-1.3,6.8-1.3h65c2.4,0,4.7,0.4,6.9,1.3
			c2.1,0.8,4,1.9,5.6,3.3c1.6,1.4,3,3.1,3.9,5.1c1,2,1.5,4.1,1.5,6.3v31.8c0,2.3-0.5,4.4-1.5,6.4c-0.9,1.9-2.3,3.6-3.9,5
			c-1.6,1.4-3.5,2.5-5.6,3.3c-2.1,0.8-4.5,1.2-6.9,1.2H1197.5z M1260.5,466c-0.4,0-0.9,0-1.4,0.1c-1.1,0.2-2,0.5-2.7,1
			c-1,0.7-1.7,1.5-2.1,2.7c-0.5,1.2-0.7,3.1-0.7,5.5v8.9c0,3.1,0.8,5.3,2.2,6.5c1.5,1.2,3,1.8,4.5,1.8h0.5c1.7-0.1,3.3-0.9,4.6-2.3
			c0.9-0.9,1.4-2.1,1.4-3.6c0-0.1,0-0.2,0-0.4h-1.3v1.2c0,1.4-0.6,2.6-1.6,3.4c-0.9,0.7-2,1.1-3.2,1.1h-1c-1.3,0-2.3-0.4-3.2-1.1
			c-1-0.8-1.5-2-1.5-3.3v-6.9c0-1.1,0.9-2,2-2h9.5v-2c0-1.5,0-2.9-0.1-4.2c0-1.3-0.1-2.2-0.3-2.8c0-0.1,0-0.1,0-0.2
			c-0.1-0.8-0.5-1.4-1-1.9c-0.8-0.6-1.6-1-2.6-1.2C1261.8,466.1,1261.1,466,1260.5,466z M1210.7,483.4c0,1.3,0,2.5-0.1,3.6
			c-0.1,1.1,0,1.4,0,1.6c0,0.1,0,0.1,0,0.2l0.3,2.5c0,0.2,0.1,0.4,0.5,0.7c0.4,0.3,1,0.4,1.6,0.4c0.8,0,1.6-0.1,2.4-0.4
			c0.3-0.1,0.6-0.2,0.9-0.4c-0.9-0.2-2.1-0.8-2.9-2.9c-0.3-0.6-0.3-1.3-0.2-2.3c0-0.6,0.1-1.5,0.1-2.8l-0.1-16h-2.7L1210.7,483.4z
			 M1239.4,491.5c0.8,0.4,1.4,0.7,1.8,0.8c0.3,0.1,0.7,0.1,1,0.1l0,0c0.5,0,0.8-0.1,1.1-0.3c0.6-0.4,1.1-1,1.5-2
			c0.5-1.1,0.7-2.5,0.7-4v-14.8c0-2.8-1.2-3.8-2-4.4c-0.3-0.2-0.8-0.3-1.3-0.3c-0.2,0-0.4,0-0.7,0.1c0.4,0.2,0.9,0.4,1.3,0.7
			c1.4,1.1,1.7,2.3,1.7,3.1v16.8c0,0.9-0.3,2.1-1.7,3.1C1241.8,491.2,1240.7,491.5,1239.4,491.5
			C1239.5,491.5,1239.5,491.5,1239.4,491.5z M1199.9,492.3v-31.5c0-1.1,0.9-2,2-2h6v-1.1h-17.5v0.9h4.9c1.1,0,2,0.9,2,2v31.7H1199.9
			z M1224,492.2v-24.5h-2.7v15.9c0,1.1,0,2.2,0.1,2.8c0,0.4,0.1,1.4-0.4,2.2c0,0,0.1,0,0.1,0c0.9,0.2,1.5,1.1,1.5,2l-0.1,1.5
			L1224,492.2z M1232,491.9l1.8,0l0.1-0.8c0.1-0.7,0.6-1.3,1.3-1.5c0,0,0,0,0,0c-0.6-0.8-0.8-1.6-0.8-2.2v-16.8
			c0-0.6,0.2-1.4,0.8-2.2c-0.4-0.4-0.6-0.9-0.6-1.5v-9.2h-2.7V491.9z M1257,477.7c-0.5,0-1.1-0.2-1.4-0.6s-0.6-0.9-0.6-1.5l0.1-3.5
			c0-1.2,0.5-2.4,1.5-3.3c1-0.9,2.1-1.3,3.4-1.3h0.3c1.3,0,2.5,0.4,3.4,1.2c1.1,0.9,1.7,2.1,1.7,3.5l-0.2,3.6c0,1.1-0.9,1.9-2,1.9
			H1257z M1228.9,441.1c-1.8,0-3.5-0.3-5-0.8c-1.6-0.5-2.9-1.5-3.7-2.9c-0.7-1-1.3-2.2-1.7-3.8c0,0,0-0.1,0-0.1
			c-0.3-1.5-0.5-3.6-0.5-6.4v-7.8c0-2.8,0.3-5.2,0.8-7.1c0,0,0-0.1,0-0.1c0.7-2.2,2-3.9,3.6-4.9c1.6-1.2,3.7-1.8,6.1-1.8
			c2,0,3.8,0.3,5.3,1c1.6,0.6,2.9,1.8,3.9,3.3c0.7,1.1,1.2,2.2,1.6,3.6c0.3,1.4,0.5,3.2,0.5,5.4v7.6c0,2.8-0.2,4.9-0.5,6.3
			c-0.2,1.4-0.8,2.9-1.8,4.5c-1.1,1.6-2.4,2.6-3.7,3.1C1232.3,440.8,1230.7,441.1,1228.9,441.1z M1228.9,414.2c-0.2,0-0.4,0-0.6,0.3
			c-0.2,0.2-0.3,0.5-0.3,0.8v15.7c0,0.2,0,0.4,0.3,0.7c0.2,0.2,0.4,0.3,0.7,0.3c0.2,0,0.4,0,0.7-0.3c0.2-0.2,0.3-0.4,0.3-0.7v-15.7
			c0-0.3-0.1-0.6-0.3-0.8C1229.2,414.3,1229,414.2,1228.9,414.2z M1205.1,441c-1.1,0-2-0.9-2-2v-22.2l-8.7-19.1
			c-0.3-0.6-0.2-1.3,0.1-1.9c0.4-0.6,1-0.9,1.7-0.9h7.8c0.9,0,1.7,0.6,1.9,1.4l2.5,8.3l2.5-8.3c0.3-0.8,1-1.4,1.9-1.4h7.7
			c0.7,0,1.3,0.3,1.7,0.9c0.4,0.6,0.4,1.3,0.2,1.9l-8.2,19.1V439c0,1.1-0.9,2-2,2H1205.1z M1247,440.7c-1.5,0-2.8-0.4-3.9-1.1
			c-0.9-0.6-1.7-1.5-2.3-2.7c0-0.1-0.1-0.1-0.1-0.2c-0.3-0.6-0.4-1.2-0.5-1.8c0-0.3-0.1-0.6-0.2-0.9c0-0.1,0-0.1,0-0.2
			c-0.1-0.6-0.2-1.4-0.2-2.3v-23.1c0-1.1,0.9-2,2-2h6.2c1.1,0,2,0.9,2,2v23c0,0,0,0.1,0.1,0.1c0,0,0,0,0,0c0,0,0.1,0,0.3,0
			c0.2,0,0.3-0.1,0.4-0.1c0.1-0.1,0.1-0.1,0.1-0.1l0-23c0-1.1,0.9-2,2-2h5.8c1.1,0,2,0.9,2,2v29.5c0,1.1-0.9,2-2,2h-7.4
			c-0.4,0-0.7-0.1-1-0.3C1249.3,440.4,1248.2,440.7,1247,440.7z"/>
		<path class="st5" d="M1220.5,396.8L1220.5,396.8 M1220.5,396.8l-8.3,19.5V439h-7.1v-22.7l-8.9-19.5h7.8l4.4,14.6l4.4-14.6H1220.5
			 M1228.5,407.4c1.8,0,3.3,0.3,4.5,0.9c1.2,0.5,2.2,1.3,3,2.5c0.6,0.9,1,1.9,1.3,3c0.3,1.2,0.4,2.8,0.4,4.9v7.6
			c0,2.8-0.2,4.7-0.4,6c-0.1,1.1-0.6,2.3-1.5,3.7c-0.9,1.2-1.8,2-2.8,2.4c-1.2,0.6-2.6,0.9-4.1,0.9c-1.6,0-3-0.2-4.3-0.7
			c-1.2-0.4-2.1-1.1-2.7-2.1c-0.6-0.8-1.1-1.9-1.5-3.3c-0.3-1.3-0.4-3.3-0.4-5.9v-7.8c0-2.7,0.3-4.9,0.7-6.6
			c0.6-1.8,1.5-3.1,2.8-3.9C1224.8,407.9,1226.5,407.4,1228.5,407.4 M1228.9,434c0.8,0,1.5-0.3,2.1-0.9c0.6-0.6,0.9-1.3,0.9-2.1
			v-15.7c0-0.9-0.3-1.6-0.9-2.2c-0.6-0.6-1.3-0.9-2.1-0.9c-0.8,0-1.5,0.3-2.1,0.9c-0.6,0.6-0.9,1.3-0.9,2.2v15.7
			c0,0.8,0.3,1.5,0.9,2.1C1227.3,433.7,1228,434,1228.9,434 M1258.8,408.5v29.5h-7.4l0.1-2.4c-0.7,1-1.3,1.7-2,2.2
			c-0.8,0.5-1.6,0.7-2.5,0.7c-1.1,0-2-0.2-2.8-0.7c-0.6-0.4-1.2-1.1-1.7-2c-0.2-0.4-0.3-0.8-0.4-1.2c-0.1-0.4-0.1-0.8-0.2-1.2
			c-0.1-0.5-0.1-1.1-0.1-2v-3.2v-19.9h6.2v23c0,0.6,0.2,1.1,0.6,1.5c0.5,0.4,1,0.7,1.7,0.7c0.7,0,1.3-0.2,1.7-0.7
			c0.5-0.4,0.7-0.9,0.7-1.5v-23H1258.8 M1262.5,445c2.2,0,4.2,0.4,6.1,1.1c1.9,0.7,3.6,1.7,5.1,3c1.5,1.2,2.6,2.7,3.4,4.4
			s1.3,3.5,1.3,5.4v31.8c0,2-0.4,3.8-1.3,5.5c-0.8,1.7-2,3.1-3.4,4.4c-1.5,1.3-3.1,2.2-5,3c-1.9,0.7-4,1.1-6.2,1.1h-65
			c-2.2,0-4.2-0.4-6.1-1.1c-1.9-0.7-3.6-1.7-5-3c-1.4-1.3-2.6-2.7-3.5-4.4c-0.8-1.7-1.3-3.5-1.3-5.5v-31.8c0-1.9,0.4-3.7,1.3-5.4
			c0.8-1.7,2-3.2,3.5-4.4c1.4-1.2,3.1-2.2,5-3c1.9-0.7,3.9-1.1,6.1-1.1H1262.5 M1230,494l5.5-0.1l0.4-2.4c1.8,1.5,3.4,2.4,4.8,2.8
			c0.5,0.1,1,0.2,1.4,0.2c0.8,0,1.5-0.2,2.2-0.6c1-0.6,1.8-1.6,2.3-3c0.5-1.4,0.8-3,0.8-4.7v-14.8c0-2.8-1-4.9-3-6.1
			c-0.7-0.4-1.5-0.6-2.3-0.6c-1.6,0-3.4,0.7-5.5,2.2v-11.2h-6.7V494 M1188.3,460.6h6.9v33.7h6.6v-33.5h8v-5.1h-21.5V460.6
			 M1260.3,494.5c0.2,0,0.4,0,0.6,0c2.3-0.1,4.3-1.1,6-2.9c1.3-1.3,2-3,2-5.1c-0.1-0.7-0.2-1.4-0.3-2.3h-5v0.7v2.5
			c0,0.8-0.3,1.4-0.8,1.8c-0.6,0.4-1.2,0.6-2,0.6h-1c-0.8,0-1.4-0.2-1.9-0.6c-0.5-0.4-0.8-1-0.8-1.8v-0.3v-2.8v-3.8h11.5v-4
			c0-1.5,0-2.9-0.1-4.3c0-1.4-0.2-2.5-0.4-3.2c-0.2-1.3-0.8-2.4-1.8-3.2c-1-0.8-2.1-1.3-3.5-1.6c-0.8-0.2-1.6-0.3-2.4-0.3
			c-0.5,0-1.1,0-1.7,0.1c-1.4,0.2-2.6,0.6-3.6,1.4c-1.3,0.9-2.2,2.1-2.8,3.6c-0.6,1.5-0.9,3.6-0.9,6.2v8.9c0,3.8,1,6.4,3,8
			C1256.3,493.8,1258.3,494.5,1260.3,494.5 M1216.9,489.7c-0.7,0-1.2-0.5-1.6-1.7c-0.1-0.2-0.1-0.7-0.1-1.4c0-0.8,0.1-1.7,0.1-2.9
			l-0.1-18h-6.7l0.2,17.7c0,1.4,0,2.6-0.1,3.5c0,0.9,0,1.7,0.1,2.1c0.1,0.8,0.2,1.6,0.3,2.5c0.1,0.9,0.5,1.6,1.4,2.1
			c0.8,0.5,1.7,0.7,2.7,0.7c1.1,0,2.1-0.2,3.1-0.5c1-0.3,1.9-0.8,2.7-1.4c0.8-0.6,1.5-1.3,1.8-1.9l-0.1,3.5l5.5,0.1v-28.6h-6.7v17.9
			c0,1.3,0,2.3,0.1,3c0,0.7-0.1,1.2-0.3,1.3c-0.2,0.8-0.8,1.3-1.7,1.7C1217.3,489.7,1217.1,489.7,1216.9,489.7 M1239.5,468.3
			c0.8,0,1.4,0.2,2.1,0.7c0.6,0.5,0.9,1,0.9,1.5v16.8c0,0.6-0.3,1.1-0.9,1.5c-0.6,0.4-1.3,0.7-2.1,0.7c-0.8,0-1.5-0.2-2.1-0.7
			c-0.6-0.4-0.9-0.9-0.9-1.5v-16.8c0-0.6,0.3-1.1,0.9-1.5C1238.1,468.5,1238.7,468.3,1239.5,468.3 M1260.4,469.5
			c0.9,0,1.6,0.2,2.2,0.7c0.6,0.5,0.9,1.1,0.9,2l-0.2,3.5h-6.4l0.1-3.5c0-0.8,0.3-1.4,0.9-1.9c0.6-0.5,1.3-0.8,2.1-0.8H1260.4
			 M1220.7,490.6L1220.7,490.6 M1220.5,392.8L1220.5,392.8h-7.7c-1.8,0-3.3,1.2-3.8,2.8l-0.6,2l-0.6-2c-0.5-1.7-2.1-2.8-3.8-2.8
			h-7.8c-1.4,0-2.6,0.7-3.4,1.8s-0.8,2.6-0.3,3.8l8.5,18.7V439c0,0.8,0.2,1.5,0.6,2.1h-4.2c-2.6,0-5.2,0.5-7.6,1.4
			c-2.3,0.9-4.4,2.1-6.2,3.7c-1.9,1.6-3.4,3.5-4.4,5.7c-1.1,2.2-1.7,4.7-1.7,7.2v31.8c0,2.6,0.6,5,1.7,7.3c1.1,2.1,2.6,4,4.4,5.6
			c1.8,1.5,3.9,2.8,6.2,3.7c2.4,0.9,4.9,1.3,7.5,1.3h65c2.7,0,5.2-0.5,7.6-1.3c2.4-0.9,4.5-2.1,6.2-3.7c1.8-1.6,3.3-3.5,4.4-5.6
			c1.1-2.2,1.7-4.6,1.7-7.3v-31.8c0-2.5-0.6-4.9-1.7-7.2c-1.1-2.2-2.6-4.1-4.5-5.7c-1.8-1.5-3.9-2.8-6.2-3.6
			c-2.4-0.9-4.9-1.4-7.6-1.4h-1c0.8-0.7,1.3-1.8,1.3-3v-29.5c0-2.2-1.8-4-4-4h-5.8c-0.9,0-1.8,0.3-2.4,0.8c-0.7-0.5-1.5-0.8-2.4-0.8
			h-6.2c-1.7,0-3.1,1.1-3.7,2.6c-1-1.1-2.2-1.9-3.6-2.5c-1.7-0.8-3.8-1.2-6.1-1.2c-2.8,0-5.2,0.7-7.2,2.1c-0.1,0-0.1,0.1-0.2,0.1
			l3-7.1c0.2-0.5,0.4-1.1,0.4-1.7C1224.5,394.6,1222.7,392.8,1220.5,392.8L1220.5,392.8z M1220.5,400.8L1220.5,400.8L1220.5,400.8
			L1220.5,400.8z M1215.6,441c0.4-0.6,0.6-1.3,0.6-2.1v-6.8c0.1,0.6,0.2,1.2,0.3,1.7c0,0.1,0,0.2,0.1,0.2c0.5,1.8,1.1,3.2,2,4.4
			c0.6,1,1.5,1.9,2.5,2.6H1215.6L1215.6,441z M1236.2,441c1-0.7,2-1.7,2.9-2.9c0-0.1,0.1-0.1,0.1-0.2c0,0,0,0,0,0
			c0.7,1.3,1.6,2.3,2.6,3H1236.2L1236.2,441z"/>
	</g>
</g>
<g>
	<path class="st5" d="M1397.7,422.3c-0.5-0.6-1.3-0.7-2-0.4l-55.7,24.4c-0.6,0.3-1,0.9-1,1.6c0,0.7,0.4,1.3,1,1.6l13.3,6.5l3.3,19.9
		c0.1,0.8,0.7,1.4,1.5,1.5c0.6,0.1,1.1-0.1,1.5-0.5l10.5-10.5l15,10.7c0.5,0.3,1.1,0.4,1.6,0.2c0.5-0.2,0.9-0.7,1.1-1.3l10.4-52.2
		C1398.2,423.3,1398.1,422.8,1397.7,422.3z M1354.6,452.8l-9.8-4.8l38.7-17L1354.6,452.8z M1360,458l-1.6,8.1l-1.7-10.4l21.3-16
		l-17.4,17.5C1360.2,457.3,1360.1,457.6,1360,458z M1361.1,470.4l1.8-9.1l4.2,3L1361.1,470.4z M1384.8,472.7l-20.4-14.6l29.2-29.3
		L1384.8,472.7z"/>
	<circle class="st8" cx="1371.7" cy="450.7" r="46.1"/>
</g>
</svg>
