<?xml version="1.0" encoding="utf-8"?>
<!-- Generator: Adobe Illustrator 20.1.0, SVG Export Plug-In . SVG Version: 6.00 Build 0)  -->
<svg version="1.1" id="Layer_1" xmlns="http://www.w3.org/2000/svg" xmlns:xlink="http://www.w3.org/1999/xlink" x="0px" y="0px"
	 viewBox="0 0 1474 1592.9" style="enable-background:new 0 0 1474 1592.9;" xml:space="preserve">
<style type="text/css">
	.st0{opacity:0.2;fill:#007BFF;enable-background:new    ;}
	.st1{fill:none;stroke:#007BFF;stroke-width:4;stroke-linecap:round;stroke-linejoin:round;stroke-miterlimit:10;}
	.st2{fill:none;stroke:#007BFF;stroke-width:6.2696;stroke-linecap:round;stroke-linejoin:round;stroke-miterlimit:10;}
	.st3{fill:#007BFF;}
</style>
<rect x="464" y="430.9" class="st0" width="955" height="952"/>
<path d="M1296.6,4419.1c6.2,0.8,12.5,1.7,18.7,2.5c-0.1,0.6-0.1,1.1-0.2,1.7c-6.3-0.6-12.5-1.3-18.8-1.9
	C1296.5,4420.5,1296.6,4419.8,1296.6,4419.1z"/>
<rect x="676" y="430.9" class="st1" width="534" height="952"/>
<path class="st1" d="M1144,1524.1H741.6c-53.9,0-97.6-43.7-97.6-97.6V698.9h-8v-73.3l8-0.7v-22.7h-8v-75.3h8v-54h-8v-37.3l8-0.7
	v-47.4c0-53.9,43.7-97.6,97.6-97.6H1144c53.9,0,97.6,43.7,97.6,97.6v138.4l7.1,0.3v75.3l-7.1,0.3v824.5
	C1241.6,1480.4,1197.9,1524.1,1144,1524.1z"/>
<circle class="st1" cx="858.8" cy="360.7" r="8.8"/>
<line class="st1" x1="905" y1="360.7" x2="983" y2="360.7"/>
<circle class="st1" cx="942.3" cy="1450.8" r="37.3"/>
<path class="st1" d="M1416,248.9"/>
<path class="st1" d="M464,248.9"/>
<path class="st1" d="M335.8,430.9L335.8,430.9c-43.8,0-79.3,35.5-79.3,79.3c0,0,1.3,321.5,0,341.7c-1.3,20.2-24,44.7-69.3,44.7
	c44,0,69.3,30.8,69.3,49.6c0,18.9,0,357.4,0,357.4c0,43.8,35.5,79.3,79.3,79.3l0,0"/>
<path class="st2" d="M1189,248.9"/>
<path class="st2" d="M684.7,248.9"/>
<g>
	<path class="st3" d="M79.4,1016.6l31.3-10.9c5.1-1.8,9.7-3.3,14.2-4.5v-0.3c-4.6-1.3-9.2-2.9-14.2-4.7l-31.3-10.8v-10.6l55.6,21.8
		v9.7l-55.6,21.1V1016.6z"/>
	<path class="st3" d="M94.4,965.3c-5.7,0-10.5,0.1-15.1,0.5v-8.8l9-0.5v-0.3c-5.3-3.1-10.2-8.3-10.2-17.5c0-7.6,4.6-13.3,11.1-15.7
		v-0.2c-3.1-1.7-5.5-3.9-7.2-6.2c-2.5-3.3-3.9-7-3.9-12.3c0-7.4,4.8-18.3,24.1-18.3H135v9.9h-31.5c-10.7,0-17.1,3.9-17.1,12.1
		c0,5.7,4.3,10.2,9.2,12c1.4,0.5,3.2,0.8,5.1,0.8H135v9.9h-33.3c-8.8,0-15.3,3.9-15.3,11.6c0,6.3,5.1,10.9,10.1,12.5
		c1.5,0.6,3.2,0.8,4.9,0.8H135v9.9H94.4z"/>
	<path class="st3" d="M135,838.6l-7,0.8v0.3c4.4,3.1,8.3,9.1,8.3,17c0,11.3-7.9,17-16,17c-13.4,0-20.8-12-20.7-33.4h-1.1
		c-4.6,0-12.9,1.3-12.9,12.6c0,5.2,1.6,10.6,4.1,14.5l-6.7,2.3c-3-4.6-4.9-11.3-4.9-18.3c0-17,11.6-21.1,22.8-21.1h20.8
		c4.8,0,9.5-0.2,13.3-0.9V838.6z M106.6,840.1c-0.2,11,1.7,23.6,12.5,23.6c6.5,0,9.7-4.4,9.7-9.5c0-7.2-4.6-11.8-9.3-13.4
		c-1-0.3-2.2-0.6-3.2-0.6H106.6z"/>
	<path class="st3" d="M79.4,809.3l12-7.9c3.1-2.1,6-3.8,9.1-5.6v-0.3c-3.3-1.8-6.2-3.7-9.2-5.5l-11.8-7.8v-10.9l26.9,19l28.7-19.5
		v11.5l-12.5,8.2c-3.2,2.2-6.3,4-9.7,6v0.2c3.3,1.8,6.3,3.8,9.7,5.9l12.5,8v11.1l-28.4-19.8l-27.2,18.8V809.3z"/>
</g>
<path class="st1" d="M1416.5,289.4L1416.5,289.4c0-43.8-35.5-79.3-79.3-79.3c0,0-321.5,1.3-341.7,0s-44.7-24-44.7-69.3
	c0,44-30.8,69.3-49.6,69.3c-18.9,0-357.4,0-357.4,0c-43.8,0-79.3,35.5-79.3,79.3l0,0"/>
<g>
	<path class="st3" d="M827.8,47.9l10.9,31.3c1.8,5.1,3.3,9.7,4.5,14.2h0.3c1.3-4.6,2.9-9.2,4.7-14.2L859,47.9h10.6l-21.8,55.6h-9.7
		L817,47.9H827.8z"/>
	<path class="st3" d="M879.1,63c0-5.7-0.1-10.5-0.5-15.1h8.8l0.5,9h0.3c3.1-5.3,8.3-10.2,17.5-10.2c7.6,0,13.3,4.6,15.7,11.1h0.2
		c1.7-3.1,3.9-5.5,6.2-7.2c3.3-2.5,7-3.9,12.3-3.9c7.4,0,18.3,4.8,18.3,24.1v32.8h-9.9V72c0-10.7-3.9-17.1-12.1-17.1
		c-5.7,0-10.2,4.3-12,9.2c-0.5,1.4-0.8,3.2-0.8,5.1v34.4H914V70.2c0-8.8-3.9-15.3-11.6-15.3c-6.3,0-10.9,5.1-12.5,10.1
		c-0.6,1.5-0.8,3.2-0.8,4.9v33.6h-9.9V63z"/>
	<path class="st3" d="M1005.8,103.5l-0.8-7h-0.3c-3.1,4.4-9.1,8.3-17,8.3c-11.3,0-17-7.9-17-16c0-13.4,12-20.8,33.4-20.7V67
		c0-4.6-1.3-12.9-12.6-12.9c-5.2,0-10.6,1.6-14.5,4.1l-2.3-6.7c4.6-3,11.3-4.9,18.3-4.9c17,0,21.1,11.6,21.1,22.8v20.8
		c0,4.8,0.2,9.5,0.9,13.3H1005.8z M1004.3,75.1c-11-0.2-23.6,1.7-23.6,12.5c0,6.5,4.4,9.7,9.5,9.7c7.2,0,11.8-4.6,13.4-9.3
		c0.3-1,0.6-2.2,0.6-3.2V75.1z"/>
	<path class="st3" d="M1035.1,47.9l7.9,12c2.1,3.1,3.8,6,5.6,9.1h0.3c1.8-3.3,3.7-6.2,5.5-9.2l7.8-11.8h10.9l-19,26.9l19.5,28.7
		h-11.5l-8.2-12.5c-2.2-3.2-4-6.3-6-9.7h-0.2c-1.8,3.3-3.8,6.3-5.9,9.7l-8,12.5h-11.1l19.8-28.4l-18.8-27.2H1035.1z"/>
</g>
</svg>
