<?xml version="1.0" encoding="utf-8"?>
<!-- Generator: Adobe Illustrator 20.1.0, SVG Export Plug-In . SVG Version: 6.00 Build 0)  -->
<svg version="1.1" id="Layer_1" xmlns="http://www.w3.org/2000/svg" xmlns:xlink="http://www.w3.org/1999/xlink" x="0px" y="0px"
	 viewBox="0 0 1474 1592.9" style="enable-background:new 0 0 1474 1592.9;" xml:space="preserve">
<style type="text/css">
	.st0{opacity:0.2;fill:#007BFF;enable-background:new    ;}
	.st1{fill:none;stroke:#007BFF;stroke-width:4;stroke-linecap:round;stroke-linejoin:round;stroke-miterlimit:10;}
	.st2{enable-background:new    ;}
	.st3{fill:#007BFF;}
	.st4{fill:none;stroke:#007BFF;stroke-width:6.2696;stroke-linecap:round;stroke-linejoin:round;stroke-miterlimit:10;}
</style>
<rect x="676" y="430.9" class="st0" width="534" height="484.8"/>
<path d="M1296.6,4419.1c6.2,0.8,12.5,1.7,18.7,2.5c-0.1,0.6-0.1,1.1-0.2,1.7c-6.3-0.6-12.5-1.3-18.8-1.9
	C1296.5,4420.5,1296.6,4419.8,1296.6,4419.1z"/>
<rect x="676" y="430.9" class="st1" width="534" height="952"/>
<path class="st1" d="M1144,1524.1H741.6c-53.9,0-97.6-43.7-97.6-97.6V698.9h-8v-73.3l8-0.7v-22.7h-8v-75.3h8v-54h-8v-37.3l8-0.7
	v-47.4c0-53.9,43.7-97.6,97.6-97.6H1144c53.9,0,97.6,43.7,97.6,97.6v138.4l7.1,0.3v75.3l-7.1,0.3v824.5
	C1241.6,1480.4,1197.9,1524.1,1144,1524.1z"/>
<circle class="st1" cx="858.8" cy="360.7" r="8.8"/>
<line class="st1" x1="905" y1="360.7" x2="983" y2="360.7"/>
<circle class="st1" cx="942.3" cy="1450.8" r="37.3"/>
<path class="st1" d="M1416,248.9"/>
<path class="st1" d="M464,248.9"/>
<g class="st2">
	<path class="st3" d="M112.3,798.9v-9.5l46-15.3v-4.4l-46-14.8v-9.7l54.7,18.3v17.2L112.3,798.9z"/>
	<path class="st3" d="M131.6,658.6h35.4v9.2h-34.4c-9,0-13.5,3.5-13.5,10.5c0,8.6,6.6,13.3,15.8,13.3h32v9.2h-34.2
		c-9,0-13.7,3.6-13.7,10.4c0,9.1,7.7,13.5,17.6,13.5h30.3v9.2h-54.7v-8.9h5.3v-2.4c-4.2-2.7-6.7-6.9-6.7-13.9
		c0-6.6,2.4-11.5,7.3-14.4V692c-4.9-3.4-7.3-8.6-7.3-15.4C110.9,664,119,658.6,131.6,658.6z"/>
	<path class="st3" d="M98,641.6h-10v-9.8h10V641.6z M166.9,632.2v9.2h-54.7v-9.2H166.9z"/>
	<path class="st3" d="M166.9,574.7h-32.8c-10.1,0-15.1,4.7-15.1,13.9c0,9.8,8.6,16.3,18.2,16.3h29.6v9.2h-54.7v-8.9h5.9v-2.4
		c-4.2-3-7.3-9.1-7.3-16.5c0-13.5,8.2-20.8,21.4-20.8h34.7V574.7z"/>
</g>
<g class="st2">
	<path class="st3" d="M832.5,51.3h9.5l15.3,46h4.4l14.8-46h9.7L867.8,106h-17.2L832.5,51.3z"/>
	<path class="st3" d="M972.8,70.6V106h-9.2V71.6c0-9-3.5-13.5-10.5-13.5c-8.6,0-13.3,6.6-13.3,15.8v32h-9.2V71.8
		c0-9-3.6-13.7-10.4-13.7c-9.1,0-13.5,7.7-13.5,17.6V106h-9.2V51.3h8.9v5.3h2.4c2.7-4.2,6.9-6.7,13.9-6.7c6.6,0,11.5,2.4,14.4,7.3
		h2.4c3.4-4.9,8.6-7.3,15.4-7.3C967.4,49.9,972.8,58,972.8,70.6z"/>
	<path class="st3" d="M989.8,37.1v-10h9.8v10H989.8z M999.2,106H990V51.3h9.2V106z"/>
	<path class="st3" d="M1056.7,106V73.2c0-10.1-4.7-15.1-13.9-15.1c-9.8,0-16.3,8.6-16.3,18.2V106h-9.2V51.3h8.9v5.9h2.4
		c3-4.2,9.1-7.3,16.5-7.3c13.5,0,20.8,8.2,20.8,21.4V106H1056.7z"/>
</g>
<path class="st1" d="M1189,248.9L1189,248.9c0-23.2-18.8-42-42-42c0,0-170.3,0.7-181,0s-23.7-12.7-23.7-36.7
	c0,23.3-16.3,36.7-26.3,36.7s-189.3,0-189.3,0c-23.2,0-42,18.8-42,42l0,0"/>
<path class="st1" d="M314.8,423.3L314.8,423.3c-23.2,0-42,18.8-42,42c0,0,0.7,170.3,0,181S260.1,670,236.1,670
	c23.3,0,36.7,16.3,36.7,26.3s0,189.3,0,189.3c0,23.2,18.8,42,42,42l0,0"/>
<path class="st4" d="M1189,248.9"/>
<path class="st4" d="M684.7,248.9"/>
</svg>
