<?xml version="1.0" encoding="utf-8"?>
<!-- Generator: Adobe Illustrator 20.1.0, SVG Export Plug-In . SVG Version: 6.00 Build 0)  -->
<svg version="1.1" id="Layer_1" xmlns="http://www.w3.org/2000/svg" xmlns:xlink="http://www.w3.org/1999/xlink" x="0px" y="0px"
	 viewBox="0 0 1474 765.8" style="enable-background:new 0 0 1474 765.8;" xml:space="preserve">
<style type="text/css">
	.st0{fill:none;stroke:#007BFF;stroke-width:4;stroke-linecap:round;stroke-linejoin:round;stroke-miterlimit:10;}
	.st1{opacity:0.2;fill:#007BFF;}
	.st2{fill:none;stroke:#007BFF;stroke-width:6;stroke-miterlimit:10;}
	.st3{fill:none;stroke:#082E51;stroke-width:6;stroke-miterlimit:10;}
	.st4{fill:#007BFF;}
	.st5{fill:#082E51;}
	.st6{opacity:0.2;fill:none;stroke:#007BFF;stroke-width:4;stroke-linecap:round;stroke-linejoin:round;stroke-miterlimit:10;}
	.st7{fill:none;stroke:#FFFFFF;stroke-width:4;stroke-linecap:round;stroke-linejoin:round;stroke-miterlimit:10;}
</style>
<path d="M1296.6,4419.1c6.2,0.8,12.5,1.7,18.7,2.5c-0.1,0.6-0.1,1.1-0.2,1.7c-6.3-0.6-12.5-1.3-18.8-1.9
	C1296.5,4420.5,1296.6,4419.8,1296.6,4419.1z"/>
<path class="st0" d="M-556,313.1"/>
<circle class="st1" cx="79" cy="67.9" r="11"/>
<circle class="st1" cx="111.5" cy="67.9" r="11"/>
<circle class="st1" cx="144" cy="67.9" r="11"/>
<line class="st2" x1="269.1" y1="100.9" x2="269.1" y2="737.5"/>
<line class="st3" x1="44" y1="514.9" x2="1442" y2="514.9"/>
<g>
	<path class="st4" d="M241.6,349.5v-13.2h-42.1v1.6l7.9,11.7H200l-7.9-11.6v-8.7h49.4v-12.2h6.2v32.4H241.6z"/>
	<path class="st4" d="M220,268.8c20,0,28.9,8.7,28.9,20.5c0,11.8-8.8,20.4-28.9,20.4c-20,0-28.9-8.7-28.9-20.4
		C191,277.5,199.9,268.8,220,268.8z M220,275.8c-13.8,0-22.7,4.2-22.7,13.5c0,9.2,8.9,13.4,22.7,13.4c13.8,0,22.7-4.2,22.7-13.4
		C242.6,280,233.7,275.8,220,275.8z"/>
	<path class="st4" d="M220,219.1c20,0,28.9,8.7,28.9,20.5c0,11.8-8.8,20.4-28.9,20.4c-20,0-28.9-8.7-28.9-20.4
		C191,227.8,199.9,219.1,220,219.1z M220,226.1c-13.8,0-22.7,4.2-22.7,13.5c0,9.2,8.9,13.4,22.7,13.4c13.8,0,22.7-4.2,22.7-13.4
		C242.6,230.3,233.7,226.1,220,226.1z"/>
	<path class="st4" d="M207.7,213v-7l33.7-11.2v-3.3l-33.7-10.8v-7.1l40.1,13.4v12.6L207.7,213z"/>
	<path class="st4" d="M247.8,136.5h-24c-7.2,0-11.1,3.4-11.1,10.2c0,7.2,6.3,11.9,13.4,11.9h21.7v6.8H190v-6.8h22v-1.7
		c-3.1-2.1-5.3-6.5-5.3-11.9c0-9.8,6-15.2,15.7-15.2h25.4V136.5z"/>
</g>
<g>
	<path class="st5" d="M1189,488.3h13.2v-42.1h-1.6l-11.7,7.9v-7.3l11.6-7.9h8.7v49.4h12.2v6.2H1189V488.3z"/>
	<path class="st5" d="M1269.7,466.7c0,20-8.7,28.9-20.5,28.9c-11.8,0-20.4-8.8-20.4-28.9c0-20,8.7-28.9,20.4-28.9
		C1260.9,437.8,1269.7,446.7,1269.7,466.7z M1262.7,466.7c0-13.8-4.2-22.7-13.5-22.7c-9.2,0-13.4,8.9-13.4,22.7
		c0,13.8,4.2,22.7,13.4,22.7C1258.5,489.4,1262.7,480.5,1262.7,466.7z"/>
	<path class="st5" d="M1319.3,466.7c0,20-8.7,28.9-20.5,28.9s-20.4-8.8-20.4-28.9c0-20,8.7-28.9,20.4-28.9
		S1319.3,446.7,1319.3,466.7z M1312.3,466.7c0-13.8-4.2-22.7-13.5-22.7c-9.2,0-13.4,8.9-13.4,22.7c0,13.8,4.2,22.7,13.4,22.7
		C1308.1,489.4,1312.3,480.5,1312.3,466.7z"/>
	<path class="st5" d="M1325.5,454.5h7l11.2,33.7h3.3l10.8-33.7h7.1l-13.4,40.1h-12.6L1325.5,454.5z"/>
	<path class="st5" d="M1398.5,467.6l6.7,19.8h1.7l4.6-32.9h6.5l-5.8,40.1h-10.3l-7-20.3h-1.7l-7,20.3h-10.5l-5.7-40.1h6.5l4.8,32.9
		h1.7l6.8-19.8H1398.5z"/>
</g>
<line class="st6" x1="44" y1="100.9" x2="1442" y2="100.9"/>
<path class="st7" d="M1409.9,737.5H76.1c-17.7,0-32.1-14.4-32.1-32.1V60c0-17.7,14.4-32.1,32.1-32.1h1333.8
	c17.7,0,32.1,14.4,32.1,32.1v645.4C1442,723.2,1427.6,737.5,1409.9,737.5z"/>
<path class="st6" d="M1409.9,737.5H76.1c-17.7,0-32.1-14.4-32.1-32.1V60c0-17.7,14.4-32.1,32.1-32.1h1333.8
	c17.7,0,32.1,14.4,32.1,32.1v645.4C1442,723.2,1427.6,737.5,1409.9,737.5z"/>
</svg>
