<svg width="1600" height="900" viewBox="0 0 1600 900" fill="none" xmlns="http://www.w3.org/2000/svg">
<path fill-rule="evenodd" clip-rule="evenodd" d="M256 225C228.386 225 206 247.386 206 275V395H456V275C456 247.386 433.614 225 406 225H256ZM456 504H206V625C206 652.614 228.386 675 256 675H406C433.614 675 456 652.614 456 625V504Z" fill="#1FBC86"/>
<path fill-rule="evenodd" clip-rule="evenodd" d="M569 225C541.386 225 519 247.386 519 275V395H769V275C769 247.386 746.614 225 719 225H569ZM769 504H519V625C519 652.614 541.386 675 569 675H719C746.614 675 769 652.614 769 625V504Z" fill="#007BFF"/>
<path fill-rule="evenodd" clip-rule="evenodd" d="M882 225C854.386 225 832 247.386 832 275V395H1082V275C1082 247.386 1059.61 225 1032 225H882ZM1082 504H832V625C832 652.614 854.386 675 882 675H1032C1059.61 675 1082 652.614 1082 625V504Z" fill="#007BFF"/>
<path fill-rule="evenodd" clip-rule="evenodd" d="M1195 225C1167.39 225 1145 247.386 1145 275V395H1395V275C1395 247.386 1372.61 225 1345 225H1195ZM1395 504H1145V625C1145 652.614 1167.39 675 1195 675H1345C1372.61 675 1395 652.614 1395 625V504Z" fill="#FF4B00"/>
<path d="M1497.07 457.071C1500.98 453.166 1500.98 446.834 1497.07 442.929L1433.43 379.289C1429.53 375.384 1423.19 375.384 1419.29 379.289C1415.38 383.195 1415.38 389.526 1419.29 393.431L1475.86 450L1419.29 506.569C1415.38 510.474 1415.38 516.805 1419.29 520.711C1423.19 524.616 1429.53 524.616 1433.43 520.711L1497.07 457.071ZM110 460L1490 460V440L110 440V460Z" fill="#888888"/>
<line x1="802" y1="127" x2="802" y2="772" stroke="#888888" stroke-width="20" stroke-dasharray="40 40"/>
</svg>
