<svg width="1600" height="900" viewBox="0 0 1600 900" fill="none" xmlns="http://www.w3.org/2000/svg">
<path d="M110 450L1490 450" stroke="#888888" stroke-width="20" stroke-dasharray="40 40"/>
<path d="M792.642 876.049C796.535 879.966 802.867 879.985 806.784 876.092L870.617 812.647C874.535 808.754 874.554 802.422 870.661 798.505C866.767 794.588 860.436 794.568 856.519 798.462L799.778 854.857L743.382 798.116C739.489 794.199 733.157 794.18 729.24 798.073C725.323 801.966 725.303 808.298 729.197 812.215L792.642 876.049ZM792 126.969L789.734 868.969L809.734 869.03L812 127.031L792 126.969Z" fill="#888888"/>
<path fill-rule="evenodd" clip-rule="evenodd" d="M575 721C575 748.614 597.386 771 625 771H745V646H625C597.386 646 575 668.386 575 696V721ZM854 646V771H975C1002.61 771 1025 748.614 1025 721V696C1025 668.386 1002.61 646 975 646H854Z" fill="#FF4B00"/>
<path fill-rule="evenodd" clip-rule="evenodd" d="M575 548C575 575.614 597.386 598 625 598H745V473H625C597.386 473 575 495.386 575 523V548ZM854 473V598H975C1002.61 598 1025 575.614 1025 548V523C1025 495.386 1002.61 473 975 473H854Z" fill="#007BFF"/>
<path fill-rule="evenodd" clip-rule="evenodd" d="M575 375C575 402.614 597.386 425 625 425H745V300H625C597.386 300 575 322.386 575 350V375ZM854 300V425H975C1002.61 425 1025 402.614 1025 375V350C1025 322.386 1002.61 300 975 300H854Z" fill="#007BFF"/>
<path fill-rule="evenodd" clip-rule="evenodd" d="M575 202C575 229.614 597.386 252 625 252H745V127L625 127C597.386 127 575 149.386 575 177V202ZM854 127V252H975C1002.61 252 1025 229.614 1025 202V177C1025 149.386 1002.61 127 975 127L854 127Z" fill="#1FBC86"/>
</svg>
