<svg width="1600" height="900" viewBox="0 0 1600 900" fill="none" xmlns="http://www.w3.org/2000/svg">
<rect x="523" y="284" width="554" height="331" rx="45" stroke="#007BFF" stroke-width="10"/>
<rect opacity="0.5" x="78.5" y="281.5" width="559" height="336" rx="47.5" stroke="#007BFF" stroke-width="5" stroke-dasharray="20 20"/>
<rect opacity="0.5" x="520.5" y="35.5" width="559" height="336" rx="47.5" stroke="#007BFF" stroke-width="5" stroke-dasharray="20 20"/>
<rect opacity="0.5" x="520.5" y="513.5" width="559" height="336" rx="47.5" stroke="#007BFF" stroke-width="5" stroke-dasharray="20 20"/>
<rect opacity="0.5" x="975.5" y="281.5" width="559" height="336" rx="47.5" stroke="#007BFF" stroke-width="5" stroke-dasharray="20 20"/>
<path d="M759.305 143.5V153.734H767.195V159.32H759.305V185.531C759.305 187.224 759.656 188.5 760.359 189.359C761.062 190.193 762.26 190.609 763.953 190.609C764.786 190.609 765.932 190.453 767.391 190.141V196C765.49 196.521 763.641 196.781 761.844 196.781C758.615 196.781 756.18 195.805 754.539 193.852C752.898 191.898 752.078 189.125 752.078 185.531V159.32H744.383V153.734H752.078V143.5H759.305ZM772.977 174.477C772.977 170.336 773.784 166.612 775.398 163.305C777.039 159.997 779.305 157.445 782.195 155.648C785.112 153.852 788.432 152.953 792.156 152.953C797.911 152.953 802.56 154.945 806.102 158.93C809.669 162.914 811.453 168.214 811.453 174.828V175.336C811.453 179.451 810.659 183.148 809.07 186.43C807.508 189.685 805.255 192.224 802.312 194.047C799.396 195.87 796.036 196.781 792.234 196.781C786.505 196.781 781.857 194.789 778.289 190.805C774.747 186.82 772.977 181.547 772.977 174.984V174.477ZM780.242 175.336C780.242 180.023 781.323 183.786 783.484 186.625C785.672 189.464 788.589 190.883 792.234 190.883C795.906 190.883 798.823 189.451 800.984 186.586C803.146 183.695 804.227 179.659 804.227 174.477C804.227 169.841 803.12 166.091 800.906 163.227C798.719 160.336 795.802 158.891 792.156 158.891C788.589 158.891 785.711 160.31 783.523 163.148C781.336 165.987 780.242 170.049 780.242 175.336ZM856.219 175.336C856.219 181.768 854.747 186.951 851.805 190.883C848.862 194.815 844.878 196.781 839.852 196.781C834.721 196.781 830.685 195.154 827.742 191.898V212.25H820.516V153.734H827.117L827.469 158.422C830.411 154.776 834.5 152.953 839.734 152.953C844.812 152.953 848.823 154.867 851.766 158.695C854.734 162.523 856.219 167.849 856.219 174.672V175.336ZM848.992 174.516C848.992 169.75 847.977 165.987 845.945 163.227C843.914 160.466 841.128 159.086 837.586 159.086C833.211 159.086 829.93 161.026 827.742 164.906V185.102C829.904 188.956 833.211 190.883 837.664 190.883C841.128 190.883 843.875 189.516 845.906 186.781C847.964 184.021 848.992 179.932 848.992 174.516Z" fill="#007BFF"/>
<path d="M714.305 742.336C714.305 748.794 712.82 753.99 709.852 757.922C706.883 761.828 702.898 763.781 697.898 763.781C692.56 763.781 688.432 761.893 685.516 758.117L685.164 763H678.523V703H685.75V725.383C688.667 721.763 692.69 719.953 697.82 719.953C702.951 719.953 706.974 721.893 709.891 725.773C712.833 729.654 714.305 734.966 714.305 741.711V742.336ZM707.078 741.516C707.078 736.594 706.128 732.792 704.227 730.109C702.326 727.427 699.591 726.086 696.023 726.086C691.258 726.086 687.833 728.299 685.75 732.727V751.008C687.964 755.435 691.414 757.648 696.102 757.648C699.565 757.648 702.26 756.307 704.188 753.625C706.115 750.943 707.078 746.906 707.078 741.516ZM721.531 741.477C721.531 737.336 722.339 733.612 723.953 730.305C725.594 726.997 727.859 724.445 730.75 722.648C733.667 720.852 736.987 719.953 740.711 719.953C746.466 719.953 751.115 721.945 754.656 725.93C758.224 729.914 760.008 735.214 760.008 741.828V742.336C760.008 746.451 759.214 750.148 757.625 753.43C756.062 756.685 753.81 759.224 750.867 761.047C747.951 762.87 744.591 763.781 740.789 763.781C735.06 763.781 730.411 761.789 726.844 757.805C723.302 753.82 721.531 748.547 721.531 741.984V741.477ZM728.797 742.336C728.797 747.023 729.878 750.786 732.039 753.625C734.227 756.464 737.143 757.883 740.789 757.883C744.461 757.883 747.378 756.451 749.539 753.586C751.701 750.695 752.781 746.659 752.781 741.477C752.781 736.841 751.674 733.091 749.461 730.227C747.273 727.336 744.357 725.891 740.711 725.891C737.143 725.891 734.266 727.31 732.078 730.148C729.891 732.987 728.797 737.049 728.797 742.336ZM778.875 710.5V720.734H786.766V726.32H778.875V752.531C778.875 754.224 779.227 755.5 779.93 756.359C780.633 757.193 781.831 757.609 783.523 757.609C784.357 757.609 785.503 757.453 786.961 757.141V763C785.06 763.521 783.211 763.781 781.414 763.781C778.185 763.781 775.75 762.805 774.109 760.852C772.469 758.898 771.648 756.125 771.648 752.531V726.32H763.953V720.734H771.648V710.5H778.875ZM805.047 710.5V720.734H812.938V726.32H805.047V752.531C805.047 754.224 805.398 755.5 806.102 756.359C806.805 757.193 808.003 757.609 809.695 757.609C810.529 757.609 811.674 757.453 813.133 757.141V763C811.232 763.521 809.383 763.781 807.586 763.781C804.357 763.781 801.922 762.805 800.281 760.852C798.641 758.898 797.82 756.125 797.82 752.531V726.32H790.125V720.734H797.82V710.5H805.047ZM818.719 741.477C818.719 737.336 819.526 733.612 821.141 730.305C822.781 726.997 825.047 724.445 827.938 722.648C830.854 720.852 834.174 719.953 837.898 719.953C843.654 719.953 848.302 721.945 851.844 725.93C855.411 729.914 857.195 735.214 857.195 741.828V742.336C857.195 746.451 856.401 750.148 854.812 753.43C853.25 756.685 850.997 759.224 848.055 761.047C845.138 762.87 841.779 763.781 837.977 763.781C832.247 763.781 827.599 761.789 824.031 757.805C820.49 753.82 818.719 748.547 818.719 741.984V741.477ZM825.984 742.336C825.984 747.023 827.065 750.786 829.227 753.625C831.414 756.464 834.331 757.883 837.977 757.883C841.648 757.883 844.565 756.451 846.727 753.586C848.888 750.695 849.969 746.659 849.969 741.477C849.969 736.841 848.862 733.091 846.648 730.227C844.461 727.336 841.544 725.891 837.898 725.891C834.331 725.891 831.453 727.31 829.266 730.148C827.078 732.987 825.984 737.049 825.984 742.336ZM873.055 720.734L873.25 725.422C876.349 721.776 880.529 719.953 885.789 719.953C891.701 719.953 895.724 722.219 897.859 726.75C899.266 724.719 901.089 723.078 903.328 721.828C905.594 720.578 908.263 719.953 911.336 719.953C920.607 719.953 925.32 724.862 925.477 734.68V763H918.25V735.109C918.25 732.089 917.56 729.836 916.18 728.352C914.799 726.841 912.482 726.086 909.227 726.086C906.544 726.086 904.318 726.893 902.547 728.508C900.776 730.096 899.747 732.245 899.461 734.953V763H892.195V735.305C892.195 729.159 889.188 726.086 883.172 726.086C878.432 726.086 875.19 728.104 873.445 732.141V763H866.219V720.734H873.055Z" fill="#007BFF"/>
<path d="M1242.04 441.219C1240.95 441.036 1239.76 440.945 1238.48 440.945C1233.74 440.945 1230.53 442.964 1228.84 447V477H1221.61V434.734H1228.64L1228.76 439.617C1231.13 435.841 1234.49 433.953 1238.84 433.953C1240.24 433.953 1241.31 434.135 1242.04 434.5V441.219ZM1256.57 477H1249.34V434.734H1256.57V477ZM1248.76 423.523C1248.76 422.352 1249.11 421.362 1249.81 420.555C1250.54 419.747 1251.61 419.344 1253.02 419.344C1254.42 419.344 1255.49 419.747 1256.22 420.555C1256.95 421.362 1257.31 422.352 1257.31 423.523C1257.31 424.695 1256.95 425.672 1256.22 426.453C1255.49 427.234 1254.42 427.625 1253.02 427.625C1251.61 427.625 1250.54 427.234 1249.81 426.453C1249.11 425.672 1248.76 424.695 1248.76 423.523ZM1266.45 455.516C1266.45 448.927 1267.98 443.693 1271.02 439.812C1274.07 435.906 1278.11 433.953 1283.13 433.953C1288.29 433.953 1292.31 435.776 1295.2 439.422L1295.55 434.734H1302.16V475.984C1302.16 481.453 1300.53 485.763 1297.27 488.914C1294.04 492.065 1289.7 493.641 1284.23 493.641C1281.18 493.641 1278.2 492.99 1275.28 491.688C1272.36 490.385 1270.14 488.602 1268.6 486.336L1272.35 482C1275.45 485.828 1279.24 487.742 1283.72 487.742C1287.23 487.742 1289.97 486.753 1291.92 484.773C1293.9 482.794 1294.89 480.008 1294.89 476.414V472.781C1292 476.115 1288.05 477.781 1283.05 477.781C1278.11 477.781 1274.1 475.789 1271.02 471.805C1267.98 467.82 1266.45 462.391 1266.45 455.516ZM1273.72 456.336C1273.72 461.102 1274.7 464.852 1276.65 467.586C1278.6 470.294 1281.34 471.648 1284.85 471.648C1289.41 471.648 1292.76 469.578 1294.89 465.438V446.141C1292.68 442.104 1289.36 440.086 1284.93 440.086C1281.41 440.086 1278.67 441.453 1276.69 444.188C1274.71 446.922 1273.72 450.971 1273.72 456.336ZM1320.32 439.852C1323.52 435.919 1327.69 433.953 1332.82 433.953C1341.75 433.953 1346.26 438.992 1346.34 449.07V477H1339.11V449.031C1339.08 445.984 1338.38 443.732 1337 442.273C1335.65 440.815 1333.52 440.086 1330.63 440.086C1328.29 440.086 1326.23 440.711 1324.46 441.961C1322.69 443.211 1321.31 444.852 1320.32 446.883V477H1313.09V417H1320.32V439.852ZM1366.96 424.5V434.734H1374.85V440.32H1366.96V466.531C1366.96 468.224 1367.31 469.5 1368.02 470.359C1368.72 471.193 1369.92 471.609 1371.61 471.609C1372.44 471.609 1373.59 471.453 1375.05 471.141V477C1373.15 477.521 1371.3 477.781 1369.5 477.781C1366.27 477.781 1363.84 476.805 1362.2 474.852C1360.55 472.898 1359.73 470.125 1359.73 466.531V440.32H1352.04V434.734H1359.73V424.5H1366.96Z" fill="#007BFF"/>
<path d="M258.391 477H251.164V417H258.391V477ZM287.531 477.781C281.802 477.781 277.141 475.906 273.547 472.156C269.953 468.38 268.156 463.341 268.156 457.039V455.711C268.156 451.518 268.951 447.781 270.539 444.5C272.154 441.193 274.393 438.615 277.258 436.766C280.148 434.891 283.273 433.953 286.633 433.953C292.128 433.953 296.398 435.763 299.445 439.383C302.492 443.003 304.016 448.185 304.016 454.93V457.938H275.383C275.487 462.104 276.698 465.477 279.016 468.055C281.359 470.607 284.328 471.883 287.922 471.883C290.474 471.883 292.635 471.362 294.406 470.32C296.177 469.279 297.727 467.898 299.055 466.18L303.469 469.617C299.927 475.06 294.615 477.781 287.531 477.781ZM286.633 439.891C283.716 439.891 281.268 440.958 279.289 443.094C277.31 445.203 276.086 448.172 275.617 452H296.789V451.453C296.581 447.781 295.591 444.943 293.82 442.938C292.049 440.906 289.654 439.891 286.633 439.891ZM315.969 477V440.32H309.289V434.734H315.969V430.398C315.969 425.867 317.18 422.365 319.602 419.891C322.023 417.417 325.448 416.18 329.875 416.18C331.542 416.18 333.195 416.401 334.836 416.844L334.445 422.703C333.221 422.469 331.919 422.352 330.539 422.352C328.195 422.352 326.385 423.042 325.109 424.422C323.833 425.776 323.195 427.729 323.195 430.281V434.734H332.219V440.32H323.195V477H315.969ZM350.031 424.5V434.734H357.922V440.32H350.031V466.531C350.031 468.224 350.383 469.5 351.086 470.359C351.789 471.193 352.987 471.609 354.68 471.609C355.513 471.609 356.659 471.453 358.117 471.141V477C356.216 477.521 354.367 477.781 352.57 477.781C349.341 477.781 346.906 476.805 345.266 474.852C343.625 472.898 342.805 470.125 342.805 466.531V440.32H335.109V434.734H342.805V424.5H350.031Z" fill="#007BFF"/>
</svg>
