<svg width="1600" height="900" viewBox="0 0 1600 900" fill="none" xmlns="http://www.w3.org/2000/svg">
<rect x="280.5" y="227.5" width="295" height="445" rx="47.5" stroke="#007BFF" stroke-width="5"/>
<rect x="1025.5" y="227.5" width="295" height="445" rx="47.5" stroke="#007BFF" stroke-width="5"/>
<rect x="651.5" y="227.5" width="295" height="445" rx="47.5" stroke="#007BFF" stroke-width="5"/>
<rect x="133" y="160" width="1335" height="580" rx="45" stroke="#007BFF" stroke-width="10"/>
<path d="M379.984 423.133C376.755 422.612 374.151 422.352 372.172 422.352C366.964 422.352 364.359 425.086 364.359 430.555V434.734H373.383V440.32H364.359V477H357.133V440.32H350.453V434.734H357.133V430.125C357.159 425.62 358.422 422.169 360.922 419.773C363.422 417.378 366.977 416.18 371.586 416.18C374.216 416.18 379.424 416.974 387.211 418.562V477H379.984V423.133ZM397.133 455.477C397.133 451.336 397.94 447.612 399.555 444.305C401.195 440.997 403.461 438.445 406.352 436.648C409.268 434.852 412.589 433.953 416.312 433.953C422.068 433.953 426.716 435.945 430.258 439.93C433.826 443.914 435.609 449.214 435.609 455.828V456.336C435.609 460.451 434.815 464.148 433.227 467.43C431.664 470.685 429.411 473.224 426.469 475.047C423.552 476.87 420.193 477.781 416.391 477.781C410.661 477.781 406.013 475.789 402.445 471.805C398.904 467.82 397.133 462.547 397.133 455.984V455.477ZM404.398 456.336C404.398 461.023 405.479 464.786 407.641 467.625C409.828 470.464 412.745 471.883 416.391 471.883C420.062 471.883 422.979 470.451 425.141 467.586C427.302 464.695 428.383 460.659 428.383 455.477C428.383 450.841 427.276 447.091 425.062 444.227C422.875 441.336 419.958 439.891 416.312 439.891C412.745 439.891 409.867 441.31 407.68 444.148C405.492 446.987 404.398 451.049 404.398 456.336ZM470.766 477C470.349 476.167 470.01 474.682 469.75 472.547C466.391 476.036 462.38 477.781 457.719 477.781C453.552 477.781 450.128 476.609 447.445 474.266C444.789 471.896 443.461 468.901 443.461 465.281C443.461 460.88 445.128 457.469 448.461 455.047C451.82 452.599 456.534 451.375 462.602 451.375H469.633V448.055C469.633 445.529 468.878 443.523 467.367 442.039C465.857 440.529 463.63 439.773 460.688 439.773C458.109 439.773 455.948 440.424 454.203 441.727C452.458 443.029 451.586 444.604 451.586 446.453H444.32C444.32 444.344 445.062 442.312 446.547 440.359C448.057 438.38 450.089 436.818 452.641 435.672C455.219 434.526 458.044 433.953 461.117 433.953C465.987 433.953 469.802 435.177 472.562 437.625C475.323 440.047 476.755 443.393 476.859 447.664V467.117C476.859 470.997 477.354 474.083 478.344 476.375V477H470.766ZM458.773 471.492C461.039 471.492 463.188 470.906 465.219 469.734C467.25 468.562 468.721 467.039 469.633 465.164V456.492H463.969C455.115 456.492 450.688 459.083 450.688 464.266C450.688 466.531 451.443 468.302 452.953 469.578C454.464 470.854 456.404 471.492 458.773 471.492ZM497.992 424.5V434.734H505.883V440.32H497.992V466.531C497.992 468.224 498.344 469.5 499.047 470.359C499.75 471.193 500.948 471.609 502.641 471.609C503.474 471.609 504.62 471.453 506.078 471.141V477C504.177 477.521 502.328 477.781 500.531 477.781C497.302 477.781 494.867 476.805 493.227 474.852C491.586 472.898 490.766 470.125 490.766 466.531V440.32H483.07V434.734H490.766V424.5H497.992Z" fill="#007BFF"/>
<path d="M348.109 484.812H508.852V488.719H348.109V484.812Z" fill="#007BFF"/>
<path d="M735.93 455.516C735.93 448.927 737.453 443.693 740.5 439.812C743.547 435.906 747.583 433.953 752.609 433.953C757.766 433.953 761.789 435.776 764.68 439.422L765.031 434.734H771.633V475.984C771.633 481.453 770.005 485.763 766.75 488.914C763.521 492.065 759.172 493.641 753.703 493.641C750.656 493.641 747.674 492.99 744.758 491.688C741.841 490.385 739.615 488.602 738.078 486.336L741.828 482C744.927 485.828 748.716 487.742 753.195 487.742C756.711 487.742 759.445 486.753 761.398 484.773C763.378 482.794 764.367 480.008 764.367 476.414V472.781C761.477 476.115 757.531 477.781 752.531 477.781C747.583 477.781 743.573 475.789 740.5 471.805C737.453 467.82 735.93 462.391 735.93 455.516ZM743.195 456.336C743.195 461.102 744.172 464.852 746.125 467.586C748.078 470.294 750.812 471.648 754.328 471.648C758.885 471.648 762.232 469.578 764.367 465.438V446.141C762.154 442.104 758.833 440.086 754.406 440.086C750.891 440.086 748.143 441.453 746.164 444.188C744.185 446.922 743.195 450.971 743.195 456.336ZM803 441.219C801.906 441.036 800.721 440.945 799.445 440.945C794.706 440.945 791.49 442.964 789.797 447V477H782.57V434.734H789.602L789.719 439.617C792.089 435.841 795.448 433.953 799.797 433.953C801.203 433.953 802.271 434.135 803 434.5V441.219ZM817.531 477H810.305V434.734H817.531V477ZM809.719 423.523C809.719 422.352 810.07 421.362 810.773 420.555C811.503 419.747 812.57 419.344 813.977 419.344C815.383 419.344 816.451 419.747 817.18 420.555C817.909 421.362 818.273 422.352 818.273 423.523C818.273 424.695 817.909 425.672 817.18 426.453C816.451 427.234 815.383 427.625 813.977 427.625C812.57 427.625 811.503 427.234 810.773 426.453C810.07 425.672 809.719 424.695 809.719 423.523ZM827.375 455.516C827.375 449.031 828.911 443.823 831.984 439.891C835.057 435.932 839.081 433.953 844.055 433.953C849.003 433.953 852.922 435.646 855.812 439.031V417H863.039V477H856.398L856.047 472.469C853.156 476.01 849.133 477.781 843.977 477.781C839.081 477.781 835.083 475.776 831.984 471.766C828.911 467.755 827.375 462.521 827.375 456.062V455.516ZM834.602 456.336C834.602 461.128 835.591 464.878 837.57 467.586C839.549 470.294 842.284 471.648 845.773 471.648C850.357 471.648 853.703 469.591 855.812 465.477V446.062C853.651 442.078 850.331 440.086 845.852 440.086C842.31 440.086 839.549 441.453 837.57 444.188C835.591 446.922 834.602 450.971 834.602 456.336Z" fill="#007BFF"/>
<path d="M1141.59 423.133C1138.36 422.612 1135.75 422.352 1133.77 422.352C1128.57 422.352 1125.96 425.086 1125.96 430.555V434.734H1134.98V440.32H1125.96V477H1118.73V440.32H1112.05V434.734H1118.73V430.125C1118.76 425.62 1120.02 422.169 1122.52 419.773C1125.02 417.378 1128.58 416.18 1133.19 416.18C1135.82 416.18 1141.03 416.974 1148.81 418.562V477H1141.59V423.133ZM1178.19 477.781C1172.46 477.781 1167.8 475.906 1164.2 472.156C1160.61 468.38 1158.81 463.341 1158.81 457.039V455.711C1158.81 451.518 1159.61 447.781 1161.2 444.5C1162.81 441.193 1165.05 438.615 1167.91 436.766C1170.8 434.891 1173.93 433.953 1177.29 433.953C1182.78 433.953 1187.05 435.763 1190.1 439.383C1193.15 443.003 1194.67 448.185 1194.67 454.93V457.938H1166.04C1166.14 462.104 1167.35 465.477 1169.67 468.055C1172.02 470.607 1174.98 471.883 1178.58 471.883C1181.13 471.883 1183.29 471.362 1185.06 470.32C1186.83 469.279 1188.38 467.898 1189.71 466.18L1194.12 469.617C1190.58 475.06 1185.27 477.781 1178.19 477.781ZM1177.29 439.891C1174.37 439.891 1171.92 440.958 1169.95 443.094C1167.97 445.203 1166.74 448.172 1166.27 452H1187.45V451.453C1187.24 447.781 1186.25 444.943 1184.48 442.938C1182.71 440.906 1180.31 439.891 1177.29 439.891ZM1217.25 450.164L1226.62 434.734H1235.06L1221.23 455.633L1235.49 477H1227.13L1217.37 461.18L1207.6 477H1199.2L1213.46 455.633L1199.63 434.734H1207.99L1217.25 450.164Z" fill="#007BFF"/>
</svg>
