<svg width="1600" height="900" viewBox="0 0 1600 900" fill="none" xmlns="http://www.w3.org/2000/svg">
<rect x="278.5" y="293.5" width="297" height="447" rx="48.5" fill="#007BFF" fill-opacity="0.1" stroke="#007BFF" stroke-width="3"/>
<rect x="1023.5" y="293.5" width="297" height="447" rx="48.5" stroke="#007BFF" stroke-width="3"/>
<rect x="649.5" y="293.5" width="297" height="447" rx="48.5" stroke="#007BFF" stroke-width="3"/>
<path d="M361.305 507.16H352.105V545H344.825V507.16H339.145V501.16H344.825V498.04C344.825 493.133 346.078 489.56 348.585 487.32C351.145 485.027 355.225 483.88 360.825 483.88V489.96C357.625 489.96 355.358 490.6 354.025 491.88C352.745 493.107 352.105 495.16 352.105 498.04V501.16H361.305V507.16ZM377.073 485.8V545H369.793V485.8H377.073ZM408.6 545.72C404.494 545.72 400.76 544.787 397.4 542.92C394.094 541.053 391.48 538.413 389.56 535C387.694 531.533 386.76 527.533 386.76 523C386.76 518.52 387.72 514.573 389.64 511.16C391.614 507.693 394.28 505.053 397.64 503.24C401 501.373 404.76 500.44 408.92 500.44C413.08 500.44 416.84 501.373 420.2 503.24C423.56 505.053 426.2 507.667 428.12 511.08C430.094 514.493 431.08 518.467 431.08 523C431.08 527.533 430.067 531.533 428.04 535C426.067 538.413 423.374 541.053 419.96 542.92C416.547 544.787 412.76 545.72 408.6 545.72ZM408.6 539.32C411.214 539.32 413.667 538.707 415.96 537.48C418.254 536.253 420.094 534.413 421.48 531.96C422.92 529.507 423.64 526.52 423.64 523C423.64 519.48 422.947 516.493 421.56 514.04C420.174 511.587 418.36 509.773 416.12 508.6C413.88 507.373 411.454 506.76 408.84 506.76C406.174 506.76 403.72 507.373 401.48 508.6C399.294 509.773 397.534 511.587 396.2 514.04C394.867 516.493 394.2 519.48 394.2 523C394.2 526.573 394.84 529.587 396.12 532.04C397.454 534.493 399.214 536.333 401.4 537.56C403.587 538.733 405.987 539.32 408.6 539.32ZM437.932 522.92C437.932 518.44 438.839 514.52 440.652 511.16C442.466 507.747 444.946 505.107 448.092 503.24C451.292 501.373 454.839 500.44 458.732 500.44C462.572 500.44 465.906 501.267 468.732 502.92C471.559 504.573 473.666 506.653 475.052 509.16V501.16H482.412V545H475.052V536.84C473.612 539.4 471.452 541.533 468.572 543.24C465.746 544.893 462.439 545.72 458.652 545.72C454.759 545.72 451.239 544.76 448.092 542.84C444.946 540.92 442.466 538.227 440.652 534.76C438.839 531.293 437.932 527.347 437.932 522.92ZM475.052 523C475.052 519.693 474.386 516.813 473.052 514.36C471.719 511.907 469.906 510.04 467.612 508.76C465.372 507.427 462.892 506.76 460.172 506.76C457.452 506.76 454.972 507.4 452.732 508.68C450.492 509.96 448.706 511.827 447.372 514.28C446.039 516.733 445.372 519.613 445.372 522.92C445.372 526.28 446.039 529.213 447.372 531.72C448.706 534.173 450.492 536.067 452.732 537.4C454.972 538.68 457.452 539.32 460.172 539.32C462.892 539.32 465.372 538.68 467.612 537.4C469.906 536.067 471.719 534.173 473.052 531.72C474.386 529.213 475.052 526.307 475.052 523ZM503.595 507.16V533C503.595 535.133 504.048 536.653 504.955 537.56C505.861 538.413 507.435 538.84 509.675 538.84H515.035V545H508.475C504.421 545 501.381 544.067 499.355 542.2C497.328 540.333 496.315 537.267 496.315 533V507.16H490.635V501.16H496.315V490.12H503.595V501.16H515.035V507.16H503.595Z" fill="#007BFF"/>
<path d="M744.912 500.44C748.699 500.44 752.005 501.267 754.832 502.92C757.712 504.573 759.845 506.653 761.232 509.16V501.16H768.592V545.96C768.592 549.96 767.739 553.507 766.032 556.6C764.325 559.747 761.872 562.2 758.672 563.96C755.525 565.72 751.845 566.6 747.632 566.6C741.872 566.6 737.072 565.24 733.232 562.52C729.392 559.8 727.125 556.093 726.432 551.4H733.632C734.432 554.067 736.085 556.2 738.592 557.8C741.099 559.453 744.112 560.28 747.632 560.28C751.632 560.28 754.885 559.027 757.392 556.52C759.952 554.013 761.232 550.493 761.232 545.96V536.76C759.792 539.32 757.659 541.453 754.832 543.16C752.005 544.867 748.699 545.72 744.912 545.72C741.019 545.72 737.472 544.76 734.272 542.84C731.125 540.92 728.645 538.227 726.832 534.76C725.019 531.293 724.112 527.347 724.112 522.92C724.112 518.44 725.019 514.52 726.832 511.16C728.645 507.747 731.125 505.107 734.272 503.24C737.472 501.373 741.019 500.44 744.912 500.44ZM761.232 523C761.232 519.693 760.565 516.813 759.232 514.36C757.899 511.907 756.085 510.04 753.792 508.76C751.552 507.427 749.072 506.76 746.352 506.76C743.632 506.76 741.152 507.4 738.912 508.68C736.672 509.96 734.885 511.827 733.552 514.28C732.219 516.733 731.552 519.613 731.552 522.92C731.552 526.28 732.219 529.213 733.552 531.72C734.885 534.173 736.672 536.067 738.912 537.4C741.152 538.68 743.632 539.32 746.352 539.32C749.072 539.32 751.552 538.68 753.792 537.4C756.085 536.067 757.899 534.173 759.232 531.72C760.565 529.213 761.232 526.307 761.232 523ZM788.174 508.28C789.454 505.773 791.268 503.827 793.614 502.44C796.014 501.053 798.921 500.36 802.334 500.36V507.88H800.414C792.254 507.88 788.174 512.307 788.174 521.16V545H780.894V501.16H788.174V508.28ZM814.498 494.04C813.111 494.04 811.938 493.56 810.978 492.6C810.018 491.64 809.538 490.467 809.538 489.08C809.538 487.693 810.018 486.52 810.978 485.56C811.938 484.6 813.111 484.12 814.498 484.12C815.831 484.12 816.951 484.6 817.858 485.56C818.818 486.52 819.298 487.693 819.298 489.08C819.298 490.467 818.818 491.64 817.858 492.6C816.951 493.56 815.831 494.04 814.498 494.04ZM818.018 501.16V545H810.738V501.16H818.018ZM827.706 522.92C827.706 518.44 828.612 514.52 830.426 511.16C832.239 507.747 834.719 505.107 837.866 503.24C841.066 501.373 844.639 500.44 848.586 500.44C851.999 500.44 855.172 501.24 858.106 502.84C861.039 504.387 863.279 506.44 864.826 509V485.8H872.186V545H864.826V536.76C863.386 539.373 861.252 541.533 858.426 543.24C855.599 544.893 852.292 545.72 848.506 545.72C844.612 545.72 841.066 544.76 837.866 542.84C834.719 540.92 832.239 538.227 830.426 534.76C828.612 531.293 827.706 527.347 827.706 522.92ZM864.826 523C864.826 519.693 864.159 516.813 862.826 514.36C861.492 511.907 859.679 510.04 857.386 508.76C855.146 507.427 852.666 506.76 849.946 506.76C847.226 506.76 844.746 507.4 842.506 508.68C840.266 509.96 838.479 511.827 837.146 514.28C835.812 516.733 835.146 519.613 835.146 522.92C835.146 526.28 835.812 529.213 837.146 531.72C838.479 534.173 840.266 536.067 842.506 537.4C844.746 538.68 847.226 539.32 849.946 539.32C852.666 539.32 855.146 538.68 857.386 537.4C859.679 536.067 861.492 534.173 862.826 531.72C864.159 529.213 864.826 526.307 864.826 523Z" fill="#007BFF"/>
<path d="M726.516 631.975C726.516 632.808 726.266 633.458 725.766 633.925C725.266 634.392 724.625 634.708 723.841 634.875V634.975C724.675 635.092 725.4 635.392 726.016 635.875C726.633 636.342 726.941 637.075 726.941 638.075C726.941 639.208 726.516 640.15 725.666 640.9C724.833 641.633 723.45 642 721.516 642H715.741V628.6H721.491C722.441 628.6 723.291 628.708 724.041 628.925C724.808 629.125 725.408 629.475 725.841 629.975C726.291 630.458 726.516 631.125 726.516 631.975ZM724.291 632.25C724.291 631.617 724.058 631.158 723.591 630.875C723.141 630.575 722.4 630.425 721.366 630.425H717.941V634.1H720.966C723.183 634.1 724.291 633.483 724.291 632.25ZM724.666 638.075C724.666 637.308 724.375 636.758 723.791 636.425C723.208 636.092 722.35 635.925 721.216 635.925H717.941V640.225H721.266C722.366 640.225 723.208 640.067 723.791 639.75C724.375 639.417 724.666 638.858 724.666 638.075ZM742.186 642.25C741.002 642.25 739.944 642.008 739.011 641.525C738.094 641.042 737.369 640.292 736.836 639.275C736.319 638.258 736.061 636.958 736.061 635.375C736.061 633.725 736.336 632.383 736.886 631.35C737.436 630.317 738.177 629.558 739.111 629.075C740.061 628.592 741.136 628.35 742.336 628.35C743.019 628.35 743.677 628.425 744.311 628.575C744.944 628.708 745.461 628.875 745.861 629.075L745.186 630.9C744.786 630.75 744.319 630.608 743.786 630.475C743.252 630.342 742.752 630.275 742.286 630.275C739.652 630.275 738.336 631.967 738.336 635.35C738.336 636.967 738.652 638.208 739.286 639.075C739.936 639.925 740.894 640.35 742.161 640.35C742.894 640.35 743.536 640.275 744.086 640.125C744.652 639.975 745.169 639.792 745.636 639.575V641.525C745.186 641.758 744.686 641.933 744.136 642.05C743.602 642.183 742.952 642.25 742.186 642.25ZM759.022 642H756.797V630.425H752.847C752.631 633.242 752.331 635.517 751.947 637.25C751.564 638.967 751.056 640.217 750.422 641C749.789 641.783 748.989 642.175 748.022 642.175C747.806 642.175 747.589 642.158 747.372 642.125C747.172 642.108 747.006 642.067 746.872 642V640.35C746.972 640.383 747.081 640.408 747.197 640.425C747.314 640.442 747.431 640.45 747.547 640.45C748.447 640.45 749.164 639.492 749.697 637.575C750.247 635.658 750.664 632.667 750.947 628.6H759.022V642ZM768.45 628.35C769.6 628.35 770.584 628.6 771.4 629.1C772.234 629.6 772.867 630.308 773.3 631.225C773.75 632.125 773.975 633.183 773.975 634.4V635.725H764.8C764.834 637.242 765.217 638.4 765.95 639.2C766.7 639.983 767.742 640.375 769.075 640.375C769.925 640.375 770.675 640.3 771.325 640.15C771.992 639.983 772.675 639.75 773.375 639.45V641.375C772.692 641.675 772.017 641.892 771.35 642.025C770.684 642.175 769.892 642.25 768.975 642.25C767.709 642.25 766.584 641.992 765.6 641.475C764.634 640.958 763.875 640.192 763.325 639.175C762.792 638.142 762.525 636.883 762.525 635.4C762.525 633.933 762.767 632.675 763.25 631.625C763.75 630.575 764.442 629.767 765.325 629.2C766.225 628.633 767.267 628.35 768.45 628.35ZM768.425 630.15C767.375 630.15 766.542 630.492 765.925 631.175C765.325 631.842 764.967 632.775 764.85 633.975H771.675C771.659 632.842 771.392 631.925 770.875 631.225C770.359 630.508 769.542 630.15 768.425 630.15ZM787.337 628.6V640.15H789.287V646.65H787.162V642H777.837V646.65H775.737V640.15H776.812C777.962 638.567 778.82 636.767 779.387 634.75C779.97 632.717 780.27 630.667 780.287 628.6H787.337ZM782.237 630.325C782.17 631.458 781.995 632.633 781.712 633.85C781.428 635.05 781.062 636.2 780.612 637.3C780.178 638.4 779.67 639.35 779.087 640.15H785.212V630.325H782.237ZM789.813 628.6H792.163L795.063 636.225C795.313 636.892 795.538 637.533 795.738 638.15C795.938 638.75 796.088 639.325 796.188 639.875H796.288C796.388 639.458 796.546 638.917 796.763 638.25C796.98 637.567 797.205 636.883 797.438 636.2L800.163 628.6H802.538L796.763 643.85C796.296 645.117 795.688 646.125 794.938 646.875C794.205 647.625 793.188 648 791.888 648C791.488 648 791.138 647.975 790.838 647.925C790.538 647.892 790.28 647.85 790.063 647.8V646.05C790.246 646.083 790.463 646.117 790.713 646.15C790.98 646.183 791.255 646.2 791.538 646.2C792.305 646.2 792.921 645.983 793.388 645.55C793.871 645.117 794.246 644.542 794.513 643.825L795.213 642.05L789.813 628.6ZM822.057 635.275C822.057 637.492 821.524 639.208 820.457 640.425C819.391 641.642 817.949 642.25 816.132 642.25C814.432 642.25 813.057 641.717 812.007 640.65C810.974 639.583 810.391 638.042 810.257 636.025H806.857V642H804.657V628.6H806.857V634.175H810.282C810.466 632.292 811.074 630.85 812.107 629.85C813.141 628.85 814.499 628.35 816.182 628.35C817.332 628.35 818.349 628.625 819.232 629.175C820.116 629.708 820.807 630.492 821.307 631.525C821.807 632.542 822.057 633.792 822.057 635.275ZM812.507 635.275C812.507 636.958 812.799 638.242 813.382 639.125C813.966 639.992 814.891 640.425 816.157 640.425C817.441 640.425 818.366 639.992 818.932 639.125C819.499 638.242 819.782 636.958 819.782 635.275C819.782 633.592 819.491 632.325 818.907 631.475C818.341 630.625 817.424 630.2 816.157 630.2C814.891 630.2 813.966 630.625 813.382 631.475C812.799 632.325 812.507 633.592 812.507 635.275ZM843.706 628.6V640.175H845.656V646.625H843.456V642H825.556V628.6H827.756V640.15H833.531V628.6H835.731V640.15H841.531V628.6H843.706ZM850.287 636.775C850.287 636.975 850.279 637.275 850.262 637.675C850.245 638.075 850.22 638.475 850.187 638.875C850.17 639.275 850.154 639.592 850.137 639.825L857.312 628.6H860.012V642H857.962V634.1C857.962 633.833 857.962 633.483 857.962 633.05C857.979 632.617 857.995 632.192 858.012 631.775C858.029 631.342 858.045 631.017 858.062 630.8L850.937 642H848.212V628.6H850.287V636.775ZM867.451 635.15L862.826 628.6H865.326L868.776 633.65L872.201 628.6H874.676L870.051 635.15L874.926 642H872.426L868.776 636.65L865.076 642H862.601L867.451 635.15ZM756.398 680H754.173V668.425H750.223C750.006 671.242 749.706 673.517 749.323 675.25C748.939 676.967 748.431 678.217 747.798 679C747.164 679.783 746.364 680.175 745.398 680.175C745.181 680.175 744.964 680.158 744.748 680.125C744.548 680.108 744.381 680.067 744.248 680V678.35C744.348 678.383 744.456 678.408 744.573 678.425C744.689 678.442 744.806 678.45 744.923 678.45C745.823 678.45 746.539 677.492 747.073 675.575C747.623 673.658 748.039 670.667 748.323 666.6H756.398V680ZM765.826 666.35C766.976 666.35 767.959 666.6 768.776 667.1C769.609 667.6 770.243 668.308 770.676 669.225C771.126 670.125 771.351 671.183 771.351 672.4V673.725H762.176C762.209 675.242 762.593 676.4 763.326 677.2C764.076 677.983 765.118 678.375 766.451 678.375C767.301 678.375 768.051 678.3 768.701 678.15C769.368 677.983 770.051 677.75 770.751 677.45V679.375C770.068 679.675 769.393 679.892 768.726 680.025C768.059 680.175 767.268 680.25 766.351 680.25C765.084 680.25 763.959 679.992 762.976 679.475C762.009 678.958 761.251 678.192 760.701 677.175C760.168 676.142 759.901 674.883 759.901 673.4C759.901 671.933 760.143 670.675 760.626 669.625C761.126 668.575 761.818 667.767 762.701 667.2C763.601 666.633 764.643 666.35 765.826 666.35ZM765.801 668.15C764.751 668.15 763.918 668.492 763.301 669.175C762.701 669.842 762.343 670.775 762.226 671.975H769.051C769.034 670.842 768.768 669.925 768.251 669.225C767.734 668.508 766.918 668.15 765.801 668.15ZM782.687 666.6H785.087L779.362 673.05L785.562 680H783.012L776.962 673.2V680H774.762V666.6H776.962V673.1L782.687 666.6ZM801.22 684.65H799.07V680H787.995V666.6H790.195V678.15H797.12V666.6H799.32V678.175H801.22V684.65ZM805.866 674.775C805.866 674.975 805.857 675.275 805.841 675.675C805.824 676.075 805.799 676.475 805.766 676.875C805.749 677.275 805.732 677.592 805.716 677.825L812.891 666.6H815.591V680H813.541V672.1C813.541 671.833 813.541 671.483 813.541 671.05C813.557 670.617 813.574 670.192 813.591 669.775C813.607 669.342 813.624 669.017 813.641 668.8L806.516 680H803.791V666.6H805.866V674.775ZM820.68 680H818.13L821.955 674.375C821.438 674.242 820.938 674.033 820.455 673.75C819.972 673.45 819.58 673.042 819.28 672.525C818.98 671.992 818.83 671.333 818.83 670.55C818.83 669.267 819.263 668.292 820.13 667.625C820.997 666.942 822.147 666.6 823.58 666.6H829.58V680H827.38V674.675H824.13L820.68 680ZM820.955 670.575C820.955 671.342 821.238 671.917 821.805 672.3C822.388 672.667 823.197 672.85 824.23 672.85H827.38V668.425H823.805C822.788 668.425 822.055 668.625 821.605 669.025C821.172 669.425 820.955 669.942 820.955 670.575ZM836.995 673.15L832.37 666.6H834.87L838.32 671.65L841.745 666.6H844.22L839.595 673.15L844.47 680H841.97L838.32 674.65L834.62 680H832.145L836.995 673.15Z" fill="#007BFF"/>
<path d="M1104.52 631.975C1104.52 632.808 1104.27 633.458 1103.77 633.925C1103.27 634.392 1102.62 634.708 1101.84 634.875V634.975C1102.67 635.092 1103.4 635.392 1104.02 635.875C1104.63 636.342 1104.94 637.075 1104.94 638.075C1104.94 639.208 1104.52 640.15 1103.67 640.9C1102.83 641.633 1101.45 642 1099.52 642H1093.74V628.6H1099.49C1100.44 628.6 1101.29 628.708 1102.04 628.925C1102.81 629.125 1103.41 629.475 1103.84 629.975C1104.29 630.458 1104.52 631.125 1104.52 631.975ZM1102.29 632.25C1102.29 631.617 1102.06 631.158 1101.59 630.875C1101.14 630.575 1100.4 630.425 1099.37 630.425H1095.94V634.1H1098.97C1101.18 634.1 1102.29 633.483 1102.29 632.25ZM1102.67 638.075C1102.67 637.308 1102.37 636.758 1101.79 636.425C1101.21 636.092 1100.35 635.925 1099.22 635.925H1095.94V640.225H1099.27C1100.37 640.225 1101.21 640.067 1101.79 639.75C1102.37 639.417 1102.67 638.858 1102.67 638.075ZM1120.19 642.25C1119 642.25 1117.94 642.008 1117.01 641.525C1116.09 641.042 1115.37 640.292 1114.84 639.275C1114.32 638.258 1114.06 636.958 1114.06 635.375C1114.06 633.725 1114.34 632.383 1114.89 631.35C1115.44 630.317 1116.18 629.558 1117.11 629.075C1118.06 628.592 1119.14 628.35 1120.34 628.35C1121.02 628.35 1121.68 628.425 1122.31 628.575C1122.94 628.708 1123.46 628.875 1123.86 629.075L1123.19 630.9C1122.79 630.75 1122.32 630.608 1121.79 630.475C1121.25 630.342 1120.75 630.275 1120.29 630.275C1117.65 630.275 1116.34 631.967 1116.34 635.35C1116.34 636.967 1116.65 638.208 1117.29 639.075C1117.94 639.925 1118.89 640.35 1120.16 640.35C1120.89 640.35 1121.54 640.275 1122.09 640.125C1122.65 639.975 1123.17 639.792 1123.64 639.575V641.525C1123.19 641.758 1122.69 641.933 1122.14 642.05C1121.6 642.183 1120.95 642.25 1120.19 642.25ZM1137.02 642H1134.8V630.425H1130.85C1130.63 633.242 1130.33 635.517 1129.95 637.25C1129.56 638.967 1129.06 640.217 1128.42 641C1127.79 641.783 1126.99 642.175 1126.02 642.175C1125.81 642.175 1125.59 642.158 1125.37 642.125C1125.17 642.108 1125.01 642.067 1124.87 642V640.35C1124.97 640.383 1125.08 640.408 1125.2 640.425C1125.31 640.442 1125.43 640.45 1125.55 640.45C1126.45 640.45 1127.16 639.492 1127.7 637.575C1128.25 635.658 1128.66 632.667 1128.95 628.6H1137.02V642ZM1146.45 628.35C1147.6 628.35 1148.58 628.6 1149.4 629.1C1150.23 629.6 1150.87 630.308 1151.3 631.225C1151.75 632.125 1151.98 633.183 1151.98 634.4V635.725H1142.8C1142.83 637.242 1143.22 638.4 1143.95 639.2C1144.7 639.983 1145.74 640.375 1147.08 640.375C1147.93 640.375 1148.68 640.3 1149.33 640.15C1149.99 639.983 1150.68 639.75 1151.38 639.45V641.375C1150.69 641.675 1150.02 641.892 1149.35 642.025C1148.68 642.175 1147.89 642.25 1146.98 642.25C1145.71 642.25 1144.58 641.992 1143.6 641.475C1142.63 640.958 1141.88 640.192 1141.33 639.175C1140.79 638.142 1140.53 636.883 1140.53 635.4C1140.53 633.933 1140.77 632.675 1141.25 631.625C1141.75 630.575 1142.44 629.767 1143.33 629.2C1144.23 628.633 1145.27 628.35 1146.45 628.35ZM1146.43 630.15C1145.38 630.15 1144.54 630.492 1143.93 631.175C1143.33 631.842 1142.97 632.775 1142.85 633.975H1149.68C1149.66 632.842 1149.39 631.925 1148.88 631.225C1148.36 630.508 1147.54 630.15 1146.43 630.15ZM1165.34 628.6V640.15H1167.29V646.65H1165.16V642H1155.84V646.65H1153.74V640.15H1154.81C1155.96 638.567 1156.82 636.767 1157.39 634.75C1157.97 632.717 1158.27 630.667 1158.29 628.6H1165.34ZM1160.24 630.325C1160.17 631.458 1160 632.633 1159.71 633.85C1159.43 635.05 1159.06 636.2 1158.61 637.3C1158.18 638.4 1157.67 639.35 1157.09 640.15H1163.21V630.325H1160.24ZM1167.81 628.6H1170.16L1173.06 636.225C1173.31 636.892 1173.54 637.533 1173.74 638.15C1173.94 638.75 1174.09 639.325 1174.19 639.875H1174.29C1174.39 639.458 1174.55 638.917 1174.76 638.25C1174.98 637.567 1175.2 636.883 1175.44 636.2L1178.16 628.6H1180.54L1174.76 643.85C1174.3 645.117 1173.69 646.125 1172.94 646.875C1172.2 647.625 1171.19 648 1169.89 648C1169.49 648 1169.14 647.975 1168.84 647.925C1168.54 647.892 1168.28 647.85 1168.06 647.8V646.05C1168.25 646.083 1168.46 646.117 1168.71 646.15C1168.98 646.183 1169.25 646.2 1169.54 646.2C1170.3 646.2 1170.92 645.983 1171.39 645.55C1171.87 645.117 1172.25 644.542 1172.51 643.825L1173.21 642.05L1167.81 628.6ZM1200.06 635.275C1200.06 637.492 1199.52 639.208 1198.46 640.425C1197.39 641.642 1195.95 642.25 1194.13 642.25C1192.43 642.25 1191.06 641.717 1190.01 640.65C1188.97 639.583 1188.39 638.042 1188.26 636.025H1184.86V642H1182.66V628.6H1184.86V634.175H1188.28C1188.47 632.292 1189.07 630.85 1190.11 629.85C1191.14 628.85 1192.5 628.35 1194.18 628.35C1195.33 628.35 1196.35 628.625 1197.23 629.175C1198.12 629.708 1198.81 630.492 1199.31 631.525C1199.81 632.542 1200.06 633.792 1200.06 635.275ZM1190.51 635.275C1190.51 636.958 1190.8 638.242 1191.38 639.125C1191.97 639.992 1192.89 640.425 1194.16 640.425C1195.44 640.425 1196.37 639.992 1196.93 639.125C1197.5 638.242 1197.78 636.958 1197.78 635.275C1197.78 633.592 1197.49 632.325 1196.91 631.475C1196.34 630.625 1195.42 630.2 1194.16 630.2C1192.89 630.2 1191.97 630.625 1191.38 631.475C1190.8 632.325 1190.51 633.592 1190.51 635.275ZM1221.71 628.6V640.175H1223.66V646.625H1221.46V642H1203.56V628.6H1205.76V640.15H1211.53V628.6H1213.73V640.15H1219.53V628.6H1221.71ZM1228.29 636.775C1228.29 636.975 1228.28 637.275 1228.26 637.675C1228.25 638.075 1228.22 638.475 1228.19 638.875C1228.17 639.275 1228.15 639.592 1228.14 639.825L1235.31 628.6H1238.01V642H1235.96V634.1C1235.96 633.833 1235.96 633.483 1235.96 633.05C1235.98 632.617 1236 632.192 1236.01 631.775C1236.03 631.342 1236.05 631.017 1236.06 630.8L1228.94 642H1226.21V628.6H1228.29V636.775ZM1245.45 635.15L1240.83 628.6H1243.33L1246.78 633.65L1250.2 628.6H1252.68L1248.05 635.15L1252.93 642H1250.43L1246.78 636.65L1243.08 642H1240.6L1245.45 635.15ZM1134.4 680H1132.17V668.425H1128.22C1128.01 671.242 1127.71 673.517 1127.32 675.25C1126.94 676.967 1126.43 678.217 1125.8 679C1125.16 679.783 1124.36 680.175 1123.4 680.175C1123.18 680.175 1122.96 680.158 1122.75 680.125C1122.55 680.108 1122.38 680.067 1122.25 680V678.35C1122.35 678.383 1122.46 678.408 1122.57 678.425C1122.69 678.442 1122.81 678.45 1122.92 678.45C1123.82 678.45 1124.54 677.492 1125.07 675.575C1125.62 673.658 1126.04 670.667 1126.32 666.6H1134.4V680ZM1143.83 666.35C1144.98 666.35 1145.96 666.6 1146.78 667.1C1147.61 667.6 1148.24 668.308 1148.68 669.225C1149.13 670.125 1149.35 671.183 1149.35 672.4V673.725H1140.18C1140.21 675.242 1140.59 676.4 1141.33 677.2C1142.08 677.983 1143.12 678.375 1144.45 678.375C1145.3 678.375 1146.05 678.3 1146.7 678.15C1147.37 677.983 1148.05 677.75 1148.75 677.45V679.375C1148.07 679.675 1147.39 679.892 1146.73 680.025C1146.06 680.175 1145.27 680.25 1144.35 680.25C1143.08 680.25 1141.96 679.992 1140.98 679.475C1140.01 678.958 1139.25 678.192 1138.7 677.175C1138.17 676.142 1137.9 674.883 1137.9 673.4C1137.9 671.933 1138.14 670.675 1138.63 669.625C1139.13 668.575 1139.82 667.767 1140.7 667.2C1141.6 666.633 1142.64 666.35 1143.83 666.35ZM1143.8 668.15C1142.75 668.15 1141.92 668.492 1141.3 669.175C1140.7 669.842 1140.34 670.775 1140.23 671.975H1147.05C1147.03 670.842 1146.77 669.925 1146.25 669.225C1145.73 668.508 1144.92 668.15 1143.8 668.15ZM1160.69 666.6H1163.09L1157.36 673.05L1163.56 680H1161.01L1154.96 673.2V680H1152.76V666.6H1154.96V673.1L1160.69 666.6ZM1179.22 684.65H1177.07V680H1165.99V666.6H1168.19V678.15H1175.12V666.6H1177.32V678.175H1179.22V684.65ZM1183.87 674.775C1183.87 674.975 1183.86 675.275 1183.84 675.675C1183.82 676.075 1183.8 676.475 1183.77 676.875C1183.75 677.275 1183.73 677.592 1183.72 677.825L1190.89 666.6H1193.59V680H1191.54V672.1C1191.54 671.833 1191.54 671.483 1191.54 671.05C1191.56 670.617 1191.57 670.192 1191.59 669.775C1191.61 669.342 1191.62 669.017 1191.64 668.8L1184.52 680H1181.79V666.6H1183.87V674.775ZM1198.68 680H1196.13L1199.95 674.375C1199.44 674.242 1198.94 674.033 1198.45 673.75C1197.97 673.45 1197.58 673.042 1197.28 672.525C1196.98 671.992 1196.83 671.333 1196.83 670.55C1196.83 669.267 1197.26 668.292 1198.13 667.625C1199 666.942 1200.15 666.6 1201.58 666.6H1207.58V680H1205.38V674.675H1202.13L1198.68 680ZM1198.95 670.575C1198.95 671.342 1199.24 671.917 1199.8 672.3C1200.39 672.667 1201.2 672.85 1202.23 672.85H1205.38V668.425H1201.8C1200.79 668.425 1200.05 668.625 1199.6 669.025C1199.17 669.425 1198.95 669.942 1198.95 670.575ZM1214.99 673.15L1210.37 666.6H1212.87L1216.32 671.65L1219.74 666.6H1222.22L1217.59 673.15L1222.47 680H1219.97L1216.32 674.65L1212.62 680H1210.14L1214.99 673.15Z" fill="#007BFF"/>
<path d="M361.525 628.35C363.175 628.35 364.5 628.925 365.5 630.075C366.517 631.225 367.025 632.958 367.025 635.275C367.025 637.558 366.517 639.292 365.5 640.475C364.5 641.658 363.167 642.25 361.5 642.25C360.467 642.25 359.608 642.058 358.925 641.675C358.258 641.275 357.733 640.817 357.35 640.3H357.2C357.233 640.583 357.267 640.942 357.3 641.375C357.333 641.808 357.35 642.183 357.35 642.5V648H355.15V628.6H356.95L357.25 630.425H357.35C357.75 629.842 358.275 629.35 358.925 628.95C359.575 628.55 360.442 628.35 361.525 628.35ZM361.125 630.2C359.758 630.2 358.792 630.583 358.225 631.35C357.675 632.117 357.383 633.283 357.35 634.85V635.275C357.35 636.925 357.617 638.2 358.15 639.1C358.7 639.983 359.708 640.425 361.175 640.425C361.992 640.425 362.658 640.2 363.175 639.75C363.708 639.3 364.1 638.692 364.35 637.925C364.617 637.142 364.75 636.25 364.75 635.25C364.75 633.717 364.45 632.492 363.85 631.575C363.267 630.658 362.358 630.2 361.125 630.2ZM375.606 628.375C377.239 628.375 378.447 628.733 379.231 629.45C380.014 630.167 380.406 631.308 380.406 632.875V642H378.806L378.381 640.1H378.281C377.697 640.833 377.081 641.375 376.431 641.725C375.797 642.075 374.914 642.25 373.781 642.25C372.564 642.25 371.556 641.933 370.756 641.3C369.956 640.65 369.556 639.642 369.556 638.275C369.556 636.942 370.081 635.917 371.131 635.2C372.181 634.467 373.797 634.067 375.981 634L378.256 633.925V633.125C378.256 632.008 378.014 631.233 377.531 630.8C377.047 630.367 376.364 630.15 375.481 630.15C374.781 630.15 374.114 630.258 373.481 630.475C372.847 630.675 372.256 630.908 371.706 631.175L371.031 629.525C371.614 629.208 372.306 628.942 373.106 628.725C373.906 628.492 374.739 628.375 375.606 628.375ZM376.256 635.525C374.589 635.592 373.431 635.858 372.781 636.325C372.147 636.792 371.831 637.45 371.831 638.3C371.831 639.05 372.056 639.6 372.506 639.95C372.972 640.3 373.564 640.475 374.281 640.475C375.414 640.475 376.356 640.167 377.106 639.55C377.856 638.917 378.231 637.95 378.231 636.65V635.45L376.256 635.525ZM389.919 642.25C388.736 642.25 387.678 642.008 386.744 641.525C385.828 641.042 385.103 640.292 384.569 639.275C384.053 638.258 383.794 636.958 383.794 635.375C383.794 633.725 384.069 632.383 384.619 631.35C385.169 630.317 385.911 629.558 386.844 629.075C387.794 628.592 388.869 628.35 390.069 628.35C390.753 628.35 391.411 628.425 392.044 628.575C392.678 628.708 393.194 628.875 393.594 629.075L392.919 630.9C392.519 630.75 392.053 630.608 391.519 630.475C390.986 630.342 390.486 630.275 390.019 630.275C387.386 630.275 386.069 631.967 386.069 635.35C386.069 636.967 386.386 638.208 387.019 639.075C387.669 639.925 388.628 640.35 389.894 640.35C390.628 640.35 391.269 640.275 391.819 640.125C392.386 639.975 392.903 639.792 393.369 639.575V641.525C392.919 641.758 392.419 641.933 391.869 642.05C391.336 642.183 390.686 642.25 389.919 642.25ZM401.931 642.25C400.748 642.25 399.689 642.008 398.756 641.525C397.839 641.042 397.114 640.292 396.581 639.275C396.064 638.258 395.806 636.958 395.806 635.375C395.806 633.725 396.081 632.383 396.631 631.35C397.181 630.317 397.923 629.558 398.856 629.075C399.806 628.592 400.881 628.35 402.081 628.35C402.764 628.35 403.423 628.425 404.056 628.575C404.689 628.708 405.206 628.875 405.606 629.075L404.931 630.9C404.531 630.75 404.064 630.608 403.531 630.475C402.998 630.342 402.498 630.275 402.031 630.275C399.398 630.275 398.081 631.967 398.081 635.35C398.081 636.967 398.398 638.208 399.031 639.075C399.681 639.925 400.639 640.35 401.906 640.35C402.639 640.35 403.281 640.275 403.831 640.125C404.398 639.975 404.914 639.792 405.381 639.575V641.525C404.931 641.758 404.431 641.933 403.881 642.05C403.348 642.183 402.698 642.25 401.931 642.25ZM422.943 628.6V642H420.968V633.45C420.968 633.1 420.976 632.733 420.993 632.35C421.026 631.967 421.06 631.592 421.093 631.225H421.018L416.643 642H414.793L410.543 631.225H410.468C410.518 631.975 410.543 632.742 410.543 633.525V642H408.568V628.6H411.493L415.718 639.375L420.018 628.6H422.943ZM438.87 635.275C438.87 637.492 438.304 639.208 437.17 640.425C436.054 641.642 434.537 642.25 432.62 642.25C431.437 642.25 430.379 641.983 429.445 641.45C428.529 640.9 427.804 640.108 427.27 639.075C426.737 638.025 426.47 636.758 426.47 635.275C426.47 633.058 427.029 631.35 428.145 630.15C429.262 628.95 430.779 628.35 432.695 628.35C433.912 628.35 434.979 628.625 435.895 629.175C436.829 629.708 437.554 630.492 438.07 631.525C438.604 632.542 438.87 633.792 438.87 635.275ZM428.745 635.275C428.745 636.858 429.054 638.117 429.67 639.05C430.304 639.967 431.304 640.425 432.67 640.425C434.02 640.425 435.012 639.967 435.645 639.05C436.279 638.117 436.595 636.858 436.595 635.275C436.595 633.692 436.279 632.45 435.645 631.55C435.012 630.65 434.012 630.2 432.645 630.2C431.279 630.2 430.287 630.65 429.67 631.55C429.054 632.45 428.745 633.692 428.745 635.275ZM451.363 630.45H446.988V642H444.813V630.45H440.488V628.6H451.363V630.45ZM460.377 628.35C462.027 628.35 463.352 628.925 464.352 630.075C465.369 631.225 465.877 632.958 465.877 635.275C465.877 637.558 465.369 639.292 464.352 640.475C463.352 641.658 462.019 642.25 460.352 642.25C459.319 642.25 458.461 642.058 457.777 641.675C457.111 641.275 456.586 640.817 456.202 640.3H456.052C456.086 640.583 456.119 640.942 456.152 641.375C456.186 641.808 456.202 642.183 456.202 642.5V648H454.002V628.6H455.802L456.102 630.425H456.202C456.602 629.842 457.127 629.35 457.777 628.95C458.427 628.55 459.294 628.35 460.377 628.35ZM459.977 630.2C458.611 630.2 457.644 630.583 457.077 631.35C456.527 632.117 456.236 633.283 456.202 634.85V635.275C456.202 636.925 456.469 638.2 457.002 639.1C457.552 639.983 458.561 640.425 460.027 640.425C460.844 640.425 461.511 640.2 462.027 639.75C462.561 639.3 462.952 638.692 463.202 637.925C463.469 637.142 463.602 636.25 463.602 635.25C463.602 633.717 463.302 632.492 462.702 631.575C462.119 630.658 461.211 630.2 459.977 630.2ZM471.458 636.775C471.458 636.975 471.45 637.275 471.433 637.675C471.417 638.075 471.392 638.475 471.358 638.875C471.342 639.275 471.325 639.592 471.308 639.825L478.483 628.6H481.183V642H479.133V634.1C479.133 633.833 479.133 633.483 479.133 633.05C479.15 632.617 479.167 632.192 479.183 631.775C479.2 631.342 479.217 631.017 479.233 630.8L472.108 642H469.383V628.6H471.458V636.775ZM499.823 628.6V642H497.848V633.45C497.848 633.1 497.856 632.733 497.873 632.35C497.906 631.967 497.939 631.592 497.973 631.225H497.898L493.523 642H491.673L487.423 631.225H487.348C487.398 631.975 487.423 632.742 487.423 633.525V642H485.448V628.6H488.373L492.598 639.375L496.898 628.6H499.823ZM393.228 680.25C392.044 680.25 390.986 680.008 390.053 679.525C389.136 679.042 388.411 678.292 387.878 677.275C387.361 676.258 387.103 674.958 387.103 673.375C387.103 671.725 387.378 670.383 387.928 669.35C388.478 668.317 389.219 667.558 390.153 667.075C391.103 666.592 392.178 666.35 393.378 666.35C394.061 666.35 394.719 666.425 395.353 666.575C395.986 666.708 396.503 666.875 396.903 667.075L396.228 668.9C395.828 668.75 395.361 668.608 394.828 668.475C394.294 668.342 393.794 668.275 393.328 668.275C390.694 668.275 389.378 669.967 389.378 673.35C389.378 674.967 389.694 676.208 390.328 677.075C390.978 677.925 391.936 678.35 393.203 678.35C393.936 678.35 394.578 678.275 395.128 678.125C395.694 677.975 396.211 677.792 396.678 677.575V679.525C396.228 679.758 395.728 679.933 395.178 680.05C394.644 680.183 393.994 680.25 393.228 680.25ZM405.039 666.35C406.189 666.35 407.173 666.6 407.989 667.1C408.823 667.6 409.456 668.308 409.889 669.225C410.339 670.125 410.564 671.183 410.564 672.4V673.725H401.389C401.423 675.242 401.806 676.4 402.539 677.2C403.289 677.983 404.331 678.375 405.664 678.375C406.514 678.375 407.264 678.3 407.914 678.15C408.581 677.983 409.264 677.75 409.964 677.45V679.375C409.281 679.675 408.606 679.892 407.939 680.025C407.273 680.175 406.481 680.25 405.564 680.25C404.298 680.25 403.173 679.992 402.189 679.475C401.223 678.958 400.464 678.192 399.914 677.175C399.381 676.142 399.114 674.883 399.114 673.4C399.114 671.933 399.356 670.675 399.839 669.625C400.339 668.575 401.031 667.767 401.914 667.2C402.814 666.633 403.856 666.35 405.039 666.35ZM405.014 668.15C403.964 668.15 403.131 668.492 402.514 669.175C401.914 669.842 401.556 670.775 401.439 671.975H408.264C408.248 670.842 407.981 669.925 407.464 669.225C406.948 668.508 406.131 668.15 405.014 668.15ZM424.826 661.05C424.709 662.3 424.284 663.25 423.551 663.9C422.834 664.533 421.684 664.85 420.101 664.85C418.467 664.85 417.309 664.533 416.626 663.9C415.959 663.267 415.584 662.317 415.501 661.05H417.551C417.634 661.95 417.867 662.558 418.251 662.875C418.651 663.175 419.284 663.325 420.151 663.325C420.917 663.325 421.517 663.167 421.951 662.85C422.401 662.517 422.667 661.917 422.751 661.05H424.826ZM416.051 674.775C416.051 674.975 416.042 675.275 416.026 675.675C416.009 676.075 415.984 676.475 415.951 676.875C415.934 677.275 415.917 677.592 415.901 677.825L423.076 666.6H425.776V680H423.726V672.1C423.726 671.833 423.726 671.483 423.726 671.05C423.742 670.617 423.759 670.192 423.776 669.775C423.792 669.342 423.809 669.017 423.826 668.8L416.701 680H413.976V666.6H416.051V674.775ZM431.965 671.475C431.965 673.008 432.823 673.775 434.54 673.775C435.373 673.775 436.132 673.65 436.815 673.4C437.498 673.133 438.198 672.783 438.915 672.35V666.6H441.115V680H438.915V674.025C438.165 674.508 437.423 674.892 436.69 675.175C435.973 675.442 435.107 675.575 434.09 675.575C432.723 675.575 431.657 675.217 430.89 674.5C430.14 673.783 429.765 672.825 429.765 671.625V666.6H431.965V671.475ZM450.447 666.375C452.08 666.375 453.289 666.733 454.072 667.45C454.855 668.167 455.247 669.308 455.247 670.875V680H453.647L453.222 678.1H453.122C452.539 678.833 451.922 679.375 451.272 679.725C450.639 680.075 449.755 680.25 448.622 680.25C447.405 680.25 446.397 679.933 445.597 679.3C444.797 678.65 444.397 677.642 444.397 676.275C444.397 674.942 444.922 673.917 445.972 673.2C447.022 672.467 448.639 672.067 450.822 672L453.097 671.925V671.125C453.097 670.008 452.855 669.233 452.372 668.8C451.889 668.367 451.205 668.15 450.322 668.15C449.622 668.15 448.955 668.258 448.322 668.475C447.689 668.675 447.097 668.908 446.547 669.175L445.872 667.525C446.455 667.208 447.147 666.942 447.947 666.725C448.747 666.492 449.58 666.375 450.447 666.375ZM451.097 673.525C449.43 673.592 448.272 673.858 447.622 674.325C446.989 674.792 446.672 675.45 446.672 676.3C446.672 677.05 446.897 677.6 447.347 677.95C447.814 678.3 448.405 678.475 449.122 678.475C450.255 678.475 451.197 678.167 451.947 677.55C452.697 676.917 453.072 675.95 453.072 674.65V673.45L451.097 673.525ZM464.761 680.25C463.577 680.25 462.519 680.008 461.586 679.525C460.669 679.042 459.944 678.292 459.411 677.275C458.894 676.258 458.636 674.958 458.636 673.375C458.636 671.725 458.911 670.383 459.461 669.35C460.011 668.317 460.752 667.558 461.686 667.075C462.636 666.592 463.711 666.35 464.911 666.35C465.594 666.35 466.252 666.425 466.886 666.575C467.519 666.708 468.036 666.875 468.436 667.075L467.761 668.9C467.361 668.75 466.894 668.608 466.361 668.475C465.827 668.342 465.327 668.275 464.861 668.275C462.227 668.275 460.911 669.967 460.911 673.35C460.911 674.967 461.227 676.208 461.861 677.075C462.511 677.925 463.469 678.35 464.736 678.35C465.469 678.35 466.111 678.275 466.661 678.125C467.227 677.975 467.744 677.792 468.211 677.575V679.525C467.761 679.758 467.261 679.933 466.711 680.05C466.177 680.183 465.527 680.25 464.761 680.25Z" fill="#007BFF"/>
<path d="M1129.55 507.16H1120.35V545H1113.07V507.16H1107.39V501.16H1113.07V498.04C1113.07 493.133 1114.32 489.56 1116.83 487.32C1119.39 485.027 1123.47 483.88 1129.07 483.88V489.96C1125.87 489.96 1123.6 490.6 1122.27 491.88C1120.99 493.107 1120.35 495.16 1120.35 498.04V501.16H1129.55V507.16ZM1145.32 485.8V545H1138.04V485.8H1145.32ZM1197.72 521.4C1197.72 522.787 1197.64 524.253 1197.48 525.8H1162.44C1162.71 530.12 1164.18 533.507 1166.84 535.96C1169.56 538.36 1172.84 539.56 1176.68 539.56C1179.83 539.56 1182.44 538.84 1184.52 537.4C1186.66 535.907 1188.15 533.933 1189 531.48H1196.84C1195.67 535.693 1193.32 539.133 1189.8 541.8C1186.28 544.413 1181.91 545.72 1176.68 545.72C1172.52 545.72 1168.79 544.787 1165.48 542.92C1162.23 541.053 1159.67 538.413 1157.8 535C1155.94 531.533 1155 527.533 1155 523C1155 518.467 1155.91 514.493 1157.72 511.08C1159.54 507.667 1162.07 505.053 1165.32 503.24C1168.63 501.373 1172.42 500.44 1176.68 500.44C1180.84 500.44 1184.52 501.347 1187.72 503.16C1190.92 504.973 1193.38 507.48 1195.08 510.68C1196.84 513.827 1197.72 517.4 1197.72 521.4ZM1190.2 519.88C1190.2 517.107 1189.59 514.733 1188.36 512.76C1187.14 510.733 1185.46 509.213 1183.32 508.2C1181.24 507.133 1178.92 506.6 1176.36 506.6C1172.68 506.6 1169.54 507.773 1166.92 510.12C1164.36 512.467 1162.9 515.72 1162.52 519.88H1190.2ZM1230.21 545L1219.81 528.68L1209.81 545H1202.21L1216.37 523.24L1202.21 501.16H1210.45L1220.85 517.4L1230.77 501.16H1238.37L1224.29 522.84L1238.45 545H1230.21Z" fill="#007BFF"/>
<path d="M319.21 130.85C313.843 130.85 309.62 132.647 306.54 136.24C303.46 139.833 301.92 144.757 301.92 151.01C301.92 157.217 303.343 162.14 306.19 165.78C309.083 169.373 313.4 171.17 319.14 171.17C321.333 171.17 323.41 170.983 325.37 170.61C327.33 170.237 329.243 169.77 331.11 169.21V174.67C329.243 175.37 327.307 175.883 325.3 176.21C323.34 176.537 320.983 176.7 318.23 176.7C313.143 176.7 308.897 175.65 305.49 173.55C302.083 171.45 299.517 168.463 297.79 164.59C296.11 160.717 295.27 156.167 295.27 150.94C295.27 145.9 296.18 141.467 298 137.64C299.867 133.767 302.597 130.757 306.19 128.61C309.783 126.417 314.147 125.32 319.28 125.32C324.553 125.32 329.15 126.3 333.07 128.26L330.55 133.58C329.01 132.88 327.283 132.25 325.37 131.69C323.503 131.13 321.45 130.85 319.21 130.85ZM371.349 147.93C371.349 150.263 370.649 152.083 369.249 153.39C367.849 154.697 366.052 155.583 363.859 156.05V156.33C366.192 156.657 368.222 157.497 369.949 158.85C371.675 160.157 372.539 162.21 372.539 165.01C372.539 168.183 371.349 170.82 368.969 172.92C366.635 174.973 362.762 176 357.349 176H341.179V138.48H357.279C359.939 138.48 362.319 138.783 364.419 139.39C366.565 139.95 368.245 140.93 369.459 142.33C370.719 143.683 371.349 145.55 371.349 147.93ZM365.119 148.7C365.119 146.927 364.465 145.643 363.159 144.85C361.899 144.01 359.822 143.59 356.929 143.59H347.339V153.88H355.809C362.015 153.88 365.119 152.153 365.119 148.7ZM366.169 165.01C366.169 162.863 365.352 161.323 363.719 160.39C362.085 159.457 359.682 158.99 356.509 158.99H347.339V171.03H356.649C359.729 171.03 362.085 170.587 363.719 169.7C365.352 168.767 366.169 167.203 366.169 165.01ZM414.131 157.17C414.131 163.377 412.544 168.183 409.371 171.59C406.244 174.997 401.997 176.7 396.631 176.7C393.317 176.7 390.354 175.953 387.741 174.46C385.174 172.92 383.144 170.703 381.651 167.81C380.157 164.87 379.411 161.323 379.411 157.17C379.411 150.963 380.974 146.18 384.101 142.82C387.227 139.46 391.474 137.78 396.841 137.78C400.247 137.78 403.234 138.55 405.801 140.09C408.414 141.583 410.444 143.777 411.891 146.67C413.384 149.517 414.131 153.017 414.131 157.17ZM385.781 157.17C385.781 161.603 386.644 165.127 388.371 167.74C390.144 170.307 392.944 171.59 396.771 171.59C400.551 171.59 403.327 170.307 405.101 167.74C406.874 165.127 407.761 161.603 407.761 157.17C407.761 152.737 406.874 149.26 405.101 146.74C403.327 144.22 400.527 142.96 396.701 142.96C392.874 142.96 390.097 144.22 388.371 146.74C386.644 149.26 385.781 152.737 385.781 157.17ZM454.273 122.94C453.947 126.44 452.757 129.1 450.703 130.92C448.697 132.693 445.477 133.58 441.043 133.58C436.47 133.58 433.227 132.693 431.313 130.92C429.447 129.147 428.397 126.487 428.163 122.94H433.903C434.137 125.46 434.79 127.163 435.863 128.05C436.983 128.89 438.757 129.31 441.183 129.31C443.33 129.31 445.01 128.867 446.223 127.98C447.483 127.047 448.23 125.367 448.463 122.94H454.273ZM429.703 161.37C429.703 161.93 429.68 162.77 429.633 163.89C429.587 165.01 429.517 166.13 429.423 167.25C429.377 168.37 429.33 169.257 429.283 169.91L449.373 138.48H456.933V176H451.193V153.88C451.193 153.133 451.193 152.153 451.193 150.94C451.24 149.727 451.287 148.537 451.333 147.37C451.38 146.157 451.427 145.247 451.473 144.64L431.523 176H423.893V138.48H429.703V161.37ZM483.924 176.7C480.61 176.7 477.647 176.023 475.034 174.67C472.467 173.317 470.437 171.217 468.944 168.37C467.497 165.523 466.774 161.883 466.774 157.45C466.774 152.83 467.544 149.073 469.084 146.18C470.624 143.287 472.7 141.163 475.314 139.81C477.974 138.457 480.984 137.78 484.344 137.78C486.257 137.78 488.1 137.99 489.874 138.41C491.647 138.783 493.094 139.25 494.214 139.81L492.324 144.92C491.204 144.5 489.897 144.103 488.404 143.73C486.91 143.357 485.51 143.17 484.204 143.17C476.83 143.17 473.144 147.907 473.144 157.38C473.144 161.907 474.03 165.383 475.804 167.81C477.624 170.19 480.307 171.38 483.854 171.38C485.907 171.38 487.704 171.17 489.244 170.75C490.83 170.33 492.277 169.817 493.584 169.21V174.67C492.324 175.323 490.924 175.813 489.384 176.14C487.89 176.513 486.07 176.7 483.924 176.7ZM528.407 143.66H516.157V176H510.067V143.66H497.957V138.48H528.407V143.66ZM565.968 147.93C565.968 150.263 565.268 152.083 563.868 153.39C562.468 154.697 560.671 155.583 558.478 156.05V156.33C560.811 156.657 562.841 157.497 564.568 158.85C566.294 160.157 567.158 162.21 567.158 165.01C567.158 168.183 565.968 170.82 563.588 172.92C561.254 174.973 557.381 176 551.968 176H535.798V138.48H551.898C554.558 138.48 556.938 138.783 559.038 139.39C561.184 139.95 562.864 140.93 564.078 142.33C565.338 143.683 565.968 145.55 565.968 147.93ZM559.738 148.7C559.738 146.927 559.084 145.643 557.778 144.85C556.518 144.01 554.441 143.59 551.548 143.59H541.958V153.88H550.428C556.634 153.88 559.738 152.153 559.738 148.7ZM560.788 165.01C560.788 162.863 559.971 161.323 558.338 160.39C556.704 159.457 554.301 158.99 551.128 158.99H541.958V171.03H551.268C554.348 171.03 556.704 170.587 558.338 169.7C559.971 168.767 560.788 167.203 560.788 165.01ZM590.34 137.85C594.913 137.85 598.296 138.853 600.49 140.86C602.683 142.867 603.78 146.063 603.78 150.45V176H599.3L598.11 170.68H597.83C596.196 172.733 594.47 174.25 592.65 175.23C590.876 176.21 588.403 176.7 585.23 176.7C581.823 176.7 579 175.813 576.76 174.04C574.52 172.22 573.4 169.397 573.4 165.57C573.4 161.837 574.87 158.967 577.81 156.96C580.75 154.907 585.276 153.787 591.39 153.6L597.76 153.39V151.15C597.76 148.023 597.083 145.853 595.73 144.64C594.376 143.427 592.463 142.82 589.99 142.82C588.03 142.82 586.163 143.123 584.39 143.73C582.616 144.29 580.96 144.943 579.42 145.69L577.53 141.07C579.163 140.183 581.1 139.437 583.34 138.83C585.58 138.177 587.913 137.85 590.34 137.85ZM592.16 157.87C587.493 158.057 584.25 158.803 582.43 160.11C580.656 161.417 579.77 163.26 579.77 165.64C579.77 167.74 580.4 169.28 581.66 170.26C582.966 171.24 584.623 171.73 586.63 171.73C589.803 171.73 592.44 170.867 594.54 169.14C596.64 167.367 597.69 164.66 597.69 161.02V157.66L592.16 157.87ZM665.262 138.48V176H659.102V143.73H639.712V176H633.552V138.48H665.262ZM709.853 157.17C709.853 163.377 708.267 168.183 705.093 171.59C701.967 174.997 697.72 176.7 692.353 176.7C689.04 176.7 686.077 175.953 683.463 174.46C680.897 172.92 678.867 170.703 677.373 167.81C675.88 164.87 675.133 161.323 675.133 157.17C675.133 150.963 676.697 146.18 679.823 142.82C682.95 139.46 687.197 137.78 692.563 137.78C695.97 137.78 698.957 138.55 701.523 140.09C704.137 141.583 706.167 143.777 707.613 146.67C709.107 149.517 709.853 153.017 709.853 157.17ZM681.503 157.17C681.503 161.603 682.367 165.127 684.093 167.74C685.867 170.307 688.667 171.59 692.493 171.59C696.273 171.59 699.05 170.307 700.823 167.74C702.597 165.127 703.483 161.603 703.483 157.17C703.483 152.737 702.597 149.26 700.823 146.74C699.05 144.22 696.25 142.96 692.423 142.96C688.597 142.96 685.82 144.22 684.093 146.74C682.367 149.26 681.503 152.737 681.503 157.17ZM729.486 137.78C733.779 137.78 737.186 138.643 739.706 140.37C742.273 142.05 743.556 144.477 743.556 147.65C743.556 149.937 742.926 151.757 741.666 153.11C740.406 154.417 738.679 155.373 736.486 155.98V156.26C737.979 156.68 739.356 157.263 740.616 158.01C741.876 158.757 742.879 159.737 743.626 160.95C744.419 162.163 744.816 163.727 744.816 165.64C744.816 168.767 743.509 171.403 740.896 173.55C738.329 175.65 734.293 176.7 728.786 176.7C726.079 176.7 723.629 176.467 721.436 176C719.243 175.58 717.423 174.997 715.976 174.25V168.72C717.563 169.467 719.429 170.143 721.576 170.75C723.769 171.357 726.149 171.66 728.716 171.66C731.516 171.66 733.873 171.193 735.786 170.26C737.746 169.28 738.726 167.623 738.726 165.29C738.726 161.09 735.156 158.99 728.016 158.99H722.976V153.95H727.036C730.256 153.95 732.823 153.53 734.736 152.69C736.696 151.803 737.676 150.31 737.676 148.21C737.676 146.437 736.929 145.107 735.436 144.22C733.989 143.333 731.889 142.89 729.136 142.89C727.083 142.89 725.263 143.1 723.676 143.52C722.136 143.893 720.433 144.477 718.566 145.27L716.396 140.37C720.316 138.643 724.679 137.78 729.486 137.78ZM759.742 161.37C759.742 161.93 759.719 162.77 759.672 163.89C759.626 165.01 759.556 166.13 759.462 167.25C759.416 168.37 759.369 169.257 759.322 169.91L779.412 138.48H786.972V176H781.232V153.88C781.232 153.133 781.232 152.153 781.232 150.94C781.279 149.727 781.326 148.537 781.372 147.37C781.419 146.157 781.466 145.247 781.512 144.64L761.562 176H753.932V138.48H759.742V161.37ZM835.943 189.02H829.923V176H798.913V138.48H805.073V170.82H824.463V138.48H830.623V170.89H835.943V189.02ZM848.951 161.37C848.951 161.93 848.928 162.77 848.881 163.89C848.835 165.01 848.765 166.13 848.671 167.25C848.625 168.37 848.578 169.257 848.531 169.91L868.621 138.48H876.181V176H870.441V153.88C870.441 153.133 870.441 152.153 870.441 150.94C870.488 149.727 870.535 148.537 870.581 147.37C870.628 146.157 870.675 145.247 870.721 144.64L850.771 176H843.141V138.48H848.951V161.37ZM920.742 157.17C920.742 163.377 919.155 168.183 915.982 171.59C912.855 174.997 908.609 176.7 903.242 176.7C899.929 176.7 896.965 175.953 894.352 174.46C891.785 172.92 889.755 170.703 888.262 167.81C886.769 164.87 886.022 161.323 886.022 157.17C886.022 150.963 887.585 146.18 890.712 142.82C893.839 139.46 898.085 137.78 903.452 137.78C906.859 137.78 909.845 138.55 912.412 140.09C915.025 141.583 917.055 143.777 918.502 146.67C919.995 149.517 920.742 153.017 920.742 157.17ZM892.392 157.17C892.392 161.603 893.255 165.127 894.982 167.74C896.755 170.307 899.555 171.59 903.382 171.59C907.162 171.59 909.939 170.307 911.712 167.74C913.485 165.127 914.372 161.603 914.372 157.17C914.372 152.737 913.485 149.26 911.712 146.74C909.939 144.22 907.139 142.96 903.312 142.96C899.485 142.96 896.709 144.22 894.982 146.74C893.255 149.26 892.392 152.737 892.392 157.17ZM936.665 138.48V154.09H957.035V138.48H963.195V176H957.035V159.27H936.665V176H930.505V138.48H936.665ZM980.885 161.37C980.885 161.93 980.862 162.77 980.815 163.89C980.768 165.01 980.698 166.13 980.605 167.25C980.558 168.37 980.512 169.257 980.465 169.91L1000.56 138.48H1008.12V176H1002.38V153.88C1002.38 153.133 1002.38 152.153 1002.38 150.94C1002.42 149.727 1002.47 148.537 1002.52 147.37C1002.56 146.157 1002.61 145.247 1002.66 144.64L982.705 176H975.075V138.48H980.885V161.37ZM1037.91 137.78C1042.53 137.78 1046.24 139.39 1049.04 142.61C1051.88 145.83 1053.31 150.683 1053.31 157.17C1053.31 163.563 1051.88 168.417 1049.04 171.73C1046.24 175.043 1042.5 176.7 1037.84 176.7C1034.94 176.7 1032.54 176.163 1030.63 175.09C1028.76 173.97 1027.29 172.687 1026.22 171.24H1025.8C1025.89 172.033 1025.98 173.037 1026.08 174.25C1026.17 175.463 1026.22 176.513 1026.22 177.4V192.8H1020.06V138.48H1025.1L1025.94 143.59H1026.22C1027.34 141.957 1028.81 140.58 1030.63 139.46C1032.45 138.34 1034.87 137.78 1037.91 137.78ZM1036.79 142.96C1032.96 142.96 1030.25 144.033 1028.67 146.18C1027.13 148.327 1026.31 151.593 1026.22 155.98V157.17C1026.22 161.79 1026.96 165.36 1028.46 167.88C1030 170.353 1032.82 171.59 1036.93 171.59C1039.21 171.59 1041.08 170.96 1042.53 169.7C1044.02 168.44 1045.12 166.737 1045.82 164.59C1046.56 162.397 1046.94 159.9 1046.94 157.1C1046.94 152.807 1046.1 149.377 1044.42 146.81C1042.78 144.243 1040.24 142.96 1036.79 142.96ZM1095.74 157.17C1095.74 163.377 1094.16 168.183 1090.98 171.59C1087.86 174.997 1083.61 176.7 1078.24 176.7C1074.93 176.7 1071.97 175.953 1069.35 174.46C1066.79 172.92 1064.76 170.703 1063.26 167.81C1061.77 164.87 1061.02 161.323 1061.02 157.17C1061.02 150.963 1062.59 146.18 1065.71 142.82C1068.84 139.46 1073.09 137.78 1078.45 137.78C1081.86 137.78 1084.85 138.55 1087.41 140.09C1090.03 141.583 1092.06 143.777 1093.5 146.67C1095 149.517 1095.74 153.017 1095.74 157.17ZM1067.39 157.17C1067.39 161.603 1068.26 165.127 1069.98 167.74C1071.76 170.307 1074.56 171.59 1078.38 171.59C1082.16 171.59 1084.94 170.307 1086.71 167.74C1088.49 165.127 1089.37 161.603 1089.37 157.17C1089.37 152.737 1088.49 149.26 1086.71 146.74C1084.94 144.22 1082.14 142.96 1078.31 142.96C1074.49 142.96 1071.71 144.22 1069.98 146.74C1068.26 149.26 1067.39 152.737 1067.39 157.17ZM1135.67 147.93C1135.67 150.263 1134.97 152.083 1133.57 153.39C1132.17 154.697 1130.38 155.583 1128.18 156.05V156.33C1130.52 156.657 1132.55 157.497 1134.27 158.85C1136 160.157 1136.86 162.21 1136.86 165.01C1136.86 168.183 1135.67 170.82 1133.29 172.92C1130.96 174.973 1127.09 176 1121.67 176H1105.5V138.48H1121.6C1124.26 138.48 1126.64 138.783 1128.74 139.39C1130.89 139.95 1132.57 140.93 1133.78 142.33C1135.04 143.683 1135.67 145.55 1135.67 147.93ZM1129.44 148.7C1129.44 146.927 1128.79 145.643 1127.48 144.85C1126.22 144.01 1124.15 143.59 1121.25 143.59H1111.66V153.88H1120.13C1126.34 153.88 1129.44 152.153 1129.44 148.7ZM1130.49 165.01C1130.49 162.863 1129.68 161.323 1128.04 160.39C1126.41 159.457 1124.01 158.99 1120.83 158.99H1111.66V171.03H1120.97C1124.05 171.03 1126.41 170.587 1128.04 169.7C1129.68 168.767 1130.49 167.203 1130.49 165.01ZM1160.05 137.85C1164.62 137.85 1168 138.853 1170.2 140.86C1172.39 142.867 1173.49 146.063 1173.49 150.45V176H1169.01L1167.82 170.68H1167.54C1165.9 172.733 1164.18 174.25 1162.36 175.23C1160.58 176.21 1158.11 176.7 1154.94 176.7C1151.53 176.7 1148.71 175.813 1146.47 174.04C1144.23 172.22 1143.11 169.397 1143.11 165.57C1143.11 161.837 1144.58 158.967 1147.52 156.96C1150.46 154.907 1154.98 153.787 1161.1 153.6L1167.47 153.39V151.15C1167.47 148.023 1166.79 145.853 1165.44 144.64C1164.08 143.427 1162.17 142.82 1159.7 142.82C1157.74 142.82 1155.87 143.123 1154.1 143.73C1152.32 144.29 1150.67 144.943 1149.13 145.69L1147.24 141.07C1148.87 140.183 1150.81 139.437 1153.05 138.83C1155.29 138.177 1157.62 137.85 1160.05 137.85ZM1161.87 157.87C1157.2 158.057 1153.96 158.803 1152.14 160.11C1150.36 161.417 1149.48 163.26 1149.48 165.64C1149.48 167.74 1150.11 169.28 1151.37 170.26C1152.67 171.24 1154.33 171.73 1156.34 171.73C1159.51 171.73 1162.15 170.867 1164.25 169.14C1166.35 167.367 1167.4 164.66 1167.4 161.02V157.66L1161.87 157.87ZM1191.24 138.48V154.09H1211.61V138.48H1217.77V176H1211.61V159.27H1191.24V176H1185.08V138.48H1191.24ZM1235.46 161.37C1235.46 161.93 1235.43 162.77 1235.39 163.89C1235.34 165.01 1235.27 166.13 1235.18 167.25C1235.13 168.37 1235.08 169.257 1235.04 169.91L1255.13 138.48H1262.69V176H1256.95V153.88C1256.95 153.133 1256.95 152.153 1256.95 150.94C1256.99 149.727 1257.04 148.537 1257.09 147.37C1257.13 146.157 1257.18 145.247 1257.23 144.64L1237.28 176H1229.65V138.48H1235.46V161.37ZM1276.94 176H1269.8L1280.51 160.25C1279.06 159.877 1277.66 159.293 1276.31 158.5C1274.95 157.66 1273.86 156.517 1273.02 155.07C1272.18 153.577 1271.76 151.733 1271.76 149.54C1271.76 145.947 1272.97 143.217 1275.4 141.35C1277.82 139.437 1281.04 138.48 1285.06 138.48H1301.86V176H1295.7V161.09H1286.6L1276.94 176ZM1277.71 149.61C1277.71 151.757 1278.5 153.367 1280.09 154.44C1281.72 155.467 1283.98 155.98 1286.88 155.98H1295.7V143.59H1285.69C1282.84 143.59 1280.79 144.15 1279.53 145.27C1278.31 146.39 1277.71 147.837 1277.71 149.61Z" fill="#007BFF"/>
</svg>
