<svg width="170" height="170" viewBox="0 0 170 170" fill="none" xmlns="http://www.w3.org/2000/svg">
<rect x="5.5" y="5.5" width="159" height="159" rx="9.5" stroke="#007BFF"/>
<rect x="75.5" y="9.5" width="79" height="34" rx="4.5" fill="white" stroke="#007BFF"/>
<path d="M116.647 26H114.83V13.959L111.188 15.2969V13.6562L116.364 11.7129H116.647V26Z" fill="#007BFF"/>
<rect x="10.5" y="48.5" width="79" height="34" rx="4.5" fill="white" stroke="#007BFF"/>
<path d="M55.0257 65H45.7093V63.7012L50.6311 58.2324C51.3603 57.4056 51.8616 56.735 52.135 56.2207C52.415 55.6999 52.555 55.1628 52.555 54.6094C52.555 53.8672 52.3304 53.2585 51.8811 52.7832C51.4319 52.3079 50.833 52.0703 50.0843 52.0703C49.1858 52.0703 48.486 52.3275 47.9847 52.8418C47.4899 53.3496 47.2425 54.0592 47.2425 54.9707H45.4358C45.4358 53.6621 45.8557 52.6042 46.6956 51.7969C47.5419 50.9896 48.6715 50.5859 50.0843 50.5859C51.4059 50.5859 52.4508 50.9342 53.219 51.6309C53.9873 52.321 54.3714 53.2422 54.3714 54.3945C54.3714 55.7943 53.4794 57.4609 51.6956 59.3945L47.887 63.5254H55.0257V65Z" fill="#007BFF"/>
<rect x="75.5" y="87.5" width="79" height="34" rx="4.5" fill="white" stroke="#007BFF"/>
<path d="M113.336 96.0117H114.694C115.547 95.9987 116.217 95.7741 116.705 95.3379C117.194 94.9017 117.438 94.3125 117.438 93.5703C117.438 91.9036 116.608 91.0703 114.948 91.0703C114.166 91.0703 113.541 91.2949 113.073 91.7441C112.61 92.1868 112.379 92.776 112.379 93.5117H110.573C110.573 92.3854 110.983 91.4512 111.803 90.709C112.63 89.9603 113.678 89.5859 114.948 89.5859C116.289 89.5859 117.34 89.9408 118.102 90.6504C118.864 91.36 119.244 92.3464 119.244 93.6094C119.244 94.2279 119.043 94.8268 118.639 95.4062C118.242 95.9857 117.698 96.4186 117.008 96.7051C117.789 96.9525 118.392 97.3626 118.815 97.9355C119.244 98.5085 119.459 99.2083 119.459 100.035C119.459 101.311 119.043 102.324 118.209 103.072C117.376 103.821 116.292 104.195 114.957 104.195C113.623 104.195 112.535 103.834 111.696 103.111C110.862 102.389 110.446 101.435 110.446 100.25H112.262C112.262 100.999 112.506 101.598 112.994 102.047C113.483 102.496 114.137 102.721 114.957 102.721C115.83 102.721 116.497 102.493 116.959 102.037C117.422 101.581 117.653 100.927 117.653 100.074C117.653 99.2474 117.399 98.6126 116.891 98.1699C116.383 97.7272 115.651 97.4993 114.694 97.4863H113.336V96.0117Z" fill="#007BFF"/>
<rect x="10.5" y="126.5" width="79" height="34" rx="4.5" fill="white" stroke="#007BFF"/>
<path d="M53.3362 138.225H55.3089V139.699H53.3362V143H51.5198V139.699H45.0452V138.635L51.4124 128.781H53.3362V138.225ZM47.096 138.225H51.5198V131.252L51.305 131.643L47.096 138.225Z" fill="#007BFF"/>
</svg>
