<svg width="170" height="170" viewBox="0 0 170 170" fill="none" xmlns="http://www.w3.org/2000/svg">
<rect x="5.5" y="5.5" width="159" height="159" rx="9.5" stroke="#007BFF"/>
<rect x="45.5" y="9.5" width="79" height="34" rx="4.5" fill="white" stroke="#007BFF"/>
<path d="M86.6468 26H84.8304V13.959L81.1878 15.2969V13.6562L86.3636 11.7129H86.6468V26Z" fill="#007BFF"/>
<rect x="45.5" y="48.5" width="79" height="34" rx="4.5" fill="white" stroke="#007BFF"/>
<path d="M90.0257 65H80.7093V63.7012L85.6311 58.2324C86.3603 57.4056 86.8616 56.735 87.135 56.2207C87.415 55.6999 87.555 55.1628 87.555 54.6094C87.555 53.8672 87.3304 53.2585 86.8811 52.7832C86.4319 52.3079 85.833 52.0703 85.0843 52.0703C84.1858 52.0703 83.486 52.3275 82.9847 52.8418C82.4899 53.3496 82.2425 54.0592 82.2425 54.9707H80.4358C80.4358 53.6621 80.8557 52.6042 81.6956 51.7969C82.5419 50.9896 83.6715 50.5859 85.0843 50.5859C86.4059 50.5859 87.4508 50.9342 88.219 51.6309C88.9873 52.321 89.3714 53.2422 89.3714 54.3945C89.3714 55.7943 88.4794 57.4609 86.6956 59.3945L82.887 63.5254H90.0257V65Z" fill="#007BFF"/>
<rect x="45.5" y="67.5" width="79" height="34" rx="4.5" fill="white" stroke="#007BFF"/>
<path d="M83.3362 76.0117H84.6936C85.5465 75.9987 86.2171 75.7741 86.7054 75.3379C87.1936 74.9017 87.4378 74.3125 87.4378 73.5703C87.4378 71.9036 86.6077 71.0703 84.9475 71.0703C84.1663 71.0703 83.5413 71.2949 83.0725 71.7441C82.6103 72.1868 82.3792 72.776 82.3792 73.5117H80.5725C80.5725 72.3854 80.9827 71.4512 81.803 70.709C82.6298 69.9603 83.678 69.5859 84.9475 69.5859C86.2887 69.5859 87.3401 69.9408 88.1018 70.6504C88.8636 71.36 89.2444 72.3464 89.2444 73.6094C89.2444 74.2279 89.0426 74.8268 88.639 75.4062C88.2418 75.9857 87.6982 76.4186 87.0081 76.7051C87.7893 76.9525 88.3916 77.3626 88.8147 77.9355C89.2444 78.5085 89.4593 79.2083 89.4593 80.0352C89.4593 81.3112 89.0426 82.3236 88.2093 83.0723C87.3759 83.821 86.2919 84.1953 84.9573 84.1953C83.6227 84.1953 82.5354 83.834 81.6956 83.1113C80.8623 82.3887 80.4456 81.4349 80.4456 80.25H82.262C82.262 80.9987 82.5061 81.5977 82.9944 82.0469C83.4827 82.4961 84.137 82.7207 84.9573 82.7207C85.8297 82.7207 86.497 82.4928 86.9593 82.0371C87.4215 81.5814 87.6526 80.9271 87.6526 80.0742C87.6526 79.2474 87.3987 78.6126 86.8909 78.1699C86.3831 77.7272 85.6507 77.4993 84.6936 77.4863H83.3362V76.0117Z" fill="#007BFF"/>
<rect x="45.5" y="126.5" width="79" height="34" rx="4.5" fill="white" stroke="#007BFF"/>
<path d="M87.6934 138.225H89.666V139.699H87.6934V143H85.877V139.699H79.4023V138.635L85.7695 128.781H87.6934V138.225ZM81.4531 138.225H85.877V131.252L85.6621 131.643L81.4531 138.225Z" fill="#007BFF"/>
</svg>
