<svg width="170" height="170" viewBox="0 0 170 170" fill="none" xmlns="http://www.w3.org/2000/svg">
<rect x="5.5" y="5.5" width="159" height="159" rx="9.5" stroke="#007BFF"/>
<rect x="45.5" y="9.5" width="79" height="34" rx="4.5" fill="white" stroke="#007BFF"/>
<path d="M86.6468 26H84.8304V13.959L81.1878 15.2969V13.6562L86.3636 11.7129H86.6468V26Z" fill="#007BFF"/>
<rect x="45.5" y="48.5" width="79" height="34" rx="4.5" fill="white" stroke="#007BFF"/>
<path d="M90.0257 65H80.7093V63.7012L85.6311 58.2324C86.3603 57.4056 86.8616 56.735 87.135 56.2207C87.415 55.6999 87.555 55.1628 87.555 54.6094C87.555 53.8672 87.3304 53.2585 86.8811 52.7832C86.4319 52.3079 85.833 52.0703 85.0843 52.0703C84.1858 52.0703 83.486 52.3275 82.9847 52.8418C82.4899 53.3496 82.2425 54.0592 82.2425 54.9707H80.4358C80.4358 53.6621 80.8557 52.6042 81.6956 51.7969C82.5419 50.9896 83.6715 50.5859 85.0843 50.5859C86.4059 50.5859 87.4508 50.9342 88.219 51.6309C88.9873 52.321 89.3714 53.2422 89.3714 54.3945C89.3714 55.7943 88.4794 57.4609 86.6956 59.3945L82.887 63.5254H90.0257V65Z" fill="#007BFF"/>
<rect x="45.5" y="87.5" width="79" height="34" rx="4.5" fill="white" stroke="#007BFF"/>
<path d="M83.3362 96.0117H84.6936C85.5465 95.9987 86.2171 95.7741 86.7054 95.3379C87.1936 94.9017 87.4378 94.3125 87.4378 93.5703C87.4378 91.9036 86.6077 91.0703 84.9475 91.0703C84.1663 91.0703 83.5413 91.2949 83.0725 91.7441C82.6103 92.1868 82.3792 92.776 82.3792 93.5117H80.5725C80.5725 92.3854 80.9827 91.4512 81.803 90.709C82.6298 89.9603 83.678 89.5859 84.9475 89.5859C86.2887 89.5859 87.3401 89.9408 88.1018 90.6504C88.8636 91.36 89.2444 92.3464 89.2444 93.6094C89.2444 94.2279 89.0426 94.8268 88.639 95.4062C88.2418 95.9857 87.6982 96.4186 87.0081 96.7051C87.7893 96.9525 88.3916 97.3626 88.8147 97.9355C89.2444 98.5085 89.4593 99.2083 89.4593 100.035C89.4593 101.311 89.0426 102.324 88.2093 103.072C87.3759 103.821 86.2919 104.195 84.9573 104.195C83.6227 104.195 82.5354 103.834 81.6956 103.111C80.8623 102.389 80.4456 101.435 80.4456 100.25H82.262C82.262 100.999 82.5061 101.598 82.9944 102.047C83.4827 102.496 84.137 102.721 84.9573 102.721C85.8297 102.721 86.497 102.493 86.9593 102.037C87.4215 101.581 87.6526 100.927 87.6526 100.074C87.6526 99.2474 87.3987 98.6126 86.8909 98.1699C86.3831 97.7272 85.6507 97.4993 84.6936 97.4863H83.3362V96.0117Z" fill="#007BFF"/>
<rect x="45.5" y="126.5" width="79" height="34" rx="4.5" fill="white" stroke="#007BFF"/>
<path d="M88.3362 138.225H90.3089V139.699H88.3362V143H86.5198V139.699H80.0452V138.635L86.4124 128.781H88.3362V138.225ZM82.096 138.225H86.5198V131.252L86.305 131.643L82.096 138.225Z" fill="#007BFF"/>
</svg>
