<svg width="1600" height="900" viewBox="0 0 1600 900" fill="none" xmlns="http://www.w3.org/2000/svg">
<path d="M478.738 176.63C475.705 176.63 472.975 176.093 470.548 175.02C468.168 173.9 466.278 172.407 464.878 170.54C463.478 168.627 462.732 166.503 462.638 164.17H470.898C471.038 165.803 471.808 167.18 473.208 168.3C474.655 169.373 476.452 169.91 478.598 169.91C480.838 169.91 482.565 169.49 483.778 168.65C485.038 167.763 485.668 166.643 485.668 165.29C485.668 163.843 484.968 162.77 483.568 162.07C482.215 161.37 480.045 160.6 477.058 159.76C474.165 158.967 471.808 158.197 469.988 157.45C468.168 156.703 466.582 155.56 465.228 154.02C463.922 152.48 463.268 150.45 463.268 147.93C463.268 145.877 463.875 144.01 465.088 142.33C466.302 140.603 468.028 139.25 470.268 138.27C472.555 137.29 475.168 136.8 478.108 136.8C482.495 136.8 486.018 137.92 488.678 140.16C491.385 142.353 492.832 145.363 493.018 149.19H485.038C484.898 147.463 484.198 146.087 482.938 145.06C481.678 144.033 479.975 143.52 477.828 143.52C475.728 143.52 474.118 143.917 472.998 144.71C471.878 145.503 471.318 146.553 471.318 147.86C471.318 148.887 471.692 149.75 472.438 150.45C473.185 151.15 474.095 151.71 475.168 152.13C476.242 152.503 477.828 152.993 479.928 153.6C482.728 154.347 485.015 155.117 486.788 155.91C488.608 156.657 490.172 157.777 491.478 159.27C492.785 160.763 493.462 162.747 493.508 165.22C493.508 167.413 492.902 169.373 491.688 171.1C490.475 172.827 488.748 174.18 486.508 175.16C484.315 176.14 481.725 176.63 478.738 176.63ZM514.941 143.94V165.29C514.941 166.737 515.268 167.787 515.921 168.44C516.621 169.047 517.788 169.35 519.421 169.35H524.321V176H518.021C514.428 176 511.674 175.16 509.761 173.48C507.848 171.8 506.891 169.07 506.891 165.29V143.94H502.341V137.43H506.891V127.84H514.941V137.43H524.321V143.94H514.941ZM532.516 156.54C532.516 152.667 533.309 149.237 534.896 146.25C536.529 143.263 538.722 140.953 541.476 139.32C544.276 137.64 547.356 136.8 550.716 136.8C553.749 136.8 556.386 137.407 558.626 138.62C560.912 139.787 562.732 141.257 564.086 143.03V137.43H572.136V176H564.086V170.26C562.732 172.08 560.889 173.597 558.556 174.81C556.222 176.023 553.562 176.63 550.576 176.63C547.262 176.63 544.229 175.79 541.476 174.11C538.722 172.383 536.529 170.003 534.896 166.97C533.309 163.89 532.516 160.413 532.516 156.54ZM564.086 156.68C564.086 154.02 563.526 151.71 562.406 149.75C561.332 147.79 559.909 146.297 558.136 145.27C556.362 144.243 554.449 143.73 552.396 143.73C550.342 143.73 548.429 144.243 546.656 145.27C544.882 146.25 543.436 147.72 542.316 149.68C541.242 151.593 540.706 153.88 540.706 156.54C540.706 159.2 541.242 161.533 542.316 163.54C543.436 165.547 544.882 167.087 546.656 168.16C548.476 169.187 550.389 169.7 552.396 169.7C554.449 169.7 556.362 169.187 558.136 168.16C559.909 167.133 561.332 165.64 562.406 163.68C563.526 161.673 564.086 159.34 564.086 156.68ZM595.427 143.94V165.29C595.427 166.737 595.754 167.787 596.407 168.44C597.107 169.047 598.274 169.35 599.907 169.35H604.807V176H598.507C594.914 176 592.161 175.16 590.247 173.48C588.334 171.8 587.377 169.07 587.377 165.29V143.94H582.827V137.43H587.377V127.84H595.427V137.43H604.807V143.94H595.427ZM619.722 132.32C618.275 132.32 617.062 131.83 616.082 130.85C615.102 129.87 614.612 128.657 614.612 127.21C614.612 125.763 615.102 124.55 616.082 123.57C617.062 122.59 618.275 122.1 619.722 122.1C621.122 122.1 622.312 122.59 623.292 123.57C624.272 124.55 624.762 125.763 624.762 127.21C624.762 128.657 624.272 129.87 623.292 130.85C622.312 131.83 621.122 132.32 619.722 132.32ZM623.642 137.43V176H615.662V137.43H623.642ZM634.959 156.68C634.959 152.713 635.752 149.237 637.339 146.25C638.972 143.217 641.212 140.883 644.059 139.25C646.906 137.617 650.172 136.8 653.859 136.8C658.526 136.8 662.376 137.92 665.409 140.16C668.489 142.353 670.566 145.503 671.639 149.61H663.029C662.329 147.697 661.209 146.203 659.669 145.13C658.129 144.057 656.192 143.52 653.859 143.52C650.592 143.52 647.979 144.687 646.019 147.02C644.106 149.307 643.149 152.527 643.149 156.68C643.149 160.833 644.106 164.077 646.019 166.41C647.979 168.743 650.592 169.91 653.859 169.91C658.479 169.91 661.536 167.88 663.029 163.82H671.639C670.519 167.74 668.419 170.867 665.339 173.2C662.259 175.487 658.432 176.63 653.859 176.63C650.172 176.63 646.906 175.813 644.059 174.18C641.212 172.5 638.972 170.167 637.339 167.18C635.752 164.147 634.959 160.647 634.959 156.68ZM719.685 168.86L730.605 137.43H739.075L724.375 176H714.855L700.225 137.43H708.765L719.685 168.86ZM762.607 176.63C759.574 176.63 756.844 176.093 754.417 175.02C752.037 173.9 750.147 172.407 748.747 170.54C747.347 168.627 746.601 166.503 746.507 164.17H754.767C754.907 165.803 755.677 167.18 757.077 168.3C758.524 169.373 760.321 169.91 762.467 169.91C764.707 169.91 766.434 169.49 767.647 168.65C768.907 167.763 769.537 166.643 769.537 165.29C769.537 163.843 768.837 162.77 767.437 162.07C766.084 161.37 763.914 160.6 760.927 159.76C758.034 158.967 755.677 158.197 753.857 157.45C752.037 156.703 750.451 155.56 749.097 154.02C747.791 152.48 747.137 150.45 747.137 147.93C747.137 145.877 747.744 144.01 748.957 142.33C750.171 140.603 751.897 139.25 754.137 138.27C756.424 137.29 759.037 136.8 761.977 136.8C766.364 136.8 769.887 137.92 772.547 140.16C775.254 142.353 776.701 145.363 776.887 149.19H768.907C768.767 147.463 768.067 146.087 766.807 145.06C765.547 144.033 763.844 143.52 761.697 143.52C759.597 143.52 757.987 143.917 756.867 144.71C755.747 145.503 755.187 146.553 755.187 147.86C755.187 148.887 755.561 149.75 756.307 150.45C757.054 151.15 757.964 151.71 759.037 152.13C760.111 152.503 761.697 152.993 763.797 153.6C766.597 154.347 768.884 155.117 770.657 155.91C772.477 156.657 774.041 157.777 775.347 159.27C776.654 160.763 777.331 162.747 777.377 165.22C777.377 167.413 776.771 169.373 775.557 171.1C774.344 172.827 772.617 174.18 770.377 175.16C768.184 176.14 765.594 176.63 762.607 176.63ZM808.524 156.54C808.524 152.667 809.317 149.237 810.904 146.25C812.537 143.263 814.73 140.953 817.484 139.32C820.284 137.64 823.364 136.8 826.724 136.8C829.757 136.8 832.394 137.407 834.634 138.62C836.92 139.787 838.74 141.257 840.094 143.03V137.43H848.144V176H840.094V170.26C838.74 172.08 836.897 173.597 834.564 174.81C832.23 176.023 829.57 176.63 826.584 176.63C823.27 176.63 820.237 175.79 817.484 174.11C814.73 172.383 812.537 170.003 810.904 166.97C809.317 163.89 808.524 160.413 808.524 156.54ZM840.094 156.68C840.094 154.02 839.534 151.71 838.414 149.75C837.34 147.79 835.917 146.297 834.144 145.27C832.37 144.243 830.457 143.73 828.404 143.73C826.35 143.73 824.437 144.243 822.664 145.27C820.89 146.25 819.444 147.72 818.324 149.68C817.25 151.593 816.714 153.88 816.714 156.54C816.714 159.2 817.25 161.533 818.324 163.54C819.444 165.547 820.89 167.087 822.664 168.16C824.484 169.187 826.397 169.7 828.404 169.7C830.457 169.7 832.37 169.187 834.144 168.16C835.917 167.133 837.34 165.64 838.414 163.68C839.534 161.673 840.094 159.34 840.094 156.68ZM870.105 143.17C871.458 141.303 873.302 139.787 875.635 138.62C878.015 137.407 880.652 136.8 883.545 136.8C886.952 136.8 890.032 137.617 892.785 139.25C895.538 140.883 897.708 143.217 899.295 146.25C900.882 149.237 901.675 152.667 901.675 156.54C901.675 160.413 900.882 163.89 899.295 166.97C897.708 170.003 895.515 172.383 892.715 174.11C889.962 175.79 886.905 176.63 883.545 176.63C880.558 176.63 877.898 176.047 875.565 174.88C873.278 173.713 871.458 172.22 870.105 170.4V176H862.125V124.2H870.105V143.17ZM893.555 156.54C893.555 153.88 892.995 151.593 891.875 149.68C890.802 147.72 889.355 146.25 887.535 145.27C885.762 144.243 883.848 143.73 881.795 143.73C879.788 143.73 877.875 144.243 876.055 145.27C874.282 146.297 872.835 147.79 871.715 149.75C870.642 151.71 870.105 154.02 870.105 156.68C870.105 159.34 870.642 161.673 871.715 163.68C872.835 165.64 874.282 167.133 876.055 168.16C877.875 169.187 879.788 169.7 881.795 169.7C883.848 169.7 885.762 169.187 887.535 168.16C889.355 167.087 890.802 165.547 891.875 163.54C892.995 161.533 893.555 159.2 893.555 156.54ZM927.066 176.63C924.033 176.63 921.303 176.093 918.876 175.02C916.496 173.9 914.606 172.407 913.206 170.54C911.806 168.627 911.06 166.503 910.966 164.17H919.226C919.366 165.803 920.136 167.18 921.536 168.3C922.983 169.373 924.78 169.91 926.926 169.91C929.166 169.91 930.893 169.49 932.106 168.65C933.366 167.763 933.996 166.643 933.996 165.29C933.996 163.843 933.296 162.77 931.896 162.07C930.543 161.37 928.373 160.6 925.386 159.76C922.493 158.967 920.136 158.197 918.316 157.45C916.496 156.703 914.91 155.56 913.556 154.02C912.25 152.48 911.596 150.45 911.596 147.93C911.596 145.877 912.203 144.01 913.416 142.33C914.63 140.603 916.356 139.25 918.596 138.27C920.883 137.29 923.496 136.8 926.436 136.8C930.823 136.8 934.346 137.92 937.006 140.16C939.713 142.353 941.16 145.363 941.346 149.19H933.366C933.226 147.463 932.526 146.087 931.266 145.06C930.006 144.033 928.303 143.52 926.156 143.52C924.056 143.52 922.446 143.917 921.326 144.71C920.206 145.503 919.646 146.553 919.646 147.86C919.646 148.887 920.02 149.75 920.766 150.45C921.513 151.15 922.423 151.71 923.496 152.13C924.57 152.503 926.156 152.993 928.256 153.6C931.056 154.347 933.343 155.117 935.116 155.91C936.936 156.657 938.5 157.777 939.806 159.27C941.113 160.763 941.79 162.747 941.836 165.22C941.836 167.413 941.23 169.373 940.016 171.1C938.803 172.827 937.076 174.18 934.836 175.16C932.643 176.14 930.053 176.63 927.066 176.63ZM970.689 176.63C967.049 176.63 963.759 175.813 960.819 174.18C957.879 172.5 955.569 170.167 953.889 167.18C952.209 164.147 951.369 160.647 951.369 156.68C951.369 152.76 952.232 149.283 953.959 146.25C955.686 143.217 958.042 140.883 961.029 139.25C964.016 137.617 967.352 136.8 971.039 136.8C974.726 136.8 978.062 137.617 981.049 139.25C984.036 140.883 986.392 143.217 988.119 146.25C989.846 149.283 990.709 152.76 990.709 156.68C990.709 160.6 989.822 164.077 988.049 167.11C986.276 170.143 983.849 172.5 980.769 174.18C977.736 175.813 974.376 176.63 970.689 176.63ZM970.689 169.7C972.742 169.7 974.656 169.21 976.429 168.23C978.249 167.25 979.719 165.78 980.839 163.82C981.959 161.86 982.519 159.48 982.519 156.68C982.519 153.88 981.982 151.523 980.909 149.61C979.836 147.65 978.412 146.18 976.639 145.2C974.866 144.22 972.952 143.73 970.899 143.73C968.846 143.73 966.932 144.22 965.159 145.2C963.432 146.18 962.056 147.65 961.029 149.61C960.002 151.523 959.489 153.88 959.489 156.68C959.489 160.833 960.539 164.053 962.639 166.34C964.786 168.58 967.469 169.7 970.689 169.7ZM1010.08 124.2V176H1002.1V124.2H1010.08ZM1058.98 137.43V176H1051V171.45C1049.74 173.037 1048.09 174.297 1046.03 175.23C1044.03 176.117 1041.88 176.56 1039.59 176.56C1036.56 176.56 1033.83 175.93 1031.4 174.67C1029.02 173.41 1027.13 171.543 1025.73 169.07C1024.38 166.597 1023.7 163.61 1023.7 160.11V137.43H1031.61V158.92C1031.61 162.373 1032.48 165.033 1034.2 166.9C1035.93 168.72 1038.29 169.63 1041.27 169.63C1044.26 169.63 1046.62 168.72 1048.34 166.9C1050.12 165.033 1051 162.373 1051 158.92V137.43H1058.98ZM1082.32 143.94V165.29C1082.32 166.737 1082.65 167.787 1083.3 168.44C1084 169.047 1085.17 169.35 1086.8 169.35H1091.7V176H1085.4C1081.81 176 1079.06 175.16 1077.14 173.48C1075.23 171.8 1074.27 169.07 1074.27 165.29V143.94H1069.72V137.43H1074.27V127.84H1082.32V137.43H1091.7V143.94H1082.32ZM1137.91 155.77C1137.91 157.217 1137.82 158.523 1137.63 159.69H1108.16C1108.39 162.77 1109.54 165.243 1111.59 167.11C1113.64 168.977 1116.16 169.91 1119.15 169.91C1123.44 169.91 1126.48 168.113 1128.25 164.52H1136.86C1135.69 168.067 1133.57 170.983 1130.49 173.27C1127.46 175.51 1123.68 176.63 1119.15 176.63C1115.46 176.63 1112.15 175.813 1109.21 174.18C1106.32 172.5 1104.03 170.167 1102.35 167.18C1100.72 164.147 1099.9 160.647 1099.9 156.68C1099.9 152.713 1100.69 149.237 1102.28 146.25C1103.91 143.217 1106.18 140.883 1109.07 139.25C1112.01 137.617 1115.37 136.8 1119.15 136.8C1122.79 136.8 1126.03 137.593 1128.88 139.18C1131.73 140.767 1133.94 143.007 1135.53 145.9C1137.12 148.747 1137.91 152.037 1137.91 155.77ZM1129.58 153.25C1129.53 150.31 1128.48 147.953 1126.43 146.18C1124.38 144.407 1121.83 143.52 1118.8 143.52C1116.05 143.52 1113.69 144.407 1111.73 146.18C1109.77 147.907 1108.6 150.263 1108.23 153.25H1129.58Z" fill="#007BFF"/>
<rect x="568" y="287" width="463" height="495" rx="9" fill="#007BFF" fill-opacity="0.05" stroke="#007BFF" stroke-width="2"/>
<rect x="578" y="368" width="215.5" height="92" rx="4" fill="white" stroke="#007BFF" stroke-width="2"/>
<path d="M682.335 406.046V403.556H687.975V425.246H685.215V406.046H682.335Z" fill="#007BFF"/>
<rect x="578" y="472" width="215.5" height="92" rx="4" fill="white" stroke="#007BFF" stroke-width="2"/>
<path d="M678.967 513.016C679.107 511.176 679.817 509.736 681.097 508.696C682.377 507.656 684.037 507.136 686.077 507.136C687.437 507.136 688.607 507.386 689.587 507.886C690.587 508.366 691.337 509.026 691.837 509.866C692.357 510.706 692.617 511.656 692.617 512.716C692.617 513.956 692.257 515.026 691.537 515.926C690.837 516.826 689.917 517.406 688.777 517.666V517.816C690.077 518.136 691.107 518.766 691.867 519.706C692.627 520.646 693.007 521.876 693.007 523.396C693.007 524.536 692.747 525.566 692.227 526.486C691.707 527.386 690.927 528.096 689.887 528.616C688.847 529.136 687.597 529.396 686.137 529.396C684.017 529.396 682.277 528.846 680.917 527.746C679.557 526.626 678.797 525.046 678.637 523.006H681.277C681.417 524.206 681.907 525.186 682.747 525.946C683.587 526.706 684.707 527.086 686.107 527.086C687.507 527.086 688.567 526.726 689.287 526.006C690.027 525.266 690.397 524.316 690.397 523.156C690.397 521.656 689.897 520.576 688.897 519.916C687.897 519.256 686.387 518.926 684.367 518.926H683.677V516.646H684.397C686.237 516.626 687.627 516.326 688.567 515.746C689.507 515.146 689.977 514.226 689.977 512.986C689.977 511.926 689.627 511.076 688.927 510.436C688.247 509.796 687.267 509.476 685.987 509.476C684.747 509.476 683.747 509.796 682.987 510.436C682.227 511.076 681.777 511.936 681.637 513.016H678.967Z" fill="#007BFF"/>
<rect x="578" y="576" width="215.5" height="92" rx="4" fill="white" stroke="#007BFF" stroke-width="2"/>
<path d="M677.766 628.416V626.346L688.296 611.766H691.566V626.046H694.566V628.416H691.566V633.246H688.866V628.416H677.766ZM688.986 614.616L680.916 626.046H688.986V614.616Z" fill="#007BFF"/>
<rect x="806" y="368" width="215" height="92" rx="4" fill="white" stroke="#007BFF" stroke-width="2"/>
<path d="M918.883 420.857H909.566V419.559L914.488 414.09C915.217 413.263 915.719 412.592 915.992 412.078C916.272 411.557 916.412 411.02 916.412 410.467C916.412 409.725 916.188 409.116 915.738 408.641C915.289 408.165 914.69 407.928 913.941 407.928C913.043 407.928 912.343 408.185 911.842 408.699C911.347 409.207 911.1 409.917 911.1 410.828H909.293C909.293 409.52 909.713 408.462 910.553 407.654C911.399 406.847 912.529 406.443 913.941 406.443C915.263 406.443 916.308 406.792 917.076 407.488C917.844 408.178 918.229 409.1 918.229 410.252C918.229 411.652 917.337 413.318 915.553 415.252L911.744 419.383H918.883V420.857Z" fill="#007BFF"/>
<path d="M656.426 337.27C655.166 337.27 654.036 337.06 653.036 336.64C652.036 336.2 651.246 335.6 650.666 334.84C650.086 334.06 649.766 333.17 649.706 332.17H652.526C652.606 332.99 652.986 333.66 653.666 334.18C654.366 334.7 655.276 334.96 656.396 334.96C657.436 334.96 658.256 334.73 658.856 334.27C659.456 333.81 659.756 333.23 659.756 332.53C659.756 331.81 659.436 331.28 658.796 330.94C658.156 330.58 657.166 330.23 655.826 329.89C654.606 329.57 653.606 329.25 652.826 328.93C652.066 328.59 651.406 328.1 650.846 327.46C650.306 326.8 650.036 325.94 650.036 324.88C650.036 324.04 650.286 323.27 650.786 322.57C651.286 321.87 651.996 321.32 652.916 320.92C653.836 320.5 654.886 320.29 656.066 320.29C657.886 320.29 659.356 320.75 660.476 321.67C661.596 322.59 662.196 323.85 662.276 325.45H659.546C659.486 324.59 659.136 323.9 658.496 323.38C657.876 322.86 657.036 322.6 655.976 322.6C654.996 322.6 654.216 322.81 653.636 323.23C653.056 323.65 652.766 324.2 652.766 324.88C652.766 325.42 652.936 325.87 653.276 326.23C653.636 326.57 654.076 326.85 654.596 327.07C655.136 327.27 655.876 327.5 656.816 327.76C657.996 328.08 658.956 328.4 659.696 328.72C660.436 329.02 661.066 329.48 661.586 330.1C662.126 330.72 662.406 331.53 662.426 332.53C662.426 333.43 662.176 334.24 661.676 334.96C661.176 335.68 660.466 336.25 659.546 336.67C658.646 337.07 657.606 337.27 656.426 337.27ZM669.61 322.81V332.5C669.61 333.3 669.78 333.87 670.12 334.21C670.46 334.53 671.05 334.69 671.89 334.69H673.9V337H671.44C669.92 337 668.78 336.65 668.02 335.95C667.26 335.25 666.88 334.1 666.88 332.5V322.81H664.75V320.56H666.88V316.42H669.61V320.56H673.9V322.81H669.61ZM676.187 328.72C676.187 327.04 676.527 325.57 677.207 324.31C677.887 323.03 678.817 322.04 679.997 321.34C681.197 320.64 682.527 320.29 683.987 320.29C685.427 320.29 686.677 320.6 687.737 321.22C688.797 321.84 689.587 322.62 690.107 323.56V320.56H692.867V337H690.107V333.94C689.567 334.9 688.757 335.7 687.677 336.34C686.617 336.96 685.377 337.27 683.957 337.27C682.497 337.27 681.177 336.91 679.997 336.19C678.817 335.47 677.887 334.46 677.207 333.16C676.527 331.86 676.187 330.38 676.187 328.72ZM690.107 328.75C690.107 327.51 689.857 326.43 689.357 325.51C688.857 324.59 688.177 323.89 687.317 323.41C686.477 322.91 685.547 322.66 684.527 322.66C683.507 322.66 682.577 322.9 681.737 323.38C680.897 323.86 680.227 324.56 679.727 325.48C679.227 326.4 678.977 327.48 678.977 328.72C678.977 329.98 679.227 331.08 679.727 332.02C680.227 332.94 680.897 333.65 681.737 334.15C682.577 334.63 683.507 334.87 684.527 334.87C685.547 334.87 686.477 334.63 687.317 334.15C688.177 333.65 688.857 332.94 689.357 332.02C689.857 331.08 690.107 329.99 690.107 328.75ZM700.811 322.81V332.5C700.811 333.3 700.981 333.87 701.321 334.21C701.661 334.53 702.251 334.69 703.091 334.69H705.101V337H702.641C701.121 337 699.981 336.65 699.221 335.95C698.461 335.25 698.081 334.1 698.081 332.5V322.81H695.951V320.56H698.081V316.42H700.811V320.56H705.101V322.81H700.811ZM709.819 317.89C709.299 317.89 708.859 317.71 708.499 317.35C708.139 316.99 707.959 316.55 707.959 316.03C707.959 315.51 708.139 315.07 708.499 314.71C708.859 314.35 709.299 314.17 709.819 314.17C710.319 314.17 710.739 314.35 711.079 314.71C711.439 315.07 711.619 315.51 711.619 316.03C711.619 316.55 711.439 316.99 711.079 317.35C710.739 317.71 710.319 317.89 709.819 317.89ZM711.139 320.56V337H708.409V320.56H711.139ZM714.771 328.75C714.771 327.05 715.111 325.57 715.791 324.31C716.471 323.03 717.411 322.04 718.611 321.34C719.831 320.64 721.221 320.29 722.781 320.29C724.801 320.29 726.461 320.78 727.761 321.76C729.081 322.74 729.951 324.1 730.371 325.84H727.431C727.151 324.84 726.601 324.05 725.781 323.47C724.981 322.89 723.981 322.6 722.781 322.6C721.221 322.6 719.961 323.14 719.001 324.22C718.041 325.28 717.561 326.79 717.561 328.75C717.561 330.73 718.041 332.26 719.001 333.34C719.961 334.42 721.221 334.96 722.781 334.96C723.981 334.96 724.981 334.68 725.781 334.12C726.581 333.56 727.131 332.76 727.431 331.72H730.371C729.931 333.4 729.051 334.75 727.731 335.77C726.411 336.77 724.761 337.27 722.781 337.27C721.221 337.27 719.831 336.92 718.611 336.22C717.411 335.52 716.471 334.53 715.791 333.25C715.111 331.97 714.771 330.47 714.771 328.75Z" fill="#007BFF"/>
<path d="M844.533 328.72C844.533 327.04 844.873 325.57 845.553 324.31C846.233 323.03 847.163 322.04 848.343 321.34C849.543 320.64 850.873 320.29 852.333 320.29C853.773 320.29 855.023 320.6 856.083 321.22C857.143 321.84 857.933 322.62 858.453 323.56V320.56H861.213V337H858.453V333.94C857.913 334.9 857.103 335.7 856.023 336.34C854.963 336.96 853.723 337.27 852.303 337.27C850.843 337.27 849.523 336.91 848.343 336.19C847.163 335.47 846.233 334.46 845.553 333.16C844.873 331.86 844.533 330.38 844.533 328.72ZM858.453 328.75C858.453 327.51 858.203 326.43 857.703 325.51C857.203 324.59 856.523 323.89 855.663 323.41C854.823 322.91 853.893 322.66 852.873 322.66C851.853 322.66 850.923 322.9 850.083 323.38C849.243 323.86 848.573 324.56 848.073 325.48C847.573 326.4 847.323 327.48 847.323 328.72C847.323 329.98 847.573 331.08 848.073 332.02C848.573 332.94 849.243 333.65 850.083 334.15C850.923 334.63 851.853 334.87 852.873 334.87C853.893 334.87 854.823 334.63 855.663 334.15C856.523 333.65 857.203 332.94 857.703 332.02C858.203 331.08 858.453 329.99 858.453 328.75ZM868.557 323.62C869.117 322.64 869.937 321.84 871.017 321.22C872.097 320.6 873.327 320.29 874.707 320.29C876.187 320.29 877.517 320.64 878.697 321.34C879.877 322.04 880.807 323.03 881.487 324.31C882.167 325.57 882.507 327.04 882.507 328.72C882.507 330.38 882.167 331.86 881.487 333.16C880.807 334.46 879.867 335.47 878.667 336.19C877.487 336.91 876.167 337.27 874.707 337.27C873.287 337.27 872.037 336.96 870.957 336.34C869.897 335.72 869.097 334.93 868.557 333.97V337H865.827V314.8H868.557V323.62ZM879.717 328.72C879.717 327.48 879.467 326.4 878.967 325.48C878.467 324.56 877.787 323.86 876.927 323.38C876.087 322.9 875.157 322.66 874.137 322.66C873.137 322.66 872.207 322.91 871.347 323.41C870.507 323.89 869.827 324.6 869.307 325.54C868.807 326.46 868.557 327.53 868.557 328.75C868.557 329.99 868.807 331.08 869.307 332.02C869.827 332.94 870.507 333.65 871.347 334.15C872.207 334.63 873.137 334.87 874.137 334.87C875.157 334.87 876.087 334.63 876.927 334.15C877.787 333.65 878.467 332.94 878.967 332.02C879.467 331.08 879.717 329.98 879.717 328.72ZM891.92 337.27C890.66 337.27 889.53 337.06 888.53 336.64C887.53 336.2 886.74 335.6 886.16 334.84C885.58 334.06 885.26 333.17 885.2 332.17H888.02C888.1 332.99 888.48 333.66 889.16 334.18C889.86 334.7 890.77 334.96 891.89 334.96C892.93 334.96 893.75 334.73 894.35 334.27C894.95 333.81 895.25 333.23 895.25 332.53C895.25 331.81 894.93 331.28 894.29 330.94C893.65 330.58 892.66 330.23 891.32 329.89C890.1 329.57 889.1 329.25 888.32 328.93C887.56 328.59 886.9 328.1 886.34 327.46C885.8 326.8 885.53 325.94 885.53 324.88C885.53 324.04 885.78 323.27 886.28 322.57C886.78 321.87 887.49 321.32 888.41 320.92C889.33 320.5 890.38 320.29 891.56 320.29C893.38 320.29 894.85 320.75 895.97 321.67C897.09 322.59 897.69 323.85 897.77 325.45H895.04C894.98 324.59 894.63 323.9 893.99 323.38C893.37 322.86 892.53 322.6 891.47 322.6C890.49 322.6 889.71 322.81 889.13 323.23C888.55 323.65 888.26 324.2 888.26 324.88C888.26 325.42 888.43 325.87 888.77 326.23C889.13 326.57 889.57 326.85 890.09 327.07C890.63 327.27 891.37 327.5 892.31 327.76C893.49 328.08 894.45 328.4 895.19 328.72C895.93 329.02 896.56 329.48 897.08 330.1C897.62 330.72 897.9 331.53 897.92 332.53C897.92 333.43 897.67 334.24 897.17 334.96C896.67 335.68 895.96 336.25 895.04 336.67C894.14 337.07 893.1 337.27 891.92 337.27ZM908.944 337.27C907.404 337.27 906.004 336.92 904.744 336.22C903.504 335.52 902.524 334.53 901.804 333.25C901.104 331.95 900.754 330.45 900.754 328.75C900.754 327.07 901.114 325.59 901.834 324.31C902.574 323.01 903.574 322.02 904.834 321.34C906.094 320.64 907.504 320.29 909.064 320.29C910.624 320.29 912.034 320.64 913.294 321.34C914.554 322.02 915.544 323 916.264 324.28C917.004 325.56 917.374 327.05 917.374 328.75C917.374 330.45 916.994 331.95 916.234 333.25C915.494 334.53 914.484 335.52 913.204 336.22C911.924 336.92 910.504 337.27 908.944 337.27ZM908.944 334.87C909.924 334.87 910.844 334.64 911.704 334.18C912.564 333.72 913.254 333.03 913.774 332.11C914.314 331.19 914.584 330.07 914.584 328.75C914.584 327.43 914.324 326.31 913.804 325.39C913.284 324.47 912.604 323.79 911.764 323.35C910.924 322.89 910.014 322.66 909.034 322.66C908.034 322.66 907.114 322.89 906.274 323.35C905.454 323.79 904.794 324.47 904.294 325.39C903.794 326.31 903.544 327.43 903.544 328.75C903.544 330.09 903.784 331.22 904.264 332.14C904.764 333.06 905.424 333.75 906.244 334.21C907.064 334.65 907.964 334.87 908.944 334.87ZM923.693 314.8V337H920.963V314.8H923.693ZM942.926 320.56V337H940.196V334.57C939.676 335.41 938.946 336.07 938.006 336.55C937.086 337.01 936.066 337.24 934.946 337.24C933.666 337.24 932.516 336.98 931.496 336.46C930.476 335.92 929.666 335.12 929.066 334.06C928.486 333 928.196 331.71 928.196 330.19V320.56H930.896V329.83C930.896 331.45 931.306 332.7 932.126 333.58C932.946 334.44 934.066 334.87 935.486 334.87C936.946 334.87 938.096 334.42 938.936 333.52C939.776 332.62 940.196 331.31 940.196 329.59V320.56H942.926ZM950.866 322.81V332.5C950.866 333.3 951.036 333.87 951.376 334.21C951.716 334.53 952.306 334.69 953.146 334.69H955.156V337H952.696C951.176 337 950.036 336.65 949.276 335.95C948.516 335.25 948.136 334.1 948.136 332.5V322.81H946.006V320.56H948.136V316.42H950.866V320.56H955.156V322.81H950.866ZM973.463 328.15C973.463 328.67 973.433 329.22 973.373 329.8H960.233C960.333 331.42 960.883 332.69 961.883 333.61C962.903 334.51 964.133 334.96 965.573 334.96C966.753 334.96 967.733 334.69 968.513 334.15C969.313 333.59 969.873 332.85 970.193 331.93H973.133C972.693 333.51 971.813 334.8 970.493 335.8C969.173 336.78 967.533 337.27 965.573 337.27C964.013 337.27 962.613 336.92 961.373 336.22C960.153 335.52 959.193 334.53 958.493 333.25C957.793 331.95 957.443 330.45 957.443 328.75C957.443 327.05 957.783 325.56 958.463 324.28C959.143 323 960.093 322.02 961.313 321.34C962.553 320.64 963.973 320.29 965.573 320.29C967.133 320.29 968.513 320.63 969.713 321.31C970.913 321.99 971.833 322.93 972.473 324.13C973.133 325.31 973.463 326.65 973.463 328.15ZM970.643 327.58C970.643 326.54 970.413 325.65 969.953 324.91C969.493 324.15 968.863 323.58 968.063 323.2C967.283 322.8 966.413 322.6 965.453 322.6C964.073 322.6 962.893 323.04 961.913 323.92C960.953 324.8 960.403 326.02 960.263 327.58H970.643Z" fill="#007BFF"/>
<rect x="66" y="287" width="463" height="495" rx="9" stroke="#007BFF" stroke-width="2"/>
<rect x="76" y="368" width="215.5" height="92" rx="4" fill="white" stroke="#007BFF" stroke-width="2"/>
<path d="M180.335 406.046V403.556H185.975V425.246H183.215V406.046H180.335Z" fill="#007BFF"/>
<rect x="76" y="576" width="215.5" height="92" rx="4" fill="white" stroke="#007BFF" stroke-width="2"/>
<path d="M176.967 617.016C177.107 615.176 177.817 613.736 179.097 612.696C180.377 611.656 182.037 611.136 184.077 611.136C185.437 611.136 186.607 611.386 187.587 611.886C188.587 612.366 189.337 613.026 189.837 613.866C190.357 614.706 190.617 615.656 190.617 616.716C190.617 617.956 190.257 619.026 189.537 619.926C188.837 620.826 187.917 621.406 186.777 621.666V621.816C188.077 622.136 189.107 622.766 189.867 623.706C190.627 624.646 191.007 625.876 191.007 627.396C191.007 628.536 190.747 629.566 190.227 630.486C189.707 631.386 188.927 632.096 187.887 632.616C186.847 633.136 185.597 633.396 184.137 633.396C182.017 633.396 180.277 632.846 178.917 631.746C177.557 630.626 176.797 629.046 176.637 627.006H179.277C179.417 628.206 179.907 629.186 180.747 629.946C181.587 630.706 182.707 631.086 184.107 631.086C185.507 631.086 186.567 630.726 187.287 630.006C188.027 629.266 188.397 628.316 188.397 627.156C188.397 625.656 187.897 624.576 186.897 623.916C185.897 623.256 184.387 622.926 182.367 622.926H181.677V620.646H182.397C184.237 620.626 185.627 620.326 186.567 619.746C187.507 619.146 187.977 618.226 187.977 616.986C187.977 615.926 187.627 615.076 186.927 614.436C186.247 613.796 185.267 613.476 183.987 613.476C182.747 613.476 181.747 613.796 180.987 614.436C180.227 615.076 179.777 615.936 179.637 617.016H176.967Z" fill="#007BFF"/>
<rect x="77" y="680" width="215.5" height="92" rx="4" fill="white" stroke="#007BFF" stroke-width="2"/>
<path d="M176.766 732.416V730.346L187.296 715.766H190.566V730.046H193.566V732.416H190.566V737.246H187.866V732.416H176.766ZM187.986 718.616L179.916 730.046H187.986V718.616Z" fill="#007BFF"/>
<rect x="77" y="472" width="215" height="92" rx="4" fill="white" stroke="#007BFF" stroke-width="2"/>
<path d="M189.883 524.857H180.566V523.559L185.488 518.09C186.217 517.263 186.719 516.592 186.992 516.078C187.272 515.557 187.412 515.02 187.412 514.467C187.412 513.725 187.188 513.116 186.738 512.641C186.289 512.165 185.69 511.928 184.941 511.928C184.043 511.928 183.343 512.185 182.842 512.699C182.347 513.207 182.1 513.917 182.1 514.828H180.293C180.293 513.52 180.713 512.462 181.553 511.654C182.399 510.847 183.529 510.443 184.941 510.443C186.263 510.443 187.308 510.792 188.076 511.488C188.844 512.178 189.229 513.1 189.229 514.252C189.229 515.652 188.337 517.318 186.553 519.252L182.744 523.383H189.883V524.857Z" fill="#007BFF"/>
<path d="M145.477 324.97C145.477 325.97 145.177 326.75 144.577 327.31C143.977 327.87 143.207 328.25 142.267 328.45V328.57C143.267 328.71 144.137 329.07 144.877 329.65C145.617 330.21 145.987 331.09 145.987 332.29C145.987 333.65 145.477 334.78 144.457 335.68C143.457 336.56 141.797 337 139.477 337H132.547V320.92H139.447C140.587 320.92 141.607 321.05 142.507 321.31C143.427 321.55 144.147 321.97 144.667 322.57C145.207 323.15 145.477 323.95 145.477 324.97ZM142.807 325.3C142.807 324.54 142.527 323.99 141.967 323.65C141.427 323.29 140.537 323.11 139.297 323.11H135.187V327.52H138.817C141.477 327.52 142.807 326.78 142.807 325.3ZM143.257 332.29C143.257 331.37 142.907 330.71 142.207 330.31C141.507 329.91 140.477 329.71 139.117 329.71H135.187V334.87H139.177C140.497 334.87 141.507 334.68 142.207 334.3C142.907 333.9 143.257 333.23 143.257 332.29ZM156.282 337.3C154.862 337.3 153.592 337.01 152.472 336.43C151.372 335.85 150.502 334.95 149.862 333.73C149.242 332.51 148.932 330.95 148.932 329.05C148.932 327.07 149.262 325.46 149.922 324.22C150.582 322.98 151.472 322.07 152.592 321.49C153.732 320.91 155.022 320.62 156.462 320.62C157.282 320.62 158.072 320.71 158.832 320.89C159.592 321.05 160.212 321.25 160.692 321.49L159.882 323.68C159.402 323.5 158.842 323.33 158.202 323.17C157.562 323.01 156.962 322.93 156.402 322.93C153.242 322.93 151.662 324.96 151.662 329.02C151.662 330.96 152.042 332.45 152.802 333.49C153.582 334.51 154.732 335.02 156.252 335.02C157.132 335.02 157.902 334.93 158.562 334.75C159.242 334.57 159.862 334.35 160.422 334.09V336.43C159.882 336.71 159.282 336.92 158.622 337.06C157.982 337.22 157.202 337.3 156.282 337.3ZM170.456 320.62C171.836 320.62 173.016 320.92 173.996 321.52C174.996 322.12 175.756 322.97 176.276 324.07C176.816 325.15 177.086 326.42 177.086 327.88V329.47H166.076C166.116 331.29 166.576 332.68 167.456 333.64C168.356 334.58 169.606 335.05 171.206 335.05C172.226 335.05 173.126 334.96 173.906 334.78C174.706 334.58 175.526 334.3 176.366 333.94V336.25C175.546 336.61 174.736 336.87 173.936 337.03C173.136 337.21 172.186 337.3 171.086 337.3C169.566 337.3 168.216 336.99 167.036 336.37C165.876 335.75 164.966 334.83 164.306 333.61C163.666 332.37 163.346 330.86 163.346 329.08C163.346 327.32 163.636 325.81 164.216 324.55C164.816 323.29 165.646 322.32 166.706 321.64C167.786 320.96 169.036 320.62 170.456 320.62ZM170.426 322.78C169.166 322.78 168.166 323.19 167.426 324.01C166.706 324.81 166.276 325.93 166.136 327.37H174.326C174.306 326.01 173.986 324.91 173.366 324.07C172.746 323.21 171.766 322.78 170.426 322.78ZM191.758 337.3C190.838 337.3 190.038 337.22 189.358 337.06C188.698 336.92 188.078 336.71 187.498 336.43V334.15C188.098 334.39 188.748 334.6 189.448 334.78C190.148 334.96 190.938 335.05 191.818 335.05C193.378 335.05 194.618 334.63 195.538 333.79C196.458 332.95 196.968 331.62 197.068 329.8H189.148V327.64H197.038C196.898 326 196.428 324.8 195.628 324.04C194.848 323.28 193.698 322.9 192.178 322.9C191.598 322.9 190.958 322.98 190.258 323.14C189.578 323.3 188.968 323.48 188.428 323.68L187.678 321.55C188.258 321.29 188.948 321.07 189.748 320.89C190.548 320.71 191.348 320.62 192.148 320.62C193.648 320.62 194.968 320.9 196.108 321.46C197.268 322.02 198.168 322.91 198.808 324.13C199.468 325.35 199.798 326.96 199.798 328.96C199.798 330.86 199.448 332.43 198.748 333.67C198.068 334.91 197.118 335.83 195.898 336.43C194.698 337.01 193.318 337.3 191.758 337.3ZM216.242 337H213.572V323.11H208.832C208.572 326.49 208.212 329.22 207.752 331.3C207.292 333.36 206.682 334.86 205.922 335.8C205.162 336.74 204.202 337.21 203.042 337.21C202.782 337.21 202.522 337.19 202.262 337.15C202.022 337.13 201.822 337.08 201.662 337V335.02C201.782 335.06 201.912 335.09 202.052 335.11C202.192 335.13 202.332 335.14 202.472 335.14C203.552 335.14 204.412 333.99 205.052 331.69C205.712 329.39 206.212 325.8 206.552 320.92H216.242V337ZM227.556 320.62C228.936 320.62 230.116 320.92 231.096 321.52C232.096 322.12 232.856 322.97 233.376 324.07C233.916 325.15 234.186 326.42 234.186 327.88V329.47H223.176C223.216 331.29 223.676 332.68 224.556 333.64C225.456 334.58 226.706 335.05 228.306 335.05C229.326 335.05 230.226 334.96 231.006 334.78C231.806 334.58 232.626 334.3 233.466 333.94V336.25C232.646 336.61 231.836 336.87 231.036 337.03C230.236 337.21 229.286 337.3 228.186 337.3C226.666 337.3 225.316 336.99 224.136 336.37C222.976 335.75 222.066 334.83 221.406 333.61C220.766 332.37 220.446 330.86 220.446 329.08C220.446 327.32 220.736 325.81 221.316 324.55C221.916 323.29 222.746 322.32 223.806 321.64C224.886 320.96 226.136 320.62 227.556 320.62ZM227.526 322.78C226.266 322.78 225.266 323.19 224.526 324.01C223.806 324.81 223.376 325.93 223.236 327.37H231.426C231.406 326.01 231.086 324.91 230.466 324.07C229.846 323.21 228.866 322.78 227.526 322.78ZM255.529 320.92V337H253.159V326.74C253.159 326.32 253.169 325.88 253.189 325.42C253.229 324.96 253.269 324.51 253.309 324.07H253.219L247.969 337H245.749L240.649 324.07H240.559C240.619 324.97 240.649 325.89 240.649 326.83V337H238.279V320.92H241.789L246.859 333.85L252.019 320.92H255.529ZM266.872 320.62C268.252 320.62 269.432 320.92 270.412 321.52C271.412 322.12 272.172 322.97 272.692 324.07C273.232 325.15 273.502 326.42 273.502 327.88V329.47H262.492C262.532 331.29 262.992 332.68 263.872 333.64C264.772 334.58 266.022 335.05 267.622 335.05C268.642 335.05 269.542 334.96 270.322 334.78C271.122 334.58 271.942 334.3 272.782 333.94V336.25C271.962 336.61 271.152 336.87 270.352 337.03C269.552 337.21 268.602 337.3 267.502 337.3C265.982 337.3 264.632 336.99 263.452 336.37C262.292 335.75 261.382 334.83 260.722 333.61C260.082 332.37 259.762 330.86 259.762 329.08C259.762 327.32 260.052 325.81 260.632 324.55C261.232 323.29 262.062 322.32 263.122 321.64C264.202 320.96 265.452 320.62 266.872 320.62ZM266.842 322.78C265.582 322.78 264.582 323.19 263.842 324.01C263.122 324.81 262.692 325.93 262.552 327.37H270.742C270.722 326.01 270.402 324.91 269.782 324.07C269.162 323.21 268.182 322.78 266.842 322.78ZM280.236 320.92V327.61H288.966V320.92H291.606V337H288.966V329.83H280.236V337H277.596V320.92H280.236ZM307.797 323.14H302.547V337H299.937V323.14H294.747V320.92H307.797V323.14ZM310.965 337V320.92H313.605V327.52H317.775C319.855 327.52 321.395 327.9 322.395 328.66C323.395 329.42 323.895 330.56 323.895 332.08C323.895 333.58 323.405 334.78 322.425 335.68C321.445 336.56 319.855 337 317.655 337H310.965ZM326.565 337V320.92H329.205V337H326.565ZM317.415 334.87C318.555 334.87 319.485 334.68 320.205 334.3C320.925 333.9 321.285 333.21 321.285 332.23C321.285 331.25 320.955 330.59 320.295 330.25C319.635 329.89 318.685 329.71 317.445 329.71H313.605V334.87H317.415ZM355.243 324.97C355.243 325.97 354.943 326.75 354.343 327.31C353.743 327.87 352.973 328.25 352.033 328.45V328.57C353.033 328.71 353.903 329.07 354.643 329.65C355.383 330.21 355.753 331.09 355.753 332.29C355.753 333.65 355.243 334.78 354.223 335.68C353.223 336.56 351.563 337 349.243 337H342.313V320.92H349.213C350.353 320.92 351.373 321.05 352.273 321.31C353.193 321.55 353.913 321.97 354.433 322.57C354.973 323.15 355.243 323.95 355.243 324.97ZM352.573 325.3C352.573 324.54 352.293 323.99 351.733 323.65C351.193 323.29 350.303 323.11 349.063 323.11H344.953V327.52H348.583C351.243 327.52 352.573 326.78 352.573 325.3ZM353.023 332.29C353.023 331.37 352.673 330.71 351.973 330.31C351.273 329.91 350.243 329.71 348.883 329.71H344.953V334.87H348.943C350.263 334.87 351.273 334.68 351.973 334.3C352.673 333.9 353.023 333.23 353.023 332.29ZM381.186 320.92V337H378.546V323.17H370.236V337H367.596V320.92H381.186ZM400.297 328.93C400.297 331.59 399.617 333.65 398.257 335.11C396.917 336.57 395.097 337.3 392.797 337.3C391.377 337.3 390.107 336.98 388.987 336.34C387.887 335.68 387.017 334.73 386.377 333.49C385.737 332.23 385.417 330.71 385.417 328.93C385.417 326.27 386.087 324.22 387.427 322.78C388.767 321.34 390.587 320.62 392.887 320.62C394.347 320.62 395.627 320.95 396.727 321.61C397.847 322.25 398.717 323.19 399.337 324.43C399.977 325.65 400.297 327.15 400.297 328.93ZM388.147 328.93C388.147 330.83 388.517 332.34 389.257 333.46C390.017 334.56 391.217 335.11 392.857 335.11C394.477 335.11 395.667 334.56 396.427 333.46C397.187 332.34 397.567 330.83 397.567 328.93C397.567 327.03 397.187 325.54 396.427 324.46C395.667 323.38 394.467 322.84 392.827 322.84C391.187 322.84 389.997 323.38 389.257 324.46C388.517 325.54 388.147 327.03 388.147 328.93ZM415.288 323.14H410.038V337H407.428V323.14H402.238V320.92H415.288V323.14ZM432.142 328.93C432.142 331.59 431.462 333.65 430.102 335.11C428.762 336.57 426.942 337.3 424.642 337.3C423.222 337.3 421.952 336.98 420.832 336.34C419.732 335.68 418.862 334.73 418.222 333.49C417.582 332.23 417.262 330.71 417.262 328.93C417.262 326.27 417.932 324.22 419.272 322.78C420.612 321.34 422.432 320.62 424.732 320.62C426.192 320.62 427.472 320.95 428.572 321.61C429.692 322.25 430.562 323.19 431.182 324.43C431.822 325.65 432.142 327.15 432.142 328.93ZM419.992 328.93C419.992 330.83 420.362 332.34 421.102 333.46C421.862 334.56 423.062 335.11 424.702 335.11C426.322 335.11 427.512 334.56 428.272 333.46C429.032 332.34 429.412 330.83 429.412 328.93C429.412 327.03 429.032 325.54 428.272 324.46C427.512 323.38 426.312 322.84 424.672 322.84C423.032 322.84 421.842 323.38 421.102 324.46C420.362 325.54 419.992 327.03 419.992 328.93ZM445.836 320.92H448.716L441.846 328.66L449.286 337H446.226L438.966 328.84V337H436.326V320.92H438.966V328.72L445.836 320.92ZM457.829 320.62C459.209 320.62 460.389 320.92 461.369 321.52C462.369 322.12 463.129 322.97 463.649 324.07C464.189 325.15 464.459 326.42 464.459 327.88V329.47H453.449C453.489 331.29 453.949 332.68 454.829 333.64C455.729 334.58 456.979 335.05 458.579 335.05C459.599 335.05 460.499 334.96 461.279 334.78C462.079 334.58 462.899 334.3 463.739 333.94V336.25C462.919 336.61 462.109 336.87 461.309 337.03C460.509 337.21 459.559 337.3 458.459 337.3C456.939 337.3 455.589 336.99 454.409 336.37C453.249 335.75 452.339 334.83 451.679 333.61C451.039 332.37 450.719 330.86 450.719 329.08C450.719 327.32 451.009 325.81 451.589 324.55C452.189 323.29 453.019 322.32 454.079 321.64C455.159 320.96 456.409 320.62 457.829 320.62ZM457.799 322.78C456.539 322.78 455.539 323.19 454.799 324.01C454.079 324.81 453.649 325.93 453.509 327.37H461.699C461.679 326.01 461.359 324.91 460.739 324.07C460.119 323.21 459.139 322.78 457.799 322.78Z" fill="#007BFF"/>
<rect x="1070" y="287" width="463" height="495" rx="9" stroke="#007BFF" stroke-width="2"/>
<rect x="1080" y="368" width="215.5" height="92" rx="4" fill="white" stroke="#007BFF" stroke-width="2"/>
<path d="M1184.34 406.046V403.556H1189.98V425.246H1187.22V406.046H1184.34Z" fill="#007BFF"/>
<rect x="1081" y="472" width="215.5" height="92" rx="4" fill="white" stroke="#007BFF" stroke-width="2"/>
<path d="M1181.97 513.016C1182.11 511.176 1182.82 509.736 1184.1 508.696C1185.38 507.656 1187.04 507.136 1189.08 507.136C1190.44 507.136 1191.61 507.386 1192.59 507.886C1193.59 508.366 1194.34 509.026 1194.84 509.866C1195.36 510.706 1195.62 511.656 1195.62 512.716C1195.62 513.956 1195.26 515.026 1194.54 515.926C1193.84 516.826 1192.92 517.406 1191.78 517.666V517.816C1193.08 518.136 1194.11 518.766 1194.87 519.706C1195.63 520.646 1196.01 521.876 1196.01 523.396C1196.01 524.536 1195.75 525.566 1195.23 526.486C1194.71 527.386 1193.93 528.096 1192.89 528.616C1191.85 529.136 1190.6 529.396 1189.14 529.396C1187.02 529.396 1185.28 528.846 1183.92 527.746C1182.56 526.626 1181.8 525.046 1181.64 523.006H1184.28C1184.42 524.206 1184.91 525.186 1185.75 525.946C1186.59 526.706 1187.71 527.086 1189.11 527.086C1190.51 527.086 1191.57 526.726 1192.29 526.006C1193.03 525.266 1193.4 524.316 1193.4 523.156C1193.4 521.656 1192.9 520.576 1191.9 519.916C1190.9 519.256 1189.39 518.926 1187.37 518.926H1186.68V516.646H1187.4C1189.24 516.626 1190.63 516.326 1191.57 515.746C1192.51 515.146 1192.98 514.226 1192.98 512.986C1192.98 511.926 1192.63 511.076 1191.93 510.436C1191.25 509.796 1190.27 509.476 1188.99 509.476C1187.75 509.476 1186.75 509.796 1185.99 510.436C1185.23 511.076 1184.78 511.936 1184.64 513.016H1181.97Z" fill="#007BFF"/>
<rect x="1081" y="576" width="215.5" height="92" rx="4" fill="white" stroke="#007BFF" stroke-width="2"/>
<path d="M1180.77 628.416V626.346L1191.3 611.766H1194.57V626.046H1197.57V628.416H1194.57V633.246H1191.87V628.416H1180.77ZM1191.99 614.616L1183.92 626.046H1191.99V614.616Z" fill="#007BFF"/>
<rect x="1081" y="493" width="215.5" height="92" rx="4" fill="white" stroke="#007BFF" stroke-width="2"/>
<path d="M1194.13 545.857H1184.82V544.559L1189.74 539.09C1190.47 538.263 1190.97 537.592 1191.24 537.078C1191.52 536.557 1191.66 536.02 1191.66 535.467C1191.66 534.725 1191.44 534.116 1190.99 533.641C1190.54 533.165 1189.94 532.928 1189.19 532.928C1188.29 532.928 1187.59 533.185 1187.09 533.699C1186.6 534.207 1186.35 534.917 1186.35 535.828H1184.54C1184.54 534.52 1184.96 533.462 1185.8 532.654C1186.65 531.847 1187.78 531.443 1189.19 531.443C1190.51 531.443 1191.56 531.792 1192.33 532.488C1193.1 533.178 1193.48 534.1 1193.48 535.252C1193.48 536.652 1192.59 538.318 1190.8 540.252L1187 544.383H1194.13V545.857Z" fill="#007BFF"/>
<path d="M1175.68 324.97C1175.68 325.97 1175.38 326.75 1174.78 327.31C1174.18 327.87 1173.41 328.25 1172.47 328.45V328.57C1173.47 328.71 1174.34 329.07 1175.08 329.65C1175.82 330.21 1176.19 331.09 1176.19 332.29C1176.19 333.65 1175.68 334.78 1174.66 335.68C1173.66 336.56 1172 337 1169.68 337H1162.75V320.92H1169.65C1170.79 320.92 1171.81 321.05 1172.71 321.31C1173.63 321.55 1174.35 321.97 1174.87 322.57C1175.41 323.15 1175.68 323.95 1175.68 324.97ZM1173.01 325.3C1173.01 324.54 1172.73 323.99 1172.17 323.65C1171.63 323.29 1170.74 323.11 1169.5 323.11H1165.39V327.52H1169.02C1171.68 327.52 1173.01 326.78 1173.01 325.3ZM1173.46 332.29C1173.46 331.37 1173.11 330.71 1172.41 330.31C1171.71 329.91 1170.68 329.71 1169.32 329.71H1165.39V334.87H1169.38C1170.7 334.87 1171.71 334.68 1172.41 334.3C1173.11 333.9 1173.46 333.23 1173.46 332.29ZM1191.14 323.14H1185.89V337H1183.28V323.14H1178.09V320.92H1191.14V323.14ZM1207.99 328.93C1207.99 331.59 1207.31 333.65 1205.95 335.11C1204.61 336.57 1202.79 337.3 1200.49 337.3C1199.07 337.3 1197.8 336.98 1196.68 336.34C1195.58 335.68 1194.71 334.73 1194.07 333.49C1193.43 332.23 1193.11 330.71 1193.11 328.93C1193.11 326.27 1193.78 324.22 1195.12 322.78C1196.46 321.34 1198.28 320.62 1200.58 320.62C1202.04 320.62 1203.32 320.95 1204.42 321.61C1205.54 322.25 1206.41 323.19 1207.03 324.43C1207.67 325.65 1207.99 327.15 1207.99 328.93ZM1195.84 328.93C1195.84 330.83 1196.21 332.34 1196.95 333.46C1197.71 334.56 1198.91 335.11 1200.55 335.11C1202.17 335.11 1203.36 334.56 1204.12 333.46C1204.88 332.34 1205.26 330.83 1205.26 328.93C1205.26 327.03 1204.88 325.54 1204.12 324.46C1203.36 323.38 1202.16 322.84 1200.52 322.84C1198.88 322.84 1197.69 323.38 1196.95 324.46C1196.21 325.54 1195.84 327.03 1195.84 328.93ZM1219.83 320.62C1221.81 320.62 1223.4 321.31 1224.6 322.69C1225.82 324.07 1226.43 326.15 1226.43 328.93C1226.43 331.67 1225.82 333.75 1224.6 335.17C1223.4 336.59 1221.8 337.3 1219.8 337.3C1218.56 337.3 1217.53 337.07 1216.71 336.61C1215.91 336.13 1215.28 335.58 1214.82 334.96H1214.64C1214.68 335.3 1214.72 335.73 1214.76 336.25C1214.8 336.77 1214.82 337.22 1214.82 337.6V344.2H1212.18V320.92H1214.34L1214.7 323.11H1214.82C1215.3 322.41 1215.93 321.82 1216.71 321.34C1217.49 320.86 1218.53 320.62 1219.83 320.62ZM1219.35 322.84C1217.71 322.84 1216.55 323.3 1215.87 324.22C1215.21 325.14 1214.86 326.54 1214.82 328.42V328.93C1214.82 330.91 1215.14 332.44 1215.78 333.52C1216.44 334.58 1217.65 335.11 1219.41 335.11C1220.39 335.11 1221.19 334.84 1221.81 334.3C1222.45 333.76 1222.92 333.03 1223.22 332.11C1223.54 331.17 1223.7 330.1 1223.7 328.9C1223.7 327.06 1223.34 325.59 1222.62 324.49C1221.92 323.39 1220.83 322.84 1219.35 322.84ZM1244.61 328.93C1244.61 331.59 1243.93 333.65 1242.57 335.11C1241.23 336.57 1239.41 337.3 1237.11 337.3C1235.69 337.3 1234.42 336.98 1233.3 336.34C1232.2 335.68 1231.33 334.73 1230.69 333.49C1230.05 332.23 1229.73 330.71 1229.73 328.93C1229.73 326.27 1230.4 324.22 1231.74 322.78C1233.08 321.34 1234.9 320.62 1237.2 320.62C1238.66 320.62 1239.94 320.95 1241.04 321.61C1242.16 322.25 1243.03 323.19 1243.65 324.43C1244.29 325.65 1244.61 327.15 1244.61 328.93ZM1232.46 328.93C1232.46 330.83 1232.83 332.34 1233.57 333.46C1234.33 334.56 1235.53 335.11 1237.17 335.11C1238.79 335.11 1239.98 334.56 1240.74 333.46C1241.5 332.34 1241.88 330.83 1241.88 328.93C1241.88 327.03 1241.5 325.54 1240.74 324.46C1239.98 323.38 1238.78 322.84 1237.14 322.84C1235.5 322.84 1234.31 323.38 1233.57 324.46C1232.83 325.54 1232.46 327.03 1232.46 328.93ZM1261.82 314.26C1261.68 315.76 1261.17 316.9 1260.29 317.68C1259.43 318.44 1258.05 318.82 1256.15 318.82C1254.19 318.82 1252.8 318.44 1251.98 317.68C1251.18 316.92 1250.73 315.78 1250.63 314.26H1253.09C1253.19 315.34 1253.47 316.07 1253.93 316.45C1254.41 316.81 1255.17 316.99 1256.21 316.99C1257.13 316.99 1257.85 316.8 1258.37 316.42C1258.91 316.02 1259.23 315.3 1259.33 314.26H1261.82ZM1251.29 330.73C1251.29 330.97 1251.28 331.33 1251.26 331.81C1251.24 332.29 1251.21 332.77 1251.17 333.25C1251.15 333.73 1251.13 334.11 1251.11 334.39L1259.72 320.92H1262.96V337H1260.5V327.52C1260.5 327.2 1260.5 326.78 1260.5 326.26C1260.52 325.74 1260.54 325.23 1260.56 324.73C1260.58 324.21 1260.6 323.82 1260.62 323.56L1252.07 337H1248.8V320.92H1251.29V330.73ZM1278.71 320.92V327.61H1287.44V320.92H1290.08V337H1287.44V329.83H1278.71V337H1276.07V320.92H1278.71ZM1301.39 320.62C1302.77 320.62 1303.95 320.92 1304.93 321.52C1305.93 322.12 1306.69 322.97 1307.21 324.07C1307.75 325.15 1308.02 326.42 1308.02 327.88V329.47H1297.01C1297.05 331.29 1297.51 332.68 1298.39 333.64C1299.29 334.58 1300.54 335.05 1302.14 335.05C1303.16 335.05 1304.06 334.96 1304.84 334.78C1305.64 334.58 1306.46 334.3 1307.3 333.94V336.25C1306.48 336.61 1305.67 336.87 1304.87 337.03C1304.07 337.21 1303.12 337.3 1302.02 337.3C1300.5 337.3 1299.15 336.99 1297.97 336.37C1296.81 335.75 1295.9 334.83 1295.24 333.61C1294.6 332.37 1294.28 330.86 1294.28 329.08C1294.28 327.32 1294.57 325.81 1295.15 324.55C1295.75 323.29 1296.58 322.32 1297.64 321.64C1298.72 320.96 1299.97 320.62 1301.39 320.62ZM1301.36 322.78C1300.1 322.78 1299.1 323.19 1298.36 324.01C1297.64 324.81 1297.21 325.93 1297.07 327.37H1305.26C1305.24 326.01 1304.92 324.91 1304.3 324.07C1303.68 323.21 1302.7 322.78 1301.36 322.78ZM1333.04 324.97C1333.04 325.97 1332.74 326.75 1332.14 327.31C1331.54 327.87 1330.77 328.25 1329.83 328.45V328.57C1330.83 328.71 1331.7 329.07 1332.44 329.65C1333.18 330.21 1333.55 331.09 1333.55 332.29C1333.55 333.65 1333.04 334.78 1332.02 335.68C1331.02 336.56 1329.36 337 1327.04 337H1320.11V320.92H1327.01C1328.15 320.92 1329.17 321.05 1330.07 321.31C1330.99 321.55 1331.71 321.97 1332.23 322.57C1332.77 323.15 1333.04 323.95 1333.04 324.97ZM1330.37 325.3C1330.37 324.54 1330.09 323.99 1329.53 323.65C1328.99 323.29 1328.1 323.11 1326.86 323.11H1322.75V327.52H1326.38C1329.04 327.52 1330.37 326.78 1330.37 325.3ZM1330.82 332.29C1330.82 331.37 1330.47 330.71 1329.77 330.31C1329.07 329.91 1328.04 329.71 1326.68 329.71H1322.75V334.87H1326.74C1328.06 334.87 1329.07 334.68 1329.77 334.3C1330.47 333.9 1330.82 333.23 1330.82 332.29ZM1358.98 320.92V337H1356.34V323.17H1348.03V337H1345.39V320.92H1358.98ZM1378.09 328.93C1378.09 331.59 1377.41 333.65 1376.05 335.11C1374.71 336.57 1372.89 337.3 1370.59 337.3C1369.17 337.3 1367.9 336.98 1366.78 336.34C1365.68 335.68 1364.81 334.73 1364.17 333.49C1363.53 332.23 1363.21 330.71 1363.21 328.93C1363.21 326.27 1363.88 324.22 1365.22 322.78C1366.56 321.34 1368.38 320.62 1370.68 320.62C1372.14 320.62 1373.42 320.95 1374.52 321.61C1375.64 322.25 1376.51 323.19 1377.13 324.43C1377.77 325.65 1378.09 327.15 1378.09 328.93ZM1365.94 328.93C1365.94 330.83 1366.31 332.34 1367.05 333.46C1367.81 334.56 1369.01 335.11 1370.65 335.11C1372.27 335.11 1373.46 334.56 1374.22 333.46C1374.98 332.34 1375.36 330.83 1375.36 328.93C1375.36 327.03 1374.98 325.54 1374.22 324.46C1373.46 323.38 1372.26 322.84 1370.62 322.84C1368.98 322.84 1367.79 323.38 1367.05 324.46C1366.31 325.54 1365.94 327.03 1365.94 328.93ZM1393.08 323.14H1387.83V337H1385.22V323.14H1380.03V320.92H1393.08V323.14ZM1409.94 328.93C1409.94 331.59 1409.26 333.65 1407.9 335.11C1406.56 336.57 1404.74 337.3 1402.44 337.3C1401.02 337.3 1399.75 336.98 1398.63 336.34C1397.53 335.68 1396.66 334.73 1396.02 333.49C1395.38 332.23 1395.06 330.71 1395.06 328.93C1395.06 326.27 1395.73 324.22 1397.07 322.78C1398.41 321.34 1400.23 320.62 1402.53 320.62C1403.99 320.62 1405.27 320.95 1406.37 321.61C1407.49 322.25 1408.36 323.19 1408.98 324.43C1409.62 325.65 1409.94 327.15 1409.94 328.93ZM1397.79 328.93C1397.79 330.83 1398.16 332.34 1398.9 333.46C1399.66 334.56 1400.86 335.11 1402.5 335.11C1404.12 335.11 1405.31 334.56 1406.07 333.46C1406.83 332.34 1407.21 330.83 1407.21 328.93C1407.21 327.03 1406.83 325.54 1406.07 324.46C1405.31 323.38 1404.11 322.84 1402.47 322.84C1400.83 322.84 1399.64 323.38 1398.9 324.46C1398.16 325.54 1397.79 327.03 1397.79 328.93ZM1423.63 320.92H1426.51L1419.64 328.66L1427.08 337H1424.02L1416.76 328.84V337H1414.12V320.92H1416.76V328.72L1423.63 320.92ZM1435.62 320.62C1437 320.62 1438.18 320.92 1439.16 321.52C1440.16 322.12 1440.92 322.97 1441.44 324.07C1441.98 325.15 1442.25 326.42 1442.25 327.88V329.47H1431.24C1431.28 331.29 1431.74 332.68 1432.62 333.64C1433.52 334.58 1434.77 335.05 1436.37 335.05C1437.39 335.05 1438.29 334.96 1439.07 334.78C1439.87 334.58 1440.69 334.3 1441.53 333.94V336.25C1440.71 336.61 1439.9 336.87 1439.1 337.03C1438.3 337.21 1437.35 337.3 1436.25 337.3C1434.73 337.3 1433.38 336.99 1432.2 336.37C1431.04 335.75 1430.13 334.83 1429.47 333.61C1428.83 332.37 1428.51 330.86 1428.51 329.08C1428.51 327.32 1428.8 325.81 1429.38 324.55C1429.98 323.29 1430.81 322.32 1431.87 321.64C1432.95 320.96 1434.2 320.62 1435.62 320.62ZM1435.59 322.78C1434.33 322.78 1433.33 323.19 1432.59 324.01C1431.87 324.81 1431.44 325.93 1431.3 327.37H1439.49C1439.47 326.01 1439.15 324.91 1438.53 324.07C1437.91 323.21 1436.93 322.78 1435.59 322.78Z" fill="#007BFF"/>
</svg>
