<svg width="1600" height="900" viewBox="0 0 1600 900" fill="none" xmlns="http://www.w3.org/2000/svg">
<path d="M316.374 126.02C322.627 126.02 327.34 126.953 330.514 128.82C333.734 130.64 335.344 133.837 335.344 138.41C335.344 141.35 334.527 143.8 332.894 145.76C331.26 147.673 328.904 148.91 325.824 149.47V149.82C327.924 150.147 329.814 150.753 331.494 151.64C333.22 152.527 334.574 153.787 335.554 155.42C336.534 157.053 337.024 159.177 337.024 161.79C337.024 166.317 335.46 169.817 332.334 172.29C329.254 174.763 325.03 176 319.664 176H302.094V126.02H316.374ZM317.634 147.3C321.927 147.3 324.867 146.623 326.454 145.27C328.04 143.87 328.834 141.817 328.834 139.11C328.834 136.357 327.854 134.397 325.894 133.23C323.98 132.017 320.9 131.41 316.654 131.41H308.394V147.3H317.634ZM308.394 152.55V170.68H318.474C322.907 170.68 325.987 169.817 327.714 168.09C329.44 166.363 330.304 164.1 330.304 161.3C330.304 158.687 329.394 156.587 327.574 155C325.8 153.367 322.604 152.55 317.984 152.55H308.394ZM350.281 176V138.48H356.441V153.88H366.171C371.024 153.88 374.618 154.767 376.951 156.54C379.284 158.313 380.451 160.973 380.451 164.52C380.451 168.02 379.308 170.82 377.021 172.92C374.734 174.973 371.024 176 365.891 176H350.281ZM386.681 176V138.48H392.841V176H386.681ZM365.331 171.03C367.991 171.03 370.161 170.587 371.841 169.7C373.521 168.767 374.361 167.157 374.361 164.87C374.361 162.583 373.591 161.043 372.051 160.25C370.511 159.41 368.294 158.99 365.401 158.99H356.441V171.03H365.331ZM406.303 153.46C406.303 145.247 407.54 138.853 410.013 134.28C412.487 129.66 416.477 126.767 421.983 125.6C425.017 124.947 427.98 124.363 430.873 123.85C433.767 123.337 436.473 122.87 438.993 122.45L440.043 127.84C438.41 128.073 436.567 128.377 434.513 128.75C432.46 129.077 430.43 129.427 428.423 129.8C426.417 130.127 424.69 130.453 423.243 130.78C420.21 131.433 417.807 133.02 416.033 135.54C414.26 138.013 413.257 141.887 413.023 147.16H413.443C414.097 146.273 414.983 145.363 416.103 144.43C417.27 143.497 418.647 142.703 420.233 142.05C421.867 141.397 423.71 141.07 425.763 141.07C430.617 141.07 434.28 142.633 436.753 145.76C439.227 148.887 440.463 152.947 440.463 157.94C440.463 162.093 439.74 165.57 438.293 168.37C436.847 171.17 434.84 173.27 432.273 174.67C429.707 176.023 426.72 176.7 423.313 176.7C418.133 176.7 414.003 174.717 410.923 170.75C407.843 166.783 406.303 161.02 406.303 153.46ZM423.803 171.59C426.837 171.59 429.287 170.61 431.153 168.65C433.02 166.69 433.953 163.33 433.953 158.57C433.953 154.743 433.23 151.733 431.783 149.54C430.383 147.3 428.05 146.18 424.783 146.18C422.73 146.18 420.863 146.647 419.183 147.58C417.503 148.467 416.103 149.493 414.983 150.66C413.863 151.827 413.07 152.807 412.603 153.6C412.603 155.887 412.767 158.103 413.093 160.25C413.42 162.397 413.98 164.333 414.773 166.06C415.613 167.74 416.757 169.093 418.203 170.12C419.697 171.1 421.563 171.59 423.803 171.59ZM470.958 153.88C480.711 153.88 485.588 157.427 485.588 164.52C485.588 168.02 484.398 170.82 482.018 172.92C479.638 174.973 475.858 176 470.678 176H453.668V138.48H459.828V153.88H470.958ZM479.428 164.87C479.428 162.583 478.611 161.043 476.978 160.25C475.391 159.41 473.151 158.99 470.258 158.99H459.828V171.03H470.398C473.011 171.03 475.158 170.563 476.838 169.63C478.564 168.697 479.428 167.11 479.428 164.87ZM513.22 137.78C516.44 137.78 519.194 138.48 521.48 139.88C523.814 141.28 525.587 143.263 526.8 145.83C528.06 148.35 528.69 151.313 528.69 154.72V158.43H503C503.094 162.677 504.167 165.92 506.22 168.16C508.32 170.353 511.237 171.45 514.97 171.45C517.35 171.45 519.45 171.24 521.27 170.82C523.137 170.353 525.05 169.7 527.01 168.86V174.25C525.097 175.09 523.207 175.697 521.34 176.07C519.474 176.49 517.257 176.7 514.69 176.7C511.144 176.7 507.994 175.977 505.24 174.53C502.534 173.083 500.41 170.937 498.87 168.09C497.377 165.197 496.63 161.673 496.63 157.52C496.63 153.413 497.307 149.89 498.66 146.95C500.06 144.01 501.997 141.747 504.47 140.16C506.99 138.573 509.907 137.78 513.22 137.78ZM513.15 142.82C510.21 142.82 507.877 143.777 506.15 145.69C504.47 147.557 503.467 150.17 503.14 153.53H522.25C522.204 150.357 521.457 147.79 520.01 145.83C518.564 143.823 516.277 142.82 513.15 142.82ZM581.992 138.48V176H576.462V152.06C576.462 151.08 576.485 150.053 576.532 148.98C576.625 147.907 576.719 146.857 576.812 145.83H576.602L564.352 176H559.172L547.272 145.83H547.062C547.202 147.93 547.272 150.077 547.272 152.27V176H541.742V138.48H549.932L561.762 168.65L573.802 138.48H581.992ZM625.172 176.7C623.025 176.7 621.159 176.513 619.572 176.14C618.032 175.813 616.585 175.323 615.232 174.67V169.35C616.632 169.91 618.149 170.4 619.782 170.82C621.415 171.24 623.259 171.45 625.312 171.45C628.952 171.45 631.845 170.47 633.992 168.51C636.139 166.55 637.329 163.447 637.562 159.2H619.082V154.16H637.492C637.165 150.333 636.069 147.533 634.202 145.76C632.382 143.987 629.699 143.1 626.152 143.1C624.799 143.1 623.305 143.287 621.672 143.66C620.085 144.033 618.662 144.453 617.402 144.92L615.652 139.95C617.005 139.343 618.615 138.83 620.482 138.41C622.349 137.99 624.215 137.78 626.082 137.78C629.582 137.78 632.662 138.433 635.322 139.74C638.029 141.047 640.129 143.123 641.622 145.97C643.162 148.817 643.932 152.573 643.932 157.24C643.932 161.673 643.115 165.337 641.482 168.23C639.895 171.123 637.679 173.27 634.832 174.67C632.032 176.023 628.812 176.7 625.172 176.7ZM685.802 176H679.572V143.59H668.512C667.905 151.477 667.065 157.847 665.992 162.7C664.919 167.507 663.495 171.007 661.722 173.2C659.949 175.393 657.709 176.49 655.002 176.49C654.395 176.49 653.789 176.443 653.182 176.35C652.622 176.303 652.155 176.187 651.782 176V171.38C652.062 171.473 652.365 171.543 652.692 171.59C653.019 171.637 653.345 171.66 653.672 171.66C656.192 171.66 658.199 168.977 659.692 163.61C661.232 158.243 662.399 149.867 663.192 138.48H685.802V176ZM715.701 137.78C718.921 137.78 721.674 138.48 723.961 139.88C726.294 141.28 728.067 143.263 729.281 145.83C730.541 148.35 731.171 151.313 731.171 154.72V158.43H705.481C705.574 162.677 706.647 165.92 708.701 168.16C710.801 170.353 713.717 171.45 717.451 171.45C719.831 171.45 721.931 171.24 723.751 170.82C725.617 170.353 727.531 169.7 729.491 168.86V174.25C727.577 175.09 725.687 175.697 723.821 176.07C721.954 176.49 719.737 176.7 717.171 176.7C713.624 176.7 710.474 175.977 707.721 174.53C705.014 173.083 702.891 170.937 701.351 168.09C699.857 165.197 699.111 161.673 699.111 157.52C699.111 153.413 699.787 149.89 701.141 146.95C702.541 144.01 704.477 141.747 706.951 140.16C709.471 138.573 712.387 137.78 715.701 137.78ZM715.631 142.82C712.691 142.82 710.357 143.777 708.631 145.69C706.951 147.557 705.947 150.17 705.621 153.53H724.731C724.684 150.357 723.937 147.79 722.491 145.83C721.044 143.823 718.757 142.82 715.631 142.82ZM784.472 138.48V176H778.942V152.06C778.942 151.08 778.966 150.053 779.012 148.98C779.106 147.907 779.199 146.857 779.292 145.83H779.082L766.832 176H761.652L749.752 145.83H749.542C749.682 147.93 749.752 150.077 749.752 152.27V176H744.222V138.48H752.412L764.242 168.65L776.282 138.48H784.472ZM814.439 137.78C817.659 137.78 820.412 138.48 822.699 139.88C825.032 141.28 826.806 143.263 828.019 145.83C829.279 148.35 829.909 151.313 829.909 154.72V158.43H804.219C804.312 162.677 805.386 165.92 807.439 168.16C809.539 170.353 812.456 171.45 816.189 171.45C818.569 171.45 820.669 171.24 822.489 170.82C824.356 170.353 826.269 169.7 828.229 168.86V174.25C826.316 175.09 824.426 175.697 822.559 176.07C820.692 176.49 818.476 176.7 815.909 176.7C812.362 176.7 809.212 175.977 806.459 174.53C803.752 173.083 801.629 170.937 800.089 168.09C798.596 165.197 797.849 161.673 797.849 157.52C797.849 153.413 798.526 149.89 799.879 146.95C801.279 144.01 803.216 141.747 805.689 140.16C808.209 138.573 811.126 137.78 814.439 137.78ZM814.369 142.82C811.429 142.82 809.096 143.777 807.369 145.69C805.689 147.557 804.686 150.17 804.359 153.53H823.469C823.422 150.357 822.676 147.79 821.229 145.83C819.782 143.823 817.496 142.82 814.369 142.82ZM849.121 138.48V154.09H869.491V138.48H875.651V176H869.491V159.27H849.121V176H842.961V138.48H849.121ZM916.931 143.66H904.681V176H898.591V143.66H886.481V138.48H916.931V143.66ZM955.316 161.37C955.316 161.93 955.292 162.77 955.246 163.89C955.199 165.01 955.129 166.13 955.036 167.25C954.989 168.37 954.942 169.257 954.896 169.91L974.986 138.48H982.546V176H976.806V153.88C976.806 153.133 976.806 152.153 976.806 150.94C976.852 149.727 976.899 148.537 976.946 147.37C976.992 146.157 977.039 145.247 977.086 144.64L957.136 176H949.506V138.48H955.316V161.37ZM1007.86 137.78C1012.15 137.78 1015.56 138.643 1018.08 140.37C1020.64 142.05 1021.93 144.477 1021.93 147.65C1021.93 149.937 1021.3 151.757 1020.04 153.11C1018.78 154.417 1017.05 155.373 1014.86 155.98V156.26C1016.35 156.68 1017.73 157.263 1018.99 158.01C1020.25 158.757 1021.25 159.737 1022 160.95C1022.79 162.163 1023.19 163.727 1023.19 165.64C1023.19 168.767 1021.88 171.403 1019.27 173.55C1016.7 175.65 1012.66 176.7 1007.16 176.7C1004.45 176.7 1002 176.467 999.806 176C997.613 175.58 995.793 174.997 994.346 174.25V168.72C995.933 169.467 997.799 170.143 999.946 170.75C1002.14 171.357 1004.52 171.66 1007.09 171.66C1009.89 171.66 1012.24 171.193 1014.16 170.26C1016.12 169.28 1017.1 167.623 1017.1 165.29C1017.1 161.09 1013.53 158.99 1006.39 158.99H1001.35V153.95H1005.41C1008.63 153.95 1011.19 153.53 1013.11 152.69C1015.07 151.803 1016.05 150.31 1016.05 148.21C1016.05 146.437 1015.3 145.107 1013.81 144.22C1012.36 143.333 1010.26 142.89 1007.51 142.89C1005.45 142.89 1003.63 143.1 1002.05 143.52C1000.51 143.893 998.803 144.477 996.936 145.27L994.766 140.37C998.686 138.643 1003.05 137.78 1007.86 137.78ZM1089.2 138.48V176H1083.04V143.73H1063.65V176H1057.49V138.48H1089.2ZM1137.29 157.17C1137.29 163.377 1135.7 168.183 1132.53 171.59C1129.4 174.997 1125.15 176.7 1119.79 176.7C1116.47 176.7 1113.51 175.953 1110.9 174.46C1108.33 172.92 1106.3 170.703 1104.81 167.81C1103.31 164.87 1102.57 161.323 1102.57 157.17C1102.57 150.963 1104.13 146.18 1107.26 142.82C1110.38 139.46 1114.63 137.78 1120 137.78C1123.4 137.78 1126.39 138.55 1128.96 140.09C1131.57 141.583 1133.6 143.777 1135.05 146.67C1136.54 149.517 1137.29 153.017 1137.29 157.17ZM1108.94 157.17C1108.94 161.603 1109.8 165.127 1111.53 167.74C1113.3 170.307 1116.1 171.59 1119.93 171.59C1123.71 171.59 1126.48 170.307 1128.26 167.74C1130.03 165.127 1130.92 161.603 1130.92 157.17C1130.92 152.737 1130.03 149.26 1128.26 146.74C1126.48 144.22 1123.68 142.96 1119.86 142.96C1116.03 142.96 1113.25 144.22 1111.53 146.74C1109.8 149.26 1108.94 152.737 1108.94 157.17ZM1175.77 143.66H1163.52V176H1157.43V143.66H1145.32V138.48H1175.77V143.66ZM1218.59 157.17C1218.59 163.377 1217.01 168.183 1213.83 171.59C1210.71 174.997 1206.46 176.7 1201.09 176.7C1197.78 176.7 1194.82 175.953 1192.2 174.46C1189.64 172.92 1187.61 170.703 1186.11 167.81C1184.62 164.87 1183.87 161.323 1183.87 157.17C1183.87 150.963 1185.44 146.18 1188.56 142.82C1191.69 139.46 1195.94 137.78 1201.3 137.78C1204.71 137.78 1207.7 138.55 1210.26 140.09C1212.88 141.583 1214.91 143.777 1216.35 146.67C1217.85 149.517 1218.59 153.017 1218.59 157.17ZM1190.24 157.17C1190.24 161.603 1191.11 165.127 1192.83 167.74C1194.61 170.307 1197.41 171.59 1201.23 171.59C1205.01 171.59 1207.79 170.307 1209.56 167.74C1211.34 165.127 1212.22 161.603 1212.22 157.17C1212.22 152.737 1211.34 149.26 1209.56 146.74C1207.79 144.22 1204.99 142.96 1201.16 142.96C1197.34 142.96 1194.56 144.22 1192.83 146.74C1191.11 149.26 1190.24 152.737 1190.24 157.17ZM1254.05 138.48H1260.77L1244.74 156.54L1262.1 176H1254.96L1238.02 156.96V176H1231.86V138.48H1238.02V156.68L1254.05 138.48ZM1286.62 137.85C1291.19 137.85 1294.57 138.853 1296.77 140.86C1298.96 142.867 1300.06 146.063 1300.06 150.45V176H1295.58L1294.39 170.68H1294.11C1292.47 172.733 1290.75 174.25 1288.93 175.23C1287.15 176.21 1284.68 176.7 1281.51 176.7C1278.1 176.7 1275.28 175.813 1273.04 174.04C1270.8 172.22 1269.68 169.397 1269.68 165.57C1269.68 161.837 1271.15 158.967 1274.09 156.96C1277.03 154.907 1281.55 153.787 1287.67 153.6L1294.04 153.39V151.15C1294.04 148.023 1293.36 145.853 1292.01 144.64C1290.65 143.427 1288.74 142.82 1286.27 142.82C1284.31 142.82 1282.44 143.123 1280.67 143.73C1278.89 144.29 1277.24 144.943 1275.7 145.69L1273.81 141.07C1275.44 140.183 1277.38 139.437 1279.62 138.83C1281.86 138.177 1284.19 137.85 1286.62 137.85ZM1288.44 157.87C1283.77 158.057 1280.53 158.803 1278.71 160.11C1276.93 161.417 1276.05 163.26 1276.05 165.64C1276.05 167.74 1276.68 169.28 1277.94 170.26C1279.24 171.24 1280.9 171.73 1282.91 171.73C1286.08 171.73 1288.72 170.867 1290.82 169.14C1292.92 167.367 1293.97 164.66 1293.97 161.02V157.66L1288.44 157.87Z" fill="#007BFF"/>
<rect x="306" y="287" width="463" height="495" rx="9" stroke="#007BFF" stroke-width="2"/>
<rect x="316" y="368" width="215.5" height="92" rx="4" fill="white" stroke="#007BFF" stroke-width="2"/>
<path d="M420.335 406.046V403.556H425.975V425.246H423.215V406.046H420.335Z" fill="#007BFF"/>
<rect x="316" y="576" width="215.5" height="92" rx="4" fill="white" stroke="#007BFF" stroke-width="2"/>
<path d="M416.967 617.016C417.107 615.176 417.817 613.736 419.097 612.696C420.377 611.656 422.037 611.136 424.077 611.136C425.437 611.136 426.607 611.386 427.587 611.886C428.587 612.366 429.337 613.026 429.837 613.866C430.357 614.706 430.617 615.656 430.617 616.716C430.617 617.956 430.257 619.026 429.537 619.926C428.837 620.826 427.917 621.406 426.777 621.666V621.816C428.077 622.136 429.107 622.766 429.867 623.706C430.627 624.646 431.007 625.876 431.007 627.396C431.007 628.536 430.747 629.566 430.227 630.486C429.707 631.386 428.927 632.096 427.887 632.616C426.847 633.136 425.597 633.396 424.137 633.396C422.017 633.396 420.277 632.846 418.917 631.746C417.557 630.626 416.797 629.046 416.637 627.006H419.277C419.417 628.206 419.907 629.186 420.747 629.946C421.587 630.706 422.707 631.086 424.107 631.086C425.507 631.086 426.567 630.726 427.287 630.006C428.027 629.266 428.397 628.316 428.397 627.156C428.397 625.656 427.897 624.576 426.897 623.916C425.897 623.256 424.387 622.926 422.367 622.926H421.677V620.646H422.397C424.237 620.626 425.627 620.326 426.567 619.746C427.507 619.146 427.977 618.226 427.977 616.986C427.977 615.926 427.627 615.076 426.927 614.436C426.247 613.796 425.267 613.476 423.987 613.476C422.747 613.476 421.747 613.796 420.987 614.436C420.227 615.076 419.777 615.936 419.637 617.016H416.967Z" fill="#007BFF"/>
<rect x="317" y="680" width="215.5" height="92" rx="4" fill="white" stroke="#007BFF" stroke-width="2"/>
<path d="M416.766 732.416V730.346L427.296 715.766H430.566V730.046H433.566V732.416H430.566V737.246H427.866V732.416H416.766ZM427.986 718.616L419.916 730.046H427.986V718.616Z" fill="#007BFF"/>
<rect x="317" y="472" width="215" height="92" rx="4" fill="white" stroke="#007BFF" stroke-width="2"/>
<path d="M429.883 524.857H420.566V523.559L425.488 518.09C426.217 517.263 426.719 516.592 426.992 516.078C427.272 515.557 427.412 515.02 427.412 514.467C427.412 513.725 427.188 513.116 426.738 512.641C426.289 512.165 425.69 511.928 424.941 511.928C424.043 511.928 423.343 512.185 422.842 512.699C422.347 513.207 422.1 513.917 422.1 514.828H420.293C420.293 513.52 420.713 512.462 421.553 511.654C422.399 510.847 423.529 510.443 424.941 510.443C426.263 510.443 427.308 510.792 428.076 511.488C428.844 512.178 429.229 513.1 429.229 514.252C429.229 515.652 428.337 517.318 426.553 519.252L422.744 523.383H429.883V524.857Z" fill="#007BFF"/>
<path d="M385.477 324.97C385.477 325.97 385.177 326.75 384.577 327.31C383.977 327.87 383.207 328.25 382.267 328.45V328.57C383.267 328.71 384.137 329.07 384.877 329.65C385.617 330.21 385.987 331.09 385.987 332.29C385.987 333.65 385.477 334.78 384.457 335.68C383.457 336.56 381.797 337 379.477 337H372.547V320.92H379.447C380.587 320.92 381.607 321.05 382.507 321.31C383.427 321.55 384.147 321.97 384.667 322.57C385.207 323.15 385.477 323.95 385.477 324.97ZM382.807 325.3C382.807 324.54 382.527 323.99 381.967 323.65C381.427 323.29 380.537 323.11 379.297 323.11H375.187V327.52H378.817C381.477 327.52 382.807 326.78 382.807 325.3ZM383.257 332.29C383.257 331.37 382.907 330.71 382.207 330.31C381.507 329.91 380.477 329.71 379.117 329.71H375.187V334.87H379.177C380.497 334.87 381.507 334.68 382.207 334.3C382.907 333.9 383.257 333.23 383.257 332.29ZM396.282 337.3C394.862 337.3 393.592 337.01 392.472 336.43C391.372 335.85 390.502 334.95 389.862 333.73C389.242 332.51 388.932 330.95 388.932 329.05C388.932 327.07 389.262 325.46 389.922 324.22C390.582 322.98 391.472 322.07 392.592 321.49C393.732 320.91 395.022 320.62 396.462 320.62C397.282 320.62 398.072 320.71 398.832 320.89C399.592 321.05 400.212 321.25 400.692 321.49L399.882 323.68C399.402 323.5 398.842 323.33 398.202 323.17C397.562 323.01 396.962 322.93 396.402 322.93C393.242 322.93 391.662 324.96 391.662 329.02C391.662 330.96 392.042 332.45 392.802 333.49C393.582 334.51 394.732 335.02 396.252 335.02C397.132 335.02 397.902 334.93 398.562 334.75C399.242 334.57 399.862 334.35 400.422 334.09V336.43C399.882 336.71 399.282 336.92 398.622 337.06C397.982 337.22 397.202 337.3 396.282 337.3ZM410.456 320.62C411.836 320.62 413.016 320.92 413.996 321.52C414.996 322.12 415.756 322.97 416.276 324.07C416.816 325.15 417.086 326.42 417.086 327.88V329.47H406.076C406.116 331.29 406.576 332.68 407.456 333.64C408.356 334.58 409.606 335.05 411.206 335.05C412.226 335.05 413.126 334.96 413.906 334.78C414.706 334.58 415.526 334.3 416.366 333.94V336.25C415.546 336.61 414.736 336.87 413.936 337.03C413.136 337.21 412.186 337.3 411.086 337.3C409.566 337.3 408.216 336.99 407.036 336.37C405.876 335.75 404.966 334.83 404.306 333.61C403.666 332.37 403.346 330.86 403.346 329.08C403.346 327.32 403.636 325.81 404.216 324.55C404.816 323.29 405.646 322.32 406.706 321.64C407.786 320.96 409.036 320.62 410.456 320.62ZM410.426 322.78C409.166 322.78 408.166 323.19 407.426 324.01C406.706 324.81 406.276 325.93 406.136 327.37H414.326C414.306 326.01 413.986 324.91 413.366 324.07C412.746 323.21 411.766 322.78 410.426 322.78ZM431.758 337.3C430.838 337.3 430.038 337.22 429.358 337.06C428.698 336.92 428.078 336.71 427.498 336.43V334.15C428.098 334.39 428.748 334.6 429.448 334.78C430.148 334.96 430.938 335.05 431.818 335.05C433.378 335.05 434.618 334.63 435.538 333.79C436.458 332.95 436.968 331.62 437.068 329.8H429.148V327.64H437.038C436.898 326 436.428 324.8 435.628 324.04C434.848 323.28 433.698 322.9 432.178 322.9C431.598 322.9 430.958 322.98 430.258 323.14C429.578 323.3 428.968 323.48 428.428 323.68L427.678 321.55C428.258 321.29 428.948 321.07 429.748 320.89C430.548 320.71 431.348 320.62 432.148 320.62C433.648 320.62 434.968 320.9 436.108 321.46C437.268 322.02 438.168 322.91 438.808 324.13C439.468 325.35 439.798 326.96 439.798 328.96C439.798 330.86 439.448 332.43 438.748 333.67C438.068 334.91 437.118 335.83 435.898 336.43C434.698 337.01 433.318 337.3 431.758 337.3ZM456.242 337H453.572V323.11H448.832C448.572 326.49 448.212 329.22 447.752 331.3C447.292 333.36 446.682 334.86 445.922 335.8C445.162 336.74 444.202 337.21 443.042 337.21C442.782 337.21 442.522 337.19 442.262 337.15C442.022 337.13 441.822 337.08 441.662 337V335.02C441.782 335.06 441.912 335.09 442.052 335.11C442.192 335.13 442.332 335.14 442.472 335.14C443.552 335.14 444.412 333.99 445.052 331.69C445.712 329.39 446.212 325.8 446.552 320.92H456.242V337ZM467.556 320.62C468.936 320.62 470.116 320.92 471.096 321.52C472.096 322.12 472.856 322.97 473.376 324.07C473.916 325.15 474.186 326.42 474.186 327.88V329.47H463.176C463.216 331.29 463.676 332.68 464.556 333.64C465.456 334.58 466.706 335.05 468.306 335.05C469.326 335.05 470.226 334.96 471.006 334.78C471.806 334.58 472.626 334.3 473.466 333.94V336.25C472.646 336.61 471.836 336.87 471.036 337.03C470.236 337.21 469.286 337.3 468.186 337.3C466.666 337.3 465.316 336.99 464.136 336.37C462.976 335.75 462.066 334.83 461.406 333.61C460.766 332.37 460.446 330.86 460.446 329.08C460.446 327.32 460.736 325.81 461.316 324.55C461.916 323.29 462.746 322.32 463.806 321.64C464.886 320.96 466.136 320.62 467.556 320.62ZM467.526 322.78C466.266 322.78 465.266 323.19 464.526 324.01C463.806 324.81 463.376 325.93 463.236 327.37H471.426C471.406 326.01 471.086 324.91 470.466 324.07C469.846 323.21 468.866 322.78 467.526 322.78ZM495.529 320.92V337H493.159V326.74C493.159 326.32 493.169 325.88 493.189 325.42C493.229 324.96 493.269 324.51 493.309 324.07H493.219L487.969 337H485.749L480.649 324.07H480.559C480.619 324.97 480.649 325.89 480.649 326.83V337H478.279V320.92H481.789L486.859 333.85L492.019 320.92H495.529ZM506.872 320.62C508.252 320.62 509.432 320.92 510.412 321.52C511.412 322.12 512.172 322.97 512.692 324.07C513.232 325.15 513.502 326.42 513.502 327.88V329.47H502.492C502.532 331.29 502.992 332.68 503.872 333.64C504.772 334.58 506.022 335.05 507.622 335.05C508.642 335.05 509.542 334.96 510.322 334.78C511.122 334.58 511.942 334.3 512.782 333.94V336.25C511.962 336.61 511.152 336.87 510.352 337.03C509.552 337.21 508.602 337.3 507.502 337.3C505.982 337.3 504.632 336.99 503.452 336.37C502.292 335.75 501.382 334.83 500.722 333.61C500.082 332.37 499.762 330.86 499.762 329.08C499.762 327.32 500.052 325.81 500.632 324.55C501.232 323.29 502.062 322.32 503.122 321.64C504.202 320.96 505.452 320.62 506.872 320.62ZM506.842 322.78C505.582 322.78 504.582 323.19 503.842 324.01C503.122 324.81 502.692 325.93 502.552 327.37H510.742C510.722 326.01 510.402 324.91 509.782 324.07C509.162 323.21 508.182 322.78 506.842 322.78ZM520.236 320.92V327.61H528.966V320.92H531.606V337H528.966V329.83H520.236V337H517.596V320.92H520.236ZM547.797 323.14H542.547V337H539.937V323.14H534.747V320.92H547.797V323.14ZM550.965 337V320.92H553.605V327.52H557.775C559.855 327.52 561.395 327.9 562.395 328.66C563.395 329.42 563.895 330.56 563.895 332.08C563.895 333.58 563.405 334.78 562.425 335.68C561.445 336.56 559.855 337 557.655 337H550.965ZM566.565 337V320.92H569.205V337H566.565ZM557.415 334.87C558.555 334.87 559.485 334.68 560.205 334.3C560.925 333.9 561.285 333.21 561.285 332.23C561.285 331.25 560.955 330.59 560.295 330.25C559.635 329.89 558.685 329.71 557.445 329.71H553.605V334.87H557.415ZM595.243 324.97C595.243 325.97 594.943 326.75 594.343 327.31C593.743 327.87 592.973 328.25 592.033 328.45V328.57C593.033 328.71 593.903 329.07 594.643 329.65C595.383 330.21 595.753 331.09 595.753 332.29C595.753 333.65 595.243 334.78 594.223 335.68C593.223 336.56 591.563 337 589.243 337H582.313V320.92H589.213C590.353 320.92 591.373 321.05 592.273 321.31C593.193 321.55 593.913 321.97 594.433 322.57C594.973 323.15 595.243 323.95 595.243 324.97ZM592.573 325.3C592.573 324.54 592.293 323.99 591.733 323.65C591.193 323.29 590.303 323.11 589.063 323.11H584.953V327.52H588.583C591.243 327.52 592.573 326.78 592.573 325.3ZM593.023 332.29C593.023 331.37 592.673 330.71 591.973 330.31C591.273 329.91 590.243 329.71 588.883 329.71H584.953V334.87H588.943C590.263 334.87 591.273 334.68 591.973 334.3C592.673 333.9 593.023 333.23 593.023 332.29ZM621.186 320.92V337H618.546V323.17H610.236V337H607.596V320.92H621.186ZM640.297 328.93C640.297 331.59 639.617 333.65 638.257 335.11C636.917 336.57 635.097 337.3 632.797 337.3C631.377 337.3 630.107 336.98 628.987 336.34C627.887 335.68 627.017 334.73 626.377 333.49C625.737 332.23 625.417 330.71 625.417 328.93C625.417 326.27 626.087 324.22 627.427 322.78C628.767 321.34 630.587 320.62 632.887 320.62C634.347 320.62 635.627 320.95 636.727 321.61C637.847 322.25 638.717 323.19 639.337 324.43C639.977 325.65 640.297 327.15 640.297 328.93ZM628.147 328.93C628.147 330.83 628.517 332.34 629.257 333.46C630.017 334.56 631.217 335.11 632.857 335.11C634.477 335.11 635.667 334.56 636.427 333.46C637.187 332.34 637.567 330.83 637.567 328.93C637.567 327.03 637.187 325.54 636.427 324.46C635.667 323.38 634.467 322.84 632.827 322.84C631.187 322.84 629.997 323.38 629.257 324.46C628.517 325.54 628.147 327.03 628.147 328.93ZM655.288 323.14H650.038V337H647.428V323.14H642.238V320.92H655.288V323.14ZM672.142 328.93C672.142 331.59 671.462 333.65 670.102 335.11C668.762 336.57 666.942 337.3 664.642 337.3C663.222 337.3 661.952 336.98 660.832 336.34C659.732 335.68 658.862 334.73 658.222 333.49C657.582 332.23 657.262 330.71 657.262 328.93C657.262 326.27 657.932 324.22 659.272 322.78C660.612 321.34 662.432 320.62 664.732 320.62C666.192 320.62 667.472 320.95 668.572 321.61C669.692 322.25 670.562 323.19 671.182 324.43C671.822 325.65 672.142 327.15 672.142 328.93ZM659.992 328.93C659.992 330.83 660.362 332.34 661.102 333.46C661.862 334.56 663.062 335.11 664.702 335.11C666.322 335.11 667.512 334.56 668.272 333.46C669.032 332.34 669.412 330.83 669.412 328.93C669.412 327.03 669.032 325.54 668.272 324.46C667.512 323.38 666.312 322.84 664.672 322.84C663.032 322.84 661.842 323.38 661.102 324.46C660.362 325.54 659.992 327.03 659.992 328.93ZM685.836 320.92H688.716L681.846 328.66L689.286 337H686.226L678.966 328.84V337H676.326V320.92H678.966V328.72L685.836 320.92ZM697.829 320.62C699.209 320.62 700.389 320.92 701.369 321.52C702.369 322.12 703.129 322.97 703.649 324.07C704.189 325.15 704.459 326.42 704.459 327.88V329.47H693.449C693.489 331.29 693.949 332.68 694.829 333.64C695.729 334.58 696.979 335.05 698.579 335.05C699.599 335.05 700.499 334.96 701.279 334.78C702.079 334.58 702.899 334.3 703.739 333.94V336.25C702.919 336.61 702.109 336.87 701.309 337.03C700.509 337.21 699.559 337.3 698.459 337.3C696.939 337.3 695.589 336.99 694.409 336.37C693.249 335.75 692.339 334.83 691.679 333.61C691.039 332.37 690.719 330.86 690.719 329.08C690.719 327.32 691.009 325.81 691.589 324.55C692.189 323.29 693.019 322.32 694.079 321.64C695.159 320.96 696.409 320.62 697.829 320.62ZM697.799 322.78C696.539 322.78 695.539 323.19 694.799 324.01C694.079 324.81 693.649 325.93 693.509 327.37H701.699C701.679 326.01 701.359 324.91 700.739 324.07C700.119 323.21 699.139 322.78 697.799 322.78Z" fill="#007BFF"/>
<rect x="832" y="287" width="463" height="495" rx="9" stroke="#007BFF" stroke-width="2"/>
<rect x="842" y="368" width="215.5" height="92" rx="4" fill="white" stroke="#007BFF" stroke-width="2"/>
<path d="M946.335 406.046V403.556H951.975V425.246H949.215V406.046H946.335Z" fill="#007BFF"/>
<rect x="843" y="472" width="215.5" height="92" rx="4" fill="white" stroke="#007BFF" stroke-width="2"/>
<path d="M943.967 513.016C944.107 511.176 944.817 509.736 946.097 508.696C947.377 507.656 949.037 507.136 951.077 507.136C952.437 507.136 953.607 507.386 954.587 507.886C955.587 508.366 956.337 509.026 956.837 509.866C957.357 510.706 957.617 511.656 957.617 512.716C957.617 513.956 957.257 515.026 956.537 515.926C955.837 516.826 954.917 517.406 953.777 517.666V517.816C955.077 518.136 956.107 518.766 956.867 519.706C957.627 520.646 958.007 521.876 958.007 523.396C958.007 524.536 957.747 525.566 957.227 526.486C956.707 527.386 955.927 528.096 954.887 528.616C953.847 529.136 952.597 529.396 951.137 529.396C949.017 529.396 947.277 528.846 945.917 527.746C944.557 526.626 943.797 525.046 943.637 523.006H946.277C946.417 524.206 946.907 525.186 947.747 525.946C948.587 526.706 949.707 527.086 951.107 527.086C952.507 527.086 953.567 526.726 954.287 526.006C955.027 525.266 955.397 524.316 955.397 523.156C955.397 521.656 954.897 520.576 953.897 519.916C952.897 519.256 951.387 518.926 949.367 518.926H948.677V516.646H949.397C951.237 516.626 952.627 516.326 953.567 515.746C954.507 515.146 954.977 514.226 954.977 512.986C954.977 511.926 954.627 511.076 953.927 510.436C953.247 509.796 952.267 509.476 950.987 509.476C949.747 509.476 948.747 509.796 947.987 510.436C947.227 511.076 946.777 511.936 946.637 513.016H943.967Z" fill="#007BFF"/>
<rect x="843" y="576" width="215.5" height="92" rx="4" fill="white" stroke="#007BFF" stroke-width="2"/>
<path d="M942.766 628.416V626.346L953.296 611.766H956.566V626.046H959.566V628.416H956.566V633.246H953.866V628.416H942.766ZM953.986 614.616L945.916 626.046H953.986V614.616Z" fill="#007BFF"/>
<rect x="843" y="493" width="215.5" height="92" rx="4" fill="white" stroke="#007BFF" stroke-width="2"/>
<path d="M956.134 545.857H946.818V544.559L951.739 539.09C952.469 538.263 952.97 537.592 953.243 537.078C953.523 536.557 953.663 536.02 953.663 535.467C953.663 534.725 953.439 534.116 952.989 533.641C952.54 533.165 951.941 532.928 951.193 532.928C950.294 532.928 949.594 533.185 949.093 533.699C948.598 534.207 948.351 534.917 948.351 535.828H946.544C946.544 534.52 946.964 533.462 947.804 532.654C948.65 531.847 949.78 531.443 951.193 531.443C952.514 531.443 953.559 531.792 954.327 532.488C955.096 533.178 955.48 534.1 955.48 535.252C955.48 536.652 954.588 538.318 952.804 540.252L948.995 544.383H956.134V545.857Z" fill="#007BFF"/>
<path d="M937.683 324.97C937.683 325.97 937.383 326.75 936.783 327.31C936.183 327.87 935.413 328.25 934.473 328.45V328.57C935.473 328.71 936.343 329.07 937.083 329.65C937.823 330.21 938.193 331.09 938.193 332.29C938.193 333.65 937.683 334.78 936.663 335.68C935.663 336.56 934.003 337 931.683 337H924.753V320.92H931.653C932.793 320.92 933.813 321.05 934.713 321.31C935.633 321.55 936.353 321.97 936.873 322.57C937.413 323.15 937.683 323.95 937.683 324.97ZM935.013 325.3C935.013 324.54 934.733 323.99 934.173 323.65C933.633 323.29 932.743 323.11 931.503 323.11H927.393V327.52H931.023C933.683 327.52 935.013 326.78 935.013 325.3ZM935.463 332.29C935.463 331.37 935.113 330.71 934.413 330.31C933.713 329.91 932.683 329.71 931.323 329.71H927.393V334.87H931.383C932.703 334.87 933.713 334.68 934.413 334.3C935.113 333.9 935.463 333.23 935.463 332.29ZM953.138 323.14H947.888V337H945.278V323.14H940.088V320.92H953.138V323.14ZM969.993 328.93C969.993 331.59 969.313 333.65 967.953 335.11C966.613 336.57 964.793 337.3 962.493 337.3C961.073 337.3 959.803 336.98 958.683 336.34C957.583 335.68 956.713 334.73 956.073 333.49C955.433 332.23 955.113 330.71 955.113 328.93C955.113 326.27 955.783 324.22 957.123 322.78C958.463 321.34 960.283 320.62 962.583 320.62C964.043 320.62 965.323 320.95 966.423 321.61C967.543 322.25 968.413 323.19 969.033 324.43C969.673 325.65 969.993 327.15 969.993 328.93ZM957.843 328.93C957.843 330.83 958.213 332.34 958.953 333.46C959.713 334.56 960.913 335.11 962.553 335.11C964.173 335.11 965.363 334.56 966.123 333.46C966.883 332.34 967.263 330.83 967.263 328.93C967.263 327.03 966.883 325.54 966.123 324.46C965.363 323.38 964.163 322.84 962.523 322.84C960.883 322.84 959.693 323.38 958.953 324.46C958.213 325.54 957.843 327.03 957.843 328.93ZM981.827 320.62C983.807 320.62 985.397 321.31 986.597 322.69C987.817 324.07 988.427 326.15 988.427 328.93C988.427 331.67 987.817 333.75 986.597 335.17C985.397 336.59 983.797 337.3 981.797 337.3C980.557 337.3 979.527 337.07 978.707 336.61C977.907 336.13 977.277 335.58 976.817 334.96H976.637C976.677 335.3 976.717 335.73 976.757 336.25C976.797 336.77 976.817 337.22 976.817 337.6V344.2H974.177V320.92H976.337L976.697 323.11H976.817C977.297 322.41 977.927 321.82 978.707 321.34C979.487 320.86 980.527 320.62 981.827 320.62ZM981.347 322.84C979.707 322.84 978.547 323.3 977.867 324.22C977.207 325.14 976.857 326.54 976.817 328.42V328.93C976.817 330.91 977.137 332.44 977.777 333.52C978.437 334.58 979.647 335.11 981.407 335.11C982.387 335.11 983.187 334.84 983.807 334.3C984.447 333.76 984.917 333.03 985.217 332.11C985.537 331.17 985.697 330.1 985.697 328.9C985.697 327.06 985.337 325.59 984.617 324.49C983.917 323.39 982.827 322.84 981.347 322.84ZM1006.61 328.93C1006.61 331.59 1005.93 333.65 1004.57 335.11C1003.23 336.57 1001.41 337.3 999.114 337.3C997.694 337.3 996.424 336.98 995.304 336.34C994.204 335.68 993.334 334.73 992.694 333.49C992.054 332.23 991.734 330.71 991.734 328.93C991.734 326.27 992.404 324.22 993.744 322.78C995.084 321.34 996.904 320.62 999.204 320.62C1000.66 320.62 1001.94 320.95 1003.04 321.61C1004.16 322.25 1005.03 323.19 1005.65 324.43C1006.29 325.65 1006.61 327.15 1006.61 328.93ZM994.464 328.93C994.464 330.83 994.834 332.34 995.574 333.46C996.334 334.56 997.534 335.11 999.174 335.11C1000.79 335.11 1001.98 334.56 1002.74 333.46C1003.5 332.34 1003.88 330.83 1003.88 328.93C1003.88 327.03 1003.5 325.54 1002.74 324.46C1001.98 323.38 1000.78 322.84 999.144 322.84C997.504 322.84 996.314 323.38 995.574 324.46C994.834 325.54 994.464 327.03 994.464 328.93ZM1023.82 314.26C1023.68 315.76 1023.17 316.9 1022.29 317.68C1021.43 318.44 1020.05 318.82 1018.15 318.82C1016.19 318.82 1014.8 318.44 1013.98 317.68C1013.18 316.92 1012.73 315.78 1012.63 314.26H1015.09C1015.19 315.34 1015.47 316.07 1015.93 316.45C1016.41 316.81 1017.17 316.99 1018.21 316.99C1019.13 316.99 1019.85 316.8 1020.37 316.42C1020.91 316.02 1021.23 315.3 1021.33 314.26H1023.82ZM1013.29 330.73C1013.29 330.97 1013.28 331.33 1013.26 331.81C1013.24 332.29 1013.21 332.77 1013.17 333.25C1013.15 333.73 1013.13 334.11 1013.11 334.39L1021.72 320.92H1024.96V337H1022.5V327.52C1022.5 327.2 1022.5 326.78 1022.5 326.26C1022.52 325.74 1022.54 325.23 1022.56 324.73C1022.58 324.21 1022.6 323.82 1022.62 323.56L1014.07 337H1010.8V320.92H1013.29V330.73ZM1040.71 320.92V327.61H1049.44V320.92H1052.08V337H1049.44V329.83H1040.71V337H1038.07V320.92H1040.71ZM1063.39 320.62C1064.77 320.62 1065.95 320.92 1066.93 321.52C1067.93 322.12 1068.69 322.97 1069.21 324.07C1069.75 325.15 1070.02 326.42 1070.02 327.88V329.47H1059.01C1059.05 331.29 1059.51 332.68 1060.39 333.64C1061.29 334.58 1062.54 335.05 1064.14 335.05C1065.16 335.05 1066.06 334.96 1066.84 334.78C1067.64 334.58 1068.46 334.3 1069.3 333.94V336.25C1068.48 336.61 1067.67 336.87 1066.87 337.03C1066.07 337.21 1065.12 337.3 1064.02 337.3C1062.5 337.3 1061.15 336.99 1059.97 336.37C1058.81 335.75 1057.9 334.83 1057.24 333.61C1056.6 332.37 1056.28 330.86 1056.28 329.08C1056.28 327.32 1056.57 325.81 1057.15 324.55C1057.75 323.29 1058.58 322.32 1059.64 321.64C1060.72 320.96 1061.97 320.62 1063.39 320.62ZM1063.36 322.78C1062.1 322.78 1061.1 323.19 1060.36 324.01C1059.64 324.81 1059.21 325.93 1059.07 327.37H1067.26C1067.24 326.01 1066.92 324.91 1066.3 324.07C1065.68 323.21 1064.7 322.78 1063.36 322.78ZM1095.04 324.97C1095.04 325.97 1094.74 326.75 1094.14 327.31C1093.54 327.87 1092.77 328.25 1091.83 328.45V328.57C1092.83 328.71 1093.7 329.07 1094.44 329.65C1095.18 330.21 1095.55 331.09 1095.55 332.29C1095.55 333.65 1095.04 334.78 1094.02 335.68C1093.02 336.56 1091.36 337 1089.04 337H1082.11V320.92H1089.01C1090.15 320.92 1091.17 321.05 1092.07 321.31C1092.99 321.55 1093.71 321.97 1094.23 322.57C1094.77 323.15 1095.04 323.95 1095.04 324.97ZM1092.37 325.3C1092.37 324.54 1092.09 323.99 1091.53 323.65C1090.99 323.29 1090.1 323.11 1088.86 323.11H1084.75V327.52H1088.38C1091.04 327.52 1092.37 326.78 1092.37 325.3ZM1092.82 332.29C1092.82 331.37 1092.47 330.71 1091.77 330.31C1091.07 329.91 1090.04 329.71 1088.68 329.71H1084.75V334.87H1088.74C1090.06 334.87 1091.07 334.68 1091.77 334.3C1092.47 333.9 1092.82 333.23 1092.82 332.29ZM1120.98 320.92V337H1118.34V323.17H1110.03V337H1107.39V320.92H1120.98ZM1140.09 328.93C1140.09 331.59 1139.41 333.65 1138.05 335.11C1136.71 336.57 1134.89 337.3 1132.59 337.3C1131.17 337.3 1129.9 336.98 1128.78 336.34C1127.68 335.68 1126.81 334.73 1126.17 333.49C1125.53 332.23 1125.21 330.71 1125.21 328.93C1125.21 326.27 1125.88 324.22 1127.22 322.78C1128.56 321.34 1130.38 320.62 1132.68 320.62C1134.14 320.62 1135.42 320.95 1136.52 321.61C1137.64 322.25 1138.51 323.19 1139.13 324.43C1139.77 325.65 1140.09 327.15 1140.09 328.93ZM1127.94 328.93C1127.94 330.83 1128.31 332.34 1129.05 333.46C1129.81 334.56 1131.01 335.11 1132.65 335.11C1134.27 335.11 1135.46 334.56 1136.22 333.46C1136.98 332.34 1137.36 330.83 1137.36 328.93C1137.36 327.03 1136.98 325.54 1136.22 324.46C1135.46 323.38 1134.26 322.84 1132.62 322.84C1130.98 322.84 1129.79 323.38 1129.05 324.46C1128.31 325.54 1127.94 327.03 1127.94 328.93ZM1155.08 323.14H1149.83V337H1147.22V323.14H1142.03V320.92H1155.08V323.14ZM1171.94 328.93C1171.94 331.59 1171.26 333.65 1169.9 335.11C1168.56 336.57 1166.74 337.3 1164.44 337.3C1163.02 337.3 1161.75 336.98 1160.63 336.34C1159.53 335.68 1158.66 334.73 1158.02 333.49C1157.38 332.23 1157.06 330.71 1157.06 328.93C1157.06 326.27 1157.73 324.22 1159.07 322.78C1160.41 321.34 1162.23 320.62 1164.53 320.62C1165.99 320.62 1167.27 320.95 1168.37 321.61C1169.49 322.25 1170.36 323.19 1170.98 324.43C1171.62 325.65 1171.94 327.15 1171.94 328.93ZM1159.79 328.93C1159.79 330.83 1160.16 332.34 1160.9 333.46C1161.66 334.56 1162.86 335.11 1164.5 335.11C1166.12 335.11 1167.31 334.56 1168.07 333.46C1168.83 332.34 1169.21 330.83 1169.21 328.93C1169.21 327.03 1168.83 325.54 1168.07 324.46C1167.31 323.38 1166.11 322.84 1164.47 322.84C1162.83 322.84 1161.64 323.38 1160.9 324.46C1160.16 325.54 1159.79 327.03 1159.79 328.93ZM1185.63 320.92H1188.51L1181.64 328.66L1189.08 337H1186.02L1178.76 328.84V337H1176.12V320.92H1178.76V328.72L1185.63 320.92ZM1197.62 320.62C1199 320.62 1200.18 320.92 1201.16 321.52C1202.16 322.12 1202.92 322.97 1203.44 324.07C1203.98 325.15 1204.25 326.42 1204.25 327.88V329.47H1193.24C1193.28 331.29 1193.74 332.68 1194.62 333.64C1195.52 334.58 1196.77 335.05 1198.37 335.05C1199.39 335.05 1200.29 334.96 1201.07 334.78C1201.87 334.58 1202.69 334.3 1203.53 333.94V336.25C1202.71 336.61 1201.9 336.87 1201.1 337.03C1200.3 337.21 1199.35 337.3 1198.25 337.3C1196.73 337.3 1195.38 336.99 1194.2 336.37C1193.04 335.75 1192.13 334.83 1191.47 333.61C1190.83 332.37 1190.51 330.86 1190.51 329.08C1190.51 327.32 1190.8 325.81 1191.38 324.55C1191.98 323.29 1192.81 322.32 1193.87 321.64C1194.95 320.96 1196.2 320.62 1197.62 320.62ZM1197.59 322.78C1196.33 322.78 1195.33 323.19 1194.59 324.01C1193.87 324.81 1193.44 325.93 1193.3 327.37H1201.49C1201.47 326.01 1201.15 324.91 1200.53 324.07C1199.91 323.21 1198.93 322.78 1197.59 322.78Z" fill="#007BFF"/>
</svg>
