<svg fill="none" height="1725" viewBox="0 0 2407 1725" width="2407" xmlns="http://www.w3.org/2000/svg"><path d="m884 394.558v-172.557c0-17.75 17.3-32.331 38.362-32.331h348.258c21.07 0 38.37 14.581 38.37 32.331v172.557" stroke="#007bff" stroke-miterlimit="10" stroke-width="2"/><path d="m1260.85 411.801h-328.861c-12.336 0-22.415-8.495-22.415-18.892v-162.794c0-10.396 10.079-18.891 22.415-18.891h328.861c12.33 0 22.41 8.495 22.41 18.891v162.794c.15 10.397-10.08 18.892-22.41 18.892z" fill="#007bff" opacity=".12"/><path d="m1298.76 450.217h-403.177c-6.017 0-10.831-4.184-10.831-9.129 0-5.071 4.964-9.128 10.831-9.128h403.177c6.01 0 10.83 4.184 10.83 9.128 0 4.945-4.97 9.129-10.83 9.129z" stroke="#007bff" stroke-miterlimit="10" stroke-width="2"/><path d="m99 846.143v-180.435c0-18.561 17.3-33.807 38.362-33.807h348.262c21.062 0 38.362 15.246 38.362 33.807v180.435" stroke="#007bff" stroke-miterlimit="10" stroke-width="2"/><path d="m475.997 864.173h-328.857c-12.336 0-22.415-8.882-22.415-19.753v-170.227c0-10.871 10.079-19.754 22.415-19.754h328.857c12.336 0 22.415 8.883 22.415 19.754v170.227c.15 10.871-10.079 19.753-22.415 19.753z" fill="#007bff" opacity=".12"/><g stroke-miterlimit="10"><path d="m376.858 983.889h-130.73c-6.018 0-10.832-4.242-10.832-9.545s4.814-9.546 10.832-9.546h130.73c6.018 0 10.832 4.243 10.832 9.546s-4.814 9.545-10.832 9.545z" stroke="#007bff" stroke-width="2"/><path d="m311.568 954.59v-78.485" stroke="#007bff" stroke-width="2"/><path d="m1441.2 311.259-20.22-11.979c-4.15-2.496-3.97-6.29.54-8.586l21.66-11.18" stroke="#082e51" stroke-linecap="round" stroke-linejoin="round" stroke-width="4"/><path d="m1429.1 295.087s383.52-29.349 470.14 130.373" stroke="#082e51" stroke-linecap="round" stroke-linejoin="round" stroke-width="4"/><path d="m743.162 730.463-27.115-14.261c-5.61-2.964-7.667-9.631-4.675-15.188l14.586-26.855" stroke="#007bff" stroke-linecap="round" stroke-width="4"/><path d="m721.657 706.015s443.003-156.874 861.703 73.529" stroke="#007bff" stroke-linecap="round" stroke-width="4"/><path d="m1541.27 885.694 26.83 11.294c5.55 2.347 7.58 7.627 4.62 12.027l-14.25 21.267" stroke="#007bff" stroke-linecap="round" stroke-width="4"/><path d="m1562.55 905.055s-438.3 124.225-852.55-58.228" stroke="#007bff" stroke-linecap="round" stroke-width="4"/><path d="m1804.57 506.519 16.11 14.475c3.35 2.995 1.05 6.589-5.23 8.186l-30.34 7.686" stroke="#082e51" stroke-linecap="round" stroke-linejoin="round" stroke-width="4"/><path d="m1809.17 523.789s-248-14.774-378.17-91.541" stroke="#082e51" stroke-linecap="round" stroke-linejoin="round" stroke-width="4"/><path d="m1074.21 1347.46-35.59.8c-7.37.19-13.45-2.4-13.88-5.79l-1.74-16.38" stroke="#082e51" stroke-linecap="round" stroke-linejoin="round" stroke-width="4"/><path d="m1038.19 1342.07s249.34-180.89 581.57-114.21" stroke="#082e51" stroke-linecap="round" stroke-linejoin="round" stroke-width="4"/><path d="m1527.87 1325.69 35.52 3.5c7.33.7 11.99 3.89 10.44 7.19l-7.78 15.97" stroke="#082e51" stroke-linecap="round" stroke-linejoin="round" stroke-width="4"/><path d="m1560.5 1335.18s-195.15 80.66-414.5 78.46" stroke="#082e51" stroke-linecap="round" stroke-linejoin="round" stroke-width="4"/></g><path d="m983.496 126.409h-5.41v18.471h-7.452v-43.353h7.452v18.351h4.849l14.584-18.351h8.971l-17.145 20.835 18.595 22.518h-9.419zm66.354-24.882v43.353h-7.46v-37.223h-14.74l-.88 16.228c-.48 7.452-1.74 12.781-3.77 15.987-2 3.205-5.19 4.875-9.57 5.008h-2.97v-6.531l2.12-.16c2.41-.267 4.13-1.656 5.17-4.167 1.05-2.511 1.71-7.159 2.01-13.944l.8-18.551zm39.94 0h7.42v43.353h-7.42v-31.613l-19.99 31.613h-7.41v-43.353h7.41v31.653zm37.31 44.155c-5.88 0-10.66-1.924-14.35-5.77-3.68-3.873-5.53-9.042-5.53-15.506v-1.363c0-4.3.82-8.133 2.45-11.499 1.65-3.392 3.95-6.037 6.89-7.933 2.97-1.924 6.17-2.885 9.62-2.885 5.63 0 10.01 1.856 13.14 5.569 3.12 3.713 4.69 9.029 4.69 15.947v3.085h-29.37c.1 4.274 1.35 7.733 3.72 10.378 2.41 2.617 5.45 3.926 9.14 3.926 2.62 0 4.83-.534 6.65-1.602 1.82-1.069 3.41-2.485 4.77-4.248l4.53 3.526c-3.64 5.583-9.09 8.375-16.35 8.375zm-.92-38.866c-3 0-5.51 1.095-7.54 3.286-2.03 2.163-3.28 5.208-3.76 9.135h21.71v-.561c-.21-3.766-1.22-6.678-3.04-8.735-1.82-2.083-4.28-3.125-7.37-3.125zm61.86 38.064h-7.41v-18.511h-19.92v18.511h-7.45v-43.353h7.45v18.792h19.92v-18.792h7.41zm44.16-37.343h-14.55v37.343h-7.41v-37.343h-14.27v-6.01h36.23z" fill="#000"/><path d="m213.863 1079.75h-5.409v18.47h-7.452v-43.35h7.452v18.35h4.848l14.585-18.35h8.975l-17.149 20.83 18.592 22.52h-9.416zm66.352-24.88v43.35h-7.452v-37.22h-14.745l-.882 16.23c-.48 7.45-1.736 12.78-3.766 15.98-2.003 3.21-5.195 4.88-9.576 5.01h-2.965v-6.53l2.123-.16c2.404-.27 4.127-1.66 5.169-4.17s1.71-7.15 2.004-13.94l.801-18.55zm39.948 0h7.412v43.35h-7.412v-31.61l-19.994 31.61h-7.413v-43.35h7.413v31.65zm37.303 44.15c-5.877 0-10.658-1.92-14.345-5.77-3.686-3.87-5.529-9.04-5.529-15.5v-1.36c0-4.31.815-8.14 2.444-11.5 1.656-3.4 3.953-6.04 6.892-7.94 2.965-1.92 6.17-2.88 9.616-2.88 5.636 0 10.017 1.85 13.142 5.57 3.125 3.71 4.688 9.03 4.688 15.94v3.09h-29.369c.106 4.27 1.348 7.73 3.726 10.38 2.404 2.61 5.449 3.92 9.135 3.92 2.618 0 4.835-.53 6.651-1.6 1.817-1.07 3.406-2.48 4.768-4.25l4.528 3.53c-3.633 5.58-9.082 8.37-16.347 8.37zm-.922-38.86c-2.992 0-5.503 1.09-7.533 3.28-2.03 2.17-3.285 5.21-3.766 9.14h21.717v-.56c-.214-3.77-1.229-6.68-3.046-8.74-1.816-2.08-4.273-3.12-7.372-3.12zm61.864 38.06h-7.412v-18.51h-19.914v18.51h-7.452v-43.35h7.452v18.79h19.914v-18.79h7.412zm44.155-37.34h-14.545v37.34h-7.412v-37.34h-14.264v-6.01h36.221z" fill="#000"/><path d="m611.496 1683.7h-5.409v18.47h-7.453v-43.35h7.453v18.35h4.848l14.584-18.35h8.975l-17.148 20.83 18.591 22.52h-9.416zm66.352-24.88v43.35h-7.453v-37.22h-14.745l-.881 16.23c-.481 7.45-1.737 12.78-3.767 15.98-2.003 3.21-5.195 4.88-9.576 5.01h-2.965v-6.53l2.124-.16c2.404-.27 4.127-1.66 5.168-4.17 1.042-2.51 1.71-7.16 2.004-13.94l.801-18.55zm39.947 0h7.412v43.35h-7.412v-31.61l-19.994 31.61h-7.412v-43.35h7.412v31.65zm37.303 44.15c-5.877 0-10.658-1.92-14.344-5.77-3.687-3.87-5.53-9.04-5.53-15.5v-1.36c0-4.31.815-8.14 2.444-11.5 1.657-3.4 3.954-6.04 6.892-7.94 2.965-1.92 6.17-2.88 9.616-2.88 5.636 0 10.017 1.85 13.142 5.57 3.126 3.71 4.688 9.03 4.688 15.94v3.09h-29.369c.107 4.27 1.349 7.73 3.726 10.38 2.404 2.61 5.449 3.92 9.136 3.92 2.617 0 4.834-.53 6.651-1.6 1.816-1.07 3.405-2.48 4.768-4.25l4.527 3.53c-3.632 5.58-9.082 8.37-16.347 8.37zm-.922-38.86c-2.991 0-5.502 1.09-7.532 3.28-2.03 2.17-3.286 5.21-3.767 9.14h21.717v-.56c-.214-3.77-1.229-6.68-3.045-8.74-1.817-2.08-4.274-3.12-7.373-3.12zm61.865 38.06h-7.413v-18.51h-19.913v18.51h-7.453v-43.35h7.453v18.79h19.913v-18.79h7.413zm44.154-37.34h-14.544v37.34h-7.413v-37.34h-14.264v-6.01h36.221z" fill="#000"/><path d="m995.025 574.018c0-4.247.828-8.067 2.485-11.459 1.682-3.392 4.01-6.01 6.97-7.853 2.99-1.843 6.4-2.765 10.22-2.765 5.9 0 10.67 2.043 14.3 6.13 3.66 4.087 5.49 9.523 5.49 16.308v.521c0 4.22-.81 8.013-2.44 11.379-1.6 3.339-3.92 5.943-6.93 7.813-3 1.87-6.44 2.805-10.34 2.805-5.88 0-10.65-2.044-14.31-6.13-3.628-4.087-5.445-9.496-5.445-16.228zm7.455.882c0 4.808 1.11 8.668 3.32 11.579 2.25 2.912 5.24 4.368 8.98 4.368 3.77 0 6.76-1.469 8.97-4.408 2.22-2.965 3.33-7.105 3.33-12.421 0-4.754-1.14-8.601-3.41-11.539-2.24-2.965-5.23-4.448-8.97-4.448-3.66 0-6.61 1.456-8.86 4.368-2.24 2.911-3.36 7.078-3.36 12.501zm72.64-16.147h-14.54v37.343h-7.42v-37.343h-14.26v-6.011h36.22zm7.89 37.343v-43.354h16.91c5.77 0 10.19 1.015 13.26 3.046 3.1 2.003 4.65 4.955 4.65 8.854 0 2.004-.6 3.82-1.8 5.45-1.2 1.602-2.98 2.831-5.33 3.686 2.62.614 4.72 1.816 6.29 3.606 1.6 1.79 2.41 3.927 2.41 6.411 0 3.98-1.47 7.025-4.41 9.135-2.91 2.11-7.04 3.166-12.38 3.166zm7.42-19.033v13.062h12.26c3.1 0 5.41-.574 6.93-1.722 1.55-1.149 2.32-2.765 2.32-4.849 0-4.327-3.18-6.491-9.53-6.491zm0-5.93h9.57c6.95 0 10.42-2.03 10.42-6.09s-3.29-6.157-9.86-6.29h-10.13zm56.77 25.764c-5.87 0-10.66-1.923-14.34-5.77-3.69-3.873-5.53-9.042-5.53-15.506v-1.362c0-4.301.81-8.134 2.44-11.5 1.66-3.392 3.96-6.037 6.89-7.933 2.97-1.923 6.17-2.885 9.62-2.885 5.64 0 10.02 1.857 13.14 5.569 3.13 3.713 4.69 9.029 4.69 15.947v3.086h-29.37c.11 4.273 1.35 7.733 3.73 10.377 2.4 2.618 5.45 3.927 9.13 3.927 2.62 0 4.84-.535 6.65-1.603 1.82-1.069 3.41-2.484 4.77-4.247l4.53 3.526c-3.63 5.582-9.08 8.374-16.35 8.374zm-.92-38.866c-2.99 0-5.5 1.095-7.53 3.286-2.03 2.164-3.29 5.209-3.77 9.135h21.72v-.561c-.22-3.766-1.23-6.678-3.05-8.734-1.81-2.084-4.27-3.126-7.37-3.126zm58.18.722h-14.55v37.343h-7.41v-37.343h-14.26v-6.011h36.22z" fill="#007bff"/><path d="m1001.79 1028.8c0-2.04-.77-3.64-2.321-4.81-1.549-1.21-3.673-1.81-6.371-1.81-2.617 0-4.808.69-6.571 2.05-1.736 1.36-2.604 2.96-2.604 4.81h-7.372c0-3.77 1.576-6.86 4.727-9.26 3.152-2.4 7.092-3.61 11.82-3.61 5.076 0 9.032 1.1 11.862 3.29 2.83 2.16 4.25 5.26 4.25 9.3 0 1.94-.59 3.73-1.77 5.36-1.17 1.63-2.84 2.93-5.01 3.89 5.05 1.71 7.58 5.08 7.58 10.1 0 3.98-1.54 7.13-4.61 9.45-3.07 2.33-7.173 3.49-12.302 3.49-4.995 0-9.122-1.22-12.38-3.65-3.233-2.45-4.849-5.77-4.849-9.93h7.373c0 2.11.935 3.92 2.805 5.45 1.896 1.49 4.247 2.24 7.051 2.24 2.832 0 5.116-.65 6.852-1.96 1.74-1.31 2.6-3.01 2.6-5.09 0-2.43-.73-4.17-2.2-5.21-1.442-1.07-3.699-1.6-6.771-1.6h-7.412v-6.25h8.053c5.049-.14 7.57-2.22 7.57-6.25zm44.6 31.49c-.43-.86-.78-2.38-1.04-4.57-3.45 3.58-7.56 5.37-12.34 5.37-4.28 0-7.79-1.2-10.54-3.61-2.73-2.43-4.09-5.5-4.09-9.21 0-4.52 1.71-8.02 5.13-10.5 3.45-2.51 8.28-3.77 14.5-3.77h7.22v-3.4c0-2.59-.78-4.65-2.33-6.17-1.55-1.55-3.83-2.33-6.85-2.33-2.64 0-4.86.67-6.65 2.01-1.79 1.33-2.68 2.95-2.68 4.85h-7.46c0-2.17.76-4.25 2.29-6.26 1.55-2.03 3.63-3.63 6.25-4.8 2.64-1.18 5.54-1.77 8.69-1.77 5 0 8.91 1.26 11.74 3.77 2.83 2.48 4.3 5.92 4.41 10.3v19.95c0 3.98.51 7.15 1.52 9.5v.64zm-12.3-5.65c2.32 0 4.53-.6 6.61-1.8 2.08-1.21 3.59-2.77 4.53-4.69v-8.9h-5.81c-9.09 0-13.63 2.66-13.63 7.98 0 2.32.78 4.14 2.33 5.45 1.55 1.3 3.54 1.96 5.97 1.96zm65.63 5.65h-7.41v-37.22h-19.96v37.22h-7.45v-43.35h34.82zm48.52-21.2c0 6.6-1.51 11.92-4.53 15.95s-7.1 6.05-12.26 6.05c-5.26 0-9.4-1.67-12.42-5.01v20.88h-7.41v-60.02h6.77l.36 4.8c3.02-3.74 7.21-5.61 12.58-5.61 5.21 0 9.32 1.97 12.34 5.89 3.05 3.93 4.57 9.39 4.57 16.39zm-7.41-.84c0-4.89-1.04-8.75-3.13-11.58-2.08-2.83-4.94-4.25-8.57-4.25-4.49 0-7.86 1.99-10.1 5.97v20.72c2.22 3.95 5.61 5.93 10.18 5.93 3.55 0 6.37-1.4 8.45-4.21 2.11-2.83 3.17-7.02 3.17-12.58zm14.9-.04c0-4.25.83-8.07 2.49-11.46 1.68-3.39 4-6.01 6.97-7.85 2.99-1.84 6.4-2.77 10.22-2.77 5.9 0 10.67 2.05 14.3 6.13 3.66 4.09 5.49 9.53 5.49 16.31v.52c0 4.22-.82 8.02-2.44 11.38-1.61 3.34-3.92 5.95-6.94 7.81-2.99 1.87-6.43 2.81-10.33 2.81-5.88 0-10.65-2.04-14.31-6.13-3.63-4.09-5.45-9.5-5.45-16.23zm7.46.88c0 4.81 1.1 8.67 3.32 11.58 2.24 2.91 5.24 4.37 8.98 4.37 3.76 0 6.75-1.47 8.97-4.41 2.22-2.96 3.33-7.1 3.33-12.42 0-4.75-1.14-8.6-3.41-11.54-2.24-2.96-5.23-4.45-8.97-4.45-3.66 0-6.62 1.46-8.86 4.37s-3.36 7.08-3.36 12.5zm58.69 15.95c2.65 0 4.96-.8 6.94-2.4 1.97-1.61 3.07-3.61 3.28-6.01h7.01c-.13 2.48-.98 4.84-2.56 7.09-1.58 2.24-3.69 4.03-6.33 5.37-2.62 1.33-5.4 2-8.34 2-5.9 0-10.6-1.96-14.1-5.89-3.47-3.95-5.21-9.35-5.21-16.19v-1.24c0-4.22.78-7.97 2.33-11.26 1.54-3.28 3.76-5.84 6.65-7.65 2.91-1.82 6.34-2.73 10.29-2.73 4.87 0 8.9 1.46 12.1 4.37 3.24 2.91 4.96 6.69 5.17 11.34h-7.01c-.21-2.8-1.28-5.1-3.2-6.89-1.9-1.82-4.25-2.73-7.06-2.73-3.76 0-6.69 1.37-8.77 4.09-2.06 2.7-3.09 6.61-3.09 11.74v1.4c0 5 1.03 8.84 3.09 11.54s4.99 4.05 8.81 4.05z" fill="#007bff"/><path d="m1949.49 1274.66c2.64 0 4.95-.8 6.93-2.41 1.97-1.6 3.07-3.6 3.28-6.01h7.01c-.13 2.49-.98 4.85-2.56 7.1-1.58 2.24-3.69 4.03-6.33 5.36-2.62 1.34-5.4 2.01-8.33 2.01-5.91 0-10.61-1.97-14.11-5.89-3.47-3.96-5.21-9.35-5.21-16.19v-1.24c0-4.22.78-7.98 2.33-11.26 1.55-3.29 3.76-5.84 6.65-7.65 2.91-1.82 6.34-2.73 10.3-2.73 4.86 0 8.89 1.46 12.1 4.37 3.23 2.91 4.95 6.69 5.16 11.34h-7.01c-.21-2.81-1.28-5.1-3.2-6.89-1.9-1.82-4.25-2.73-7.05-2.73-3.77 0-6.7 1.36-8.78 4.09-2.06 2.7-3.08 6.61-3.08 11.74v1.4c0 5 1.02 8.84 3.08 11.54s5 4.05 8.82 4.05zm43.55 6.05c-5.88 0-10.66-1.93-14.34-5.77-3.69-3.88-5.53-9.04-5.53-15.51v-1.36c0-4.3.81-8.13 2.44-11.5 1.66-3.39 3.95-6.04 6.89-7.93 2.97-1.93 6.17-2.89 9.62-2.89 5.63 0 10.01 1.86 13.14 5.57s4.69 9.03 4.69 15.95v3.08h-29.37c.11 4.28 1.35 7.74 3.72 10.38 2.41 2.62 5.45 3.93 9.14 3.93 2.62 0 4.83-.54 6.65-1.61 1.82-1.06 3.41-2.48 4.77-4.24l4.53 3.52c-3.64 5.59-9.09 8.38-16.35 8.38zm-.92-38.87c-2.99 0-5.5 1.1-7.53 3.29-2.04 2.16-3.29 5.21-3.77 9.13h21.72v-.56c-.22-3.76-1.23-6.68-3.05-8.73-1.82-2.09-4.27-3.13-7.37-3.13zm63.06 16.87c0 6.6-1.51 11.91-4.52 15.95-3.02 4.03-7.11 6.05-12.26 6.05-5.27 0-9.41-1.67-12.43-5.01v20.87h-7.41v-60.02h6.77l.36 4.81c3.02-3.74 7.22-5.61 12.59-5.61 5.2 0 9.32 1.97 12.34 5.89 3.04 3.93 4.56 9.39 4.56 16.39zm-7.41-.84c0-4.89-1.04-8.75-3.12-11.58-2.09-2.83-4.95-4.25-8.58-4.25-4.49 0-7.85 1.99-10.1 5.97v20.72c2.22 3.95 5.61 5.93 10.18 5.93 3.55 0 6.37-1.4 8.46-4.21 2.11-2.83 3.16-7.02 3.16-12.58zm17.55 22.04v-43.36h16.91c5.77 0 10.19 1.02 13.26 3.05 3.1 2 4.65 4.95 4.65 8.85 0 2.01-.6 3.82-1.8 5.45-1.21 1.61-2.98 2.83-5.33 3.69 2.62.61 4.71 1.82 6.29 3.6 1.6 1.79 2.4 3.93 2.4 6.42 0 3.98-1.47 7.02-4.4 9.13-2.92 2.11-7.04 3.17-12.39 3.17zm7.41-19.04v13.07h12.26c3.1 0 5.41-.58 6.94-1.73 1.55-1.15 2.32-2.76 2.32-4.84 0-4.33-3.18-6.5-9.54-6.5zm0-5.93h9.58c6.94 0 10.42-2.03 10.42-6.09s-3.29-6.15-9.86-6.29h-10.14zm56.78 25.77c-5.88 0-10.66-1.93-14.34-5.77-3.69-3.88-5.53-9.04-5.53-15.51v-1.36c0-4.3.81-8.13 2.44-11.5 1.66-3.39 3.95-6.04 6.89-7.93 2.97-1.93 6.17-2.89 9.62-2.89 5.63 0 10.01 1.86 13.14 5.57s4.69 9.03 4.69 15.95v3.08h-29.37c.11 4.28 1.35 7.74 3.72 10.38 2.41 2.62 5.45 3.93 9.14 3.93 2.62 0 4.84-.54 6.65-1.61 1.82-1.06 3.41-2.48 4.77-4.24l4.53 3.52c-3.64 5.59-9.08 8.38-16.35 8.38zm-.92-38.87c-2.99 0-5.5 1.1-7.53 3.29-2.03 2.16-3.29 5.21-3.77 9.13h21.72v-.56c-.22-3.76-1.23-6.68-3.05-8.73-1.82-2.09-4.27-3.13-7.37-3.13zm63.06 16.87c0 6.6-1.5 11.91-4.52 15.95-3.02 4.03-7.11 6.05-12.26 6.05-5.27 0-9.41-1.67-12.42-5.01v20.87h-7.42v-60.02h6.77l.36 4.81c3.02-3.74 7.22-5.61 12.59-5.61 5.2 0 9.32 1.97 12.34 5.89 3.04 3.93 4.56 9.39 4.56 16.39zm-7.41-.84c0-4.89-1.04-8.75-3.12-11.58-2.09-2.83-4.95-4.25-8.58-4.25-4.49 0-7.85 1.99-10.09 5.97v20.72c2.21 3.95 5.6 5.93 10.17 5.93 3.55 0 6.37-1.4 8.46-4.21 2.11-2.83 3.16-7.02 3.16-12.58z" fill="#000"/><path d="m1662.8 202.736 13.99-22.357h9.05l-18.43 28.928 18.87 29.41h-9.13l-14.35-22.758-14.42 22.758h-9.1l18.92-29.41-18.48-28.928h9.02zm42.35-22.357 19.08 47.6 19.07-47.6h9.98v58.338h-7.7v-22.718l.72-24.522-19.15 47.24h-5.89l-19.11-47.119.76 24.401v22.718h-7.69v-58.338zm69.44 52.047h27.65v6.291h-35.38v-58.338h7.73z" fill="#000"/><path d="m1033.96 768.356h7.74v41.31c0 5.582-1.69 9.95-5.05 13.102-3.34 3.152-7.8 4.728-13.38 4.728-5.8 0-10.32-1.483-13.55-4.448s-4.85-7.118-4.85-12.461h7.7c0 3.339.91 5.944 2.72 7.813 1.85 1.87 4.5 2.805 7.98 2.805 3.17 0 5.74-1.001 7.69-3.005 1.98-2.003 2.98-4.808 3-8.414zm38.03 32.335c-6.6-1.897-11.41-4.221-14.43-6.972-2.99-2.778-4.48-6.197-4.48-10.257 0-4.595 1.83-8.388 5.49-11.38 3.68-3.018 8.46-4.527 14.34-4.527 4.01 0 7.57.774 10.7 2.324 3.15 1.549 5.58 3.686 7.29 6.41 1.74 2.725 2.6 5.703 2.6 8.936h-7.73c0-3.526-1.12-6.291-3.36-8.294-2.25-2.031-5.41-3.046-9.5-3.046-3.79 0-6.76.842-8.9 2.525-2.11 1.656-3.16 3.966-3.16 6.931 0 2.378 1 4.394 3 6.051 2.03 1.629 5.47 3.125 10.3 4.487 4.86 1.362 8.66 2.872 11.38 4.528 2.75 1.629 4.78 3.539 6.09 5.729 1.34 2.191 2 4.768 2 7.733 0 4.728-1.84 8.521-5.53 11.38-3.68 2.831-8.61 4.247-14.78 4.247-4.01 0-7.75-.761-11.22-2.284-3.47-1.549-6.16-3.66-8.05-6.331-1.87-2.671-2.81-5.703-2.81-9.095h7.74c0 3.526 1.29 6.317 3.88 8.374 2.62 2.03 6.11 3.045 10.46 3.045 4.06 0 7.17-.828 9.34-2.484 2.16-1.656 3.24-3.913 3.24-6.771 0-2.859-1-5.062-3-6.612-2.01-1.576-5.64-3.125-10.9-4.647zm76.41-1.283c0 5.717-.96 10.712-2.89 14.986-1.92 4.247-4.65 7.492-8.17 9.736-3.53 2.244-7.64 3.366-12.34 3.366-4.6 0-8.67-1.122-12.22-3.366-3.56-2.27-6.32-5.489-8.3-9.656-1.95-4.194-2.95-9.042-3-14.545v-4.207c0-5.609.97-10.564 2.92-14.865 1.95-4.3 4.7-7.586 8.26-9.856 3.58-2.298 7.66-3.446 12.26-3.446 4.67 0 8.79 1.135 12.34 3.405 3.58 2.244 6.33 5.516 8.25 9.817 1.93 4.274 2.89 9.256 2.89 14.945zm-7.66-3.766c0-6.918-1.39-12.221-4.16-15.907-2.78-3.713-6.67-5.569-11.66-5.569-4.86 0-8.7 1.856-11.5 5.569-2.78 3.686-4.21 8.815-4.29 15.386v4.287c0 6.705 1.4 11.981 4.21 15.827 2.83 3.82 6.72 5.73 11.66 5.73 4.97 0 8.81-1.803 11.54-5.409 2.72-3.633 4.12-8.829 4.2-15.587zm64.03 31.052h-7.73l-29.37-44.955v44.955h-7.73v-58.338h7.73l29.45 45.156v-45.156h7.65z" fill="#000"/><path d="m1312.32 1529.47h-7.74v-26.96h-29.41v26.96h-7.69v-58.34h7.69v25.09h29.41v-25.09h7.74zm52.77-52.01h-18.76v52.01h-7.65v-52.01h-18.71v-6.33h45.12zm18.59-6.33 19.07 47.6 19.07-47.6h9.98v58.34h-7.69v-22.72l.72-24.52-19.15 47.24h-5.89l-19.12-47.12.76 24.4v22.72h-7.69v-58.34zm69.44 52.05h27.64v6.29h-35.38v-58.34h7.74z" fill="#000"/><path d="m2210.68 1135.82h-277.71c-15.49 0-28.13-8.38-28.13-18.66v-540.663c0-10.282 12.64-18.667 28.13-18.667h277.71c15.49 0 28.13 8.385 28.13 18.667v540.663c0 10.28-12.64 18.66-28.13 18.66z" fill="#007bff" opacity=".12"/><path d="m2233.09 1156.59h-322.53c-17.3 0-31.29-9.29-31.29-20.77v-577.89c0-11.48 13.99-20.764 31.29-20.764h322.68c17.31 0 31.3 9.284 31.3 20.764v577.89c0 11.38-14.15 20.77-31.45 20.77z" stroke="#007bff" stroke-miterlimit="10" stroke-width="2"/><path d="m2273.41 1183.34h-403.17c-6.02 0-10.83-3.29-10.83-7.19 0-3.99 4.96-7.18 10.83-7.18h403.17c6.02 0 10.83 3.29 10.83 7.18 0 3.9-4.96 7.19-10.83 7.19z" stroke="#007bff" stroke-miterlimit="10" stroke-width="2"/><path d="m819.259 1529.34h-204.167c-8.213 0-14.741-6.29-14.741-13.98v-297.18c0-7.78 6.634-13.97 14.741-13.97h204.167c8.213 0 14.741 6.28 14.741 13.97v297.18c0 7.69-6.633 13.98-14.741 13.98z" fill="#007bff" opacity=".12"/><path d="m826.419 1558.69h-218.592c-4.212 0-7.581-3.2-7.581-7.19s3.369-7.19 7.581-7.19h218.592c4.212 0 7.581 3.2 7.581 7.19s-3.369 7.19-7.581 7.19z" stroke="#007bff" stroke-miterlimit="10" stroke-width="2"/></svg>