<svg fill="none" height="1728" viewBox="0 0 1600 1728" width="1600" xmlns="http://www.w3.org/2000/svg"><path d="m77.8999 903.7v-136.1c0-14 11.5-25.5 25.5001-25.5h231.5c14 0 25.5 11.5 25.5 25.5v136.1" stroke="#007bff" stroke-miterlimit="10" stroke-width="2"/><path d="m328.5 917.3h-218.6c-8.2 0-14.9-6.7-14.9-14.9v-128.4c0-8.2 6.7-14.9 14.9-14.9h218.6c8.2 0 14.9 6.7 14.9 14.9v128.4c.1 8.2-6.7 14.9-14.9 14.9z" fill="#007bff" opacity=".12"/><g stroke="#007bff" stroke-miterlimit="10"><path d="m262.6 1007.6h-86.9c-4 0-7.2-3.2-7.2-7.2s3.2-7.2 7.2-7.2h86.9c4 0 7.2 3.2 7.2 7.2s-3.2 7.2-7.2 7.2z" stroke-width="2"/><path d="m219.2 985.5v-59.2" stroke-width="2"/><path d="m603.2 754.4-14.5-7.7c-3-1.6-4.1-5.2-2.5-8.2l7.8-14.5" stroke-linecap="round" stroke-width="4"/><path d="m591.7 741.2s236.9-84.7 460.8 39.7" stroke-linecap="round" stroke-width="4"/><path d="m1028.6 874.8 14.5 7.7c3 1.6 4.1 5.2 2.5 8.2l-7.7 14.5" stroke-linecap="round" stroke-width="4"/><path d="m1040.1 888s-236.9 84.7-460.8-39.7" stroke-linecap="round" stroke-width="4"/></g><path d="m103.112 1089.53h-5.4089v18.47h-7.4526v-43.35h7.4526v18.35h4.8479l14.585-18.35h8.975l-17.149 20.83 18.591 22.52h-9.415zm66.352-24.88v43.35h-7.452v-37.22h-14.745l-.882 16.22c-.481 7.46-1.736 12.79-3.766 15.99-2.004 3.21-5.196 4.88-9.576 5.01h-2.965v-6.53l2.123-.16c2.404-.27 4.127-1.66 5.169-4.17s1.71-7.16 2.003-13.94l.802-18.55zm39.948 0h7.412v43.35h-7.412v-31.61l-19.994 31.61h-7.413v-43.35h7.413v31.65zm37.302 44.15c-5.876 0-10.658-1.92-14.344-5.77-3.686-3.87-5.529-9.04-5.529-15.5v-1.37c0-4.3.815-8.13 2.444-11.5 1.656-3.39 3.953-6.03 6.892-7.93 2.965-1.92 6.17-2.88 9.616-2.88 5.636 0 10.017 1.85 13.142 5.56 3.125 3.72 4.688 9.03 4.688 15.95v3.09h-29.37c.107 4.27 1.349 7.73 3.727 10.37 2.404 2.62 5.449 3.93 9.135 3.93 2.618 0 4.835-.53 6.651-1.6 1.817-1.07 3.406-2.49 4.768-4.25l4.528 3.53c-3.633 5.58-9.082 8.37-16.348 8.37zm-.921-38.86c-2.992 0-5.503 1.09-7.533 3.28-2.03 2.16-3.285 5.21-3.766 9.14h21.716v-.56c-.213-3.77-1.228-6.68-3.045-8.74-1.816-2.08-4.274-3.12-7.372-3.12zm61.864 38.06h-7.412v-18.51h-19.914v18.51h-7.452v-43.35h7.452v18.79h19.914v-18.79h7.412zm44.155-37.34h-14.545v37.34h-7.412v-37.34h-14.264v-6.01h36.221z" fill="#000"/><path d="m705.646 612.923c0-4.247.828-8.067 2.484-11.46 1.683-3.392 4.007-6.01 6.972-7.853 2.992-1.843 6.398-2.764 10.217-2.764 5.904 0 10.672 2.043 14.304 6.13 3.66 4.087 5.49 9.523 5.49 16.307v.521c0 4.221-.815 8.014-2.444 11.379-1.603 3.339-3.914 5.944-6.932 7.814-2.992 1.869-6.438 2.804-10.338 2.804-5.876 0-10.644-2.043-14.304-6.13-3.632-4.087-5.449-9.496-5.449-16.227zm7.453.881c0 4.808 1.108 8.668 3.325 11.58 2.244 2.911 5.236 4.367 8.975 4.367 3.767 0 6.759-1.469 8.976-4.407 2.217-2.965 3.325-7.106 3.325-12.421 0-4.755-1.135-8.601-3.406-11.54-2.243-2.965-5.235-4.447-8.975-4.447-3.659 0-6.611 1.456-8.855 4.367-2.243 2.912-3.365 7.079-3.365 12.501zm72.642-16.147h-14.544v37.343h-7.413v-37.343h-14.264v-6.01h36.221zm7.894 37.343v-43.353h16.908c5.77 0 10.191 1.015 13.262 3.045 3.099 2.003 4.648 4.955 4.648 8.855 0 2.003-.601 3.82-1.803 5.449-1.202 1.603-2.978 2.832-5.329 3.686 2.618.615 4.715 1.817 6.291 3.606 1.603 1.79 2.404 3.927 2.404 6.411 0 3.98-1.469 7.025-4.408 9.136-2.911 2.11-7.038 3.165-12.38 3.165zm7.412-19.032v13.062h12.261c3.098 0 5.409-.574 6.931-1.723 1.55-1.149 2.324-2.765 2.324-4.848 0-4.327-3.178-6.491-9.536-6.491zm0-5.93h9.576c6.945 0 10.418-2.03 10.418-6.09 0-4.061-3.286-6.157-9.857-6.291h-10.137zm56.776 25.763c-5.877 0-10.658-1.923-14.344-5.769-3.687-3.874-5.53-9.042-5.53-15.507v-1.362c0-4.3.815-8.134 2.444-11.499 1.657-3.393 3.954-6.037 6.892-7.934 2.965-1.923 6.17-2.884 9.616-2.884 5.636 0 10.017 1.856 13.142 5.569 3.126 3.713 4.688 9.028 4.688 15.947v3.085h-29.369c.107 4.274 1.349 7.733 3.726 10.378 2.404 2.617 5.449 3.926 9.135 3.926 2.618 0 4.835-.534 6.652-1.603 1.816-1.068 3.405-2.484 4.768-4.247l4.527 3.526c-3.632 5.583-9.082 8.374-16.347 8.374zm-.922-38.865c-2.991 0-5.502 1.095-7.532 3.285-2.031 2.164-3.286 5.209-3.767 9.136h21.717v-.561c-.214-3.767-1.229-6.678-3.045-8.735-1.817-2.083-4.274-3.125-7.373-3.125zm58.178.721h-14.544v37.343h-7.413v-37.343h-14.264v-6.01h36.221z" fill="#007bff"/><path d="m716.45 1000.51c0-2.033-.775-3.636-2.324-4.811-1.55-1.202-3.673-1.803-6.371-1.803-2.618 0-4.808.681-6.571 2.043-1.736 1.362-2.604 2.965-2.604 4.811h-7.373c0-3.769 1.576-6.854 4.728-9.258s7.092-3.606 11.82-3.606c5.075 0 9.029 1.095 11.86 3.285 2.831 2.164 4.247 5.262 4.247 9.299 0 1.95-.587 3.74-1.763 5.37-1.175 1.63-2.845 2.92-5.008 3.88 5.048 1.71 7.573 5.08 7.573 10.1 0 3.98-1.536 7.13-4.608 9.46-3.072 2.32-7.172 3.48-12.301 3.48-4.995 0-9.122-1.21-12.381-3.64-3.232-2.46-4.848-5.77-4.848-9.94h7.372c0 2.11.935 3.92 2.805 5.45 1.897 1.49 4.247 2.24 7.052 2.24 2.831 0 5.115-.65 6.852-1.96 1.736-1.31 2.604-3.01 2.604-5.09 0-2.43-.735-4.17-2.204-5.21-1.442-1.07-3.699-1.6-6.771-1.6h-7.413v-6.25h8.054c5.048-.14 7.573-2.22 7.573-6.25zm44.595 31.49c-.427-.85-.775-2.38-1.042-4.57-3.446 3.58-7.559 5.37-12.341 5.37-4.274 0-7.786-1.2-10.537-3.6-2.725-2.44-4.087-5.51-4.087-9.22 0-4.51 1.709-8.01 5.128-10.5 3.446-2.51 8.281-3.76 14.505-3.76h7.212v-3.41c0-2.591-.775-4.648-2.324-6.17-1.549-1.55-3.833-2.324-6.852-2.324-2.644 0-4.861.667-6.651 2.003-1.789 1.336-2.684 2.952-2.684 4.851h-7.453c0-2.166.761-4.25 2.284-6.253 1.549-2.03 3.633-3.633 6.251-4.808 2.644-1.176 5.542-1.763 8.694-1.763 4.995 0 8.909 1.255 11.74 3.766 2.831 2.484 4.301 5.917 4.407 10.298v19.95c0 3.98.508 7.15 1.523 9.5v.64zm-12.301-5.65c2.324 0 4.528-.6 6.611-1.8 2.084-1.2 3.593-2.77 4.528-4.69v-8.9h-5.81c-9.082 0-13.623 2.66-13.623 7.98 0 2.32.775 4.14 2.324 5.45s3.539 1.96 5.97 1.96zm65.631 5.65h-7.413v-37.223h-19.953v37.223h-7.453v-43.353h34.819zm48.522-21.2c0 6.6-1.51 11.92-4.528 15.95s-7.105 6.05-12.261 6.05c-5.262 0-9.402-1.67-12.421-5.01v20.88h-7.412v-60.023h6.771l.361 4.808c3.018-3.74 7.212-5.609 12.581-5.609 5.209 0 9.323 1.963 12.341 5.889 3.045 3.927 4.568 9.385 4.568 16.385zm-7.413-.84c0-4.89-1.042-8.75-3.125-11.577-2.084-2.831-4.942-4.247-8.575-4.247-4.487 0-7.853 1.99-10.097 5.974v20.71c2.217 3.95 5.61 5.93 10.178 5.93 3.552 0 6.37-1.4 8.454-4.21 2.11-2.83 3.165-7.02 3.165-12.58zm14.905-.04c0-4.24.828-8.06 2.485-11.457 1.682-3.392 4.006-6.01 6.971-7.853 2.992-1.843 6.398-2.764 10.217-2.764 5.904 0 10.672 2.043 14.305 6.13 3.659 4.087 5.489 9.524 5.489 16.304v.52c0 4.22-.815 8.02-2.444 11.38-1.603 3.34-3.914 5.95-6.932 7.82-2.992 1.87-6.437 2.8-10.337 2.8-5.877 0-10.645-2.04-14.304-6.13-3.633-4.09-5.45-9.5-5.45-16.23zm7.453.88c0 4.81 1.108 8.67 3.325 11.58 2.244 2.92 5.236 4.37 8.976 4.37 3.766 0 6.758-1.47 8.975-4.41 2.217-2.96 3.325-7.1 3.325-12.42 0-4.75-1.135-8.6-3.405-11.537-2.244-2.965-5.236-4.447-8.976-4.447-3.659 0-6.611 1.456-8.854 4.367-2.244 2.907-3.366 7.077-3.366 12.497zm58.699 15.95c2.644 0 4.955-.8 6.932-2.4 1.976-1.61 3.071-3.61 3.285-6.01h7.012c-.134 2.48-.988 4.85-2.564 7.09s-3.687 4.03-6.331 5.37c-2.618 1.33-5.396 2-8.334 2-5.903 0-10.605-1.96-14.104-5.89-3.472-3.95-5.209-9.35-5.209-16.19v-1.24c0-4.22.775-7.97 2.324-11.257 1.55-3.286 3.767-5.836 6.651-7.653 2.912-1.816 6.344-2.724 10.298-2.724 4.861 0 8.895 1.455 12.1 4.367 3.232 2.911 4.955 6.691 5.169 11.337h-7.012c-.214-2.8-1.282-5.1-3.205-6.89-1.897-1.816-4.247-2.724-7.052-2.724-3.767 0-6.691 1.362-8.775 4.087-2.057 2.697-3.085 6.607-3.085 11.737v1.4c0 5 1.028 8.85 3.085 11.54 2.057 2.7 4.995 4.05 8.815 4.05z" fill="#007bff"/><path d="m1265 1289.75c2.64 0 4.95-.8 6.93-2.4 1.98-1.61 3.07-3.61 3.29-6.01h7.01c-.14 2.48-.99 4.85-2.57 7.09-1.57 2.24-3.68 4.03-6.33 5.37-2.61 1.33-5.39 2-8.33 2-5.9 0-10.61-1.96-14.1-5.89-3.48-3.95-5.21-9.35-5.21-16.19v-1.24c0-4.22.77-7.97 2.32-11.26 1.55-3.28 3.77-5.83 6.65-7.65 2.91-1.82 6.35-2.72 10.3-2.72 4.86 0 8.89 1.45 12.1 4.36 3.23 2.91 4.95 6.69 5.17 11.34h-7.01c-.22-2.8-1.29-5.1-3.21-6.89-1.9-1.82-4.25-2.72-7.05-2.72-3.77 0-6.69 1.36-8.78 4.08-2.05 2.7-3.08 6.61-3.08 11.74v1.4c0 5 1.03 8.85 3.08 11.54 2.06 2.7 5 4.05 8.82 4.05zm43.55 6.05c-5.87 0-10.66-1.92-14.34-5.77-3.69-3.87-5.53-9.04-5.53-15.5v-1.37c0-4.3.81-8.13 2.44-11.5 1.66-3.39 3.96-6.03 6.89-7.93 2.97-1.92 6.17-2.88 9.62-2.88 5.64 0 10.02 1.85 13.14 5.56 3.13 3.72 4.69 9.03 4.69 15.95v3.09h-29.37c.11 4.27 1.35 7.73 3.73 10.37 2.4 2.62 5.45 3.93 9.13 3.93 2.62 0 4.84-.53 6.65-1.6 1.82-1.07 3.41-2.49 4.77-4.25l4.53 3.53c-3.63 5.58-9.08 8.37-16.35 8.37zm-.92-38.86c-2.99 0-5.5 1.09-7.53 3.28-2.03 2.16-3.29 5.21-3.77 9.14h21.72v-.56c-.22-3.77-1.23-6.68-3.05-8.74-1.81-2.08-4.27-3.12-7.37-3.12zm63.07 16.86c0 6.6-1.51 11.92-4.53 15.95s-7.11 6.05-12.26 6.05c-5.26 0-9.4-1.67-12.42-5.01v20.88h-7.41v-60.02h6.77l.36 4.8c3.02-3.73 7.21-5.6 12.58-5.6 5.21 0 9.32 1.96 12.34 5.89 3.04 3.92 4.57 9.38 4.57 16.38zm-7.42-.84c0-4.89-1.04-8.75-3.12-11.58s-4.94-4.24-8.58-4.24c-4.48 0-7.85 1.99-10.09 5.97v20.71c2.21 3.95 5.61 5.93 10.17 5.93 3.56 0 6.38-1.4 8.46-4.21 2.11-2.83 3.16-7.02 3.16-12.58zm17.55 22.04v-43.35h16.91c5.77 0 10.19 1.01 13.27 3.04 3.09 2.01 4.64 4.96 4.64 8.86 0 2-.6 3.82-1.8 5.45-1.2 1.6-2.98 2.83-5.33 3.68 2.62.62 4.72 1.82 6.29 3.61 1.6 1.79 2.41 3.93 2.41 6.41 0 3.98-1.47 7.02-4.41 9.13-2.91 2.11-7.04 3.17-12.38 3.17zm7.42-19.03v13.06h12.26c3.1 0 5.41-.57 6.93-1.72 1.55-1.15 2.32-2.77 2.32-4.85 0-4.33-3.18-6.49-9.53-6.49zm0-5.93h9.57c6.95 0 10.42-2.03 10.42-6.09s-3.29-6.16-9.86-6.29h-10.13zm56.77 25.76c-5.87 0-10.66-1.92-14.34-5.77-3.69-3.87-5.53-9.04-5.53-15.5v-1.37c0-4.3.81-8.13 2.44-11.5 1.66-3.39 3.96-6.03 6.89-7.93 2.97-1.92 6.18-2.88 9.62-2.88 5.64 0 10.02 1.85 13.14 5.56 3.13 3.72 4.69 9.03 4.69 15.95v3.09h-29.37c.11 4.27 1.35 7.73 3.73 10.37 2.4 2.62 5.45 3.93 9.13 3.93 2.62 0 4.84-.53 6.65-1.6 1.82-1.07 3.41-2.49 4.77-4.25l4.53 3.53c-3.63 5.58-9.08 8.37-16.35 8.37zm-.92-38.86c-2.99 0-5.5 1.09-7.53 3.28-2.03 2.16-3.29 5.21-3.77 9.14h21.72v-.56c-.22-3.77-1.23-6.68-3.05-8.74-1.81-2.08-4.27-3.12-7.37-3.12zm63.07 16.86c0 6.6-1.51 11.92-4.53 15.95s-7.11 6.05-12.26 6.05c-5.26 0-9.4-1.67-12.42-5.01v20.88h-7.41v-60.02h6.77l.36 4.8c3.02-3.73 7.21-5.6 12.58-5.6 5.21 0 9.32 1.96 12.34 5.89 3.04 3.92 4.57 9.38 4.57 16.38zm-7.42-.84c0-4.89-1.04-8.75-3.12-11.58s-4.94-4.24-8.58-4.24c-4.48 0-7.85 1.99-10.09 5.97v20.71c2.22 3.95 5.61 5.93 10.18 5.93 3.55 0 6.37-1.4 8.45-4.21 2.11-2.83 3.16-7.02 3.16-12.58z" fill="#000"/><path d="m1469.5 1137.8h-184.6c-10.3 0-18.7-8.4-18.7-18.7v-541.6c0-10.3 8.4-18.7 18.7-18.7h184.6c10.3 0 18.7 8.4 18.7 18.7v541.6c0 10.3-8.4 18.7-18.7 18.7z" fill="#007bff" opacity=".12"/><path d="m1484.4 1158.6h-214.4c-11.5 0-20.8-9.3-20.8-20.8v-578.9c0-11.5 9.3-20.8 20.8-20.8h214.5c11.5 0 20.8 9.3 20.8 20.8v578.9c0 11.4-9.4 20.8-20.9 20.8z" stroke="#007bff" stroke-miterlimit="10" stroke-width="2"/><path d="m1511.2 1185.4h-268c-4 0-7.2-3.3-7.2-7.2 0-4 3.3-7.2 7.2-7.2h268c4 0 7.2 3.3 7.2 7.2s-3.3 7.2-7.2 7.2z" stroke="#007bff" stroke-miterlimit="10" stroke-width="2"/></svg>