<svg fill="none" height="643" viewBox="0 0 1474 643" width="1474" xmlns="http://www.w3.org/2000/svg" xmlns:xlink="http://www.w3.org/1999/xlink"><clipPath id="a"><path d="m0 0h1474v643h-1474z"/></clipPath><g clip-path="url(#a)"><path d="m1474 0h-1474v643h1474z" fill="#fff"/><path d="m1483 273h-1483v370h1483z" fill="#c4e4ff"/><g fill="#e5f3ff"><path d="m906 273-35.017-26.844-20.891-49.149-62.872-90.007-29.447 71.65-33.624 16.383-48.149 77.967z"/><path d="m1547 273-51.92-7.762-30.97-14.212-93.21-26.026-43.66 20.718-49.85 4.737-71.39 22.545z"/><path d="m696 273-28.014-7.762-16.713-14.212-50.297-26.026-23.557 20.718-26.9 4.737-38.519 22.545z"/><path d="m85 273 65.01-17.788 38.785-32.569 116.723-59.643 54.668 47.479 62.425 10.856 89.389 51.665z"/><path d="m-157 273 65.0104-17.788 38.7846-32.569 116.7232-59.643 54.6678 47.479 62.425 10.856 89.389 51.665z"/><path d="m1022 273-34.257-21.104-20.869-39.222-62.213-71.674-28.941 57.14-33.272 12.941-47.448 61.919z"/><path d="m1002 273-41.018-32.643-24.454-59.35-73.162-109.007-62.514 63.703-10.649 42.732-56.203 94.565z"/><path d="m1261 273-37.5-19.163-22.35-34.843-66.89-63.994-57.15 37.398-9.73 25.086-51.38 55.516z"/></g><path d="m928.519 273h-53.277-52.484-40.997-105.761l25.153 241.98 55.653 97.266 21.984 89.754 38.026-1.384 13.184-36.616 32.765-30.996 20.597-98.65 16.241 77.892 16.834 60.297 38.027-1.384 23.766-67.216 43.77-330.943z" fill="#007bff"/><path d="m790 177.802 43.725 7.08 2.572 40.118 43.329-19.469-6.529-18.879 8.903-30.286-28.49-28.515 9.892-55.851-62.718 63.324z" fill="#c2e3ff"/><path d="m726 195.509 36.391 5.755 2.118 33.736 21.566-30.958-5.392-15.678 7.317-25.401-3.273-26.791 2.31-29.172-28.497 72.037z" fill="#c2e3ff"/><path d="m842 210.155 38.152 4.519 2.019 26.326 22.81-24.165-5.652-12.377 7.671-19.843-3.432-20.825 2.221-22.79-29.674 56.385z" fill="#c2e3ff"/><path d="m730.951 287 11.158 150.348 20.323 36.202 7.173 123.443 1.395 54.007-26.102-114.739-26.898-79.131z" fill="#0067d6"/><path d="m930.706 650 14.692-191.544-17.398-36.163 28.416-67.358-1.739-70.935 25.323 125.378-14.305 29.208z" fill="#0067d6"/><path d="m864 632 3-293 14 43.684 11.4-17.906-2.6 79.694 11.4 23.417 25.8-10.036-42.2 75.956z" fill="#0067d6"/><path d="m589 72v181" stroke="#274867" stroke-width="4"/><path d="m645 74h-58" stroke="#274867" stroke-width="4"/><path d="m645 252h-58" stroke="#274867" stroke-width="4"/><path d="m589 290v327" stroke="#007bff" stroke-width="4"/><path d="m645 292h-58" stroke="#007bff" stroke-width="4"/><path d="m645 615.582h-58" stroke="#007bff" stroke-width="4"/><path d="m209.317 131.44v-6.56h-39.92v57.12h7.2v-25.44h26.48v-6.56h-26.48v-18.56zm30.994 10.24h-3.04c-5.84 0-9.68 2.32-11.68 4.8h-1.76v-4.8h-6.56v40.32h6.8v-20.16c0-8.88 4.88-13.76 12.88-13.76h3.36zm26.273-1.04c-12.64 0-19.84 9.28-19.84 21.2s7.2 21.2 19.84 21.2c12.56 0 19.84-9.28 19.84-21.2s-7.28-21.2-19.84-21.2zm0 36.48c-8.96 0-13.04-7.36-13.04-15.28s4.08-15.28 13.04-15.28c8.88 0 13.04 7.36 13.04 15.28s-4.16 15.28-13.04 15.28zm66.293 4.88v-25.6c0-9.68-5.44-15.76-15.36-15.76-5.44 0-9.92 2.24-12.16 5.36h-1.76v-4.32h-6.56v40.32h6.8v-21.84c0-7.12 4.8-13.44 12-13.44 6.8 0 10.24 3.68 10.24 11.12v24.16zm21.801-40.32v-12.16h-6.8v12.16h-6.96v5.92h6.96v23.12c0 8.56 5.12 11.28 13.84 11.28h3.12v-6.08h-2.96c-5.44 0-7.2-2.08-7.2-6.16v-22.16h10.16v-5.92zm55.678 17.76c-.24-9.92-6-18.8-18-18.8-12.24 0-19.44 8.4-19.44 20.8s7.04 21.6 19.6 21.6c10 0 15.84-5.28 17.12-12.16h-6.88c-1.2 3.84-4.56 6.24-10.24 6.24-8.32 0-12.64-5.76-12.88-15.36h30.72zm-18.16-12.88c6.8 0 10.72 4.4 11.12 9.52h-23.28c.88-5.12 4.88-9.52 12.16-9.52zm64.587 35.44v-25.6c0-9.68-5.44-15.76-15.36-15.76-5.44 0-9.92 2.24-12.16 5.36h-1.76v-4.32h-6.56v40.32h6.8v-21.84c0-7.12 4.8-13.44 12-13.44 6.8 0 10.24 3.68 10.24 11.12v24.16zm41.721-58.16v22.16h-1.76c-2.24-2.88-5.92-5.36-12.32-5.36-11.12 0-17.68 9.04-17.68 21.2 0 11.92 6.56 21.2 17.68 21.2 6.4 0 10.32-2.56 12.56-5.36h1.76v4.32h6.56v-58.16zm-12.56 53.28c-8.08 0-12.4-6.32-12.4-15.28s4.32-15.28 12.4-15.28c8.96 0 12.64 7.36 12.64 15.28s-3.68 15.28-12.64 15.28z" fill="#274867"/><path d="m206.605 449.96c4.16-2.24 6.24-6.48 6.24-11.6 0-7.84-6.16-14.48-18.24-14.48h-24.88v57.12h25.52c13.04 0 19.36-6.96 19.36-16.08 0-5.84-3.2-10.96-8-13.2zm-29.68-19.68h17.36c5.76 0 11.28 2.24 11.28 8.72 0 7.04-4.8 9.12-11.12 9.12h-17.52zm0 44.32v-20.16h17.92c6.72 0 12.48 2.56 12.48 9.92 0 7.92-6.08 10.24-12.56 10.24zm73.854 6.4h6.4v-27.44c0-9.04-6.48-13.92-16.64-13.92-9.04 0-15.44 4.32-16 11.76h6.8c.32-3.52 3.36-5.84 9.36-5.84 7.04 0 9.84 3.52 9.84 8.4v1.6h-13.12c-11.2 0-15.44 6.88-15.44 13.36 0 6.88 5.2 13.12 14.48 13.12 5.76 0 10.08-2.16 12.56-5.28h1.76zm-12.64-4.88c-6 0-9.36-2.88-9.36-7.44 0-4.8 3.04-7.68 9.68-7.68h12.08v3.68c0 6.4-5.68 11.44-12.4 11.44zm58.771-7.28c-1.04 4.48-4.4 7.28-10.16 7.28-9.04 0-12.8-7.36-12.8-15.44 0-8 3.68-15.12 12.8-15.12 5.52 0 8.64 2.72 9.92 6.8h6.8c-1.36-7.44-7.12-12.72-16.72-12.72-12.56 0-19.6 9.04-19.6 21.2 0 11.92 7.04 21.2 19.6 21.2 9.36 0 15.44-5.28 16.96-13.2zm53.579 12.16-14.32-27.92 11.6-12.4h-8.08l-19.04 20.24v-38.08h-6.8v58.16h6.8v-11.68l9.28-10.24h1.76l11.52 21.92zm42.539-22.56c-.24-9.92-6-18.8-18-18.8-12.24 0-19.44 8.4-19.44 20.8s7.04 21.6 19.6 21.6c10 0 15.84-5.28 17.12-12.16h-6.88c-1.2 3.84-4.56 6.24-10.24 6.24-8.32 0-12.64-5.76-12.88-15.36h30.72zm-18.16-12.88c6.8 0 10.72 4.4 11.12 9.52h-23.28c.88-5.12 4.88-9.52 12.16-9.52zm64.587 35.44v-25.6c0-9.68-5.44-15.76-15.36-15.76-5.44 0-9.92 2.24-12.16 5.36h-1.76v-4.32h-6.56v40.32h6.8v-21.84c0-7.12 4.8-13.44 12-13.44 6.8 0 10.24 3.68 10.24 11.12v24.16zm41.721-58.16v22.16h-1.76c-2.24-2.88-5.92-5.36-12.32-5.36-11.12 0-17.68 9.04-17.68 21.2 0 11.92 6.56 21.2 17.68 21.2 6.4 0 10.32-2.56 12.56-5.36h1.76v4.32h6.56v-58.16zm-12.56 53.28c-8.08 0-12.4-6.32-12.4-15.28s4.32-15.28 12.4-15.28c8.96 0 12.64 7.36 12.64 15.28s-3.68 15.28-12.64 15.28z" fill="#007bff"/><path d="m526 161h61" stroke="#274867" stroke-width="4"/><path d="m526 452h61" stroke="#007bff" stroke-width="4"/><path d="m1058.26 190h-2.52c-2.03 0-3.68-1.652-3.68-3.682v-.85c-.86-.275-1.7-.623-2.51-1.04l-.6.601c-1.45 1.46-3.79 1.417-5.21 0l-1.77-1.774c-1.42-1.417-1.46-3.751 0-5.209l.6-.601c-.41-.806-.76-1.644-1.04-2.507h-.85c-2.03 0-3.68-1.652-3.68-3.683v-2.51c0-2.031 1.65-3.682 3.68-3.682h.85c.28-.864.63-1.702 1.04-2.508l-.6-.602c-1.46-1.457-1.42-3.791 0-5.208l1.78-1.774c1.41-1.421 3.75-1.457 5.2 0l.6.601c.81-.417 1.65-.765 2.51-1.041v-.849c0-2.03 1.65-3.682 3.68-3.682h2.52c2.03 0 3.68 1.652 3.68 3.682v.85c.86.275 1.7.623 2.51 1.04l.6-.601c1.45-1.46 3.79-1.417 5.21 0l1.77 1.774c1.42 1.417 1.46 3.751 0 5.209l-.6.601c.41.806.76 1.644 1.04 2.508h.85c2.03 0 3.68 1.651 3.68 3.682v2.51c0 2.031-1.65 3.683-3.68 3.683h-.85c-.28.863-.63 1.701-1.04 2.507l.6.602c1.46 1.457 1.42 3.791 0 5.208l-1.78 1.775c-1.41 1.42-3.75 1.456-5.2-.001l-.6-.601c-.81.417-1.65.765-2.51 1.041v.849c0 2.03-1.65 3.682-3.68 3.682zm-8.31-8.034c1.12.662 2.32 1.162 3.58 1.487.51.133.88.6.88 1.134v1.731c0 .738.6 1.338 1.33 1.338h2.52c.73 0 1.33-.6 1.33-1.338v-1.731c0-.534.37-1.001.88-1.134 1.26-.325 2.46-.825 3.58-1.487.46-.272 1.05-.198 1.43.18l1.22 1.226c.53.529 1.38.517 1.9.001l1.77-1.776c.52-.513.53-1.362 0-1.892l-1.22-1.226c-.38-.379-.46-.965-.18-1.426.66-1.119 1.16-2.324 1.48-3.58.14-.518.6-.879 1.14-.879h1.73c.74 0 1.34-.601 1.34-1.339v-2.51c0-.738-.6-1.339-1.34-1.339h-1.73c-.54 0-1-.361-1.14-.879-.32-1.256-.82-2.461-1.48-3.58-.28-.461-.2-1.047.18-1.425l1.22-1.226c.53-.529.52-1.378 0-1.893l-1.77-1.775c-.52-.515-1.37-.53-1.9 0l-1.22 1.226c-.38.378-.97.452-1.43.18-1.12-.662-2.32-1.162-3.58-1.487-.51-.133-.88-.6-.88-1.134v-1.731c0-.738-.6-1.338-1.33-1.338h-2.52c-.73 0-1.33.6-1.33 1.338v1.731c0 .534-.37 1.001-.88 1.134-1.26.325-2.46.825-3.58 1.487-.46.272-1.05.198-1.43-.18l-1.22-1.226c-.53-.529-1.38-.517-1.9-.001l-1.77 1.776c-.52.513-.53 1.362 0 1.892l1.22 1.226c.38.379.46.965.18 1.426-.66 1.119-1.16 2.324-1.48 3.58-.14.518-.6.879-1.14.879h-1.73c-.74 0-1.34.601-1.34 1.339v2.51c0 .738.6 1.339 1.34 1.339h1.73c.54 0 1 .361 1.14.879.32 1.256.82 2.461 1.48 3.58.28.461.2 1.047-.18 1.425l-1.22 1.226c-.53.529-.52 1.378 0 1.893l1.77 1.775c.52.515 1.37.531 1.9.001l1.22-1.227c.28-.278.86-.515 1.43-.18z" fill="#274867"/><path d="m1057 178.703c-4.8 0-8.7-3.904-8.7-8.703s3.9-8.703 8.7-8.703 8.7 3.904 8.7 8.703-3.9 8.703-8.7 8.703zm0-15.062c-3.51 0-6.36 2.852-6.36 6.359s2.85 6.359 6.36 6.359 6.36-2.852 6.36-6.359-2.85-6.359-6.36-6.359z" fill="#274867"/><path d="m1094.31 179v-3.204l8.03-8.64c1.37-1.464 2.36-2.76 2.99-3.888.62-1.152.93-2.256.93-3.312 0-1.464-.4-2.616-1.22-3.456-.79-.84-1.88-1.26-3.28-1.26-1.53 0-2.74.432-3.63 1.296-.87.864-1.3 2.052-1.3 3.564h-3.24c.07-2.376.84-4.26 2.31-5.652 1.48-1.392 3.44-2.088 5.86-2.088 2.38 0 4.26.684 5.66 2.052 1.39 1.344 2.08 3.18 2.08 5.508 0 1.488-.39 2.964-1.18 4.428-.8 1.464-2.09 3.132-3.89 5.004l-6.41 6.696h11.92v2.952zm29.08.36c-2.43 0-4.36-.696-5.8-2.088-1.42-1.416-2.12-3.3-2.12-5.652v-11.52c0-2.352.7-4.224 2.12-5.616 1.44-1.416 3.37-2.124 5.8-2.124 2.42 0 4.34.708 5.76 2.124 1.44 1.392 2.16 3.264 2.16 5.616v11.52c0 1.56-.33 2.928-.98 4.104-.64 1.152-1.57 2.052-2.77 2.7-1.17.624-2.57.936-4.17.936zm0-2.772c1.44 0 2.59-.456 3.45-1.368.89-.936 1.33-2.136 1.33-3.6v-11.52c0-1.464-.44-2.652-1.33-3.564-.86-.936-2.01-1.404-3.45-1.404s-2.61.468-3.5 1.404c-.86.912-1.29 2.1-1.29 3.564v11.52c0 1.464.43 2.664 1.29 3.6.89.912 2.06 1.368 3.5 1.368zm0-8.604c-.65 0-1.18-.204-1.59-.612-.38-.408-.57-.948-.57-1.62 0-.648.19-1.164.57-1.548.41-.408.94-.612 1.59-.612.64 0 1.16.204 1.54.612.41.384.62.9.62 1.548 0 .672-.21 1.212-.62 1.62-.38.408-.9.612-1.54.612zm16.36-3.384c-1.51 0-2.72-.432-3.63-1.296-.92-.864-1.37-2.052-1.37-3.564v-2.34c0-1.512.45-2.7 1.37-3.564.91-.864 2.12-1.296 3.63-1.296s2.73.432 3.64 1.296 1.37 2.052 1.37 3.564v2.34c0 1.512-.46 2.7-1.37 3.564s-2.13 1.296-3.64 1.296zm-5.07 14.4 17.92-26.28h2.67l-17.93 26.28zm5.07-16.848c1.56 0 2.34-.804 2.34-2.412v-2.34c0-1.608-.78-2.412-2.34-2.412s-2.34.804-2.34 2.412v2.34c0 1.608.78 2.412 2.34 2.412zm10.44 17.028c-1.51 0-2.72-.432-3.63-1.296-.92-.864-1.37-2.052-1.37-3.564v-2.34c0-1.512.45-2.7 1.37-3.564.91-.864 2.12-1.296 3.63-1.296s2.73.432 3.64 1.296 1.37 2.052 1.37 3.564v2.34c0 1.512-.46 2.7-1.37 3.564s-2.13 1.296-3.64 1.296zm0-2.484c1.56 0 2.34-.792 2.34-2.376v-2.34c0-1.608-.78-2.412-2.34-2.412s-2.34.804-2.34 2.412v2.34c0 1.584.78 2.376 2.34 2.376zm33.56 8.784 2.92-7.704-7.35-18.576h3.6l4.61 12.24c.17.408.33.9.47 1.476.14.552.26 1.02.36 1.404.1-.384.22-.852.36-1.404.14-.576.29-1.068.43-1.476l4.32-12.24h3.49l-9.75 26.28zm26.05-6.12c-2.4 0-4.32-.672-5.76-2.016-1.41-1.344-2.12-3.192-2.12-5.544v-5.4c0-2.352.71-4.2 2.12-5.544 1.44-1.344 3.36-2.016 5.76-2.016 2.28 0 4.12.612 5.51 1.836s2.12 2.892 2.2 5.004h-3.24c-.08-1.272-.51-2.244-1.3-2.916-.77-.696-1.82-1.044-3.17-1.044-1.41 0-2.54.408-3.38 1.224-.84.792-1.26 1.932-1.26 3.42v5.436c0 1.488.42 2.64 1.26 3.456s1.97 1.224 3.38 1.224c1.35 0 2.4-.348 3.17-1.044.79-.696 1.22-1.668 1.3-2.916h3.24c-.08 2.112-.81 3.78-2.2 5.004s-3.23 1.836-5.51 1.836zm14.1-.36v-19.8h3.1v10.8c0 1.032-.05 2.136-.15 3.312-.07 1.176-.15 2.112-.25 2.808l7.99-16.92h4.14v19.8h-3.09v-10.8c0-1.056.03-2.172.1-3.348.1-1.176.2-2.112.29-2.808l-7.99 16.956zm19.1.252v-3.024h.65c1.1 0 1.87-.432 2.3-1.296.46-.864.7-2.412.72-4.644l.22-11.088h13.43v19.8h-3.24v-16.848h-6.99l-.18 8.28c-.07 3.144-.57 5.4-1.51 6.768-.93 1.368-2.46 2.052-4.57 2.052zm24.07-.252v-19.8h3.1v10.8c0 1.032-.05 2.136-.15 3.312-.07 1.176-.15 2.112-.25 2.808l7.99-16.92h4.14v19.8h-3.09v-10.8c0-1.056.03-2.172.11-3.348.09-1.176.19-2.112.28-2.808l-7.99 16.956zm21.59 0v-19.8h3.09v10.8c0 1.032-.04 2.136-.14 3.312-.07 1.176-.16 2.112-.25 2.808l7.99-16.92h4.14v19.8h-3.1v-10.8c0-1.056.04-2.172.11-3.348.1-1.176.19-2.112.29-2.808l-7.99 16.956zm7.41-23.04c-1.72 0-3.12-.48-4.17-1.44-1.06-.96-1.59-2.22-1.59-3.78h2.56c0 .936.29 1.692.86 2.268.58.576 1.35.864 2.31.864.98 0 1.76-.288 2.34-.864.6-.576.9-1.332.9-2.268h2.55c0 1.56-.52 2.82-1.58 3.78s-2.45 1.44-4.18 1.44z" fill="#274867"/><path d="m1093.72 103.18v-3.024h.65c1.05 0 1.81-.468 2.27-1.404.48-.96.73-2.592.75-4.896l.29-17.136h13.54v26.28h-3.24v-23.328h-7.1l-.25 14.184c-.05 3.216-.56 5.58-1.55 7.092-.96 1.488-2.47 2.232-4.53 2.232zm34.76.18c-1.65 0-2.99-.564-3.99-1.692-1.01-1.128-1.52-2.604-1.52-4.428v-2.988h-3.16v8.748h-2.99v-19.8h2.99v8.46h3.16v-2.7c0-1.848.5-3.324 1.48-4.428 1.01-1.128 2.35-1.692 4.03-1.692 1.78 0 3.21.564 4.29 1.692 1.08 1.104 1.62 2.58 1.62 4.428v8.28c0 1.824-.54 3.3-1.62 4.428s-2.51 1.692-4.29 1.692zm0-2.52c.91 0 1.62-.312 2.13-.936.52-.648.79-1.536.79-2.664v-8.28c0-1.128-.27-2.004-.79-2.628-.51-.648-1.22-.972-2.13-.972-.89 0-1.58.324-2.09.972-.5.624-.75 1.5-.75 2.628v8.28c0 1.128.25 2.016.75 2.664.51.624 1.2.936 2.09.936zm8.77 7.2v-7.812h1.62c.41-.408.83-1.212 1.26-2.412.46-1.2.7-2.724.72-4.572l.22-10.044h12.92v17.028h2.52v7.812h-2.88v-5.04h-13.5v5.04zm5.04-7.812h8.46v-14.148h-6.62l-.15 7.236c-.02 1.896-.22 3.432-.61 4.608-.38 1.176-.74 1.944-1.08 2.304zm18.85 2.772v-19.8h3.1v10.8c0 1.032-.05 2.136-.15 3.312-.07 1.176-.15 2.112-.25 2.808l7.99-16.92h4.14v19.8h-3.09v-10.8c0-1.056.03-2.172.11-3.348.09-1.176.19-2.112.28-2.808l-7.99 16.956zm43.1 0v-19.8h8.5c1.99 0 3.56.456 4.71 1.368 1.16.888 1.73 2.1 1.73 3.636 0 1.224-.38 2.22-1.15 2.988-.77.744-1.81 1.14-3.13 1.188v.144c1.49.024 2.67.48 3.56 1.368.91.888 1.37 2.064 1.37 3.528 0 1.704-.61 3.06-1.84 4.068-1.22 1.008-2.88 1.512-4.96 1.512zm3.17-11.52h5.33c1.01 0 1.8-.24 2.37-.72.58-.48.87-1.152.87-2.016 0-.84-.29-1.5-.87-1.98-.57-.48-1.36-.72-2.37-.72h-5.33zm0 8.676h5.62c1.12 0 2-.264 2.62-.792.65-.528.98-1.272.98-2.232 0-.936-.33-1.668-.98-2.196-.62-.528-1.5-.792-2.62-.792h-5.62zm18.49 2.844v-19.8h3.1v10.8c0 1.032-.05 2.136-.15 3.312-.07 1.176-.15 2.112-.25 2.808l7.99-16.92h4.14v19.8h-3.09v-10.8c0-1.056.03-2.172.1-3.348.1-1.176.2-2.112.29-2.808l-7.99 16.956zm19.28 5.04v-7.812h1.62c.41-.408.83-1.212 1.26-2.412.46-1.2.7-2.724.72-4.572l.22-10.044h12.92v17.028h2.52v7.812h-2.88v-5.04h-13.5v5.04zm5.04-7.812h8.46v-14.148h-6.62l-.15 7.236c-.02 1.896-.22 3.432-.61 4.608-.38 1.176-.74 1.944-1.08 2.304zm17.63 2.772 5.07-7.632c-1.51-.36-2.68-1.056-3.52-2.088-.82-1.032-1.23-2.316-1.23-3.852 0-1.944.64-3.468 1.91-4.572 1.3-1.104 3.06-1.656 5.29-1.656h8.53v19.8h-3.24v-7.38h-4.35l-4.68 7.38zm7.52-10.26h5.29v-6.66h-5.29c-1.2 0-2.15.3-2.84.9-.7.576-1.05 1.392-1.05 2.448 0 1.032.35 1.848 1.05 2.448.69.576 1.64.864 2.84.864zm21.08 10.26v-16.956h-7.2v-2.844h17.64v2.844h-7.2v16.956z" fill="#274867"/><path d="m1059.26 470h-2.52c-2.03 0-3.68-1.652-3.68-3.682v-.85c-.86-.275-1.7-.623-2.51-1.04l-.6.601c-1.45 1.46-3.79 1.417-5.21 0l-1.77-1.774c-1.42-1.417-1.46-3.751 0-5.209l.6-.601c-.41-.806-.76-1.644-1.04-2.507h-.85c-2.03 0-3.68-1.652-3.68-3.683v-2.51c0-2.031 1.65-3.682 3.68-3.682h.85c.28-.864.63-1.702 1.04-2.508l-.6-.602c-1.46-1.457-1.42-3.791 0-5.208l1.78-1.774c1.41-1.421 3.75-1.457 5.2 0l.6.601c.81-.417 1.65-.765 2.51-1.041v-.849c0-2.03 1.65-3.682 3.68-3.682h2.52c2.03 0 3.68 1.652 3.68 3.682v.85c.86.275 1.7.623 2.51 1.04l.6-.601c1.45-1.46 3.79-1.417 5.21 0l1.77 1.774c1.42 1.417 1.46 3.751 0 5.209l-.6.601c.41.806.76 1.644 1.04 2.508h.85c2.03 0 3.68 1.651 3.68 3.682v2.51c0 2.031-1.65 3.683-3.68 3.683h-.85c-.28.863-.63 1.701-1.04 2.507l.6.602c1.46 1.457 1.42 3.791 0 5.208l-1.78 1.775c-1.41 1.42-3.75 1.456-5.2-.001l-.6-.601c-.81.417-1.65.765-2.51 1.041v.849c0 2.03-1.65 3.682-3.68 3.682zm-8.31-8.034c1.12.662 2.32 1.162 3.58 1.487.51.133.88.6.88 1.134v1.731c0 .738.6 1.338 1.33 1.338h2.52c.73 0 1.33-.6 1.33-1.338v-1.731c0-.534.37-1.001.88-1.134 1.26-.325 2.46-.825 3.58-1.487.46-.272 1.05-.198 1.43.18l1.22 1.226c.53.529 1.38.517 1.9.001l1.77-1.776c.52-.513.53-1.362 0-1.892l-1.22-1.226c-.38-.379-.46-.965-.18-1.426.66-1.119 1.16-2.324 1.48-3.58.14-.518.6-.879 1.14-.879h1.73c.74 0 1.34-.601 1.34-1.339v-2.51c0-.738-.6-1.339-1.34-1.339h-1.73c-.54 0-1-.361-1.14-.879-.32-1.256-.82-2.461-1.48-3.58-.28-.461-.2-1.047.18-1.425l1.22-1.226c.53-.529.52-1.378 0-1.893l-1.77-1.775c-.52-.515-1.37-.53-1.9 0l-1.22 1.226c-.38.378-.97.452-1.43.18-1.12-.662-2.32-1.162-3.58-1.487-.51-.133-.88-.6-.88-1.134v-1.731c0-.738-.6-1.338-1.33-1.338h-2.52c-.73 0-1.33.6-1.33 1.338v1.731c0 .534-.37 1.001-.88 1.134-1.26.325-2.46.825-3.58 1.487-.46.272-1.05.198-1.43-.18l-1.22-1.226c-.53-.529-1.38-.517-1.9-.001l-1.77 1.776c-.52.513-.53 1.362 0 1.892l1.22 1.226c.38.379.46.965.18 1.426-.66 1.119-1.16 2.324-1.48 3.58-.14.518-.6.879-1.14.879h-1.73c-.74 0-1.34.601-1.34 1.339v2.51c0 .738.6 1.339 1.34 1.339h1.73c.54 0 1 .361 1.14.879.32 1.256.82 2.461 1.48 3.58.28.461.2 1.047-.18 1.425l-1.22 1.226c-.53.529-.52 1.378 0 1.893l1.77 1.775c.52.515 1.37.531 1.9.001l1.22-1.227c.28-.278.86-.515 1.43-.18z" fill="#007bff"/><path d="m1058 458.703c-4.8 0-8.7-3.904-8.7-8.703s3.9-8.703 8.7-8.703 8.7 3.904 8.7 8.703-3.9 8.703-8.7 8.703zm0-15.062c-3.51 0-6.36 2.852-6.36 6.359s2.85 6.359 6.36 6.359 6.36-2.852 6.36-6.359-2.85-6.359-6.36-6.359z" fill="#007bff"/><path d="m1057 96.5273c-12.02 0-18.64 5.6857-18.64 16.0097 0 .806.66 1.46 1.46 1.46h34.36c.8 0 1.46-.654 1.46-1.46 0-10.323-6.62-16.0097-18.64-16.0097zm-15.66 14.5497c.57-7.719 5.83-11.6299 15.66-11.6299s15.09 3.9109 15.67 11.6299z" fill="#274867"/><path d="m1057 74c-5.52 0-9.68 4.2467-9.68 9.8779 0 5.7961 4.34 10.5109 9.68 10.5109s9.68-4.7148 9.68-10.5104c0-5.6317-4.16-9.8784-9.68-9.8784zm0 17.4696c-3.73 0-6.76-3.4054-6.76-7.5912 0-4.0321 2.84-6.9587 6.76-6.9587 3.86 0 6.76 2.9912 6.76 6.9587 0 4.1858-3.03 7.5912-6.76 7.5912z" fill="#274867"/><path d="m1058 376.527c-12.02 0-18.64 5.686-18.64 16.01 0 .806.66 1.46 1.46 1.46h34.36c.8 0 1.46-.654 1.46-1.46 0-10.323-6.62-16.01-18.64-16.01zm-15.66 14.55c.57-7.719 5.83-11.63 15.66-11.63s15.09 3.911 15.67 11.63z" fill="#007bff"/><path d="m1058 354c-5.52 0-9.68 4.247-9.68 9.878 0 5.796 4.34 10.511 9.68 10.511s9.68-4.715 9.68-10.511c0-5.631-4.16-9.878-9.68-9.878zm0 17.47c-3.73 0-6.76-3.406-6.76-7.592 0-4.032 2.84-6.958 6.76-6.958 3.86 0 6.76 2.991 6.76 6.958 0 4.186-3.03 7.592-6.76 7.592z" fill="#007bff"/><path d="m1066.46 545h-25.33c-.55 0-.99-.442-.99-.987v-30.398c0-.545.44-.987.99-.987h25.33c.55 0 .99.442.99.987v1.945h2.5c.54 0 .98.442.98.988 0 .545-.44.987-.98.987h-2.5v2.544h1.23c.55 0 .99.442.99.987s-.44.987-.99.987h-1.23v2.544h2.5c.54 0 .98.442.98.987s-.44.987-.98.987h-2.5v2.544h1.23c.55 0 .99.442.99.987s-.44.987-.99.987h-1.23v12.924c0 .545-.44.987-.99.987zm-24.34-1.974h23.35v-28.424h-23.35zm16.4-1.84c-2.54 0-4.6-2.066-4.6-4.605s2.06-4.604 4.6-4.604 4.61 2.065 4.61 4.604-2.07 4.605-4.61 4.605zm0-7.235c-1.45 0-2.63 1.18-2.63 2.63s1.18 2.63 2.63 2.63 2.63-1.18 2.63-2.63-1.18-2.63-2.63-2.63zm16.35 3.421h-4.52c-.54 0-.98-.442-.98-.987s.44-.987.98-.987h3.53v-28.424h-23.35v3.123c0 .546-.45.988-.99.988-.55 0-.99-.442-.99-.988v-4.11c0-.545.44-.987.99-.987h25.33c.54 0 .99.442.99.987v30.398c0 .545-.45.987-.99.987zm-23.89-3.341h-4.81c-.54 0-.99-.442-.99-.987 0-.546.45-.988.99-.988h4.81c.54 0 .99.442.99.988 0 .545-.45.987-.99.987zm10.44-4.37h-15.25c-.54 0-.99-.442-.99-.987 0-.546.45-.988.99-.988h15.25c.55 0 .99.442.99.988 0 .545-.44.987-.99.987zm0-4.37h-15.25c-.54 0-.99-.442-.99-.987 0-.546.45-.988.99-.988h15.25c.55 0 .99.442.99.988 0 .545-.44.987-.99.987zm-10.44-4.37h-4.81c-.54 0-.99-.442-.99-.987 0-.546.45-.988.99-.988h4.81c.54 0 .99.442.99.988 0 .545-.45.987-.99.987z" fill="#007bff"/><path d="m1093.72 383.18v-3.024h.65c1.05 0 1.81-.468 2.27-1.404.48-.96.73-2.592.75-4.896l.29-17.136h13.54v26.28h-3.24v-23.328h-7.1l-.25 14.184c-.05 3.216-.56 5.58-1.55 7.092-.96 1.488-2.47 2.232-4.53 2.232zm34.76.18c-1.65 0-2.99-.564-3.99-1.692-1.01-1.128-1.52-2.604-1.52-4.428v-2.988h-3.16v8.748h-2.99v-19.8h2.99v8.46h3.16v-2.7c0-1.848.5-3.324 1.48-4.428 1.01-1.128 2.35-1.692 4.03-1.692 1.78 0 3.21.564 4.29 1.692 1.08 1.104 1.62 2.58 1.62 4.428v8.28c0 1.824-.54 3.3-1.62 4.428s-2.51 1.692-4.29 1.692zm0-2.52c.91 0 1.62-.312 2.13-.936.52-.648.79-1.536.79-2.664v-8.28c0-1.128-.27-2.004-.79-2.628-.51-.648-1.22-.972-2.13-.972-.89 0-1.58.324-2.09.972-.5.624-.75 1.5-.75 2.628v8.28c0 1.128.25 2.016.75 2.664.51.624 1.2.936 2.09.936zm8.77 7.2v-7.812h1.62c.41-.408.83-1.212 1.26-2.412.46-1.2.7-2.724.72-4.572l.22-10.044h12.92v17.028h2.52v7.812h-2.88v-5.04h-13.5v5.04zm5.04-7.812h8.46v-14.148h-6.62l-.15 7.236c-.02 1.896-.22 3.432-.61 4.608-.38 1.176-.74 1.944-1.08 2.304zm18.85 2.772v-19.8h3.1v10.8c0 1.032-.05 2.136-.15 3.312-.07 1.176-.15 2.112-.25 2.808l7.99-16.92h4.14v19.8h-3.09v-10.8c0-1.056.03-2.172.11-3.348.09-1.176.19-2.112.28-2.808l-7.99 16.956zm43.17 0v-19.8h3.24v8.244h8.36v-8.244h3.24v19.8h-3.24v-8.604h-8.36v8.604zm29.01.36c-1.56 0-2.93-.312-4.11-.936-1.15-.624-2.05-1.5-2.7-2.628-.62-1.152-.93-2.484-.93-3.996v-5.4c0-1.536.31-2.868.93-3.996.65-1.128 1.55-2.004 2.7-2.628 1.18-.624 2.55-.936 4.11-.936s2.91.312 4.06.936c1.18.624 2.08 1.5 2.7 2.628.65 1.128.98 2.46.98 3.996v3.492h-12.32v1.908c0 1.56.4 2.76 1.19 3.6.79.816 1.92 1.224 3.39 1.224 1.24 0 2.25-.216 3.02-.648.77-.456 1.24-1.128 1.4-2.016h3.24c-.21 1.656-1.03 2.976-2.44 3.96-1.4.96-3.14 1.44-5.22 1.44zm-4.58-11.916h9.15v-1.044c0-1.56-.4-2.76-1.19-3.6-.77-.84-1.9-1.26-3.38-1.26-1.47 0-2.6.42-3.39 1.26s-1.19 2.04-1.19 3.6zm40.26 11.556v-19.8h8.5c1.99 0 3.56.456 4.71 1.368 1.15.888 1.73 2.1 1.73 3.636 0 1.224-.38 2.22-1.15 2.988-.77.744-1.81 1.14-3.13 1.188v.144c1.48.024 2.67.48 3.56 1.368.91.888 1.37 2.064 1.37 3.528 0 1.704-.61 3.06-1.84 4.068-1.22 1.008-2.88 1.512-4.97 1.512zm3.17-11.52h5.33c1 0 1.8-.24 2.37-.72.58-.48.87-1.152.87-2.016 0-.84-.29-1.5-.87-1.98-.57-.48-1.37-.72-2.37-.72h-5.33zm0 8.676h5.61c1.13 0 2.01-.264 2.63-.792.65-.528.97-1.272.97-2.232 0-.936-.32-1.668-.97-2.196-.62-.528-1.5-.792-2.63-.792h-5.61zm18.49 2.844v-19.8h3.09v10.8c0 1.032-.04 2.136-.14 3.312-.07 1.176-.16 2.112-.25 2.808l7.99-16.92h4.14v19.8h-3.1v-10.8c0-1.056.04-2.172.11-3.348.1-1.176.19-2.112.29-2.808l-7.99 16.956zm19.28 5.04v-7.812h1.62c.41-.408.83-1.212 1.26-2.412.46-1.2.7-2.724.72-4.572l.22-10.044h12.92v17.028h2.52v7.812h-2.88v-5.04h-13.5v5.04zm5.04-7.812h8.46v-14.148h-6.62l-.15 7.236c-.02 1.896-.23 3.432-.61 4.608s-.74 1.944-1.08 2.304zm17.63 2.772 5.07-7.632c-1.51-.36-2.69-1.056-3.53-2.088-.81-1.032-1.22-2.316-1.22-3.852 0-1.944.64-3.468 1.91-4.572 1.29-1.104 3.06-1.656 5.29-1.656h8.53v19.8h-3.24v-7.38h-4.35l-4.68 7.38zm7.52-10.26h5.29v-6.66h-5.29c-1.2 0-2.15.3-2.84.9-.7.576-1.05 1.392-1.05 2.448 0 1.032.35 1.848 1.05 2.448.69.576 1.64.864 2.84.864zm21.08 10.26v-16.956h-7.2v-2.844h17.64v2.844h-7.2v16.956z" fill="#007bff"/><path d="m1101.8 459.36c-1.68 0-3.16-.288-4.43-.864-1.27-.6-2.25-1.416-2.95-2.448-.7-1.056-1.04-2.268-1.04-3.636 0-1.488.46-2.868 1.4-4.14.96-1.296 2.23-2.304 3.82-3.024-1.56-.768-2.73-1.68-3.5-2.736-.76-1.08-1.15-2.232-1.15-3.456 0-1.32.34-2.484 1.01-3.492.7-1.008 1.63-1.8 2.81-2.376 1.17-.576 2.52-.864 4.03-.864s2.86.288 4.03.864c1.2.576 2.14 1.368 2.81 2.376s1.01 2.172 1.01 3.492c0 1.2-.39 2.34-1.15 3.42-.77 1.056-1.94 1.98-3.5 2.772 1.59.72 2.85 1.728 3.78 3.024.96 1.272 1.44 2.652 1.44 4.14 0 1.368-.34 2.58-1.04 3.636-.7 1.032-1.68 1.848-2.95 2.448-1.25.576-2.73.864-4.43.864zm-1.04-15.732 1.04.396.9-.36c1.13-.432 2.04-1.044 2.74-1.836.69-.816 1.04-1.704 1.04-2.664 0-1.176-.43-2.124-1.3-2.844-.86-.744-1.99-1.116-3.38-1.116s-2.52.372-3.38 1.116c-.87.744-1.3 1.692-1.3 2.844 0 .984.34 1.872 1.01 2.664s1.55 1.392 2.63 1.8zm1.04 12.852c1.58 0 2.86-.408 3.82-1.224.96-.84 1.44-1.932 1.44-3.276 0-1.056-.33-2.004-.98-2.844-.64-.864-1.56-1.524-2.73-1.98l-1.55-.612-1.66.648c-1.15.456-2.04 1.116-2.66 1.98-.62.84-.94 1.776-.94 2.808 0 1.344.48 2.436 1.44 3.276.96.816 2.24 1.224 3.82 1.224zm21.59 2.88c-2.43 0-4.36-.696-5.8-2.088-1.42-1.416-2.12-3.3-2.12-5.652v-11.52c0-2.352.7-4.224 2.12-5.616 1.44-1.416 3.37-2.124 5.8-2.124 2.42 0 4.34.708 5.76 2.124 1.44 1.392 2.16 3.264 2.16 5.616v11.52c0 1.56-.33 2.928-.98 4.104-.64 1.152-1.57 2.052-2.77 2.7-1.17.624-2.57.936-4.17.936zm0-2.772c1.44 0 2.59-.456 3.45-1.368.89-.936 1.33-2.136 1.33-3.6v-11.52c0-1.464-.44-2.652-1.33-3.564-.86-.936-2.01-1.404-3.45-1.404s-2.61.468-3.5 1.404c-.86.912-1.29 2.1-1.29 3.564v11.52c0 1.464.43 2.664 1.29 3.6.89.912 2.06 1.368 3.5 1.368zm0-8.604c-.65 0-1.18-.204-1.59-.612-.38-.408-.57-.948-.57-1.62 0-.648.19-1.164.57-1.548.41-.408.94-.612 1.59-.612.64 0 1.16.204 1.54.612.41.384.62.9.62 1.548 0 .672-.21 1.212-.62 1.62-.38.408-.9.612-1.54.612zm16.36-3.384c-1.51 0-2.72-.432-3.63-1.296-.92-.864-1.37-2.052-1.37-3.564v-2.34c0-1.512.45-2.7 1.37-3.564.91-.864 2.12-1.296 3.63-1.296s2.73.432 3.64 1.296 1.37 2.052 1.37 3.564v2.34c0 1.512-.46 2.7-1.37 3.564s-2.13 1.296-3.64 1.296zm-5.07 14.4 17.92-26.28h2.67l-17.93 26.28zm5.07-16.848c1.56 0 2.34-.804 2.34-2.412v-2.34c0-1.608-.78-2.412-2.34-2.412s-2.34.804-2.34 2.412v2.34c0 1.608.78 2.412 2.34 2.412zm10.44 17.028c-1.51 0-2.72-.432-3.63-1.296-.92-.864-1.37-2.052-1.37-3.564v-2.34c0-1.512.45-2.7 1.37-3.564.91-.864 2.12-1.296 3.63-1.296s2.73.432 3.64 1.296 1.37 2.052 1.37 3.564v2.34c0 1.512-.46 2.7-1.37 3.564s-2.13 1.296-3.64 1.296zm0-2.484c1.56 0 2.34-.792 2.34-2.376v-2.34c0-1.608-.78-2.412-2.34-2.412s-2.34.804-2.34 2.412v2.34c0 1.584.78 2.376 2.34 2.376zm33.56 8.784 2.92-7.704-7.35-18.576h3.6l4.61 12.24c.17.408.33.9.47 1.476.14.552.26 1.02.36 1.404.1-.384.22-.852.36-1.404.14-.576.29-1.068.43-1.476l4.32-12.24h3.49l-9.75 26.28zm26.05-6.12c-2.4 0-4.32-.672-5.76-2.016-1.41-1.344-2.12-3.192-2.12-5.544v-5.4c0-2.352.71-4.2 2.12-5.544 1.44-1.344 3.36-2.016 5.76-2.016 2.28 0 4.12.612 5.51 1.836s2.12 2.892 2.2 5.004h-3.24c-.08-1.272-.51-2.244-1.3-2.916-.77-.696-1.82-1.044-3.17-1.044-1.41 0-2.54.408-3.38 1.224-.84.792-1.26 1.932-1.26 3.42v5.436c0 1.488.42 2.64 1.26 3.456s1.97 1.224 3.38 1.224c1.35 0 2.4-.348 3.17-1.044.79-.696 1.22-1.668 1.3-2.916h3.24c-.08 2.112-.81 3.78-2.2 5.004s-3.23 1.836-5.51 1.836zm14.1-.36v-19.8h3.1v10.8c0 1.032-.05 2.136-.15 3.312-.07 1.176-.15 2.112-.25 2.808l7.99-16.92h4.14v19.8h-3.09v-10.8c0-1.056.03-2.172.1-3.348.1-1.176.2-2.112.29-2.808l-7.99 16.956zm19.1.252v-3.024h.65c1.1 0 1.87-.432 2.3-1.296.46-.864.7-2.412.72-4.644l.22-11.088h13.43v19.8h-3.24v-16.848h-6.99l-.18 8.28c-.07 3.144-.57 5.4-1.51 6.768-.93 1.368-2.46 2.052-4.57 2.052zm24.07-.252v-19.8h3.1v10.8c0 1.032-.05 2.136-.15 3.312-.07 1.176-.15 2.112-.25 2.808l7.99-16.92h4.14v19.8h-3.09v-10.8c0-1.056.03-2.172.11-3.348.09-1.176.19-2.112.28-2.808l-7.99 16.956zm21.59 0v-19.8h3.09v10.8c0 1.032-.04 2.136-.14 3.312-.07 1.176-.16 2.112-.25 2.808l7.99-16.92h4.14v19.8h-3.1v-10.8c0-1.056.04-2.172.11-3.348.1-1.176.19-2.112.29-2.808l-7.99 16.956zm7.41-23.04c-1.72 0-3.12-.48-4.17-1.44-1.06-.96-1.59-2.22-1.59-3.78h2.56c0 .936.29 1.692.86 2.268.58.576 1.35.864 2.31.864.98 0 1.76-.288 2.34-.864.6-.576.9-1.332.9-2.268h2.55c0 1.56-.52 2.82-1.58 3.78s-2.45 1.44-4.18 1.44z" fill="#007bff"/><path d="m1096.38 534v-26.28h14.84v26.28h-3.24v-23.328h-8.36v23.328zm29.01.288c-2.4 0-4.3-.672-5.69-2.016-1.37-1.368-2.05-3.216-2.05-5.544v-5.256c0-2.352.68-4.2 2.05-5.544 1.39-1.344 3.29-2.016 5.69-2.016s4.28.672 5.65 2.016c1.39 1.344 2.09 3.18 2.09 5.508v5.292c0 2.328-.7 4.176-2.09 5.544-1.37 1.344-3.25 2.016-5.65 2.016zm0-2.88c1.41 0 2.52-.396 3.31-1.188s1.19-1.956 1.19-3.492v-5.256c0-1.536-.4-2.7-1.19-3.492s-1.9-1.188-3.31-1.188c-1.4 0-2.5.396-3.32 1.188-.79.792-1.18 1.956-1.18 3.492v5.256c0 1.536.39 2.7 1.18 3.492.82.792 1.92 1.188 3.32 1.188zm14.09 2.592v-19.8h8.5c1.99 0 3.56.456 4.72 1.368 1.15.888 1.72 2.1 1.72 3.636 0 1.224-.38 2.22-1.15 2.988-.77.744-1.81 1.14-3.13 1.188v.144c1.49.024 2.68.48 3.56 1.368.92.888 1.37 2.064 1.37 3.528 0 1.704-.61 3.06-1.83 4.068-1.23 1.008-2.88 1.512-4.97 1.512zm3.17-11.52h5.33c1.01 0 1.8-.24 2.38-.72.57-.48.86-1.152.86-2.016 0-.84-.29-1.5-.86-1.98-.58-.48-1.37-.72-2.38-.72h-5.33zm0 8.676h5.62c1.13 0 2-.264 2.63-.792.64-.528.97-1.272.97-2.232 0-.936-.33-1.668-.97-2.196-.63-.528-1.5-.792-2.63-.792h-5.62zm24.29 2.844v-16.956h-7.2v-2.844h17.64v2.844h-7.2v16.956zm23.2.288c-2.4 0-4.29-.672-5.68-2.016-1.37-1.368-2.06-3.216-2.06-5.544v-5.256c0-2.352.69-4.2 2.06-5.544 1.39-1.344 3.28-2.016 5.68-2.016s4.29.672 5.66 2.016c1.39 1.344 2.08 3.18 2.08 5.508v5.292c0 2.328-.69 4.176-2.08 5.544-1.37 1.344-3.26 2.016-5.66 2.016zm0-2.88c1.42 0 2.52-.396 3.32-1.188.79-.792 1.18-1.956 1.18-3.492v-5.256c0-1.536-.39-2.7-1.18-3.492-.8-.792-1.9-1.188-3.32-1.188-1.39 0-2.49.396-3.31 1.188-.79.792-1.19 1.956-1.19 3.492v5.256c0 1.536.4 2.7 1.19 3.492.82.792 1.92 1.188 3.31 1.188zm14.1 9.072v-26.28h3.24v3.78h.04c.17-1.296.73-2.304 1.69-3.024.98-.744 2.22-1.116 3.71-1.116 1.99 0 3.57.66 4.75 1.98 1.2 1.296 1.8 3.084 1.8 5.364v5.796c0 2.28-.6 4.08-1.8 5.4-1.18 1.32-2.76 1.98-4.75 1.98-1.49 0-2.71-.372-3.67-1.116s-1.54-1.752-1.73-3.024h-.11l.07 4.5v5.76zm7.6-8.928c1.37 0 2.43-.408 3.2-1.224.79-.816 1.19-1.992 1.19-3.528v-5.4c0-1.536-.4-2.712-1.19-3.528-.77-.816-1.83-1.224-3.2-1.224-1.32 0-2.38.42-3.17 1.26s-1.19 2.004-1.19 3.492v5.4c0 1.488.4 2.652 1.19 3.492s1.85 1.26 3.17 1.26zm12.84 2.448 5.07-7.632c-1.51-.36-2.69-1.056-3.53-2.088-.81-1.032-1.22-2.316-1.22-3.852 0-1.944.64-3.468 1.91-4.572 1.29-1.104 3.06-1.656 5.29-1.656h8.53v19.8h-3.24v-7.38h-4.35l-4.68 7.38zm7.52-10.26h5.29v-6.66h-5.29c-1.2 0-2.15.3-2.84.9-.7.576-1.05 1.392-1.05 2.448 0 1.032.35 1.848 1.05 2.448.69.576 1.64.864 2.84.864zm25.8 10.62c-1.66 0-2.99-.564-4-1.692s-1.51-2.604-1.51-4.428v-2.988h-3.17v8.748h-2.99v-19.8h2.99v8.46h3.17v-2.7c0-1.848.49-3.324 1.48-4.428 1-1.128 2.35-1.692 4.03-1.692 1.77 0 3.2.564 4.28 1.692 1.08 1.104 1.62 2.58 1.62 4.428v8.28c0 1.824-.54 3.3-1.62 4.428s-2.51 1.692-4.28 1.692zm0-2.52c.91 0 1.62-.312 2.12-.936.53-.648.79-1.536.79-2.664v-8.28c0-1.128-.26-2.004-.79-2.628-.5-.648-1.21-.972-2.12-.972-.89 0-1.59.324-2.09.972-.5.624-.76 1.5-.76 2.628v8.28c0 1.128.26 2.016.76 2.664.5.624 1.2.936 2.09.936zm25.51 7.2v-5.04h-15.52v-19.8h2.92v17.064h4.17v-17.064h2.52v17.064h4.18v-17.064h2.92v17.064h1.69v7.776zm7.15-5.04v-19.8h3.09v10.8c0 1.032-.04 2.136-.14 3.312-.07 1.176-.16 2.112-.25 2.808l7.99-16.92h4.14v19.8h-3.1v-10.8c0-1.056.04-2.172.11-3.348.1-1.176.19-2.112.29-2.808l-7.99 16.956zm21.58 0v-19.8h3.1v10.8c0 1.032-.05 2.136-.14 3.312-.08 1.176-.16 2.112-.26 2.808l8-16.92h4.14v19.8h-3.1v-10.8c0-1.056.04-2.172.11-3.348.09-1.176.19-2.112.29-2.808l-8 16.956zm7.42-23.04c-1.73 0-3.12-.48-4.18-1.44-1.05-.96-1.58-2.22-1.58-3.78h2.56c0 .936.28 1.692.86 2.268s1.34.864 2.3.864c.99 0 1.77-.288 2.34-.864.6-.576.9-1.332.9-2.268h2.56c0 1.56-.53 2.82-1.58 3.78-1.06.96-2.45 1.44-4.18 1.44zm21.66 23.4c-2.4 0-4.32-.672-5.76-2.016-1.42-1.344-2.13-3.192-2.13-5.544v-5.4c0-2.352.71-4.2 2.13-5.544 1.44-1.344 3.36-2.016 5.76-2.016 2.28 0 4.11.612 5.51 1.836 1.39 1.224 2.12 2.892 2.19 5.004h-3.24c-.07-1.272-.5-2.244-1.29-2.916-.77-.696-1.83-1.044-3.17-1.044-1.42 0-2.55.408-3.39 1.224-.84.792-1.26 1.932-1.26 3.42v5.436c0 1.488.42 2.64 1.26 3.456s1.97 1.224 3.39 1.224c1.34 0 2.4-.348 3.17-1.044.79-.696 1.22-1.668 1.29-2.916h3.24c-.07 2.112-.8 3.78-2.19 5.004-1.4 1.224-3.23 1.836-5.51 1.836zm12.87-.36 5.08-7.632c-1.51-.36-2.69-1.056-3.53-2.088-.82-1.032-1.22-2.316-1.22-3.852 0-1.944.63-3.468 1.9-4.572 1.3-1.104 3.06-1.656 5.3-1.656h8.53v19.8h-3.24v-7.38h-4.36l-4.68 7.38zm7.53-10.26h5.29v-6.66h-5.29c-1.2 0-2.15.3-2.85.9-.69.576-1.04 1.392-1.04 2.448 0 1.032.35 1.848 1.04 2.448.7.576 1.65.864 2.85.864z" fill="#007bff"/></g></svg>