<svg width="1474" height="643" viewBox="0 0 1474 643" fill="none" xmlns="http://www.w3.org/2000/svg">
<g clip-path="url(#clip0)">
<path d="M1474 0H0V643H1474V0Z" fill="white"/>
<path d="M1483 273H0V643H1483V273Z" fill="#C4E4FF"/>
<path d="M906 273L870.983 246.156L850.092 197.007L787.22 107L757.773 178.65L724.149 195.033L676 273H906Z" fill="#E5F3FF"/>
<path d="M1547 273L1495.08 265.238L1464.11 251.026L1370.9 225L1327.24 245.718L1277.39 250.455L1206 273H1547Z" fill="#E5F3FF"/>
<path d="M696 273L667.986 265.238L651.273 251.026L600.976 225L577.419 245.718L550.519 250.455L512 273H696Z" fill="#E5F3FF"/>
<path d="M85 273L150.01 255.212L188.795 222.643L305.518 163L360.186 210.479L422.611 221.335L512 273H85Z" fill="#E5F3FF"/>
<path d="M-157 273L-91.9896 255.212L-53.205 222.643L63.5182 163L118.186 210.479L180.611 221.335L270 273H-157Z" fill="#E5F3FF"/>
<path d="M1022 273L987.743 251.896L966.874 212.674L904.661 141L875.72 198.14L842.448 211.081L795 273H1022Z" fill="#E5F3FF"/>
<path d="M1002 273L960.982 240.357L936.528 181.007L863.366 72L800.852 135.703L790.203 178.435L734 273H1002Z" fill="#E5F3FF"/>
<path d="M1261 273L1223.5 253.837L1201.15 218.994L1134.26 155L1077.11 192.398L1067.38 217.484L1016 273H1261Z" fill="#E5F3FF"/>
<path d="M928.519 273H875.242H822.758H781.761H676L701.153 514.98L756.806 612.246L778.79 702L816.816 700.616L830 664L862.765 633.004L883.362 534.354L899.603 612.246L916.437 672.543L954.464 671.159L978.23 603.943L1022 273H928.519Z" fill="#007BFF"/>
<path d="M790 177.802L833.725 184.882L836.297 225L879.626 205.531L873.097 186.652L882 156.366L853.51 127.851L863.402 72L800.684 135.324L790 177.802Z" fill="#C2E3FF"/>
<path d="M726 195.509L762.391 201.264L764.509 235L786.075 204.042L780.683 188.364L788 162.963L784.727 136.172L787.037 107L758.54 179.037L726 195.509Z" fill="#C2E3FF"/>
<path d="M842 210.155L880.152 214.674L882.171 241L904.981 216.835L899.329 204.458L907 184.615L903.568 163.79L905.789 141L876.115 197.385L842 210.155Z" fill="#C2E3FF"/>
<path d="M730.951 287L742.109 437.348L762.432 473.55L769.605 596.993L771 651L744.898 536.261L718 457.13L730.951 287Z" fill="#0067D6"/>
<path d="M930.706 650L945.398 458.456L928 422.293L956.416 354.935L954.677 284L980 409.378L965.695 438.586L930.706 650Z" fill="#0067D6"/>
<path d="M864 632L867 339L881 382.684L892.4 364.778L889.8 444.472L901.2 467.889L927 457.853L884.8 533.809L864 632Z" fill="#0067D6"/>
<path d="M589 72V253" stroke="#274867" stroke-width="4"/>
<path d="M645 74H587" stroke="#274867" stroke-width="4"/>
<path d="M645 252H587" stroke="#274867" stroke-width="4"/>
<path d="M589 290V617" stroke="#007BFF" stroke-width="4"/>
<path d="M645 292H587" stroke="#007BFF" stroke-width="4"/>
<path d="M645 615.582H587" stroke="#007BFF" stroke-width="4"/>
<path d="M209.317 131.44V124.88H169.397V182H176.597V156.56H203.077V150H176.597V131.44H209.317ZM240.311 141.68H237.271C231.431 141.68 227.591 144 225.591 146.48H223.831V141.68H217.271V182H224.071V161.84C224.071 152.96 228.951 148.08 236.951 148.08H240.311V141.68ZM266.584 140.64C253.944 140.64 246.744 149.92 246.744 161.84C246.744 173.76 253.944 183.04 266.584 183.04C279.144 183.04 286.424 173.76 286.424 161.84C286.424 149.92 279.144 140.64 266.584 140.64ZM266.584 177.12C257.624 177.12 253.544 169.76 253.544 161.84C253.544 153.92 257.624 146.56 266.584 146.56C275.464 146.56 279.624 153.92 279.624 161.84C279.624 169.76 275.464 177.12 266.584 177.12ZM332.877 182V156.4C332.877 146.72 327.437 140.64 317.517 140.64C312.077 140.64 307.597 142.88 305.357 146H303.597V141.68H297.037V182H303.837V160.16C303.837 153.04 308.637 146.72 315.837 146.72C322.637 146.72 326.077 150.4 326.077 157.84V182H332.877ZM354.678 141.68V129.52H347.878V141.68H340.918V147.6H347.878V170.72C347.878 179.28 352.998 182 361.718 182H364.838V175.92H361.878C356.438 175.92 354.678 173.84 354.678 169.76V147.6H364.838V141.68H354.678ZM410.356 159.44C410.116 149.52 404.356 140.64 392.356 140.64C380.116 140.64 372.916 149.04 372.916 161.44C372.916 173.84 379.956 183.04 392.516 183.04C402.516 183.04 408.356 177.76 409.636 170.88H402.756C401.556 174.72 398.196 177.12 392.516 177.12C384.196 177.12 379.876 171.36 379.636 161.76H410.356V159.44ZM392.196 146.56C398.996 146.56 402.916 150.96 403.316 156.08H380.036C380.916 150.96 384.916 146.56 392.196 146.56ZM456.783 182V156.4C456.783 146.72 451.343 140.64 441.423 140.64C435.983 140.64 431.503 142.88 429.263 146H427.503V141.68H420.943V182H427.743V160.16C427.743 153.04 432.543 146.72 439.743 146.72C446.543 146.72 449.983 150.4 449.983 157.84V182H456.783ZM498.504 123.84V146H496.744C494.504 143.12 490.824 140.64 484.424 140.64C473.304 140.64 466.744 149.68 466.744 161.84C466.744 173.76 473.304 183.04 484.424 183.04C490.824 183.04 494.744 180.48 496.984 177.68H498.744V182H505.304V123.84H498.504ZM485.944 177.12C477.864 177.12 473.544 170.8 473.544 161.84C473.544 152.88 477.864 146.56 485.944 146.56C494.904 146.56 498.584 153.92 498.584 161.84C498.584 169.76 494.904 177.12 485.944 177.12Z" fill="#274867"/>
<path d="M206.605 449.96C210.765 447.72 212.845 443.48 212.845 438.36C212.845 430.52 206.685 423.88 194.605 423.88H169.725V481H195.245C208.285 481 214.605 474.04 214.605 464.92C214.605 459.08 211.405 453.96 206.605 451.72V449.96ZM176.925 430.28H194.285C200.045 430.28 205.565 432.52 205.565 439C205.565 446.04 200.765 448.12 194.445 448.12H176.925V430.28ZM176.925 474.6V454.44H194.845C201.565 454.44 207.325 457 207.325 464.36C207.325 472.28 201.245 474.6 194.765 474.6H176.925ZM250.779 481H257.179V453.56C257.179 444.52 250.699 439.64 240.539 439.64C231.499 439.64 225.099 443.96 224.539 451.4H231.339C231.659 447.88 234.699 445.56 240.699 445.56C247.739 445.56 250.539 449.08 250.539 453.96V455.56H237.419C226.219 455.56 221.979 462.44 221.979 468.92C221.979 475.8 227.179 482.04 236.459 482.04C242.219 482.04 246.539 479.88 249.019 476.76H250.779V481ZM238.139 476.12C232.139 476.12 228.779 473.24 228.779 468.68C228.779 463.88 231.819 461 238.459 461H250.539V464.68C250.539 471.08 244.859 476.12 238.139 476.12ZM296.91 468.84C295.87 473.32 292.51 476.12 286.75 476.12C277.71 476.12 273.95 468.76 273.95 460.68C273.95 452.68 277.63 445.56 286.75 445.56C292.27 445.56 295.39 448.28 296.67 452.36H303.47C302.11 444.92 296.35 439.64 286.75 439.64C274.19 439.64 267.15 448.68 267.15 460.84C267.15 472.76 274.19 482.04 286.75 482.04C296.11 482.04 302.19 476.76 303.71 468.84H296.91ZM350.489 481L336.169 453.08L347.769 440.68H339.689L320.649 460.92V422.84H313.849V481H320.649V469.32L329.929 459.08H331.689L343.209 481H350.489ZM393.028 458.44C392.788 448.52 387.028 439.64 375.028 439.64C362.788 439.64 355.588 448.04 355.588 460.44C355.588 472.84 362.628 482.04 375.188 482.04C385.188 482.04 391.028 476.76 392.308 469.88H385.428C384.228 473.72 380.868 476.12 375.188 476.12C366.868 476.12 362.548 470.36 362.308 460.76H393.028V458.44ZM374.868 445.56C381.668 445.56 385.588 449.96 385.988 455.08H362.708C363.588 449.96 367.588 445.56 374.868 445.56ZM439.455 481V455.4C439.455 445.72 434.015 439.64 424.095 439.64C418.655 439.64 414.175 441.88 411.935 445H410.175V440.68H403.615V481H410.415V459.16C410.415 452.04 415.215 445.72 422.415 445.72C429.215 445.72 432.655 449.4 432.655 456.84V481H439.455ZM481.176 422.84V445H479.416C477.176 442.12 473.496 439.64 467.096 439.64C455.976 439.64 449.416 448.68 449.416 460.84C449.416 472.76 455.976 482.04 467.096 482.04C473.496 482.04 477.416 479.48 479.656 476.68H481.416V481H487.976V422.84H481.176ZM468.616 476.12C460.536 476.12 456.216 469.8 456.216 460.84C456.216 451.88 460.536 445.56 468.616 445.56C477.576 445.56 481.256 452.92 481.256 460.84C481.256 468.76 477.576 476.12 468.616 476.12Z" fill="#007BFF"/>
<path d="M526 161H587" stroke="#274867" stroke-width="4"/>
<path d="M526 452H587" stroke="#007BFF" stroke-width="4"/>
<path d="M1058.26 190H1055.74C1053.71 190 1052.06 188.348 1052.06 186.318V185.468C1051.2 185.193 1050.36 184.845 1049.55 184.428L1048.95 185.029C1047.5 186.489 1045.16 186.446 1043.74 185.029L1041.97 183.255C1040.55 181.838 1040.51 179.504 1041.97 178.046L1042.57 177.445C1042.16 176.639 1041.81 175.801 1041.53 174.938H1040.68C1038.65 174.938 1037 173.286 1037 171.255V168.745C1037 166.714 1038.65 165.063 1040.68 165.063H1041.53C1041.81 164.199 1042.16 163.361 1042.57 162.555L1041.97 161.953C1040.51 160.496 1040.55 158.162 1041.97 156.745L1043.75 154.971C1045.16 153.55 1047.5 153.514 1048.95 154.971L1049.55 155.572C1050.36 155.155 1051.2 154.807 1052.06 154.531V153.682C1052.06 151.652 1053.71 150 1055.74 150H1058.26C1060.29 150 1061.94 151.652 1061.94 153.682V154.532C1062.8 154.807 1063.64 155.155 1064.45 155.572L1065.05 154.971C1066.5 153.511 1068.84 153.554 1070.26 154.971L1072.03 156.745C1073.45 158.162 1073.49 160.496 1072.03 161.954L1071.43 162.555C1071.84 163.361 1072.19 164.199 1072.47 165.063H1073.32C1075.35 165.063 1077 166.714 1077 168.745V171.255C1077 173.286 1075.35 174.938 1073.32 174.938H1072.47C1072.19 175.801 1071.84 176.639 1071.43 177.445L1072.03 178.047C1073.49 179.504 1073.45 181.838 1072.03 183.255L1070.25 185.03C1068.84 186.45 1066.5 186.486 1065.05 185.029L1064.45 184.428C1063.64 184.845 1062.8 185.193 1061.94 185.469V186.318C1061.94 188.348 1060.29 190 1058.26 190ZM1049.95 181.966C1051.07 182.628 1052.27 183.128 1053.53 183.453C1054.04 183.586 1054.41 184.053 1054.41 184.587V186.318C1054.41 187.056 1055.01 187.656 1055.74 187.656H1058.26C1058.99 187.656 1059.59 187.056 1059.59 186.318V184.587C1059.59 184.053 1059.96 183.586 1060.47 183.453C1061.73 183.128 1062.93 182.628 1064.05 181.966C1064.51 181.694 1065.1 181.768 1065.48 182.146L1066.7 183.372C1067.23 183.901 1068.08 183.889 1068.6 183.373L1070.37 181.597C1070.89 181.084 1070.9 180.235 1070.37 179.705L1069.15 178.479C1068.77 178.1 1068.69 177.514 1068.97 177.053C1069.63 175.934 1070.13 174.729 1070.45 173.473C1070.59 172.955 1071.05 172.594 1071.59 172.594H1073.32C1074.06 172.594 1074.66 171.993 1074.66 171.255V168.745C1074.66 168.007 1074.06 167.406 1073.32 167.406H1071.59C1071.05 167.406 1070.59 167.045 1070.45 166.527C1070.13 165.271 1069.63 164.066 1068.97 162.947C1068.69 162.486 1068.77 161.9 1069.15 161.522L1070.37 160.296C1070.9 159.767 1070.89 158.918 1070.37 158.403L1068.6 156.628C1068.08 156.113 1067.23 156.098 1066.7 156.628L1065.48 157.854C1065.1 158.232 1064.51 158.306 1064.05 158.034C1062.93 157.372 1061.73 156.872 1060.47 156.547C1059.96 156.414 1059.59 155.947 1059.59 155.413V153.682C1059.59 152.944 1058.99 152.344 1058.26 152.344H1055.74C1055.01 152.344 1054.41 152.944 1054.41 153.682V155.413C1054.41 155.947 1054.04 156.414 1053.53 156.547C1052.27 156.872 1051.07 157.372 1049.95 158.034C1049.49 158.306 1048.9 158.232 1048.52 157.854L1047.3 156.628C1046.77 156.099 1045.92 156.111 1045.4 156.627L1043.63 158.403C1043.11 158.916 1043.1 159.765 1043.63 160.295L1044.85 161.521C1045.23 161.9 1045.31 162.486 1045.03 162.947C1044.37 164.066 1043.87 165.271 1043.55 166.527C1043.41 167.045 1042.95 167.406 1042.41 167.406H1040.68C1039.94 167.406 1039.34 168.007 1039.34 168.745V171.255C1039.34 171.993 1039.94 172.594 1040.68 172.594H1042.41C1042.95 172.594 1043.41 172.955 1043.55 173.473C1043.87 174.729 1044.37 175.934 1045.03 177.053C1045.31 177.514 1045.23 178.1 1044.85 178.478L1043.63 179.704C1043.1 180.233 1043.11 181.082 1043.63 181.597L1045.4 183.372C1045.92 183.887 1046.77 183.903 1047.3 183.373L1048.52 182.146C1048.8 181.868 1049.38 181.631 1049.95 181.966Z" fill="#274867"/>
<path d="M1057 178.703C1052.2 178.703 1048.3 174.799 1048.3 170C1048.3 165.201 1052.2 161.297 1057 161.297C1061.8 161.297 1065.7 165.201 1065.7 170C1065.7 174.799 1061.8 178.703 1057 178.703ZM1057 163.641C1053.49 163.641 1050.64 166.493 1050.64 170C1050.64 173.507 1053.49 176.359 1057 176.359C1060.51 176.359 1063.36 173.507 1063.36 170C1063.36 166.493 1060.51 163.641 1057 163.641Z" fill="#274867"/>
<path d="M1094.31 179V175.796L1102.34 167.156C1103.71 165.692 1104.7 164.396 1105.33 163.268C1105.95 162.116 1106.26 161.012 1106.26 159.956C1106.26 158.492 1105.86 157.34 1105.04 156.5C1104.25 155.66 1103.16 155.24 1101.76 155.24C1100.23 155.24 1099.02 155.672 1098.13 156.536C1097.26 157.4 1096.83 158.588 1096.83 160.1H1093.59C1093.66 157.724 1094.43 155.84 1095.9 154.448C1097.38 153.056 1099.34 152.36 1101.76 152.36C1104.14 152.36 1106.02 153.044 1107.42 154.412C1108.81 155.756 1109.5 157.592 1109.5 159.92C1109.5 161.408 1109.11 162.884 1108.32 164.348C1107.52 165.812 1106.23 167.48 1104.43 169.352L1098.02 176.048H1109.94V179H1094.31ZM1123.39 179.36C1120.96 179.36 1119.03 178.664 1117.59 177.272C1116.17 175.856 1115.47 173.972 1115.47 171.62V160.1C1115.47 157.748 1116.17 155.876 1117.59 154.484C1119.03 153.068 1120.96 152.36 1123.39 152.36C1125.81 152.36 1127.73 153.068 1129.15 154.484C1130.59 155.876 1131.31 157.748 1131.31 160.1V171.62C1131.31 173.18 1130.98 174.548 1130.33 175.724C1129.69 176.876 1128.76 177.776 1127.56 178.424C1126.39 179.048 1124.99 179.36 1123.39 179.36ZM1123.39 176.588C1124.83 176.588 1125.98 176.132 1126.84 175.22C1127.73 174.284 1128.17 173.084 1128.17 171.62V160.1C1128.17 158.636 1127.73 157.448 1126.84 156.536C1125.98 155.6 1124.83 155.132 1123.39 155.132C1121.95 155.132 1120.78 155.6 1119.89 156.536C1119.03 157.448 1118.6 158.636 1118.6 160.1V171.62C1118.6 173.084 1119.03 174.284 1119.89 175.22C1120.78 176.132 1121.95 176.588 1123.39 176.588ZM1123.39 167.984C1122.74 167.984 1122.21 167.78 1121.8 167.372C1121.42 166.964 1121.23 166.424 1121.23 165.752C1121.23 165.104 1121.42 164.588 1121.8 164.204C1122.21 163.796 1122.74 163.592 1123.39 163.592C1124.03 163.592 1124.55 163.796 1124.93 164.204C1125.34 164.588 1125.55 165.104 1125.55 165.752C1125.55 166.424 1125.34 166.964 1124.93 167.372C1124.55 167.78 1124.03 167.984 1123.39 167.984ZM1139.75 164.6C1138.24 164.6 1137.03 164.168 1136.12 163.304C1135.2 162.44 1134.75 161.252 1134.75 159.74V157.4C1134.75 155.888 1135.2 154.7 1136.12 153.836C1137.03 152.972 1138.24 152.54 1139.75 152.54C1141.26 152.54 1142.48 152.972 1143.39 153.836C1144.3 154.7 1144.76 155.888 1144.76 157.4V159.74C1144.76 161.252 1144.3 162.44 1143.39 163.304C1142.48 164.168 1141.26 164.6 1139.75 164.6ZM1134.68 179L1152.6 152.72H1155.27L1137.34 179H1134.68ZM1139.75 162.152C1141.31 162.152 1142.09 161.348 1142.09 159.74V157.4C1142.09 155.792 1141.31 154.988 1139.75 154.988C1138.19 154.988 1137.41 155.792 1137.41 157.4V159.74C1137.41 161.348 1138.19 162.152 1139.75 162.152ZM1150.19 179.18C1148.68 179.18 1147.47 178.748 1146.56 177.884C1145.64 177.02 1145.19 175.832 1145.19 174.32V171.98C1145.19 170.468 1145.64 169.28 1146.56 168.416C1147.47 167.552 1148.68 167.12 1150.19 167.12C1151.7 167.12 1152.92 167.552 1153.83 168.416C1154.74 169.28 1155.2 170.468 1155.2 171.98V174.32C1155.2 175.832 1154.74 177.02 1153.83 177.884C1152.92 178.748 1151.7 179.18 1150.19 179.18ZM1150.19 176.696C1151.75 176.696 1152.53 175.904 1152.53 174.32V171.98C1152.53 170.372 1151.75 169.568 1150.19 169.568C1148.63 169.568 1147.85 170.372 1147.85 171.98V174.32C1147.85 175.904 1148.63 176.696 1150.19 176.696ZM1183.75 185.48L1186.67 177.776L1179.32 159.2H1182.92L1187.53 171.44C1187.7 171.848 1187.86 172.34 1188 172.916C1188.14 173.468 1188.26 173.936 1188.36 174.32C1188.46 173.936 1188.58 173.468 1188.72 172.916C1188.86 172.34 1189.01 171.848 1189.15 171.44L1193.47 159.2H1196.96L1187.21 185.48H1183.75ZM1209.8 179.36C1207.4 179.36 1205.48 178.688 1204.04 177.344C1202.63 176 1201.92 174.152 1201.92 171.8V166.4C1201.92 164.048 1202.63 162.2 1204.04 160.856C1205.48 159.512 1207.4 158.84 1209.8 158.84C1212.08 158.84 1213.92 159.452 1215.31 160.676C1216.7 161.9 1217.43 163.568 1217.51 165.68H1214.27C1214.19 164.408 1213.76 163.436 1212.97 162.764C1212.2 162.068 1211.15 161.72 1209.8 161.72C1208.39 161.72 1207.26 162.128 1206.42 162.944C1205.58 163.736 1205.16 164.876 1205.16 166.364V171.8C1205.16 173.288 1205.58 174.44 1206.42 175.256C1207.26 176.072 1208.39 176.48 1209.8 176.48C1211.15 176.48 1212.2 176.132 1212.97 175.436C1213.76 174.74 1214.19 173.768 1214.27 172.52H1217.51C1217.43 174.632 1216.7 176.3 1215.31 177.524C1213.92 178.748 1212.08 179.36 1209.8 179.36ZM1223.9 179V159.2H1227V170C1227 171.032 1226.95 172.136 1226.85 173.312C1226.78 174.488 1226.7 175.424 1226.6 176.12L1234.59 159.2H1238.73V179H1235.64V168.2C1235.64 167.144 1235.67 166.028 1235.74 164.852C1235.84 163.676 1235.94 162.74 1236.03 162.044L1228.04 179H1223.9ZM1243 179.252V176.228H1243.65C1244.75 176.228 1245.52 175.796 1245.95 174.932C1246.41 174.068 1246.65 172.52 1246.67 170.288L1246.89 159.2H1260.32V179H1257.08V162.152H1250.09L1249.91 170.432C1249.84 173.576 1249.34 175.832 1248.4 177.2C1247.47 178.568 1245.94 179.252 1243.83 179.252H1243ZM1267.07 179V159.2H1270.17V170C1270.17 171.032 1270.12 172.136 1270.02 173.312C1269.95 174.488 1269.87 175.424 1269.77 176.12L1277.76 159.2H1281.9V179H1278.81V168.2C1278.81 167.144 1278.84 166.028 1278.92 164.852C1279.01 163.676 1279.11 162.74 1279.2 162.044L1271.21 179H1267.07ZM1288.66 179V159.2H1291.75V170C1291.75 171.032 1291.71 172.136 1291.61 173.312C1291.54 174.488 1291.45 175.424 1291.36 176.12L1299.35 159.2H1303.49V179H1300.39V168.2C1300.39 167.144 1300.43 166.028 1300.5 164.852C1300.6 163.676 1300.69 162.74 1300.79 162.044L1292.8 179H1288.66ZM1296.07 155.96C1294.35 155.96 1292.95 155.48 1291.9 154.52C1290.84 153.56 1290.31 152.3 1290.31 150.74H1292.87C1292.87 151.676 1293.16 152.432 1293.73 153.008C1294.31 153.584 1295.08 153.872 1296.04 153.872C1297.02 153.872 1297.8 153.584 1298.38 153.008C1298.98 152.432 1299.28 151.676 1299.28 150.74H1301.83C1301.83 152.3 1301.31 153.56 1300.25 154.52C1299.19 155.48 1297.8 155.96 1296.07 155.96Z" fill="#274867"/>
<path d="M1093.72 103.18V100.156H1094.37C1095.42 100.156 1096.18 99.688 1096.64 98.752C1097.12 97.792 1097.37 96.16 1097.39 93.856L1097.68 76.72H1111.22V103H1107.98V79.672H1100.88L1100.63 93.856C1100.58 97.072 1100.07 99.436 1099.08 100.948C1098.12 102.436 1096.61 103.18 1094.55 103.18H1093.72ZM1128.48 103.36C1126.83 103.36 1125.49 102.796 1124.49 101.668C1123.48 100.54 1122.97 99.064 1122.97 97.24V94.252H1119.81V103H1116.82V83.2H1119.81V91.66H1122.97V88.96C1122.97 87.112 1123.47 85.636 1124.45 84.532C1125.46 83.404 1126.8 82.84 1128.48 82.84C1130.26 82.84 1131.69 83.404 1132.77 84.532C1133.85 85.636 1134.39 87.112 1134.39 88.96V97.24C1134.39 99.064 1133.85 100.54 1132.77 101.668C1131.69 102.796 1130.26 103.36 1128.48 103.36ZM1128.48 100.84C1129.39 100.84 1130.1 100.528 1130.61 99.904C1131.13 99.256 1131.4 98.368 1131.4 97.24V88.96C1131.4 87.832 1131.13 86.956 1130.61 86.332C1130.1 85.684 1129.39 85.36 1128.48 85.36C1127.59 85.36 1126.9 85.684 1126.39 86.332C1125.89 86.956 1125.64 87.832 1125.64 88.96V97.24C1125.64 98.368 1125.89 99.256 1126.39 99.904C1126.9 100.528 1127.59 100.84 1128.48 100.84ZM1137.25 108.04V100.228H1138.87C1139.28 99.82 1139.7 99.016 1140.13 97.816C1140.59 96.616 1140.83 95.092 1140.85 93.244L1141.07 83.2H1153.99V100.228H1156.51V108.04H1153.63V103H1140.13V108.04H1137.25ZM1142.29 100.228H1150.75V86.08H1144.13L1143.98 93.316C1143.96 95.212 1143.76 96.748 1143.37 97.924C1142.99 99.1 1142.63 99.868 1142.29 100.228ZM1161.14 103V83.2H1164.24V94C1164.24 95.032 1164.19 96.136 1164.09 97.312C1164.02 98.488 1163.94 99.424 1163.84 100.12L1171.83 83.2H1175.97V103H1172.88V92.2C1172.88 91.144 1172.91 90.028 1172.99 88.852C1173.08 87.676 1173.18 86.74 1173.27 86.044L1165.28 103H1161.14ZM1204.24 103V83.2H1212.74C1214.73 83.2 1216.3 83.656 1217.45 84.568C1218.61 85.456 1219.18 86.668 1219.18 88.204C1219.18 89.428 1218.8 90.424 1218.03 91.192C1217.26 91.936 1216.22 92.332 1214.9 92.38V92.524C1216.39 92.548 1217.57 93.004 1218.46 93.892C1219.37 94.78 1219.83 95.956 1219.83 97.42C1219.83 99.124 1219.22 100.48 1217.99 101.488C1216.77 102.496 1215.11 103 1213.03 103H1204.24ZM1207.41 91.48H1212.74C1213.75 91.48 1214.54 91.24 1215.11 90.76C1215.69 90.28 1215.98 89.608 1215.98 88.744C1215.98 87.904 1215.69 87.244 1215.11 86.764C1214.54 86.284 1213.75 86.044 1212.74 86.044H1207.41V91.48ZM1207.41 100.156H1213.03C1214.15 100.156 1215.03 99.892 1215.65 99.364C1216.3 98.836 1216.63 98.092 1216.63 97.132C1216.63 96.196 1216.3 95.464 1215.65 94.936C1215.03 94.408 1214.15 94.144 1213.03 94.144H1207.41V100.156ZM1225.9 103V83.2H1229V94C1229 95.032 1228.95 96.136 1228.85 97.312C1228.78 98.488 1228.7 99.424 1228.6 100.12L1236.59 83.2H1240.73V103H1237.64V92.2C1237.64 91.144 1237.67 90.028 1237.74 88.852C1237.84 87.676 1237.94 86.74 1238.03 86.044L1230.04 103H1225.9ZM1245.18 108.04V100.228H1246.8C1247.21 99.82 1247.63 99.016 1248.06 97.816C1248.52 96.616 1248.76 95.092 1248.78 93.244L1249 83.2H1261.92V100.228H1264.44V108.04H1261.56V103H1248.06V108.04H1245.18ZM1250.22 100.228H1258.68V86.08H1252.06L1251.91 93.316C1251.89 95.212 1251.69 96.748 1251.3 97.924C1250.92 99.1 1250.56 99.868 1250.22 100.228ZM1267.85 103L1272.92 95.368C1271.41 95.008 1270.24 94.312 1269.4 93.28C1268.58 92.248 1268.17 90.964 1268.17 89.428C1268.17 87.484 1268.81 85.96 1270.08 84.856C1271.38 83.752 1273.14 83.2 1275.37 83.2H1283.9V103H1280.66V95.62H1276.31L1271.63 103H1267.85ZM1275.37 92.74H1280.66V86.08H1275.37C1274.17 86.08 1273.22 86.38 1272.53 86.98C1271.83 87.556 1271.48 88.372 1271.48 89.428C1271.48 90.46 1271.83 91.276 1272.53 91.876C1273.22 92.452 1274.17 92.74 1275.37 92.74ZM1296.45 103V86.044H1289.25V83.2H1306.89V86.044H1299.69V103H1296.45Z" fill="#274867"/>
<path d="M1059.26 470H1056.74C1054.71 470 1053.06 468.348 1053.06 466.318V465.468C1052.2 465.193 1051.36 464.845 1050.55 464.428L1049.95 465.029C1048.5 466.489 1046.16 466.446 1044.74 465.029L1042.97 463.255C1041.55 461.838 1041.51 459.504 1042.97 458.046L1043.57 457.445C1043.16 456.639 1042.81 455.801 1042.53 454.938H1041.68C1039.65 454.938 1038 453.286 1038 451.255V448.745C1038 446.714 1039.65 445.063 1041.68 445.063H1042.53C1042.81 444.199 1043.16 443.361 1043.57 442.555L1042.97 441.953C1041.51 440.496 1041.55 438.162 1042.97 436.745L1044.75 434.971C1046.16 433.55 1048.5 433.514 1049.95 434.971L1050.55 435.572C1051.36 435.155 1052.2 434.807 1053.06 434.531V433.682C1053.06 431.652 1054.71 430 1056.74 430H1059.26C1061.29 430 1062.94 431.652 1062.94 433.682V434.532C1063.8 434.807 1064.64 435.155 1065.45 435.572L1066.05 434.971C1067.5 433.511 1069.84 433.554 1071.26 434.971L1073.03 436.745C1074.45 438.162 1074.49 440.496 1073.03 441.954L1072.43 442.555C1072.84 443.361 1073.19 444.199 1073.47 445.063H1074.32C1076.35 445.063 1078 446.714 1078 448.745V451.255C1078 453.286 1076.35 454.938 1074.32 454.938H1073.47C1073.19 455.801 1072.84 456.639 1072.43 457.445L1073.03 458.047C1074.49 459.504 1074.45 461.838 1073.03 463.255L1071.25 465.03C1069.84 466.45 1067.5 466.486 1066.05 465.029L1065.45 464.428C1064.64 464.845 1063.8 465.193 1062.94 465.469V466.318C1062.94 468.348 1061.29 470 1059.26 470ZM1050.95 461.966C1052.07 462.628 1053.27 463.128 1054.53 463.453C1055.04 463.586 1055.41 464.053 1055.41 464.587V466.318C1055.41 467.056 1056.01 467.656 1056.74 467.656H1059.26C1059.99 467.656 1060.59 467.056 1060.59 466.318V464.587C1060.59 464.053 1060.96 463.586 1061.47 463.453C1062.73 463.128 1063.93 462.628 1065.05 461.966C1065.51 461.694 1066.1 461.768 1066.48 462.146L1067.7 463.372C1068.23 463.901 1069.08 463.889 1069.6 463.373L1071.37 461.597C1071.89 461.084 1071.9 460.235 1071.37 459.705L1070.15 458.479C1069.77 458.1 1069.69 457.514 1069.97 457.053C1070.63 455.934 1071.13 454.729 1071.45 453.473C1071.59 452.955 1072.05 452.594 1072.59 452.594H1074.32C1075.06 452.594 1075.66 451.993 1075.66 451.255V448.745C1075.66 448.007 1075.06 447.406 1074.32 447.406H1072.59C1072.05 447.406 1071.59 447.045 1071.45 446.527C1071.13 445.271 1070.63 444.066 1069.97 442.947C1069.69 442.486 1069.77 441.9 1070.15 441.522L1071.37 440.296C1071.9 439.767 1071.89 438.918 1071.37 438.403L1069.6 436.628C1069.08 436.113 1068.23 436.098 1067.7 436.628L1066.48 437.854C1066.1 438.232 1065.51 438.306 1065.05 438.034C1063.93 437.372 1062.73 436.872 1061.47 436.547C1060.96 436.414 1060.59 435.947 1060.59 435.413V433.682C1060.59 432.944 1059.99 432.344 1059.26 432.344H1056.74C1056.01 432.344 1055.41 432.944 1055.41 433.682V435.413C1055.41 435.947 1055.04 436.414 1054.53 436.547C1053.27 436.872 1052.07 437.372 1050.95 438.034C1050.49 438.306 1049.9 438.232 1049.52 437.854L1048.3 436.628C1047.77 436.099 1046.92 436.111 1046.4 436.627L1044.63 438.403C1044.11 438.916 1044.1 439.765 1044.63 440.295L1045.85 441.521C1046.23 441.9 1046.31 442.486 1046.03 442.947C1045.37 444.066 1044.87 445.271 1044.55 446.527C1044.41 447.045 1043.95 447.406 1043.41 447.406H1041.68C1040.94 447.406 1040.34 448.007 1040.34 448.745V451.255C1040.34 451.993 1040.94 452.594 1041.68 452.594H1043.41C1043.95 452.594 1044.41 452.955 1044.55 453.473C1044.87 454.729 1045.37 455.934 1046.03 457.053C1046.31 457.514 1046.23 458.1 1045.85 458.478L1044.63 459.704C1044.1 460.233 1044.11 461.082 1044.63 461.597L1046.4 463.372C1046.92 463.887 1047.77 463.903 1048.3 463.373L1049.52 462.146C1049.8 461.868 1050.38 461.631 1050.95 461.966Z" fill="#007BFF"/>
<path d="M1058 458.703C1053.2 458.703 1049.3 454.799 1049.3 450C1049.3 445.201 1053.2 441.297 1058 441.297C1062.8 441.297 1066.7 445.201 1066.7 450C1066.7 454.799 1062.8 458.703 1058 458.703ZM1058 443.641C1054.49 443.641 1051.64 446.493 1051.64 450C1051.64 453.507 1054.49 456.359 1058 456.359C1061.51 456.359 1064.36 453.507 1064.36 450C1064.36 446.493 1061.51 443.641 1058 443.641Z" fill="#007BFF"/>
<path d="M1057 96.5273C1044.98 96.5273 1038.36 102.213 1038.36 112.537C1038.36 113.343 1039.02 113.997 1039.82 113.997H1074.18C1074.98 113.997 1075.64 113.343 1075.64 112.537C1075.64 102.214 1069.02 96.5273 1057 96.5273ZM1041.34 111.077C1041.91 103.358 1047.17 99.4471 1057 99.4471C1066.83 99.4471 1072.09 103.358 1072.67 111.077H1041.34Z" fill="#274867"/>
<path d="M1057 74C1051.48 74 1047.32 78.2467 1047.32 83.8779C1047.32 89.674 1051.66 94.3888 1057 94.3888C1062.34 94.3888 1066.68 89.674 1066.68 83.8784C1066.68 78.2467 1062.52 74 1057 74ZM1057 91.4696C1053.27 91.4696 1050.24 88.0642 1050.24 83.8784C1050.24 79.8463 1053.08 76.9197 1057 76.9197C1060.86 76.9197 1063.76 79.9109 1063.76 83.8784C1063.76 88.0642 1060.73 91.4696 1057 91.4696Z" fill="#274867"/>
<path d="M1058 376.527C1045.98 376.527 1039.36 382.213 1039.36 392.537C1039.36 393.343 1040.02 393.997 1040.82 393.997H1075.18C1075.98 393.997 1076.64 393.343 1076.64 392.537C1076.64 382.214 1070.02 376.527 1058 376.527ZM1042.34 391.077C1042.91 383.358 1048.17 379.447 1058 379.447C1067.83 379.447 1073.09 383.358 1073.67 391.077H1042.34Z" fill="#007BFF"/>
<path d="M1058 354C1052.48 354 1048.32 358.247 1048.32 363.878C1048.32 369.674 1052.66 374.389 1058 374.389C1063.34 374.389 1067.68 369.674 1067.68 363.878C1067.68 358.247 1063.52 354 1058 354ZM1058 371.47C1054.27 371.47 1051.24 368.064 1051.24 363.878C1051.24 359.846 1054.08 356.92 1058 356.92C1061.86 356.92 1064.76 359.911 1064.76 363.878C1064.76 368.064 1061.73 371.47 1058 371.47Z" fill="#007BFF"/>
<path d="M1066.46 545H1041.13C1040.58 545 1040.14 544.558 1040.14 544.013V513.615C1040.14 513.07 1040.58 512.628 1041.13 512.628H1066.46C1067.01 512.628 1067.45 513.07 1067.45 513.615V515.56H1069.95C1070.49 515.56 1070.93 516.002 1070.93 516.548C1070.93 517.093 1070.49 517.535 1069.95 517.535H1067.45V520.079H1068.68C1069.23 520.079 1069.67 520.521 1069.67 521.066C1069.67 521.611 1069.23 522.053 1068.68 522.053H1067.45V524.597H1069.95C1070.49 524.597 1070.93 525.039 1070.93 525.584C1070.93 526.129 1070.49 526.571 1069.95 526.571H1067.45V529.115H1068.68C1069.23 529.115 1069.67 529.557 1069.67 530.102C1069.67 530.647 1069.23 531.089 1068.68 531.089H1067.45V544.013C1067.45 544.558 1067.01 545 1066.46 545ZM1042.12 543.026H1065.47V514.602H1042.12V543.026ZM1058.52 541.186C1055.98 541.186 1053.92 539.12 1053.92 536.581C1053.92 534.042 1055.98 531.977 1058.52 531.977C1061.06 531.977 1063.13 534.042 1063.13 536.581C1063.13 539.12 1061.06 541.186 1058.52 541.186ZM1058.52 533.951C1057.07 533.951 1055.89 535.131 1055.89 536.581C1055.89 538.031 1057.07 539.211 1058.52 539.211C1059.97 539.211 1061.15 538.031 1061.15 536.581C1061.15 535.131 1059.97 533.951 1058.52 533.951ZM1074.87 537.372H1070.35C1069.81 537.372 1069.37 536.93 1069.37 536.385C1069.37 535.84 1069.81 535.398 1070.35 535.398H1073.88V506.974H1050.53V510.097C1050.53 510.643 1050.08 511.085 1049.54 511.085C1048.99 511.085 1048.55 510.643 1048.55 510.097V505.987C1048.55 505.442 1048.99 505 1049.54 505H1074.87C1075.41 505 1075.86 505.442 1075.86 505.987V536.385C1075.86 536.93 1075.41 537.372 1074.87 537.372ZM1050.98 534.031H1046.17C1045.63 534.031 1045.18 533.589 1045.18 533.044C1045.18 532.498 1045.63 532.056 1046.17 532.056H1050.98C1051.52 532.056 1051.97 532.498 1051.97 533.044C1051.97 533.589 1051.52 534.031 1050.98 534.031ZM1061.42 529.661H1046.17C1045.63 529.661 1045.18 529.219 1045.18 528.674C1045.18 528.128 1045.63 527.686 1046.17 527.686H1061.42C1061.97 527.686 1062.41 528.128 1062.41 528.674C1062.41 529.219 1061.97 529.661 1061.42 529.661ZM1061.42 525.291H1046.17C1045.63 525.291 1045.18 524.849 1045.18 524.304C1045.18 523.758 1045.63 523.316 1046.17 523.316H1061.42C1061.97 523.316 1062.41 523.758 1062.41 524.304C1062.41 524.849 1061.97 525.291 1061.42 525.291ZM1050.98 520.921H1046.17C1045.63 520.921 1045.18 520.479 1045.18 519.934C1045.18 519.388 1045.63 518.946 1046.17 518.946H1050.98C1051.52 518.946 1051.97 519.388 1051.97 519.934C1051.97 520.479 1051.52 520.921 1050.98 520.921Z" fill="#007BFF"/>
<path d="M1093.72 383.18V380.156H1094.37C1095.42 380.156 1096.18 379.688 1096.64 378.752C1097.12 377.792 1097.37 376.16 1097.39 373.856L1097.68 356.72H1111.22V383H1107.98V359.672H1100.88L1100.63 373.856C1100.58 377.072 1100.07 379.436 1099.08 380.948C1098.12 382.436 1096.61 383.18 1094.55 383.18H1093.72ZM1128.48 383.36C1126.83 383.36 1125.49 382.796 1124.49 381.668C1123.48 380.54 1122.97 379.064 1122.97 377.24V374.252H1119.81V383H1116.82V363.2H1119.81V371.66H1122.97V368.96C1122.97 367.112 1123.47 365.636 1124.45 364.532C1125.46 363.404 1126.8 362.84 1128.48 362.84C1130.26 362.84 1131.69 363.404 1132.77 364.532C1133.85 365.636 1134.39 367.112 1134.39 368.96V377.24C1134.39 379.064 1133.85 380.54 1132.77 381.668C1131.69 382.796 1130.26 383.36 1128.48 383.36ZM1128.48 380.84C1129.39 380.84 1130.1 380.528 1130.61 379.904C1131.13 379.256 1131.4 378.368 1131.4 377.24V368.96C1131.4 367.832 1131.13 366.956 1130.61 366.332C1130.1 365.684 1129.39 365.36 1128.48 365.36C1127.59 365.36 1126.9 365.684 1126.39 366.332C1125.89 366.956 1125.64 367.832 1125.64 368.96V377.24C1125.64 378.368 1125.89 379.256 1126.39 379.904C1126.9 380.528 1127.59 380.84 1128.48 380.84ZM1137.25 388.04V380.228H1138.87C1139.28 379.82 1139.7 379.016 1140.13 377.816C1140.59 376.616 1140.83 375.092 1140.85 373.244L1141.07 363.2H1153.99V380.228H1156.51V388.04H1153.63V383H1140.13V388.04H1137.25ZM1142.29 380.228H1150.75V366.08H1144.13L1143.98 373.316C1143.96 375.212 1143.76 376.748 1143.37 377.924C1142.99 379.1 1142.63 379.868 1142.29 380.228ZM1161.14 383V363.2H1164.24V374C1164.24 375.032 1164.19 376.136 1164.09 377.312C1164.02 378.488 1163.94 379.424 1163.84 380.12L1171.83 363.2H1175.97V383H1172.88V372.2C1172.88 371.144 1172.91 370.028 1172.99 368.852C1173.08 367.676 1173.18 366.74 1173.27 366.044L1165.28 383H1161.14ZM1204.31 383V363.2H1207.55V371.444H1215.91V363.2H1219.15V383H1215.91V374.396H1207.55V383H1204.31ZM1233.32 383.36C1231.76 383.36 1230.39 383.048 1229.21 382.424C1228.06 381.8 1227.16 380.924 1226.51 379.796C1225.89 378.644 1225.58 377.312 1225.58 375.8V370.4C1225.58 368.864 1225.89 367.532 1226.51 366.404C1227.16 365.276 1228.06 364.4 1229.21 363.776C1230.39 363.152 1231.76 362.84 1233.32 362.84C1234.88 362.84 1236.23 363.152 1237.38 363.776C1238.56 364.4 1239.46 365.276 1240.08 366.404C1240.73 367.532 1241.06 368.864 1241.06 370.4V373.892H1228.74V375.8C1228.74 377.36 1229.14 378.56 1229.93 379.4C1230.72 380.216 1231.85 380.624 1233.32 380.624C1234.56 380.624 1235.57 380.408 1236.34 379.976C1237.11 379.52 1237.58 378.848 1237.74 377.96H1240.98C1240.77 379.616 1239.95 380.936 1238.54 381.92C1237.14 382.88 1235.4 383.36 1233.32 383.36ZM1228.74 371.444H1237.89V370.4C1237.89 368.84 1237.49 367.64 1236.7 366.8C1235.93 365.96 1234.8 365.54 1233.32 365.54C1231.85 365.54 1230.72 365.96 1229.93 366.8C1229.14 367.64 1228.74 368.84 1228.74 370.4V371.444ZM1269 383V363.2H1277.5C1279.49 363.2 1281.06 363.656 1282.21 364.568C1283.36 365.456 1283.94 366.668 1283.94 368.204C1283.94 369.428 1283.56 370.424 1282.79 371.192C1282.02 371.936 1280.98 372.332 1279.66 372.38V372.524C1281.14 372.548 1282.33 373.004 1283.22 373.892C1284.13 374.78 1284.59 375.956 1284.59 377.42C1284.59 379.124 1283.98 380.48 1282.75 381.488C1281.53 382.496 1279.87 383 1277.78 383H1269ZM1272.17 371.48H1277.5C1278.5 371.48 1279.3 371.24 1279.87 370.76C1280.45 370.28 1280.74 369.608 1280.74 368.744C1280.74 367.904 1280.45 367.244 1279.87 366.764C1279.3 366.284 1278.5 366.044 1277.5 366.044H1272.17V371.48ZM1272.17 380.156H1277.78C1278.91 380.156 1279.79 379.892 1280.41 379.364C1281.06 378.836 1281.38 378.092 1281.38 377.132C1281.38 376.196 1281.06 375.464 1280.41 374.936C1279.79 374.408 1278.91 374.144 1277.78 374.144H1272.17V380.156ZM1290.66 383V363.2H1293.75V374C1293.75 375.032 1293.71 376.136 1293.61 377.312C1293.54 378.488 1293.45 379.424 1293.36 380.12L1301.35 363.2H1305.49V383H1302.39V372.2C1302.39 371.144 1302.43 370.028 1302.5 368.852C1302.6 367.676 1302.69 366.74 1302.79 366.044L1294.8 383H1290.66ZM1309.94 388.04V380.228H1311.56C1311.97 379.82 1312.39 379.016 1312.82 377.816C1313.28 376.616 1313.52 375.092 1313.54 373.244L1313.76 363.2H1326.68V380.228H1329.2V388.04H1326.32V383H1312.82V388.04H1309.94ZM1314.98 380.228H1323.44V366.08H1316.82L1316.67 373.316C1316.65 375.212 1316.44 376.748 1316.06 377.924C1315.68 379.1 1315.32 379.868 1314.98 380.228ZM1332.61 383L1337.68 375.368C1336.17 375.008 1334.99 374.312 1334.15 373.28C1333.34 372.248 1332.93 370.964 1332.93 369.428C1332.93 367.484 1333.57 365.96 1334.84 364.856C1336.13 363.752 1337.9 363.2 1340.13 363.2H1348.66V383H1345.42V375.62H1341.07L1336.39 383H1332.61ZM1340.13 372.74H1345.42V366.08H1340.13C1338.93 366.08 1337.98 366.38 1337.29 366.98C1336.59 367.556 1336.24 368.372 1336.24 369.428C1336.24 370.46 1336.59 371.276 1337.29 371.876C1337.98 372.452 1338.93 372.74 1340.13 372.74ZM1361.21 383V366.044H1354.01V363.2H1371.65V366.044H1364.45V383H1361.21Z" fill="#007BFF"/>
<path d="M1101.8 459.36C1100.12 459.36 1098.64 459.072 1097.37 458.496C1096.1 457.896 1095.12 457.08 1094.42 456.048C1093.72 454.992 1093.38 453.78 1093.38 452.412C1093.38 450.924 1093.84 449.544 1094.78 448.272C1095.74 446.976 1097.01 445.968 1098.6 445.248C1097.04 444.48 1095.87 443.568 1095.1 442.512C1094.34 441.432 1093.95 440.28 1093.95 439.056C1093.95 437.736 1094.29 436.572 1094.96 435.564C1095.66 434.556 1096.59 433.764 1097.77 433.188C1098.94 432.612 1100.29 432.324 1101.8 432.324C1103.31 432.324 1104.66 432.612 1105.83 433.188C1107.03 433.764 1107.97 434.556 1108.64 435.564C1109.31 436.572 1109.65 437.736 1109.65 439.056C1109.65 440.256 1109.26 441.396 1108.5 442.476C1107.73 443.532 1106.56 444.456 1105 445.248C1106.59 445.968 1107.85 446.976 1108.78 448.272C1109.74 449.544 1110.22 450.924 1110.22 452.412C1110.22 453.78 1109.88 454.992 1109.18 456.048C1108.48 457.08 1107.5 457.896 1106.23 458.496C1104.98 459.072 1103.5 459.36 1101.8 459.36ZM1100.76 443.628L1101.8 444.024L1102.7 443.664C1103.83 443.232 1104.74 442.62 1105.44 441.828C1106.13 441.012 1106.48 440.124 1106.48 439.164C1106.48 437.988 1106.05 437.04 1105.18 436.32C1104.32 435.576 1103.19 435.204 1101.8 435.204C1100.41 435.204 1099.28 435.576 1098.42 436.32C1097.55 437.064 1097.12 438.012 1097.12 439.164C1097.12 440.148 1097.46 441.036 1098.13 441.828C1098.8 442.62 1099.68 443.22 1100.76 443.628ZM1101.8 456.48C1103.38 456.48 1104.66 456.072 1105.62 455.256C1106.58 454.416 1107.06 453.324 1107.06 451.98C1107.06 450.924 1106.73 449.976 1106.08 449.136C1105.44 448.272 1104.52 447.612 1103.35 447.156L1101.8 446.544L1100.14 447.192C1098.99 447.648 1098.1 448.308 1097.48 449.172C1096.86 450.012 1096.54 450.948 1096.54 451.98C1096.54 453.324 1097.02 454.416 1097.98 455.256C1098.94 456.072 1100.22 456.48 1101.8 456.48ZM1123.39 459.36C1120.96 459.36 1119.03 458.664 1117.59 457.272C1116.17 455.856 1115.47 453.972 1115.47 451.62V440.1C1115.47 437.748 1116.17 435.876 1117.59 434.484C1119.03 433.068 1120.96 432.36 1123.39 432.36C1125.81 432.36 1127.73 433.068 1129.15 434.484C1130.59 435.876 1131.31 437.748 1131.31 440.1V451.62C1131.31 453.18 1130.98 454.548 1130.33 455.724C1129.69 456.876 1128.76 457.776 1127.56 458.424C1126.39 459.048 1124.99 459.36 1123.39 459.36ZM1123.39 456.588C1124.83 456.588 1125.98 456.132 1126.84 455.22C1127.73 454.284 1128.17 453.084 1128.17 451.62V440.1C1128.17 438.636 1127.73 437.448 1126.84 436.536C1125.98 435.6 1124.83 435.132 1123.39 435.132C1121.95 435.132 1120.78 435.6 1119.89 436.536C1119.03 437.448 1118.6 438.636 1118.6 440.1V451.62C1118.6 453.084 1119.03 454.284 1119.89 455.22C1120.78 456.132 1121.95 456.588 1123.39 456.588ZM1123.39 447.984C1122.74 447.984 1122.21 447.78 1121.8 447.372C1121.42 446.964 1121.23 446.424 1121.23 445.752C1121.23 445.104 1121.42 444.588 1121.8 444.204C1122.21 443.796 1122.74 443.592 1123.39 443.592C1124.03 443.592 1124.55 443.796 1124.93 444.204C1125.34 444.588 1125.55 445.104 1125.55 445.752C1125.55 446.424 1125.34 446.964 1124.93 447.372C1124.55 447.78 1124.03 447.984 1123.39 447.984ZM1139.75 444.6C1138.24 444.6 1137.03 444.168 1136.12 443.304C1135.2 442.44 1134.75 441.252 1134.75 439.74V437.4C1134.75 435.888 1135.2 434.7 1136.12 433.836C1137.03 432.972 1138.24 432.54 1139.75 432.54C1141.26 432.54 1142.48 432.972 1143.39 433.836C1144.3 434.7 1144.76 435.888 1144.76 437.4V439.74C1144.76 441.252 1144.3 442.44 1143.39 443.304C1142.48 444.168 1141.26 444.6 1139.75 444.6ZM1134.68 459L1152.6 432.72H1155.27L1137.34 459H1134.68ZM1139.75 442.152C1141.31 442.152 1142.09 441.348 1142.09 439.74V437.4C1142.09 435.792 1141.31 434.988 1139.75 434.988C1138.19 434.988 1137.41 435.792 1137.41 437.4V439.74C1137.41 441.348 1138.19 442.152 1139.75 442.152ZM1150.19 459.18C1148.68 459.18 1147.47 458.748 1146.56 457.884C1145.64 457.02 1145.19 455.832 1145.19 454.32V451.98C1145.19 450.468 1145.64 449.28 1146.56 448.416C1147.47 447.552 1148.68 447.12 1150.19 447.12C1151.7 447.12 1152.92 447.552 1153.83 448.416C1154.74 449.28 1155.2 450.468 1155.2 451.98V454.32C1155.2 455.832 1154.74 457.02 1153.83 457.884C1152.92 458.748 1151.7 459.18 1150.19 459.18ZM1150.19 456.696C1151.75 456.696 1152.53 455.904 1152.53 454.32V451.98C1152.53 450.372 1151.75 449.568 1150.19 449.568C1148.63 449.568 1147.85 450.372 1147.85 451.98V454.32C1147.85 455.904 1148.63 456.696 1150.19 456.696ZM1183.75 465.48L1186.67 457.776L1179.32 439.2H1182.92L1187.53 451.44C1187.7 451.848 1187.86 452.34 1188 452.916C1188.14 453.468 1188.26 453.936 1188.36 454.32C1188.46 453.936 1188.58 453.468 1188.72 452.916C1188.86 452.34 1189.01 451.848 1189.15 451.44L1193.47 439.2H1196.96L1187.21 465.48H1183.75ZM1209.8 459.36C1207.4 459.36 1205.48 458.688 1204.04 457.344C1202.63 456 1201.92 454.152 1201.92 451.8V446.4C1201.92 444.048 1202.63 442.2 1204.04 440.856C1205.48 439.512 1207.4 438.84 1209.8 438.84C1212.08 438.84 1213.92 439.452 1215.31 440.676C1216.7 441.9 1217.43 443.568 1217.51 445.68H1214.27C1214.19 444.408 1213.76 443.436 1212.97 442.764C1212.2 442.068 1211.15 441.72 1209.8 441.72C1208.39 441.72 1207.26 442.128 1206.42 442.944C1205.58 443.736 1205.16 444.876 1205.16 446.364V451.8C1205.16 453.288 1205.58 454.44 1206.42 455.256C1207.26 456.072 1208.39 456.48 1209.8 456.48C1211.15 456.48 1212.2 456.132 1212.97 455.436C1213.76 454.74 1214.19 453.768 1214.27 452.52H1217.51C1217.43 454.632 1216.7 456.3 1215.31 457.524C1213.92 458.748 1212.08 459.36 1209.8 459.36ZM1223.9 459V439.2H1227V450C1227 451.032 1226.95 452.136 1226.85 453.312C1226.78 454.488 1226.7 455.424 1226.6 456.12L1234.59 439.2H1238.73V459H1235.64V448.2C1235.64 447.144 1235.67 446.028 1235.74 444.852C1235.84 443.676 1235.94 442.74 1236.03 442.044L1228.04 459H1223.9ZM1243 459.252V456.228H1243.65C1244.75 456.228 1245.52 455.796 1245.95 454.932C1246.41 454.068 1246.65 452.52 1246.67 450.288L1246.89 439.2H1260.32V459H1257.08V442.152H1250.09L1249.91 450.432C1249.84 453.576 1249.34 455.832 1248.4 457.2C1247.47 458.568 1245.94 459.252 1243.83 459.252H1243ZM1267.07 459V439.2H1270.17V450C1270.17 451.032 1270.12 452.136 1270.02 453.312C1269.95 454.488 1269.87 455.424 1269.77 456.12L1277.76 439.2H1281.9V459H1278.81V448.2C1278.81 447.144 1278.84 446.028 1278.92 444.852C1279.01 443.676 1279.11 442.74 1279.2 442.044L1271.21 459H1267.07ZM1288.66 459V439.2H1291.75V450C1291.75 451.032 1291.71 452.136 1291.61 453.312C1291.54 454.488 1291.45 455.424 1291.36 456.12L1299.35 439.2H1303.49V459H1300.39V448.2C1300.39 447.144 1300.43 446.028 1300.5 444.852C1300.6 443.676 1300.69 442.74 1300.79 442.044L1292.8 459H1288.66ZM1296.07 435.96C1294.35 435.96 1292.95 435.48 1291.9 434.52C1290.84 433.56 1290.31 432.3 1290.31 430.74H1292.87C1292.87 431.676 1293.16 432.432 1293.73 433.008C1294.31 433.584 1295.08 433.872 1296.04 433.872C1297.02 433.872 1297.8 433.584 1298.38 433.008C1298.98 432.432 1299.28 431.676 1299.28 430.74H1301.83C1301.83 432.3 1301.31 433.56 1300.25 434.52C1299.19 435.48 1297.8 435.96 1296.07 435.96Z" fill="#007BFF"/>
<path d="M1096.38 534V507.72H1111.22V534H1107.98V510.672H1099.62V534H1096.38ZM1125.39 534.288C1122.99 534.288 1121.09 533.616 1119.7 532.272C1118.33 530.904 1117.65 529.056 1117.65 526.728V521.472C1117.65 519.12 1118.33 517.272 1119.7 515.928C1121.09 514.584 1122.99 513.912 1125.39 513.912C1127.79 513.912 1129.67 514.584 1131.04 515.928C1132.43 517.272 1133.13 519.108 1133.13 521.436V526.728C1133.13 529.056 1132.43 530.904 1131.04 532.272C1129.67 533.616 1127.79 534.288 1125.39 534.288ZM1125.39 531.408C1126.8 531.408 1127.91 531.012 1128.7 530.22C1129.49 529.428 1129.89 528.264 1129.89 526.728V521.472C1129.89 519.936 1129.49 518.772 1128.7 517.98C1127.91 517.188 1126.8 516.792 1125.39 516.792C1123.99 516.792 1122.89 517.188 1122.07 517.98C1121.28 518.772 1120.89 519.936 1120.89 521.472V526.728C1120.89 528.264 1121.28 529.428 1122.07 530.22C1122.89 531.012 1123.99 531.408 1125.39 531.408ZM1139.48 534V514.2H1147.98C1149.97 514.2 1151.54 514.656 1152.7 515.568C1153.85 516.456 1154.42 517.668 1154.42 519.204C1154.42 520.428 1154.04 521.424 1153.27 522.192C1152.5 522.936 1151.46 523.332 1150.14 523.38V523.524C1151.63 523.548 1152.82 524.004 1153.7 524.892C1154.62 525.78 1155.07 526.956 1155.07 528.42C1155.07 530.124 1154.46 531.48 1153.24 532.488C1152.01 533.496 1150.36 534 1148.27 534H1139.48ZM1142.65 522.48H1147.98C1148.99 522.48 1149.78 522.24 1150.36 521.76C1150.93 521.28 1151.22 520.608 1151.22 519.744C1151.22 518.904 1150.93 518.244 1150.36 517.764C1149.78 517.284 1148.99 517.044 1147.98 517.044H1142.65V522.48ZM1142.65 531.156H1148.27C1149.4 531.156 1150.27 530.892 1150.9 530.364C1151.54 529.836 1151.87 529.092 1151.87 528.132C1151.87 527.196 1151.54 526.464 1150.9 525.936C1150.27 525.408 1149.4 525.144 1148.27 525.144H1142.65V531.156ZM1166.94 534V517.044H1159.74V514.2H1177.38V517.044H1170.18V534H1166.94ZM1190.14 534.288C1187.74 534.288 1185.85 533.616 1184.46 532.272C1183.09 530.904 1182.4 529.056 1182.4 526.728V521.472C1182.4 519.12 1183.09 517.272 1184.46 515.928C1185.85 514.584 1187.74 513.912 1190.14 513.912C1192.54 513.912 1194.43 514.584 1195.8 515.928C1197.19 517.272 1197.88 519.108 1197.88 521.436V526.728C1197.88 529.056 1197.19 530.904 1195.8 532.272C1194.43 533.616 1192.54 534.288 1190.14 534.288ZM1190.14 531.408C1191.56 531.408 1192.66 531.012 1193.46 530.22C1194.25 529.428 1194.64 528.264 1194.64 526.728V521.472C1194.64 519.936 1194.25 518.772 1193.46 517.98C1192.66 517.188 1191.56 516.792 1190.14 516.792C1188.75 516.792 1187.65 517.188 1186.83 517.98C1186.04 518.772 1185.64 519.936 1185.64 521.472V526.728C1185.64 528.264 1186.04 529.428 1186.83 530.22C1187.65 531.012 1188.75 531.408 1190.14 531.408ZM1204.24 540.48V514.2H1207.48V517.98H1207.52C1207.69 516.684 1208.25 515.676 1209.21 514.956C1210.19 514.212 1211.43 513.84 1212.92 513.84C1214.91 513.84 1216.49 514.5 1217.67 515.82C1218.87 517.116 1219.47 518.904 1219.47 521.184V526.98C1219.47 529.26 1218.87 531.06 1217.67 532.38C1216.49 533.7 1214.91 534.36 1212.92 534.36C1211.43 534.36 1210.21 533.988 1209.25 533.244C1208.29 532.5 1207.71 531.492 1207.52 530.22H1207.41L1207.48 534.72V540.48H1204.24ZM1211.84 531.552C1213.21 531.552 1214.27 531.144 1215.04 530.328C1215.83 529.512 1216.23 528.336 1216.23 526.8V521.4C1216.23 519.864 1215.83 518.688 1215.04 517.872C1214.27 517.056 1213.21 516.648 1211.84 516.648C1210.52 516.648 1209.46 517.068 1208.67 517.908C1207.88 518.748 1207.48 519.912 1207.48 521.4V526.8C1207.48 528.288 1207.88 529.452 1208.67 530.292C1209.46 531.132 1210.52 531.552 1211.84 531.552ZM1224.68 534L1229.75 526.368C1228.24 526.008 1227.06 525.312 1226.22 524.28C1225.41 523.248 1225 521.964 1225 520.428C1225 518.484 1225.64 516.96 1226.91 515.856C1228.2 514.752 1229.97 514.2 1232.2 514.2H1240.73V534H1237.49V526.62H1233.14L1228.46 534H1224.68ZM1232.2 523.74H1237.49V517.08H1232.2C1231 517.08 1230.05 517.38 1229.36 517.98C1228.66 518.556 1228.31 519.372 1228.31 520.428C1228.31 521.46 1228.66 522.276 1229.36 522.876C1230.05 523.452 1231 523.74 1232.2 523.74ZM1258 534.36C1256.34 534.36 1255.01 533.796 1254 532.668C1252.99 531.54 1252.49 530.064 1252.49 528.24V525.252H1249.32V534H1246.33V514.2H1249.32V522.66H1252.49V519.96C1252.49 518.112 1252.98 516.636 1253.97 515.532C1254.97 514.404 1256.32 513.84 1258 513.84C1259.77 513.84 1261.2 514.404 1262.28 515.532C1263.36 516.636 1263.9 518.112 1263.9 519.96V528.24C1263.9 530.064 1263.36 531.54 1262.28 532.668C1261.2 533.796 1259.77 534.36 1258 534.36ZM1258 531.84C1258.91 531.84 1259.62 531.528 1260.12 530.904C1260.65 530.256 1260.91 529.368 1260.91 528.24V519.96C1260.91 518.832 1260.65 517.956 1260.12 517.332C1259.62 516.684 1258.91 516.36 1258 516.36C1257.11 516.36 1256.41 516.684 1255.91 517.332C1255.41 517.956 1255.15 518.832 1255.15 519.96V528.24C1255.15 529.368 1255.41 530.256 1255.91 530.904C1256.41 531.528 1257.11 531.84 1258 531.84ZM1283.51 539.04V534H1267.99V514.2H1270.91V531.264H1275.08V514.2H1277.6V531.264H1281.78V514.2H1284.7V531.264H1286.39V539.04H1283.51ZM1290.66 534V514.2H1293.75V525C1293.75 526.032 1293.71 527.136 1293.61 528.312C1293.54 529.488 1293.45 530.424 1293.36 531.12L1301.35 514.2H1305.49V534H1302.39V523.2C1302.39 522.144 1302.43 521.028 1302.5 519.852C1302.6 518.676 1302.69 517.74 1302.79 517.044L1294.8 534H1290.66ZM1312.24 534V514.2H1315.34V525C1315.34 526.032 1315.29 527.136 1315.2 528.312C1315.12 529.488 1315.04 530.424 1314.94 531.12L1322.94 514.2H1327.08V534H1323.98V523.2C1323.98 522.144 1324.02 521.028 1324.09 519.852C1324.18 518.676 1324.28 517.74 1324.38 517.044L1316.38 534H1312.24ZM1319.66 510.96C1317.93 510.96 1316.54 510.48 1315.48 509.52C1314.43 508.56 1313.9 507.3 1313.9 505.74H1316.46C1316.46 506.676 1316.74 507.432 1317.32 508.008C1317.9 508.584 1318.66 508.872 1319.62 508.872C1320.61 508.872 1321.39 508.584 1321.96 508.008C1322.56 507.432 1322.86 506.676 1322.86 505.74H1325.42C1325.42 507.3 1324.89 508.56 1323.84 509.52C1322.78 510.48 1321.39 510.96 1319.66 510.96ZM1341.32 534.36C1338.92 534.36 1337 533.688 1335.56 532.344C1334.14 531 1333.43 529.152 1333.43 526.8V521.4C1333.43 519.048 1334.14 517.2 1335.56 515.856C1337 514.512 1338.92 513.84 1341.32 513.84C1343.6 513.84 1345.43 514.452 1346.83 515.676C1348.22 516.9 1348.95 518.568 1349.02 520.68H1345.78C1345.71 519.408 1345.28 518.436 1344.49 517.764C1343.72 517.068 1342.66 516.72 1341.32 516.72C1339.9 516.72 1338.77 517.128 1337.93 517.944C1337.09 518.736 1336.67 519.876 1336.67 521.364V526.8C1336.67 528.288 1337.09 529.44 1337.93 530.256C1338.77 531.072 1339.9 531.48 1341.32 531.48C1342.66 531.48 1343.72 531.132 1344.49 530.436C1345.28 529.74 1345.71 528.768 1345.78 527.52H1349.02C1348.95 529.632 1348.22 531.3 1346.83 532.524C1345.43 533.748 1343.6 534.36 1341.32 534.36ZM1354.19 534L1359.27 526.368C1357.76 526.008 1356.58 525.312 1355.74 524.28C1354.92 523.248 1354.52 521.964 1354.52 520.428C1354.52 518.484 1355.15 516.96 1356.42 515.856C1357.72 514.752 1359.48 514.2 1361.72 514.2H1370.25V534H1367.01V526.62H1362.65L1357.97 534H1354.19ZM1361.72 523.74H1367.01V517.08H1361.72C1360.52 517.08 1359.57 517.38 1358.87 517.98C1358.18 518.556 1357.83 519.372 1357.83 520.428C1357.83 521.46 1358.18 522.276 1358.87 522.876C1359.57 523.452 1360.52 523.74 1361.72 523.74Z" fill="#007BFF"/>
</g>
<defs>
<clipPath id="clip0">
<rect width="1474" height="643" fill="white"/>
</clipPath>
</defs>
</svg>
