<svg fill="none" height="819" viewBox="0 0 1600 819" width="1600" xmlns="http://www.w3.org/2000/svg"><path d="m1080 50h-1054v724h1054z" fill="#007bff" opacity=".12"/><path d="m1038 120h-962v152h962z" stroke="#007bff" stroke-miterlimit="10" stroke-width="4"/><path d="m1038 333h-962v361h962z" fill="#fff"/><path d="m990 394h-859.4v216h859.4z" stroke="#007bff" stroke-miterlimit="10" stroke-width="4"/><path d="m734 170h-593.3v50h593.3z" stroke="#007bff" stroke-miterlimit="10" stroke-width="4"/><path d="m953.6 425.8h-786.9v57.9h786.9z" stroke="#007bff" stroke-miterlimit="10" stroke-width="4"/><path d="m953.6 524.1h-786.9v57.9h786.9z" stroke="#007bff" stroke-miterlimit="10" stroke-width="4"/><path d="m1496.2 300h-163.4v242h163.4z" fill="#082e51"/><path d="m1414.5 288.8c46.61 0 84.4-37.787 84.4-84.4s-37.79-84.4-84.4-84.4-84.4 37.787-84.4 84.4 37.79 84.4 84.4 84.4z" stroke="#007bff" stroke-miterlimit="10" stroke-width="4"/><path d="m1324.1 333h-49.5v143.1h49.5z" fill="#007bff" opacity=".12"/><path d="m1554.5 333h-49.5v143.1h49.5z" fill="#007bff" opacity=".12"/><path d="m1402.6 553h-59.6v143.1h59.6z" fill="#007bff" opacity=".12"/><path d="m1489.6 553h-59.6v143.1h59.6z" fill="#007bff" opacity=".12"/><path d="m44.7002 74.8999 12.3-6.3v1.8l-10.3 5.2v.1l10.3 5.1v1.8l-12.2-6.3v-1.4z" fill="#082e51"/><path d="m60.7002 63.8999h2.3v8c.4-.7 1-1.2 1.7-1.6s1.5-.7 2.4-.7c1.7 0 4.5 1.1 4.5 5.5v7.6h-2.3v-7.3c0-2.1-.8-3.8-3-3.8-1.5 0-2.7 1.1-3.1 2.3-.2.2-.2.6-.2 1v7.7h-2.3z" fill="#082e51"/><path d="m78.0001 66.2v3.7h3.3v1.8h-3.3v6.9c0 1.6.4 2.5 1.7 2.5.6 0 1.1-.1 1.3-.2l.1 1.7c-.4.2-1.2.3-2.1.3-1.1 0-2-.3-2.5-1-.7-.7-.9-1.8-.9-3.3v-7h-2v-1.8h2v-3.1z" fill="#082e51"/><path d="m83.9002 73.2999c0-1.3 0-2.4-.1-3.5h2l.1 2.1h.1c.7-1.2 1.9-2.3 4-2.3 1.7 0 3.1 1.1 3.6 2.6h.1c.4-.7.9-1.3 1.4-1.7.8-.6 1.6-.9 2.8-.9 1.7 0 4.1998 1.1 4.1998 5.5v7.5h-2.2998v-7.2c0-2.5-.9-3.9-2.8-3.9-1.3 0-2.3 1-2.7 2.1-.1.3-.2.7-.2 1.2v7.9h-2.3v-7.7c0-2-.9-3.5-2.7-3.5-1.5 0-2.5 1.2-2.9 2.3-.1.3-.2.7-.2 1.1v7.7h-2.3v-9.3z" fill="#082e51"/><path d="m106 63.8999h2.3v18.7h-2.3z" fill="#082e51"/><path d="m124.3 76.2999-12.3 6.3v-1.8l10.4-5.2v-.1l-10.4-5.1v-1.8l12.2 6.3v1.4z" fill="#082e51"/><path d="m1363.2 31.3999 12.2-6.3v1.8l-10.3 5.2v.1l10.3 5.2v1.8l-12.2-6.3z" fill="#082e51"/><path d="m1379.1 20.3999h2.3v8h.1c.4-.7.9-1.2 1.7-1.6.7-.4 1.5-.7 2.4-.7 1.7 0 4.5 1.1 4.5 5.5v7.6h-2.3v-7.3c0-2.1-.8-3.8-3-3.8-1.5 0-2.7 1.1-3.1 2.3-.1.3-.2.7-.2 1.1v7.7h-2.3v-18.8z" fill="#082e51"/><path d="m1396.4 22.7v3.7h3.3v1.8h-3.3v6.8c0 1.6.4 2.5 1.7 2.5.6 0 1.1-.1001 1.3-.2001l.1 1.7001c-.4.2-1.2.2999-2.1.2999-1.1 0-2-.3-2.5-1-.7-.7-.9-1.7999-.9-3.2999v-7h-2v-1.8h2v-3.1z" fill="#082e51"/><path d="m1402.4 29.7999c0-1.3 0-2.4-.1-3.5h2l.1 2.1h.1c.7-1.2 1.9-2.3 4-2.3 1.7 0 3.1 1.1 3.6 2.6h.1c.4-.7.9-1.3 1.4-1.7.8-.6 1.6-.9 2.8-.9 1.7 0 4.2 1.1 4.2 5.5v7.5h-2.3v-7.2c0-2.5-.9-3.9-2.8-3.9-1.3 0-2.3 1-2.7 2.1-.1.3-.2.7-.2 1.2v7.9h-2.3v-7.7c0-2-.9-3.5-2.7-3.5-1.5 0-2.5 1.2-2.9 2.3-.1.3-.2.7-.2 1.1v7.7h-2.3v-9.3z" fill="#082e51"/><path d="m1424.4 20.3999h2.3v18.7h-2.3z" fill="#082e51"/><path d="m1442.7 32.8-12.2 6.3v-1.8l10.4-5.2v-.1l-10.4-5.2v-1.8l12.2 6.3z" fill="#082e51"/><path d="m1357.2 776.9 12.2-6.3v1.8l-10.3 5.2v.1l10.3 5.2v1.8l-12.2-6.3z" fill="#082e51"/><path d="m1371.1 785.6 7.4-19.1h1.8l-7.4 19.1z" fill="#082e51"/><path d="m1382.1 765.8h2.3v8h.1c.4-.7 1-1.2 1.7-1.6s1.5-.7 2.4-.7c1.7 0 4.5 1.1 4.5 5.5v7.6h-2.3v-7.3c0-2.1-.8-3.8-3-3.8-1.5 0-2.7 1.1-3.1 2.3-.1.3-.2.7-.2 1.1v7.7h-2.3v-18.8z" fill="#082e51"/><path d="m1399.5 768.1v3.7h3.3v1.8h-3.3v6.9c0 1.6.4 2.5 1.7 2.5.6 0 1.1-.1 1.3-.2l.1 1.7c-.4.2-1.2.3-2.1.3-1.1 0-2-.3-2.5-1-.7-.7-.9-1.8-.9-3.3v-7h-2v-1.8h2v-3.1z" fill="#082e51"/><path d="m1405.4 775.3c0-1.3 0-2.4-.1-3.5h2l.1 2.1h.1c.7-1.2 1.9-2.3 4-2.3 1.7 0 3.1 1.1 3.6 2.6h.1c.4-.7.9-1.3 1.4-1.7.8-.6 1.6-.9 2.8-.9 1.7 0 4.2 1.1 4.2 5.5v7.5h-2.3v-7.2c0-2.5-.9-3.9-2.8-3.9-1.3 0-2.3 1-2.7 2.1-.1.3-.2.7-.2 1.2v7.9h-2.3v-7.7c0-2-.9-3.5-2.7-3.5-1.5 0-2.5 1.2-2.9 2.3-.1.3-.2.7-.2 1.1v7.7h-2.3v-9.3z" fill="#082e51"/><path d="m1427.4 765.8h2.3v18.7h-2.3z" fill="#082e51"/><path d="m1445.7 778.3-12.2 6.3v-1.8l10.4-5.2v-.1l-10.4-5.2v-1.8l12.2 6.3z" fill="#082e51"/><path d="m1364.7 145.3 12.2-6.3v1.8l-10.3 5.2v.1l10.3 5.2v1.8l-12.2-6.3z" fill="#082e51"/><path d="m1380.7 134.3h2.3v8h.1c.4-.7.9-1.2 1.7-1.6.7-.4 1.5-.7 2.4-.7 1.7 0 4.5 1.1 4.5 5.5v7.6h-2.3v-7.3c0-2.1-.8-3.8-3-3.8-1.5 0-2.7 1.1-3.1 2.3-.1.3-.2.7-.2 1.1v7.7h-2.3v-18.8z" fill="#082e51"/><path d="m1396.6 147.1c.1 3.1 2.1 4.4 4.4 4.4 1.7 0 2.7-.3 3.5-.7l.4 1.7c-.8.4-2.2.8-4.2.8-3.9 0-6.3-2.6-6.3-6.4s2.3-6.9 6-6.9c4.2 0 5.3 3.7 5.3 6 0 .5-.1.8-.1 1.1zm6.8-1.7c0-1.5-.6-3.8-3.2-3.8-2.3 0-3.4 2.2-3.6 3.8z" fill="#082e51"/><path d="m1415.6 153-.2-1.6h-.1c-.7 1-2.1 1.9-3.9 1.9-2.6 0-3.9-1.8-3.9-3.7 0-3.1 2.7-4.8 7.7-4.8v-.3c0-1.1-.3-3-2.9-3-1.2 0-2.4.4-3.3 1l-.5-1.5c1.1-.7 2.6-1.1 4.2-1.1 3.9 0 4.9 2.7 4.9 5.2v4.8c0 1.1.1 2.2.2 3.1zm-.3-6.5c-2.5-.1-5.4.4-5.4 2.9 0 1.5 1 2.2 2.2 2.2 1.7 0 2.7-1.1 3.1-2.1.1-.2.1-.5.1-.7z" fill="#082e51"/><path d="m1432.3 134.3v15.4c0 1.1 0 2.4.1 3.3h-2.1l-.1-2.2h-.1c-.7 1.4-2.3 2.5-4.4 2.5-3.1 0-5.5-2.6-5.5-6.5 0-4.2 2.6-6.9 5.7-6.9 2 0 3.3.9 3.9 2h.1v-7.6zm-2.3 11.2c0-.3 0-.7-.1-1-.3-1.5-1.6-2.7-3.4-2.7-2.4 0-3.8 2.1-3.8 4.9 0 2.6 1.3 4.7 3.8 4.7 1.6 0 3-1 3.4-2.8.1-.3.1-.6.1-1z" fill="#082e51"/><path d="m1448.2 146.8-12.2 6.2v-1.8l10.4-5.2-10.4-5.2v-1.8l12.2 6.3z" fill="#082e51"/><path d="m1370.7 264.3 12.2-6.3v1.8l-10.3 5.2v.1l10.3 5.2v1.8l-12.2-6.3z" fill="#082e51"/><path d="m1384.7 273.1 7.4-19.1h1.8l-7.4 19.1z" fill="#082e51"/><path d="m1395.7 253.3h2.3v8h.1c.4-.7.9-1.2 1.7-1.6.7-.4 1.5-.7 2.4-.7 1.7 0 4.5 1.1 4.5 5.5v7.6h-2.3v-7.3c0-2.1-.8-3.8-3-3.8-1.5 0-2.7 1.1-3.1 2.3-.1.3-.2.7-.2 1.1v7.7h-2.3v-18.8z" fill="#082e51"/><path d="m1411.7 266.1c.1 3.1 2.1 4.4 4.4 4.4 1.7 0 2.7-.3 3.5-.7l.4 1.7c-.8.4-2.2.8-4.2.8-3.9 0-6.3-2.6-6.3-6.4s2.3-6.9 6-6.9c4.2 0 5.3 3.7 5.3 6 0 .5-.1.8-.1 1.1zm6.8-1.7c0-1.5-.6-3.8-3.2-3.8-2.3 0-3.4 2.2-3.6 3.8z" fill="#082e51"/><path d="m1430.7 272-.2-1.6h-.1c-.7 1-2.1 1.9-3.9 1.9-2.6 0-3.9-1.8-3.9-3.7 0-3.1 2.7-4.8 7.7-4.8v-.3c0-1.1-.3-3-2.9-3-1.2 0-2.4.4-3.3 1l-.5-1.5c1.1-.7 2.6-1.1 4.2-1.1 3.9 0 4.9 2.7 4.9 5.2v4.8c0 1.1.1 2.2.2 3.1zm-.4-6.5c-2.5-.1-5.4.4-5.4 2.9 0 1.5 1 2.2 2.2 2.2 1.7 0 2.7-1.1 3.1-2.1.1-.2.1-.5.1-.7z" fill="#082e51"/><path d="m1447.4 253.3v15.4c0 1.1 0 2.4.1 3.3h-2.1l-.1-2.2h-.1c-.7 1.4-2.3 2.5-4.4 2.5-3.1 0-5.5-2.6-5.5-6.5 0-4.2 2.6-6.9 5.7-6.9 2 0 3.3.9 3.9 2h.1v-7.6zm-2.4 11.2c0-.3 0-.7-.1-1-.3-1.5-1.6-2.7-3.4-2.7-2.4 0-3.8 2.1-3.8 4.9 0 2.6 1.3 4.7 3.8 4.7 1.6 0 3-1 3.4-2.8.1-.3.1-.6.1-1z" fill="#082e51"/><path d="m1463.3 265.8-12.3 6.2v-1.8l10.4-5.2-10.4-5.2v-1.8l12.2 6.3v1.5z" fill="#082e51"/><path d="m1370.7 505.3 12.2-6.3v1.8l-10.3 5.2v.1l10.3 5.2v1.8l-12.2-6.3z" fill="#fff"/><path d="m1384.7 514.1 7.4-19.1h1.8l-7.4 19.1z" fill="#fff"/><path d="m1395.6 513c.1-.9.1-2.2.1-3.3v-15.4h2.3v8h.1c.8-1.4 2.3-2.3 4.4-2.3 3.2 0 5.4 2.6 5.4 6.5 0 4.6-2.9 6.8-5.7 6.8-1.8 0-3.3-.7-4.3-2.4h-.1l-.1 2.1zm2.4-5.1c0 .3.1.6.1.8.4 1.6 1.8 2.7 3.5 2.7 2.4 0 3.9-2 3.9-4.9 0-2.6-1.3-4.8-3.8-4.8-1.6 0-3.1 1.1-3.5 2.9-.1.3-.1.6-.1 1v2.3z" fill="#fff"/><path d="m1422.3 506.6c0 4.7-3.3 6.8-6.4 6.8-3.5 0-6.1-2.5-6.1-6.6 0-4.3 2.8-6.8 6.3-6.8 3.7 0 6.2 2.6 6.2 6.6zm-10.1.1c0 2.8 1.6 4.9 3.9 4.9 2.2 0 3.9-2.1 3.9-5 0-2.2-1.1-4.9-3.8-4.9s-4 2.6-4 5z" fill="#fff"/><path d="m1436.3 494.3v15.4c0 1.1 0 2.4.1 3.3h-2.1l-.1-2.2h-.1c-.7 1.4-2.3 2.5-4.4 2.5-3.1 0-5.5-2.6-5.5-6.5 0-4.2 2.6-6.9 5.7-6.9 2 0 3.3.9 3.9 2h.1v-7.6zm-2.4 11.2c0-.3 0-.7-.1-1-.3-1.5-1.6-2.7-3.4-2.7-2.4 0-3.8 2.1-3.8 4.9 0 2.6 1.3 4.7 3.8 4.7 1.6 0 3-1 3.4-2.8.1-.3.1-.6.1-1z" fill="#fff"/><path d="m1441 500.3 2.8 7.5c.3.8.6 1.8.8 2.6h.1c.2-.8.5-1.7.8-2.7l2.5-7.5h2.5l-3.5 9.1c-1.7 4.4-2.8 6.6-4.4 8-1.1 1-2.3 1.4-2.9 1.5l-.6-2c.6-.2 1.3-.6 2-1.1.6-.5 1.4-1.4 2-2.6.1-.2.2-.4.2-.6s-.1-.3-.2-.6l-4.7-11.8h2.6z" fill="#fff"/><path d="m1464.6 506.8-12.2 6.3v-1.8l10.4-5.2v-.1l-10.4-5.2v-1.8l12.2 6.3z" fill="#fff"/><path d="m1377.2 348.3 12.2-6.3v1.8l-10.3 5.2v.1l10.3 5.2v1.8l-12.2-6.3z" fill="#fff"/><path d="m1393 356c.1-.9.1-2.2.1-3.3v-15.4h2.3v8h.1c.8-1.4 2.3-2.3 4.4-2.3 3.2 0 5.4 2.6 5.4 6.5 0 4.6-2.9 6.8-5.7 6.8-1.8 0-3.3-.7-4.3-2.4h-.1l-.1 2.1zm2.4-5.1c0 .3.1.6.1.8.4 1.6 1.8 2.7 3.5 2.7 2.4 0 3.9-2 3.9-4.9 0-2.6-1.3-4.8-3.8-4.8-1.6 0-3.1 1.1-3.5 2.9-.1.3-.1.6-.1 1v2.3z" fill="#fff"/><path d="m1419.7 349.6c0 4.7-3.3 6.8-6.4 6.8-3.5 0-6.1-2.5-6.1-6.6 0-4.3 2.8-6.8 6.3-6.8 3.7 0 6.2 2.6 6.2 6.6zm-10.2.1c0 2.8 1.6 4.9 3.9 4.9 2.2 0 3.9-2.1 3.9-5 0-2.2-1.1-4.9-3.8-4.9-2.8 0-4 2.6-4 5z" fill="#fff"/><path d="m1433.6 337.3v15.4c0 1.1 0 2.4.1 3.3h-2.1l-.1-2.2h-.1c-.7 1.4-2.3 2.5-4.4 2.5-3.1 0-5.5-2.6-5.5-6.5 0-4.2 2.6-6.9 5.7-6.9 2 0 3.3.9 3.9 2h.1v-7.6zm-2.3 11.2c0-.3 0-.7-.1-1-.3-1.5-1.6-2.7-3.4-2.7-2.4 0-3.8 2.1-3.8 4.9 0 2.6 1.3 4.7 3.8 4.7 1.6 0 3-1 3.4-2.8.1-.3.1-.6.1-1z" fill="#fff"/><path d="m1438.3 343.3 2.8 7.5c.3.8.6 1.8.8 2.6h.1c.2-.8.5-1.7.8-2.7l2.5-7.5h2.5l-3.5 9.1c-1.7 4.4-2.8 6.6-4.4 8-1.1 1-2.3 1.4-2.9 1.5l-.6-2c.6-.2 1.3-.6 2-1.1.6-.5 1.4-1.4 2-2.6.1-.2.2-.4.2-.6s-.1-.3-.2-.6l-4.7-11.8h2.6z" fill="#fff"/><path d="m1462 349.8-12.2 6.3v-1.8l10.4-5.2v-.1l-10.4-5.2v-1.8l12.2 6.3z" fill="#fff"/><g fill="#082e51"><path d="m1400.7 185.3 12.2-6.3v1.8l-10.3 5.2v.1l10.3 5.2v1.8l-12.2-6.3z"/><path d="m1419.5 176.6v3.7h3.3v1.8h-3.3v6.9c0 1.6.4 2.5 1.7 2.5.6 0 1.1-.1 1.3-.2l.1 1.7c-.4.2-1.2.3-2.1.3-1.1 0-2-.3-2.5-1-.7-.7-.9-1.8-.9-3.3v-7h-2v-1.8h2v-3.1z"/><path d="m1428 176.7c0 .8-.6 1.4-1.5 1.4-.8 0-1.4-.6-1.4-1.4s.6-1.5 1.5-1.5c.8 0 1.4.7 1.4 1.5zm-2.6 16.3v-12.8h2.3v12.8z"/><path d="m1434.4 176.6v3.7h3.3v1.8h-3.3v6.9c0 1.6.4 2.5 1.7 2.5.6 0 1.1-.1 1.3-.2l.1 1.7c-.4.2-1.2.3-2.1.3-1.1 0-2-.3-2.5-1-.7-.7-.9-1.8-.9-3.3v-7h-2v-1.8h2v-3.1z"/><path d="m1440.3 174.3h2.3v18.7h-2.3z"/><path d="m1447.8 187.1c.1 3.1 2.1 4.4 4.4 4.4 1.7 0 2.7-.3 3.5-.7l.4 1.7c-.8.4-2.2.8-4.2.8-3.9 0-6.3-2.6-6.3-6.4s2.3-6.9 6-6.9c4.2 0 5.3 3.7 5.3 6 0 .5-.1.8-.1 1.1zm6.8-1.7c0-1.5-.6-3.8-3.2-3.8-2.3 0-3.4 2.2-3.6 3.8z"/><path d="m1471.8 186.8-12.2 6.3v-1.8l10.4-5.2v-.1l-10.4-5.2v-1.8l12.2 6.3z"/><path d="m1394.5 225.3 12.2-6.3v1.8l-10.3 5.2v.1l10.3 5.2v1.8l-12.2-6.3z"/><path d="m1408.5 234.1 7.4-19.1h1.8l-7.4 19.1z"/><path d="m1422.3 216.6v3.7h3.3v1.8h-3.3v6.9c0 1.6.4 2.5 1.7 2.5.6 0 1.1-.1 1.3-.2l.1 1.7c-.4.2-1.2.3-2.1.3-1.1 0-2-.3-2.5-1-.7-.7-.9-1.8-.9-3.3v-7h-2v-1.8h2v-3.1z"/><path d="m1430.8 216.7c0 .8-.6 1.4-1.5 1.4-.8 0-1.4-.6-1.4-1.4s.6-1.5 1.5-1.5 1.4.7 1.4 1.5zm-2.5 16.3v-12.8h2.3v12.8z"/><path d="m1437.2 216.6v3.7h3.3v1.8h-3.3v6.9c0 1.6.4 2.5 1.7 2.5.6 0 1.1-.1 1.3-.2l.1 1.7c-.4.2-1.2.3-2.1.3-1.1 0-2-.3-2.5-1-.7-.7-.9-1.8-.9-3.3v-7h-2v-1.8h2v-3.1z"/><path d="m1443.2 214.3h2.3v18.7h-2.3z"/><path d="m1450.7 227.1c.1 3.1 2.1 4.4 4.4 4.4 1.7 0 2.7-.3 3.5-.7l.4 1.7c-.8.4-2.2.8-4.2.8-3.9 0-6.3-2.6-6.3-6.4s2.3-6.9 6-6.9c4.2 0 5.3 3.7 5.3 6 0 .5-.1.8-.1 1.1zm6.8-1.7c0-1.5-.6-3.8-3.2-3.8-2.3 0-3.4 2.2-3.6 3.8z"/><path d="m1474.7 226.8-12.2 6.3v-1.8l10.4-5.2v-.1l-10.4-5.2v-1.8l12.2 6.3z"/><path d="m98.7002 150.9 12.1998-6.3v1.8l-10.3 5.2v.1l10.3 5.2v1.8l-12.1998-6.3z"/><path d="m114.7 139.9h2.3v8h.1c.4-.7 1-1.2 1.7-1.6s1.5-.7 2.4-.7c1.7 0 4.5 1.1 4.5 5.5v7.6h-2.3v-7.3c0-2.1-.8-3.8-3-3.8-1.5 0-2.7 1.1-3.1 2.3-.1.3-.2.7-.2 1.1v7.7h-2.3v-18.8z"/><path d="m130.6 152.7c.1 3.1 2.1 4.4 4.4 4.4 1.7 0 2.7-.3 3.5-.7l.4 1.7c-.8.4-2.2.8-4.2.8-3.9 0-6.3-2.6-6.3-6.4s2.3-6.9 6-6.9c4.2 0 5.3 3.7 5.3 6 0 .5-.1.8-.1 1.1zm6.8-1.7c0-1.5-.6-3.8-3.2-3.8-2.3 0-3.4 2.2-3.6 3.8z"/><path d="m149.6 158.6-.2-1.6h-.1c-.7 1-2.1 1.9-3.9 1.9-2.6 0-3.9-1.8-3.9-3.7 0-3.1 2.7-4.8 7.7-4.8v-.3c0-1.1-.3-3-2.9-3-1.2 0-2.4.4-3.3 1l-.5-1.5c1.1-.7 2.6-1.1 4.2-1.1 3.9 0 4.9 2.7 4.9 5.2v4.8c0 1.1.1 2.2.2 3.1zm-.3-6.5c-2.5-.1-5.4.4-5.4 2.9 0 1.5 1 2.2 2.2 2.2 1.7 0 2.7-1.1 3.1-2.1.1-.2.1-.5.1-.7z"/><path d="m166.3 139.9v15.4c0 1.1 0 2.4.1 3.3h-2.1l-.1-2.2h-.1c-.7 1.4-2.3 2.5-4.4 2.5-3.1 0-5.5-2.6-5.5-6.5 0-4.2 2.6-6.9 5.7-6.9 2 0 3.3.9 3.9 2h.1v-7.6zm-2.3 11.1c0-.3 0-.7-.1-1-.3-1.5-1.6-2.7-3.4-2.7-2.4 0-3.8 2.1-3.8 4.9 0 2.6 1.3 4.7 3.8 4.7 1.6 0 3-1 3.4-2.8.1-.3.1-.6.1-1z"/><path d="m182.2 152.3-12.2 6.3v-1.8l10.4-5.2v-.1l-10.4-5.2v-1.8l12.2 6.3z"/><path d="m98.7002 242.9 12.1998-6.3v1.8l-10.3 5.2v.1l10.3 5.2v1.8l-12.1998-6.3z"/><path d="m112.7 251.7 7.4-19.1h1.8l-7.4 19.1z"/><path d="m123.7 231.9h2.3v8h.1c.4-.7 1-1.2 1.7-1.6s1.5-.7 2.4-.7c1.7 0 4.5 1.1 4.5 5.5v7.6h-2.3v-7.3c0-2.1-.8-3.8-3-3.8-1.5 0-2.7 1.1-3.1 2.3-.1.3-.2.7-.2 1.1v7.7h-2.3v-18.8z"/><path d="m139.7 244.7c.1 3.1 2.1 4.4 4.4 4.4 1.7 0 2.7-.3 3.5-.7l.4 1.7c-.8.4-2.2.8-4.2.8-3.9 0-6.3-2.6-6.3-6.4s2.3-6.9 6-6.9c4.2 0 5.3 3.7 5.3 6 0 .5-.1.8-.1 1.1zm6.8-1.7c0-1.5-.6-3.8-3.2-3.8-2.3 0-3.4 2.2-3.6 3.8z"/><path d="m158.7 250.6-.2-1.6h-.1c-.7 1-2.1 1.9-3.9 1.9-2.6 0-3.9-1.8-3.9-3.7 0-3.1 2.7-4.8 7.7-4.8v-.3c0-1.1-.3-3-2.9-3-1.2 0-2.4.4-3.3 1l-.5-1.5c1.1-.7 2.6-1.1 4.2-1.1 3.9 0 4.9 2.7 4.9 5.2v4.8c0 1.1.1 2.2.2 3.1zm-.4-6.5c-2.5-.1-5.4.4-5.4 2.9 0 1.5 1 2.2 2.2 2.2 1.7 0 2.7-1.1 3.1-2.1.1-.2.1-.5.1-.7z"/><path d="m175.3 231.9v15.4c0 1.1 0 2.4.1 3.3h-2.1l-.1-2.2h-.1c-.7 1.4-2.3 2.5-4.4 2.5-3.1 0-5.5-2.6-5.5-6.5 0-4.2 2.6-6.9 5.7-6.9 2 0 3.3.9 3.9 2h.1v-7.6zm-2.3 11.1c0-.3 0-.7-.1-1-.3-1.5-1.6-2.7-3.4-2.7-2.4 0-3.8 2.1-3.8 4.9 0 2.6 1.3 4.7 3.8 4.7 1.6 0 3-1 3.4-2.8.1-.3.1-.6.1-1z"/><path d="m191.3 244.3-12.2 6.3v-1.8l10.4-5.2v-.1l-10.4-5.2v-1.8l12.2 6.3z"/><path d="m382.7 192.9 12.2-6.3v1.8l-10.3 5.2v.1l10.3 5.2v1.8l-12.2-6.3z"/><path d="m396.7 201.7 7.4-19.1h1.8l-7.4 19.1z"/><path d="m410.5 184.2v3.7h3.3v1.8h-3.3v6.9c0 1.6.4 2.5 1.7 2.5.6 0 1.1-.1 1.3-.2l.1 1.7c-.4.2-1.2.3-2.1.3-1.1 0-2-.3-2.5-1-.7-.7-.9-1.8-.9-3.3v-7h-2v-1.8h2v-3.1z"/><path d="m419 184.3c0 .8-.6 1.4-1.5 1.4-.8 0-1.4-.6-1.4-1.4s.6-1.5 1.5-1.5 1.4.6 1.4 1.5zm-2.5 16.3v-12.8h2.3v12.8z"/><path d="m425.4 184.2v3.7h3.3v1.8h-3.3v6.9c0 1.6.4 2.5 1.7 2.5.6 0 1.1-.1 1.3-.2l.1 1.7c-.4.2-1.2.3-2.1.3-1.1 0-2-.3-2.5-1-.7-.7-.9-1.8-.9-3.3v-7h-2v-1.8h2v-3.1z"/><path d="m431.4 181.9h2.3v18.7h-2.3z"/><path d="m438.9 194.7c.1 3.1 2.1 4.4 4.4 4.4 1.7 0 2.7-.3 3.5-.7l.4 1.7c-.8.4-2.2.8-4.2.8-3.9 0-6.3-2.6-6.3-6.4s2.3-6.9 6-6.9c4.2 0 5.3 3.7 5.3 6 0 .5-.1.8-.1 1.1zm6.8-1.7c0-1.5-.6-3.8-3.2-3.8-2.3 0-3.4 2.2-3.6 3.8z"/><path d="m462.9 194.3-12.2 6.3v-1.8l10.4-5.2v-.1l-10.4-5.2v-1.8l12.2 6.3z"/><path d="m103.7 366.9 12.2-6.3v1.8l-10.3 5.2v.1l10.3 5.2v1.8l-12.2-6.3z"/><path d="m119.6 374.6c.1-.9.1-2.2.1-3.3v-15.4h2.3v8h.1c.8-1.4 2.3-2.3 4.4-2.3 3.2 0 5.4 2.6 5.4 6.5 0 4.6-2.9 6.8-5.7 6.8-1.8 0-3.3-.7-4.3-2.4h-.1l-.1 2.1zm2.4-5.1c0 .3.1.6.1.8.4 1.6 1.8 2.7 3.5 2.7 2.4 0 3.9-2 3.9-4.9 0-2.6-1.3-4.8-3.8-4.8-1.6 0-3.1 1.1-3.5 2.9-.1.3-.1.6-.1 1v2.3z"/><path d="m146.2 368.1c0 4.7-3.3 6.8-6.4 6.8-3.5 0-6.1-2.5-6.1-6.6 0-4.3 2.8-6.8 6.3-6.8 3.8.1 6.2 2.7 6.2 6.6zm-10.1.2c0 2.8 1.6 4.9 3.9 4.9 2.2 0 3.9-2.1 3.9-5 0-2.2-1.1-4.9-3.8-4.9-2.8 0-4 2.5-4 5z"/><path d="m160.2 355.9v15.4c0 1.1 0 2.4.1 3.3h-2.1l-.1-2.2h-.1c-.7 1.4-2.3 2.5-4.4 2.5-3.1 0-5.5-2.6-5.5-6.5 0-4.2 2.6-6.9 5.7-6.9 2 0 3.3.9 3.9 2h.1v-7.6zm-2.3 11.1c0-.3 0-.7-.1-1-.3-1.5-1.6-2.7-3.4-2.7-2.4 0-3.8 2.1-3.8 4.9 0 2.6 1.3 4.7 3.8 4.7 1.6 0 3-1 3.4-2.8.1-.3.1-.6.1-1z"/><path d="m164.9 361.8 2.8 7.5c.3.8.6 1.8.8 2.6h.1c.2-.8.5-1.7.8-2.7l2.5-7.5h2.5l-3.5 9.1c-1.7 4.4-2.8 6.6-4.4 8-1.1 1-2.3 1.4-2.9 1.5l-.6-2c.6-.2 1.3-.6 2-1.1.6-.5 1.4-1.4 2-2.6.1-.2.2-.4.2-.6s-.1-.3-.2-.6l-4.7-11.8h2.6z"/><path d="m188.6 368.3-12.2 6.3v-1.8l10.4-5.2v-.1l-10.4-5.2v-1.8l12.2 6.3z"/><path d="m103.7 663.9 12.2-6.3v1.8l-10.3 5.2v.1l10.3 5.2v1.8l-12.2-6.3z"/><path d="m117.7 672.7 7.4-19.1h1.8l-7.4 19.1z"/><path d="m128.6 671.6c.1-.9.1-2.2.1-3.3v-15.4h2.3v8h.1c.8-1.4 2.3-2.3 4.4-2.3 3.2 0 5.4 2.6 5.4 6.5 0 4.6-2.9 6.8-5.7 6.8-1.8 0-3.3-.7-4.3-2.4h-.1l-.1 2.1zm2.4-5.1c0 .3.1.6.1.8.4 1.6 1.8 2.7 3.5 2.7 2.4 0 3.9-2 3.9-4.9 0-2.6-1.3-4.8-3.8-4.8-1.6 0-3.1 1.1-3.5 2.9-.1.3-.1.6-.1 1v2.3z"/><path d="m155.3 665.1c0 4.7-3.3 6.8-6.4 6.8-3.5 0-6.1-2.5-6.1-6.6 0-4.3 2.8-6.8 6.3-6.8 3.7.1 6.2 2.7 6.2 6.6zm-10.1.2c0 2.8 1.6 4.9 3.9 4.9 2.2 0 3.9-2.1 3.9-5 0-2.2-1.1-4.9-3.8-4.9-2.9 0-4 2.5-4 5z"/><path d="m169.3 652.9v15.4c0 1.1 0 2.4.1 3.3h-2.1l-.1-2.2h-.1c-.7 1.4-2.3 2.5-4.4 2.5-3.1 0-5.5-2.6-5.5-6.5 0-4.2 2.6-6.9 5.7-6.9 2 0 3.3.9 3.9 2h.1v-7.6zm-2.4 11.1c0-.3 0-.7-.1-1-.3-1.5-1.6-2.7-3.4-2.7-2.4 0-3.8 2.1-3.8 4.9 0 2.6 1.3 4.7 3.8 4.7 1.6 0 3-1 3.4-2.8.1-.3.1-.6.1-1z"/><path d="m174 658.8 2.8 7.5c.3.8.6 1.8.8 2.6h.1c.2-.8.5-1.7.8-2.7l2.5-7.5h2.5l-3.5 9.3c-1.7 4.4-2.8 6.6-4.4 8-1.1 1-2.3 1.4-2.9 1.5l-.6-2c.6-.2 1.3-.6 2-1.1.6-.5 1.4-1.4 2-2.6.1-.2.2-.4.2-.6s-.1-.3-.2-.6l-4.7-11.8z"/><path d="m197.6 665.3-12.2 6.3v-1.8l10.4-5.2v-.1l-10.4-5.2v-1.8l12.2 6.3z"/><path d="m44.7002 737.9 12.2-6.3v1.8l-10.3 5.2v.1l10.3 5.2v1.8l-12.2-6.3z"/><path d="m58.7002 746.7 7.4-19.1h1.8l-7.4 19.1z"/><path d="m69.7002 726.9h2.3v8h.1c.4-.7 1-1.2 1.7-1.6s1.5-.7 2.4-.7c1.7 0 4.5 1.1 4.5 5.5v7.6h-2.3v-7.3c0-2.1-.8-3.8-3-3.8-1.5 0-2.7 1.1-3.1 2.3-.1.3-.2.7-.2 1.1v7.7h-2.3v-18.8z"/><path d="m87.1002 729.2v3.7h3.3v1.8h-3.3v6.9c0 1.6.4 2.5 1.7 2.5.6 0 1.1-.1 1.3-.2l.1 1.7c-.4.2-1.2.3-2.1.3-1.1 0-2-.3-2.5-1-.7-.7-.9-1.8-.9-3.3v-7h-2v-1.8h2v-3.1z"/><path d="m93.0004 736.3c0-1.3 0-2.4-.1-3.5h2l.1 2.1h.1c.7-1.2 1.9-2.3 4-2.3 1.6996 0 3.0996 1.1 3.5996 2.6h.1c.4-.7.9-1.3 1.4-1.7.8-.6 1.6-.9 2.8-.9 1.7 0 4.2 1.1 4.2 5.5v7.5h-2.2v-7.2c0-2.5-.9-3.9-2.8-3.9-1.3 0-2.3 1-2.7 2.1-.1.3-.2.7-.2 1.2v7.9h-2.3v-7.7c0-2-.9-3.5-2.6996-3.5-1.5 0-2.5 1.2-2.9 2.3-.1.3-.2.7-.2 1.1v7.7h-2.2z"/><path d="m115 726.9h2.3v18.7h-2.3z"/><path d="m133.3 739.3-12.2 6.3v-1.8l10.4-5.2v-.1l-10.4-5.2v-1.8l12.2 6.3z"/><path d="m186 555.7 13.9-7.1v2.1l-11.7 5.9v.1l11.7 5.9v2.1l-13.9-7.1z"/><path d="m204 554.7c0-1.9-.1-3.3-.1-4.7h2.4l.1 2.5h.1c1.1-1.8 2.8-2.8 5.1-2.8 3.5 0 6.1 3 6.1 7.4 0 5.2-3.2 7.8-6.6 7.8-1.9 0-3.6-.8-4.5-2.3h-.1v7.9h-2.5zm2.6 3.9c0 .4.1.7.1 1.1.5 1.8 2.1 3.1 3.9 3.1 2.8 0 4.4-2.3 4.4-5.6 0-2.9-1.5-5.4-4.3-5.4-1.8 0-3.5 1.3-4 3.3-.1.3-.2.7-.2 1.1v2.4z"/><path d="m234.7 557.4-13.9 7.1v-2.1l11.8-5.9v-.1l-11.8-5.9v-2.1l13.9 7.1z"/><path d="m482 555.7 13.9-7.1v2.1l-11.7 5.9v.1l11.7 5.9v2.1l-13.9-7.1z"/><path d="m497.9 565.7 8.3-21.7h2l-8.4 21.7z"/><path d="m510.3 554.7c0-1.9-.1-3.3-.1-4.7h2.4l.1 2.5h.1c1.1-1.8 2.8-2.8 5.1-2.8 3.5 0 6.1 3 6.1 7.4 0 5.2-3.2 7.8-6.6 7.8-1.9 0-3.6-.8-4.5-2.3h-.1v7.9h-2.6v-15.8zm2.6 3.9c0 .4.1.7.1 1.1.5 1.8 2.1 3.1 3.9 3.1 2.8 0 4.4-2.3 4.4-5.6 0-2.9-1.5-5.4-4.3-5.4-1.8 0-3.5 1.3-4 3.3-.1.3-.2.7-.2 1.1v2.4z"/><path d="m541 557.4-13.9 7.1v-2.1l11.8-5.9v-.1l-11.8-5.9v-2.1l13.9 7.1z"/><path d="m194 454.7 13.9-7.1v2.1l-11.7 5.9v.1l11.7 5.9v2.1l-13.9-7.1z"/><path d="m212 442.3h2.6v9h.1c.4-.7 1.1-1.4 1.9-1.9.8-.4 1.7-.7 2.7-.7 1.9 0 5.1 1.2 5.1 6.2v8.6h-2.6v-8.3c0-2.3-.9-4.3-3.3-4.3-1.7 0-3 1.2-3.5 2.6-.1.4-.2.7-.2 1.3v8.7h-2.8z"/><path d="m233.5 446.5-3.4 1.8-.5-2 4.2-2.3h2.2v19.4h-2.5z"/><path d="m257.6 456.4-13.9 7.1v-2.1l11.8-5.9v-.1l-11.8-5.9v-2.1l13.9 7.1z"/><path d="m478.5 454.7 13.9-7.1v2.1l-11.7 5.9v.1l11.7 5.9v2.1l-13.9-7.1z"/><path d="m494.3 464.7 8.3-21.7h2l-8.4 21.7z"/><path d="m506.7 442.3h2.6v9h.1c.4-.7 1.1-1.4 1.9-1.9.8-.4 1.7-.7 2.7-.7 1.9 0 5.1 1.2 5.1 6.2v8.6h-2.6v-8.3c0-2.3-.9-4.3-3.3-4.3-1.7 0-3 1.2-3.5 2.6-.1.4-.2.7-.2 1.3v8.7h-2.6v-21.2z"/><path d="m528.2 446.5-3.4 1.8-.5-2 4.2-2.3h2.2v19.4h-2.5z"/><path d="m552.3 456.4-13.9 7.1v-2.1l11.8-5.9v-.1l-11.8-5.9v-2.1l13.9 7.1z"/><path d="m162.7 192.9 12.2-6.3v1.8l-10.3 5.2v.1l10.3 5.2v1.8l-12.2-6.3z"/><path d="m181.5 184.2v3.7h3.3v1.8h-3.3v6.9c0 1.6.4 2.5 1.7 2.5.6 0 1.1-.1 1.3-.2l.1 1.7c-.4.2-1.2.3-2.1.3-1.1 0-2-.3-2.5-1-.7-.7-.9-1.8-.9-3.3v-7h-2v-1.8h2v-3.1z"/><path d="m190 184.3c0 .8-.6 1.4-1.5 1.4-.8 0-1.4-.6-1.4-1.4s.6-1.5 1.5-1.5c.8 0 1.4.6 1.4 1.5zm-2.6 16.3v-12.8h2.3v12.8z"/><path d="m196.4 184.2v3.7h3.3v1.8h-3.3v6.9c0 1.6.4 2.5 1.7 2.5.6 0 1.1-.1 1.3-.2l.1 1.7c-.4.2-1.2.3-2.1.3-1.1 0-2-.3-2.5-1-.7-.7-.9-1.8-.9-3.3v-7h-2v-1.8h2v-3.1z"/><path d="m202.3 181.9h2.3v18.7h-2.3z"/><path d="m209.8 194.7c.1 3.1 2.1 4.4 4.4 4.4 1.7 0 2.7-.3 3.5-.7l.4 1.7c-.8.4-2.2.8-4.2.8-3.9 0-6.3-2.6-6.3-6.4s2.3-6.9 6-6.9c4.2 0 5.3 3.7 5.3 6 0 .5-.1.8-.1 1.1zm6.8-1.7c0-1.5-.6-3.8-3.2-3.8-2.3 0-3.4 2.2-3.6 3.8z"/><path d="m233.8 194.3-12.2 6.3v-1.8l10.4-5.2v-.1l-10.4-5.2v-1.8l12.2 6.3z"/></g><path d="m270.32 201h-2.261v-7.887h-8.602v7.887h-2.25v-17.062h2.25v7.335h8.602v-7.335h2.261zm11.485 0c-.125-.25-.227-.695-.305-1.336-1.008 1.047-2.211 1.57-3.609 1.57-1.25 0-2.278-.351-3.082-1.054-.797-.711-1.196-1.61-1.196-2.696 0-1.32.5-2.343 1.5-3.07 1.008-.734 2.422-1.102 4.242-1.102h2.11v-.996c0-.757-.227-1.359-.68-1.804-.453-.453-1.121-.68-2.004-.68-.773 0-1.422.195-1.945.586-.524.391-.785.863-.785 1.418h-2.18c0-.633.223-1.242.668-1.828.453-.594 1.063-1.063 1.828-1.406.774-.344 1.621-.516 2.543-.516 1.461 0 2.606.367 3.434 1.102.828.726 1.258 1.73 1.289 3.011v5.836c0 1.164.148 2.09.445 2.777v.188zm-3.598-1.652c.68 0 1.324-.176 1.934-.528.609-.351 1.05-.808 1.324-1.371v-2.601h-1.699c-2.657 0-3.985.777-3.985 2.332 0 .679.227 1.211.68 1.593.453.383 1.035.575 1.746.575zm15.797-7.559c0-.594-.227-1.062-.68-1.406-.453-.352-1.074-.528-1.863-.528-.766 0-1.406.2-1.922.598-.508.399-.762.867-.762 1.406h-2.156c0-1.101.461-2.004 1.383-2.707s2.074-1.054 3.457-1.054c1.484 0 2.641.32 3.469.961.828.632 1.242 1.539 1.242 2.718 0 .571-.172 1.094-.516 1.571-.344.476-.832.855-1.465 1.136 1.477.5 2.215 1.485 2.215 2.954 0 1.164-.449 2.085-1.347 2.765-.899.68-2.098 1.02-3.598 1.02-1.461 0-2.668-.356-3.621-1.067-.945-.718-1.418-1.687-1.418-2.906h2.156c0 .617.274 1.148.82 1.594.555.437 1.243.656 2.063.656.828 0 1.496-.191 2.004-.574s.762-.879.762-1.488c0-.711-.215-1.219-.645-1.524-.422-.312-1.082-.469-1.98-.469h-2.168v-1.828h2.355c1.477-.039 2.215-.648 2.215-1.828zm5.414 9.211v-12.68h4.945c1.688 0 2.981.297 3.879.891.906.586 1.36 1.449 1.36 2.59 0 .586-.176 1.117-.528 1.594-.351.468-.871.828-1.558 1.078.765.179 1.379.531 1.839 1.054.469.524.704 1.149.704 1.875 0 1.164-.43 2.055-1.289 2.672-.852.617-2.059.926-3.622.926zm2.168-5.566v3.82h3.586c.906 0 1.582-.168 2.027-.504.453-.336.68-.809.68-1.418 0-1.266-.93-1.898-2.789-1.898zm0-1.735h2.801c2.031 0 3.047-.594 3.047-1.781 0-1.188-.961-1.801-2.883-1.84h-2.965zm19.172 7.301c-.125-.25-.227-.695-.305-1.336-1.008 1.047-2.211 1.57-3.609 1.57-1.25 0-2.278-.351-3.082-1.054-.797-.711-1.196-1.61-1.196-2.696 0-1.32.5-2.343 1.5-3.07 1.008-.734 2.422-1.102 4.243-1.102h2.109v-.996c0-.757-.227-1.359-.68-1.804-.453-.453-1.121-.68-2.004-.68-.773 0-1.422.195-1.945.586s-.785.863-.785 1.418h-2.18c0-.633.223-1.242.668-1.828.453-.594 1.063-1.063 1.828-1.406.774-.344 1.621-.516 2.543-.516 1.461 0 2.606.367 3.434 1.102.828.726 1.258 1.73 1.289 3.011v5.836c0 1.164.148 2.09.445 2.777v.188zm-3.598-1.652c.68 0 1.324-.176 1.934-.528.609-.351 1.051-.808 1.324-1.371v-2.601h-1.699c-2.657 0-3.985.777-3.985 2.332 0 .679.227 1.211.68 1.593.453.383 1.035.575 1.746.575zm19.184 1.652h-2.168v-5.414h-5.824v5.414h-2.18v-12.68h2.18v5.496h5.824v-5.496h2.168zm11.695-12.68h2.168v12.68h-2.168v-9.246l-5.848 9.246h-2.168v-12.68h2.168v9.258zm10.91 12.914c-1.719 0-3.117-.562-4.195-1.687-1.078-1.133-1.617-2.645-1.617-4.535v-.399c0-1.258.238-2.379.715-3.363.484-.992 1.156-1.766 2.015-2.32.867-.563 1.805-.844 2.813-.844 1.648 0 2.929.543 3.843 1.629.915 1.086 1.372 2.64 1.372 4.664v.902h-8.59c.031 1.25.394 2.262 1.09 3.035.703.766 1.593 1.149 2.671 1.149.766 0 1.414-.156 1.946-.469.531-.312.996-.726 1.394-1.242l1.324 1.031c-1.062 1.633-2.656 2.449-4.781 2.449zm-.269-11.367c-.875 0-1.61.321-2.203.961-.594.633-.961 1.524-1.102 2.672h6.352v-.164c-.063-1.102-.36-1.953-.891-2.555-.531-.609-1.25-.914-2.156-.914z" fill="#000"/><path d="m284.805 457.586c.218 1.406.66 2.394 1.324 2.965.672.562 1.633.844 2.883.844 1.351 0 2.418-.528 3.199-1.583.789-1.054 1.191-2.519 1.207-4.394h-6.715v-1.852h6.715c0-1.851-.406-3.316-1.219-4.394-.804-1.078-1.933-1.617-3.387-1.617-1.171 0-2.085.304-2.742.914-.648.609-1.07 1.593-1.265 2.953h-2.262c.18-1.789.816-3.188 1.91-4.195 1.094-1.016 2.547-1.524 4.359-1.524 1.376 0 2.583.328 3.622.985 1.046.648 1.847 1.578 2.402 2.789.562 1.203.844 2.589.844 4.16v1.699c0 1.57-.278 2.957-.832 4.16-.555 1.203-1.34 2.129-2.356 2.777-1.008.641-2.168.961-3.48.961-1.86 0-3.352-.488-4.477-1.464-1.117-.985-1.781-2.379-1.992-4.184zm23.25-5.508h-4.254v10.922h-2.168v-10.922h-4.172v-1.758h10.594zm1.043 4.465c0-1.242.242-2.359.726-3.352.492-.992 1.172-1.757 2.039-2.296.875-.54 1.871-.809 2.989-.809 1.726 0 3.121.598 4.183 1.793 1.07 1.195 1.606 2.785 1.606 4.769v.153c0 1.234-.239 2.344-.715 3.328-.469.976-1.145 1.738-2.028 2.285-.875.547-1.882.82-3.023.82-1.719 0-3.113-.597-4.184-1.793-1.062-1.195-1.593-2.777-1.593-4.746zm2.179.258c0 1.406.325 2.535.973 3.387.656.851 1.531 1.277 2.625 1.277 1.102 0 1.977-.43 2.625-1.289.648-.867.973-2.078.973-3.633 0-1.391-.332-2.516-.996-3.375-.657-.867-1.532-1.301-2.625-1.301-1.071 0-1.934.426-2.59 1.278-.657.851-.985 2.07-.985 3.656zm25.008-3.012c0-.594-.226-1.062-.68-1.406-.453-.352-1.074-.528-1.863-.528-.765 0-1.406.2-1.922.598-.508.399-.761.867-.761 1.406h-2.157c0-1.101.461-2.004 1.383-2.707s2.074-1.054 3.457-1.054c1.485 0 2.641.32 3.469.961.828.632 1.242 1.539 1.242 2.718 0 .571-.172 1.094-.515 1.571-.344.476-.833.855-1.465 1.136 1.476.5 2.215 1.485 2.215 2.954 0 1.164-.45 2.085-1.348 2.765-.899.68-2.098 1.02-3.598 1.02-1.461 0-2.668-.356-3.621-1.067-.945-.718-1.418-1.687-1.418-2.906h2.156c0 .617.274 1.148.821 1.594.554.437 1.242.656 2.062.656.828 0 1.496-.191 2.004-.574s.762-.879.762-1.488c0-.711-.215-1.219-.645-1.524-.422-.312-1.082-.469-1.98-.469h-2.168v-1.828h2.355c1.477-.039 2.215-.648 2.215-1.828zm13.043 9.211c-.125-.25-.226-.695-.305-1.336-1.007 1.047-2.211 1.57-3.609 1.57-1.25 0-2.277-.351-3.082-1.054-.797-.711-1.195-1.61-1.195-2.696 0-1.32.5-2.343 1.5-3.07 1.008-.734 2.422-1.102 4.242-1.102h2.109v-.996c0-.757-.226-1.359-.679-1.804-.454-.453-1.121-.68-2.004-.68-.774 0-1.422.195-1.946.586-.523.391-.785.863-.785 1.418h-2.179c0-.633.222-1.242.667-1.828.454-.594 1.063-1.063 1.829-1.406.773-.344 1.621-.516 2.543-.516 1.461 0 2.605.367 3.433 1.102.828.726 1.258 1.73 1.289 3.011v5.836c0 1.164.149 2.09.446 2.777v.188zm-3.598-1.652c.68 0 1.325-.176 1.934-.528.609-.351 1.051-.808 1.324-1.371v-2.601h-1.699c-2.656 0-3.984.777-3.984 2.332 0 .679.226 1.211.679 1.593.454.383 1.036.575 1.746.575zm17.016-9.235h-5.848v10.887h-2.179v-12.68h8.027zm1.078 4.43c0-1.242.242-2.359.727-3.352.492-.992 1.172-1.757 2.039-2.296.875-.54 1.871-.809 2.988-.809 1.727 0 3.121.598 4.184 1.793 1.07 1.195 1.605 2.785 1.605 4.769v.153c0 1.234-.238 2.344-.715 3.328-.468.976-1.144 1.738-2.027 2.285-.875.547-1.883.82-3.023.82-1.719 0-3.114-.597-4.184-1.793-1.063-1.195-1.594-2.777-1.594-4.746zm2.18.258c0 1.406.324 2.535.973 3.387.656.851 1.531 1.277 2.625 1.277 1.101 0 1.976-.43 2.625-1.289.648-.867.972-2.078.972-3.633 0-1.391-.332-2.516-.996-3.375-.656-.867-1.531-1.301-2.625-1.301-1.07 0-1.933.426-2.59 1.278-.656.851-.984 2.07-.984 3.656zm22.289-6.481v12.68h-2.18v-10.887h-4.312l-.258 4.746c-.141 2.18-.508 3.739-1.102 4.676-.586.938-1.519 1.426-2.8 1.465h-.868v-1.91l.622-.047c.703-.078 1.207-.484 1.511-1.219.305-.734.5-2.094.586-4.078l.235-5.426zm2.906 6.223c0-1.242.242-2.359.727-3.352.492-.992 1.172-1.757 2.039-2.296.875-.54 1.871-.809 2.988-.809 1.727 0 3.121.598 4.184 1.793 1.07 1.195 1.605 2.785 1.605 4.769v.153c0 1.234-.238 2.344-.715 3.328-.468.976-1.144 1.738-2.027 2.285-.875.547-1.883.82-3.023.82-1.719 0-3.114-.597-4.184-1.793-1.063-1.195-1.594-2.777-1.594-4.746zm2.18.258c0 1.406.324 2.535.973 3.387.656.851 1.531 1.277 2.625 1.277 1.101 0 1.976-.43 2.625-1.289.648-.867.972-2.078.972-3.633 0-1.391-.332-2.516-.996-3.375-.656-.867-1.531-1.301-2.625-1.301-1.07 0-1.933.426-2.59 1.278-.656.851-.984 2.07-.984 3.656zm12.281 6.199v-12.68h4.945c1.688 0 2.981.297 3.879.891.907.586 1.36 1.449 1.36 2.59 0 .586-.176 1.117-.528 1.594-.351.468-.871.828-1.558 1.078.765.179 1.379.531 1.84 1.054.468.524.703 1.149.703 1.875 0 1.164-.43 2.055-1.289 2.672-.852.617-2.059.926-3.621.926zm2.168-5.566v3.82h3.586c.906 0 1.582-.168 2.027-.504.454-.336.68-.809.68-1.418 0-1.266-.93-1.898-2.789-1.898zm0-1.735h2.801c2.031 0 3.047-.594 3.047-1.781 0-1.188-.961-1.801-2.883-1.84h-2.965zm10.77.844c0-1.242.242-2.359.726-3.352.492-.992 1.172-1.757 2.039-2.296.875-.54 1.871-.809 2.989-.809 1.726 0 3.121.598 4.183 1.793 1.07 1.195 1.606 2.785 1.606 4.769v.153c0 1.234-.239 2.344-.715 3.328-.469.976-1.145 1.738-2.028 2.285-.875.547-1.882.82-3.023.82-1.719 0-3.113-.597-4.184-1.793-1.062-1.195-1.593-2.777-1.593-4.746zm2.179.258c0 1.406.325 2.535.973 3.387.656.851 1.531 1.277 2.625 1.277 1.102 0 1.977-.43 2.625-1.289.648-.867.973-2.078.973-3.633 0-1.391-.332-2.516-.996-3.375-.657-.867-1.532-1.301-2.625-1.301-1.071 0-1.934.426-2.59 1.278-.657.851-.985 2.07-.985 3.656zm16.032.797h-1.582v5.402h-2.18v-12.68h2.18v5.368h1.418l4.265-5.368h2.625l-5.015 6.094 5.437 6.586h-2.754z" fill="#000"/><path d="m286.828 559.586c.219 1.406.66 2.394 1.324 2.965.672.562 1.633.844 2.883.844 1.352 0 2.418-.528 3.199-1.583.789-1.054 1.192-2.519 1.207-4.394h-6.714v-1.852h6.714c0-1.851-.406-3.316-1.218-4.394-.805-1.078-1.934-1.617-3.387-1.617-1.172 0-2.086.304-2.742.914-.649.609-1.071 1.593-1.266 2.953h-2.262c.18-1.789.817-3.188 1.911-4.195 1.093-1.016 2.546-1.524 4.359-1.524 1.375 0 2.582.328 3.621.985 1.047.648 1.848 1.578 2.402 2.789.563 1.203.844 2.589.844 4.16v1.699c0 1.57-.277 2.957-.832 4.16s-1.34 2.129-2.355 2.777c-1.008.641-2.168.961-3.481.961-1.859 0-3.351-.488-4.476-1.464-1.118-.985-1.782-2.379-1.993-4.184zm23.25-5.508h-4.254v10.922h-2.168v-10.922h-4.172v-1.758h10.594zm1.043 4.465c0-1.242.242-2.359.727-3.352.492-.992 1.172-1.757 2.039-2.296.875-.54 1.871-.809 2.988-.809 1.727 0 3.121.598 4.184 1.793 1.07 1.195 1.605 2.785 1.605 4.769v.153c0 1.234-.238 2.344-.715 3.328-.469.976-1.144 1.738-2.027 2.285-.875.547-1.883.82-3.024.82-1.718 0-3.113-.597-4.183-1.793-1.063-1.195-1.594-2.777-1.594-4.746zm2.18.258c0 1.406.324 2.535.972 3.387.657.851 1.532 1.277 2.625 1.277 1.102 0 1.977-.43 2.625-1.289.649-.867.973-2.078.973-3.633 0-1.391-.332-2.516-.996-3.375-.656-.867-1.531-1.301-2.625-1.301-1.07 0-1.934.426-2.59 1.278-.656.851-.984 2.07-.984 3.656zm28.406 6.199h-2.168v-10.887h-5.836v10.887h-2.18v-12.68h10.184zm11.309 0c-.125-.25-.227-.695-.305-1.336-1.008 1.047-2.211 1.57-3.609 1.57-1.25 0-2.278-.351-3.082-1.054-.797-.711-1.196-1.61-1.196-2.696 0-1.32.5-2.343 1.5-3.07 1.008-.734 2.422-1.102 4.242-1.102h2.11v-.996c0-.757-.227-1.359-.68-1.804-.453-.453-1.121-.68-2.004-.68-.773 0-1.422.195-1.945.586-.524.391-.785.863-.785 1.418h-2.18c0-.633.223-1.242.668-1.828.453-.594 1.062-1.063 1.828-1.406.774-.344 1.621-.516 2.543-.516 1.461 0 2.606.367 3.434 1.102.828.726 1.257 1.73 1.289 3.011v5.836c0 1.164.148 2.09.445 2.777v.188zm-3.598-1.652c.68 0 1.324-.176 1.934-.528.609-.351 1.05-.808 1.324-1.371v-2.601h-1.699c-2.657 0-3.985.777-3.985 2.332 0 .679.227 1.211.68 1.593.453.383 1.035.575 1.746.575zm19.535-4.547c0 1.929-.441 3.484-1.324 4.664s-2.078 1.769-3.586 1.769c-1.539 0-2.75-.488-3.633-1.464v6.105h-2.168v-17.555h1.981l.105 1.407c.883-1.094 2.11-1.641 3.68-1.641 1.523 0 2.726.574 3.609 1.723.891 1.148 1.336 2.746 1.336 4.793zm-2.168-.246c0-1.43-.305-2.559-.914-3.387s-1.445-1.242-2.508-1.242c-1.312 0-2.297.582-2.953 1.746v6.058c.649 1.157 1.641 1.735 2.977 1.735 1.039 0 1.863-.41 2.472-1.231.618-.828.926-2.054.926-3.679zm12.762 6.445c-.125-.25-.227-.695-.305-1.336-1.008 1.047-2.211 1.57-3.609 1.57-1.25 0-2.278-.351-3.082-1.054-.797-.711-1.196-1.61-1.196-2.696 0-1.32.5-2.343 1.5-3.07 1.008-.734 2.422-1.102 4.243-1.102h2.109v-.996c0-.757-.227-1.359-.68-1.804-.453-.453-1.121-.68-2.004-.68-.773 0-1.421.195-1.945.586-.523.391-.785.863-.785 1.418h-2.18c0-.633.223-1.242.668-1.828.453-.594 1.063-1.063 1.828-1.406.774-.344 1.621-.516 2.543-.516 1.461 0 2.606.367 3.434 1.102.828.726 1.258 1.73 1.289 3.011v5.836c0 1.164.148 2.09.445 2.777v.188zm-3.598-1.652c.68 0 1.324-.176 1.934-.528.609-.351 1.051-.808 1.324-1.371v-2.601h-1.699c-2.656 0-3.985.777-3.985 2.332 0 .679.227 1.211.68 1.593.453.383 1.035.575 1.746.575zm17.016-9.235h-5.848v10.887h-2.179v-12.68h8.027zm12.597 4.688c0 1.929-.441 3.484-1.324 4.664s-2.078 1.769-3.586 1.769c-1.539 0-2.75-.488-3.632-1.464v6.105h-2.168v-17.555h1.98l.106 1.407c.882-1.094 2.109-1.641 3.679-1.641 1.524 0 2.727.574 3.61 1.723.89 1.148 1.335 2.746 1.335 4.793zm-2.167-.246c0-1.43-.305-2.559-.915-3.387-.609-.828-1.445-1.242-2.507-1.242-1.313 0-2.297.582-2.953 1.746v6.058c.648 1.157 1.64 1.735 2.976 1.735 1.039 0 1.863-.41 2.473-1.231.617-.828.926-2.054.926-3.679zm12.761 6.445c-.125-.25-.226-.695-.304-1.336-1.008 1.047-2.211 1.57-3.61 1.57-1.25 0-2.277-.351-3.082-1.054-.797-.711-1.195-1.61-1.195-2.696 0-1.32.5-2.343 1.5-3.07 1.008-.734 2.422-1.102 4.242-1.102h2.109v-.996c0-.757-.226-1.359-.679-1.804-.453-.453-1.121-.68-2.004-.68-.774 0-1.422.195-1.945.586-.524.391-.786.863-.786 1.418h-2.179c0-.633.222-1.242.668-1.828.453-.594 1.062-1.063 1.828-1.406.773-.344 1.621-.516 2.543-.516 1.461 0 2.605.367 3.433 1.102.828.726 1.258 1.73 1.289 3.011v5.836c0 1.164.149 2.09.446 2.777v.188zm-3.597-1.652c.679 0 1.324-.176 1.933-.528.61-.351 1.051-.808 1.324-1.371v-2.601h-1.699c-2.656 0-3.984.777-3.984 2.332 0 .679.226 1.211.679 1.593.454.383 1.036.575 1.747.575zm8.355-4.453c0-2.118.41-3.782 1.231-4.993.82-1.211 1.945-1.816 3.375-1.816.664 0 1.246.113 1.746.34v-5.426h2.168v5.496c.546-.273 1.187-.41 1.921-.41 1.438 0 2.567.605 3.387 1.816s1.231 2.957 1.231 5.239c0 1.867-.411 3.351-1.231 4.453-.812 1.101-1.933 1.652-3.363 1.652-.758 0-1.406-.125-1.945-.375v5.004h-2.168v-4.969c-.516.227-1.106.34-1.77.34-1.422 0-2.543-.551-3.363-1.652-.813-1.102-1.219-2.61-1.219-4.524zm12.891 0c0-1.594-.274-2.829-.821-3.704-.546-.882-1.3-1.324-2.261-1.324-.493 0-.922.078-1.289.235v9.175c.351.133.789.2 1.312.2.969 0 1.719-.375 2.25-1.125.539-.75.809-1.903.809-3.457zm-10.723.246c0 1.421.254 2.5.762 3.234s1.238 1.102 2.191 1.102c.453 0 .863-.071 1.231-.211v-9.2c-.328-.132-.731-.199-1.207-.199-.954 0-1.688.426-2.204 1.278-.515.851-.773 2.183-.773 3.996z" fill="#000"/></svg>