<svg width="1474" height="1544" viewBox="0 0 1474 1544" fill="none" xmlns="http://www.w3.org/2000/svg">
<path opacity="0.12" d="M214.3 214H84V371H214.3V214Z" fill="#007BFF"/>
<path d="M466.1 671.9H43.9C32.9 671.9 24 661.1 24 647.7V68.2C24 54.8 32.9 44 43.9 44H466.1C477.1 44 486 54.8 486 68.2V647.7C486 661.1 477.1 671.9 466.1 671.9Z" stroke="#007BFF" stroke-width="4" stroke-miterlimit="10" stroke-linecap="round" stroke-linejoin="round"/>
<path d="M466.1 1503.4H43.9C32.9 1503.4 24 1492.6 24 1479.2V899.8C24 886.4 32.9 875.6 43.9 875.6H466.1C477.1 875.6 486 886.4 486 899.8V1479.3C486 1492.6 477.1 1503.4 466.1 1503.4Z" stroke="#007BFF" stroke-width="4" stroke-miterlimit="10" stroke-linecap="round" stroke-linejoin="round"/>
<path d="M1427.1 671.9H1004.9C993.9 671.9 985 661.1 985 647.7V68.2C985 54.8 993.9 44 1004.9 44H1427.1C1438.1 44 1447 54.8 1447 68.2V647.7C1447 661.1 1438.1 671.9 1427.1 671.9Z" stroke="#007BFF" stroke-width="4" stroke-miterlimit="10" stroke-linecap="round" stroke-linejoin="round"/>
<path opacity="0.12" d="M127 116H84V166H127V116Z" fill="#007BFF"/>
<path opacity="0.12" d="M322.6 321H259V371H322.6V321Z" fill="#007BFF"/>
<path opacity="0.12" d="M425 321H361.4V371H425V321Z" fill="#007BFF"/>
<path opacity="0.12" d="M302.6 116H166.5V166H302.6V116Z" fill="#007BFF"/>
<path opacity="0.12" d="M171.7 434H87.5V484H171.7V434Z" fill="#007BFF"/>
<path d="M171.6 434H87.5V484H171.6V434Z" stroke="#007BFF" stroke-width="4" stroke-miterlimit="10" stroke-linecap="round" stroke-linejoin="round"/>
<path d="M434.8 1158H366.9V1208H434.8V1158Z" stroke="#007BFF" stroke-width="4" stroke-miterlimit="10" stroke-linecap="round" stroke-linejoin="round"/>
<path d="M100.3 259.3V232H121.7" stroke="#007BFF" stroke-width="4" stroke-miterlimit="10" stroke-linecap="round" stroke-linejoin="round"/>
<path d="M180.7 232H202.9V259.3" stroke="#007BFF" stroke-width="4" stroke-miterlimit="10" stroke-linecap="round" stroke-linejoin="round"/>
<path d="M100.3 321.9V349.2H121.7" stroke="#007BFF" stroke-width="4" stroke-miterlimit="10" stroke-linecap="round" stroke-linejoin="round"/>
<path d="M180.7 349.2H202.9V321.9" stroke="#007BFF" stroke-width="4" stroke-miterlimit="10" stroke-linecap="round" stroke-linejoin="round"/>
<path d="M423 116H340.1V166H423V116Z" stroke="#007BFF" stroke-width="4" stroke-miterlimit="10" stroke-linecap="round" stroke-linejoin="round"/>
<path opacity="0.12" d="M425 214H255V264H425V214Z" fill="#007BFF"/>
<path opacity="0.12" d="M1266.5 121H1128.3V171H1266.5V121Z" fill="#007BFF"/>
<path opacity="0.12" d="M1089 121H1045.7V171H1089V121Z" fill="#007BFF"/>
<path opacity="0.12" d="M1388.5 121H1305.9V171H1388.5V121Z" fill="#007BFF"/>
<path opacity="0.12" d="M1178.2 219.7H1045.7V269.7H1178.2V219.7Z" fill="#007BFF"/>
<path opacity="0.12" d="M1388.5 219.7H1217V269.7H1388.5V219.7Z" fill="#007BFF"/>
<path opacity="0.12" d="M1285.7 326H1051V376H1285.7V326Z" fill="#007BFF"/>
<path opacity="0.12" d="M1393.3 326H1324.3V376H1393.3V326Z" fill="#007BFF"/>
<path opacity="0.12" d="M1393.3 439.3H1173V489.3H1393.3V439.3Z" fill="#007BFF"/>
<path opacity="0.12" d="M1134.6 439.3H1051V489.3H1134.6V439.3Z" fill="#007BFF"/>
<path opacity="0.12" d="M425 434H210.6V484H425V434Z" fill="#007BFF"/>
<path opacity="0.12" d="M131 952H88.6001V1002H131V952Z" fill="#007BFF"/>
<path opacity="0.12" d="M309 952H170.1V1002H309V952Z" fill="#007BFF"/>
<path opacity="0.12" d="M430.1 952H347.2V1002H430.1V952Z" fill="#007BFF"/>
<path opacity="0.12" d="M430.2 1050H259V1100H430.2V1050Z" fill="#007BFF"/>
<path opacity="0.12" d="M220.2 1050H88.6001V1100H220.2V1050Z" fill="#007BFF"/>
<path opacity="0.12" d="M326.5 1158H93.1001V1320H326.5V1158Z" fill="#007BFF"/>
<path opacity="0.12" d="M435.1 1158H366.6V1208H435.1V1158Z" fill="#007BFF"/>
<path opacity="0.12" d="M435 1270H371.9V1320H435V1270Z" fill="#007BFF"/>
<path opacity="0.12" d="M423 116H340.1V166H423V116Z" fill="#007BFF"/>
<path d="M212.9 1301.3C249.019 1301.3 278.3 1272.02 278.3 1235.9C278.3 1199.78 249.019 1170.5 212.9 1170.5C176.781 1170.5 147.5 1199.78 147.5 1235.9C147.5 1272.02 176.781 1301.3 212.9 1301.3Z" stroke="#007BFF" stroke-width="4" stroke-miterlimit="10" stroke-linecap="round" stroke-linejoin="round"/>
<path d="M1388.5 221.7H1216V271.7H1388.5V221.7Z" stroke="#007BFF" stroke-width="4" stroke-miterlimit="10" stroke-linecap="round" stroke-linejoin="round"/>
<path d="M1009.3 110.8L1016.8 125.3C1018.4 128.3 1017.3 132 1014.2 133.5L999.7 141" stroke="#007BFF" stroke-width="4" stroke-miterlimit="10" stroke-linecap="round"/>
<path d="M439 141C567 52 878 65 1011.3 128" stroke="#007BFF" stroke-width="4" stroke-miterlimit="10" stroke-linecap="round"/>
<path d="M156.8 844.3L148.6 858.4C146.9 861.4 143.2 862.3 140.3 860.6L126.2 852.4" stroke="#007BFF" stroke-width="4" stroke-miterlimit="10" stroke-linecap="round"/>
<path d="M143.2 855.3C125.7 812.9 113.9 753.7 108.8 688.4" stroke="#007BFF" stroke-width="4" stroke-miterlimit="10" stroke-linecap="round"/>
<path d="M1098.7 521.3L1113.6 514.8C1116.7 513.4 1120.3 514.7 1121.6 517.7L1128.3 532.1" stroke="#007BFF" stroke-width="4" stroke-miterlimit="10" stroke-linecap="round"/>
<path d="M1116.1 520.4C1006.1 855 805.1 1074.2 506.6 1189.5" stroke="#007BFF" stroke-width="4" stroke-miterlimit="10" stroke-linecap="round"/>
<path d="M462.4 392.2L454.9 377.7C453.3 374.7 454.4 371 457.5 369.5L472 362" stroke="#007BFF" stroke-width="4" stroke-miterlimit="10" stroke-linecap="round"/>
<path d="M1197.4 285C991.7 371 694 392.2 460.4 375" stroke="#007BFF" stroke-width="4" stroke-miterlimit="10" stroke-linecap="round"/>
<path d="M191.9 1265.2V1204.6L246.5 1235.9L191.9 1265.2Z" fill="#007BFF"/>
<path d="M103.684 283.98H106.936V303H103.684V289.131L94.9121 303H91.6602V283.98H94.9121V297.867L103.684 283.98ZM118.08 294.896H115.707V303H112.438V283.98H115.707V292.031H117.834L124.232 283.98H128.17L120.646 293.121L128.803 303H124.672L118.08 294.896ZM130.35 293.314C130.35 291.451 130.713 289.775 131.439 288.287C132.178 286.799 133.197 285.65 134.498 284.842C135.811 284.033 137.305 283.629 138.98 283.629C141.57 283.629 143.662 284.525 145.256 286.318C146.861 288.111 147.664 290.496 147.664 293.473V293.701C147.664 295.553 147.307 297.217 146.592 298.693C145.889 300.158 144.875 301.301 143.551 302.121C142.238 302.941 140.727 303.352 139.016 303.352C136.438 303.352 134.346 302.455 132.74 300.662C131.146 298.869 130.35 296.496 130.35 293.543V293.314ZM133.619 293.701C133.619 295.811 134.105 297.504 135.078 298.781C136.062 300.059 137.375 300.697 139.016 300.697C140.668 300.697 141.98 300.053 142.953 298.764C143.926 297.463 144.412 295.646 144.412 293.314C144.412 291.229 143.914 289.541 142.918 288.252C141.934 286.951 140.621 286.301 138.98 286.301C137.375 286.301 136.08 286.939 135.096 288.217C134.111 289.494 133.619 291.322 133.619 293.701ZM167.281 303H164.029V294.879H155.293V303H152.023V283.98H155.293V292.225H164.029V283.98H167.281V303ZM178.443 294.896H176.07V303H172.801V283.98H176.07V292.031H178.197L184.596 283.98H188.533L181.01 293.121L189.166 303H185.035L178.443 294.896ZM203.703 303C203.516 302.625 203.363 301.957 203.246 300.996C201.734 302.566 199.93 303.352 197.832 303.352C195.957 303.352 194.416 302.824 193.209 301.77C192.014 300.703 191.416 299.355 191.416 297.727C191.416 295.746 192.166 294.211 193.666 293.121C195.178 292.02 197.299 291.469 200.029 291.469H203.193V289.975C203.193 288.838 202.854 287.936 202.174 287.268C201.494 286.588 200.492 286.248 199.168 286.248C198.008 286.248 197.035 286.541 196.25 287.127C195.465 287.713 195.072 288.422 195.072 289.254H191.803C191.803 288.305 192.137 287.391 192.805 286.512C193.484 285.621 194.398 284.918 195.547 284.402C196.707 283.887 197.979 283.629 199.361 283.629C201.553 283.629 203.27 284.18 204.512 285.281C205.754 286.371 206.398 287.877 206.445 289.799V298.553C206.445 300.299 206.668 301.688 207.113 302.719V303H203.703ZM198.307 300.521C199.326 300.521 200.293 300.258 201.207 299.73C202.121 299.203 202.783 298.518 203.193 297.674V293.771H200.645C196.66 293.771 194.668 294.938 194.668 297.27C194.668 298.289 195.008 299.086 195.688 299.66C196.367 300.234 197.24 300.521 198.307 300.521Z" fill="black"/>
<path d="M143.801 621V601.98H151.219C153.75 601.98 155.689 602.426 157.037 603.316C158.396 604.195 159.076 605.49 159.076 607.201C159.076 608.08 158.812 608.877 158.285 609.592C157.758 610.295 156.979 610.834 155.947 611.209C157.096 611.479 158.016 612.006 158.707 612.791C159.41 613.576 159.762 614.514 159.762 615.604C159.762 617.35 159.117 618.686 157.828 619.611C156.551 620.537 154.74 621 152.396 621H143.801ZM147.053 612.65V618.381H152.432C153.791 618.381 154.805 618.129 155.473 617.625C156.152 617.121 156.492 616.412 156.492 615.498C156.492 613.6 155.098 612.65 152.309 612.65H147.053ZM147.053 610.049H151.254C154.301 610.049 155.824 609.158 155.824 607.377C155.824 605.596 154.383 604.676 151.5 604.617H147.053V610.049ZM171.961 621.352C169.383 621.352 167.285 620.508 165.668 618.82C164.051 617.121 163.242 614.854 163.242 612.018V611.42C163.242 609.533 163.6 607.852 164.314 606.375C165.041 604.887 166.049 603.727 167.338 602.895C168.639 602.051 170.045 601.629 171.557 601.629C174.029 601.629 175.951 602.443 177.322 604.072C178.693 605.701 179.379 608.033 179.379 611.068V612.422H166.494C166.541 614.297 167.086 615.814 168.129 616.975C169.184 618.123 170.52 618.697 172.137 618.697C173.285 618.697 174.258 618.463 175.055 617.994C175.852 617.525 176.549 616.904 177.146 616.131L179.133 617.678C177.539 620.127 175.148 621.352 171.961 621.352ZM171.557 604.301C170.244 604.301 169.143 604.781 168.252 605.742C167.361 606.691 166.811 608.027 166.6 609.75H176.127V609.504C176.033 607.852 175.588 606.574 174.791 605.672C173.994 604.758 172.916 604.301 171.557 604.301ZM191.508 603.07C193.898 603.07 195.809 603.873 197.238 605.479C198.68 607.072 199.4 609.176 199.4 611.789V612.088C199.4 613.881 199.055 615.486 198.363 616.904C197.672 618.311 196.676 619.406 195.375 620.191C194.086 620.965 192.598 621.352 190.91 621.352C188.355 621.352 186.299 620.502 184.74 618.803C183.182 617.092 182.402 614.801 182.402 611.93V610.348C182.402 606.352 183.141 603.176 184.617 600.82C186.105 598.465 188.297 597.029 191.191 596.514C192.832 596.221 193.939 595.863 194.514 595.441C195.088 595.02 195.375 594.439 195.375 593.701H198.047C198.047 595.166 197.713 596.309 197.045 597.129C196.389 597.949 195.334 598.529 193.881 598.869L191.455 599.414C189.521 599.871 188.068 600.645 187.096 601.734C186.135 602.812 185.508 604.254 185.215 606.059C186.938 604.066 189.035 603.07 191.508 603.07ZM190.875 605.742C189.281 605.742 188.016 606.281 187.078 607.359C186.141 608.426 185.672 609.908 185.672 611.807V612.088C185.672 614.127 186.141 615.744 187.078 616.939C188.027 618.123 189.305 618.715 190.91 618.715C192.527 618.715 193.805 618.117 194.742 616.922C195.68 615.727 196.148 613.98 196.148 611.684C196.148 609.891 195.674 608.455 194.725 607.377C193.787 606.287 192.504 605.742 190.875 605.742ZM209.824 611.455H201.246V608.801H209.824V611.455ZM220.635 618.697C221.795 618.697 222.809 618.346 223.676 617.643C224.543 616.939 225.023 616.061 225.117 615.006H228.193C228.135 616.096 227.76 617.133 227.068 618.117C226.377 619.102 225.451 619.887 224.291 620.473C223.143 621.059 221.924 621.352 220.635 621.352C218.045 621.352 215.982 620.49 214.447 618.768C212.924 617.033 212.162 614.666 212.162 611.666V611.121C212.162 609.27 212.502 607.623 213.182 606.182C213.861 604.74 214.834 603.621 216.1 602.824C217.377 602.027 218.883 601.629 220.617 601.629C222.75 601.629 224.52 602.268 225.926 603.545C227.344 604.822 228.1 606.48 228.193 608.52H225.117C225.023 607.289 224.555 606.281 223.711 605.496C222.879 604.699 221.848 604.301 220.617 604.301C218.965 604.301 217.682 604.898 216.768 606.094C215.865 607.277 215.414 608.994 215.414 611.244V611.859C215.414 614.051 215.865 615.738 216.768 616.922C217.67 618.105 218.959 618.697 220.635 618.697ZM245.982 604.617H239.602V621H236.35V604.617H230.092V601.98H245.982V604.617ZM265.213 611.701C265.213 614.596 264.551 616.928 263.227 618.697C261.902 620.467 260.109 621.352 257.848 621.352C255.539 621.352 253.723 620.619 252.398 619.154V628.312H249.146V601.98H252.117L252.275 604.09C253.6 602.449 255.439 601.629 257.795 601.629C260.08 601.629 261.885 602.49 263.209 604.213C264.545 605.936 265.213 608.332 265.213 611.402V611.701ZM261.961 611.332C261.961 609.188 261.504 607.494 260.59 606.252C259.676 605.01 258.422 604.389 256.828 604.389C254.859 604.389 253.383 605.262 252.398 607.008V616.096C253.371 617.83 254.859 618.697 256.863 618.697C258.422 618.697 259.658 618.082 260.572 616.852C261.498 615.609 261.961 613.77 261.961 611.332ZM281.104 621C280.916 620.625 280.764 619.957 280.646 618.996C279.135 620.566 277.33 621.352 275.232 621.352C273.357 621.352 271.816 620.824 270.609 619.77C269.414 618.703 268.816 617.355 268.816 615.727C268.816 613.746 269.566 612.211 271.066 611.121C272.578 610.02 274.699 609.469 277.43 609.469H280.594V607.975C280.594 606.838 280.254 605.936 279.574 605.268C278.895 604.588 277.893 604.248 276.568 604.248C275.408 604.248 274.436 604.541 273.65 605.127C272.865 605.713 272.473 606.422 272.473 607.254H269.203C269.203 606.305 269.537 605.391 270.205 604.512C270.885 603.621 271.799 602.918 272.947 602.402C274.107 601.887 275.379 601.629 276.762 601.629C278.953 601.629 280.67 602.18 281.912 603.281C283.154 604.371 283.799 605.877 283.846 607.799V616.553C283.846 618.299 284.068 619.688 284.514 620.719V621H281.104ZM275.707 618.521C276.727 618.521 277.693 618.258 278.607 617.73C279.521 617.203 280.184 616.518 280.594 615.674V611.771H278.045C274.061 611.771 272.068 612.938 272.068 615.27C272.068 616.289 272.408 617.086 273.088 617.66C273.768 618.234 274.641 618.521 275.707 618.521ZM304.482 621H301.23V612.879H292.494V621H289.225V601.98H292.494V610.225H301.23V601.98H304.482V621ZM322.025 601.98H325.277V621H322.025V607.131L313.254 621H310.002V601.98H313.254V615.867L322.025 601.98ZM330.779 601.98H334.049V618.346H342.803V601.98H346.055V618.346H348.322L348.006 626.643H345.088V621H330.779V601.98ZM363.58 621C363.393 620.625 363.24 619.957 363.123 618.996C361.611 620.566 359.807 621.352 357.709 621.352C355.834 621.352 354.293 620.824 353.086 619.77C351.891 618.703 351.293 617.355 351.293 615.727C351.293 613.746 352.043 612.211 353.543 611.121C355.055 610.02 357.176 609.469 359.906 609.469H363.07V607.975C363.07 606.838 362.73 605.936 362.051 605.268C361.371 604.588 360.369 604.248 359.045 604.248C357.885 604.248 356.912 604.541 356.127 605.127C355.342 605.713 354.949 606.422 354.949 607.254H351.68C351.68 606.305 352.014 605.391 352.682 604.512C353.361 603.621 354.275 602.918 355.424 602.402C356.584 601.887 357.855 601.629 359.238 601.629C361.43 601.629 363.146 602.18 364.389 603.281C365.631 604.371 366.275 605.877 366.322 607.799V616.553C366.322 618.299 366.545 619.688 366.99 620.719V621H363.58ZM358.184 618.521C359.203 618.521 360.17 618.258 361.084 617.73C361.998 617.203 362.66 616.518 363.07 615.674V611.771H360.521C356.537 611.771 354.545 612.938 354.545 615.27C354.545 616.289 354.885 617.086 355.564 617.66C356.244 618.234 357.117 618.521 358.184 618.521Z" fill="black"/>
<path d="M1106.8 611V591.98H1114.22C1116.75 591.98 1118.69 592.426 1120.04 593.316C1121.4 594.195 1122.08 595.49 1122.08 597.201C1122.08 598.08 1121.81 598.877 1121.29 599.592C1120.76 600.295 1119.98 600.834 1118.95 601.209C1120.1 601.479 1121.02 602.006 1121.71 602.791C1122.41 603.576 1122.76 604.514 1122.76 605.604C1122.76 607.35 1122.12 608.686 1120.83 609.611C1119.55 610.537 1117.74 611 1115.4 611H1106.8ZM1110.05 602.65V608.381H1115.43C1116.79 608.381 1117.8 608.129 1118.47 607.625C1119.15 607.121 1119.49 606.412 1119.49 605.498C1119.49 603.6 1118.1 602.65 1115.31 602.65H1110.05ZM1110.05 600.049H1114.25C1117.3 600.049 1118.82 599.158 1118.82 597.377C1118.82 595.596 1117.38 594.676 1114.5 594.617H1110.05V600.049ZM1134.96 611.352C1132.38 611.352 1130.29 610.508 1128.67 608.82C1127.05 607.121 1126.24 604.854 1126.24 602.018V601.42C1126.24 599.533 1126.6 597.852 1127.31 596.375C1128.04 594.887 1129.05 593.727 1130.34 592.895C1131.64 592.051 1133.04 591.629 1134.56 591.629C1137.03 591.629 1138.95 592.443 1140.32 594.072C1141.69 595.701 1142.38 598.033 1142.38 601.068V602.422H1129.49C1129.54 604.297 1130.09 605.814 1131.13 606.975C1132.18 608.123 1133.52 608.697 1135.14 608.697C1136.29 608.697 1137.26 608.463 1138.05 607.994C1138.85 607.525 1139.55 606.904 1140.15 606.131L1142.13 607.678C1140.54 610.127 1138.15 611.352 1134.96 611.352ZM1134.56 594.301C1133.24 594.301 1132.14 594.781 1131.25 595.742C1130.36 596.691 1129.81 598.027 1129.6 599.75H1139.13V599.504C1139.03 597.852 1138.59 596.574 1137.79 595.672C1136.99 594.758 1135.92 594.301 1134.56 594.301ZM1154.51 593.07C1156.9 593.07 1158.81 593.873 1160.24 595.479C1161.68 597.072 1162.4 599.176 1162.4 601.789V602.088C1162.4 603.881 1162.05 605.486 1161.36 606.904C1160.67 608.311 1159.68 609.406 1158.38 610.191C1157.09 610.965 1155.6 611.352 1153.91 611.352C1151.36 611.352 1149.3 610.502 1147.74 608.803C1146.18 607.092 1145.4 604.801 1145.4 601.93V600.348C1145.4 596.352 1146.14 593.176 1147.62 590.82C1149.11 588.465 1151.3 587.029 1154.19 586.514C1155.83 586.221 1156.94 585.863 1157.51 585.441C1158.09 585.02 1158.38 584.439 1158.38 583.701H1161.05C1161.05 585.166 1160.71 586.309 1160.04 587.129C1159.39 587.949 1158.33 588.529 1156.88 588.869L1154.46 589.414C1152.52 589.871 1151.07 590.645 1150.1 591.734C1149.13 592.812 1148.51 594.254 1148.21 596.059C1149.94 594.066 1152.04 593.07 1154.51 593.07ZM1153.88 595.742C1152.28 595.742 1151.02 596.281 1150.08 597.359C1149.14 598.426 1148.67 599.908 1148.67 601.807V602.088C1148.67 604.127 1149.14 605.744 1150.08 606.939C1151.03 608.123 1152.3 608.715 1153.91 608.715C1155.53 608.715 1156.8 608.117 1157.74 606.922C1158.68 605.727 1159.15 603.98 1159.15 601.684C1159.15 599.891 1158.67 598.455 1157.72 597.377C1156.79 596.287 1155.5 595.742 1153.88 595.742ZM1172.82 601.455H1164.25V598.801H1172.82V601.455ZM1183.63 608.697C1184.79 608.697 1185.81 608.346 1186.68 607.643C1187.54 606.939 1188.02 606.061 1188.12 605.006H1191.19C1191.13 606.096 1190.76 607.133 1190.07 608.117C1189.38 609.102 1188.45 609.887 1187.29 610.473C1186.14 611.059 1184.92 611.352 1183.63 611.352C1181.04 611.352 1178.98 610.49 1177.45 608.768C1175.92 607.033 1175.16 604.666 1175.16 601.666V601.121C1175.16 599.27 1175.5 597.623 1176.18 596.182C1176.86 594.74 1177.83 593.621 1179.1 592.824C1180.38 592.027 1181.88 591.629 1183.62 591.629C1185.75 591.629 1187.52 592.268 1188.93 593.545C1190.34 594.822 1191.1 596.48 1191.19 598.52H1188.12C1188.02 597.289 1187.55 596.281 1186.71 595.496C1185.88 594.699 1184.85 594.301 1183.62 594.301C1181.96 594.301 1180.68 594.898 1179.77 596.094C1178.87 597.277 1178.41 598.994 1178.41 601.244V601.859C1178.41 604.051 1178.87 605.738 1179.77 606.922C1180.67 608.105 1181.96 608.697 1183.63 608.697ZM1208.98 594.617H1202.6V611H1199.35V594.617H1193.09V591.98H1208.98V594.617ZM1228.21 601.701C1228.21 604.596 1227.55 606.928 1226.23 608.697C1224.9 610.467 1223.11 611.352 1220.85 611.352C1218.54 611.352 1216.72 610.619 1215.4 609.154V618.312H1212.15V591.98H1215.12L1215.28 594.09C1216.6 592.449 1218.44 591.629 1220.79 591.629C1223.08 591.629 1224.88 592.49 1226.21 594.213C1227.54 595.936 1228.21 598.332 1228.21 601.402V601.701ZM1224.96 601.332C1224.96 599.188 1224.5 597.494 1223.59 596.252C1222.68 595.01 1221.42 594.389 1219.83 594.389C1217.86 594.389 1216.38 595.262 1215.4 597.008V606.096C1216.37 607.83 1217.86 608.697 1219.86 608.697C1221.42 608.697 1222.66 608.082 1223.57 606.852C1224.5 605.609 1224.96 603.77 1224.96 601.332ZM1244.1 611C1243.92 610.625 1243.76 609.957 1243.65 608.996C1242.13 610.566 1240.33 611.352 1238.23 611.352C1236.36 611.352 1234.82 610.824 1233.61 609.77C1232.41 608.703 1231.82 607.355 1231.82 605.727C1231.82 603.746 1232.57 602.211 1234.07 601.121C1235.58 600.02 1237.7 599.469 1240.43 599.469H1243.59V597.975C1243.59 596.838 1243.25 595.936 1242.57 595.268C1241.89 594.588 1240.89 594.248 1239.57 594.248C1238.41 594.248 1237.44 594.541 1236.65 595.127C1235.87 595.713 1235.47 596.422 1235.47 597.254H1232.2C1232.2 596.305 1232.54 595.391 1233.21 594.512C1233.88 593.621 1234.8 592.918 1235.95 592.402C1237.11 591.887 1238.38 591.629 1239.76 591.629C1241.95 591.629 1243.67 592.18 1244.91 593.281C1246.15 594.371 1246.8 595.877 1246.85 597.799V606.553C1246.85 608.299 1247.07 609.688 1247.51 610.719V611H1244.1ZM1238.71 608.521C1239.73 608.521 1240.69 608.258 1241.61 607.73C1242.52 607.203 1243.18 606.518 1243.59 605.674V601.771H1241.04C1237.06 601.771 1235.07 602.938 1235.07 605.27C1235.07 606.289 1235.41 607.086 1236.09 607.66C1236.77 608.234 1237.64 608.521 1238.71 608.521ZM1267.48 611H1264.23V602.879H1255.49V611H1252.22V591.98H1255.49V600.225H1264.23V591.98H1267.48V611ZM1285.03 591.98H1288.28V611H1285.03V597.131L1276.25 611H1273V591.98H1276.25V605.867L1285.03 591.98ZM1293.78 591.98H1297.05V608.346H1305.8V591.98H1309.05V608.346H1311.32L1311.01 616.643H1308.09V611H1293.78V591.98ZM1326.58 611C1326.39 610.625 1326.24 609.957 1326.12 608.996C1324.61 610.566 1322.81 611.352 1320.71 611.352C1318.83 611.352 1317.29 610.824 1316.09 609.77C1314.89 608.703 1314.29 607.355 1314.29 605.727C1314.29 603.746 1315.04 602.211 1316.54 601.121C1318.05 600.02 1320.18 599.469 1322.91 599.469H1326.07V597.975C1326.07 596.838 1325.73 595.936 1325.05 595.268C1324.37 594.588 1323.37 594.248 1322.04 594.248C1320.88 594.248 1319.91 594.541 1319.13 595.127C1318.34 595.713 1317.95 596.422 1317.95 597.254H1314.68C1314.68 596.305 1315.01 595.391 1315.68 594.512C1316.36 593.621 1317.28 592.918 1318.42 592.402C1319.58 591.887 1320.86 591.629 1322.24 591.629C1324.43 591.629 1326.15 592.18 1327.39 593.281C1328.63 594.371 1329.28 595.877 1329.32 597.799V606.553C1329.32 608.299 1329.54 609.688 1329.99 610.719V611H1326.58ZM1321.18 608.521C1322.2 608.521 1323.17 608.258 1324.08 607.73C1325 607.203 1325.66 606.518 1326.07 605.674V601.771H1323.52C1319.54 601.771 1317.54 602.938 1317.54 605.27C1317.54 606.289 1317.88 607.086 1318.56 607.66C1319.24 608.234 1320.12 608.521 1321.18 608.521Z" fill="black"/>
<path d="M142.801 1453V1433.98H150.219C152.75 1433.98 154.689 1434.43 156.037 1435.32C157.396 1436.2 158.076 1437.49 158.076 1439.2C158.076 1440.08 157.812 1440.88 157.285 1441.59C156.758 1442.29 155.979 1442.83 154.947 1443.21C156.096 1443.48 157.016 1444.01 157.707 1444.79C158.41 1445.58 158.762 1446.51 158.762 1447.6C158.762 1449.35 158.117 1450.69 156.828 1451.61C155.551 1452.54 153.74 1453 151.396 1453H142.801ZM146.053 1444.65V1450.38H151.432C152.791 1450.38 153.805 1450.13 154.473 1449.62C155.152 1449.12 155.492 1448.41 155.492 1447.5C155.492 1445.6 154.098 1444.65 151.309 1444.65H146.053ZM146.053 1442.05H150.254C153.301 1442.05 154.824 1441.16 154.824 1439.38C154.824 1437.6 153.383 1436.68 150.5 1436.62H146.053V1442.05ZM170.961 1453.35C168.383 1453.35 166.285 1452.51 164.668 1450.82C163.051 1449.12 162.242 1446.85 162.242 1444.02V1443.42C162.242 1441.53 162.6 1439.85 163.314 1438.38C164.041 1436.89 165.049 1435.73 166.338 1434.89C167.639 1434.05 169.045 1433.63 170.557 1433.63C173.029 1433.63 174.951 1434.44 176.322 1436.07C177.693 1437.7 178.379 1440.03 178.379 1443.07V1444.42H165.494C165.541 1446.3 166.086 1447.81 167.129 1448.97C168.184 1450.12 169.52 1450.7 171.137 1450.7C172.285 1450.7 173.258 1450.46 174.055 1449.99C174.852 1449.53 175.549 1448.9 176.146 1448.13L178.133 1449.68C176.539 1452.13 174.148 1453.35 170.961 1453.35ZM170.557 1436.3C169.244 1436.3 168.143 1436.78 167.252 1437.74C166.361 1438.69 165.811 1440.03 165.6 1441.75H175.127V1441.5C175.033 1439.85 174.588 1438.57 173.791 1437.67C172.994 1436.76 171.916 1436.3 170.557 1436.3ZM190.508 1435.07C192.898 1435.07 194.809 1435.87 196.238 1437.48C197.68 1439.07 198.4 1441.18 198.4 1443.79V1444.09C198.4 1445.88 198.055 1447.49 197.363 1448.9C196.672 1450.31 195.676 1451.41 194.375 1452.19C193.086 1452.96 191.598 1453.35 189.91 1453.35C187.355 1453.35 185.299 1452.5 183.74 1450.8C182.182 1449.09 181.402 1446.8 181.402 1443.93V1442.35C181.402 1438.35 182.141 1435.18 183.617 1432.82C185.105 1430.46 187.297 1429.03 190.191 1428.51C191.832 1428.22 192.939 1427.86 193.514 1427.44C194.088 1427.02 194.375 1426.44 194.375 1425.7H197.047C197.047 1427.17 196.713 1428.31 196.045 1429.13C195.389 1429.95 194.334 1430.53 192.881 1430.87L190.455 1431.41C188.521 1431.87 187.068 1432.64 186.096 1433.73C185.135 1434.81 184.508 1436.25 184.215 1438.06C185.938 1436.07 188.035 1435.07 190.508 1435.07ZM189.875 1437.74C188.281 1437.74 187.016 1438.28 186.078 1439.36C185.141 1440.43 184.672 1441.91 184.672 1443.81V1444.09C184.672 1446.13 185.141 1447.74 186.078 1448.94C187.027 1450.12 188.305 1450.71 189.91 1450.71C191.527 1450.71 192.805 1450.12 193.742 1448.92C194.68 1447.73 195.148 1445.98 195.148 1443.68C195.148 1441.89 194.674 1440.46 193.725 1439.38C192.787 1438.29 191.504 1437.74 189.875 1437.74ZM208.824 1443.46H200.246V1440.8H208.824V1443.46ZM219.635 1450.7C220.795 1450.7 221.809 1450.35 222.676 1449.64C223.543 1448.94 224.023 1448.06 224.117 1447.01H227.193C227.135 1448.1 226.76 1449.13 226.068 1450.12C225.377 1451.1 224.451 1451.89 223.291 1452.47C222.143 1453.06 220.924 1453.35 219.635 1453.35C217.045 1453.35 214.982 1452.49 213.447 1450.77C211.924 1449.03 211.162 1446.67 211.162 1443.67V1443.12C211.162 1441.27 211.502 1439.62 212.182 1438.18C212.861 1436.74 213.834 1435.62 215.1 1434.82C216.377 1434.03 217.883 1433.63 219.617 1433.63C221.75 1433.63 223.52 1434.27 224.926 1435.54C226.344 1436.82 227.1 1438.48 227.193 1440.52H224.117C224.023 1439.29 223.555 1438.28 222.711 1437.5C221.879 1436.7 220.848 1436.3 219.617 1436.3C217.965 1436.3 216.682 1436.9 215.768 1438.09C214.865 1439.28 214.414 1440.99 214.414 1443.24V1443.86C214.414 1446.05 214.865 1447.74 215.768 1448.92C216.67 1450.11 217.959 1450.7 219.635 1450.7ZM244.982 1436.62H238.602V1453H235.35V1436.62H229.092V1433.98H244.982V1436.62ZM264.213 1443.7C264.213 1446.6 263.551 1448.93 262.227 1450.7C260.902 1452.47 259.109 1453.35 256.848 1453.35C254.539 1453.35 252.723 1452.62 251.398 1451.15V1460.31H248.146V1433.98H251.117L251.275 1436.09C252.6 1434.45 254.439 1433.63 256.795 1433.63C259.08 1433.63 260.885 1434.49 262.209 1436.21C263.545 1437.94 264.213 1440.33 264.213 1443.4V1443.7ZM260.961 1443.33C260.961 1441.19 260.504 1439.49 259.59 1438.25C258.676 1437.01 257.422 1436.39 255.828 1436.39C253.859 1436.39 252.383 1437.26 251.398 1439.01V1448.1C252.371 1449.83 253.859 1450.7 255.863 1450.7C257.422 1450.7 258.658 1450.08 259.572 1448.85C260.498 1447.61 260.961 1445.77 260.961 1443.33ZM280.104 1453C279.916 1452.62 279.764 1451.96 279.646 1451C278.135 1452.57 276.33 1453.35 274.232 1453.35C272.357 1453.35 270.816 1452.82 269.609 1451.77C268.414 1450.7 267.816 1449.36 267.816 1447.73C267.816 1445.75 268.566 1444.21 270.066 1443.12C271.578 1442.02 273.699 1441.47 276.43 1441.47H279.594V1439.97C279.594 1438.84 279.254 1437.94 278.574 1437.27C277.895 1436.59 276.893 1436.25 275.568 1436.25C274.408 1436.25 273.436 1436.54 272.65 1437.13C271.865 1437.71 271.473 1438.42 271.473 1439.25H268.203C268.203 1438.3 268.537 1437.39 269.205 1436.51C269.885 1435.62 270.799 1434.92 271.947 1434.4C273.107 1433.89 274.379 1433.63 275.762 1433.63C277.953 1433.63 279.67 1434.18 280.912 1435.28C282.154 1436.37 282.799 1437.88 282.846 1439.8V1448.55C282.846 1450.3 283.068 1451.69 283.514 1452.72V1453H280.104ZM274.707 1450.52C275.727 1450.52 276.693 1450.26 277.607 1449.73C278.521 1449.2 279.184 1448.52 279.594 1447.67V1443.77H277.045C273.061 1443.77 271.068 1444.94 271.068 1447.27C271.068 1448.29 271.408 1449.09 272.088 1449.66C272.768 1450.23 273.641 1450.52 274.707 1450.52ZM303.482 1453H300.23V1444.88H291.494V1453H288.225V1433.98H291.494V1442.22H300.23V1433.98H303.482V1453ZM321.025 1433.98H324.277V1453H321.025V1439.13L312.254 1453H309.002V1433.98H312.254V1447.87L321.025 1433.98ZM329.779 1433.98H333.049V1450.35H341.803V1433.98H345.055V1450.35H347.322L347.006 1458.64H344.088V1453H329.779V1433.98ZM362.58 1453C362.393 1452.62 362.24 1451.96 362.123 1451C360.611 1452.57 358.807 1453.35 356.709 1453.35C354.834 1453.35 353.293 1452.82 352.086 1451.77C350.891 1450.7 350.293 1449.36 350.293 1447.73C350.293 1445.75 351.043 1444.21 352.543 1443.12C354.055 1442.02 356.176 1441.47 358.906 1441.47H362.07V1439.97C362.07 1438.84 361.73 1437.94 361.051 1437.27C360.371 1436.59 359.369 1436.25 358.045 1436.25C356.885 1436.25 355.912 1436.54 355.127 1437.13C354.342 1437.71 353.949 1438.42 353.949 1439.25H350.68C350.68 1438.3 351.014 1437.39 351.682 1436.51C352.361 1435.62 353.275 1434.92 354.424 1434.4C355.584 1433.89 356.855 1433.63 358.238 1433.63C360.43 1433.63 362.146 1434.18 363.389 1435.28C364.631 1436.37 365.275 1437.88 365.322 1439.8V1448.55C365.322 1450.3 365.545 1451.69 365.99 1452.72V1453H362.58ZM357.184 1450.52C358.203 1450.52 359.17 1450.26 360.084 1449.73C360.998 1449.2 361.66 1448.52 362.07 1447.67V1443.77H359.521C355.537 1443.77 353.545 1444.94 353.545 1447.27C353.545 1448.29 353.885 1449.09 354.564 1449.66C355.244 1450.23 356.117 1450.52 357.184 1450.52Z" fill="black"/>
</svg>
