<svg fill="none" height="1544" viewBox="0 0 1474 1544" width="1474" xmlns="http://www.w3.org/2000/svg"><path d="m214.3 214h-130.3v157h130.3z" fill="#007bff" opacity=".12"/><path d="m466.1 671.9h-422.2c-11 0-19.9-10.8-19.9-24.2v-579.5c0-13.4 8.9-24.2 19.9-24.2h422.2c11 0 19.9 10.8 19.9 24.2v579.5c0 13.4-8.9 24.2-19.9 24.2z" stroke="#007bff" stroke-linecap="round" stroke-linejoin="round" stroke-miterlimit="10" stroke-width="4"/><path d="m847.1 1341.8h-422.2c-11 0-19.9-10.8-19.9-24.2v-579.4c0-13.4 8.9-24.2 19.9-24.2h422.2c11 0 19.9 10.8 19.9 24.2v579.5c0 13.3-8.9 24.1-19.9 24.1z" stroke="#007bff" stroke-linecap="round" stroke-linejoin="round" stroke-miterlimit="10" stroke-width="4"/><path d="m1427.1 671.9h-422.2c-11 0-19.9-10.8-19.9-24.2v-579.5c0-13.4 8.9-24.2 19.9-24.2h422.2c11 0 19.9 10.8 19.9 24.2v579.5c0 13.4-8.9 24.2-19.9 24.2z" stroke="#007bff" stroke-linecap="round" stroke-linejoin="round" stroke-miterlimit="10" stroke-width="4"/><path d="m127 116h-43v50h43z" fill="#007bff" opacity=".12"/><path d="m322.6 321h-63.6v50h63.6z" fill="#007bff" opacity=".12"/><path d="m425 321h-63.6v50h63.6z" fill="#007bff" opacity=".12"/><path d="m302.6 116h-136.1v50h136.1z" fill="#007bff" opacity=".12"/><path d="m171.7 434h-84.2v50h84.2z" fill="#007bff" opacity=".12"/><path d="m171.6 434h-84.1v50h84.1z" stroke="#007bff" stroke-linecap="round" stroke-linejoin="round" stroke-miterlimit="10" stroke-width="4"/><path d="m815.8 996.4h-67.9v50h67.9z" stroke="#007bff" stroke-linecap="round" stroke-linejoin="round" stroke-miterlimit="10" stroke-width="4"/><path d="m100.3 259.3v-27.3h21.4" stroke="#007bff" stroke-linecap="round" stroke-linejoin="round" stroke-miterlimit="10" stroke-width="4"/><path d="m180.7 232h22.2v27.3" stroke="#007bff" stroke-linecap="round" stroke-linejoin="round" stroke-miterlimit="10" stroke-width="4"/><path d="m100.3 321.9v27.3h21.4" stroke="#007bff" stroke-linecap="round" stroke-linejoin="round" stroke-miterlimit="10" stroke-width="4"/><path d="m180.7 349.2h22.2v-27.3" stroke="#007bff" stroke-linecap="round" stroke-linejoin="round" stroke-miterlimit="10" stroke-width="4"/><path d="m423 116h-82.9v50h82.9z" stroke="#007bff" stroke-linecap="round" stroke-linejoin="round" stroke-miterlimit="10" stroke-width="4"/><g fill="#007bff"><path d="m425 214h-170v50h170z" opacity=".12"/><path d="m1266.5 121h-138.2v50h138.2z" opacity=".12"/><path d="m1089 121h-43.3v50h43.3z" opacity=".12"/><path d="m1388.5 121h-82.6v50h82.6z" opacity=".12"/><path d="m1178.2 219.7h-132.5v50h132.5z" opacity=".12"/><path d="m1388.5 219.7h-171.5v50h171.5z" opacity=".12"/><path d="m1285.7 326h-234.7v50h234.7z" opacity=".12"/><path d="m1393.3 326h-69v50h69z" opacity=".12"/><path d="m1393.3 439.3h-220.3v50h220.3z" opacity=".12"/><path d="m1134.6 439.3h-83.6v50h83.6z" opacity=".12"/><path d="m425 434h-214.4v50h214.4z" opacity=".12"/><path d="m512 790.4h-42.4v50h42.4z" opacity=".12"/><path d="m690 790.4h-138.9v50h138.9z" opacity=".12"/><path d="m811.1 790.4h-82.9v50h82.9z" opacity=".12"/><path d="m811.2 888.4h-171.2v50h171.2z" opacity=".12"/><path d="m601.2 888.4h-131.6v50h131.6z" opacity=".12"/><path d="m707.5 996.4h-233.4v162h233.4z" opacity=".12"/><path d="m816.1 996.4h-68.5v50h68.5z" opacity=".12"/><path d="m816 1108.4h-63.1v50h63.1z" opacity=".12"/><path d="m423 116h-82.9v50h82.9z" opacity=".12"/></g><path d="m593.9 1139.7c36.119 0 65.4-29.28 65.4-65.4s-29.281-65.4-65.4-65.4-65.4 29.28-65.4 65.4 29.281 65.4 65.4 65.4z" stroke="#007bff" stroke-linecap="round" stroke-linejoin="round" stroke-miterlimit="10" stroke-width="4"/><path d="m1388.5 221.7h-172.5v50h172.5z" stroke="#007bff" stroke-linecap="round" stroke-linejoin="round" stroke-miterlimit="10" stroke-width="4"/><path d="m1009.3 110.8 7.5 14.5c1.6 3 .5 6.7-2.6 8.2l-14.5 7.5" stroke="#007bff" stroke-linecap="round" stroke-miterlimit="10" stroke-width="4"/><path d="m439 141c128-89 439-76 572.3-13" stroke="#007bff" stroke-linecap="round" stroke-miterlimit="10" stroke-width="4"/><path d="m383.066 991 1.37 16.25c.329 3.44-2.186 6.3-5.537 6.57l-16.253 1.37" stroke="#007bff" stroke-linecap="round" stroke-miterlimit="10" stroke-width="4"/><path d="m380 1009c-137.863-81.548-230.823-195.408-271-321" stroke="#007bff" stroke-linecap="round" stroke-miterlimit="10" stroke-width="4"/><path d="m1115.86 516.933 6.26-2.481c1.3-.535 2.82-.038 3.36 1.107l2.82 5.497" stroke="#007bff" stroke-linecap="round" stroke-miterlimit="10" stroke-width="4"/><path d="m1123.17 516.589c-46.23 127.725-130.711 211.398-256.17 255.411" stroke="#007bff" stroke-linecap="round" stroke-miterlimit="10" stroke-width="4"/><path d="m462.4 392.2-7.5-14.5c-1.6-3-.5-6.7 2.6-8.2l14.5-7.5" stroke="#007bff" stroke-linecap="round" stroke-miterlimit="10" stroke-width="4"/><path d="m1197.4 285c-205.7 86-503.4 107.2-737 90" stroke="#007bff" stroke-linecap="round" stroke-miterlimit="10" stroke-width="4"/><path d="m572.9 1103.6v-60.6l54.6 31.3z" fill="#007bff"/><path d="m103.684 283.98h3.252v19.02h-3.252v-13.869l-8.7719 13.869h-3.2519v-19.02h3.2519v13.887zm14.396 10.916h-2.373v8.104h-3.269v-19.02h3.269v8.051h2.127l6.398-8.051h3.938l-7.524 9.141 8.157 9.879h-4.131zm12.27-1.582c0-1.863.363-3.539 1.089-5.027.739-1.488 1.758-2.637 3.059-3.445 1.313-.809 2.807-1.213 4.482-1.213 2.59 0 4.682.896 6.276 2.689 1.605 1.793 2.408 4.178 2.408 7.155v.228c0 1.852-.357 3.516-1.072 4.992-.703 1.465-1.717 2.608-3.041 3.428-1.313.82-2.824 1.231-4.535 1.231-2.578 0-4.67-.897-6.276-2.69-1.594-1.793-2.39-4.166-2.39-7.119zm3.269.387c0 2.11.486 3.803 1.459 5.08.984 1.278 2.297 1.916 3.938 1.916 1.652 0 2.964-.644 3.937-1.933.973-1.301 1.459-3.118 1.459-5.45 0-2.085-.498-3.773-1.494-5.062-.984-1.301-2.297-1.951-3.938-1.951-1.605 0-2.9.638-3.884 1.916-.985 1.277-1.477 3.105-1.477 5.484zm33.662 9.299h-3.252v-8.121h-8.736v8.121h-3.27v-19.02h3.27v8.245h8.736v-8.245h3.252zm11.162-8.104h-2.373v8.104h-3.269v-19.02h3.269v8.051h2.127l6.399-8.051h3.937l-7.523 9.141 8.156 9.879h-4.131zm25.26 8.104c-.187-.375-.34-1.043-.457-2.004-1.512 1.57-3.316 2.356-5.414 2.356-1.875 0-3.416-.528-4.623-1.582-1.195-1.067-1.793-2.415-1.793-4.043 0-1.981.75-3.516 2.25-4.606 1.512-1.101 3.633-1.652 6.363-1.652h3.164v-1.494c0-1.137-.339-2.039-1.019-2.707-.68-.68-1.682-1.02-3.006-1.02-1.16 0-2.133.293-2.918.879s-1.178 1.295-1.178 2.127h-3.269c0-.949.334-1.863 1.002-2.742.679-.891 1.593-1.594 2.742-2.11 1.16-.515 2.432-.773 3.814-.773 2.192 0 3.909.551 5.151 1.652 1.242 1.09 1.886 2.596 1.933 4.518v8.754c0 1.746.223 3.135.668 4.166v.281zm-5.396-2.479c1.019 0 1.986-.263 2.9-.791.914-.527 1.576-1.212 1.986-2.056v-3.903h-2.548c-3.985 0-5.977 1.167-5.977 3.499 0 1.019.34 1.816 1.02 2.39.679.574 1.552.861 2.619.861z" fill="#000"/><path d="m143.801 621v-19.02h7.418c2.531 0 4.47.446 5.818 1.336 1.359.879 2.039 2.174 2.039 3.885 0 .879-.264 1.676-.791 2.391-.527.703-1.306 1.242-2.338 1.617 1.149.27 2.069.797 2.76 1.582.703.785 1.055 1.723 1.055 2.813 0 1.746-.645 3.082-1.934 4.007-1.277.926-3.088 1.389-5.432 1.389zm3.252-8.35v5.731h5.379c1.359 0 2.373-.252 3.041-.756.679-.504 1.019-1.213 1.019-2.127 0-1.898-1.394-2.848-4.183-2.848zm0-2.601h4.201c3.047 0 4.57-.891 4.57-2.672s-1.441-2.701-4.324-2.76h-4.447zm24.908 11.303c-2.578 0-4.676-.844-6.293-2.532-1.617-1.699-2.426-3.966-2.426-6.802v-.598c0-1.887.358-3.568 1.072-5.045.727-1.488 1.735-2.648 3.024-3.48 1.301-.844 2.707-1.266 4.219-1.266 2.472 0 4.394.814 5.765 2.443s2.057 3.961 2.057 6.996v1.354h-12.885c.047 1.875.592 3.392 1.635 4.553 1.055 1.148 2.391 1.722 4.008 1.722 1.148 0 2.121-.234 2.918-.703s1.494-1.09 2.091-1.863l1.987 1.547c-1.594 2.449-3.985 3.674-7.172 3.674zm-.404-17.051c-1.313 0-2.414.48-3.305 1.441-.891.949-1.441 2.285-1.652 4.008h9.527v-.246c-.094-1.652-.539-2.93-1.336-3.832-.797-.914-1.875-1.371-3.234-1.371zm19.951-1.231c2.39 0 4.301.803 5.73 2.409 1.442 1.593 2.162 3.697 2.162 6.31v.299c0 1.793-.345 3.398-1.037 4.816-.691 1.407-1.687 2.502-2.988 3.287-1.289.774-2.777 1.161-4.465 1.161-2.555 0-4.611-.85-6.17-2.549-1.558-1.711-2.338-4.002-2.338-6.873v-1.582c0-3.996.739-7.172 2.215-9.528 1.488-2.355 3.68-3.791 6.574-4.306 1.641-.293 2.748-.651 3.323-1.073.574-.421.861-1.002.861-1.74h2.672c0 1.465-.334 2.608-1.002 3.428-.656.82-1.711 1.4-3.164 1.74l-2.426.545c-1.934.457-3.387 1.231-4.359 2.32-.961 1.078-1.588 2.52-1.881 4.325 1.723-1.993 3.82-2.989 6.293-2.989zm-.633 2.672c-1.594 0-2.859.539-3.797 1.617-.937 1.067-1.406 2.549-1.406 4.448v.281c0 2.039.469 3.656 1.406 4.851.949 1.184 2.227 1.776 3.832 1.776 1.617 0 2.895-.598 3.832-1.793.938-1.195 1.406-2.942 1.406-5.238 0-1.793-.474-3.229-1.423-4.307-.938-1.09-2.221-1.635-3.85-1.635zm18.949 5.713h-8.578v-2.654h8.578zm10.811 7.242c1.16 0 2.174-.351 3.041-1.054.867-.704 1.347-1.582 1.441-2.637h3.076c-.058 1.09-.433 2.127-1.125 3.111-.691.985-1.617 1.77-2.777 2.356-1.148.586-2.367.879-3.656.879-2.59 0-4.653-.862-6.188-2.584-1.523-1.735-2.285-4.102-2.285-7.102v-.545c0-1.851.34-3.498 1.02-4.939.679-1.442 1.652-2.561 2.918-3.358 1.277-.797 2.783-1.195 4.517-1.195 2.133 0 3.903.639 5.309 1.916 1.418 1.277 2.174 2.935 2.267 4.975h-3.076c-.094-1.231-.562-2.239-1.406-3.024-.832-.797-1.863-1.195-3.094-1.195-1.652 0-2.935.597-3.849 1.793-.903 1.183-1.354 2.9-1.354 5.15v.615c0 2.192.451 3.879 1.354 5.063.902 1.183 2.191 1.775 3.867 1.775zm25.347-14.08h-6.38v16.383h-3.252v-16.383h-6.258v-2.637h15.89zm19.231 7.084c0 2.895-.662 5.227-1.986 6.996-1.325 1.77-3.118 2.655-5.379 2.655-2.309 0-4.125-.733-5.45-2.198v9.158h-3.252v-26.332h2.971l.158 2.11c1.325-1.641 3.164-2.461 5.52-2.461 2.285 0 4.09.861 5.414 2.584 1.336 1.723 2.004 4.119 2.004 7.189zm-3.252-.369c0-2.144-.457-3.838-1.371-5.08s-2.168-1.863-3.762-1.863c-1.969 0-3.445.873-4.43 2.619v9.088c.973 1.734 2.461 2.601 4.465 2.601 1.559 0 2.795-.615 3.709-1.845.926-1.243 1.389-3.082 1.389-5.52zm19.143 9.668c-.188-.375-.34-1.043-.458-2.004-1.511 1.57-3.316 2.356-5.414 2.356-1.875 0-3.416-.528-4.623-1.582-1.195-1.067-1.793-2.415-1.793-4.043 0-1.981.75-3.516 2.25-4.606 1.512-1.101 3.633-1.652 6.364-1.652h3.164v-1.494c0-1.137-.34-2.039-1.02-2.707-.679-.68-1.681-1.02-3.006-1.02-1.16 0-2.132.293-2.918.879-.785.586-1.177 1.295-1.177 2.127h-3.27c0-.949.334-1.863 1.002-2.742.68-.891 1.594-1.594 2.742-2.11 1.16-.515 2.432-.773 3.815-.773 2.191 0 3.908.551 5.15 1.652 1.242 1.09 1.887 2.596 1.934 4.518v8.754c0 1.746.222 3.135.668 4.166v.281zm-5.397-2.479c1.02 0 1.986-.263 2.9-.791.914-.527 1.577-1.212 1.987-2.056v-3.903h-2.549c-3.984 0-5.977 1.167-5.977 3.499 0 1.019.34 1.816 1.02 2.39s1.553.861 2.619.861zm28.775 2.479h-3.252v-8.121h-8.736v8.121h-3.269v-19.02h3.269v8.245h8.736v-8.245h3.252zm17.543-19.02h3.252v19.02h-3.252v-13.869l-8.771 13.869h-3.252v-19.02h3.252v13.887zm8.754 0h3.27v16.366h8.754v-16.366h3.252v16.366h2.267l-.316 8.297h-2.918v-5.643h-14.309zm32.801 19.02c-.187-.375-.34-1.043-.457-2.004-1.512 1.57-3.316 2.356-5.414 2.356-1.875 0-3.416-.528-4.623-1.582-1.195-1.067-1.793-2.415-1.793-4.043 0-1.981.75-3.516 2.25-4.606 1.512-1.101 3.633-1.652 6.363-1.652h3.164v-1.494c0-1.137-.34-2.039-1.019-2.707-.68-.68-1.682-1.02-3.006-1.02-1.16 0-2.133.293-2.918.879s-1.178 1.295-1.178 2.127h-3.269c0-.949.334-1.863 1.002-2.742.679-.891 1.593-1.594 2.742-2.11 1.16-.515 2.431-.773 3.814-.773 2.192 0 3.908.551 5.151 1.652 1.242 1.09 1.886 2.596 1.933 4.518v8.754c0 1.746.223 3.135.668 4.166v.281zm-5.396-2.479c1.019 0 1.986-.263 2.9-.791.914-.527 1.576-1.212 1.986-2.056v-3.903h-2.549c-3.984 0-5.976 1.167-5.976 3.499 0 1.019.34 1.816 1.019 2.39.68.574 1.553.861 2.62.861z" fill="#000"/><path d="m1106.8 611v-19.02h7.42c2.53 0 4.47.446 5.82 1.336 1.36.879 2.04 2.174 2.04 3.885 0 .879-.27 1.676-.79 2.391-.53.703-1.31 1.242-2.34 1.617 1.15.27 2.07.797 2.76 1.582.7.785 1.05 1.723 1.05 2.813 0 1.746-.64 3.082-1.93 4.007-1.28.926-3.09 1.389-5.43 1.389zm3.25-8.35v5.731h5.38c1.36 0 2.37-.252 3.04-.756.68-.504 1.02-1.213 1.02-2.127 0-1.898-1.39-2.848-4.18-2.848zm0-2.601h4.2c3.05 0 4.57-.891 4.57-2.672s-1.44-2.701-4.32-2.76h-4.45zm24.91 11.303c-2.58 0-4.67-.844-6.29-2.532-1.62-1.699-2.43-3.966-2.43-6.802v-.598c0-1.887.36-3.568 1.07-5.045.73-1.488 1.74-2.648 3.03-3.48 1.3-.844 2.7-1.266 4.22-1.266 2.47 0 4.39.814 5.76 2.443s2.06 3.961 2.06 6.996v1.354h-12.89c.05 1.875.6 3.392 1.64 4.553 1.05 1.148 2.39 1.722 4.01 1.722 1.15 0 2.12-.234 2.91-.703.8-.469 1.5-1.09 2.1-1.863l1.98 1.547c-1.59 2.449-3.98 3.674-7.17 3.674zm-.4-17.051c-1.32 0-2.42.48-3.31 1.441-.89.949-1.44 2.285-1.65 4.008h9.53v-.246c-.1-1.652-.54-2.93-1.34-3.832-.8-.914-1.87-1.371-3.23-1.371zm19.95-1.231c2.39 0 4.3.803 5.73 2.409 1.44 1.593 2.16 3.697 2.16 6.31v.299c0 1.793-.35 3.398-1.04 4.816-.69 1.407-1.68 2.502-2.98 3.287-1.29.774-2.78 1.161-4.47 1.161-2.55 0-4.61-.85-6.17-2.549-1.56-1.711-2.34-4.002-2.34-6.873v-1.582c0-3.996.74-7.172 2.22-9.528 1.49-2.355 3.68-3.791 6.57-4.306 1.64-.293 2.75-.651 3.32-1.073.58-.421.87-1.002.87-1.74h2.67c0 1.465-.34 2.608-1.01 3.428-.65.82-1.71 1.4-3.16 1.74l-2.42.545c-1.94.457-3.39 1.231-4.36 2.32-.97 1.078-1.59 2.52-1.89 4.325 1.73-1.993 3.83-2.989 6.3-2.989zm-.63 2.672c-1.6 0-2.86.539-3.8 1.617-.94 1.067-1.41 2.549-1.41 4.448v.281c0 2.039.47 3.656 1.41 4.851.95 1.184 2.22 1.776 3.83 1.776 1.62 0 2.89-.598 3.83-1.793s1.41-2.942 1.41-5.238c0-1.793-.48-3.229-1.43-4.307-.93-1.09-2.22-1.635-3.84-1.635zm18.94 5.713h-8.57v-2.654h8.57zm10.81 7.242c1.16 0 2.18-.351 3.05-1.054.86-.704 1.34-1.582 1.44-2.637h3.07c-.06 1.09-.43 2.127-1.12 3.111-.69.985-1.62 1.77-2.78 2.356-1.15.586-2.37.879-3.66.879-2.59 0-4.65-.862-6.18-2.584-1.53-1.735-2.29-4.102-2.29-7.102v-.545c0-1.851.34-3.498 1.02-4.939.68-1.442 1.65-2.561 2.92-3.358 1.28-.797 2.78-1.195 4.52-1.195 2.13 0 3.9.639 5.31 1.916s2.17 2.935 2.26 4.975h-3.07c-.1-1.231-.57-2.239-1.41-3.024-.83-.797-1.86-1.195-3.09-1.195-1.66 0-2.94.597-3.85 1.793-.9 1.183-1.36 2.9-1.36 5.15v.615c0 2.192.46 3.879 1.36 5.063.9 1.183 2.19 1.775 3.86 1.775zm25.35-14.08h-6.38v16.383h-3.25v-16.383h-6.26v-2.637h15.89zm19.23 7.084c0 2.895-.66 5.227-1.98 6.996-1.33 1.77-3.12 2.655-5.38 2.655-2.31 0-4.13-.733-5.45-2.198v9.158h-3.25v-26.332h2.97l.16 2.11c1.32-1.641 3.16-2.461 5.51-2.461 2.29 0 4.09.861 5.42 2.584s2 4.119 2 7.189zm-3.25-.369c0-2.144-.46-3.838-1.37-5.08s-2.17-1.863-3.76-1.863c-1.97 0-3.45.873-4.43 2.619v9.088c.97 1.734 2.46 2.601 4.46 2.601 1.56 0 2.8-.615 3.71-1.845.93-1.243 1.39-3.082 1.39-5.52zm19.14 9.668c-.18-.375-.34-1.043-.45-2.004-1.52 1.57-3.32 2.356-5.42 2.356-1.87 0-3.41-.528-4.62-1.582-1.2-1.067-1.79-2.415-1.79-4.043 0-1.981.75-3.516 2.25-4.606 1.51-1.101 3.63-1.652 6.36-1.652h3.16v-1.494c0-1.137-.34-2.039-1.02-2.707-.68-.68-1.68-1.02-3-1.02-1.16 0-2.13.293-2.92.879-.78.586-1.18 1.295-1.18 2.127h-3.27c0-.949.34-1.863 1.01-2.742.67-.891 1.59-1.594 2.74-2.11 1.16-.515 2.43-.773 3.81-.773 2.19 0 3.91.551 5.15 1.652 1.24 1.09 1.89 2.596 1.94 4.518v8.754c0 1.746.22 3.135.66 4.166v.281zm-5.39-2.479c1.02 0 1.98-.263 2.9-.791.91-.527 1.57-1.212 1.98-2.056v-3.903h-2.55c-3.98 0-5.97 1.167-5.97 3.499 0 1.019.34 1.816 1.02 2.39s1.55.861 2.62.861zm28.77 2.479h-3.25v-8.121h-8.74v8.121h-3.27v-19.02h3.27v8.245h8.74v-8.245h3.25zm17.55-19.02h3.25v19.02h-3.25v-13.869l-8.78 13.869h-3.25v-19.02h3.25v13.887zm8.75 0h3.27v16.366h8.75v-16.366h3.25v16.366h2.27l-.31 8.297h-2.92v-5.643h-14.31zm32.8 19.02c-.19-.375-.34-1.043-.46-2.004-1.51 1.57-3.31 2.356-5.41 2.356-1.88 0-3.42-.528-4.62-1.582-1.2-1.067-1.8-2.415-1.8-4.043 0-1.981.75-3.516 2.25-4.606 1.51-1.101 3.64-1.652 6.37-1.652h3.16v-1.494c0-1.137-.34-2.039-1.02-2.707-.68-.68-1.68-1.02-3.01-1.02-1.16 0-2.13.293-2.91.879-.79.586-1.18 1.295-1.18 2.127h-3.27c0-.949.33-1.863 1-2.742.68-.891 1.6-1.594 2.74-2.11 1.16-.515 2.44-.773 3.82-.773 2.19 0 3.91.551 5.15 1.652 1.24 1.09 1.89 2.596 1.93 4.518v8.754c0 1.746.22 3.135.67 4.166v.281zm-5.4-2.479c1.02 0 1.99-.263 2.9-.791.92-.527 1.58-1.212 1.99-2.056v-3.903h-2.55c-3.98 0-5.98 1.167-5.98 3.499 0 1.019.34 1.816 1.02 2.39s1.56.861 2.62.861z" fill="#000"/><path d="m523.801 1291.4v-19.02h7.418c2.531 0 4.47.45 5.818 1.34 1.359.88 2.039 2.17 2.039 3.88 0 .88-.264 1.68-.791 2.39-.527.7-1.306 1.24-2.338 1.62 1.149.27 2.069.8 2.76 1.58.703.79 1.055 1.72 1.055 2.81 0 1.75-.645 3.09-1.934 4.01-1.277.93-3.088 1.39-5.432 1.39zm3.252-8.35v5.73h5.379c1.359 0 2.373-.25 3.041-.75.679-.51 1.019-1.22 1.019-2.13 0-1.9-1.394-2.85-4.183-2.85zm0-2.6h4.201c3.047 0 4.57-.89 4.57-2.67s-1.441-2.7-4.324-2.76h-4.447zm24.908 11.3c-2.578 0-4.676-.84-6.293-2.53-1.617-1.7-2.426-3.97-2.426-6.8v-.6c0-1.89.358-3.57 1.072-5.04.727-1.49 1.735-2.65 3.024-3.49 1.301-.84 2.707-1.26 4.219-1.26 2.472 0 4.394.81 5.765 2.44s2.057 3.96 2.057 7v1.35h-12.885c.047 1.88.592 3.39 1.635 4.55 1.055 1.15 2.391 1.73 4.008 1.73 1.148 0 2.121-.24 2.918-.71.797-.46 1.494-1.09 2.091-1.86l1.987 1.55c-1.594 2.45-3.985 3.67-7.172 3.67zm-.404-17.05c-1.313 0-2.414.48-3.305 1.44-.891.95-1.441 2.29-1.652 4.01h9.527v-.25c-.094-1.65-.539-2.93-1.336-3.83-.797-.91-1.875-1.37-3.234-1.37zm19.951-1.23c2.39 0 4.301.8 5.73 2.41 1.442 1.59 2.162 3.7 2.162 6.31v.3c0 1.79-.345 3.4-1.037 4.81-.691 1.41-1.687 2.51-2.988 3.29-1.289.77-2.777 1.16-4.465 1.16-2.555 0-4.611-.85-6.17-2.55-1.558-1.71-2.338-4-2.338-6.87v-1.58c0-4 .739-7.17 2.215-9.53 1.488-2.36 3.68-3.79 6.574-4.31 1.641-.29 2.748-.65 3.323-1.07.574-.42.861-1 .861-1.74h2.672c0 1.47-.334 2.61-1.002 3.43-.656.82-1.711 1.4-3.164 1.74l-2.426.54c-1.934.46-3.387 1.23-4.359 2.32-.961 1.08-1.588 2.52-1.881 4.33 1.723-1.99 3.82-2.99 6.293-2.99zm-.633 2.67c-1.594 0-2.859.54-3.797 1.62-.937 1.07-1.406 2.55-1.406 4.45v.28c0 2.04.469 3.65 1.406 4.85.949 1.18 2.227 1.77 3.832 1.77 1.617 0 2.895-.59 3.832-1.79.938-1.19 1.406-2.94 1.406-5.24 0-1.79-.474-3.22-1.423-4.3-.938-1.09-2.221-1.64-3.85-1.64zm18.949 5.72h-8.578v-2.66h8.578zm10.811 7.24c1.16 0 2.174-.35 3.041-1.06.867-.7 1.347-1.58 1.441-2.63h3.076c-.058 1.09-.433 2.12-1.125 3.11-.691.98-1.617 1.77-2.777 2.35-1.148.59-2.367.88-3.656.88-2.59 0-4.653-.86-6.188-2.58-1.523-1.74-2.285-4.1-2.285-7.1v-.55c0-1.85.34-3.5 1.02-4.94.679-1.44 1.652-2.56 2.918-3.36 1.277-.79 2.783-1.19 4.517-1.19 2.133 0 3.903.64 5.309 1.91 1.418 1.28 2.174 2.94 2.267 4.98h-3.076c-.094-1.23-.562-2.24-1.406-3.02-.832-.8-1.863-1.2-3.094-1.2-1.652 0-2.935.6-3.849 1.79-.903 1.19-1.354 2.9-1.354 5.15v.62c0 2.19.451 3.88 1.354 5.06.902 1.19 2.191 1.78 3.867 1.78zm25.347-14.08h-6.38v16.38h-3.252v-16.38h-6.258v-2.64h15.89zm19.231 7.08c0 2.9-.662 5.23-1.986 7-1.325 1.77-3.118 2.65-5.379 2.65-2.309 0-4.125-.73-5.45-2.2v9.16h-3.252v-26.33h2.971l.158 2.11c1.325-1.64 3.164-2.46 5.52-2.46 2.285 0 4.09.86 5.414 2.58 1.336 1.73 2.004 4.12 2.004 7.19zm-3.252-.37c0-2.14-.457-3.84-1.371-5.08s-2.168-1.86-3.762-1.86c-1.969 0-3.445.87-4.43 2.62v9.09c.973 1.73 2.461 2.6 4.465 2.6 1.559 0 2.795-.62 3.709-1.85.926-1.24 1.389-3.08 1.389-5.52zm19.143 9.67c-.188-.37-.34-1.04-.458-2-1.511 1.57-3.316 2.35-5.414 2.35-1.875 0-3.416-.53-4.623-1.58-1.195-1.07-1.793-2.41-1.793-4.04 0-1.98.75-3.52 2.25-4.61 1.512-1.1 3.633-1.65 6.364-1.65h3.164v-1.5c0-1.13-.34-2.03-1.02-2.7-.679-.68-1.681-1.02-3.006-1.02-1.16 0-2.132.29-2.918.88-.785.58-1.177 1.29-1.177 2.12h-3.27c0-.95.334-1.86 1.002-2.74.68-.89 1.594-1.59 2.742-2.11 1.16-.51 2.432-.77 3.815-.77 2.191 0 3.908.55 5.15 1.65 1.242 1.09 1.887 2.6 1.934 4.52v8.75c0 1.75.222 3.14.668 4.17v.28zm-5.397-2.48c1.02 0 1.986-.26 2.9-.79s1.577-1.21 1.987-2.06v-3.9h-2.549c-3.984 0-5.977 1.17-5.977 3.5 0 1.02.34 1.82 1.02 2.39s1.553.86 2.619.86zm28.775 2.48h-3.252v-8.12h-8.736v8.12h-3.269v-19.02h3.269v8.24h8.736v-8.24h3.252zm17.543-19.02h3.252v19.02h-3.252v-13.87l-8.771 13.87h-3.252v-19.02h3.252v13.89zm8.754 0h3.27v16.37h8.754v-16.37h3.252v16.37h2.267l-.316 8.29h-2.918v-5.64h-14.309zm32.801 19.02c-.187-.37-.34-1.04-.457-2-1.512 1.57-3.316 2.35-5.414 2.35-1.875 0-3.416-.53-4.623-1.58-1.195-1.07-1.793-2.41-1.793-4.04 0-1.98.75-3.52 2.25-4.61 1.512-1.1 3.633-1.65 6.363-1.65h3.164v-1.5c0-1.13-.34-2.03-1.019-2.7-.68-.68-1.682-1.02-3.006-1.02-1.16 0-2.133.29-2.918.88-.785.58-1.178 1.29-1.178 2.12h-3.269c0-.95.334-1.86 1.002-2.74.679-.89 1.593-1.59 2.742-2.11 1.16-.51 2.431-.77 3.814-.77 2.192 0 3.908.55 5.151 1.65 1.242 1.09 1.886 2.6 1.933 4.52v8.75c0 1.75.223 3.14.668 4.17v.28zm-5.396-2.48c1.019 0 1.986-.26 2.9-.79s1.576-1.21 1.986-2.06v-3.9h-2.549c-3.984 0-5.976 1.17-5.976 3.5 0 1.02.34 1.82 1.019 2.39.68.57 1.553.86 2.62.86z" fill="#000"/></svg>