<svg height="350" viewBox="0 0 75.3 92.6" width="284.7" xmlns="http://www.w3.org/2000/svg"><path d="m9.6 0a9.6 9.6 0 0 0 -9.6 9.6v73.4c0 5.3 4.3 9.6 9.6 9.6h56.1c5.3 0 9.6-4.3 9.6-9.6v-60.4s.2-1.7-.6-3.5a9 9 0 0 0 -1.9-2.7l-14-13.7s-1.2-1.1-3-1.9c-2-.9-4.1-.8-4.1-.8z" fill="#ff2116"/><path d="m9.6 3.1h42a1.6 1.6 0 0 0 .1 0s1.7 0 3 .6a8 8 0 0 1 2 1.3l13.9 13.6s.8.9 1.2 1.8c.3.7.4 2 .4 2a1.6 1.6 0 0 0 0 .2v60.4c0 3.6-2.9 6.5-6.5 6.5h-56.1a6.4 6.4 0 0 1 -6.6-6.5v-73.4c.1-3.6 3-6.6 6.6-6.6z" fill="#f5f5f5"/><path d="m18.8 55.1c-2.2-2.1.2-5.1 6.5-8.3l4-2 1.6-3.3a134 134 0 0 0 2.8-6.8l1.3-3.4-.9-2.5c-1-3.1-1.5-7.7-.8-9.4 1-2.3 4-2 5.2.4 1 1.9.9 5.3-.2 9.6l-1 3.5.9 1.4a34 34 0 0 0 2.8 4l2.2 2.7 2.7-.4c8.5-1 11.4.8 11.4 3.5 0 3.4-6.7 3.7-12.3-.2l-2-1.9-5.3 1.2-5.3 1.7-1.5 2.3a24.8 24.8 0 0 1 -6.6 7.6c-2.1 1.2-4.3 1.3-5.4.2zm3.4-1.2c1.2-.7 3.7-3.6 5.4-6.3l.7-1.1-3.3 1.5c-4.8 2.5-7 4.8-5.9 6.2.7.8 1.4.7 3-.3zm31.5-8.8c1.2-.8 1-2.5-.3-3.2-1-.5-2-.6-4.6-.6a59 59 0 0 0 -4.9.6l2.2 1.3c.8.5 3 1.5 4.5 2 1.5.4 2.4.4 3-.1zm-12.7-5.3a31 31 0 0 1 -4.2-5.8l-1.4 4-1.9 4.7-.5 1 4.4-1.3 4.8-1zm-4-16.3c.1-1.6.2-3.1-.3-3.9-1.4-1.5-3-.2-2.7 3.3 0 1.2.4 3.3.8 4.5l.7 2.3.5-1.7z" fill="#ff2116"/><path d="m22.5 65.1h3.5q1.7 0 2.7.4 1 .3 1.8 1.4.7 1 .7 2.6 0 1.4-.6 2.4t-1.5 1.4q-1 .5-3 .5h-1.3v5.5h-2.3zm2.3 1.9v5h1.2q1.5 0 2.1-.7.6-.6.6-1.9 0-1-.4-1.5-.3-.7-.8-.8l-1.5-.1zm8.2-2h3.2q2.3 0 3.7.9 1.4.8 2 2.4.8 1.6.8 3.6t-.6 3.7q-.7 1.6-2 2.6t-3.7 1h-3.4zm2.3 2v10.3h1q2 0 3-1.4t1-3.8q0-5.2-4-5.2zm9.7-2h7.8v2h-5.5v4.2h4.4v1.8h-4.4v6.2h-2.3z" fill="#2c2c2c"/></svg>