<svg width="1600" height="900" fill="none" xmlns="http://www.w3.org/2000/svg"><rect x="301" y="225" width="998" height="560.5" rx="49" stroke="#007BFF" stroke-width="2"/><path d="M736.94 272.85v-.87l14.13-8.61 1.14 1.86-11.91 7.05 11.94 6.93-1.14 1.8-14.16-8.16zM754.5 267h3.57v-2.97l2.34-.66V267h8.01v2.01h-8v7.08c0 1.46.34 2.54 1.04 3.24.72.7 1.74 1.05 3.06 1.05.9 0 1.68-.17 2.34-.51.68-.34 1.3-.71 1.83-1.11l.78 1.77a8.4 8.4 0 01-2.52 1.35c-.96.34-1.95.51-2.97.51-.8 0-1.56-.12-2.28-.36a5.04 5.04 0 01-3.15-2.88 6.93 6.93 0 01-.48-2.7v-7.44h-3.57V267zm20.3 1.17c.86-.5 1.83-.86 2.91-1.08a15.9 15.9 0 013.18-.33c1.02 0 1.85.16 2.5.48.65.32 1.16.74 1.52 1.26.38.5.63 1.08.75 1.74.14.64.21 1.29.21 1.95 0 .76-.02 1.57-.06 2.43l-.09 2.58c0 1 .06 1.95.18 2.85h2.01V282h-3.99l-.27-2.25h-.15a5.14 5.14 0 01-2.91 2.22c-.56.2-1.22.3-1.98.3a5.11 5.11 0 01-3.5-1.14 3.95 3.95 0 01-1.3-3.12c0-1.02.22-1.87.66-2.55a4.35 4.35 0 011.95-1.56 8.83 8.83 0 013.03-.63c1.2-.06 2.54.02 4.02.24.1-.92.11-1.68.03-2.28a2.97 2.97 0 00-.48-1.47 1.86 1.86 0 00-1.05-.75 4.88 4.88 0 00-1.65-.24c-.9 0-1.76.13-2.58.39-.82.24-1.55.49-2.19.75l-.75-1.74zm4.41 12.09a4.4 4.4 0 002.82-.96c.36-.28.66-.58.9-.9.24-.34.42-.66.54-.96v-2.1c-1.04-.18-2-.27-2.88-.27-.88 0-1.64.1-2.28.3-.64.18-1.14.47-1.5.87-.36.4-.54.92-.54 1.56 0 .66.22 1.24.66 1.74.46.48 1.22.72 2.28.72zm10.4-19.26h4.8v7.71h.15a5.14 5.14 0 012.01-1.53 6.57 6.57 0 012.67-.54c4.4 0 6.6 2.54 6.6 7.62 0 2.58-.7 4.56-2.13 5.94-1.42 1.36-3.44 2.04-6.06 2.04-1.24 0-2.36-.12-3.36-.36s-1.73-.52-2.19-.84v-18.03h-2.49V261zm9.33 7.65c-1.2 0-2.17.34-2.9 1.02a5.93 5.93 0 00-1.63 2.88v6.9c.46.24 1.01.43 1.65.57.64.14 1.31.21 2.01.21.8 0 1.52-.11 2.16-.33.66-.24 1.22-.6 1.68-1.08.46-.5.81-1.13 1.05-1.89a9.4 9.4 0 00.15-4.86 4.92 4.92 0 00-.78-1.77 3.4 3.4 0 00-1.35-1.2 4.27 4.27 0 00-2.04-.45zm10.7-7.65h4.98v15.96c0 1.22.2 2.08.6 2.58.42.5 1.03.75 1.83.75a5.53 5.53 0 003.3-1.26l1.08 1.59c-.32.28-.67.53-1.05.75-.38.22-.77.41-1.17.57-.4.14-.8.25-1.2.33a6.06 6.06 0 01-3.09-.18 3.37 3.37 0 01-1.47-.9 4.17 4.17 0 01-.87-1.65c-.2-.7-.3-1.56-.3-2.58v-13.95h-2.64V261zm31.76 19.11a8.91 8.91 0 01-2.88 1.62c-.58.2-1.2.35-1.83.45a9.92 9.92 0 01-5.07-.36 6.36 6.36 0 01-3.72-4.08c-.32-.96-.48-2.04-.48-3.24 0-1.26.17-2.38.5-3.36a6.44 6.44 0 013.93-3.96 9.57 9.57 0 015.64-.21c.83.22 1.55.64 2.17 1.26.64.6 1.13 1.44 1.47 2.52.34 1.06.46 2.44.36 4.14h-11.61c0 1.8.48 3.15 1.44 4.05a5.62 5.62 0 003.9 1.32c.54 0 1.07-.06 1.59-.18.54-.14 1.05-.3 1.53-.48a7.4 7.4 0 002.13-1.2l.93 1.71zm-6.33-11.49a8.3 8.3 0 00-1.9.21c-.57.14-1.1.38-1.55.72-.44.32-.81.75-1.11 1.29a5.23 5.23 0 00-.54 1.95h9.33a4.5 4.5 0 00-1.3-3.06 3.97 3.97 0 00-2.93-1.11zM846 281.01l-1.14-1.8 11.94-6.93-11.91-7.05 1.14-1.86 14.13 8.61v.87L846 281.01z" fill="#007BFF"/><rect x="347" y="746" width="65" height="903" rx="32.5" transform="rotate(-90 347 746)" stroke="#007BFF" stroke-width="2"/><path d="M718.95 714.85v-.87l14.13-8.61 1.14 1.86-11.91 7.05 11.94 6.93-1.14 1.8-14.16-8.16zm29.8-3.54c-.45-.16-.95-.29-1.5-.39a6.92 6.92 0 00-1.55-.18c-1.96 0-3.42.46-4.38 1.38-.96.92-1.44 2.38-1.44 4.38 0 .88.14 1.67.42 2.37.28.68.68 1.26 1.2 1.74.52.48 1.14.85 1.86 1.11a7.93 7.93 0 007.41-1.35l1.05 1.74a11.13 11.13 0 01-2.52 1.5 10.43 10.43 0 01-4 .75c-1.3 0-2.44-.18-3.44-.54a6.8 6.8 0 01-2.46-1.59 6.97 6.97 0 01-1.5-2.49 9.83 9.83 0 01-.51-3.24c0-1.26.17-2.38.5-3.36a6.44 6.44 0 013.93-3.96 8.75 8.75 0 013.16-.54c1.48 0 2.68.13 3.6.39.94.26 1.73.55 2.37.87l-.03.09v4.17h-2.16v-2.85zm8.06-1.14c.86-.5 1.83-.86 2.91-1.08a15.9 15.9 0 013.18-.33c1.02 0 1.85.16 2.5.48.65.32 1.16.74 1.52 1.26.38.5.63 1.08.75 1.74.14.64.21 1.29.21 1.95 0 .76-.02 1.57-.06 2.43l-.09 2.58c0 1 .06 1.95.18 2.85h2.01V724h-3.99l-.27-2.25h-.15a5.14 5.14 0 01-2.91 2.22c-.56.2-1.22.3-1.98.3a5.11 5.11 0 01-3.5-1.14 3.95 3.95 0 01-1.3-3.12c0-1.02.22-1.87.66-2.55a4.35 4.35 0 011.95-1.56 8.83 8.83 0 013.03-.63c1.2-.06 2.54.02 4.02.24.1-.92.11-1.68.03-2.28a2.97 2.97 0 00-.48-1.47 1.86 1.86 0 00-1.05-.75 4.88 4.88 0 00-1.65-.24c-.9 0-1.76.13-2.58.39-.82.24-1.55.49-2.19.75l-.75-1.74zm4.41 12.09a4.4 4.4 0 002.82-.96c.36-.28.66-.58.9-.9.24-.34.42-.66.54-.96v-2.1c-1.04-.18-2-.27-2.88-.27-.88 0-1.64.1-2.28.3-.64.18-1.14.47-1.5.87-.36.4-.54.92-.54 1.56 0 .66.22 1.24.66 1.74.46.48 1.22.72 2.28.72zm13.22-8.01c0-.18 0-.41-.03-.69a13.53 13.53 0 00-.12-1.83c-.02-.3-.05-.56-.09-.78h-2V709h3.98l.3 2.1h.15a6.08 6.08 0 015.1-2.46c2.14 0 3.75.59 4.83 1.77 1.08 1.18 1.62 3.11 1.62 5.79 0 1.26-.19 2.4-.57 3.42-.36 1-.88 1.85-1.56 2.55-.68.7-1.5 1.24-2.46 1.62a9.82 9.82 0 01-5.22.39c-.26-.04-.52-.1-.78-.18-.26-.08-.54-.18-.84-.3v6.3h-2.3v-15.75zm6.9-3.42c-.6 0-1.17.11-1.7.33a5.1 5.1 0 00-2.4 2.07c-.27.44-.43.88-.49 1.32v6.84c.44.3.93.54 1.47.72.56.16 1.3.24 2.2.24 1.6 0 2.87-.52 3.83-1.56.96-1.06 1.44-2.6 1.44-4.62 0-1.7-.34-3.01-1.02-3.93-.66-.94-1.77-1.41-3.33-1.41zm9.14-1.83h3.57v-2.97l2.34-.66V709h8.01v2.01h-8v7.08c0 1.46.34 2.54 1.04 3.24.72.7 1.74 1.05 3.06 1.05.9 0 1.68-.17 2.34-.51.68-.34 1.3-.71 1.83-1.11l.78 1.77a8.4 8.4 0 01-2.52 1.35c-.96.34-1.95.51-2.97.51-.8 0-1.56-.12-2.28-.36a5.04 5.04 0 01-3.15-2.88 6.93 6.93 0 01-.48-2.7v-7.44h-3.57V709zm20.2 15v-2.01h5.23v-10.98h-5.22V709h7.62v12.99h5.1V724h-12.72zm4.42-19.26c0-.54.18-1 .54-1.38.36-.4.82-.6 1.38-.6.58 0 1.06.2 1.44.6.4.38.6.84.6 1.38 0 .52-.2.96-.6 1.32-.38.36-.86.54-1.44.54-.56 0-1.02-.18-1.38-.54a1.8 1.8 0 01-.54-1.32zm12.14 11.76c0-2.42.63-4.33 1.89-5.73 1.26-1.42 3.06-2.13 5.4-2.13 1.26 0 2.34.21 3.24.63a6.2 6.2 0 013.6 4.14c.3.96.45 1.99.45 3.09 0 1.2-.16 2.29-.48 3.27a6.36 6.36 0 01-3.72 4.05c-.9.36-1.93.54-3.1.54-1.23 0-2.31-.2-3.23-.6a6.51 6.51 0 01-3.63-4.17c-.28-.96-.42-1.99-.42-3.09zm2.49 0c0 .7.08 1.4.24 2.1a6 6 0 00.84 1.89c.38.56.87 1.01 1.47 1.35.62.34 1.37.51 2.25.51 1.6 0 2.8-.49 3.6-1.47.82-1 1.23-2.46 1.23-4.38 0-.72-.1-1.42-.27-2.1a5.21 5.21 0 00-.84-1.89 4.25 4.25 0 00-3.72-1.86c-1.6 0-2.8.49-3.6 1.47-.8.98-1.2 2.44-1.2 4.38zm16.58-2.25l-.03-.69a13.53 13.53 0 00-.12-1.83c-.02-.3-.05-.56-.1-.78h-2V709h4.02l.27 2.43h.15a5.86 5.86 0 011.95-1.89 5.78 5.78 0 013.18-.9c.92 0 1.73.1 2.43.3.72.2 1.3.56 1.77 1.08.48.5.84 1.19 1.08 2.07.24.86.36 1.96.36 3.3V724h-2.34v-8.16c0-1.66-.27-2.91-.81-3.75-.54-.84-1.52-1.26-2.94-1.26-.52 0-1.03.11-1.53.33a5 5 0 00-2.37 2.01c-.3.44-.52.91-.66 1.41V724h-2.31v-9.75zm17.68 8.76l-1.14-1.8 11.94-6.93-11.9-7.05 1.13-1.86 14.13 8.61v.87L864 723.01z" fill="#007BFF"/><rect x="976" y="639" width="319" height="275" rx="49" transform="rotate(-90 976 639)" stroke="#007BFF" stroke-width="2"/><path d="M1051.39 402.85v-.87l14.13-8.61 1.14 1.86-11.91 7.05 11.94 6.93-1.14 1.8-14.16-8.16zm17.57-5.85h3.57v-2.97l2.34-.66V397h8.01v2.01h-8.01v7.08c0 1.46.35 2.54 1.05 3.24.72.7 1.74 1.05 3.06 1.05.9 0 1.68-.17 2.34-.51.68-.34 1.29-.71 1.83-1.11l.78 1.77a8.4 8.4 0 01-2.52 1.35c-.96.34-1.95.51-2.97.51-.8 0-1.56-.12-2.28-.36a5.04 5.04 0 01-3.15-2.88 6.93 6.93 0 01-.48-2.7v-7.44h-3.57V397zm19.7 15v-2.01h3.57v-10.98h-3.57V397h3.57v-.84c0-1.88.49-3.24 1.47-4.08.98-.84 2.38-1.26 4.2-1.26.66 0 1.25.04 1.77.12.52.08 1.08.24 1.68.48l-.54 1.95a8.08 8.08 0 00-2.82-.54c-1.32 0-2.22.33-2.7.99-.48.64-.72 1.7-.72 3.18h6.21v2.01h-6.21v10.98h6.21V412h-12.12zm17.06-7.5c0-2.42.63-4.33 1.89-5.73 1.26-1.42 3.06-2.13 5.4-2.13 1.26 0 2.34.21 3.24.63a6.2 6.2 0 013.6 4.14c.3.96.45 1.99.45 3.09 0 1.2-.16 2.29-.48 3.27a6.36 6.36 0 01-3.72 4.05c-.9.36-1.93.54-3.09.54-1.24 0-2.32-.2-3.24-.6a6.51 6.51 0 01-3.63-4.17c-.28-.96-.42-1.99-.42-3.09zm2.49 0c0 .7.08 1.4.24 2.1a6 6 0 00.84 1.89c.38.56.87 1.01 1.47 1.35.62.34 1.37.51 2.25.51 1.6 0 2.8-.49 3.6-1.47.82-1 1.23-2.46 1.23-4.38 0-.72-.09-1.42-.27-2.1a5.21 5.21 0 00-.84-1.89 4.25 4.25 0 00-3.72-1.86c-1.6 0-2.8.49-3.6 1.47-.8.98-1.2 2.44-1.2 4.38zm15.49 0c0-2.42.63-4.33 1.89-5.73 1.26-1.42 3.06-2.13 5.4-2.13 1.26 0 2.34.21 3.24.63a6.2 6.2 0 013.6 4.14c.3.96.45 1.99.45 3.09 0 1.2-.16 2.29-.48 3.27a6.36 6.36 0 01-3.72 4.05c-.9.36-1.93.54-3.09.54-1.24 0-2.32-.2-3.24-.6a6.51 6.51 0 01-3.63-4.17c-.28-.96-.42-1.99-.42-3.09zm2.49 0c0 .7.08 1.4.24 2.1a6 6 0 00.84 1.89c.38.56.87 1.01 1.47 1.35.62.34 1.37.51 2.25.51 1.6 0 2.8-.49 3.6-1.47.82-1 1.23-2.46 1.23-4.38 0-.72-.09-1.42-.27-2.1a5.21 5.21 0 00-.84-1.89 4.25 4.25 0 00-3.72-1.86c-1.6 0-2.8.49-3.6 1.47-.8.98-1.2 2.44-1.2 4.38zm14.72-7.5h3.57v-2.97l2.34-.66V397h8.01v2.01h-8.01v7.08c0 1.46.35 2.54 1.05 3.24.72.7 1.74 1.05 3.06 1.05.9 0 1.68-.17 2.34-.51.68-.34 1.29-.71 1.83-1.11l.78 1.77a8.4 8.4 0 01-2.52 1.35c-.96.34-1.95.51-2.97.51-.8 0-1.56-.12-2.28-.36a5.04 5.04 0 01-3.15-2.88 6.93 6.93 0 01-.48-2.7v-7.44h-3.57V397zm19.55 14.01l-1.14-1.8 11.94-6.93-11.91-7.05 1.14-1.86 14.13 8.61v.87l-14.16 8.16zM1081.64 506.58l.09-1.98h-.09l-8.43 11.4h-2.13v-15h2.34v9.69l-.09 1.89h.12l8.37-11.58h2.16v15h-2.34v-9.42zm6.44-5.58h14.88v5.61h-2.04v-3.57h-4.23v10.95h3.63V516h-9.72v-2.01h3.75v-10.95h-4.23v3.57h-2.04V501zm18.14 7.5c0-2.42.63-4.33 1.89-5.73 1.26-1.42 3.06-2.13 5.4-2.13 1.26 0 2.34.21 3.24.63a6.2 6.2 0 013.6 4.14c.3.96.45 1.99.45 3.09 0 1.2-.16 2.29-.48 3.27a6.36 6.36 0 01-3.72 4.05c-.9.36-1.93.54-3.09.54-1.24 0-2.32-.2-3.24-.6a6.51 6.51 0 01-3.63-4.17c-.28-.96-.42-1.99-.42-3.09zm2.49 0c0 .7.08 1.4.24 2.1a6 6 0 00.84 1.89c.38.56.87 1.01 1.47 1.35.62.34 1.37.51 2.25.51 1.6 0 2.8-.49 3.6-1.47.82-1 1.23-2.46 1.23-4.38 0-.72-.09-1.42-.27-2.1a5.21 5.21 0 00-.84-1.89 4.25 4.25 0 00-3.72-1.86c-1.6 0-2.8.49-3.6 1.47-.8.98-1.2 2.44-1.2 4.38zm16.84 7.5v-2.01h1.92v-10.95h-1.92V501h12.12v5.61h-2.04v-3.57h-5.82v10.95h4.56V516h-8.82zm28.04-9.42l.09-1.98h-.09l-8.43 11.4h-2.13v-15h2.34v9.69l-.09 1.89h.12l8.37-11.58h2.16v15h-2.34v-9.42zm-127.15 33.67l-.03-.69a13.53 13.53 0 00-.12-1.83c-.02-.3-.05-.56-.09-.78h-2.01V535h3.99l.3 2.1h.15a6.08 6.08 0 015.1-2.46c2.14 0 3.75.59 4.83 1.77 1.08 1.18 1.62 3.11 1.62 5.79 0 1.26-.19 2.4-.57 3.42-.36 1-.88 1.85-1.56 2.55-.68.7-1.5 1.24-2.46 1.62a9.82 9.82 0 01-5.22.39c-.26-.04-.52-.1-.78-.18-.26-.08-.54-.18-.84-.3v6.3h-2.31v-15.75zm6.9-3.42c-.6 0-1.17.11-1.71.33a5.1 5.1 0 00-2.4 2.07c-.26.44-.42.88-.48 1.32v6.84c.44.3.93.54 1.47.72.56.16 1.29.24 2.19.24 1.6 0 2.88-.52 3.84-1.56.96-1.06 1.44-2.6 1.44-4.62 0-1.7-.34-3.01-1.02-3.93-.66-.94-1.77-1.41-3.33-1.41zm24.08 11.28a8.91 8.91 0 01-2.88 1.62c-.58.2-1.19.35-1.83.45a9.92 9.92 0 01-5.07-.36 6.36 6.36 0 01-3.72-4.08c-.32-.96-.48-2.04-.48-3.24 0-1.26.17-2.38.51-3.36a6.44 6.44 0 013.93-3.96 9.57 9.57 0 015.64-.21c.82.22 1.54.64 2.16 1.26.64.6 1.13 1.44 1.47 2.52.34 1.06.46 2.44.36 4.14h-11.61c0 1.8.48 3.15 1.44 4.05a5.62 5.62 0 003.9 1.32c.54 0 1.07-.06 1.59-.18.54-.14 1.05-.3 1.53-.48a7.4 7.4 0 002.13-1.2l.93 1.71zm-6.33-11.49a8.3 8.3 0 00-1.89.21c-.58.14-1.1.38-1.56.72-.44.32-.81.75-1.11 1.29a5.23 5.23 0 00-.54 1.95h9.33a4.5 4.5 0 00-1.29-3.06 3.97 3.97 0 00-2.94-1.11zm11.66-.21l-.03-.09c.34-.2.7-.39 1.08-.57a11.58 11.58 0 015.13-1.05c.82 0 1.58.09 2.28.27.7.16 1.31.4 1.83.72.52.32.92.72 1.2 1.2a2.85 2.85 0 01.24 2.61c-.12.34-.31.67-.57.99-.26.32-.57.61-.93.87-.36.26-.77.46-1.23.6v.12c1.32.22 2.24.64 2.76 1.26.54.62.81 1.44.81 2.46 0 .64-.15 1.23-.45 1.77a4.1 4.1 0 01-1.35 1.41c-.58.4-1.31.72-2.19.96-.86.22-1.87.33-3.03.33a10.52 10.52 0 01-4.2-.84c-.52-.24-.97-.5-1.35-.78a5.47 5.47 0 01-.84-.78l1.2-1.89a5.86 5.86 0 001.98 1.5c.48.22 1.02.41 1.62.57a9.72 9.72 0 003.69.06c.5-.12.93-.28 1.29-.48.38-.22.68-.49.9-.81.22-.34.33-.73.33-1.17a1.9 1.9 0 00-1.05-1.74c-.68-.4-1.81-.6-3.39-.6h-1.71v-1.95h2.13a4.16 4.16 0 002.28-.69c.32-.22.58-.47.78-.75a1.7 1.7 0 000-1.95c-.2-.3-.48-.54-.84-.72a6.9 6.9 0 00-2.7-.54 8.2 8.2 0 00-3.63.78v2.49h-2.04v-3.57zm24.1 11.28h1.14l3.72-12.69h2.43l-4.17 13.47c-.22.7-.45 1.49-.69 2.37-.22.9-.54 1.74-.96 2.52a6.01 6.01 0 01-1.71 1.98c-.72.54-1.66.81-2.82.81a4.3 4.3 0 01-.84-.09 6.62 6.62 0 01-.84-.24 4.51 4.51 0 01-.78-.3 2.1 2.1 0 01-.54-.36l.84-2.16c.12.1.28.2.48.3a5.8 5.8 0 002.04.51c1.5 0 2.52-1.27 3.06-3.81h-2.01l-6.3-15h2.7l5.25 12.69zm21.44-10.65h-5.19c-.08 1.82-.18 3.53-.3 5.13a20.73 20.73 0 01-.69 4.14 6.66 6.66 0 01-1.41 2.79 3.11 3.11 0 01-2.46 1.02c-.4 0-.69-.02-.87-.06-.18-.04-.4-.11-.66-.21l.39-2.22c.38.1.73.15 1.05.15.34 0 .64-.12.9-.36s.49-.62.69-1.14c.22-.54.4-1.29.54-2.25.16-.98.29-2.2.39-3.66.1-1.48.18-3.27.24-5.37h9.72v15h-2.34v-12.96zm10.88 10.89c.22.04.48.07.78.09l.96.09.93.06h.72c1.5 0 2.6-.26 3.3-.78a2.53 2.53 0 001.05-2.1c0-.76-.34-1.41-1.02-1.95-.68-.54-1.75-.81-3.21-.81-.66 0-1.31.01-1.95.03-.62.02-1.14.08-1.56.18v5.19zm0-7.14a33.47 33.47 0 013.84-.21c1.16 0 2.14.12 2.94.36.82.22 1.48.53 1.98.93.52.4.89.87 1.11 1.41.24.52.36 1.09.36 1.71 0 1.82-.62 3.14-1.86 3.96-1.22.82-3.09 1.23-5.61 1.23a25.59 25.59 0 01-2.46-.12l-1.35-.06-1.26-.12V535h2.31v5.79zm13.88-5.79h14.88v5.61h-2.04v-3.57h-4.23v10.95h3.63V550h-9.72v-2.01h3.75v-10.95h-4.23v3.57h-2.04V535zm19.67 1.17c.86-.5 1.83-.86 2.91-1.08a15.9 15.9 0 013.18-.33c1.02 0 1.85.16 2.49.48.66.32 1.17.74 1.53 1.26.38.5.63 1.08.75 1.74.14.64.21 1.29.21 1.95 0 .76-.02 1.57-.06 2.43l-.09 2.58c0 1 .06 1.95.18 2.85h2.01V550h-3.99l-.27-2.25h-.15a5.14 5.14 0 01-2.91 2.22c-.56.2-1.22.3-1.98.3a5.11 5.11 0 01-3.51-1.14 3.95 3.95 0 01-1.29-3.12c0-1.02.22-1.87.66-2.55a4.35 4.35 0 011.95-1.56 8.83 8.83 0 013.03-.63c1.2-.06 2.54.02 4.02.24.1-.92.11-1.68.03-2.28a2.97 2.97 0 00-.48-1.47 1.86 1.86 0 00-1.05-.75 4.88 4.88 0 00-1.65-.24c-.9 0-1.76.13-2.58.39-.82.24-1.55.49-2.19.75l-.75-1.74zm4.41 12.09a4.4 4.4 0 002.82-.96c.36-.28.66-.58.9-.9.24-.34.42-.66.54-.96v-2.1c-1.04-.18-2-.27-2.88-.27-.88 0-1.64.1-2.28.3-.64.18-1.14.47-1.5.87-.36.4-.54.92-.54 1.56 0 .66.22 1.24.66 1.74.46.48 1.22.72 2.28.72zm11.89-13.26h14.88v5.61h-2.04v-3.57h-4.23v10.95h3.63V550h-9.72v-2.01h3.75v-10.95h-4.23v3.57h-2.04V535zm20.24 12.9c.74.12 1.45.18 2.13.18 1.26 0 2.14-.24 2.64-.72.5-.5.75-1.2.75-2.1 0-.8-.25-1.46-.75-1.98-.48-.52-1.33-.78-2.55-.78l-1.11.03c-.4.02-.77.08-1.11.18v5.19zm0-7.17c.48-.08.94-.13 1.38-.15.44-.04.86-.06 1.26-.06 1.02 0 1.87.12 2.55.36.7.22 1.26.53 1.68.93.42.4.71.88.87 1.44.18.54.27 1.12.27 1.74 0 1.82-.51 3.14-1.53 3.96-1 .82-2.63 1.23-4.89 1.23a46.1 46.1 0 01-3.99-.18v-15h2.4v5.73zm10.38-5.73h2.4v15h-2.4v-15zm-117.94 36.31c-.46-.16-.96-.29-1.5-.39a6.92 6.92 0 00-1.56-.18c-1.96 0-3.42.46-4.38 1.38-.96.92-1.44 2.38-1.44 4.38 0 .88.14 1.67.42 2.37.28.68.68 1.26 1.2 1.74.52.48 1.14.85 1.86 1.11a7.93 7.93 0 007.41-1.35l1.05 1.74a11.13 11.13 0 01-2.52 1.5 10.43 10.43 0 01-3.99.75c-1.3 0-2.45-.18-3.45-.54a6.8 6.8 0 01-2.46-1.59 6.97 6.97 0 01-1.5-2.49 9.83 9.83 0 01-.51-3.24c0-1.26.17-2.38.51-3.36a6.44 6.44 0 013.93-3.96 8.75 8.75 0 013.15-.54c1.48 0 2.68.13 3.6.39.94.26 1.73.55 2.37.87l-.03.09v4.17h-2.16v-2.85zm14.15 10.38h1.14l3.72-12.69h2.43l-4.17 13.47c-.22.7-.45 1.49-.69 2.37-.22.9-.54 1.74-.96 2.52a6.01 6.01 0 01-1.71 1.98c-.72.54-1.66.81-2.82.81a4.3 4.3 0 01-.84-.09 6.62 6.62 0 01-.84-.24 4.51 4.51 0 01-.78-.3 2.1 2.1 0 01-.54-.36l.84-2.16c.12.1.28.2.48.3a5.8 5.8 0 002.04.51c1.5 0 2.52-1.27 3.06-3.81h-2.01l-6.3-15h2.7l5.25 12.69zm22.4-6.6l.06-2.13h-.15l-4.32 6.87h-.84l-4.38-6.87h-.12l.15 2.1V584h-2.22v-15h2.37l4.77 7.53h.06l4.56-7.53h2.4v15h-2.34v-8.91zm17.98 0l.06-2.13h-.15l-4.32 6.87h-.84l-4.38-6.87h-.12l.15 2.1V584h-2.22v-15h2.37l4.77 7.53h.06l4.56-7.53h2.4v15h-2.34v-8.91zm8.06 6.81c.74.12 1.45.18 2.13.18 1.26 0 2.14-.24 2.64-.72.5-.5.75-1.2.75-2.1 0-.8-.25-1.46-.75-1.98-.48-.52-1.33-.78-2.55-.78l-1.11.03c-.4.02-.77.08-1.11.18v5.19zm0-7.17c.48-.08.94-.13 1.38-.15.44-.04.86-.06 1.26-.06 1.02 0 1.87.12 2.55.36.7.22 1.26.53 1.68.93.42.4.71.88.87 1.44.18.54.27 1.12.27 1.74 0 1.82-.51 3.14-1.53 3.96-1 .82-2.63 1.23-4.89 1.23a46.1 46.1 0 01-3.99-.18v-15h2.4v5.73zm10.38-5.73h2.4v15h-2.4v-15z" fill="#007BFF"/><rect x="662" y="639" width="319" height="275" rx="49" transform="rotate(-90 662 639)" stroke="#007BFF" stroke-width="2"/><path d="M737.4 402.85v-.87l14.12-8.61 1.14 1.86-11.9 7.05 11.93 6.93-1.14 1.8-14.16-8.16zm17.56-5.85h3.57v-2.97l2.34-.66V397h8v2.01h-8v7.08c0 1.46.35 2.54 1.05 3.24.72.7 1.74 1.05 3.06 1.05.9 0 1.68-.17 2.34-.51.68-.34 1.29-.71 1.83-1.11l.78 1.77a8.4 8.4 0 01-2.52 1.35c-.96.34-1.95.51-2.97.51-.8 0-1.56-.12-2.28-.36a5.04 5.04 0 01-3.15-2.88 6.93 6.93 0 01-.48-2.7v-7.44h-3.57V397zm17.12-6h4.8v7.71h.15a5.14 5.14 0 012-1.53 6.57 6.57 0 012.68-.54c4.4 0 6.6 2.54 6.6 7.62 0 2.58-.71 4.56-2.13 5.94-1.42 1.36-3.44 2.04-6.06 2.04-1.24 0-2.36-.12-3.36-.36s-1.73-.52-2.2-.84v-18.03h-2.48V391zm9.33 7.65c-1.2 0-2.17.34-2.91 1.02a5.93 5.93 0 00-1.62 2.88v6.9c.46.24 1 .43 1.65.57.64.14 1.3.21 2 .21.8 0 1.53-.11 2.17-.33.66-.24 1.22-.6 1.68-1.08.46-.5.8-1.13 1.05-1.89.26-.76.39-1.66.39-2.7a9.4 9.4 0 00-.24-2.16 4.92 4.92 0 00-.78-1.77 3.4 3.4 0 00-1.35-1.2 4.27 4.27 0 00-2.04-.45zm10.3 5.85c0-2.42.64-4.33 1.9-5.73 1.26-1.42 3.06-2.13 5.4-2.13 1.26 0 2.34.21 3.24.63a6.2 6.2 0 013.6 4.14c.3.96.45 1.99.45 3.09 0 1.2-.16 2.29-.48 3.27a6.36 6.36 0 01-3.72 4.05c-.9.36-1.93.54-3.1.54-1.23 0-2.31-.2-3.23-.6a6.51 6.51 0 01-3.63-4.17c-.28-.96-.42-1.99-.42-3.09zm2.5 0c0 .7.08 1.4.24 2.1a6 6 0 00.84 1.89c.38.56.87 1.01 1.47 1.35.62.34 1.37.51 2.25.51 1.6 0 2.8-.49 3.6-1.47.82-1 1.23-2.46 1.23-4.38 0-.72-.1-1.42-.27-2.1a5.21 5.21 0 00-.84-1.89 4.25 4.25 0 00-3.72-1.86c-1.6 0-2.8.49-3.6 1.47-.8.98-1.2 2.44-1.2 4.38zm24.25-13.5h4.86v15.87l.03.69.06.84.12.9.12.75h2.01V412h-3.99l-.3-2.31h-.12c-.44.76-1.1 1.4-1.98 1.92-.86.5-1.86.75-3 .75-2.26 0-3.93-.63-5-1.89-1.07-1.28-1.6-3.26-1.6-5.94 0-1.26.18-2.37.54-3.33a6.4 6.4 0 013.96-3.93 9.21 9.21 0 013.15-.51 18.03 18.03 0 012.04.12 25.72 25.72 0 011.62.39v-4.26h-2.52V391zm-1.8 19.35a4.2 4.2 0 002.88-.93 5.15 5.15 0 001.44-2.85v-6.96c-.44-.3-.94-.52-1.5-.66a8.92 8.92 0 00-2.16-.21c-1.6 0-2.86.47-3.78 1.41-.92.92-1.38 2.38-1.38 4.38 0 .82.07 1.59.21 2.31.16.7.41 1.31.75 1.83.36.52.83.93 1.41 1.23.58.3 1.3.45 2.13.45zm18.65-.66h1.14l3.72-12.69h2.43l-4.17 13.47c-.22.7-.45 1.49-.69 2.37-.22.9-.54 1.74-.96 2.52a6.01 6.01 0 01-1.7 1.98c-.73.54-1.67.81-2.83.81a4.3 4.3 0 01-.84-.09 6.62 6.62 0 01-.84-.24 4.51 4.51 0 01-.78-.3 2.1 2.1 0 01-.54-.36l.84-2.16c.12.1.28.2.48.3.22.1.45.18.7.24a5.8 5.8 0 001.34.27c1.5 0 2.52-1.27 3.06-3.81h-2l-6.3-15h2.7l5.24 12.69zm11.15 1.32l-1.14-1.8 11.94-6.93-11.9-7.05 1.13-1.86 14.13 8.61v.87l-14.16 8.16zM743.77 515.22h-1.65V522h-2.3v-15h2.3v6.42h1.65l5.91-6.42h2.82l-6.63 7.11 5.46 5.88h1.95V522h-3.09l-6.42-6.78zm12.47-.72c0-2.42.63-4.33 1.89-5.73 1.26-1.42 3.06-2.13 5.4-2.13 1.26 0 2.34.21 3.24.63a6.2 6.2 0 013.6 4.14c.3.96.45 1.99.45 3.09 0 1.2-.16 2.29-.48 3.27a6.36 6.36 0 01-3.72 4.05c-.9.36-1.93.54-3.1.54-1.23 0-2.31-.2-3.23-.6a6.51 6.51 0 01-3.63-4.17c-.28-.96-.42-1.99-.42-3.09zm2.49 0c0 .7.08 1.4.24 2.1a6 6 0 00.84 1.89c.38.56.87 1.01 1.47 1.35.62.34 1.37.51 2.25.51 1.6 0 2.8-.49 3.6-1.47.82-1 1.23-2.46 1.23-4.38 0-.72-.1-1.42-.27-2.1a5.21 5.21 0 00-.84-1.89 4.25 4.25 0 00-3.72-1.86c-1.6 0-2.8.49-3.6 1.47-.8.98-1.2 2.44-1.2 4.38zm26.8.84h-8.06V522h-2.31v-15h2.3v6.24h8.08V507h2.34v15h-2.34v-6.66zm6.54-8.34h14.88v5.61h-2.04v-3.57h-4.23v10.95h3.63V522h-9.72v-2.01h3.75v-10.95h-4.23v3.57h-2.04V507zm32.3 13.11a8.91 8.91 0 01-2.88 1.62c-.59.2-1.2.35-1.84.45a9.92 9.92 0 01-5.07-.36 6.36 6.36 0 01-3.72-4.08c-.32-.96-.48-2.04-.48-3.24 0-1.26.17-2.38.51-3.36a6.44 6.44 0 013.93-3.96 9.57 9.57 0 015.64-.21c.82.22 1.54.64 2.16 1.26.64.6 1.13 1.44 1.47 2.52.34 1.06.46 2.44.36 4.14h-11.6c0 1.8.47 3.15 1.43 4.05a5.62 5.62 0 003.9 1.32c.54 0 1.07-.06 1.6-.18.53-.14 1.04-.3 1.52-.48a7.4 7.4 0 002.13-1.2l.93 1.71zm-6.34-11.49a8.3 8.3 0 00-1.89.21c-.58.14-1.1.38-1.56.72-.44.32-.8.75-1.1 1.29a5.23 5.23 0 00-.55 1.95h9.33a4.5 4.5 0 00-1.29-3.06 3.97 3.97 0 00-2.94-1.11zm21.47 6.72h-8.07V522h-2.3v-15h2.3v6.24h8.07V507h2.34v15h-2.34v-6.66zm6.53-8.34h14.88v5.61h-2.04v-3.57h-4.23v10.95h3.63V522h-9.72v-2.01h3.75v-10.95h-4.23v3.57h-2.04V507zm-83.51 52.6h-2.04V556H748.4v3.6h-2.03v-5.64h1.67c.19-.22.43-.61.73-1.17.3-.58.59-1.38.87-2.4.27-1.04.52-2.32.75-3.84a46 46 0 00.38-5.55h9.43v12.96h2.3v5.64zm-4.65-5.61v-10.98h-4.96c-.03.86-.12 1.79-.24 2.79-.1 1-.25 2-.44 3-.2.98-.46 1.92-.75 2.82-.28.9-.62 1.69-1 2.37h7.38zm8.9-11.82c.85-.5 1.82-.86 2.9-1.08a15.9 15.9 0 013.18-.33c1.02 0 1.85.16 2.5.48.65.32 1.16.74 1.52 1.26.38.5.63 1.08.75 1.74.14.64.21 1.29.21 1.95 0 .76-.02 1.57-.06 2.43l-.09 2.58c0 1 .06 1.95.18 2.85h2.01V556h-3.99l-.27-2.25h-.15a5.14 5.14 0 01-2.91 2.22c-.56.2-1.22.3-1.98.3a5.11 5.11 0 01-3.5-1.14 3.95 3.95 0 01-1.3-3.12c0-1.02.22-1.87.66-2.55a4.35 4.35 0 011.95-1.56 8.83 8.83 0 013.03-.63c1.2-.06 2.54.02 4.02.24.1-.92.11-1.68.03-2.28a2.97 2.97 0 00-.48-1.47 1.86 1.86 0 00-1.05-.75 4.88 4.88 0 00-1.65-.24c-.9 0-1.76.13-2.58.39-.82.24-1.55.49-2.19.75l-.75-1.74zm4.4 12.09a4.4 4.4 0 002.82-.96c.36-.28.66-.58.9-.9.24-.34.42-.66.54-.96v-2.1c-1.04-.18-2-.27-2.88-.27-.88 0-1.64.1-2.28.3-.64.18-1.14.47-1.5.87-.36.4-.54.92-.54 1.56 0 .66.22 1.24.66 1.74.46.48 1.22.72 2.28.72zm23.36-4.92h-8.07V556h-2.3v-15h2.3v6.24h8.07V541h2.34v15h-2.34v-6.66zm17.99 0h-8.07V556h-2.31v-15h2.31v6.24h8.07V541h2.34v15h-2.34v-6.66zm8.78 4.56c.74.12 1.45.18 2.13.18 1.26 0 2.14-.24 2.64-.72.5-.5.75-1.2.75-2.1 0-.8-.25-1.46-.75-1.98-.48-.52-1.33-.78-2.55-.78l-1.11.03c-.4.02-.77.08-1.11.18v5.19zm0-7.17c.48-.08.94-.13 1.38-.15.44-.04.86-.06 1.26-.06 1.02 0 1.87.12 2.55.36.7.22 1.26.53 1.68.93.42.4.7.88.87 1.44.18.54.27 1.12.27 1.74 0 1.82-.51 3.14-1.53 3.96-1 .82-2.63 1.23-4.9 1.23a46.1 46.1 0 01-3.98-.18v-15h2.4v5.73zm10.38-5.73h2.4v15h-2.4v-15zm19.67 13.11a8.91 8.91 0 01-2.88 1.62c-.58.2-1.2.35-1.83.45a9.92 9.92 0 01-5.07-.36 6.36 6.36 0 01-3.72-4.08c-.32-.96-.48-2.04-.48-3.24 0-1.26.17-2.38.5-3.36a6.44 6.44 0 013.93-3.96 9.57 9.57 0 015.64-.21c.83.22 1.55.64 2.17 1.26.64.6 1.13 1.44 1.47 2.52.34 1.06.46 2.44.36 4.14h-11.61c0 1.8.48 3.15 1.44 4.05a5.62 5.62 0 003.9 1.32c.54 0 1.07-.06 1.59-.18.54-.14 1.05-.3 1.53-.48a7.4 7.4 0 002.13-1.2l.93 1.71zm-6.33-11.49a8.3 8.3 0 00-1.9.21c-.57.14-1.1.38-1.55.72-.44.32-.81.75-1.11 1.29a5.23 5.23 0 00-.54 1.95h9.33a4.5 4.5 0 00-1.3-3.06 3.97 3.97 0 00-2.93-1.11z" fill="#007BFF"/><rect x="348" y="639" width="319" height="275" rx="49" transform="rotate(-90 348 639)" stroke="#007BFF" stroke-width="2"/><path d="M423.4 402.85v-.87l14.12-8.61 1.14 1.86-11.9 7.05 11.93 6.93-1.14 1.8-14.16-8.16zm17.56-5.85h3.57v-2.97l2.34-.66V397h8v2.01h-8v7.08c0 1.46.35 2.54 1.05 3.24.72.7 1.74 1.05 3.06 1.05.9 0 1.68-.17 2.34-.51.68-.34 1.29-.71 1.83-1.11l.78 1.77a8.4 8.4 0 01-2.52 1.35c-.96.34-1.95.51-2.97.51-.8 0-1.56-.12-2.28-.36a5.04 5.04 0 01-3.15-2.88 6.93 6.93 0 01-.48-2.7v-7.44h-3.57V397zm17.18-6h4.68v7.86h.15a6.53 6.53 0 015.22-2.22c.96 0 1.79.1 2.49.3.72.2 1.3.55 1.74 1.05.46.5.8 1.19 1.02 2.07.22.86.33 1.96.33 3.3V412h-2.34v-8.19c0-.86-.05-1.61-.15-2.25-.1-.64-.3-1.17-.6-1.59a2.58 2.58 0 00-1.17-.99 4.8 4.8 0 00-1.92-.33 5.03 5.03 0 00-4.14 2.28c-.3.46-.51.97-.63 1.53V412h-2.31v-18.99h-2.37V391zm33.74 19.11a8.91 8.91 0 01-2.88 1.62c-.58.2-1.2.35-1.83.45a9.92 9.92 0 01-5.07-.36 6.36 6.36 0 01-3.72-4.08c-.32-.96-.48-2.04-.48-3.24 0-1.26.17-2.38.5-3.36a6.44 6.44 0 013.93-3.96 9.57 9.57 0 015.64-.21c.83.22 1.55.64 2.17 1.26.64.6 1.13 1.44 1.47 2.52.34 1.06.46 2.44.36 4.14h-11.61c0 1.8.48 3.15 1.44 4.05a5.62 5.62 0 003.9 1.32c.54 0 1.07-.06 1.59-.18.54-.14 1.05-.3 1.53-.48a7.4 7.4 0 002.13-1.2l.93 1.71zm-6.33-11.49a8.3 8.3 0 00-1.9.21c-.57.14-1.1.38-1.55.72-.44.32-.81.75-1.11 1.29a5.23 5.23 0 00-.54 1.95h9.33a4.5 4.5 0 00-1.3-3.06 3.97 3.97 0 00-2.93-1.11zm11.68-.45c.86-.5 1.83-.86 2.91-1.08a15.9 15.9 0 013.18-.33c1.02 0 1.85.16 2.5.48.65.32 1.16.74 1.52 1.26.38.5.63 1.08.75 1.74.14.64.21 1.29.21 1.95 0 .76-.02 1.57-.06 2.43l-.09 2.58c0 1 .06 1.95.18 2.85h2.01V412h-3.99l-.27-2.25h-.15a5.14 5.14 0 01-2.91 2.22c-.56.2-1.22.3-1.98.3a5.11 5.11 0 01-3.5-1.14 3.95 3.95 0 01-1.3-3.12c0-1.02.22-1.87.66-2.55a4.35 4.35 0 011.95-1.56 8.83 8.83 0 013.03-.63c1.2-.06 2.54.02 4.02.24.1-.92.11-1.68.03-2.28a2.97 2.97 0 00-.48-1.47 1.86 1.86 0 00-1.05-.75 4.88 4.88 0 00-1.65-.24c-.9 0-1.76.13-2.58.39-.82.24-1.55.49-2.19.75l-.75-1.74zm4.41 12.09a4.4 4.4 0 002.82-.96c.36-.28.66-.58.9-.9.24-.34.42-.66.54-.96v-2.1c-1.04-.18-2-.27-2.88-.27-.88 0-1.64.1-2.28.3-.64.18-1.14.47-1.5.87-.36.4-.54.92-.54 1.56 0 .66.22 1.24.66 1.74.46.48 1.22.72 2.28.72zM522.45 391h4.86v15.87l.03.69.06.84.12.9.12.75h2.01V412h-3.99l-.3-2.31h-.12c-.44.76-1.1 1.4-1.98 1.92-.86.5-1.86.75-3 .75-2.26 0-3.93-.63-5-1.89-1.07-1.28-1.6-3.26-1.6-5.94 0-1.26.18-2.37.54-3.33a6.4 6.4 0 013.96-3.93 9.21 9.21 0 013.15-.51 18.03 18.03 0 012.04.12 25.72 25.72 0 011.62.39v-4.26h-2.52V391zm-1.8 19.35a4.2 4.2 0 002.88-.93 5.15 5.15 0 001.44-2.85v-6.96c-.44-.3-.94-.52-1.5-.66a8.92 8.92 0 00-2.16-.21c-1.6 0-2.86.47-3.78 1.41-.92.92-1.38 2.38-1.38 4.38 0 .82.07 1.59.21 2.31.16.7.41 1.31.75 1.83.36.52.83.93 1.41 1.23.58.3 1.3.45 2.13.45zm11.81.66l-1.14-1.8 11.94-6.93-11.9-7.05 1.13-1.86 14.13 8.61v.87l-14.16 8.16zM406.76 519.41l-.03-.09c.34-.2.7-.39 1.08-.57a11.58 11.58 0 015.13-1.05c.82 0 1.58.09 2.28.27.7.16 1.31.4 1.83.72.52.32.92.72 1.2 1.2a2.85 2.85 0 01.24 2.61c-.12.34-.3.67-.57.99-.26.32-.57.61-.93.87-.36.26-.77.46-1.23.6v.12c1.32.22 2.24.64 2.76 1.26.54.62.81 1.44.81 2.46 0 .64-.15 1.23-.45 1.77a4.1 4.1 0 01-1.35 1.41c-.58.4-1.3.72-2.19.96-.86.22-1.87.33-3.03.33a10.52 10.52 0 01-4.2-.84c-.52-.24-.97-.5-1.35-.78a5.47 5.47 0 01-.84-.78l1.2-1.89a5.86 5.86 0 001.98 1.5c.48.22 1.02.41 1.62.57a9.72 9.72 0 003.7.06c.5-.12.92-.28 1.28-.48.38-.22.68-.49.9-.81.22-.34.33-.73.33-1.17a1.9 1.9 0 00-1.05-1.74c-.68-.4-1.8-.6-3.39-.6h-1.7v-1.95h2.12a4.16 4.16 0 002.28-.69c.32-.22.58-.47.78-.75a1.7 1.7 0 000-1.95c-.2-.3-.48-.54-.84-.72a6.9 6.9 0 00-2.7-.54 8.2 8.2 0 00-3.63.78v2.49h-2.04v-3.57zm18.02-.24c.86-.5 1.83-.86 2.91-1.08a15.9 15.9 0 013.18-.33c1.02 0 1.85.16 2.5.48.65.32 1.16.74 1.52 1.26.38.5.63 1.08.75 1.74.14.64.21 1.29.21 1.95 0 .76-.02 1.57-.06 2.43l-.09 2.58c0 1 .06 1.95.18 2.85h2.01V533h-3.99l-.27-2.25h-.15a5.14 5.14 0 01-2.91 2.22c-.56.2-1.22.3-1.98.3a5.11 5.11 0 01-3.5-1.14 3.95 3.95 0 01-1.3-3.12c0-1.02.22-1.87.66-2.55a4.35 4.35 0 011.95-1.56 8.83 8.83 0 013.03-.63c1.2-.06 2.54.02 4.02.24.1-.92.11-1.68.03-2.28a2.97 2.97 0 00-.48-1.47 1.86 1.86 0 00-1.05-.75 4.88 4.88 0 00-1.65-.24c-.9 0-1.76.13-2.58.39-.82.24-1.55.49-2.19.75l-.75-1.74zm4.41 12.09a4.4 4.4 0 002.82-.96c.36-.28.66-.58.9-.9.24-.34.42-.66.54-.96v-2.1c-1.04-.18-2-.27-2.88-.27-.88 0-1.64.1-2.28.3-.64.18-1.14.47-1.5.87-.36.4-.54.92-.54 1.56 0 .66.22 1.24.66 1.74.46.48 1.22.72 2.28.72zm13.4 1.74v-2.01h1.92v-10.95h-1.92V518h12.12v5.61h-2.04v-3.57h-5.82v10.95h4.56V533h-8.82zm16.64-7.5c0-2.42.63-4.33 1.89-5.73 1.26-1.42 3.06-2.13 5.4-2.13 1.26 0 2.34.21 3.24.63a6.2 6.2 0 013.6 4.14c.3.96.45 1.99.45 3.09 0 1.2-.16 2.29-.48 3.27a6.36 6.36 0 01-3.72 4.05c-.9.36-1.93.54-3.1.54-1.23 0-2.31-.2-3.23-.6a6.51 6.51 0 01-3.63-4.17c-.28-.96-.42-1.99-.42-3.09zm2.49 0c0 .7.08 1.4.24 2.1a6 6 0 00.84 1.89c.38.56.87 1.01 1.47 1.35.62.34 1.37.51 2.25.51 1.6 0 2.8-.49 3.6-1.47.82-1 1.23-2.46 1.23-4.38 0-.72-.1-1.42-.27-2.1a5.21 5.21 0 00-.84-1.89 4.25 4.25 0 00-3.72-1.86c-1.6 0-2.8.49-3.6 1.47-.8.98-1.2 2.44-1.2 4.38zm26.57-5.46h-5.2c-.07 1.82-.17 3.53-.3 5.13a20.73 20.73 0 01-.68 4.14 6.66 6.66 0 01-1.41 2.79 3.11 3.11 0 01-2.46 1.02c-.4 0-.7-.02-.87-.06-.18-.04-.4-.11-.66-.21l.39-2.22c.38.1.73.15 1.05.15.34 0 .64-.12.9-.36s.49-.62.69-1.14c.22-.54.4-1.29.54-2.25.16-.98.29-2.2.39-3.66.1-1.48.18-3.27.24-5.37h9.72v15h-2.34v-12.96zm6.91 5.46c0-2.42.63-4.33 1.9-5.73 1.25-1.42 3.05-2.13 5.4-2.13 1.25 0 2.33.21 3.23.63a6.2 6.2 0 013.6 4.14c.3.96.45 1.99.45 3.09 0 1.2-.16 2.29-.48 3.27a6.36 6.36 0 01-3.72 4.05c-.9.36-1.93.54-3.09.54-1.24 0-2.32-.2-3.24-.6a6.51 6.51 0 01-3.63-4.17c-.28-.96-.42-1.99-.42-3.09zm2.5 0c0 .7.07 1.4.23 2.1a6 6 0 00.84 1.89c.38.56.87 1.01 1.47 1.35.62.34 1.37.51 2.25.51 1.6 0 2.8-.49 3.6-1.47.82-1 1.23-2.46 1.23-4.38 0-.72-.09-1.42-.27-2.1a5.21 5.21 0 00-.84-1.89 4.25 4.25 0 00-3.72-1.86c-1.6 0-2.8.49-3.6 1.47-.8.98-1.2 2.44-1.2 4.38zm17.38-7.47l1.14-.06c.38-.04.8-.07 1.23-.09a45.63 45.63 0 013.15-.09c2.16 0 3.72.31 4.68.93a3 3 0 011.44 2.73c0 .7-.23 1.4-.69 2.1a3.89 3.89 0 01-2.25 1.47v.12c1.32.22 2.25.63 2.8 1.23.53.58.8 1.38.8 2.4 0 1.56-.64 2.69-1.92 3.39-1.26.7-3.1 1.05-5.52 1.05a87.2 87.2 0 01-4.86-.24v-14.94zm2.31 13.08a31.95 31.95 0 002.94.12c1.56 0 2.72-.19 3.48-.57.78-.4 1.17-1.08 1.17-2.04 0-.38-.08-.72-.24-1.02-.14-.3-.39-.56-.75-.78a4.05 4.05 0 00-1.35-.51c-.56-.12-1.26-.18-2.1-.18h-3.15v4.98zm3.57-6.78a4.16 4.16 0 002.28-.69c.34-.22.61-.47.81-.75.2-.3.3-.61.3-.93 0-.82-.3-1.39-.9-1.71-.58-.32-1.56-.48-2.94-.48a44.15 44.15 0 00-3.12.09v4.47h3.57zm15.74 1.89h-1.65V533h-2.3v-15h2.3v6.42h1.65l5.91-6.42h2.82l-6.63 7.11 5.46 5.88h1.95V533h-3.09l-6.42-6.78zm23.87-2.64l.09-1.98h-.1l-8.42 11.4H550v-15h2.34v9.69l-.1 1.89h.13l8.37-11.58h2.16v15h-2.34v-9.42zm-135 36.76h-8.07V567h-2.31v-15h2.3v6.24h8.08V552h2.34v15h-2.34v-6.66zm8.2-7.17c.87-.5 1.84-.86 2.92-1.08a15.9 15.9 0 013.18-.33c1.01 0 1.84.16 2.49.48.65.32 1.16.74 1.52 1.26.38.5.63 1.08.75 1.74.14.64.22 1.29.22 1.95 0 .76-.03 1.57-.06 2.43-.05.86-.08 1.72-.1 2.58 0 1 .06 1.95.19 2.85h2V567h-3.99l-.26-2.25h-.15c-.13.18-.3.41-.55.69a5.14 5.14 0 01-2.37 1.53c-.56.2-1.21.3-1.98.3a5.11 5.11 0 01-3.5-1.14 3.95 3.95 0 01-1.3-3.12c0-1.02.23-1.87.67-2.55a4.35 4.35 0 011.94-1.56 8.83 8.83 0 013.04-.63c1.2-.06 2.53.02 4.01.24.1-.92.12-1.68.04-2.28a2.97 2.97 0 00-.49-1.47 1.86 1.86 0 00-1.05-.75 4.88 4.88 0 00-1.64-.24c-.9 0-1.76.13-2.59.39-.81.24-1.54.49-2.19.75l-.75-1.74zm4.42 12.09a4.4 4.4 0 002.81-.96c.37-.28.67-.58.9-.9.25-.34.43-.66.55-.96v-2.1c-1.05-.18-2-.27-2.88-.27-.88 0-1.64.1-2.28.3-.65.18-1.15.47-1.5.87-.37.4-.55.92-.55 1.56 0 .66.22 1.24.66 1.74.47.48 1.23.72 2.29.72zm13.54-11.85l-.03-.09c.34-.2.7-.39 1.08-.57a11.58 11.58 0 015.13-1.05c.82 0 1.58.09 2.28.27.7.16 1.31.4 1.83.72.52.32.92.72 1.2 1.2a2.85 2.85 0 01.24 2.61c-.12.34-.3.67-.57.99-.26.32-.57.61-.93.87-.36.26-.77.46-1.23.6v.12c1.32.22 2.24.64 2.76 1.26.54.62.81 1.44.81 2.46 0 .64-.15 1.23-.45 1.77a4.1 4.1 0 01-1.35 1.41c-.58.4-1.3.72-2.19.96-.86.22-1.87.33-3.03.33a10.52 10.52 0 01-4.2-.84c-.52-.24-.97-.5-1.35-.78a5.47 5.47 0 01-.84-.78l1.2-1.89a5.86 5.86 0 001.98 1.5c.48.22 1.02.41 1.62.57a9.72 9.72 0 003.7.06c.5-.12.92-.28 1.28-.48.38-.22.68-.49.9-.81.22-.34.33-.73.33-1.17a1.9 1.9 0 00-1.05-1.74c-.68-.4-1.8-.6-3.39-.6h-1.7v-1.95h2.12a4.16 4.16 0 002.28-.69c.32-.22.58-.47.78-.75a1.7 1.7 0 000-1.95c-.2-.3-.48-.54-.84-.72a6.9 6.9 0 00-2.7-.54 8.2 8.2 0 00-3.63.78v2.49h-2.04v-3.57zm18.38-1.38l1.14-.06c.38-.04.8-.07 1.23-.09a45.63 45.63 0 013.15-.09c2.16 0 3.72.31 4.68.93a3 3 0 011.44 2.73c0 .7-.23 1.4-.69 2.1a3.89 3.89 0 01-2.25 1.47v.12c1.32.22 2.25.63 2.8 1.23.53.58.8 1.38.8 2.4 0 1.56-.64 2.69-1.92 3.39-1.26.7-3.1 1.05-5.52 1.05a87.2 87.2 0 01-4.86-.24v-14.94zm2.31 13.08a31.95 31.95 0 002.94.12c1.56 0 2.72-.19 3.48-.57.78-.4 1.17-1.08 1.17-2.04 0-.38-.08-.72-.24-1.02-.14-.3-.39-.56-.75-.78a4.05 4.05 0 00-1.35-.51c-.56-.12-1.26-.18-2.1-.18h-3.15v4.98zm3.57-6.78a4.16 4.16 0 002.28-.69c.34-.22.61-.47.81-.75.2-.3.3-.61.3-.93 0-.82-.3-1.39-.9-1.71-.58-.32-1.56-.48-2.94-.48a44.15 44.15 0 00-3.12.09v4.47H476zm11.75-5.16c.86-.5 1.83-.86 2.91-1.08a15.9 15.9 0 013.18-.33c1.02 0 1.85.16 2.49.48.66.32 1.17.74 1.53 1.26.38.5.63 1.08.75 1.74.14.64.21 1.29.21 1.95 0 .76-.02 1.57-.06 2.43l-.09 2.58c0 1 .06 1.95.18 2.85h2.01V567h-3.99l-.27-2.25h-.15a5.14 5.14 0 01-2.91 2.22c-.56.2-1.22.3-1.98.3a5.11 5.11 0 01-3.51-1.14 3.95 3.95 0 01-1.29-3.12c0-1.02.22-1.87.66-2.55a4.35 4.35 0 011.95-1.56 8.83 8.83 0 013.03-.63c1.2-.06 2.54.02 4.02.24.1-.92.11-1.68.03-2.28a2.97 2.97 0 00-.48-1.47 1.86 1.86 0 00-1.05-.75 4.88 4.88 0 00-1.65-.24c-.9 0-1.76.13-2.58.39-.82.24-1.55.49-2.19.75l-.75-1.74zm4.41 12.09a4.4 4.4 0 002.82-.96c.36-.28.66-.58.9-.9.24-.34.42-.66.54-.96v-2.1c-1.04-.18-2-.27-2.88-.27-.88 0-1.64.1-2.28.3-.64.18-1.14.47-1.5.87-.36.4-.54.92-.54 1.56 0 .66.22 1.24.66 1.74.46.48 1.22.72 2.28.72zm23.36-4.92h-8.07V567h-2.31v-15h2.3v6.24h8.08V552h2.34v15h-2.34v-6.66zm18.08-2.76l.09-1.98h-.1l-8.42 11.4h-2.13v-15h2.34v9.69l-.1 1.89h.13l8.37-11.58h2.16v15h-2.34v-9.42zm17.17 3.57h-3.6L543.4 567h-3v-2.01h1.56l2.72-4.08a4.15 4.15 0 01-2.1-1.35 4.9 4.9 0 01-.69-1.23 5 5 0 01-.24-1.59 4.48 4.48 0 012.04-3.93c.65-.42 1.4-.72 2.29-.9a13.14 13.14 0 015.06-.12l2.08.33V567h-2.35v-5.85zm0-1.8v-5.34a7.67 7.67 0 00-1.98-.39c-1.51 0-2.67.24-3.48.72-.8.46-1.2 1.2-1.2 2.22 0 .82.25 1.46.73 1.92a3.6 3.6 0 001.74.87h4.2z" fill="#007BFF"/></svg>