<svg width="1600" height="900" viewBox="0 0 1600 900" fill="none" xmlns="http://www.w3.org/2000/svg">
<rect x="301" y="225" width="998" height="560.5" rx="49" stroke="#007BFF" stroke-width="2"/>
<path d="M736.936 272.85V271.98L751.066 263.37L752.206 265.23L740.296 272.28L752.236 279.21L751.096 281.01L736.936 272.85ZM754.504 267H758.074V264.03L760.414 263.37V267H768.424V269.01H760.414V276.09C760.414 277.55 760.764 278.63 761.464 279.33C762.184 280.03 763.204 280.38 764.524 280.38C765.424 280.38 766.204 280.21 766.864 279.87C767.544 279.53 768.154 279.16 768.694 278.76L769.474 280.53C768.774 281.09 767.934 281.54 766.954 281.88C765.994 282.22 765.004 282.39 763.984 282.39C763.184 282.39 762.424 282.27 761.704 282.03C761.004 281.81 760.384 281.46 759.844 280.98C759.304 280.5 758.874 279.89 758.554 279.15C758.234 278.39 758.074 277.49 758.074 276.45V269.01H754.504V267ZM774.803 268.17C775.663 267.67 776.633 267.31 777.713 267.09C778.793 266.87 779.853 266.76 780.893 266.76C781.913 266.76 782.743 266.92 783.383 267.24C784.043 267.56 784.553 267.98 784.913 268.5C785.293 269 785.543 269.58 785.663 270.24C785.803 270.88 785.873 271.53 785.873 272.19C785.873 272.95 785.853 273.76 785.813 274.62C785.773 275.48 785.743 276.34 785.723 277.2C785.723 278.2 785.783 279.15 785.903 280.05H787.913V282H783.923L783.653 279.75H783.503C783.383 279.93 783.203 280.16 782.963 280.44C782.723 280.72 782.403 281 782.003 281.28C781.623 281.54 781.153 281.77 780.593 281.97C780.033 282.17 779.373 282.27 778.613 282.27C777.133 282.27 775.963 281.89 775.103 281.13C774.243 280.37 773.813 279.33 773.813 278.01C773.813 276.99 774.033 276.14 774.473 275.46C774.933 274.78 775.583 274.26 776.423 273.9C777.263 273.54 778.273 273.33 779.453 273.27C780.653 273.21 781.993 273.29 783.473 273.51C783.573 272.59 783.583 271.83 783.503 271.23C783.443 270.61 783.283 270.12 783.023 269.76C782.783 269.4 782.433 269.15 781.973 269.01C781.533 268.85 780.983 268.77 780.323 268.77C779.423 268.77 778.563 268.9 777.743 269.16C776.923 269.4 776.193 269.65 775.553 269.91L774.803 268.17ZM779.213 280.26C779.773 280.26 780.293 280.17 780.773 279.99C781.253 279.81 781.673 279.58 782.033 279.3C782.393 279.02 782.693 278.72 782.933 278.4C783.173 278.06 783.353 277.74 783.473 277.44V275.34C782.433 275.16 781.473 275.07 780.593 275.07C779.713 275.07 778.953 275.17 778.313 275.37C777.673 275.55 777.173 275.84 776.813 276.24C776.453 276.64 776.273 277.16 776.273 277.8C776.273 278.46 776.493 279.04 776.933 279.54C777.393 280.02 778.153 280.26 779.213 280.26ZM789.611 261H794.411V268.71H794.561C795.081 268.05 795.751 267.54 796.571 267.18C797.391 266.82 798.281 266.64 799.241 266.64C803.641 266.64 805.841 269.18 805.841 274.26C805.841 276.84 805.131 278.82 803.711 280.2C802.291 281.56 800.271 282.24 797.651 282.24C796.411 282.24 795.291 282.12 794.291 281.88C793.291 281.64 792.561 281.36 792.101 281.04V263.01H789.611V261ZM798.941 268.65C797.741 268.65 796.771 268.99 796.031 269.67C795.291 270.35 794.751 271.31 794.411 272.55V279.45C794.871 279.69 795.421 279.88 796.061 280.02C796.701 280.16 797.371 280.23 798.071 280.23C798.871 280.23 799.591 280.12 800.231 279.9C800.891 279.66 801.451 279.3 801.911 278.82C802.371 278.32 802.721 277.69 802.961 276.93C803.221 276.17 803.351 275.27 803.351 274.23C803.351 273.47 803.271 272.75 803.111 272.07C802.951 271.39 802.691 270.8 802.331 270.3C801.991 269.78 801.541 269.38 800.981 269.1C800.421 268.8 799.741 268.65 798.941 268.65ZM809.639 261H814.619V276.96C814.619 278.18 814.819 279.04 815.219 279.54C815.639 280.04 816.249 280.29 817.049 280.29C817.609 280.29 818.179 280.18 818.759 279.96C819.339 279.74 819.869 279.43 820.349 279.03L821.429 280.62C821.109 280.9 820.759 281.15 820.379 281.37C819.999 281.59 819.609 281.78 819.209 281.94C818.809 282.08 818.409 282.19 818.009 282.27C817.609 282.35 817.239 282.39 816.899 282.39C816.159 282.39 815.499 282.29 814.919 282.09C814.339 281.91 813.849 281.61 813.449 281.19C813.069 280.77 812.779 280.22 812.579 279.54C812.379 278.84 812.279 277.98 812.279 276.96V263.01H809.639V261ZM841.397 280.11C841.037 280.43 840.607 280.73 840.107 281.01C839.627 281.29 839.097 281.53 838.517 281.73C837.937 281.93 837.327 282.08 836.687 282.18C836.067 282.3 835.437 282.36 834.797 282.36C833.597 282.36 832.537 282.18 831.617 281.82C830.697 281.44 829.927 280.91 829.307 280.23C828.687 279.53 828.217 278.7 827.897 277.74C827.577 276.78 827.417 275.7 827.417 274.5C827.417 273.24 827.587 272.12 827.927 271.14C828.287 270.16 828.797 269.34 829.457 268.68C830.117 268.02 830.917 267.52 831.857 267.18C832.797 266.82 833.847 266.64 835.007 266.64C835.847 266.64 836.677 266.75 837.497 266.97C838.317 267.19 839.037 267.61 839.657 268.23C840.297 268.83 840.787 269.67 841.127 270.75C841.467 271.81 841.587 273.19 841.487 274.89H829.877C829.877 276.69 830.357 278.04 831.317 278.94C832.297 279.82 833.597 280.26 835.217 280.26C835.757 280.26 836.287 280.2 836.807 280.08C837.347 279.94 837.857 279.78 838.337 279.6C838.817 279.42 839.237 279.22 839.597 279C839.977 278.78 840.267 278.58 840.467 278.4L841.397 280.11ZM835.067 268.62C834.407 268.62 833.777 268.69 833.177 268.83C832.597 268.97 832.077 269.21 831.617 269.55C831.177 269.87 830.807 270.3 830.507 270.84C830.227 271.36 830.047 272.01 829.967 272.79H839.297C839.197 271.47 838.767 270.45 838.007 269.73C837.267 268.99 836.287 268.62 835.067 268.62ZM846.006 281.01L844.866 279.21L856.806 272.28L844.896 265.23L846.036 263.37L860.166 271.98V272.85L846.006 281.01Z" fill="#007BFF"/>
<rect x="347" y="746" width="65" height="903" rx="32.5" transform="rotate(-90 347 746)" stroke="#007BFF" stroke-width="2"/>
<path d="M718.948 714.85V713.98L733.078 705.37L734.218 707.23L722.308 714.28L734.248 721.21L733.108 723.01L718.948 714.85ZM748.756 711.31C748.296 711.15 747.796 711.02 747.256 710.92C746.736 710.8 746.216 710.74 745.696 710.74C743.736 710.74 742.276 711.2 741.316 712.12C740.356 713.04 739.876 714.5 739.876 716.5C739.876 717.38 740.016 718.17 740.296 718.87C740.576 719.55 740.976 720.13 741.496 720.61C742.016 721.09 742.636 721.46 743.356 721.72C744.096 721.98 744.906 722.11 745.786 722.11C746.726 722.11 747.636 721.95 748.516 721.63C749.416 721.31 750.166 720.89 750.766 720.37L751.816 722.11C751.536 722.35 751.186 722.6 750.766 722.86C750.346 723.12 749.856 723.37 749.296 723.61C748.756 723.83 748.146 724.01 747.466 724.15C746.806 724.29 746.086 724.36 745.306 724.36C744.006 724.36 742.856 724.18 741.856 723.82C740.876 723.44 740.056 722.91 739.396 722.23C738.736 721.53 738.236 720.7 737.896 719.74C737.556 718.76 737.386 717.68 737.386 716.5C737.386 715.24 737.556 714.12 737.896 713.14C738.256 712.16 738.766 711.34 739.426 710.68C740.086 710.02 740.886 709.52 741.826 709.18C742.766 708.82 743.816 708.64 744.976 708.64C746.456 708.64 747.656 708.77 748.576 709.03C749.516 709.29 750.306 709.58 750.946 709.9L750.916 709.99V714.16H748.756V711.31ZM756.814 710.17C757.674 709.67 758.644 709.31 759.724 709.09C760.804 708.87 761.864 708.76 762.904 708.76C763.924 708.76 764.754 708.92 765.394 709.24C766.054 709.56 766.564 709.98 766.924 710.5C767.304 711 767.554 711.58 767.674 712.24C767.814 712.88 767.884 713.53 767.884 714.19C767.884 714.95 767.864 715.76 767.824 716.62C767.784 717.48 767.754 718.34 767.734 719.2C767.734 720.2 767.794 721.15 767.914 722.05H769.924V724H765.934L765.664 721.75H765.514C765.394 721.93 765.214 722.16 764.974 722.44C764.734 722.72 764.414 723 764.014 723.28C763.634 723.54 763.164 723.77 762.604 723.97C762.044 724.17 761.384 724.27 760.624 724.27C759.144 724.27 757.974 723.89 757.114 723.13C756.254 722.37 755.824 721.33 755.824 720.01C755.824 718.99 756.044 718.14 756.484 717.46C756.944 716.78 757.594 716.26 758.434 715.9C759.274 715.54 760.284 715.33 761.464 715.27C762.664 715.21 764.004 715.29 765.484 715.51C765.584 714.59 765.594 713.83 765.514 713.23C765.454 712.61 765.294 712.12 765.034 711.76C764.794 711.4 764.444 711.15 763.984 711.01C763.544 710.85 762.994 710.77 762.334 710.77C761.434 710.77 760.574 710.9 759.754 711.16C758.934 711.4 758.204 711.65 757.564 711.91L756.814 710.17ZM761.224 722.26C761.784 722.26 762.304 722.17 762.784 721.99C763.264 721.81 763.684 721.58 764.044 721.3C764.404 721.02 764.704 720.72 764.944 720.4C765.184 720.06 765.364 719.74 765.484 719.44V717.34C764.444 717.16 763.484 717.07 762.604 717.07C761.724 717.07 760.964 717.17 760.324 717.37C759.684 717.55 759.184 717.84 758.824 718.24C758.464 718.64 758.284 719.16 758.284 719.8C758.284 720.46 758.504 721.04 758.944 721.54C759.404 722.02 760.164 722.26 761.224 722.26ZM774.443 714.25C774.443 714.07 774.433 713.84 774.413 713.56C774.413 713.26 774.403 712.96 774.383 712.66C774.363 712.34 774.333 712.03 774.293 711.73C774.273 711.43 774.243 711.17 774.203 710.95H772.193V709H776.183L776.483 711.1H776.633C777.173 710.4 777.853 709.82 778.673 709.36C779.513 708.88 780.533 708.64 781.733 708.64C783.873 708.64 785.483 709.23 786.563 710.41C787.643 711.59 788.183 713.52 788.183 716.2C788.183 717.46 787.993 718.6 787.613 719.62C787.253 720.62 786.733 721.47 786.053 722.17C785.373 722.87 784.553 723.41 783.593 723.79C782.633 724.17 781.573 724.36 780.413 724.36C779.993 724.36 779.613 724.34 779.273 724.3C778.953 724.28 778.653 724.24 778.373 724.18C778.113 724.14 777.853 724.08 777.593 724C777.333 723.92 777.053 723.82 776.753 723.7V730H774.443V714.25ZM781.343 710.83C780.743 710.83 780.173 710.94 779.633 711.16C779.113 711.38 778.643 711.67 778.223 712.03C777.823 712.39 777.493 712.79 777.233 713.23C776.973 713.67 776.813 714.11 776.753 714.55V721.39C777.193 721.69 777.683 721.93 778.223 722.11C778.783 722.27 779.513 722.35 780.413 722.35C782.013 722.35 783.293 721.83 784.253 720.79C785.213 719.73 785.693 718.19 785.693 716.17C785.693 714.47 785.353 713.16 784.673 712.24C784.013 711.3 782.903 710.83 781.343 710.83ZM790.481 709H794.051V706.03L796.391 705.37V709H804.401V711.01H796.391V718.09C796.391 719.55 796.741 720.63 797.441 721.33C798.161 722.03 799.181 722.38 800.501 722.38C801.401 722.38 802.181 722.21 802.841 721.87C803.521 721.53 804.131 721.16 804.671 720.76L805.451 722.53C804.751 723.09 803.911 723.54 802.931 723.88C801.971 724.22 800.981 724.39 799.961 724.39C799.161 724.39 798.401 724.27 797.681 724.03C796.981 723.81 796.361 723.46 795.821 722.98C795.281 722.5 794.851 721.89 794.531 721.15C794.211 720.39 794.051 719.49 794.051 718.45V711.01H790.481V709ZM810.689 724V721.99H815.909V711.01H810.689V709H818.309V721.99H823.409V724H810.689ZM815.099 704.74C815.099 704.2 815.279 703.74 815.639 703.36C815.999 702.96 816.459 702.76 817.019 702.76C817.599 702.76 818.079 702.96 818.459 703.36C818.859 703.74 819.059 704.2 819.059 704.74C819.059 705.26 818.859 705.7 818.459 706.06C818.079 706.42 817.599 706.6 817.019 706.6C816.459 706.6 815.999 706.42 815.639 706.06C815.279 705.7 815.099 705.26 815.099 704.74ZM827.237 716.5C827.237 714.08 827.867 712.17 829.127 710.77C830.387 709.35 832.187 708.64 834.527 708.64C835.787 708.64 836.867 708.85 837.767 709.27C838.687 709.67 839.447 710.22 840.047 710.92C840.647 711.62 841.087 712.45 841.367 713.41C841.667 714.37 841.817 715.4 841.817 716.5C841.817 717.7 841.657 718.79 841.337 719.77C841.017 720.73 840.547 721.55 839.927 722.23C839.307 722.91 838.537 723.44 837.617 723.82C836.717 724.18 835.687 724.36 834.527 724.36C833.287 724.36 832.207 724.16 831.287 723.76C830.367 723.34 829.607 722.78 829.007 722.08C828.407 721.38 827.957 720.55 827.657 719.59C827.377 718.63 827.237 717.6 827.237 716.5ZM829.727 716.5C829.727 717.2 829.807 717.9 829.967 718.6C830.147 719.3 830.427 719.93 830.807 720.49C831.187 721.05 831.677 721.5 832.277 721.84C832.897 722.18 833.647 722.35 834.527 722.35C836.127 722.35 837.327 721.86 838.127 720.88C838.947 719.88 839.357 718.42 839.357 716.5C839.357 715.78 839.267 715.08 839.087 714.4C838.927 713.7 838.647 713.07 838.247 712.51C837.867 711.95 837.367 711.5 836.747 711.16C836.147 710.82 835.407 710.65 834.527 710.65C832.927 710.65 831.727 711.14 830.927 712.12C830.127 713.1 829.727 714.56 829.727 716.5ZM846.306 714.25C846.306 714.07 846.296 713.84 846.276 713.56C846.276 713.26 846.266 712.96 846.246 712.66C846.226 712.34 846.196 712.03 846.156 711.73C846.136 711.43 846.106 711.17 846.066 710.95H844.056V709H848.076L848.346 711.43H848.496C848.696 711.09 848.956 710.76 849.276 710.44C849.616 710.1 850.006 709.8 850.446 709.54C850.886 709.26 851.376 709.04 851.916 708.88C852.456 708.72 853.026 708.64 853.626 708.64C854.546 708.64 855.356 708.74 856.056 708.94C856.776 709.14 857.366 709.5 857.826 710.02C858.306 710.52 858.666 711.21 858.906 712.09C859.146 712.95 859.266 714.05 859.266 715.39V724H856.926V715.84C856.926 714.18 856.656 712.93 856.116 712.09C855.576 711.25 854.596 710.83 853.176 710.83C852.656 710.83 852.146 710.94 851.646 711.16C851.166 711.36 850.726 711.63 850.326 711.97C849.926 712.31 849.576 712.71 849.276 713.17C848.976 713.61 848.756 714.08 848.616 714.58V724H846.306V714.25ZM863.994 723.01L862.854 721.21L874.794 714.28L862.884 707.23L864.024 705.37L878.154 713.98V714.85L863.994 723.01Z" fill="#007BFF"/>
<rect x="976" y="639" width="319" height="275" rx="49" transform="rotate(-90 976 639)" stroke="#007BFF" stroke-width="2"/>
<path d="M1051.39 402.85V401.98L1065.52 393.37L1066.66 395.23L1054.75 402.28L1066.69 409.21L1065.55 411.01L1051.39 402.85ZM1068.96 397H1072.53V394.03L1074.87 393.37V397H1082.88V399.01H1074.87V406.09C1074.87 407.55 1075.22 408.63 1075.92 409.33C1076.64 410.03 1077.66 410.38 1078.98 410.38C1079.88 410.38 1080.66 410.21 1081.32 409.87C1082 409.53 1082.61 409.16 1083.15 408.76L1083.93 410.53C1083.23 411.09 1082.39 411.54 1081.41 411.88C1080.45 412.22 1079.46 412.39 1078.44 412.39C1077.64 412.39 1076.88 412.27 1076.16 412.03C1075.46 411.81 1074.84 411.46 1074.3 410.98C1073.76 410.5 1073.33 409.89 1073.01 409.15C1072.69 408.39 1072.53 407.49 1072.53 406.45V399.01H1068.96V397ZM1088.66 412V409.99H1092.23V399.01H1088.66V397H1092.23V396.16C1092.23 394.28 1092.72 392.92 1093.7 392.08C1094.68 391.24 1096.08 390.82 1097.9 390.82C1098.56 390.82 1099.15 390.86 1099.67 390.94C1100.19 391.02 1100.75 391.18 1101.35 391.42L1100.81 393.37C1100.29 393.15 1099.79 393.01 1099.31 392.95C1098.83 392.87 1098.39 392.83 1097.99 392.83C1096.67 392.83 1095.77 393.16 1095.29 393.82C1094.81 394.46 1094.57 395.52 1094.57 397H1100.78V399.01H1094.57V409.99H1100.78V412H1088.66ZM1105.72 404.5C1105.72 402.08 1106.35 400.17 1107.61 398.77C1108.87 397.35 1110.67 396.64 1113.01 396.64C1114.27 396.64 1115.35 396.85 1116.25 397.27C1117.17 397.67 1117.93 398.22 1118.53 398.92C1119.13 399.62 1119.57 400.45 1119.85 401.41C1120.15 402.37 1120.3 403.4 1120.3 404.5C1120.3 405.7 1120.14 406.79 1119.82 407.77C1119.5 408.73 1119.03 409.55 1118.41 410.23C1117.79 410.91 1117.02 411.44 1116.1 411.82C1115.2 412.18 1114.17 412.36 1113.01 412.36C1111.77 412.36 1110.69 412.16 1109.77 411.76C1108.85 411.34 1108.09 410.78 1107.49 410.08C1106.89 409.38 1106.44 408.55 1106.14 407.59C1105.86 406.63 1105.72 405.6 1105.72 404.5ZM1108.21 404.5C1108.21 405.2 1108.29 405.9 1108.45 406.6C1108.63 407.3 1108.91 407.93 1109.29 408.49C1109.67 409.05 1110.16 409.5 1110.76 409.84C1111.38 410.18 1112.13 410.35 1113.01 410.35C1114.61 410.35 1115.81 409.86 1116.61 408.88C1117.43 407.88 1117.84 406.42 1117.84 404.5C1117.84 403.78 1117.75 403.08 1117.57 402.4C1117.41 401.7 1117.13 401.07 1116.73 400.51C1116.35 399.95 1115.85 399.5 1115.23 399.16C1114.63 398.82 1113.89 398.65 1113.01 398.65C1111.41 398.65 1110.21 399.14 1109.41 400.12C1108.61 401.1 1108.21 402.56 1108.21 404.5ZM1123.7 404.5C1123.7 402.08 1124.33 400.17 1125.59 398.77C1126.85 397.35 1128.65 396.64 1130.99 396.64C1132.25 396.64 1133.33 396.85 1134.23 397.27C1135.15 397.67 1135.91 398.22 1136.51 398.92C1137.11 399.62 1137.55 400.45 1137.83 401.41C1138.13 402.37 1138.28 403.4 1138.28 404.5C1138.28 405.7 1138.12 406.79 1137.8 407.77C1137.48 408.73 1137.01 409.55 1136.39 410.23C1135.77 410.91 1135 411.44 1134.08 411.82C1133.18 412.18 1132.15 412.36 1130.99 412.36C1129.75 412.36 1128.67 412.16 1127.75 411.76C1126.83 411.34 1126.07 410.78 1125.47 410.08C1124.87 409.38 1124.42 408.55 1124.12 407.59C1123.84 406.63 1123.7 405.6 1123.7 404.5ZM1126.19 404.5C1126.19 405.2 1126.27 405.9 1126.43 406.6C1126.61 407.3 1126.89 407.93 1127.27 408.49C1127.65 409.05 1128.14 409.5 1128.74 409.84C1129.36 410.18 1130.11 410.35 1130.99 410.35C1132.59 410.35 1133.79 409.86 1134.59 408.88C1135.41 407.88 1135.82 406.42 1135.82 404.5C1135.82 403.78 1135.73 403.08 1135.55 402.4C1135.39 401.7 1135.11 401.07 1134.71 400.51C1134.33 399.95 1133.83 399.5 1133.21 399.16C1132.61 398.82 1131.87 398.65 1130.99 398.65C1129.39 398.65 1128.19 399.14 1127.39 400.12C1126.59 401.1 1126.19 402.56 1126.19 404.5ZM1140.91 397H1144.48V394.03L1146.82 393.37V397H1154.83V399.01H1146.82V406.09C1146.82 407.55 1147.17 408.63 1147.87 409.33C1148.59 410.03 1149.61 410.38 1150.93 410.38C1151.83 410.38 1152.61 410.21 1153.27 409.87C1153.95 409.53 1154.56 409.16 1155.1 408.76L1155.88 410.53C1155.18 411.09 1154.34 411.54 1153.36 411.88C1152.4 412.22 1151.41 412.39 1150.39 412.39C1149.59 412.39 1148.83 412.27 1148.11 412.03C1147.41 411.81 1146.79 411.46 1146.25 410.98C1145.71 410.5 1145.28 409.89 1144.96 409.15C1144.64 408.39 1144.48 407.49 1144.48 406.45V399.01H1140.91V397ZM1160.46 411.01L1159.32 409.21L1171.26 402.28L1159.35 395.23L1160.49 393.37L1174.62 401.98V402.85L1160.46 411.01Z" fill="#007BFF"/>
<path d="M1081.64 506.58L1081.73 504.6H1081.64L1073.21 516H1071.08V501H1073.42V510.69L1073.33 512.58H1073.45L1081.82 501H1083.98V516H1081.64V506.58ZM1088.08 501H1102.96V506.61H1100.92V503.04H1096.69V513.99H1100.32V516H1090.6V513.99H1094.35V503.04H1090.12V506.61H1088.08V501ZM1106.22 508.5C1106.22 506.08 1106.85 504.17 1108.11 502.77C1109.37 501.35 1111.17 500.64 1113.51 500.64C1114.77 500.64 1115.85 500.85 1116.75 501.27C1117.67 501.67 1118.43 502.22 1119.03 502.92C1119.63 503.62 1120.07 504.45 1120.35 505.41C1120.65 506.37 1120.8 507.4 1120.8 508.5C1120.8 509.7 1120.64 510.79 1120.32 511.77C1120 512.73 1119.53 513.55 1118.91 514.23C1118.29 514.91 1117.52 515.44 1116.6 515.82C1115.7 516.18 1114.67 516.36 1113.51 516.36C1112.27 516.36 1111.19 516.16 1110.27 515.76C1109.35 515.34 1108.59 514.78 1107.99 514.08C1107.39 513.38 1106.94 512.55 1106.64 511.59C1106.36 510.63 1106.22 509.6 1106.22 508.5ZM1108.71 508.5C1108.71 509.2 1108.79 509.9 1108.95 510.6C1109.13 511.3 1109.41 511.93 1109.79 512.49C1110.17 513.05 1110.66 513.5 1111.26 513.84C1111.88 514.18 1112.63 514.35 1113.51 514.35C1115.11 514.35 1116.31 513.86 1117.11 512.88C1117.93 511.88 1118.34 510.42 1118.34 508.5C1118.34 507.78 1118.25 507.08 1118.07 506.4C1117.91 505.7 1117.63 505.07 1117.23 504.51C1116.85 503.95 1116.35 503.5 1115.73 503.16C1115.13 502.82 1114.39 502.65 1113.51 502.65C1111.91 502.65 1110.71 503.14 1109.91 504.12C1109.11 505.1 1108.71 506.56 1108.71 508.5ZM1125.55 516V513.99H1127.47V503.04H1125.55V501H1137.67V506.61H1135.63V503.04H1129.81V513.99H1134.37V516H1125.55ZM1153.59 506.58L1153.68 504.6H1153.59L1145.16 516H1143.03V501H1145.37V510.69L1145.28 512.58H1145.4L1153.77 501H1155.93V516H1153.59V506.58ZM1026.44 540.25C1026.44 540.07 1026.43 539.84 1026.41 539.56C1026.41 539.26 1026.4 538.96 1026.38 538.66C1026.36 538.34 1026.33 538.03 1026.29 537.73C1026.27 537.43 1026.24 537.17 1026.2 536.95H1024.19V535H1028.18L1028.48 537.1H1028.63C1029.17 536.4 1029.85 535.82 1030.67 535.36C1031.51 534.88 1032.53 534.64 1033.73 534.64C1035.87 534.64 1037.48 535.23 1038.56 536.41C1039.64 537.59 1040.18 539.52 1040.18 542.2C1040.18 543.46 1039.99 544.6 1039.61 545.62C1039.25 546.62 1038.73 547.47 1038.05 548.17C1037.37 548.87 1036.55 549.41 1035.59 549.79C1034.63 550.17 1033.57 550.36 1032.41 550.36C1031.99 550.36 1031.61 550.34 1031.27 550.3C1030.95 550.28 1030.65 550.24 1030.37 550.18C1030.11 550.14 1029.85 550.08 1029.59 550C1029.33 549.92 1029.05 549.82 1028.75 549.7V556H1026.44V540.25ZM1033.34 536.83C1032.74 536.83 1032.17 536.94 1031.63 537.16C1031.11 537.38 1030.64 537.67 1030.22 538.03C1029.82 538.39 1029.49 538.79 1029.23 539.23C1028.97 539.67 1028.81 540.11 1028.75 540.55V547.39C1029.19 547.69 1029.68 547.93 1030.22 548.11C1030.78 548.27 1031.51 548.35 1032.41 548.35C1034.01 548.35 1035.29 547.83 1036.25 546.79C1037.21 545.73 1037.69 544.19 1037.69 542.17C1037.69 540.47 1037.35 539.16 1036.67 538.24C1036.01 537.3 1034.9 536.83 1033.34 536.83ZM1057.42 548.11C1057.06 548.43 1056.63 548.73 1056.13 549.01C1055.65 549.29 1055.12 549.53 1054.54 549.73C1053.96 549.93 1053.35 550.08 1052.71 550.18C1052.09 550.3 1051.46 550.36 1050.82 550.36C1049.62 550.36 1048.56 550.18 1047.64 549.82C1046.72 549.44 1045.95 548.91 1045.33 548.23C1044.71 547.53 1044.24 546.7 1043.92 545.74C1043.6 544.78 1043.44 543.7 1043.44 542.5C1043.44 541.24 1043.61 540.12 1043.95 539.14C1044.31 538.16 1044.82 537.34 1045.48 536.68C1046.14 536.02 1046.94 535.52 1047.88 535.18C1048.82 534.82 1049.87 534.64 1051.03 534.64C1051.87 534.64 1052.7 534.75 1053.52 534.97C1054.34 535.19 1055.06 535.61 1055.68 536.23C1056.32 536.83 1056.81 537.67 1057.15 538.75C1057.49 539.81 1057.61 541.19 1057.51 542.89H1045.9C1045.9 544.69 1046.38 546.04 1047.34 546.94C1048.32 547.82 1049.62 548.26 1051.24 548.26C1051.78 548.26 1052.31 548.2 1052.83 548.08C1053.37 547.94 1053.88 547.78 1054.36 547.6C1054.84 547.42 1055.26 547.22 1055.62 547C1056 546.78 1056.29 546.58 1056.49 546.4L1057.42 548.11ZM1051.09 536.62C1050.43 536.62 1049.8 536.69 1049.2 536.83C1048.62 536.97 1048.1 537.21 1047.64 537.55C1047.2 537.87 1046.83 538.3 1046.53 538.84C1046.25 539.36 1046.07 540.01 1045.99 540.79H1055.32C1055.22 539.47 1054.79 538.45 1054.03 537.73C1053.29 536.99 1052.31 536.62 1051.09 536.62ZM1062.75 536.41L1062.72 536.32C1063.06 536.12 1063.42 535.93 1063.8 535.75C1064.2 535.55 1064.64 535.38 1065.12 535.24C1065.62 535.08 1066.18 534.95 1066.8 534.85C1067.42 534.75 1068.13 534.7 1068.93 534.7C1069.75 534.7 1070.51 534.79 1071.21 534.97C1071.91 535.13 1072.52 535.37 1073.04 535.69C1073.56 536.01 1073.96 536.41 1074.24 536.89C1074.54 537.35 1074.69 537.88 1074.69 538.48C1074.69 538.8 1074.62 539.14 1074.48 539.5C1074.36 539.84 1074.17 540.17 1073.91 540.49C1073.65 540.81 1073.34 541.1 1072.98 541.36C1072.62 541.62 1072.21 541.82 1071.75 541.96V542.08C1073.07 542.3 1073.99 542.72 1074.51 543.34C1075.05 543.96 1075.32 544.78 1075.32 545.8C1075.32 546.44 1075.17 547.03 1074.87 547.57C1074.57 548.11 1074.12 548.58 1073.52 548.98C1072.94 549.38 1072.21 549.7 1071.33 549.94C1070.47 550.16 1069.46 550.27 1068.3 550.27C1067.44 550.27 1066.66 550.19 1065.96 550.03C1065.26 549.87 1064.64 549.67 1064.1 549.43C1063.58 549.19 1063.13 548.93 1062.75 548.65C1062.39 548.37 1062.11 548.11 1061.91 547.87L1063.11 545.98C1063.33 546.22 1063.6 546.48 1063.92 546.76C1064.24 547.02 1064.63 547.26 1065.09 547.48C1065.57 547.7 1066.11 547.89 1066.71 548.05C1067.33 548.19 1068.04 548.26 1068.84 548.26C1069.4 548.26 1069.92 548.21 1070.4 548.11C1070.9 547.99 1071.33 547.83 1071.69 547.63C1072.07 547.41 1072.37 547.14 1072.59 546.82C1072.81 546.48 1072.92 546.09 1072.92 545.65C1072.92 544.89 1072.57 544.31 1071.87 543.91C1071.19 543.51 1070.06 543.31 1068.48 543.31H1066.77V541.36H1068.9C1069.3 541.36 1069.7 541.3 1070.1 541.18C1070.5 541.04 1070.86 540.87 1071.18 540.67C1071.5 540.45 1071.76 540.2 1071.96 539.92C1072.16 539.62 1072.26 539.31 1072.26 538.99C1072.26 538.59 1072.16 538.25 1071.96 537.97C1071.76 537.67 1071.48 537.43 1071.12 537.25C1070.78 537.07 1070.37 536.94 1069.89 536.86C1069.43 536.76 1068.94 536.71 1068.42 536.71C1067.62 536.71 1066.92 536.79 1066.32 536.95C1065.72 537.09 1065.21 537.27 1064.79 537.49V539.98H1062.75V536.41ZM1086.85 547.69H1087.99L1091.71 535H1094.14L1089.97 548.47C1089.75 549.17 1089.52 549.96 1089.28 550.84C1089.06 551.74 1088.74 552.58 1088.32 553.36C1087.9 554.14 1087.33 554.8 1086.61 555.34C1085.89 555.88 1084.95 556.15 1083.79 556.15C1083.53 556.15 1083.25 556.12 1082.95 556.06C1082.67 556 1082.39 555.92 1082.11 555.82C1081.83 555.74 1081.57 555.64 1081.33 555.52C1081.09 555.4 1080.91 555.28 1080.79 555.16L1081.63 553C1081.75 553.1 1081.91 553.2 1082.11 553.3C1082.33 553.4 1082.56 553.48 1082.8 553.54C1083.06 553.62 1083.31 553.68 1083.55 553.72C1083.79 553.78 1083.99 553.81 1084.15 553.81C1085.65 553.81 1086.67 552.54 1087.21 550H1085.2L1078.9 535H1081.6L1086.85 547.69ZM1108.29 537.04H1103.1C1103.02 538.86 1102.92 540.57 1102.8 542.17C1102.68 543.75 1102.45 545.13 1102.11 546.31C1101.79 547.49 1101.32 548.42 1100.7 549.1C1100.1 549.78 1099.28 550.12 1098.24 550.12C1097.84 550.12 1097.55 550.1 1097.37 550.06C1097.19 550.02 1096.97 549.95 1096.71 549.85L1097.1 547.63C1097.48 547.73 1097.83 547.78 1098.15 547.78C1098.49 547.78 1098.79 547.66 1099.05 547.42C1099.31 547.18 1099.54 546.8 1099.74 546.28C1099.96 545.74 1100.14 544.99 1100.28 544.03C1100.44 543.05 1100.57 541.83 1100.67 540.37C1100.77 538.89 1100.85 537.1 1100.91 535H1110.63V550H1108.29V537.04ZM1119.17 547.93C1119.39 547.97 1119.65 548 1119.95 548.02C1120.27 548.04 1120.59 548.07 1120.91 548.11C1121.23 548.13 1121.54 548.15 1121.84 548.17C1122.14 548.17 1122.38 548.17 1122.56 548.17C1124.06 548.17 1125.16 547.91 1125.86 547.39C1126.56 546.85 1126.91 546.15 1126.91 545.29C1126.91 544.53 1126.57 543.88 1125.89 543.34C1125.21 542.8 1124.14 542.53 1122.68 542.53C1122.02 542.53 1121.37 542.54 1120.73 542.56C1120.11 542.58 1119.59 542.64 1119.17 542.74V547.93ZM1119.17 540.79C1119.71 540.71 1120.28 540.66 1120.88 540.64C1121.5 540.6 1122.21 540.58 1123.01 540.58C1124.17 540.58 1125.15 540.7 1125.95 540.94C1126.77 541.16 1127.43 541.47 1127.93 541.87C1128.45 542.27 1128.82 542.74 1129.04 543.28C1129.28 543.8 1129.4 544.37 1129.4 544.99C1129.4 546.81 1128.78 548.13 1127.54 548.95C1126.32 549.77 1124.45 550.18 1121.93 550.18C1121.61 550.18 1121.23 550.17 1120.79 550.15C1120.37 550.13 1119.93 550.1 1119.47 550.06C1119.03 550.04 1118.58 550.02 1118.12 550C1117.66 549.96 1117.24 549.92 1116.86 549.88V535H1119.17V540.79ZM1133.05 535H1147.93V540.61H1145.89V537.04H1141.66V547.99H1145.29V550H1135.57V547.99H1139.32V537.04H1135.09V540.61H1133.05V535ZM1152.72 536.17C1153.58 535.67 1154.55 535.31 1155.63 535.09C1156.71 534.87 1157.77 534.76 1158.81 534.76C1159.83 534.76 1160.66 534.92 1161.3 535.24C1161.96 535.56 1162.47 535.98 1162.83 536.5C1163.21 537 1163.46 537.58 1163.58 538.24C1163.72 538.88 1163.79 539.53 1163.79 540.19C1163.79 540.95 1163.77 541.76 1163.73 542.62C1163.69 543.48 1163.66 544.34 1163.64 545.2C1163.64 546.2 1163.7 547.15 1163.82 548.05H1165.83V550H1161.84L1161.57 547.75H1161.42C1161.3 547.93 1161.12 548.16 1160.88 548.44C1160.64 548.72 1160.32 549 1159.92 549.28C1159.54 549.54 1159.07 549.77 1158.51 549.97C1157.95 550.17 1157.29 550.27 1156.53 550.27C1155.05 550.27 1153.88 549.89 1153.02 549.13C1152.16 548.37 1151.73 547.33 1151.73 546.01C1151.73 544.99 1151.95 544.14 1152.39 543.46C1152.85 542.78 1153.5 542.26 1154.34 541.9C1155.18 541.54 1156.19 541.33 1157.37 541.27C1158.57 541.21 1159.91 541.29 1161.39 541.51C1161.49 540.59 1161.5 539.83 1161.42 539.23C1161.36 538.61 1161.2 538.12 1160.94 537.76C1160.7 537.4 1160.35 537.15 1159.89 537.01C1159.45 536.85 1158.9 536.77 1158.24 536.77C1157.34 536.77 1156.48 536.9 1155.66 537.16C1154.84 537.4 1154.11 537.65 1153.47 537.91L1152.72 536.17ZM1157.13 548.26C1157.69 548.26 1158.21 548.17 1158.69 547.99C1159.17 547.81 1159.59 547.58 1159.95 547.3C1160.31 547.02 1160.61 546.72 1160.85 546.4C1161.09 546.06 1161.27 545.74 1161.39 545.44V543.34C1160.35 543.16 1159.39 543.07 1158.51 543.07C1157.63 543.07 1156.87 543.17 1156.23 543.37C1155.59 543.55 1155.09 543.84 1154.73 544.24C1154.37 544.64 1154.19 545.16 1154.19 545.8C1154.19 546.46 1154.41 547.04 1154.85 547.54C1155.31 548.02 1156.07 548.26 1157.13 548.26ZM1169.02 535H1183.9V540.61H1181.86V537.04H1177.63V547.99H1181.26V550H1171.54V547.99H1175.29V537.04H1171.06V540.61H1169.02V535ZM1189.26 547.9C1190 548.02 1190.71 548.08 1191.39 548.08C1192.65 548.08 1193.53 547.84 1194.03 547.36C1194.53 546.86 1194.78 546.16 1194.78 545.26C1194.78 544.46 1194.53 543.8 1194.03 543.28C1193.55 542.76 1192.7 542.5 1191.48 542.5C1191.14 542.5 1190.77 542.51 1190.37 542.53C1189.97 542.55 1189.6 542.61 1189.26 542.71V547.9ZM1189.26 540.73C1189.74 540.65 1190.2 540.6 1190.64 540.58C1191.08 540.54 1191.5 540.52 1191.9 540.52C1192.92 540.52 1193.77 540.64 1194.45 540.88C1195.15 541.1 1195.71 541.41 1196.13 541.81C1196.55 542.21 1196.84 542.69 1197 543.25C1197.18 543.79 1197.27 544.37 1197.27 544.99C1197.27 546.81 1196.76 548.13 1195.74 548.95C1194.74 549.77 1193.11 550.18 1190.85 550.18C1189.57 550.18 1188.24 550.12 1186.86 550V535H1189.26V540.73ZM1199.64 535H1202.04V550H1199.64V535ZM1081.7 571.31C1081.24 571.15 1080.74 571.02 1080.2 570.92C1079.68 570.8 1079.16 570.74 1078.64 570.74C1076.68 570.74 1075.22 571.2 1074.26 572.12C1073.3 573.04 1072.82 574.5 1072.82 576.5C1072.82 577.38 1072.96 578.17 1073.24 578.87C1073.52 579.55 1073.92 580.13 1074.44 580.61C1074.96 581.09 1075.58 581.46 1076.3 581.72C1077.04 581.98 1077.85 582.11 1078.73 582.11C1079.67 582.11 1080.58 581.95 1081.46 581.63C1082.36 581.31 1083.11 580.89 1083.71 580.37L1084.76 582.11C1084.48 582.35 1084.13 582.6 1083.71 582.86C1083.29 583.12 1082.8 583.37 1082.24 583.61C1081.7 583.83 1081.09 584.01 1080.41 584.15C1079.75 584.29 1079.03 584.36 1078.25 584.36C1076.95 584.36 1075.8 584.18 1074.8 583.82C1073.82 583.44 1073 582.91 1072.34 582.23C1071.68 581.53 1071.18 580.7 1070.84 579.74C1070.5 578.76 1070.33 577.68 1070.33 576.5C1070.33 575.24 1070.5 574.12 1070.84 573.14C1071.2 572.16 1071.71 571.34 1072.37 570.68C1073.03 570.02 1073.83 569.52 1074.77 569.18C1075.71 568.82 1076.76 568.64 1077.92 568.64C1079.4 568.64 1080.6 568.77 1081.52 569.03C1082.46 569.29 1083.25 569.58 1083.89 569.9L1083.86 569.99V574.16H1081.7V571.31ZM1095.85 581.69H1096.99L1100.71 569H1103.14L1098.97 582.47C1098.75 583.17 1098.52 583.96 1098.28 584.84C1098.06 585.74 1097.74 586.58 1097.32 587.36C1096.9 588.14 1096.33 588.8 1095.61 589.34C1094.89 589.88 1093.95 590.15 1092.79 590.15C1092.53 590.15 1092.25 590.12 1091.95 590.06C1091.67 590 1091.39 589.92 1091.11 589.82C1090.83 589.74 1090.57 589.64 1090.33 589.52C1090.09 589.4 1089.91 589.28 1089.79 589.16L1090.63 587C1090.75 587.1 1090.91 587.2 1091.11 587.3C1091.33 587.4 1091.56 587.48 1091.8 587.54C1092.06 587.62 1092.31 587.68 1092.55 587.72C1092.79 587.78 1092.99 587.81 1093.15 587.81C1094.65 587.81 1095.67 586.54 1096.21 584H1094.2L1087.9 569H1090.6L1095.85 581.69ZM1118.25 575.09L1118.31 572.96H1118.16L1113.84 579.83H1113L1108.62 572.96H1108.5L1108.65 575.06V584H1106.43V569H1108.8L1113.57 576.53H1113.63L1118.19 569H1120.59V584H1118.25V575.09ZM1136.23 575.09L1136.29 572.96H1136.14L1131.82 579.83H1130.98L1126.6 572.96H1126.48L1126.63 575.06V584H1124.41V569H1126.78L1131.55 576.53H1131.61L1136.17 569H1138.57V584H1136.23V575.09ZM1144.29 581.9C1145.03 582.02 1145.74 582.08 1146.42 582.08C1147.68 582.08 1148.56 581.84 1149.06 581.36C1149.56 580.86 1149.81 580.16 1149.81 579.26C1149.81 578.46 1149.56 577.8 1149.06 577.28C1148.58 576.76 1147.73 576.5 1146.51 576.5C1146.17 576.5 1145.8 576.51 1145.4 576.53C1145 576.55 1144.63 576.61 1144.29 576.71V581.9ZM1144.29 574.73C1144.77 574.65 1145.23 574.6 1145.67 574.58C1146.11 574.54 1146.53 574.52 1146.93 574.52C1147.95 574.52 1148.8 574.64 1149.48 574.88C1150.18 575.1 1150.74 575.41 1151.16 575.81C1151.58 576.21 1151.87 576.69 1152.03 577.25C1152.21 577.79 1152.3 578.37 1152.3 578.99C1152.3 580.81 1151.79 582.13 1150.77 582.95C1149.77 583.77 1148.14 584.18 1145.88 584.18C1144.6 584.18 1143.27 584.12 1141.89 584V569H1144.29V574.73ZM1154.67 569H1157.07V584H1154.67V569Z" fill="#007BFF"/>
<rect x="662" y="639" width="319" height="275" rx="49" transform="rotate(-90 662 639)" stroke="#007BFF" stroke-width="2"/>
<path d="M737.391 402.85V401.98L751.521 393.37L752.661 395.23L740.751 402.28L752.691 409.21L751.551 411.01L737.391 402.85ZM754.959 397H758.529V394.03L760.869 393.37V397H768.879V399.01H760.869V406.09C760.869 407.55 761.219 408.63 761.919 409.33C762.639 410.03 763.659 410.38 764.979 410.38C765.879 410.38 766.659 410.21 767.319 409.87C767.999 409.53 768.609 409.16 769.149 408.76L769.929 410.53C769.229 411.09 768.389 411.54 767.409 411.88C766.449 412.22 765.459 412.39 764.439 412.39C763.639 412.39 762.879 412.27 762.159 412.03C761.459 411.81 760.839 411.46 760.299 410.98C759.759 410.5 759.329 409.89 759.009 409.15C758.689 408.39 758.529 407.49 758.529 406.45V399.01H754.959V397ZM772.078 391H776.878V398.71H777.028C777.548 398.05 778.218 397.54 779.038 397.18C779.858 396.82 780.748 396.64 781.708 396.64C786.108 396.64 788.308 399.18 788.308 404.26C788.308 406.84 787.598 408.82 786.178 410.2C784.758 411.56 782.738 412.24 780.118 412.24C778.878 412.24 777.758 412.12 776.758 411.88C775.758 411.64 775.028 411.36 774.568 411.04V393.01H772.078V391ZM781.408 398.65C780.208 398.65 779.238 398.99 778.498 399.67C777.758 400.35 777.218 401.31 776.878 402.55V409.45C777.338 409.69 777.888 409.88 778.528 410.02C779.168 410.16 779.838 410.23 780.538 410.23C781.338 410.23 782.058 410.12 782.698 409.9C783.358 409.66 783.918 409.3 784.378 408.82C784.838 408.32 785.188 407.69 785.428 406.93C785.688 406.17 785.818 405.27 785.818 404.23C785.818 403.47 785.738 402.75 785.578 402.07C785.418 401.39 785.158 400.8 784.798 400.3C784.458 399.78 784.008 399.38 783.448 399.1C782.888 398.8 782.208 398.65 781.408 398.65ZM791.716 404.5C791.716 402.08 792.346 400.17 793.606 398.77C794.866 397.35 796.666 396.64 799.006 396.64C800.266 396.64 801.346 396.85 802.246 397.27C803.166 397.67 803.926 398.22 804.526 398.92C805.126 399.62 805.566 400.45 805.846 401.41C806.146 402.37 806.296 403.4 806.296 404.5C806.296 405.7 806.136 406.79 805.816 407.77C805.496 408.73 805.026 409.55 804.406 410.23C803.786 410.91 803.016 411.44 802.096 411.82C801.196 412.18 800.166 412.36 799.006 412.36C797.766 412.36 796.686 412.16 795.766 411.76C794.846 411.34 794.086 410.78 793.486 410.08C792.886 409.38 792.436 408.55 792.136 407.59C791.856 406.63 791.716 405.6 791.716 404.5ZM794.206 404.5C794.206 405.2 794.286 405.9 794.446 406.6C794.626 407.3 794.906 407.93 795.286 408.49C795.666 409.05 796.156 409.5 796.756 409.84C797.376 410.18 798.126 410.35 799.006 410.35C800.606 410.35 801.806 409.86 802.606 408.88C803.426 407.88 803.836 406.42 803.836 404.5C803.836 403.78 803.746 403.08 803.566 402.4C803.406 401.7 803.126 401.07 802.726 400.51C802.346 399.95 801.846 399.5 801.226 399.16C800.626 398.82 799.886 398.65 799.006 398.65C797.406 398.65 796.206 399.14 795.406 400.12C794.606 401.1 794.206 402.56 794.206 404.5ZM818.464 391H823.324V406.87C823.324 407.05 823.334 407.28 823.354 407.56C823.374 407.82 823.394 408.1 823.414 408.4C823.454 408.7 823.494 409 823.534 409.3C823.574 409.58 823.614 409.83 823.654 410.05H825.664V412H821.674L821.374 409.69H821.254C820.814 410.45 820.154 411.09 819.274 411.61C818.414 412.11 817.414 412.36 816.274 412.36C814.014 412.36 812.344 411.73 811.264 410.47C810.204 409.19 809.674 407.21 809.674 404.53C809.674 403.27 809.854 402.16 810.214 401.2C810.574 400.22 811.084 399.41 811.744 398.77C812.424 398.11 813.234 397.61 814.174 397.27C815.114 396.93 816.164 396.76 817.324 396.76C817.744 396.76 818.114 396.77 818.434 396.79C818.774 396.81 819.084 396.84 819.364 396.88C819.644 396.92 819.904 396.98 820.144 397.06C820.404 397.12 820.684 397.19 820.984 397.27V393.01H818.464V391ZM816.664 410.35C817.884 410.35 818.844 410.04 819.544 409.42C820.244 408.78 820.724 407.83 820.984 406.57V399.61C820.544 399.31 820.044 399.09 819.484 398.95C818.944 398.81 818.224 398.74 817.324 398.74C815.724 398.74 814.464 399.21 813.544 400.15C812.624 401.07 812.164 402.53 812.164 404.53C812.164 405.35 812.234 406.12 812.374 406.84C812.534 407.54 812.784 408.15 813.124 408.67C813.484 409.19 813.954 409.6 814.534 409.9C815.114 410.2 815.824 410.35 816.664 410.35ZM835.312 409.69H836.452L840.172 397H842.602L838.432 410.47C838.212 411.17 837.982 411.96 837.742 412.84C837.522 413.74 837.202 414.58 836.782 415.36C836.362 416.14 835.792 416.8 835.072 417.34C834.352 417.88 833.412 418.15 832.252 418.15C831.992 418.15 831.712 418.12 831.412 418.06C831.132 418 830.852 417.92 830.572 417.82C830.292 417.74 830.032 417.64 829.792 417.52C829.552 417.4 829.372 417.28 829.252 417.16L830.092 415C830.212 415.1 830.372 415.2 830.572 415.3C830.792 415.4 831.022 415.48 831.262 415.54C831.522 415.62 831.772 415.68 832.012 415.72C832.252 415.78 832.452 415.81 832.612 415.81C834.112 415.81 835.132 414.54 835.672 412H833.662L827.362 397H830.062L835.312 409.69ZM846.461 411.01L845.321 409.21L857.261 402.28L845.351 395.23L846.491 393.37L860.621 401.98V402.85L846.461 411.01Z" fill="#007BFF"/>
<path d="M743.771 515.22H742.121V522H739.811V507H742.121V513.42H743.771L749.681 507H752.501L745.871 514.11L751.331 519.99H753.281V522H750.191L743.771 515.22ZM756.239 514.5C756.239 512.08 756.869 510.17 758.129 508.77C759.389 507.35 761.189 506.64 763.529 506.64C764.789 506.64 765.869 506.85 766.769 507.27C767.689 507.67 768.449 508.22 769.049 508.92C769.649 509.62 770.089 510.45 770.369 511.41C770.669 512.37 770.819 513.4 770.819 514.5C770.819 515.7 770.659 516.79 770.339 517.77C770.019 518.73 769.549 519.55 768.929 520.23C768.309 520.91 767.539 521.44 766.619 521.82C765.719 522.18 764.689 522.36 763.529 522.36C762.289 522.36 761.209 522.16 760.289 521.76C759.369 521.34 758.609 520.78 758.009 520.08C757.409 519.38 756.959 518.55 756.659 517.59C756.379 516.63 756.239 515.6 756.239 514.5ZM758.729 514.5C758.729 515.2 758.809 515.9 758.969 516.6C759.149 517.3 759.429 517.93 759.809 518.49C760.189 519.05 760.679 519.5 761.279 519.84C761.899 520.18 762.649 520.35 763.529 520.35C765.129 520.35 766.329 519.86 767.129 518.88C767.949 517.88 768.359 516.42 768.359 514.5C768.359 513.78 768.269 513.08 768.089 512.4C767.929 511.7 767.649 511.07 767.249 510.51C766.869 509.95 766.369 509.5 765.749 509.16C765.149 508.82 764.409 508.65 763.529 508.65C761.929 508.65 760.729 509.14 759.929 510.12C759.129 511.1 758.729 512.56 758.729 514.5ZM785.538 515.34H777.468V522H775.158V507H777.468V513.24H785.538V507H787.878V522H785.538V515.34ZM792.066 507H806.946V512.61H804.906V509.04H800.676V519.99H804.306V522H794.586V519.99H798.336V509.04H794.106V512.61H792.066V507ZM824.364 520.11C824.004 520.43 823.574 520.73 823.074 521.01C822.594 521.29 822.064 521.53 821.484 521.73C820.904 521.93 820.294 522.08 819.654 522.18C819.034 522.3 818.404 522.36 817.764 522.36C816.564 522.36 815.504 522.18 814.584 521.82C813.664 521.44 812.894 520.91 812.274 520.23C811.654 519.53 811.184 518.7 810.864 517.74C810.544 516.78 810.384 515.7 810.384 514.5C810.384 513.24 810.554 512.12 810.894 511.14C811.254 510.16 811.764 509.34 812.424 508.68C813.084 508.02 813.884 507.52 814.824 507.18C815.764 506.82 816.814 506.64 817.974 506.64C818.814 506.64 819.644 506.75 820.464 506.97C821.284 507.19 822.004 507.61 822.624 508.23C823.264 508.83 823.754 509.67 824.094 510.75C824.434 511.81 824.554 513.19 824.454 514.89H812.844C812.844 516.69 813.324 518.04 814.284 518.94C815.264 519.82 816.564 520.26 818.184 520.26C818.724 520.26 819.254 520.2 819.774 520.08C820.314 519.94 820.824 519.78 821.304 519.6C821.784 519.42 822.204 519.22 822.564 519C822.944 518.78 823.234 518.58 823.434 518.4L824.364 520.11ZM818.034 508.62C817.374 508.62 816.744 508.69 816.144 508.83C815.564 508.97 815.044 509.21 814.584 509.55C814.144 509.87 813.774 510.3 813.474 510.84C813.194 511.36 813.014 512.01 812.934 512.79H822.264C822.164 511.47 821.734 510.45 820.974 509.73C820.234 508.99 819.254 508.62 818.034 508.62ZM839.502 515.34H831.432V522H829.122V507H831.432V513.24H839.502V507H841.842V522H839.502V515.34ZM846.031 507H860.911V512.61H858.871V509.04H854.641V519.99H858.271V522H848.551V519.99H852.301V509.04H848.071V512.61H846.031V507ZM762.515 559.6H760.475V556H748.415V559.6H746.375V553.96H748.055C748.235 553.74 748.475 553.35 748.775 552.79C749.075 552.21 749.365 551.41 749.645 550.39C749.925 549.35 750.175 548.07 750.395 546.55C750.615 545.01 750.745 543.16 750.785 541H760.205V553.96H762.515V559.6ZM757.865 553.99V543.01H752.915C752.875 543.87 752.795 544.8 752.675 545.8C752.575 546.8 752.425 547.8 752.225 548.8C752.025 549.78 751.775 550.72 751.475 551.62C751.195 552.52 750.865 553.31 750.485 553.99H757.865ZM766.763 542.17C767.623 541.67 768.593 541.31 769.673 541.09C770.753 540.87 771.813 540.76 772.853 540.76C773.873 540.76 774.703 540.92 775.343 541.24C776.003 541.56 776.513 541.98 776.873 542.5C777.253 543 777.503 543.58 777.623 544.24C777.763 544.88 777.833 545.53 777.833 546.19C777.833 546.95 777.813 547.76 777.773 548.62C777.733 549.48 777.703 550.34 777.683 551.2C777.683 552.2 777.743 553.15 777.863 554.05H779.873V556H775.883L775.613 553.75H775.463C775.343 553.93 775.163 554.16 774.923 554.44C774.683 554.72 774.363 555 773.963 555.28C773.583 555.54 773.113 555.77 772.553 555.97C771.993 556.17 771.333 556.27 770.573 556.27C769.093 556.27 767.923 555.89 767.063 555.13C766.203 554.37 765.773 553.33 765.773 552.01C765.773 550.99 765.993 550.14 766.433 549.46C766.893 548.78 767.543 548.26 768.383 547.9C769.223 547.54 770.233 547.33 771.413 547.27C772.613 547.21 773.953 547.29 775.433 547.51C775.533 546.59 775.543 545.83 775.463 545.23C775.403 544.61 775.243 544.12 774.983 543.76C774.743 543.4 774.393 543.15 773.933 543.01C773.493 542.85 772.943 542.77 772.283 542.77C771.383 542.77 770.523 542.9 769.703 543.16C768.883 543.4 768.153 543.65 767.513 543.91L766.763 542.17ZM771.173 554.26C771.733 554.26 772.253 554.17 772.733 553.99C773.213 553.81 773.633 553.58 773.993 553.3C774.353 553.02 774.653 552.72 774.893 552.4C775.133 552.06 775.313 551.74 775.433 551.44V549.34C774.393 549.16 773.433 549.07 772.553 549.07C771.673 549.07 770.913 549.17 770.273 549.37C769.633 549.55 769.133 549.84 768.773 550.24C768.413 550.64 768.233 551.16 768.233 551.8C768.233 552.46 768.453 553.04 768.893 553.54C769.353 554.02 770.113 554.26 771.173 554.26ZM794.532 549.34H786.462V556H784.152V541H786.462V547.24H794.532V541H796.872V556H794.532V549.34ZM812.52 549.34H804.45V556H802.14V541H804.45V547.24H812.52V541H814.86V556H812.52V549.34ZM821.298 553.9C822.038 554.02 822.748 554.08 823.428 554.08C824.688 554.08 825.568 553.84 826.068 553.36C826.568 552.86 826.818 552.16 826.818 551.26C826.818 550.46 826.568 549.8 826.068 549.28C825.588 548.76 824.738 548.5 823.518 548.5C823.178 548.5 822.808 548.51 822.408 548.53C822.008 548.55 821.638 548.61 821.298 548.71V553.9ZM821.298 546.73C821.778 546.65 822.238 546.6 822.678 546.58C823.118 546.54 823.538 546.52 823.938 546.52C824.958 546.52 825.808 546.64 826.488 546.88C827.188 547.1 827.748 547.41 828.168 547.81C828.588 548.21 828.878 548.69 829.038 549.25C829.218 549.79 829.308 550.37 829.308 550.99C829.308 552.81 828.798 554.13 827.778 554.95C826.778 555.77 825.148 556.18 822.888 556.18C821.608 556.18 820.278 556.12 818.898 556V541H821.298V546.73ZM831.678 541H834.078V556H831.678V541ZM851.347 554.11C850.987 554.43 850.557 554.73 850.057 555.01C849.577 555.29 849.047 555.53 848.467 555.73C847.887 555.93 847.277 556.08 846.637 556.18C846.017 556.3 845.387 556.36 844.747 556.36C843.547 556.36 842.487 556.18 841.567 555.82C840.647 555.44 839.877 554.91 839.257 554.23C838.637 553.53 838.167 552.7 837.847 551.74C837.527 550.78 837.367 549.7 837.367 548.5C837.367 547.24 837.537 546.12 837.877 545.14C838.237 544.16 838.747 543.34 839.407 542.68C840.067 542.02 840.867 541.52 841.807 541.18C842.747 540.82 843.797 540.64 844.957 540.64C845.797 540.64 846.627 540.75 847.447 540.97C848.267 541.19 848.987 541.61 849.607 542.23C850.247 542.83 850.737 543.67 851.077 544.75C851.417 545.81 851.537 547.19 851.437 548.89H839.827C839.827 550.69 840.307 552.04 841.267 552.94C842.247 553.82 843.547 554.26 845.167 554.26C845.707 554.26 846.237 554.2 846.757 554.08C847.297 553.94 847.807 553.78 848.287 553.6C848.767 553.42 849.187 553.22 849.547 553C849.927 552.78 850.217 552.58 850.417 552.4L851.347 554.11ZM845.017 542.62C844.357 542.62 843.727 542.69 843.127 542.83C842.547 542.97 842.027 543.21 841.567 543.55C841.127 543.87 840.757 544.3 840.457 544.84C840.177 545.36 839.997 546.01 839.917 546.79H849.247C849.147 545.47 848.717 544.45 847.957 543.73C847.217 542.99 846.237 542.62 845.017 542.62Z" fill="#007BFF"/>
<rect x="348" y="639" width="319" height="275" rx="49" transform="rotate(-90 348 639)" stroke="#007BFF" stroke-width="2"/>
<path d="M423.391 402.85V401.98L437.521 393.37L438.661 395.23L426.751 402.28L438.691 409.21L437.551 411.01L423.391 402.85ZM440.959 397H444.529V394.03L446.869 393.37V397H454.879V399.01H446.869V406.09C446.869 407.55 447.219 408.63 447.919 409.33C448.639 410.03 449.659 410.38 450.979 410.38C451.879 410.38 452.659 410.21 453.319 409.87C453.999 409.53 454.609 409.16 455.149 408.76L455.929 410.53C455.229 411.09 454.389 411.54 453.409 411.88C452.449 412.22 451.459 412.39 450.439 412.39C449.639 412.39 448.879 412.27 448.159 412.03C447.459 411.81 446.839 411.46 446.299 410.98C445.759 410.5 445.329 409.89 445.009 409.15C444.689 408.39 444.529 407.49 444.529 406.45V399.01H440.959V397ZM458.138 391H462.818V398.86H462.968C463.588 398.16 464.308 397.62 465.128 397.24C465.948 396.84 466.968 396.64 468.188 396.64C469.148 396.64 469.978 396.74 470.678 396.94C471.398 397.14 471.978 397.49 472.418 397.99C472.878 398.49 473.218 399.18 473.438 400.06C473.658 400.92 473.768 402.02 473.768 403.36V412H471.428V403.81C471.428 402.95 471.378 402.2 471.278 401.56C471.178 400.92 470.978 400.39 470.678 399.97C470.398 399.53 470.008 399.2 469.508 398.98C469.008 398.76 468.368 398.65 467.588 398.65C467.048 398.65 466.518 398.75 465.998 398.95C465.478 399.13 464.998 399.39 464.558 399.73C464.138 400.05 463.768 400.45 463.448 400.93C463.148 401.39 462.938 401.9 462.818 402.46V412H460.508V393.01H458.138V391ZM491.876 410.11C491.516 410.43 491.086 410.73 490.586 411.01C490.106 411.29 489.576 411.53 488.996 411.73C488.416 411.93 487.806 412.08 487.166 412.18C486.546 412.3 485.916 412.36 485.276 412.36C484.076 412.36 483.016 412.18 482.096 411.82C481.176 411.44 480.406 410.91 479.786 410.23C479.166 409.53 478.696 408.7 478.376 407.74C478.056 406.78 477.896 405.7 477.896 404.5C477.896 403.24 478.066 402.12 478.406 401.14C478.766 400.16 479.276 399.34 479.936 398.68C480.596 398.02 481.396 397.52 482.336 397.18C483.276 396.82 484.326 396.64 485.486 396.64C486.326 396.64 487.156 396.75 487.976 396.97C488.796 397.19 489.516 397.61 490.136 398.23C490.776 398.83 491.266 399.67 491.606 400.75C491.946 401.81 492.066 403.19 491.966 404.89H480.356C480.356 406.69 480.836 408.04 481.796 408.94C482.776 409.82 484.076 410.26 485.696 410.26C486.236 410.26 486.766 410.2 487.286 410.08C487.826 409.94 488.336 409.78 488.816 409.6C489.296 409.42 489.716 409.22 490.076 409C490.456 408.78 490.746 408.58 490.946 408.4L491.876 410.11ZM485.546 398.62C484.886 398.62 484.256 398.69 483.656 398.83C483.076 398.97 482.556 399.21 482.096 399.55C481.656 399.87 481.286 400.3 480.986 400.84C480.706 401.36 480.526 402.01 480.446 402.79H489.776C489.676 401.47 489.246 400.45 488.486 399.73C487.746 398.99 486.766 398.62 485.546 398.62ZM497.234 398.17C498.094 397.67 499.064 397.31 500.144 397.09C501.224 396.87 502.284 396.76 503.324 396.76C504.344 396.76 505.174 396.92 505.814 397.24C506.474 397.56 506.984 397.98 507.344 398.5C507.724 399 507.974 399.58 508.094 400.24C508.234 400.88 508.304 401.53 508.304 402.19C508.304 402.95 508.284 403.76 508.244 404.62C508.204 405.48 508.174 406.34 508.154 407.2C508.154 408.2 508.214 409.15 508.334 410.05H510.344V412H506.354L506.084 409.75H505.934C505.814 409.93 505.634 410.16 505.394 410.44C505.154 410.72 504.834 411 504.434 411.28C504.054 411.54 503.584 411.77 503.024 411.97C502.464 412.17 501.804 412.27 501.044 412.27C499.564 412.27 498.394 411.89 497.534 411.13C496.674 410.37 496.244 409.33 496.244 408.01C496.244 406.99 496.464 406.14 496.904 405.46C497.364 404.78 498.014 404.26 498.854 403.9C499.694 403.54 500.704 403.33 501.884 403.27C503.084 403.21 504.424 403.29 505.904 403.51C506.004 402.59 506.014 401.83 505.934 401.23C505.874 400.61 505.714 400.12 505.454 399.76C505.214 399.4 504.864 399.15 504.404 399.01C503.964 398.85 503.414 398.77 502.754 398.77C501.854 398.77 500.994 398.9 500.174 399.16C499.354 399.4 498.624 399.65 497.984 399.91L497.234 398.17ZM501.644 410.26C502.204 410.26 502.724 410.17 503.204 409.99C503.684 409.81 504.104 409.58 504.464 409.3C504.824 409.02 505.124 408.72 505.364 408.4C505.604 408.06 505.784 407.74 505.904 407.44V405.34C504.864 405.16 503.904 405.07 503.024 405.07C502.144 405.07 501.384 405.17 500.744 405.37C500.104 405.55 499.604 405.84 499.244 406.24C498.884 406.64 498.704 407.16 498.704 407.8C498.704 408.46 498.924 409.04 499.364 409.54C499.824 410.02 500.584 410.26 501.644 410.26ZM522.452 391H527.312V406.87C527.312 407.05 527.322 407.28 527.342 407.56C527.362 407.82 527.382 408.1 527.402 408.4C527.442 408.7 527.482 409 527.522 409.3C527.562 409.58 527.602 409.83 527.642 410.05H529.652V412H525.662L525.362 409.69H525.242C524.802 410.45 524.142 411.09 523.262 411.61C522.402 412.11 521.402 412.36 520.262 412.36C518.002 412.36 516.332 411.73 515.252 410.47C514.192 409.19 513.662 407.21 513.662 404.53C513.662 403.27 513.842 402.16 514.202 401.2C514.562 400.22 515.072 399.41 515.732 398.77C516.412 398.11 517.222 397.61 518.162 397.27C519.102 396.93 520.152 396.76 521.312 396.76C521.732 396.76 522.102 396.77 522.422 396.79C522.762 396.81 523.072 396.84 523.352 396.88C523.632 396.92 523.892 396.98 524.132 397.06C524.392 397.12 524.672 397.19 524.972 397.27V393.01H522.452V391ZM520.652 410.35C521.872 410.35 522.832 410.04 523.532 409.42C524.232 408.78 524.712 407.83 524.972 406.57V399.61C524.532 399.31 524.032 399.09 523.472 398.95C522.932 398.81 522.212 398.74 521.312 398.74C519.712 398.74 518.452 399.21 517.532 400.15C516.612 401.07 516.152 402.53 516.152 404.53C516.152 405.35 516.222 406.12 516.362 406.84C516.522 407.54 516.772 408.15 517.112 408.67C517.472 409.19 517.942 409.6 518.522 409.9C519.102 410.2 519.812 410.35 520.652 410.35ZM532.461 411.01L531.321 409.21L543.261 402.28L531.351 395.23L532.491 393.37L546.621 401.98V402.85L532.461 411.01Z" fill="#007BFF"/>
<path d="M406.763 519.41L406.733 519.32C407.073 519.12 407.433 518.93 407.813 518.75C408.213 518.55 408.653 518.38 409.133 518.24C409.633 518.08 410.193 517.95 410.813 517.85C411.433 517.75 412.143 517.7 412.943 517.7C413.763 517.7 414.523 517.79 415.223 517.97C415.923 518.13 416.533 518.37 417.053 518.69C417.573 519.01 417.973 519.41 418.253 519.89C418.553 520.35 418.703 520.88 418.703 521.48C418.703 521.8 418.633 522.14 418.493 522.5C418.373 522.84 418.183 523.17 417.923 523.49C417.663 523.81 417.353 524.1 416.993 524.36C416.633 524.62 416.223 524.82 415.763 524.96V525.08C417.083 525.3 418.003 525.72 418.523 526.34C419.063 526.96 419.333 527.78 419.333 528.8C419.333 529.44 419.183 530.03 418.883 530.57C418.583 531.11 418.133 531.58 417.533 531.98C416.953 532.38 416.223 532.7 415.343 532.94C414.483 533.16 413.473 533.27 412.313 533.27C411.453 533.27 410.673 533.19 409.973 533.03C409.273 532.87 408.653 532.67 408.113 532.43C407.593 532.19 407.143 531.93 406.763 531.65C406.403 531.37 406.123 531.11 405.923 530.87L407.123 528.98C407.343 529.22 407.613 529.48 407.933 529.76C408.253 530.02 408.643 530.26 409.103 530.48C409.583 530.7 410.123 530.89 410.723 531.05C411.343 531.19 412.053 531.26 412.853 531.26C413.413 531.26 413.933 531.21 414.413 531.11C414.913 530.99 415.343 530.83 415.703 530.63C416.083 530.41 416.383 530.14 416.603 529.82C416.823 529.48 416.933 529.09 416.933 528.65C416.933 527.89 416.583 527.31 415.883 526.91C415.203 526.51 414.073 526.31 412.493 526.31H410.783V524.36H412.913C413.313 524.36 413.713 524.3 414.113 524.18C414.513 524.04 414.873 523.87 415.193 523.67C415.513 523.45 415.773 523.2 415.973 522.92C416.173 522.62 416.273 522.31 416.273 521.99C416.273 521.59 416.173 521.25 415.973 520.97C415.773 520.67 415.493 520.43 415.133 520.25C414.793 520.07 414.383 519.94 413.903 519.86C413.443 519.76 412.953 519.71 412.433 519.71C411.633 519.71 410.933 519.79 410.333 519.95C409.733 520.09 409.223 520.27 408.803 520.49V522.98H406.763V519.41ZM424.781 519.17C425.641 518.67 426.611 518.31 427.691 518.09C428.771 517.87 429.831 517.76 430.871 517.76C431.891 517.76 432.721 517.92 433.361 518.24C434.021 518.56 434.531 518.98 434.891 519.5C435.271 520 435.521 520.58 435.641 521.24C435.781 521.88 435.851 522.53 435.851 523.19C435.851 523.95 435.831 524.76 435.791 525.62C435.751 526.48 435.721 527.34 435.701 528.2C435.701 529.2 435.761 530.15 435.881 531.05H437.891V533H433.901L433.631 530.75H433.481C433.361 530.93 433.181 531.16 432.941 531.44C432.701 531.72 432.381 532 431.981 532.28C431.601 532.54 431.131 532.77 430.571 532.97C430.011 533.17 429.351 533.27 428.591 533.27C427.111 533.27 425.941 532.89 425.081 532.13C424.221 531.37 423.791 530.33 423.791 529.01C423.791 527.99 424.011 527.14 424.451 526.46C424.911 525.78 425.561 525.26 426.401 524.9C427.241 524.54 428.251 524.33 429.431 524.27C430.631 524.21 431.971 524.29 433.451 524.51C433.551 523.59 433.561 522.83 433.481 522.23C433.421 521.61 433.261 521.12 433.001 520.76C432.761 520.4 432.411 520.15 431.951 520.01C431.511 519.85 430.961 519.77 430.301 519.77C429.401 519.77 428.541 519.9 427.721 520.16C426.901 520.4 426.171 520.65 425.531 520.91L424.781 519.17ZM429.191 531.26C429.751 531.26 430.271 531.17 430.751 530.99C431.231 530.81 431.651 530.58 432.011 530.3C432.371 530.02 432.671 529.72 432.911 529.4C433.151 529.06 433.331 528.74 433.451 528.44V526.34C432.411 526.16 431.451 526.07 430.571 526.07C429.691 526.07 428.931 526.17 428.291 526.37C427.651 526.55 427.151 526.84 426.791 527.24C426.431 527.64 426.251 528.16 426.251 528.8C426.251 529.46 426.471 530.04 426.911 530.54C427.371 531.02 428.131 531.26 429.191 531.26ZM442.589 533V530.99H444.509V520.04H442.589V518H454.709V523.61H452.669V520.04H446.849V530.99H451.409V533H442.589ZM459.228 525.5C459.228 523.08 459.858 521.17 461.118 519.77C462.378 518.35 464.178 517.64 466.518 517.64C467.778 517.64 468.858 517.85 469.758 518.27C470.678 518.67 471.438 519.22 472.038 519.92C472.638 520.62 473.078 521.45 473.358 522.41C473.658 523.37 473.808 524.4 473.808 525.5C473.808 526.7 473.648 527.79 473.328 528.77C473.008 529.73 472.538 530.55 471.918 531.23C471.298 531.91 470.528 532.44 469.608 532.82C468.708 533.18 467.678 533.36 466.518 533.36C465.278 533.36 464.198 533.16 463.278 532.76C462.358 532.34 461.598 531.78 460.998 531.08C460.398 530.38 459.948 529.55 459.648 528.59C459.368 527.63 459.228 526.6 459.228 525.5ZM461.718 525.5C461.718 526.2 461.798 526.9 461.958 527.6C462.138 528.3 462.418 528.93 462.798 529.49C463.178 530.05 463.668 530.5 464.268 530.84C464.888 531.18 465.638 531.35 466.518 531.35C468.118 531.35 469.318 530.86 470.118 529.88C470.938 528.88 471.348 527.42 471.348 525.5C471.348 524.78 471.258 524.08 471.078 523.4C470.918 522.7 470.638 522.07 470.238 521.51C469.858 520.95 469.358 520.5 468.738 520.16C468.138 519.82 467.398 519.65 466.518 519.65C464.918 519.65 463.718 520.14 462.918 521.12C462.118 522.1 461.718 523.56 461.718 525.5ZM488.286 520.04H483.096C483.016 521.86 482.916 523.57 482.796 525.17C482.676 526.75 482.446 528.13 482.106 529.31C481.786 530.49 481.316 531.42 480.696 532.1C480.096 532.78 479.276 533.12 478.236 533.12C477.836 533.12 477.546 533.1 477.366 533.06C477.186 533.02 476.966 532.95 476.706 532.85L477.096 530.63C477.476 530.73 477.826 530.78 478.146 530.78C478.486 530.78 478.786 530.66 479.046 530.42C479.306 530.18 479.536 529.8 479.736 529.28C479.956 528.74 480.136 527.99 480.276 527.03C480.436 526.05 480.566 524.83 480.666 523.37C480.766 521.89 480.846 520.1 480.906 518H490.626V533H488.286V520.04ZM495.204 525.5C495.204 523.08 495.834 521.17 497.094 519.77C498.354 518.35 500.154 517.64 502.494 517.64C503.754 517.64 504.834 517.85 505.734 518.27C506.654 518.67 507.414 519.22 508.014 519.92C508.614 520.62 509.054 521.45 509.334 522.41C509.634 523.37 509.784 524.4 509.784 525.5C509.784 526.7 509.624 527.79 509.304 528.77C508.984 529.73 508.514 530.55 507.894 531.23C507.274 531.91 506.504 532.44 505.584 532.82C504.684 533.18 503.654 533.36 502.494 533.36C501.254 533.36 500.174 533.16 499.254 532.76C498.334 532.34 497.574 531.78 496.974 531.08C496.374 530.38 495.924 529.55 495.624 528.59C495.344 527.63 495.204 526.6 495.204 525.5ZM497.694 525.5C497.694 526.2 497.774 526.9 497.934 527.6C498.114 528.3 498.394 528.93 498.774 529.49C499.154 530.05 499.644 530.5 500.244 530.84C500.864 531.18 501.614 531.35 502.494 531.35C504.094 531.35 505.294 530.86 506.094 529.88C506.914 528.88 507.324 527.42 507.324 525.5C507.324 524.78 507.234 524.08 507.054 523.4C506.894 522.7 506.614 522.07 506.214 521.51C505.834 520.95 505.334 520.5 504.714 520.16C504.114 519.82 503.374 519.65 502.494 519.65C500.894 519.65 499.694 520.14 498.894 521.12C498.094 522.1 497.694 523.56 497.694 525.5ZM515.082 518.03C515.462 518.01 515.842 517.99 516.222 517.97C516.602 517.93 517.012 517.9 517.452 517.88C517.892 517.86 518.362 517.84 518.862 517.82C519.382 517.8 519.962 517.79 520.602 517.79C522.762 517.79 524.322 518.1 525.282 518.72C526.242 519.32 526.722 520.23 526.722 521.45C526.722 522.15 526.492 522.85 526.032 523.55C525.572 524.23 524.822 524.72 523.782 525.02V525.14C525.102 525.36 526.032 525.77 526.572 526.37C527.112 526.95 527.382 527.75 527.382 528.77C527.382 530.33 526.742 531.46 525.462 532.16C524.202 532.86 522.362 533.21 519.942 533.21C518.982 533.21 518.122 533.18 517.362 533.12C516.602 533.08 515.842 533.03 515.082 532.97V518.03ZM517.392 531.11C517.852 531.15 518.312 531.18 518.772 531.2C519.232 531.22 519.752 531.23 520.332 531.23C521.892 531.23 523.052 531.04 523.812 530.66C524.592 530.26 524.982 529.58 524.982 528.62C524.982 528.24 524.902 527.9 524.742 527.6C524.602 527.3 524.352 527.04 523.992 526.82C523.652 526.6 523.202 526.43 522.642 526.31C522.082 526.19 521.382 526.13 520.542 526.13H517.392V531.11ZM520.962 524.33C521.362 524.33 521.762 524.27 522.162 524.15C522.562 524.01 522.922 523.84 523.242 523.64C523.582 523.42 523.852 523.17 524.052 522.89C524.252 522.59 524.352 522.28 524.352 521.96C524.352 521.14 524.052 520.57 523.452 520.25C522.872 519.93 521.892 519.77 520.512 519.77C519.752 519.77 519.142 519.78 518.682 519.8C518.242 519.82 517.812 519.84 517.392 519.86V524.33H520.962ZM536.701 526.22H535.051V533H532.741V518H535.051V524.42H536.701L542.611 518H545.431L538.801 525.11L544.261 530.99H546.211V533H543.121L536.701 526.22ZM560.569 523.58L560.659 521.6H560.569L552.139 533H550.009V518H552.349V527.69L552.259 529.58H552.379L560.749 518H562.909V533H560.569V523.58ZM425.567 560.34H417.497V567H415.187V552H417.497V558.24H425.567V552H427.907V567H425.567V560.34ZM433.775 553.17C434.635 552.67 435.605 552.31 436.685 552.09C437.765 551.87 438.825 551.76 439.865 551.76C440.885 551.76 441.715 551.92 442.355 552.24C443.015 552.56 443.525 552.98 443.885 553.5C444.265 554 444.515 554.58 444.635 555.24C444.775 555.88 444.845 556.53 444.845 557.19C444.845 557.95 444.825 558.76 444.785 559.62C444.745 560.48 444.715 561.34 444.695 562.2C444.695 563.2 444.755 564.15 444.875 565.05H446.885V567H442.895L442.625 564.75H442.475C442.355 564.93 442.175 565.16 441.935 565.44C441.695 565.72 441.375 566 440.975 566.28C440.595 566.54 440.125 566.77 439.565 566.97C439.005 567.17 438.345 567.27 437.585 567.27C436.105 567.27 434.935 566.89 434.075 566.13C433.215 565.37 432.785 564.33 432.785 563.01C432.785 561.99 433.005 561.14 433.445 560.46C433.905 559.78 434.555 559.26 435.395 558.9C436.235 558.54 437.245 558.33 438.425 558.27C439.625 558.21 440.965 558.29 442.445 558.51C442.545 557.59 442.555 556.83 442.475 556.23C442.415 555.61 442.255 555.12 441.995 554.76C441.755 554.4 441.405 554.15 440.945 554.01C440.505 553.85 439.955 553.77 439.295 553.77C438.395 553.77 437.535 553.9 436.715 554.16C435.895 554.4 435.165 554.65 434.525 554.91L433.775 553.17ZM438.185 565.26C438.745 565.26 439.265 565.17 439.745 564.99C440.225 564.81 440.645 564.58 441.005 564.3C441.365 564.02 441.665 563.72 441.905 563.4C442.145 563.06 442.325 562.74 442.445 562.44V560.34C441.405 560.16 440.445 560.07 439.565 560.07C438.685 560.07 437.925 560.17 437.285 560.37C436.645 560.55 436.145 560.84 435.785 561.24C435.425 561.64 435.245 562.16 435.245 562.8C435.245 563.46 435.465 564.04 435.905 564.54C436.365 565.02 437.125 565.26 438.185 565.26ZM451.733 553.41L451.703 553.32C452.043 553.12 452.403 552.93 452.783 552.75C453.183 552.55 453.623 552.38 454.103 552.24C454.603 552.08 455.163 551.95 455.783 551.85C456.403 551.75 457.113 551.7 457.913 551.7C458.733 551.7 459.493 551.79 460.193 551.97C460.893 552.13 461.503 552.37 462.023 552.69C462.543 553.01 462.943 553.41 463.223 553.89C463.523 554.35 463.673 554.88 463.673 555.48C463.673 555.8 463.603 556.14 463.463 556.5C463.343 556.84 463.153 557.17 462.893 557.49C462.633 557.81 462.323 558.1 461.963 558.36C461.603 558.62 461.193 558.82 460.733 558.96V559.08C462.053 559.3 462.973 559.72 463.493 560.34C464.033 560.96 464.303 561.78 464.303 562.8C464.303 563.44 464.153 564.03 463.853 564.57C463.553 565.11 463.103 565.58 462.503 565.98C461.923 566.38 461.193 566.7 460.313 566.94C459.453 567.16 458.443 567.27 457.283 567.27C456.423 567.27 455.643 567.19 454.943 567.03C454.243 566.87 453.623 566.67 453.083 566.43C452.563 566.19 452.113 565.93 451.733 565.65C451.373 565.37 451.093 565.11 450.893 564.87L452.093 562.98C452.313 563.22 452.583 563.48 452.903 563.76C453.223 564.02 453.613 564.26 454.073 564.48C454.553 564.7 455.093 564.89 455.693 565.05C456.313 565.19 457.023 565.26 457.823 565.26C458.383 565.26 458.903 565.21 459.383 565.11C459.883 564.99 460.313 564.83 460.673 564.63C461.053 564.41 461.353 564.14 461.573 563.82C461.793 563.48 461.903 563.09 461.903 562.65C461.903 561.89 461.553 561.31 460.853 560.91C460.173 560.51 459.043 560.31 457.463 560.31H455.753V558.36H457.883C458.283 558.36 458.683 558.3 459.083 558.18C459.483 558.04 459.843 557.87 460.163 557.67C460.483 557.45 460.743 557.2 460.943 556.92C461.143 556.62 461.243 556.31 461.243 555.99C461.243 555.59 461.143 555.25 460.943 554.97C460.743 554.67 460.463 554.43 460.103 554.25C459.763 554.07 459.353 553.94 458.873 553.86C458.413 553.76 457.923 553.71 457.403 553.71C456.603 553.71 455.903 553.79 455.303 553.95C454.703 554.09 454.193 554.27 453.773 554.49V556.98H451.733V553.41ZM470.112 552.03C470.492 552.01 470.872 551.99 471.252 551.97C471.632 551.93 472.042 551.9 472.482 551.88C472.922 551.86 473.392 551.84 473.892 551.82C474.412 551.8 474.992 551.79 475.632 551.79C477.792 551.79 479.352 552.1 480.312 552.72C481.272 553.32 481.752 554.23 481.752 555.45C481.752 556.15 481.522 556.85 481.062 557.55C480.602 558.23 479.852 558.72 478.812 559.02V559.14C480.132 559.36 481.062 559.77 481.602 560.37C482.142 560.95 482.412 561.75 482.412 562.77C482.412 564.33 481.772 565.46 480.492 566.16C479.232 566.86 477.392 567.21 474.972 567.21C474.012 567.21 473.152 567.18 472.392 567.12C471.632 567.08 470.872 567.03 470.112 566.97V552.03ZM472.422 565.11C472.882 565.15 473.342 565.18 473.802 565.2C474.262 565.22 474.782 565.23 475.362 565.23C476.922 565.23 478.082 565.04 478.842 564.66C479.622 564.26 480.012 563.58 480.012 562.62C480.012 562.24 479.932 561.9 479.772 561.6C479.632 561.3 479.382 561.04 479.022 560.82C478.682 560.6 478.232 560.43 477.672 560.31C477.112 560.19 476.412 560.13 475.572 560.13H472.422V565.11ZM475.992 558.33C476.392 558.33 476.792 558.27 477.192 558.15C477.592 558.01 477.952 557.84 478.272 557.64C478.612 557.42 478.882 557.17 479.082 556.89C479.282 556.59 479.382 556.28 479.382 555.96C479.382 555.14 479.082 554.57 478.482 554.25C477.902 553.93 476.922 553.77 475.542 553.77C474.782 553.77 474.172 553.78 473.712 553.8C473.272 553.82 472.842 553.84 472.422 553.86V558.33H475.992ZM487.74 553.17C488.6 552.67 489.57 552.31 490.65 552.09C491.73 551.87 492.79 551.76 493.83 551.76C494.85 551.76 495.68 551.92 496.32 552.24C496.98 552.56 497.49 552.98 497.85 553.5C498.23 554 498.48 554.58 498.6 555.24C498.74 555.88 498.81 556.53 498.81 557.19C498.81 557.95 498.79 558.76 498.75 559.62C498.71 560.48 498.68 561.34 498.66 562.2C498.66 563.2 498.72 564.15 498.84 565.05H500.85V567H496.86L496.59 564.75H496.44C496.32 564.93 496.14 565.16 495.9 565.44C495.66 565.72 495.34 566 494.94 566.28C494.56 566.54 494.09 566.77 493.53 566.97C492.97 567.17 492.31 567.27 491.55 567.27C490.07 567.27 488.9 566.89 488.04 566.13C487.18 565.37 486.75 564.33 486.75 563.01C486.75 561.99 486.97 561.14 487.41 560.46C487.87 559.78 488.52 559.26 489.36 558.9C490.2 558.54 491.21 558.33 492.39 558.27C493.59 558.21 494.93 558.29 496.41 558.51C496.51 557.59 496.52 556.83 496.44 556.23C496.38 555.61 496.22 555.12 495.96 554.76C495.72 554.4 495.37 554.15 494.91 554.01C494.47 553.85 493.92 553.77 493.26 553.77C492.36 553.77 491.5 553.9 490.68 554.16C489.86 554.4 489.13 554.65 488.49 554.91L487.74 553.17ZM492.15 565.26C492.71 565.26 493.23 565.17 493.71 564.99C494.19 564.81 494.61 564.58 494.97 564.3C495.33 564.02 495.63 563.72 495.87 563.4C496.11 563.06 496.29 562.74 496.41 562.44V560.34C495.37 560.16 494.41 560.07 493.53 560.07C492.65 560.07 491.89 560.17 491.25 560.37C490.61 560.55 490.11 560.84 489.75 561.24C489.39 561.64 489.21 562.16 489.21 562.8C489.21 563.46 489.43 564.04 489.87 564.54C490.33 565.02 491.09 565.26 492.15 565.26ZM515.508 560.34H507.438V567H505.128V552H507.438V558.24H515.508V552H517.848V567H515.508V560.34ZM533.587 557.58L533.677 555.6H533.587L525.157 567H523.027V552H525.367V561.69L525.277 563.58H525.397L533.767 552H535.927V567H533.587V557.58ZM550.765 561.15H547.165L543.385 567H540.385V564.99H541.945L544.675 560.91C544.295 560.81 543.925 560.65 543.565 560.43C543.205 560.19 542.875 559.9 542.575 559.56C542.295 559.2 542.065 558.79 541.885 558.33C541.725 557.85 541.645 557.32 541.645 556.74C541.645 555.84 541.825 555.07 542.185 554.43C542.545 553.77 543.045 553.23 543.685 552.81C544.325 552.39 545.085 552.09 545.965 551.91C546.845 551.71 547.815 551.61 548.875 551.61C549.635 551.61 550.355 551.67 551.035 551.79C551.715 551.89 552.405 552 553.105 552.12V567H550.765V561.15ZM550.765 559.35V554.01C550.485 553.91 550.155 553.82 549.775 553.74C549.395 553.66 549.065 553.62 548.785 553.62C547.265 553.62 546.105 553.86 545.305 554.34C544.505 554.8 544.105 555.54 544.105 556.56C544.105 557.38 544.345 558.02 544.825 558.48C545.305 558.92 545.885 559.21 546.565 559.35H550.765Z" fill="#007BFF"/>
</svg>
