<svg width="1600" height="900" viewBox="0 0 1600 900" fill="none" xmlns="http://www.w3.org/2000/svg">
<rect x="301" y="225" width="998" height="560.5" rx="49" stroke="#007BFF" stroke-width="2"/>
<path d="M736.936 272.85V271.98L751.066 263.37L752.206 265.23L740.296 272.28L752.236 279.21L751.096 281.01L736.936 272.85ZM754.504 267H758.074V264.03L760.414 263.37V267H768.424V269.01H760.414V276.09C760.414 277.55 760.764 278.63 761.464 279.33C762.184 280.03 763.204 280.38 764.524 280.38C765.424 280.38 766.204 280.21 766.864 279.87C767.544 279.53 768.154 279.16 768.694 278.76L769.474 280.53C768.774 281.09 767.934 281.54 766.954 281.88C765.994 282.22 765.004 282.39 763.984 282.39C763.184 282.39 762.424 282.27 761.704 282.03C761.004 281.81 760.384 281.46 759.844 280.98C759.304 280.5 758.874 279.89 758.554 279.15C758.234 278.39 758.074 277.49 758.074 276.45V269.01H754.504V267ZM774.803 268.17C775.663 267.67 776.633 267.31 777.713 267.09C778.793 266.87 779.853 266.76 780.893 266.76C781.913 266.76 782.743 266.92 783.383 267.24C784.043 267.56 784.553 267.98 784.913 268.5C785.293 269 785.543 269.58 785.663 270.24C785.803 270.88 785.873 271.53 785.873 272.19C785.873 272.95 785.853 273.76 785.813 274.62C785.773 275.48 785.743 276.34 785.723 277.2C785.723 278.2 785.783 279.15 785.903 280.05H787.913V282H783.923L783.653 279.75H783.503C783.383 279.93 783.203 280.16 782.963 280.44C782.723 280.72 782.403 281 782.003 281.28C781.623 281.54 781.153 281.77 780.593 281.97C780.033 282.17 779.373 282.27 778.613 282.27C777.133 282.27 775.963 281.89 775.103 281.13C774.243 280.37 773.813 279.33 773.813 278.01C773.813 276.99 774.033 276.14 774.473 275.46C774.933 274.78 775.583 274.26 776.423 273.9C777.263 273.54 778.273 273.33 779.453 273.27C780.653 273.21 781.993 273.29 783.473 273.51C783.573 272.59 783.583 271.83 783.503 271.23C783.443 270.61 783.283 270.12 783.023 269.76C782.783 269.4 782.433 269.15 781.973 269.01C781.533 268.85 780.983 268.77 780.323 268.77C779.423 268.77 778.563 268.9 777.743 269.16C776.923 269.4 776.193 269.65 775.553 269.91L774.803 268.17ZM779.213 280.26C779.773 280.26 780.293 280.17 780.773 279.99C781.253 279.81 781.673 279.58 782.033 279.3C782.393 279.02 782.693 278.72 782.933 278.4C783.173 278.06 783.353 277.74 783.473 277.44V275.34C782.433 275.16 781.473 275.07 780.593 275.07C779.713 275.07 778.953 275.17 778.313 275.37C777.673 275.55 777.173 275.84 776.813 276.24C776.453 276.64 776.273 277.16 776.273 277.8C776.273 278.46 776.493 279.04 776.933 279.54C777.393 280.02 778.153 280.26 779.213 280.26ZM789.611 261H794.411V268.71H794.561C795.081 268.05 795.751 267.54 796.571 267.18C797.391 266.82 798.281 266.64 799.241 266.64C803.641 266.64 805.841 269.18 805.841 274.26C805.841 276.84 805.131 278.82 803.711 280.2C802.291 281.56 800.271 282.24 797.651 282.24C796.411 282.24 795.291 282.12 794.291 281.88C793.291 281.64 792.561 281.36 792.101 281.04V263.01H789.611V261ZM798.941 268.65C797.741 268.65 796.771 268.99 796.031 269.67C795.291 270.35 794.751 271.31 794.411 272.55V279.45C794.871 279.69 795.421 279.88 796.061 280.02C796.701 280.16 797.371 280.23 798.071 280.23C798.871 280.23 799.591 280.12 800.231 279.9C800.891 279.66 801.451 279.3 801.911 278.82C802.371 278.32 802.721 277.69 802.961 276.93C803.221 276.17 803.351 275.27 803.351 274.23C803.351 273.47 803.271 272.75 803.111 272.07C802.951 271.39 802.691 270.8 802.331 270.3C801.991 269.78 801.541 269.38 800.981 269.1C800.421 268.8 799.741 268.65 798.941 268.65ZM809.639 261H814.619V276.96C814.619 278.18 814.819 279.04 815.219 279.54C815.639 280.04 816.249 280.29 817.049 280.29C817.609 280.29 818.179 280.18 818.759 279.96C819.339 279.74 819.869 279.43 820.349 279.03L821.429 280.62C821.109 280.9 820.759 281.15 820.379 281.37C819.999 281.59 819.609 281.78 819.209 281.94C818.809 282.08 818.409 282.19 818.009 282.27C817.609 282.35 817.239 282.39 816.899 282.39C816.159 282.39 815.499 282.29 814.919 282.09C814.339 281.91 813.849 281.61 813.449 281.19C813.069 280.77 812.779 280.22 812.579 279.54C812.379 278.84 812.279 277.98 812.279 276.96V263.01H809.639V261ZM841.397 280.11C841.037 280.43 840.607 280.73 840.107 281.01C839.627 281.29 839.097 281.53 838.517 281.73C837.937 281.93 837.327 282.08 836.687 282.18C836.067 282.3 835.437 282.36 834.797 282.36C833.597 282.36 832.537 282.18 831.617 281.82C830.697 281.44 829.927 280.91 829.307 280.23C828.687 279.53 828.217 278.7 827.897 277.74C827.577 276.78 827.417 275.7 827.417 274.5C827.417 273.24 827.587 272.12 827.927 271.14C828.287 270.16 828.797 269.34 829.457 268.68C830.117 268.02 830.917 267.52 831.857 267.18C832.797 266.82 833.847 266.64 835.007 266.64C835.847 266.64 836.677 266.75 837.497 266.97C838.317 267.19 839.037 267.61 839.657 268.23C840.297 268.83 840.787 269.67 841.127 270.75C841.467 271.81 841.587 273.19 841.487 274.89H829.877C829.877 276.69 830.357 278.04 831.317 278.94C832.297 279.82 833.597 280.26 835.217 280.26C835.757 280.26 836.287 280.2 836.807 280.08C837.347 279.94 837.857 279.78 838.337 279.6C838.817 279.42 839.237 279.22 839.597 279C839.977 278.78 840.267 278.58 840.467 278.4L841.397 280.11ZM835.067 268.62C834.407 268.62 833.777 268.69 833.177 268.83C832.597 268.97 832.077 269.21 831.617 269.55C831.177 269.87 830.807 270.3 830.507 270.84C830.227 271.36 830.047 272.01 829.967 272.79H839.297C839.197 271.47 838.767 270.45 838.007 269.73C837.267 268.99 836.287 268.62 835.067 268.62ZM846.006 281.01L844.866 279.21L856.806 272.28L844.896 265.23L846.036 263.37L860.166 271.98V272.85L846.006 281.01Z" fill="#007BFF"/>
<rect x="348" y="385" width="65" height="903" rx="32.5" transform="rotate(-90 348 385)" stroke="#007BFF" stroke-width="2"/>
<path d="M719.948 353.85V352.98L734.078 344.37L735.218 346.23L723.308 353.28L735.248 360.21L734.108 362.01L719.948 353.85ZM749.756 350.31C749.296 350.15 748.796 350.02 748.256 349.92C747.736 349.8 747.216 349.74 746.696 349.74C744.736 349.74 743.276 350.2 742.316 351.12C741.356 352.04 740.876 353.5 740.876 355.5C740.876 356.38 741.016 357.17 741.296 357.87C741.576 358.55 741.976 359.13 742.496 359.61C743.016 360.09 743.636 360.46 744.356 360.72C745.096 360.98 745.906 361.11 746.786 361.11C747.726 361.11 748.636 360.95 749.516 360.63C750.416 360.31 751.166 359.89 751.766 359.37L752.816 361.11C752.536 361.35 752.186 361.6 751.766 361.86C751.346 362.12 750.856 362.37 750.296 362.61C749.756 362.83 749.146 363.01 748.466 363.15C747.806 363.29 747.086 363.36 746.306 363.36C745.006 363.36 743.856 363.18 742.856 362.82C741.876 362.44 741.056 361.91 740.396 361.23C739.736 360.53 739.236 359.7 738.896 358.74C738.556 357.76 738.386 356.68 738.386 355.5C738.386 354.24 738.556 353.12 738.896 352.14C739.256 351.16 739.766 350.34 740.426 349.68C741.086 349.02 741.886 348.52 742.826 348.18C743.766 347.82 744.816 347.64 745.976 347.64C747.456 347.64 748.656 347.77 749.576 348.03C750.516 348.29 751.306 348.58 751.946 348.9L751.916 348.99V353.16H749.756V350.31ZM757.814 349.17C758.674 348.67 759.644 348.31 760.724 348.09C761.804 347.87 762.864 347.76 763.904 347.76C764.924 347.76 765.754 347.92 766.394 348.24C767.054 348.56 767.564 348.98 767.924 349.5C768.304 350 768.554 350.58 768.674 351.24C768.814 351.88 768.884 352.53 768.884 353.19C768.884 353.95 768.864 354.76 768.824 355.62C768.784 356.48 768.754 357.34 768.734 358.2C768.734 359.2 768.794 360.15 768.914 361.05H770.924V363H766.934L766.664 360.75H766.514C766.394 360.93 766.214 361.16 765.974 361.44C765.734 361.72 765.414 362 765.014 362.28C764.634 362.54 764.164 362.77 763.604 362.97C763.044 363.17 762.384 363.27 761.624 363.27C760.144 363.27 758.974 362.89 758.114 362.13C757.254 361.37 756.824 360.33 756.824 359.01C756.824 357.99 757.044 357.14 757.484 356.46C757.944 355.78 758.594 355.26 759.434 354.9C760.274 354.54 761.284 354.33 762.464 354.27C763.664 354.21 765.004 354.29 766.484 354.51C766.584 353.59 766.594 352.83 766.514 352.23C766.454 351.61 766.294 351.12 766.034 350.76C765.794 350.4 765.444 350.15 764.984 350.01C764.544 349.85 763.994 349.77 763.334 349.77C762.434 349.77 761.574 349.9 760.754 350.16C759.934 350.4 759.204 350.65 758.564 350.91L757.814 349.17ZM762.224 361.26C762.784 361.26 763.304 361.17 763.784 360.99C764.264 360.81 764.684 360.58 765.044 360.3C765.404 360.02 765.704 359.72 765.944 359.4C766.184 359.06 766.364 358.74 766.484 358.44V356.34C765.444 356.16 764.484 356.07 763.604 356.07C762.724 356.07 761.964 356.17 761.324 356.37C760.684 356.55 760.184 356.84 759.824 357.24C759.464 357.64 759.284 358.16 759.284 358.8C759.284 359.46 759.504 360.04 759.944 360.54C760.404 361.02 761.164 361.26 762.224 361.26ZM775.443 353.25C775.443 353.07 775.433 352.84 775.413 352.56C775.413 352.26 775.403 351.96 775.383 351.66C775.363 351.34 775.333 351.03 775.293 350.73C775.273 350.43 775.243 350.17 775.203 349.95H773.193V348H777.183L777.483 350.1H777.633C778.173 349.4 778.853 348.82 779.673 348.36C780.513 347.88 781.533 347.64 782.733 347.64C784.873 347.64 786.483 348.23 787.563 349.41C788.643 350.59 789.183 352.52 789.183 355.2C789.183 356.46 788.993 357.6 788.613 358.62C788.253 359.62 787.733 360.47 787.053 361.17C786.373 361.87 785.553 362.41 784.593 362.79C783.633 363.17 782.573 363.36 781.413 363.36C780.993 363.36 780.613 363.34 780.273 363.3C779.953 363.28 779.653 363.24 779.373 363.18C779.113 363.14 778.853 363.08 778.593 363C778.333 362.92 778.053 362.82 777.753 362.7V369H775.443V353.25ZM782.343 349.83C781.743 349.83 781.173 349.94 780.633 350.16C780.113 350.38 779.643 350.67 779.223 351.03C778.823 351.39 778.493 351.79 778.233 352.23C777.973 352.67 777.813 353.11 777.753 353.55V360.39C778.193 360.69 778.683 360.93 779.223 361.11C779.783 361.27 780.513 361.35 781.413 361.35C783.013 361.35 784.293 360.83 785.253 359.79C786.213 358.73 786.693 357.19 786.693 355.17C786.693 353.47 786.353 352.16 785.673 351.24C785.013 350.3 783.903 349.83 782.343 349.83ZM791.481 348H795.051V345.03L797.391 344.37V348H805.401V350.01H797.391V357.09C797.391 358.55 797.741 359.63 798.441 360.33C799.161 361.03 800.181 361.38 801.501 361.38C802.401 361.38 803.181 361.21 803.841 360.87C804.521 360.53 805.131 360.16 805.671 359.76L806.451 361.53C805.751 362.09 804.911 362.54 803.931 362.88C802.971 363.22 801.981 363.39 800.961 363.39C800.161 363.39 799.401 363.27 798.681 363.03C797.981 362.81 797.361 362.46 796.821 361.98C796.281 361.5 795.851 360.89 795.531 360.15C795.211 359.39 795.051 358.49 795.051 357.45V350.01H791.481V348ZM811.689 363V360.99H816.909V350.01H811.689V348H819.309V360.99H824.409V363H811.689ZM816.099 343.74C816.099 343.2 816.279 342.74 816.639 342.36C816.999 341.96 817.459 341.76 818.019 341.76C818.599 341.76 819.079 341.96 819.459 342.36C819.859 342.74 820.059 343.2 820.059 343.74C820.059 344.26 819.859 344.7 819.459 345.06C819.079 345.42 818.599 345.6 818.019 345.6C817.459 345.6 816.999 345.42 816.639 345.06C816.279 344.7 816.099 344.26 816.099 343.74ZM828.237 355.5C828.237 353.08 828.867 351.17 830.127 349.77C831.387 348.35 833.187 347.64 835.527 347.64C836.787 347.64 837.867 347.85 838.767 348.27C839.687 348.67 840.447 349.22 841.047 349.92C841.647 350.62 842.087 351.45 842.367 352.41C842.667 353.37 842.817 354.4 842.817 355.5C842.817 356.7 842.657 357.79 842.337 358.77C842.017 359.73 841.547 360.55 840.927 361.23C840.307 361.91 839.537 362.44 838.617 362.82C837.717 363.18 836.687 363.36 835.527 363.36C834.287 363.36 833.207 363.16 832.287 362.76C831.367 362.34 830.607 361.78 830.007 361.08C829.407 360.38 828.957 359.55 828.657 358.59C828.377 357.63 828.237 356.6 828.237 355.5ZM830.727 355.5C830.727 356.2 830.807 356.9 830.967 357.6C831.147 358.3 831.427 358.93 831.807 359.49C832.187 360.05 832.677 360.5 833.277 360.84C833.897 361.18 834.647 361.35 835.527 361.35C837.127 361.35 838.327 360.86 839.127 359.88C839.947 358.88 840.357 357.42 840.357 355.5C840.357 354.78 840.267 354.08 840.087 353.4C839.927 352.7 839.647 352.07 839.247 351.51C838.867 350.95 838.367 350.5 837.747 350.16C837.147 349.82 836.407 349.65 835.527 349.65C833.927 349.65 832.727 350.14 831.927 351.12C831.127 352.1 830.727 353.56 830.727 355.5ZM847.306 353.25C847.306 353.07 847.296 352.84 847.276 352.56C847.276 352.26 847.266 351.96 847.246 351.66C847.226 351.34 847.196 351.03 847.156 350.73C847.136 350.43 847.106 350.17 847.066 349.95H845.056V348H849.076L849.346 350.43H849.496C849.696 350.09 849.956 349.76 850.276 349.44C850.616 349.1 851.006 348.8 851.446 348.54C851.886 348.26 852.376 348.04 852.916 347.88C853.456 347.72 854.026 347.64 854.626 347.64C855.546 347.64 856.356 347.74 857.056 347.94C857.776 348.14 858.366 348.5 858.826 349.02C859.306 349.52 859.666 350.21 859.906 351.09C860.146 351.95 860.266 353.05 860.266 354.39V363H857.926V354.84C857.926 353.18 857.656 351.93 857.116 351.09C856.576 350.25 855.596 349.83 854.176 349.83C853.656 349.83 853.146 349.94 852.646 350.16C852.166 350.36 851.726 350.63 851.326 350.97C850.926 351.31 850.576 351.71 850.276 352.17C849.976 352.61 849.756 353.08 849.616 353.58V363H847.306V353.25ZM864.994 362.01L863.854 360.21L875.794 353.28L863.884 346.23L865.024 344.37L879.154 352.98V353.85L864.994 362.01Z" fill="#007BFF"/>
<rect x="976" y="736" width="319" height="275" rx="49" transform="rotate(-90 976 736)" stroke="#007BFF" stroke-width="2"/>
<path d="M1051.39 499.85V498.98L1065.52 490.37L1066.66 492.23L1054.75 499.28L1066.69 506.21L1065.55 508.01L1051.39 499.85ZM1068.96 494H1072.53V491.03L1074.87 490.37V494H1082.88V496.01H1074.87V503.09C1074.87 504.55 1075.22 505.63 1075.92 506.33C1076.64 507.03 1077.66 507.38 1078.98 507.38C1079.88 507.38 1080.66 507.21 1081.32 506.87C1082 506.53 1082.61 506.16 1083.15 505.76L1083.93 507.53C1083.23 508.09 1082.39 508.54 1081.41 508.88C1080.45 509.22 1079.46 509.39 1078.44 509.39C1077.64 509.39 1076.88 509.27 1076.16 509.03C1075.46 508.81 1074.84 508.46 1074.3 507.98C1073.76 507.5 1073.33 506.89 1073.01 506.15C1072.69 505.39 1072.53 504.49 1072.53 503.45V496.01H1068.96V494ZM1088.66 509V506.99H1092.23V496.01H1088.66V494H1092.23V493.16C1092.23 491.28 1092.72 489.92 1093.7 489.08C1094.68 488.24 1096.08 487.82 1097.9 487.82C1098.56 487.82 1099.15 487.86 1099.67 487.94C1100.19 488.02 1100.75 488.18 1101.35 488.42L1100.81 490.37C1100.29 490.15 1099.79 490.01 1099.31 489.95C1098.83 489.87 1098.39 489.83 1097.99 489.83C1096.67 489.83 1095.77 490.16 1095.29 490.82C1094.81 491.46 1094.57 492.52 1094.57 494H1100.78V496.01H1094.57V506.99H1100.78V509H1088.66ZM1105.72 501.5C1105.72 499.08 1106.35 497.17 1107.61 495.77C1108.87 494.35 1110.67 493.64 1113.01 493.64C1114.27 493.64 1115.35 493.85 1116.25 494.27C1117.17 494.67 1117.93 495.22 1118.53 495.92C1119.13 496.62 1119.57 497.45 1119.85 498.41C1120.15 499.37 1120.3 500.4 1120.3 501.5C1120.3 502.7 1120.14 503.79 1119.82 504.77C1119.5 505.73 1119.03 506.55 1118.41 507.23C1117.79 507.91 1117.02 508.44 1116.1 508.82C1115.2 509.18 1114.17 509.36 1113.01 509.36C1111.77 509.36 1110.69 509.16 1109.77 508.76C1108.85 508.34 1108.09 507.78 1107.49 507.08C1106.89 506.38 1106.44 505.55 1106.14 504.59C1105.86 503.63 1105.72 502.6 1105.72 501.5ZM1108.21 501.5C1108.21 502.2 1108.29 502.9 1108.45 503.6C1108.63 504.3 1108.91 504.93 1109.29 505.49C1109.67 506.05 1110.16 506.5 1110.76 506.84C1111.38 507.18 1112.13 507.35 1113.01 507.35C1114.61 507.35 1115.81 506.86 1116.61 505.88C1117.43 504.88 1117.84 503.42 1117.84 501.5C1117.84 500.78 1117.75 500.08 1117.57 499.4C1117.41 498.7 1117.13 498.07 1116.73 497.51C1116.35 496.95 1115.85 496.5 1115.23 496.16C1114.63 495.82 1113.89 495.65 1113.01 495.65C1111.41 495.65 1110.21 496.14 1109.41 497.12C1108.61 498.1 1108.21 499.56 1108.21 501.5ZM1123.7 501.5C1123.7 499.08 1124.33 497.17 1125.59 495.77C1126.85 494.35 1128.65 493.64 1130.99 493.64C1132.25 493.64 1133.33 493.85 1134.23 494.27C1135.15 494.67 1135.91 495.22 1136.51 495.92C1137.11 496.62 1137.55 497.45 1137.83 498.41C1138.13 499.37 1138.28 500.4 1138.28 501.5C1138.28 502.7 1138.12 503.79 1137.8 504.77C1137.48 505.73 1137.01 506.55 1136.39 507.23C1135.77 507.91 1135 508.44 1134.08 508.82C1133.18 509.18 1132.15 509.36 1130.99 509.36C1129.75 509.36 1128.67 509.16 1127.75 508.76C1126.83 508.34 1126.07 507.78 1125.47 507.08C1124.87 506.38 1124.42 505.55 1124.12 504.59C1123.84 503.63 1123.7 502.6 1123.7 501.5ZM1126.19 501.5C1126.19 502.2 1126.27 502.9 1126.43 503.6C1126.61 504.3 1126.89 504.93 1127.27 505.49C1127.65 506.05 1128.14 506.5 1128.74 506.84C1129.36 507.18 1130.11 507.35 1130.99 507.35C1132.59 507.35 1133.79 506.86 1134.59 505.88C1135.41 504.88 1135.82 503.42 1135.82 501.5C1135.82 500.78 1135.73 500.08 1135.55 499.4C1135.39 498.7 1135.11 498.07 1134.71 497.51C1134.33 496.95 1133.83 496.5 1133.21 496.16C1132.61 495.82 1131.87 495.65 1130.99 495.65C1129.39 495.65 1128.19 496.14 1127.39 497.12C1126.59 498.1 1126.19 499.56 1126.19 501.5ZM1140.91 494H1144.48V491.03L1146.82 490.37V494H1154.83V496.01H1146.82V503.09C1146.82 504.55 1147.17 505.63 1147.87 506.33C1148.59 507.03 1149.61 507.38 1150.93 507.38C1151.83 507.38 1152.61 507.21 1153.27 506.87C1153.95 506.53 1154.56 506.16 1155.1 505.76L1155.88 507.53C1155.18 508.09 1154.34 508.54 1153.36 508.88C1152.4 509.22 1151.41 509.39 1150.39 509.39C1149.59 509.39 1148.83 509.27 1148.11 509.03C1147.41 508.81 1146.79 508.46 1146.25 507.98C1145.71 507.5 1145.28 506.89 1144.96 506.15C1144.64 505.39 1144.48 504.49 1144.48 503.45V496.01H1140.91V494ZM1160.46 508.01L1159.32 506.21L1171.26 499.28L1159.35 492.23L1160.49 490.37L1174.62 498.98V499.85L1160.46 508.01Z" fill="#007BFF"/>
<path d="M1081.64 603.58L1081.73 601.6H1081.64L1073.21 613H1071.08V598H1073.42V607.69L1073.33 609.58H1073.45L1081.82 598H1083.98V613H1081.64V603.58ZM1088.08 598H1102.96V603.61H1100.92V600.04H1096.69V610.99H1100.32V613H1090.6V610.99H1094.35V600.04H1090.12V603.61H1088.08V598ZM1106.22 605.5C1106.22 603.08 1106.85 601.17 1108.11 599.77C1109.37 598.35 1111.17 597.64 1113.51 597.64C1114.77 597.64 1115.85 597.85 1116.75 598.27C1117.67 598.67 1118.43 599.22 1119.03 599.92C1119.63 600.62 1120.07 601.45 1120.35 602.41C1120.65 603.37 1120.8 604.4 1120.8 605.5C1120.8 606.7 1120.64 607.79 1120.32 608.77C1120 609.73 1119.53 610.55 1118.91 611.23C1118.29 611.91 1117.52 612.44 1116.6 612.82C1115.7 613.18 1114.67 613.36 1113.51 613.36C1112.27 613.36 1111.19 613.16 1110.27 612.76C1109.35 612.34 1108.59 611.78 1107.99 611.08C1107.39 610.38 1106.94 609.55 1106.64 608.59C1106.36 607.63 1106.22 606.6 1106.22 605.5ZM1108.71 605.5C1108.71 606.2 1108.79 606.9 1108.95 607.6C1109.13 608.3 1109.41 608.93 1109.79 609.49C1110.17 610.05 1110.66 610.5 1111.26 610.84C1111.88 611.18 1112.63 611.35 1113.51 611.35C1115.11 611.35 1116.31 610.86 1117.11 609.88C1117.93 608.88 1118.34 607.42 1118.34 605.5C1118.34 604.78 1118.25 604.08 1118.07 603.4C1117.91 602.7 1117.63 602.07 1117.23 601.51C1116.85 600.95 1116.35 600.5 1115.73 600.16C1115.13 599.82 1114.39 599.65 1113.51 599.65C1111.91 599.65 1110.71 600.14 1109.91 601.12C1109.11 602.1 1108.71 603.56 1108.71 605.5ZM1125.55 613V610.99H1127.47V600.04H1125.55V598H1137.67V603.61H1135.63V600.04H1129.81V610.99H1134.37V613H1125.55ZM1153.59 603.58L1153.68 601.6H1153.59L1145.16 613H1143.03V598H1145.37V607.69L1145.28 609.58H1145.4L1153.77 598H1155.93V613H1153.59V603.58ZM1026.44 637.25C1026.44 637.07 1026.43 636.84 1026.41 636.56C1026.41 636.26 1026.4 635.96 1026.38 635.66C1026.36 635.34 1026.33 635.03 1026.29 634.73C1026.27 634.43 1026.24 634.17 1026.2 633.95H1024.19V632H1028.18L1028.48 634.1H1028.63C1029.17 633.4 1029.85 632.82 1030.67 632.36C1031.51 631.88 1032.53 631.64 1033.73 631.64C1035.87 631.64 1037.48 632.23 1038.56 633.41C1039.64 634.59 1040.18 636.52 1040.18 639.2C1040.18 640.46 1039.99 641.6 1039.61 642.62C1039.25 643.62 1038.73 644.47 1038.05 645.17C1037.37 645.87 1036.55 646.41 1035.59 646.79C1034.63 647.17 1033.57 647.36 1032.41 647.36C1031.99 647.36 1031.61 647.34 1031.27 647.3C1030.95 647.28 1030.65 647.24 1030.37 647.18C1030.11 647.14 1029.85 647.08 1029.59 647C1029.33 646.92 1029.05 646.82 1028.75 646.7V653H1026.44V637.25ZM1033.34 633.83C1032.74 633.83 1032.17 633.94 1031.63 634.16C1031.11 634.38 1030.64 634.67 1030.22 635.03C1029.82 635.39 1029.49 635.79 1029.23 636.23C1028.97 636.67 1028.81 637.11 1028.75 637.55V644.39C1029.19 644.69 1029.68 644.93 1030.22 645.11C1030.78 645.27 1031.51 645.35 1032.41 645.35C1034.01 645.35 1035.29 644.83 1036.25 643.79C1037.21 642.73 1037.69 641.19 1037.69 639.17C1037.69 637.47 1037.35 636.16 1036.67 635.24C1036.01 634.3 1034.9 633.83 1033.34 633.83ZM1057.42 645.11C1057.06 645.43 1056.63 645.73 1056.13 646.01C1055.65 646.29 1055.12 646.53 1054.54 646.73C1053.96 646.93 1053.35 647.08 1052.71 647.18C1052.09 647.3 1051.46 647.36 1050.82 647.36C1049.62 647.36 1048.56 647.18 1047.64 646.82C1046.72 646.44 1045.95 645.91 1045.33 645.23C1044.71 644.53 1044.24 643.7 1043.92 642.74C1043.6 641.78 1043.44 640.7 1043.44 639.5C1043.44 638.24 1043.61 637.12 1043.95 636.14C1044.31 635.16 1044.82 634.34 1045.48 633.68C1046.14 633.02 1046.94 632.52 1047.88 632.18C1048.82 631.82 1049.87 631.64 1051.03 631.64C1051.87 631.64 1052.7 631.75 1053.52 631.97C1054.34 632.19 1055.06 632.61 1055.68 633.23C1056.32 633.83 1056.81 634.67 1057.15 635.75C1057.49 636.81 1057.61 638.19 1057.51 639.89H1045.9C1045.9 641.69 1046.38 643.04 1047.34 643.94C1048.32 644.82 1049.62 645.26 1051.24 645.26C1051.78 645.26 1052.31 645.2 1052.83 645.08C1053.37 644.94 1053.88 644.78 1054.36 644.6C1054.84 644.42 1055.26 644.22 1055.62 644C1056 643.78 1056.29 643.58 1056.49 643.4L1057.42 645.11ZM1051.09 633.62C1050.43 633.62 1049.8 633.69 1049.2 633.83C1048.62 633.97 1048.1 634.21 1047.64 634.55C1047.2 634.87 1046.83 635.3 1046.53 635.84C1046.25 636.36 1046.07 637.01 1045.99 637.79H1055.32C1055.22 636.47 1054.79 635.45 1054.03 634.73C1053.29 633.99 1052.31 633.62 1051.09 633.62ZM1062.75 633.41L1062.72 633.32C1063.06 633.12 1063.42 632.93 1063.8 632.75C1064.2 632.55 1064.64 632.38 1065.12 632.24C1065.62 632.08 1066.18 631.95 1066.8 631.85C1067.42 631.75 1068.13 631.7 1068.93 631.7C1069.75 631.7 1070.51 631.79 1071.21 631.97C1071.91 632.13 1072.52 632.37 1073.04 632.69C1073.56 633.01 1073.96 633.41 1074.24 633.89C1074.54 634.35 1074.69 634.88 1074.69 635.48C1074.69 635.8 1074.62 636.14 1074.48 636.5C1074.36 636.84 1074.17 637.17 1073.91 637.49C1073.65 637.81 1073.34 638.1 1072.98 638.36C1072.62 638.62 1072.21 638.82 1071.75 638.96V639.08C1073.07 639.3 1073.99 639.72 1074.51 640.34C1075.05 640.96 1075.32 641.78 1075.32 642.8C1075.32 643.44 1075.17 644.03 1074.87 644.57C1074.57 645.11 1074.12 645.58 1073.52 645.98C1072.94 646.38 1072.21 646.7 1071.33 646.94C1070.47 647.16 1069.46 647.27 1068.3 647.27C1067.44 647.27 1066.66 647.19 1065.96 647.03C1065.26 646.87 1064.64 646.67 1064.1 646.43C1063.58 646.19 1063.13 645.93 1062.75 645.65C1062.39 645.37 1062.11 645.11 1061.91 644.87L1063.11 642.98C1063.33 643.22 1063.6 643.48 1063.92 643.76C1064.24 644.02 1064.63 644.26 1065.09 644.48C1065.57 644.7 1066.11 644.89 1066.71 645.05C1067.33 645.19 1068.04 645.26 1068.84 645.26C1069.4 645.26 1069.92 645.21 1070.4 645.11C1070.9 644.99 1071.33 644.83 1071.69 644.63C1072.07 644.41 1072.37 644.14 1072.59 643.82C1072.81 643.48 1072.92 643.09 1072.92 642.65C1072.92 641.89 1072.57 641.31 1071.87 640.91C1071.19 640.51 1070.06 640.31 1068.48 640.31H1066.77V638.36H1068.9C1069.3 638.36 1069.7 638.3 1070.1 638.18C1070.5 638.04 1070.86 637.87 1071.18 637.67C1071.5 637.45 1071.76 637.2 1071.96 636.92C1072.16 636.62 1072.26 636.31 1072.26 635.99C1072.26 635.59 1072.16 635.25 1071.96 634.97C1071.76 634.67 1071.48 634.43 1071.12 634.25C1070.78 634.07 1070.37 633.94 1069.89 633.86C1069.43 633.76 1068.94 633.71 1068.42 633.71C1067.62 633.71 1066.92 633.79 1066.32 633.95C1065.72 634.09 1065.21 634.27 1064.79 634.49V636.98H1062.75V633.41ZM1086.85 644.69H1087.99L1091.71 632H1094.14L1089.97 645.47C1089.75 646.17 1089.52 646.96 1089.28 647.84C1089.06 648.74 1088.74 649.58 1088.32 650.36C1087.9 651.14 1087.33 651.8 1086.61 652.34C1085.89 652.88 1084.95 653.15 1083.79 653.15C1083.53 653.15 1083.25 653.12 1082.95 653.06C1082.67 653 1082.39 652.92 1082.11 652.82C1081.83 652.74 1081.57 652.64 1081.33 652.52C1081.09 652.4 1080.91 652.28 1080.79 652.16L1081.63 650C1081.75 650.1 1081.91 650.2 1082.11 650.3C1082.33 650.4 1082.56 650.48 1082.8 650.54C1083.06 650.62 1083.31 650.68 1083.55 650.72C1083.79 650.78 1083.99 650.81 1084.15 650.81C1085.65 650.81 1086.67 649.54 1087.21 647H1085.2L1078.9 632H1081.6L1086.85 644.69ZM1108.29 634.04H1103.1C1103.02 635.86 1102.92 637.57 1102.8 639.17C1102.68 640.75 1102.45 642.13 1102.11 643.31C1101.79 644.49 1101.32 645.42 1100.7 646.1C1100.1 646.78 1099.28 647.12 1098.24 647.12C1097.84 647.12 1097.55 647.1 1097.37 647.06C1097.19 647.02 1096.97 646.95 1096.71 646.85L1097.1 644.63C1097.48 644.73 1097.83 644.78 1098.15 644.78C1098.49 644.78 1098.79 644.66 1099.05 644.42C1099.31 644.18 1099.54 643.8 1099.74 643.28C1099.96 642.74 1100.14 641.99 1100.28 641.03C1100.44 640.05 1100.57 638.83 1100.67 637.37C1100.77 635.89 1100.85 634.1 1100.91 632H1110.63V647H1108.29V634.04ZM1119.17 644.93C1119.39 644.97 1119.65 645 1119.95 645.02C1120.27 645.04 1120.59 645.07 1120.91 645.11C1121.23 645.13 1121.54 645.15 1121.84 645.17C1122.14 645.17 1122.38 645.17 1122.56 645.17C1124.06 645.17 1125.16 644.91 1125.86 644.39C1126.56 643.85 1126.91 643.15 1126.91 642.29C1126.91 641.53 1126.57 640.88 1125.89 640.34C1125.21 639.8 1124.14 639.53 1122.68 639.53C1122.02 639.53 1121.37 639.54 1120.73 639.56C1120.11 639.58 1119.59 639.64 1119.17 639.74V644.93ZM1119.17 637.79C1119.71 637.71 1120.28 637.66 1120.88 637.64C1121.5 637.6 1122.21 637.58 1123.01 637.58C1124.17 637.58 1125.15 637.7 1125.95 637.94C1126.77 638.16 1127.43 638.47 1127.93 638.87C1128.45 639.27 1128.82 639.74 1129.04 640.28C1129.28 640.8 1129.4 641.37 1129.4 641.99C1129.4 643.81 1128.78 645.13 1127.54 645.95C1126.32 646.77 1124.45 647.18 1121.93 647.18C1121.61 647.18 1121.23 647.17 1120.79 647.15C1120.37 647.13 1119.93 647.1 1119.47 647.06C1119.03 647.04 1118.58 647.02 1118.12 647C1117.66 646.96 1117.24 646.92 1116.86 646.88V632H1119.17V637.79ZM1133.05 632H1147.93V637.61H1145.89V634.04H1141.66V644.99H1145.29V647H1135.57V644.99H1139.32V634.04H1135.09V637.61H1133.05V632ZM1152.72 633.17C1153.58 632.67 1154.55 632.31 1155.63 632.09C1156.71 631.87 1157.77 631.76 1158.81 631.76C1159.83 631.76 1160.66 631.92 1161.3 632.24C1161.96 632.56 1162.47 632.98 1162.83 633.5C1163.21 634 1163.46 634.58 1163.58 635.24C1163.72 635.88 1163.79 636.53 1163.79 637.19C1163.79 637.95 1163.77 638.76 1163.73 639.62C1163.69 640.48 1163.66 641.34 1163.64 642.2C1163.64 643.2 1163.7 644.15 1163.82 645.05H1165.83V647H1161.84L1161.57 644.75H1161.42C1161.3 644.93 1161.12 645.16 1160.88 645.44C1160.64 645.72 1160.32 646 1159.92 646.28C1159.54 646.54 1159.07 646.77 1158.51 646.97C1157.95 647.17 1157.29 647.27 1156.53 647.27C1155.05 647.27 1153.88 646.89 1153.02 646.13C1152.16 645.37 1151.73 644.33 1151.73 643.01C1151.73 641.99 1151.95 641.14 1152.39 640.46C1152.85 639.78 1153.5 639.26 1154.34 638.9C1155.18 638.54 1156.19 638.33 1157.37 638.27C1158.57 638.21 1159.91 638.29 1161.39 638.51C1161.49 637.59 1161.5 636.83 1161.42 636.23C1161.36 635.61 1161.2 635.12 1160.94 634.76C1160.7 634.4 1160.35 634.15 1159.89 634.01C1159.45 633.85 1158.9 633.77 1158.24 633.77C1157.34 633.77 1156.48 633.9 1155.66 634.16C1154.84 634.4 1154.11 634.65 1153.47 634.91L1152.72 633.17ZM1157.13 645.26C1157.69 645.26 1158.21 645.17 1158.69 644.99C1159.17 644.81 1159.59 644.58 1159.95 644.3C1160.31 644.02 1160.61 643.72 1160.85 643.4C1161.09 643.06 1161.27 642.74 1161.39 642.44V640.34C1160.35 640.16 1159.39 640.07 1158.51 640.07C1157.63 640.07 1156.87 640.17 1156.23 640.37C1155.59 640.55 1155.09 640.84 1154.73 641.24C1154.37 641.64 1154.19 642.16 1154.19 642.8C1154.19 643.46 1154.41 644.04 1154.85 644.54C1155.31 645.02 1156.07 645.26 1157.13 645.26ZM1169.02 632H1183.9V637.61H1181.86V634.04H1177.63V644.99H1181.26V647H1171.54V644.99H1175.29V634.04H1171.06V637.61H1169.02V632ZM1189.26 644.9C1190 645.02 1190.71 645.08 1191.39 645.08C1192.65 645.08 1193.53 644.84 1194.03 644.36C1194.53 643.86 1194.78 643.16 1194.78 642.26C1194.78 641.46 1194.53 640.8 1194.03 640.28C1193.55 639.76 1192.7 639.5 1191.48 639.5C1191.14 639.5 1190.77 639.51 1190.37 639.53C1189.97 639.55 1189.6 639.61 1189.26 639.71V644.9ZM1189.26 637.73C1189.74 637.65 1190.2 637.6 1190.64 637.58C1191.08 637.54 1191.5 637.52 1191.9 637.52C1192.92 637.52 1193.77 637.64 1194.45 637.88C1195.15 638.1 1195.71 638.41 1196.13 638.81C1196.55 639.21 1196.84 639.69 1197 640.25C1197.18 640.79 1197.27 641.37 1197.27 641.99C1197.27 643.81 1196.76 645.13 1195.74 645.95C1194.74 646.77 1193.11 647.18 1190.85 647.18C1189.57 647.18 1188.24 647.12 1186.86 647V632H1189.26V637.73ZM1199.64 632H1202.04V647H1199.64V632ZM1081.7 668.31C1081.24 668.15 1080.74 668.02 1080.2 667.92C1079.68 667.8 1079.16 667.74 1078.64 667.74C1076.68 667.74 1075.22 668.2 1074.26 669.12C1073.3 670.04 1072.82 671.5 1072.82 673.5C1072.82 674.38 1072.96 675.17 1073.24 675.87C1073.52 676.55 1073.92 677.13 1074.44 677.61C1074.96 678.09 1075.58 678.46 1076.3 678.72C1077.04 678.98 1077.85 679.11 1078.73 679.11C1079.67 679.11 1080.58 678.95 1081.46 678.63C1082.36 678.31 1083.11 677.89 1083.71 677.37L1084.76 679.11C1084.48 679.35 1084.13 679.6 1083.71 679.86C1083.29 680.12 1082.8 680.37 1082.24 680.61C1081.7 680.83 1081.09 681.01 1080.41 681.15C1079.75 681.29 1079.03 681.36 1078.25 681.36C1076.95 681.36 1075.8 681.18 1074.8 680.82C1073.82 680.44 1073 679.91 1072.34 679.23C1071.68 678.53 1071.18 677.7 1070.84 676.74C1070.5 675.76 1070.33 674.68 1070.33 673.5C1070.33 672.24 1070.5 671.12 1070.84 670.14C1071.2 669.16 1071.71 668.34 1072.37 667.68C1073.03 667.02 1073.83 666.52 1074.77 666.18C1075.71 665.82 1076.76 665.64 1077.92 665.64C1079.4 665.64 1080.6 665.77 1081.52 666.03C1082.46 666.29 1083.25 666.58 1083.89 666.9L1083.86 666.99V671.16H1081.7V668.31ZM1095.85 678.69H1096.99L1100.71 666H1103.14L1098.97 679.47C1098.75 680.17 1098.52 680.96 1098.28 681.84C1098.06 682.74 1097.74 683.58 1097.32 684.36C1096.9 685.14 1096.33 685.8 1095.61 686.34C1094.89 686.88 1093.95 687.15 1092.79 687.15C1092.53 687.15 1092.25 687.12 1091.95 687.06C1091.67 687 1091.39 686.92 1091.11 686.82C1090.83 686.74 1090.57 686.64 1090.33 686.52C1090.09 686.4 1089.91 686.28 1089.79 686.16L1090.63 684C1090.75 684.1 1090.91 684.2 1091.11 684.3C1091.33 684.4 1091.56 684.48 1091.8 684.54C1092.06 684.62 1092.31 684.68 1092.55 684.72C1092.79 684.78 1092.99 684.81 1093.15 684.81C1094.65 684.81 1095.67 683.54 1096.21 681H1094.2L1087.9 666H1090.6L1095.85 678.69ZM1118.25 672.09L1118.31 669.96H1118.16L1113.84 676.83H1113L1108.62 669.96H1108.5L1108.65 672.06V681H1106.43V666H1108.8L1113.57 673.53H1113.63L1118.19 666H1120.59V681H1118.25V672.09ZM1136.23 672.09L1136.29 669.96H1136.14L1131.82 676.83H1130.98L1126.6 669.96H1126.48L1126.63 672.06V681H1124.41V666H1126.78L1131.55 673.53H1131.61L1136.17 666H1138.57V681H1136.23V672.09ZM1144.29 678.9C1145.03 679.02 1145.74 679.08 1146.42 679.08C1147.68 679.08 1148.56 678.84 1149.06 678.36C1149.56 677.86 1149.81 677.16 1149.81 676.26C1149.81 675.46 1149.56 674.8 1149.06 674.28C1148.58 673.76 1147.73 673.5 1146.51 673.5C1146.17 673.5 1145.8 673.51 1145.4 673.53C1145 673.55 1144.63 673.61 1144.29 673.71V678.9ZM1144.29 671.73C1144.77 671.65 1145.23 671.6 1145.67 671.58C1146.11 671.54 1146.53 671.52 1146.93 671.52C1147.95 671.52 1148.8 671.64 1149.48 671.88C1150.18 672.1 1150.74 672.41 1151.16 672.81C1151.58 673.21 1151.87 673.69 1152.03 674.25C1152.21 674.79 1152.3 675.37 1152.3 675.99C1152.3 677.81 1151.79 679.13 1150.77 679.95C1149.77 680.77 1148.14 681.18 1145.88 681.18C1144.6 681.18 1143.27 681.12 1141.89 681V666H1144.29V671.73ZM1154.67 666H1157.07V681H1154.67V666Z" fill="#007BFF"/>
<rect x="662" y="736" width="319" height="275" rx="49" transform="rotate(-90 662 736)" fill="#007BFF" stroke="white" stroke-width="2"/>
<path d="M737.391 499.85V498.98L751.521 490.37L752.661 492.23L740.751 499.28L752.691 506.21L751.551 508.01L737.391 499.85ZM754.959 494H758.529V491.03L760.869 490.37V494H768.879V496.01H760.869V503.09C760.869 504.55 761.219 505.63 761.919 506.33C762.639 507.03 763.659 507.38 764.979 507.38C765.879 507.38 766.659 507.21 767.319 506.87C767.999 506.53 768.609 506.16 769.149 505.76L769.929 507.53C769.229 508.09 768.389 508.54 767.409 508.88C766.449 509.22 765.459 509.39 764.439 509.39C763.639 509.39 762.879 509.27 762.159 509.03C761.459 508.81 760.839 508.46 760.299 507.98C759.759 507.5 759.329 506.89 759.009 506.15C758.689 505.39 758.529 504.49 758.529 503.45V496.01H754.959V494ZM772.078 488H776.878V495.71H777.028C777.548 495.05 778.218 494.54 779.038 494.18C779.858 493.82 780.748 493.64 781.708 493.64C786.108 493.64 788.308 496.18 788.308 501.26C788.308 503.84 787.598 505.82 786.178 507.2C784.758 508.56 782.738 509.24 780.118 509.24C778.878 509.24 777.758 509.12 776.758 508.88C775.758 508.64 775.028 508.36 774.568 508.04V490.01H772.078V488ZM781.408 495.65C780.208 495.65 779.238 495.99 778.498 496.67C777.758 497.35 777.218 498.31 776.878 499.55V506.45C777.338 506.69 777.888 506.88 778.528 507.02C779.168 507.16 779.838 507.23 780.538 507.23C781.338 507.23 782.058 507.12 782.698 506.9C783.358 506.66 783.918 506.3 784.378 505.82C784.838 505.32 785.188 504.69 785.428 503.93C785.688 503.17 785.818 502.27 785.818 501.23C785.818 500.47 785.738 499.75 785.578 499.07C785.418 498.39 785.158 497.8 784.798 497.3C784.458 496.78 784.008 496.38 783.448 496.1C782.888 495.8 782.208 495.65 781.408 495.65ZM791.716 501.5C791.716 499.08 792.346 497.17 793.606 495.77C794.866 494.35 796.666 493.64 799.006 493.64C800.266 493.64 801.346 493.85 802.246 494.27C803.166 494.67 803.926 495.22 804.526 495.92C805.126 496.62 805.566 497.45 805.846 498.41C806.146 499.37 806.296 500.4 806.296 501.5C806.296 502.7 806.136 503.79 805.816 504.77C805.496 505.73 805.026 506.55 804.406 507.23C803.786 507.91 803.016 508.44 802.096 508.82C801.196 509.18 800.166 509.36 799.006 509.36C797.766 509.36 796.686 509.16 795.766 508.76C794.846 508.34 794.086 507.78 793.486 507.08C792.886 506.38 792.436 505.55 792.136 504.59C791.856 503.63 791.716 502.6 791.716 501.5ZM794.206 501.5C794.206 502.2 794.286 502.9 794.446 503.6C794.626 504.3 794.906 504.93 795.286 505.49C795.666 506.05 796.156 506.5 796.756 506.84C797.376 507.18 798.126 507.35 799.006 507.35C800.606 507.35 801.806 506.86 802.606 505.88C803.426 504.88 803.836 503.42 803.836 501.5C803.836 500.78 803.746 500.08 803.566 499.4C803.406 498.7 803.126 498.07 802.726 497.51C802.346 496.95 801.846 496.5 801.226 496.16C800.626 495.82 799.886 495.65 799.006 495.65C797.406 495.65 796.206 496.14 795.406 497.12C794.606 498.1 794.206 499.56 794.206 501.5ZM818.464 488H823.324V503.87C823.324 504.05 823.334 504.28 823.354 504.56C823.374 504.82 823.394 505.1 823.414 505.4C823.454 505.7 823.494 506 823.534 506.3C823.574 506.58 823.614 506.83 823.654 507.05H825.664V509H821.674L821.374 506.69H821.254C820.814 507.45 820.154 508.09 819.274 508.61C818.414 509.11 817.414 509.36 816.274 509.36C814.014 509.36 812.344 508.73 811.264 507.47C810.204 506.19 809.674 504.21 809.674 501.53C809.674 500.27 809.854 499.16 810.214 498.2C810.574 497.22 811.084 496.41 811.744 495.77C812.424 495.11 813.234 494.61 814.174 494.27C815.114 493.93 816.164 493.76 817.324 493.76C817.744 493.76 818.114 493.77 818.434 493.79C818.774 493.81 819.084 493.84 819.364 493.88C819.644 493.92 819.904 493.98 820.144 494.06C820.404 494.12 820.684 494.19 820.984 494.27V490.01H818.464V488ZM816.664 507.35C817.884 507.35 818.844 507.04 819.544 506.42C820.244 505.78 820.724 504.83 820.984 503.57V496.61C820.544 496.31 820.044 496.09 819.484 495.95C818.944 495.81 818.224 495.74 817.324 495.74C815.724 495.74 814.464 496.21 813.544 497.15C812.624 498.07 812.164 499.53 812.164 501.53C812.164 502.35 812.234 503.12 812.374 503.84C812.534 504.54 812.784 505.15 813.124 505.67C813.484 506.19 813.954 506.6 814.534 506.9C815.114 507.2 815.824 507.35 816.664 507.35ZM835.312 506.69H836.452L840.172 494H842.602L838.432 507.47C838.212 508.17 837.982 508.96 837.742 509.84C837.522 510.74 837.202 511.58 836.782 512.36C836.362 513.14 835.792 513.8 835.072 514.34C834.352 514.88 833.412 515.15 832.252 515.15C831.992 515.15 831.712 515.12 831.412 515.06C831.132 515 830.852 514.92 830.572 514.82C830.292 514.74 830.032 514.64 829.792 514.52C829.552 514.4 829.372 514.28 829.252 514.16L830.092 512C830.212 512.1 830.372 512.2 830.572 512.3C830.792 512.4 831.022 512.48 831.262 512.54C831.522 512.62 831.772 512.68 832.012 512.72C832.252 512.78 832.452 512.81 832.612 512.81C834.112 512.81 835.132 511.54 835.672 509H833.662L827.362 494H830.062L835.312 506.69ZM846.461 508.01L845.321 506.21L857.261 499.28L845.351 492.23L846.491 490.37L860.621 498.98V499.85L846.461 508.01Z" fill="white"/>
<path d="M743.771 612.22H742.121V619H739.811V604H742.121V610.42H743.771L749.681 604H752.501L745.871 611.11L751.331 616.99H753.281V619H750.191L743.771 612.22ZM756.239 611.5C756.239 609.08 756.869 607.17 758.129 605.77C759.389 604.35 761.189 603.64 763.529 603.64C764.789 603.64 765.869 603.85 766.769 604.27C767.689 604.67 768.449 605.22 769.049 605.92C769.649 606.62 770.089 607.45 770.369 608.41C770.669 609.37 770.819 610.4 770.819 611.5C770.819 612.7 770.659 613.79 770.339 614.77C770.019 615.73 769.549 616.55 768.929 617.23C768.309 617.91 767.539 618.44 766.619 618.82C765.719 619.18 764.689 619.36 763.529 619.36C762.289 619.36 761.209 619.16 760.289 618.76C759.369 618.34 758.609 617.78 758.009 617.08C757.409 616.38 756.959 615.55 756.659 614.59C756.379 613.63 756.239 612.6 756.239 611.5ZM758.729 611.5C758.729 612.2 758.809 612.9 758.969 613.6C759.149 614.3 759.429 614.93 759.809 615.49C760.189 616.05 760.679 616.5 761.279 616.84C761.899 617.18 762.649 617.35 763.529 617.35C765.129 617.35 766.329 616.86 767.129 615.88C767.949 614.88 768.359 613.42 768.359 611.5C768.359 610.78 768.269 610.08 768.089 609.4C767.929 608.7 767.649 608.07 767.249 607.51C766.869 606.95 766.369 606.5 765.749 606.16C765.149 605.82 764.409 605.65 763.529 605.65C761.929 605.65 760.729 606.14 759.929 607.12C759.129 608.1 758.729 609.56 758.729 611.5ZM785.538 612.34H777.468V619H775.158V604H777.468V610.24H785.538V604H787.878V619H785.538V612.34ZM792.066 604H806.946V609.61H804.906V606.04H800.676V616.99H804.306V619H794.586V616.99H798.336V606.04H794.106V609.61H792.066V604ZM824.364 617.11C824.004 617.43 823.574 617.73 823.074 618.01C822.594 618.29 822.064 618.53 821.484 618.73C820.904 618.93 820.294 619.08 819.654 619.18C819.034 619.3 818.404 619.36 817.764 619.36C816.564 619.36 815.504 619.18 814.584 618.82C813.664 618.44 812.894 617.91 812.274 617.23C811.654 616.53 811.184 615.7 810.864 614.74C810.544 613.78 810.384 612.7 810.384 611.5C810.384 610.24 810.554 609.12 810.894 608.14C811.254 607.16 811.764 606.34 812.424 605.68C813.084 605.02 813.884 604.52 814.824 604.18C815.764 603.82 816.814 603.64 817.974 603.64C818.814 603.64 819.644 603.75 820.464 603.97C821.284 604.19 822.004 604.61 822.624 605.23C823.264 605.83 823.754 606.67 824.094 607.75C824.434 608.81 824.554 610.19 824.454 611.89H812.844C812.844 613.69 813.324 615.04 814.284 615.94C815.264 616.82 816.564 617.26 818.184 617.26C818.724 617.26 819.254 617.2 819.774 617.08C820.314 616.94 820.824 616.78 821.304 616.6C821.784 616.42 822.204 616.22 822.564 616C822.944 615.78 823.234 615.58 823.434 615.4L824.364 617.11ZM818.034 605.62C817.374 605.62 816.744 605.69 816.144 605.83C815.564 605.97 815.044 606.21 814.584 606.55C814.144 606.87 813.774 607.3 813.474 607.84C813.194 608.36 813.014 609.01 812.934 609.79H822.264C822.164 608.47 821.734 607.45 820.974 606.73C820.234 605.99 819.254 605.62 818.034 605.62ZM839.502 612.34H831.432V619H829.122V604H831.432V610.24H839.502V604H841.842V619H839.502V612.34ZM846.031 604H860.911V609.61H858.871V606.04H854.641V616.99H858.271V619H848.551V616.99H852.301V606.04H848.071V609.61H846.031V604ZM762.515 656.6H760.475V653H748.415V656.6H746.375V650.96H748.055C748.235 650.74 748.475 650.35 748.775 649.79C749.075 649.21 749.365 648.41 749.645 647.39C749.925 646.35 750.175 645.07 750.395 643.55C750.615 642.01 750.745 640.16 750.785 638H760.205V650.96H762.515V656.6ZM757.865 650.99V640.01H752.915C752.875 640.87 752.795 641.8 752.675 642.8C752.575 643.8 752.425 644.8 752.225 645.8C752.025 646.78 751.775 647.72 751.475 648.62C751.195 649.52 750.865 650.31 750.485 650.99H757.865ZM766.763 639.17C767.623 638.67 768.593 638.31 769.673 638.09C770.753 637.87 771.813 637.76 772.853 637.76C773.873 637.76 774.703 637.92 775.343 638.24C776.003 638.56 776.513 638.98 776.873 639.5C777.253 640 777.503 640.58 777.623 641.24C777.763 641.88 777.833 642.53 777.833 643.19C777.833 643.95 777.813 644.76 777.773 645.62C777.733 646.48 777.703 647.34 777.683 648.2C777.683 649.2 777.743 650.15 777.863 651.05H779.873V653H775.883L775.613 650.75H775.463C775.343 650.93 775.163 651.16 774.923 651.44C774.683 651.72 774.363 652 773.963 652.28C773.583 652.54 773.113 652.77 772.553 652.97C771.993 653.17 771.333 653.27 770.573 653.27C769.093 653.27 767.923 652.89 767.063 652.13C766.203 651.37 765.773 650.33 765.773 649.01C765.773 647.99 765.993 647.14 766.433 646.46C766.893 645.78 767.543 645.26 768.383 644.9C769.223 644.54 770.233 644.33 771.413 644.27C772.613 644.21 773.953 644.29 775.433 644.51C775.533 643.59 775.543 642.83 775.463 642.23C775.403 641.61 775.243 641.12 774.983 640.76C774.743 640.4 774.393 640.15 773.933 640.01C773.493 639.85 772.943 639.77 772.283 639.77C771.383 639.77 770.523 639.9 769.703 640.16C768.883 640.4 768.153 640.65 767.513 640.91L766.763 639.17ZM771.173 651.26C771.733 651.26 772.253 651.17 772.733 650.99C773.213 650.81 773.633 650.58 773.993 650.3C774.353 650.02 774.653 649.72 774.893 649.4C775.133 649.06 775.313 648.74 775.433 648.44V646.34C774.393 646.16 773.433 646.07 772.553 646.07C771.673 646.07 770.913 646.17 770.273 646.37C769.633 646.55 769.133 646.84 768.773 647.24C768.413 647.64 768.233 648.16 768.233 648.8C768.233 649.46 768.453 650.04 768.893 650.54C769.353 651.02 770.113 651.26 771.173 651.26ZM794.532 646.34H786.462V653H784.152V638H786.462V644.24H794.532V638H796.872V653H794.532V646.34ZM812.52 646.34H804.45V653H802.14V638H804.45V644.24H812.52V638H814.86V653H812.52V646.34ZM821.298 650.9C822.038 651.02 822.748 651.08 823.428 651.08C824.688 651.08 825.568 650.84 826.068 650.36C826.568 649.86 826.818 649.16 826.818 648.26C826.818 647.46 826.568 646.8 826.068 646.28C825.588 645.76 824.738 645.5 823.518 645.5C823.178 645.5 822.808 645.51 822.408 645.53C822.008 645.55 821.638 645.61 821.298 645.71V650.9ZM821.298 643.73C821.778 643.65 822.238 643.6 822.678 643.58C823.118 643.54 823.538 643.52 823.938 643.52C824.958 643.52 825.808 643.64 826.488 643.88C827.188 644.1 827.748 644.41 828.168 644.81C828.588 645.21 828.878 645.69 829.038 646.25C829.218 646.79 829.308 647.37 829.308 647.99C829.308 649.81 828.798 651.13 827.778 651.95C826.778 652.77 825.148 653.18 822.888 653.18C821.608 653.18 820.278 653.12 818.898 653V638H821.298V643.73ZM831.678 638H834.078V653H831.678V638ZM851.347 651.11C850.987 651.43 850.557 651.73 850.057 652.01C849.577 652.29 849.047 652.53 848.467 652.73C847.887 652.93 847.277 653.08 846.637 653.18C846.017 653.3 845.387 653.36 844.747 653.36C843.547 653.36 842.487 653.18 841.567 652.82C840.647 652.44 839.877 651.91 839.257 651.23C838.637 650.53 838.167 649.7 837.847 648.74C837.527 647.78 837.367 646.7 837.367 645.5C837.367 644.24 837.537 643.12 837.877 642.14C838.237 641.16 838.747 640.34 839.407 639.68C840.067 639.02 840.867 638.52 841.807 638.18C842.747 637.82 843.797 637.64 844.957 637.64C845.797 637.64 846.627 637.75 847.447 637.97C848.267 638.19 848.987 638.61 849.607 639.23C850.247 639.83 850.737 640.67 851.077 641.75C851.417 642.81 851.537 644.19 851.437 645.89H839.827C839.827 647.69 840.307 649.04 841.267 649.94C842.247 650.82 843.547 651.26 845.167 651.26C845.707 651.26 846.237 651.2 846.757 651.08C847.297 650.94 847.807 650.78 848.287 650.6C848.767 650.42 849.187 650.22 849.547 650C849.927 649.78 850.217 649.58 850.417 649.4L851.347 651.11ZM845.017 639.62C844.357 639.62 843.727 639.69 843.127 639.83C842.547 639.97 842.027 640.21 841.567 640.55C841.127 640.87 840.757 641.3 840.457 641.84C840.177 642.36 839.997 643.01 839.917 643.79H849.247C849.147 642.47 848.717 641.45 847.957 640.73C847.217 639.99 846.237 639.62 845.017 639.62Z" fill="white"/>
<rect x="348" y="736" width="319" height="275" rx="49" transform="rotate(-90 348 736)" stroke="#007BFF" stroke-width="2"/>
<path d="M423.391 499.85V498.98L437.521 490.37L438.661 492.23L426.751 499.28L438.691 506.21L437.551 508.01L423.391 499.85ZM440.959 494H444.529V491.03L446.869 490.37V494H454.879V496.01H446.869V503.09C446.869 504.55 447.219 505.63 447.919 506.33C448.639 507.03 449.659 507.38 450.979 507.38C451.879 507.38 452.659 507.21 453.319 506.87C453.999 506.53 454.609 506.16 455.149 505.76L455.929 507.53C455.229 508.09 454.389 508.54 453.409 508.88C452.449 509.22 451.459 509.39 450.439 509.39C449.639 509.39 448.879 509.27 448.159 509.03C447.459 508.81 446.839 508.46 446.299 507.98C445.759 507.5 445.329 506.89 445.009 506.15C444.689 505.39 444.529 504.49 444.529 503.45V496.01H440.959V494ZM458.138 488H462.818V495.86H462.968C463.588 495.16 464.308 494.62 465.128 494.24C465.948 493.84 466.968 493.64 468.188 493.64C469.148 493.64 469.978 493.74 470.678 493.94C471.398 494.14 471.978 494.49 472.418 494.99C472.878 495.49 473.218 496.18 473.438 497.06C473.658 497.92 473.768 499.02 473.768 500.36V509H471.428V500.81C471.428 499.95 471.378 499.2 471.278 498.56C471.178 497.92 470.978 497.39 470.678 496.97C470.398 496.53 470.008 496.2 469.508 495.98C469.008 495.76 468.368 495.65 467.588 495.65C467.048 495.65 466.518 495.75 465.998 495.95C465.478 496.13 464.998 496.39 464.558 496.73C464.138 497.05 463.768 497.45 463.448 497.93C463.148 498.39 462.938 498.9 462.818 499.46V509H460.508V490.01H458.138V488ZM491.876 507.11C491.516 507.43 491.086 507.73 490.586 508.01C490.106 508.29 489.576 508.53 488.996 508.73C488.416 508.93 487.806 509.08 487.166 509.18C486.546 509.3 485.916 509.36 485.276 509.36C484.076 509.36 483.016 509.18 482.096 508.82C481.176 508.44 480.406 507.91 479.786 507.23C479.166 506.53 478.696 505.7 478.376 504.74C478.056 503.78 477.896 502.7 477.896 501.5C477.896 500.24 478.066 499.12 478.406 498.14C478.766 497.16 479.276 496.34 479.936 495.68C480.596 495.02 481.396 494.52 482.336 494.18C483.276 493.82 484.326 493.64 485.486 493.64C486.326 493.64 487.156 493.75 487.976 493.97C488.796 494.19 489.516 494.61 490.136 495.23C490.776 495.83 491.266 496.67 491.606 497.75C491.946 498.81 492.066 500.19 491.966 501.89H480.356C480.356 503.69 480.836 505.04 481.796 505.94C482.776 506.82 484.076 507.26 485.696 507.26C486.236 507.26 486.766 507.2 487.286 507.08C487.826 506.94 488.336 506.78 488.816 506.6C489.296 506.42 489.716 506.22 490.076 506C490.456 505.78 490.746 505.58 490.946 505.4L491.876 507.11ZM485.546 495.62C484.886 495.62 484.256 495.69 483.656 495.83C483.076 495.97 482.556 496.21 482.096 496.55C481.656 496.87 481.286 497.3 480.986 497.84C480.706 498.36 480.526 499.01 480.446 499.79H489.776C489.676 498.47 489.246 497.45 488.486 496.73C487.746 495.99 486.766 495.62 485.546 495.62ZM497.234 495.17C498.094 494.67 499.064 494.31 500.144 494.09C501.224 493.87 502.284 493.76 503.324 493.76C504.344 493.76 505.174 493.92 505.814 494.24C506.474 494.56 506.984 494.98 507.344 495.5C507.724 496 507.974 496.58 508.094 497.24C508.234 497.88 508.304 498.53 508.304 499.19C508.304 499.95 508.284 500.76 508.244 501.62C508.204 502.48 508.174 503.34 508.154 504.2C508.154 505.2 508.214 506.15 508.334 507.05H510.344V509H506.354L506.084 506.75H505.934C505.814 506.93 505.634 507.16 505.394 507.44C505.154 507.72 504.834 508 504.434 508.28C504.054 508.54 503.584 508.77 503.024 508.97C502.464 509.17 501.804 509.27 501.044 509.27C499.564 509.27 498.394 508.89 497.534 508.13C496.674 507.37 496.244 506.33 496.244 505.01C496.244 503.99 496.464 503.14 496.904 502.46C497.364 501.78 498.014 501.26 498.854 500.9C499.694 500.54 500.704 500.33 501.884 500.27C503.084 500.21 504.424 500.29 505.904 500.51C506.004 499.59 506.014 498.83 505.934 498.23C505.874 497.61 505.714 497.12 505.454 496.76C505.214 496.4 504.864 496.15 504.404 496.01C503.964 495.85 503.414 495.77 502.754 495.77C501.854 495.77 500.994 495.9 500.174 496.16C499.354 496.4 498.624 496.65 497.984 496.91L497.234 495.17ZM501.644 507.26C502.204 507.26 502.724 507.17 503.204 506.99C503.684 506.81 504.104 506.58 504.464 506.3C504.824 506.02 505.124 505.72 505.364 505.4C505.604 505.06 505.784 504.74 505.904 504.44V502.34C504.864 502.16 503.904 502.07 503.024 502.07C502.144 502.07 501.384 502.17 500.744 502.37C500.104 502.55 499.604 502.84 499.244 503.24C498.884 503.64 498.704 504.16 498.704 504.8C498.704 505.46 498.924 506.04 499.364 506.54C499.824 507.02 500.584 507.26 501.644 507.26ZM522.452 488H527.312V503.87C527.312 504.05 527.322 504.28 527.342 504.56C527.362 504.82 527.382 505.1 527.402 505.4C527.442 505.7 527.482 506 527.522 506.3C527.562 506.58 527.602 506.83 527.642 507.05H529.652V509H525.662L525.362 506.69H525.242C524.802 507.45 524.142 508.09 523.262 508.61C522.402 509.11 521.402 509.36 520.262 509.36C518.002 509.36 516.332 508.73 515.252 507.47C514.192 506.19 513.662 504.21 513.662 501.53C513.662 500.27 513.842 499.16 514.202 498.2C514.562 497.22 515.072 496.41 515.732 495.77C516.412 495.11 517.222 494.61 518.162 494.27C519.102 493.93 520.152 493.76 521.312 493.76C521.732 493.76 522.102 493.77 522.422 493.79C522.762 493.81 523.072 493.84 523.352 493.88C523.632 493.92 523.892 493.98 524.132 494.06C524.392 494.12 524.672 494.19 524.972 494.27V490.01H522.452V488ZM520.652 507.35C521.872 507.35 522.832 507.04 523.532 506.42C524.232 505.78 524.712 504.83 524.972 503.57V496.61C524.532 496.31 524.032 496.09 523.472 495.95C522.932 495.81 522.212 495.74 521.312 495.74C519.712 495.74 518.452 496.21 517.532 497.15C516.612 498.07 516.152 499.53 516.152 501.53C516.152 502.35 516.222 503.12 516.362 503.84C516.522 504.54 516.772 505.15 517.112 505.67C517.472 506.19 517.942 506.6 518.522 506.9C519.102 507.2 519.812 507.35 520.652 507.35ZM532.461 508.01L531.321 506.21L543.261 499.28L531.351 492.23L532.491 490.37L546.621 498.98V499.85L532.461 508.01Z" fill="#007BFF"/>
<path d="M406.763 616.41L406.733 616.32C407.073 616.12 407.433 615.93 407.813 615.75C408.213 615.55 408.653 615.38 409.133 615.24C409.633 615.08 410.193 614.95 410.813 614.85C411.433 614.75 412.143 614.7 412.943 614.7C413.763 614.7 414.523 614.79 415.223 614.97C415.923 615.13 416.533 615.37 417.053 615.69C417.573 616.01 417.973 616.41 418.253 616.89C418.553 617.35 418.703 617.88 418.703 618.48C418.703 618.8 418.633 619.14 418.493 619.5C418.373 619.84 418.183 620.17 417.923 620.49C417.663 620.81 417.353 621.1 416.993 621.36C416.633 621.62 416.223 621.82 415.763 621.96V622.08C417.083 622.3 418.003 622.72 418.523 623.34C419.063 623.96 419.333 624.78 419.333 625.8C419.333 626.44 419.183 627.03 418.883 627.57C418.583 628.11 418.133 628.58 417.533 628.98C416.953 629.38 416.223 629.7 415.343 629.94C414.483 630.16 413.473 630.27 412.313 630.27C411.453 630.27 410.673 630.19 409.973 630.03C409.273 629.87 408.653 629.67 408.113 629.43C407.593 629.19 407.143 628.93 406.763 628.65C406.403 628.37 406.123 628.11 405.923 627.87L407.123 625.98C407.343 626.22 407.613 626.48 407.933 626.76C408.253 627.02 408.643 627.26 409.103 627.48C409.583 627.7 410.123 627.89 410.723 628.05C411.343 628.19 412.053 628.26 412.853 628.26C413.413 628.26 413.933 628.21 414.413 628.11C414.913 627.99 415.343 627.83 415.703 627.63C416.083 627.41 416.383 627.14 416.603 626.82C416.823 626.48 416.933 626.09 416.933 625.65C416.933 624.89 416.583 624.31 415.883 623.91C415.203 623.51 414.073 623.31 412.493 623.31H410.783V621.36H412.913C413.313 621.36 413.713 621.3 414.113 621.18C414.513 621.04 414.873 620.87 415.193 620.67C415.513 620.45 415.773 620.2 415.973 619.92C416.173 619.62 416.273 619.31 416.273 618.99C416.273 618.59 416.173 618.25 415.973 617.97C415.773 617.67 415.493 617.43 415.133 617.25C414.793 617.07 414.383 616.94 413.903 616.86C413.443 616.76 412.953 616.71 412.433 616.71C411.633 616.71 410.933 616.79 410.333 616.95C409.733 617.09 409.223 617.27 408.803 617.49V619.98H406.763V616.41ZM424.781 616.17C425.641 615.67 426.611 615.31 427.691 615.09C428.771 614.87 429.831 614.76 430.871 614.76C431.891 614.76 432.721 614.92 433.361 615.24C434.021 615.56 434.531 615.98 434.891 616.5C435.271 617 435.521 617.58 435.641 618.24C435.781 618.88 435.851 619.53 435.851 620.19C435.851 620.95 435.831 621.76 435.791 622.62C435.751 623.48 435.721 624.34 435.701 625.2C435.701 626.2 435.761 627.15 435.881 628.05H437.891V630H433.901L433.631 627.75H433.481C433.361 627.93 433.181 628.16 432.941 628.44C432.701 628.72 432.381 629 431.981 629.28C431.601 629.54 431.131 629.77 430.571 629.97C430.011 630.17 429.351 630.27 428.591 630.27C427.111 630.27 425.941 629.89 425.081 629.13C424.221 628.37 423.791 627.33 423.791 626.01C423.791 624.99 424.011 624.14 424.451 623.46C424.911 622.78 425.561 622.26 426.401 621.9C427.241 621.54 428.251 621.33 429.431 621.27C430.631 621.21 431.971 621.29 433.451 621.51C433.551 620.59 433.561 619.83 433.481 619.23C433.421 618.61 433.261 618.12 433.001 617.76C432.761 617.4 432.411 617.15 431.951 617.01C431.511 616.85 430.961 616.77 430.301 616.77C429.401 616.77 428.541 616.9 427.721 617.16C426.901 617.4 426.171 617.65 425.531 617.91L424.781 616.17ZM429.191 628.26C429.751 628.26 430.271 628.17 430.751 627.99C431.231 627.81 431.651 627.58 432.011 627.3C432.371 627.02 432.671 626.72 432.911 626.4C433.151 626.06 433.331 625.74 433.451 625.44V623.34C432.411 623.16 431.451 623.07 430.571 623.07C429.691 623.07 428.931 623.17 428.291 623.37C427.651 623.55 427.151 623.84 426.791 624.24C426.431 624.64 426.251 625.16 426.251 625.8C426.251 626.46 426.471 627.04 426.911 627.54C427.371 628.02 428.131 628.26 429.191 628.26ZM442.589 630V627.99H444.509V617.04H442.589V615H454.709V620.61H452.669V617.04H446.849V627.99H451.409V630H442.589ZM459.228 622.5C459.228 620.08 459.858 618.17 461.118 616.77C462.378 615.35 464.178 614.64 466.518 614.64C467.778 614.64 468.858 614.85 469.758 615.27C470.678 615.67 471.438 616.22 472.038 616.92C472.638 617.62 473.078 618.45 473.358 619.41C473.658 620.37 473.808 621.4 473.808 622.5C473.808 623.7 473.648 624.79 473.328 625.77C473.008 626.73 472.538 627.55 471.918 628.23C471.298 628.91 470.528 629.44 469.608 629.82C468.708 630.18 467.678 630.36 466.518 630.36C465.278 630.36 464.198 630.16 463.278 629.76C462.358 629.34 461.598 628.78 460.998 628.08C460.398 627.38 459.948 626.55 459.648 625.59C459.368 624.63 459.228 623.6 459.228 622.5ZM461.718 622.5C461.718 623.2 461.798 623.9 461.958 624.6C462.138 625.3 462.418 625.93 462.798 626.49C463.178 627.05 463.668 627.5 464.268 627.84C464.888 628.18 465.638 628.35 466.518 628.35C468.118 628.35 469.318 627.86 470.118 626.88C470.938 625.88 471.348 624.42 471.348 622.5C471.348 621.78 471.258 621.08 471.078 620.4C470.918 619.7 470.638 619.07 470.238 618.51C469.858 617.95 469.358 617.5 468.738 617.16C468.138 616.82 467.398 616.65 466.518 616.65C464.918 616.65 463.718 617.14 462.918 618.12C462.118 619.1 461.718 620.56 461.718 622.5ZM488.286 617.04H483.096C483.016 618.86 482.916 620.57 482.796 622.17C482.676 623.75 482.446 625.13 482.106 626.31C481.786 627.49 481.316 628.42 480.696 629.1C480.096 629.78 479.276 630.12 478.236 630.12C477.836 630.12 477.546 630.1 477.366 630.06C477.186 630.02 476.966 629.95 476.706 629.85L477.096 627.63C477.476 627.73 477.826 627.78 478.146 627.78C478.486 627.78 478.786 627.66 479.046 627.42C479.306 627.18 479.536 626.8 479.736 626.28C479.956 625.74 480.136 624.99 480.276 624.03C480.436 623.05 480.566 621.83 480.666 620.37C480.766 618.89 480.846 617.1 480.906 615H490.626V630H488.286V617.04ZM495.204 622.5C495.204 620.08 495.834 618.17 497.094 616.77C498.354 615.35 500.154 614.64 502.494 614.64C503.754 614.64 504.834 614.85 505.734 615.27C506.654 615.67 507.414 616.22 508.014 616.92C508.614 617.62 509.054 618.45 509.334 619.41C509.634 620.37 509.784 621.4 509.784 622.5C509.784 623.7 509.624 624.79 509.304 625.77C508.984 626.73 508.514 627.55 507.894 628.23C507.274 628.91 506.504 629.44 505.584 629.82C504.684 630.18 503.654 630.36 502.494 630.36C501.254 630.36 500.174 630.16 499.254 629.76C498.334 629.34 497.574 628.78 496.974 628.08C496.374 627.38 495.924 626.55 495.624 625.59C495.344 624.63 495.204 623.6 495.204 622.5ZM497.694 622.5C497.694 623.2 497.774 623.9 497.934 624.6C498.114 625.3 498.394 625.93 498.774 626.49C499.154 627.05 499.644 627.5 500.244 627.84C500.864 628.18 501.614 628.35 502.494 628.35C504.094 628.35 505.294 627.86 506.094 626.88C506.914 625.88 507.324 624.42 507.324 622.5C507.324 621.78 507.234 621.08 507.054 620.4C506.894 619.7 506.614 619.07 506.214 618.51C505.834 617.95 505.334 617.5 504.714 617.16C504.114 616.82 503.374 616.65 502.494 616.65C500.894 616.65 499.694 617.14 498.894 618.12C498.094 619.1 497.694 620.56 497.694 622.5ZM515.082 615.03C515.462 615.01 515.842 614.99 516.222 614.97C516.602 614.93 517.012 614.9 517.452 614.88C517.892 614.86 518.362 614.84 518.862 614.82C519.382 614.8 519.962 614.79 520.602 614.79C522.762 614.79 524.322 615.1 525.282 615.72C526.242 616.32 526.722 617.23 526.722 618.45C526.722 619.15 526.492 619.85 526.032 620.55C525.572 621.23 524.822 621.72 523.782 622.02V622.14C525.102 622.36 526.032 622.77 526.572 623.37C527.112 623.95 527.382 624.75 527.382 625.77C527.382 627.33 526.742 628.46 525.462 629.16C524.202 629.86 522.362 630.21 519.942 630.21C518.982 630.21 518.122 630.18 517.362 630.12C516.602 630.08 515.842 630.03 515.082 629.97V615.03ZM517.392 628.11C517.852 628.15 518.312 628.18 518.772 628.2C519.232 628.22 519.752 628.23 520.332 628.23C521.892 628.23 523.052 628.04 523.812 627.66C524.592 627.26 524.982 626.58 524.982 625.62C524.982 625.24 524.902 624.9 524.742 624.6C524.602 624.3 524.352 624.04 523.992 623.82C523.652 623.6 523.202 623.43 522.642 623.31C522.082 623.19 521.382 623.13 520.542 623.13H517.392V628.11ZM520.962 621.33C521.362 621.33 521.762 621.27 522.162 621.15C522.562 621.01 522.922 620.84 523.242 620.64C523.582 620.42 523.852 620.17 524.052 619.89C524.252 619.59 524.352 619.28 524.352 618.96C524.352 618.14 524.052 617.57 523.452 617.25C522.872 616.93 521.892 616.77 520.512 616.77C519.752 616.77 519.142 616.78 518.682 616.8C518.242 616.82 517.812 616.84 517.392 616.86V621.33H520.962ZM536.701 623.22H535.051V630H532.741V615H535.051V621.42H536.701L542.611 615H545.431L538.801 622.11L544.261 627.99H546.211V630H543.121L536.701 623.22ZM560.569 620.58L560.659 618.6H560.569L552.139 630H550.009V615H552.349V624.69L552.259 626.58H552.379L560.749 615H562.909V630H560.569V620.58ZM425.567 657.34H417.497V664H415.187V649H417.497V655.24H425.567V649H427.907V664H425.567V657.34ZM433.775 650.17C434.635 649.67 435.605 649.31 436.685 649.09C437.765 648.87 438.825 648.76 439.865 648.76C440.885 648.76 441.715 648.92 442.355 649.24C443.015 649.56 443.525 649.98 443.885 650.5C444.265 651 444.515 651.58 444.635 652.24C444.775 652.88 444.845 653.53 444.845 654.19C444.845 654.95 444.825 655.76 444.785 656.62C444.745 657.48 444.715 658.34 444.695 659.2C444.695 660.2 444.755 661.15 444.875 662.05H446.885V664H442.895L442.625 661.75H442.475C442.355 661.93 442.175 662.16 441.935 662.44C441.695 662.72 441.375 663 440.975 663.28C440.595 663.54 440.125 663.77 439.565 663.97C439.005 664.17 438.345 664.27 437.585 664.27C436.105 664.27 434.935 663.89 434.075 663.13C433.215 662.37 432.785 661.33 432.785 660.01C432.785 658.99 433.005 658.14 433.445 657.46C433.905 656.78 434.555 656.26 435.395 655.9C436.235 655.54 437.245 655.33 438.425 655.27C439.625 655.21 440.965 655.29 442.445 655.51C442.545 654.59 442.555 653.83 442.475 653.23C442.415 652.61 442.255 652.12 441.995 651.76C441.755 651.4 441.405 651.15 440.945 651.01C440.505 650.85 439.955 650.77 439.295 650.77C438.395 650.77 437.535 650.9 436.715 651.16C435.895 651.4 435.165 651.65 434.525 651.91L433.775 650.17ZM438.185 662.26C438.745 662.26 439.265 662.17 439.745 661.99C440.225 661.81 440.645 661.58 441.005 661.3C441.365 661.02 441.665 660.72 441.905 660.4C442.145 660.06 442.325 659.74 442.445 659.44V657.34C441.405 657.16 440.445 657.07 439.565 657.07C438.685 657.07 437.925 657.17 437.285 657.37C436.645 657.55 436.145 657.84 435.785 658.24C435.425 658.64 435.245 659.16 435.245 659.8C435.245 660.46 435.465 661.04 435.905 661.54C436.365 662.02 437.125 662.26 438.185 662.26ZM451.733 650.41L451.703 650.32C452.043 650.12 452.403 649.93 452.783 649.75C453.183 649.55 453.623 649.38 454.103 649.24C454.603 649.08 455.163 648.95 455.783 648.85C456.403 648.75 457.113 648.7 457.913 648.7C458.733 648.7 459.493 648.79 460.193 648.97C460.893 649.13 461.503 649.37 462.023 649.69C462.543 650.01 462.943 650.41 463.223 650.89C463.523 651.35 463.673 651.88 463.673 652.48C463.673 652.8 463.603 653.14 463.463 653.5C463.343 653.84 463.153 654.17 462.893 654.49C462.633 654.81 462.323 655.1 461.963 655.36C461.603 655.62 461.193 655.82 460.733 655.96V656.08C462.053 656.3 462.973 656.72 463.493 657.34C464.033 657.96 464.303 658.78 464.303 659.8C464.303 660.44 464.153 661.03 463.853 661.57C463.553 662.11 463.103 662.58 462.503 662.98C461.923 663.38 461.193 663.7 460.313 663.94C459.453 664.16 458.443 664.27 457.283 664.27C456.423 664.27 455.643 664.19 454.943 664.03C454.243 663.87 453.623 663.67 453.083 663.43C452.563 663.19 452.113 662.93 451.733 662.65C451.373 662.37 451.093 662.11 450.893 661.87L452.093 659.98C452.313 660.22 452.583 660.48 452.903 660.76C453.223 661.02 453.613 661.26 454.073 661.48C454.553 661.7 455.093 661.89 455.693 662.05C456.313 662.19 457.023 662.26 457.823 662.26C458.383 662.26 458.903 662.21 459.383 662.11C459.883 661.99 460.313 661.83 460.673 661.63C461.053 661.41 461.353 661.14 461.573 660.82C461.793 660.48 461.903 660.09 461.903 659.65C461.903 658.89 461.553 658.31 460.853 657.91C460.173 657.51 459.043 657.31 457.463 657.31H455.753V655.36H457.883C458.283 655.36 458.683 655.3 459.083 655.18C459.483 655.04 459.843 654.87 460.163 654.67C460.483 654.45 460.743 654.2 460.943 653.92C461.143 653.62 461.243 653.31 461.243 652.99C461.243 652.59 461.143 652.25 460.943 651.97C460.743 651.67 460.463 651.43 460.103 651.25C459.763 651.07 459.353 650.94 458.873 650.86C458.413 650.76 457.923 650.71 457.403 650.71C456.603 650.71 455.903 650.79 455.303 650.95C454.703 651.09 454.193 651.27 453.773 651.49V653.98H451.733V650.41ZM470.112 649.03C470.492 649.01 470.872 648.99 471.252 648.97C471.632 648.93 472.042 648.9 472.482 648.88C472.922 648.86 473.392 648.84 473.892 648.82C474.412 648.8 474.992 648.79 475.632 648.79C477.792 648.79 479.352 649.1 480.312 649.72C481.272 650.32 481.752 651.23 481.752 652.45C481.752 653.15 481.522 653.85 481.062 654.55C480.602 655.23 479.852 655.72 478.812 656.02V656.14C480.132 656.36 481.062 656.77 481.602 657.37C482.142 657.95 482.412 658.75 482.412 659.77C482.412 661.33 481.772 662.46 480.492 663.16C479.232 663.86 477.392 664.21 474.972 664.21C474.012 664.21 473.152 664.18 472.392 664.12C471.632 664.08 470.872 664.03 470.112 663.97V649.03ZM472.422 662.11C472.882 662.15 473.342 662.18 473.802 662.2C474.262 662.22 474.782 662.23 475.362 662.23C476.922 662.23 478.082 662.04 478.842 661.66C479.622 661.26 480.012 660.58 480.012 659.62C480.012 659.24 479.932 658.9 479.772 658.6C479.632 658.3 479.382 658.04 479.022 657.82C478.682 657.6 478.232 657.43 477.672 657.31C477.112 657.19 476.412 657.13 475.572 657.13H472.422V662.11ZM475.992 655.33C476.392 655.33 476.792 655.27 477.192 655.15C477.592 655.01 477.952 654.84 478.272 654.64C478.612 654.42 478.882 654.17 479.082 653.89C479.282 653.59 479.382 653.28 479.382 652.96C479.382 652.14 479.082 651.57 478.482 651.25C477.902 650.93 476.922 650.77 475.542 650.77C474.782 650.77 474.172 650.78 473.712 650.8C473.272 650.82 472.842 650.84 472.422 650.86V655.33H475.992ZM487.74 650.17C488.6 649.67 489.57 649.31 490.65 649.09C491.73 648.87 492.79 648.76 493.83 648.76C494.85 648.76 495.68 648.92 496.32 649.24C496.98 649.56 497.49 649.98 497.85 650.5C498.23 651 498.48 651.58 498.6 652.24C498.74 652.88 498.81 653.53 498.81 654.19C498.81 654.95 498.79 655.76 498.75 656.62C498.71 657.48 498.68 658.34 498.66 659.2C498.66 660.2 498.72 661.15 498.84 662.05H500.85V664H496.86L496.59 661.75H496.44C496.32 661.93 496.14 662.16 495.9 662.44C495.66 662.72 495.34 663 494.94 663.28C494.56 663.54 494.09 663.77 493.53 663.97C492.97 664.17 492.31 664.27 491.55 664.27C490.07 664.27 488.9 663.89 488.04 663.13C487.18 662.37 486.75 661.33 486.75 660.01C486.75 658.99 486.97 658.14 487.41 657.46C487.87 656.78 488.52 656.26 489.36 655.9C490.2 655.54 491.21 655.33 492.39 655.27C493.59 655.21 494.93 655.29 496.41 655.51C496.51 654.59 496.52 653.83 496.44 653.23C496.38 652.61 496.22 652.12 495.96 651.76C495.72 651.4 495.37 651.15 494.91 651.01C494.47 650.85 493.92 650.77 493.26 650.77C492.36 650.77 491.5 650.9 490.68 651.16C489.86 651.4 489.13 651.65 488.49 651.91L487.74 650.17ZM492.15 662.26C492.71 662.26 493.23 662.17 493.71 661.99C494.19 661.81 494.61 661.58 494.97 661.3C495.33 661.02 495.63 660.72 495.87 660.4C496.11 660.06 496.29 659.74 496.41 659.44V657.34C495.37 657.16 494.41 657.07 493.53 657.07C492.65 657.07 491.89 657.17 491.25 657.37C490.61 657.55 490.11 657.84 489.75 658.24C489.39 658.64 489.21 659.16 489.21 659.8C489.21 660.46 489.43 661.04 489.87 661.54C490.33 662.02 491.09 662.26 492.15 662.26ZM515.508 657.34H507.438V664H505.128V649H507.438V655.24H515.508V649H517.848V664H515.508V657.34ZM533.587 654.58L533.677 652.6H533.587L525.157 664H523.027V649H525.367V658.69L525.277 660.58H525.397L533.767 649H535.927V664H533.587V654.58ZM550.765 658.15H547.165L543.385 664H540.385V661.99H541.945L544.675 657.91C544.295 657.81 543.925 657.65 543.565 657.43C543.205 657.19 542.875 656.9 542.575 656.56C542.295 656.2 542.065 655.79 541.885 655.33C541.725 654.85 541.645 654.32 541.645 653.74C541.645 652.84 541.825 652.07 542.185 651.43C542.545 650.77 543.045 650.23 543.685 649.81C544.325 649.39 545.085 649.09 545.965 648.91C546.845 648.71 547.815 648.61 548.875 648.61C549.635 648.61 550.355 648.67 551.035 648.79C551.715 648.89 552.405 649 553.105 649.12V664H550.765V658.15ZM550.765 656.35V651.01C550.485 650.91 550.155 650.82 549.775 650.74C549.395 650.66 549.065 650.62 548.785 650.62C547.265 650.62 546.105 650.86 545.305 651.34C544.505 651.8 544.105 652.54 544.105 653.56C544.105 654.38 544.345 655.02 544.825 655.48C545.305 655.92 545.885 656.21 546.565 656.35H550.765Z" fill="#007BFF"/>
</svg>
