<svg width="1600" height="900" viewBox="0 0 1600 900" fill="none" xmlns="http://www.w3.org/2000/svg">
<path d="M483.26 176H475.7L453.09 150.66V176H446.79V126.02H453.09V150.24L475.14 126.02H482.28L460.58 150.31L483.26 176ZM506.931 137.85C511.505 137.85 514.888 138.853 517.081 140.86C519.275 142.867 520.371 146.063 520.371 150.45V176H515.891L514.701 170.68H514.421C512.788 172.733 511.061 174.25 509.241 175.23C507.468 176.21 504.995 176.7 501.821 176.7C498.415 176.7 495.591 175.813 493.351 174.04C491.111 172.22 489.991 169.397 489.991 165.57C489.991 161.837 491.461 158.967 494.401 156.96C497.341 154.907 501.868 153.787 507.981 153.6L514.351 153.39V151.15C514.351 148.023 513.675 145.853 512.321 144.64C510.968 143.427 509.055 142.82 506.581 142.82C504.621 142.82 502.755 143.123 500.981 143.73C499.208 144.29 497.551 144.943 496.011 145.69L494.121 141.07C495.755 140.183 497.691 139.437 499.931 138.83C502.171 138.177 504.505 137.85 506.931 137.85ZM508.751 157.87C504.085 158.057 500.841 158.803 499.021 160.11C497.248 161.417 496.361 163.26 496.361 165.64C496.361 167.74 496.991 169.28 498.251 170.26C499.558 171.24 501.215 171.73 503.221 171.73C506.395 171.73 509.031 170.867 511.131 169.14C513.231 167.367 514.281 164.66 514.281 161.02V157.66L508.751 157.87ZM557.65 138.48H564.37L548.34 156.54L565.7 176H558.56L541.62 156.96V176H535.46V138.48H541.62V156.68L557.65 138.48ZM603.854 138.48V154.09H624.224V138.48H630.384V176H624.224V159.27H603.854V176H597.694V138.48H603.854ZM660.254 137.78C663.474 137.78 666.228 138.48 668.514 139.88C670.848 141.28 672.621 143.263 673.834 145.83C675.094 148.35 675.724 151.313 675.724 154.72V158.43H650.034C650.128 162.677 651.201 165.92 653.254 168.16C655.354 170.353 658.271 171.45 662.004 171.45C664.384 171.45 666.484 171.24 668.304 170.82C670.171 170.353 672.084 169.7 674.044 168.86V174.25C672.131 175.09 670.241 175.697 668.374 176.07C666.508 176.49 664.291 176.7 661.724 176.7C658.178 176.7 655.028 175.977 652.274 174.53C649.568 173.083 647.444 170.937 645.904 168.09C644.411 165.197 643.664 161.673 643.664 157.52C643.664 153.413 644.341 149.89 645.694 146.95C647.094 144.01 649.031 141.747 651.504 140.16C654.024 138.573 656.941 137.78 660.254 137.78ZM660.184 142.82C657.244 142.82 654.911 143.777 653.184 145.69C651.504 147.557 650.501 150.17 650.174 153.53H669.284C669.238 150.357 668.491 147.79 667.044 145.83C665.598 143.823 663.311 142.82 660.184 142.82ZM716.62 138.48V154.09H736.99V138.48H743.15V176H736.99V159.27H716.62V176H710.46V138.48H716.62ZM772.74 137.85C777.313 137.85 780.697 138.853 782.89 140.86C785.083 142.867 786.18 146.063 786.18 150.45V176H781.7L780.51 170.68H780.23C778.597 172.733 776.87 174.25 775.05 175.23C773.277 176.21 770.803 176.7 767.63 176.7C764.223 176.7 761.4 175.813 759.16 174.04C756.92 172.22 755.8 169.397 755.8 165.57C755.8 161.837 757.27 158.967 760.21 156.96C763.15 154.907 767.677 153.787 773.79 153.6L780.16 153.39V151.15C780.16 148.023 779.483 145.853 778.13 144.64C776.777 143.427 774.863 142.82 772.39 142.82C770.43 142.82 768.563 143.123 766.79 143.73C765.017 144.29 763.36 144.943 761.82 145.69L759.93 141.07C761.563 140.183 763.5 139.437 765.74 138.83C767.98 138.177 770.313 137.85 772.74 137.85ZM774.56 157.87C769.893 158.057 766.65 158.803 764.83 160.11C763.057 161.417 762.17 163.26 762.17 165.64C762.17 167.74 762.8 169.28 764.06 170.26C765.367 171.24 767.023 171.73 769.03 171.73C772.203 171.73 774.84 170.867 776.94 169.14C779.04 167.367 780.09 164.66 780.09 161.02V157.66L774.56 157.87ZM829.128 138.48V170.82H834.588V189.02H828.638V176H802.528V189.02H796.648V170.82H799.658C802.878 166.387 805.282 161.347 806.868 155.7C808.502 150.007 809.342 144.267 809.388 138.48H829.128ZM814.848 143.31C814.662 146.483 814.172 149.773 813.378 153.18C812.585 156.54 811.558 159.76 810.298 162.84C809.085 165.92 807.662 168.58 806.028 170.82H823.178V143.31H814.848ZM878.062 157.17C878.062 163.377 876.476 168.183 873.302 171.59C870.176 174.997 865.929 176.7 860.562 176.7C857.249 176.7 854.286 175.953 851.672 174.46C849.106 172.92 847.076 170.703 845.582 167.81C844.089 164.87 843.342 161.323 843.342 157.17C843.342 150.963 844.906 146.18 848.032 142.82C851.159 139.46 855.406 137.78 860.772 137.78C864.179 137.78 867.166 138.55 869.732 140.09C872.346 141.583 874.376 143.777 875.822 146.67C877.316 149.517 878.062 153.017 878.062 157.17ZM849.712 157.17C849.712 161.603 850.576 165.127 852.302 167.74C854.076 170.307 856.876 171.59 860.702 171.59C864.482 171.59 867.259 170.307 869.032 167.74C870.806 165.127 871.692 161.603 871.692 157.17C871.692 152.737 870.806 149.26 869.032 146.74C867.259 144.22 864.459 142.96 860.632 142.96C856.806 142.96 854.029 144.22 852.302 146.74C850.576 149.26 849.712 152.737 849.712 157.17ZM940.869 138.48V170.82H946.329V189.02H940.379V176H914.269V189.02H908.389V170.82H911.399C914.619 166.387 917.022 161.347 918.609 155.7C920.242 150.007 921.082 144.267 921.129 138.48H940.869ZM926.589 143.31C926.402 146.483 925.912 149.773 925.119 153.18C924.325 156.54 923.299 159.76 922.039 162.84C920.825 165.92 919.402 168.58 917.769 170.82H934.919V143.31H926.589ZM971.672 137.78C974.892 137.78 977.646 138.48 979.932 139.88C982.266 141.28 984.039 143.263 985.252 145.83C986.512 148.35 987.142 151.313 987.142 154.72V158.43H961.452C961.546 162.677 962.619 165.92 964.672 168.16C966.772 170.353 969.689 171.45 973.422 171.45C975.802 171.45 977.902 171.24 979.722 170.82C981.589 170.353 983.502 169.7 985.462 168.86V174.25C983.549 175.09 981.659 175.697 979.792 176.07C977.926 176.49 975.709 176.7 973.142 176.7C969.596 176.7 966.446 175.977 963.692 174.53C960.986 173.083 958.862 170.937 957.322 168.09C955.829 165.197 955.082 161.673 955.082 157.52C955.082 153.413 955.759 149.89 957.112 146.95C958.512 144.01 960.449 141.747 962.922 140.16C965.442 138.573 968.359 137.78 971.672 137.78ZM971.602 142.82C968.662 142.82 966.329 143.777 964.602 145.69C962.922 147.557 961.919 150.17 961.592 153.53H980.702C980.656 150.357 979.909 147.79 978.462 145.83C977.016 143.823 974.729 142.82 971.602 142.82ZM1028.75 176H1022.52V143.59H1011.46C1010.86 151.477 1010.02 157.847 1008.94 162.7C1007.87 167.507 1006.45 171.007 1004.67 173.2C1002.9 175.393 1000.66 176.49 997.954 176.49C997.347 176.49 996.741 176.443 996.134 176.35C995.574 176.303 995.107 176.187 994.734 176V171.38C995.014 171.473 995.317 171.543 995.644 171.59C995.971 171.637 996.297 171.66 996.624 171.66C999.144 171.66 1001.15 168.977 1002.64 163.61C1004.18 158.243 1005.35 149.867 1006.14 138.48H1028.75V176ZM1058.37 137.85C1062.95 137.85 1066.33 138.853 1068.52 140.86C1070.72 142.867 1071.81 146.063 1071.81 150.45V176H1067.33L1066.14 170.68H1065.86C1064.23 172.733 1062.5 174.25 1060.68 175.23C1058.91 176.21 1056.44 176.7 1053.26 176.7C1049.86 176.7 1047.03 175.813 1044.79 174.04C1042.55 172.22 1041.43 169.397 1041.43 165.57C1041.43 161.837 1042.9 158.967 1045.84 156.96C1048.78 154.907 1053.31 153.787 1059.42 153.6L1065.79 153.39V151.15C1065.79 148.023 1065.12 145.853 1063.76 144.64C1062.41 143.427 1060.5 142.82 1058.02 142.82C1056.06 142.82 1054.2 143.123 1052.42 143.73C1050.65 144.29 1048.99 144.943 1047.45 145.69L1045.56 141.07C1047.2 140.183 1049.13 139.437 1051.37 138.83C1053.61 138.177 1055.95 137.85 1058.37 137.85ZM1060.19 157.87C1055.53 158.057 1052.28 158.803 1050.46 160.11C1048.69 161.417 1047.8 163.26 1047.8 165.64C1047.8 167.74 1048.43 169.28 1049.69 170.26C1051 171.24 1052.66 171.73 1054.66 171.73C1057.84 171.73 1060.47 170.867 1062.57 169.14C1064.67 167.367 1065.72 164.66 1065.72 161.02V157.66L1060.19 157.87ZM1112.8 143.66H1100.55V176H1094.46V143.66H1082.35V138.48H1112.8V143.66ZM1140.98 153.88C1150.74 153.88 1155.61 157.427 1155.61 164.52C1155.61 168.02 1154.42 170.82 1152.04 172.92C1149.66 174.973 1145.88 176 1140.7 176H1123.69V138.48H1129.85V153.88H1140.98ZM1149.45 164.87C1149.45 162.583 1148.64 161.043 1147 160.25C1145.42 159.41 1143.18 158.99 1140.28 158.99H1129.85V171.03H1140.42C1143.04 171.03 1145.18 170.563 1146.86 169.63C1148.59 168.697 1149.45 167.11 1149.45 164.87Z" fill="#007BFF"/>
<path d="M466.14 220.92V237H463.5V223.17H455.19V237H452.55V220.92H466.14ZM485.251 228.93C485.251 231.59 484.571 233.65 483.211 235.11C481.871 236.57 480.051 237.3 477.751 237.3C476.331 237.3 475.061 236.98 473.941 236.34C472.841 235.68 471.971 234.73 471.331 233.49C470.691 232.23 470.371 230.71 470.371 228.93C470.371 226.27 471.041 224.22 472.381 222.78C473.721 221.34 475.541 220.62 477.841 220.62C479.301 220.62 480.581 220.95 481.681 221.61C482.801 222.25 483.671 223.19 484.291 224.43C484.931 225.65 485.251 227.15 485.251 228.93ZM473.101 228.93C473.101 230.83 473.471 232.34 474.211 233.46C474.971 234.56 476.171 235.11 477.811 235.11C479.431 235.11 480.621 234.56 481.381 233.46C482.141 232.34 482.521 230.83 482.521 228.93C482.521 227.03 482.141 225.54 481.381 224.46C480.621 223.38 479.421 222.84 477.781 222.84C476.141 222.84 474.951 223.38 474.211 224.46C473.471 225.54 473.101 227.03 473.101 228.93ZM501.675 237H499.005V223.11H494.265C494.005 226.49 493.645 229.22 493.185 231.3C492.725 233.36 492.115 234.86 491.355 235.8C490.595 236.74 489.635 237.21 488.475 237.21C488.215 237.21 487.955 237.19 487.695 237.15C487.455 237.13 487.255 237.08 487.095 237V235.02C487.215 235.06 487.345 235.09 487.485 235.11C487.625 235.13 487.765 235.14 487.905 235.14C488.985 235.14 489.845 233.99 490.485 231.69C491.145 229.39 491.645 225.8 491.985 220.92H501.675V237ZM512.989 220.62C514.369 220.62 515.549 220.92 516.529 221.52C517.529 222.12 518.289 222.97 518.809 224.07C519.349 225.15 519.619 226.42 519.619 227.88V229.47H508.609C508.649 231.29 509.109 232.68 509.989 233.64C510.889 234.58 512.139 235.05 513.739 235.05C514.759 235.05 515.659 234.96 516.439 234.78C517.239 234.58 518.059 234.3 518.899 233.94V236.25C518.079 236.61 517.269 236.87 516.469 237.03C515.669 237.21 514.719 237.3 513.619 237.3C512.099 237.3 510.749 236.99 509.569 236.37C508.409 235.75 507.499 234.83 506.839 233.61C506.199 232.37 505.879 230.86 505.879 229.08C505.879 227.32 506.169 225.81 506.749 224.55C507.349 223.29 508.179 222.32 509.239 221.64C510.319 220.96 511.569 220.62 512.989 220.62ZM512.959 222.78C511.699 222.78 510.699 223.19 509.959 224.01C509.239 224.81 508.809 225.93 508.669 227.37H516.859C516.839 226.01 516.519 224.91 515.899 224.07C515.279 223.21 514.299 222.78 512.959 222.78ZM543.65 220.92V234.78H545.99V242.58H543.44V237H532.25V242.58H529.73V234.78H531.02C532.4 232.88 533.43 230.72 534.11 228.3C534.81 225.86 535.17 223.4 535.19 220.92H543.65ZM537.53 222.99C537.45 224.35 537.24 225.76 536.9 227.22C536.56 228.66 536.12 230.04 535.58 231.36C535.06 232.68 534.45 233.82 533.75 234.78H541.1V222.99H537.53ZM561.382 237H558.712V223.11H553.972C553.712 226.49 553.352 229.22 552.892 231.3C552.432 233.36 551.822 234.86 551.062 235.8C550.302 236.74 549.342 237.21 548.182 237.21C547.922 237.21 547.662 237.19 547.402 237.15C547.162 237.13 546.962 237.08 546.802 237V235.02C546.922 235.06 547.052 235.09 547.192 235.11C547.332 235.13 547.472 235.14 547.612 235.14C548.692 235.14 549.552 233.99 550.192 231.69C550.852 229.39 551.352 225.8 551.692 220.92H561.382V237ZM567.476 237H564.416L569.006 230.25C568.386 230.09 567.786 229.84 567.206 229.5C566.626 229.14 566.156 228.65 565.796 228.03C565.436 227.39 565.256 226.6 565.256 225.66C565.256 224.12 565.776 222.95 566.816 222.15C567.856 221.33 569.236 220.92 570.956 220.92H578.156V237H575.516V230.61H571.616L567.476 237ZM567.806 225.69C567.806 226.61 568.146 227.3 568.826 227.76C569.526 228.2 570.496 228.42 571.736 228.42H575.516V223.11H571.226C570.006 223.11 569.126 223.35 568.586 223.83C568.066 224.31 567.806 224.93 567.806 225.69ZM604.171 224.97C604.171 225.97 603.871 226.75 603.271 227.31C602.671 227.87 601.901 228.25 600.961 228.45V228.57C601.961 228.71 602.831 229.07 603.571 229.65C604.311 230.21 604.681 231.09 604.681 232.29C604.681 233.65 604.171 234.78 603.151 235.68C602.151 236.56 600.491 237 598.171 237H591.241V220.92H598.141C599.281 220.92 600.301 221.05 601.201 221.31C602.121 221.55 602.841 221.97 603.361 222.57C603.901 223.15 604.171 223.95 604.171 224.97ZM601.501 225.3C601.501 224.54 601.221 223.99 600.661 223.65C600.121 223.29 599.231 223.11 597.991 223.11H593.881V227.52H597.511C600.171 227.52 601.501 226.78 601.501 225.3ZM601.951 232.29C601.951 231.37 601.601 230.71 600.901 230.31C600.201 229.91 599.171 229.71 597.811 229.71H593.881V234.87H597.871C599.191 234.87 600.201 234.68 600.901 234.3C601.601 233.9 601.951 233.23 601.951 232.29ZM621.457 224.97C621.457 225.97 621.157 226.75 620.557 227.31C619.957 227.87 619.187 228.25 618.247 228.45V228.57C619.247 228.71 620.117 229.07 620.857 229.65C621.597 230.21 621.967 231.09 621.967 232.29C621.967 233.65 621.457 234.78 620.437 235.68C619.437 236.56 617.777 237 615.457 237H608.527V220.92H615.427C616.567 220.92 617.587 221.05 618.487 221.31C619.407 221.55 620.127 221.97 620.647 222.57C621.187 223.15 621.457 223.95 621.457 224.97ZM618.787 225.3C618.787 224.54 618.507 223.99 617.947 223.65C617.407 223.29 616.517 223.11 615.277 223.11H611.167V227.52H614.797C617.457 227.52 618.787 226.78 618.787 225.3ZM619.237 232.29C619.237 231.37 618.887 230.71 618.187 230.31C617.487 229.91 616.457 229.71 615.097 229.71H611.167V234.87H615.157C616.477 234.87 617.487 234.68 618.187 234.3C618.887 233.9 619.237 233.23 619.237 232.29ZM639.792 228.93C639.792 231.59 639.112 233.65 637.752 235.11C636.412 236.57 634.592 237.3 632.292 237.3C630.872 237.3 629.602 236.98 628.482 236.34C627.382 235.68 626.512 234.73 625.872 233.49C625.232 232.23 624.912 230.71 624.912 228.93C624.912 226.27 625.582 224.22 626.922 222.78C628.262 221.34 630.082 220.62 632.382 220.62C633.842 220.62 635.122 220.95 636.222 221.61C637.342 222.25 638.212 223.19 638.832 224.43C639.472 225.65 639.792 227.15 639.792 228.93ZM627.642 228.93C627.642 230.83 628.012 232.34 628.752 233.46C629.512 234.56 630.712 235.11 632.352 235.11C633.972 235.11 635.162 234.56 635.922 233.46C636.682 232.34 637.062 230.83 637.062 228.93C637.062 227.03 636.682 225.54 635.922 224.46C635.162 223.38 633.962 222.84 632.322 222.84C630.682 222.84 629.492 223.38 628.752 224.46C628.012 225.54 627.642 227.03 627.642 228.93ZM655.916 220.92V234.78H658.256V242.58H655.706V237H644.516V242.58H641.996V234.78H643.286C644.666 232.88 645.696 230.72 646.376 228.3C647.076 225.86 647.436 223.4 647.456 220.92H655.916ZM649.796 222.99C649.716 224.35 649.506 225.76 649.166 227.22C648.826 228.66 648.386 230.04 647.846 231.36C647.326 232.68 646.716 233.82 646.016 234.78H653.366V222.99H649.796ZM667.497 220.65C669.457 220.65 670.907 221.08 671.847 221.94C672.787 222.8 673.257 224.17 673.257 226.05V237H671.337L670.827 234.72H670.707C670.007 235.6 669.267 236.25 668.487 236.67C667.727 237.09 666.667 237.3 665.307 237.3C663.847 237.3 662.637 236.92 661.677 236.16C660.717 235.38 660.237 234.17 660.237 232.53C660.237 230.93 660.867 229.7 662.127 228.84C663.387 227.96 665.327 227.48 667.947 227.4L670.677 227.31V226.35C670.677 225.01 670.387 224.08 669.807 223.56C669.227 223.04 668.407 222.78 667.347 222.78C666.507 222.78 665.707 222.91 664.947 223.17C664.187 223.41 663.477 223.69 662.817 224.01L662.007 222.03C662.707 221.65 663.537 221.33 664.497 221.07C665.457 220.79 666.457 220.65 667.497 220.65ZM668.277 229.23C666.277 229.31 664.887 229.63 664.107 230.19C663.347 230.75 662.967 231.54 662.967 232.56C662.967 233.46 663.237 234.12 663.777 234.54C664.337 234.96 665.047 235.17 665.907 235.17C667.267 235.17 668.397 234.8 669.297 234.06C670.197 233.3 670.647 232.14 670.647 230.58V229.14L668.277 229.23ZM697.322 223.14H692.072V237H689.462V223.14H684.272V220.92H697.322V223.14ZM706.406 220.62C707.786 220.62 708.966 220.92 709.946 221.52C710.946 222.12 711.706 222.97 712.226 224.07C712.766 225.15 713.036 226.42 713.036 227.88V229.47H702.026C702.066 231.29 702.526 232.68 703.406 233.64C704.306 234.58 705.556 235.05 707.156 235.05C708.176 235.05 709.076 234.96 709.856 234.78C710.656 234.58 711.476 234.3 712.316 233.94V236.25C711.496 236.61 710.686 236.87 709.886 237.03C709.086 237.21 708.136 237.3 707.036 237.3C705.516 237.3 704.166 236.99 702.986 236.37C701.826 235.75 700.916 234.83 700.256 233.61C699.616 232.37 699.296 230.86 699.296 229.08C699.296 227.32 699.586 225.81 700.166 224.55C700.766 223.29 701.596 222.32 702.656 221.64C703.736 220.96 704.986 220.62 706.406 220.62ZM706.376 222.78C705.116 222.78 704.116 223.19 703.376 224.01C702.656 224.81 702.226 225.93 702.086 227.37H710.276C710.256 226.01 709.936 224.91 709.316 224.07C708.696 223.21 707.716 222.78 706.376 222.78ZM729.37 237H726.7V223.11H721.96C721.7 226.49 721.34 229.22 720.88 231.3C720.42 233.36 719.81 234.86 719.05 235.8C718.29 236.74 717.33 237.21 716.17 237.21C715.91 237.21 715.65 237.19 715.39 237.15C715.15 237.13 714.95 237.08 714.79 237V235.02C714.91 235.06 715.04 235.09 715.18 235.11C715.32 235.13 715.46 235.14 715.6 235.14C716.68 235.14 717.54 233.99 718.18 231.69C718.84 229.39 719.34 225.8 719.68 220.92H729.37V237ZM740.684 220.62C742.064 220.62 743.244 220.92 744.224 221.52C745.224 222.12 745.984 222.97 746.504 224.07C747.044 225.15 747.314 226.42 747.314 227.88V229.47H736.304C736.344 231.29 736.804 232.68 737.684 233.64C738.584 234.58 739.834 235.05 741.434 235.05C742.454 235.05 743.354 234.96 744.134 234.78C744.934 234.58 745.754 234.3 746.594 233.94V236.25C745.774 236.61 744.964 236.87 744.164 237.03C743.364 237.21 742.414 237.3 741.314 237.3C739.794 237.3 738.444 236.99 737.264 236.37C736.104 235.75 735.194 234.83 734.534 233.61C733.894 232.37 733.574 230.86 733.574 229.08C733.574 227.32 733.864 225.81 734.444 224.55C735.044 223.29 735.874 222.32 736.934 221.64C738.014 220.96 739.264 220.62 740.684 220.62ZM740.654 222.78C739.394 222.78 738.394 223.19 737.654 224.01C736.934 224.81 736.504 225.93 736.364 227.37H744.554C744.534 226.01 744.214 224.91 743.594 224.07C742.974 223.21 741.994 222.78 740.654 222.78ZM761.007 220.68C762.607 220.82 763.997 221.24 765.177 221.94C766.377 222.64 767.307 223.58 767.967 224.76C768.627 225.94 768.957 227.34 768.957 228.96C768.957 231.38 768.247 233.31 766.827 234.75C765.427 236.19 763.487 237.02 761.007 237.24V244.2H758.427V237.24C756.847 237.1 755.457 236.69 754.257 236.01C753.057 235.31 752.127 234.37 751.467 233.19C750.807 231.99 750.477 230.58 750.477 228.96C750.477 226.52 751.177 224.58 752.577 223.14C753.997 221.7 755.977 220.88 758.517 220.68V214.2H761.007V220.68ZM758.517 222.87C756.677 223.05 755.337 223.66 754.497 224.7C753.657 225.72 753.237 227.14 753.237 228.96C753.237 230.78 753.657 232.21 754.497 233.25C755.357 234.29 756.697 234.9 758.517 235.08V222.87ZM761.007 235.08C762.807 234.88 764.127 234.26 764.967 233.22C765.807 232.18 766.227 230.76 766.227 228.96C766.227 227.16 765.797 225.75 764.937 224.73C764.097 223.71 762.787 223.1 761.007 222.9V235.08ZM787.126 228.93C787.126 231.59 786.446 233.65 785.086 235.11C783.746 236.57 781.926 237.3 779.626 237.3C778.206 237.3 776.936 236.98 775.816 236.34C774.716 235.68 773.846 234.73 773.206 233.49C772.566 232.23 772.246 230.71 772.246 228.93C772.246 226.27 772.916 224.22 774.256 222.78C775.596 221.34 777.416 220.62 779.716 220.62C781.176 220.62 782.456 220.95 783.556 221.61C784.676 222.25 785.546 223.19 786.166 224.43C786.806 225.65 787.126 227.15 787.126 228.93ZM774.976 228.93C774.976 230.83 775.346 232.34 776.086 233.46C776.846 234.56 778.046 235.11 779.686 235.11C781.306 235.11 782.496 234.56 783.256 233.46C784.016 232.34 784.396 230.83 784.396 228.93C784.396 227.03 784.016 225.54 783.256 224.46C782.496 223.38 781.296 222.84 779.656 222.84C778.016 222.84 776.826 223.38 776.086 224.46C775.346 225.54 774.976 227.03 774.976 228.93ZM793.95 220.92V227.61H802.68V220.92H805.32V237H802.68V229.83H793.95V237H791.31V220.92H793.95ZM813.051 220.92V227.61H821.781V220.92H824.421V237H821.781V229.83H813.051V237H810.411V220.92H813.051ZM843.493 228.93C843.493 231.59 842.813 233.65 841.453 235.11C840.113 236.57 838.293 237.3 835.993 237.3C834.573 237.3 833.303 236.98 832.183 236.34C831.083 235.68 830.213 234.73 829.573 233.49C828.933 232.23 828.613 230.71 828.613 228.93C828.613 226.27 829.283 224.22 830.623 222.78C831.963 221.34 833.783 220.62 836.083 220.62C837.543 220.62 838.823 220.95 839.923 221.61C841.043 222.25 841.913 223.19 842.533 224.43C843.173 225.65 843.493 227.15 843.493 228.93ZM831.343 228.93C831.343 230.83 831.713 232.34 832.453 233.46C833.213 234.56 834.413 235.11 836.053 235.11C837.673 235.11 838.863 234.56 839.623 233.46C840.383 232.34 840.763 230.83 840.763 228.93C840.763 227.03 840.383 225.54 839.623 224.46C838.863 223.38 837.663 222.84 836.023 222.84C834.383 222.84 833.193 223.38 832.453 224.46C831.713 225.54 831.343 227.03 831.343 228.93ZM857.487 220.92V223.14H850.317V237H847.677V220.92H857.487ZM874.342 228.93C874.342 231.59 873.663 233.65 872.303 235.11C870.963 236.57 869.143 237.3 866.843 237.3C865.423 237.3 864.153 236.98 863.033 236.34C861.933 235.68 861.063 234.73 860.423 233.49C859.783 232.23 859.463 230.71 859.463 228.93C859.463 226.27 860.133 224.22 861.473 222.78C862.813 221.34 864.633 220.62 866.933 220.62C868.393 220.62 869.673 220.95 870.773 221.61C871.893 222.25 872.763 223.19 873.383 224.43C874.023 225.65 874.342 227.15 874.342 228.93ZM862.193 228.93C862.193 230.83 862.563 232.34 863.303 233.46C864.063 234.56 865.263 235.11 866.903 235.11C868.523 235.11 869.713 234.56 870.473 233.46C871.233 232.34 871.613 230.83 871.613 228.93C871.613 227.03 871.233 225.54 870.473 224.46C869.713 223.38 868.513 222.84 866.873 222.84C865.233 222.84 864.043 223.38 863.303 224.46C862.563 225.54 862.193 227.03 862.193 228.93ZM889.165 220.92V227.61H897.895V220.92H900.535V237H897.895V229.83H889.165V237H886.525V220.92H889.165ZM919.606 228.93C919.606 231.59 918.926 233.65 917.566 235.11C916.226 236.57 914.406 237.3 912.106 237.3C910.686 237.3 909.416 236.98 908.296 236.34C907.196 235.68 906.326 234.73 905.686 233.49C905.046 232.23 904.726 230.71 904.726 228.93C904.726 226.27 905.396 224.22 906.736 222.78C908.076 221.34 909.896 220.62 912.196 220.62C913.656 220.62 914.936 220.95 916.036 221.61C917.156 222.25 918.026 223.19 918.646 224.43C919.286 225.65 919.606 227.15 919.606 228.93ZM907.456 228.93C907.456 230.83 907.826 232.34 908.566 233.46C909.326 234.56 910.526 235.11 912.166 235.11C913.786 235.11 914.976 234.56 915.736 233.46C916.496 232.34 916.876 230.83 916.876 228.93C916.876 227.03 916.496 225.54 915.736 224.46C914.976 223.38 913.776 222.84 912.136 222.84C910.496 222.84 909.306 223.38 908.566 224.46C907.826 225.54 907.456 227.03 907.456 228.93ZM941.04 220.92V237H938.67V226.74C938.67 226.32 938.68 225.88 938.7 225.42C938.74 224.96 938.78 224.51 938.82 224.07H938.73L933.48 237H931.26L926.16 224.07H926.07C926.13 224.97 926.16 225.89 926.16 226.83V237H923.79V220.92H927.3L932.37 233.85L937.53 220.92H941.04ZM952.383 220.62C953.763 220.62 954.943 220.92 955.923 221.52C956.923 222.12 957.683 222.97 958.203 224.07C958.743 225.15 959.013 226.42 959.013 227.88V229.47H948.003C948.043 231.29 948.503 232.68 949.383 233.64C950.283 234.58 951.533 235.05 953.133 235.05C954.153 235.05 955.053 234.96 955.833 234.78C956.633 234.58 957.453 234.3 958.293 233.94V236.25C957.473 236.61 956.663 236.87 955.863 237.03C955.063 237.21 954.113 237.3 953.013 237.3C951.493 237.3 950.143 236.99 948.963 236.37C947.803 235.75 946.893 234.83 946.233 233.61C945.593 232.37 945.273 230.86 945.273 229.08C945.273 227.32 945.563 225.81 946.143 224.55C946.743 223.29 947.573 222.32 948.633 221.64C949.713 220.96 950.963 220.62 952.383 220.62ZM952.353 222.78C951.093 222.78 950.093 223.19 949.353 224.01C948.633 224.81 948.203 225.93 948.063 227.37H956.253C956.233 226.01 955.913 224.91 955.293 224.07C954.673 223.21 953.693 222.78 952.353 222.78ZM970.757 220.62C972.737 220.62 974.327 221.31 975.527 222.69C976.747 224.07 977.357 226.15 977.357 228.93C977.357 231.67 976.747 233.75 975.527 235.17C974.327 236.59 972.727 237.3 970.727 237.3C969.487 237.3 968.457 237.07 967.637 236.61C966.837 236.13 966.207 235.58 965.747 234.96H965.567C965.607 235.3 965.647 235.73 965.687 236.25C965.727 236.77 965.747 237.22 965.747 237.6V244.2H963.107V220.92H965.267L965.627 223.11H965.747C966.227 222.41 966.857 221.82 967.637 221.34C968.417 220.86 969.457 220.62 970.757 220.62ZM970.277 222.84C968.637 222.84 967.477 223.3 966.797 224.22C966.137 225.14 965.787 226.54 965.747 228.42V228.93C965.747 230.91 966.067 232.44 966.707 233.52C967.367 234.58 968.577 235.11 970.337 235.11C971.317 235.11 972.117 234.84 972.737 234.3C973.377 233.76 973.847 233.03 974.147 232.11C974.467 231.17 974.627 230.1 974.627 228.9C974.627 227.06 974.267 225.59 973.547 224.49C972.847 223.39 971.757 222.84 970.277 222.84ZM987.654 220.65C989.614 220.65 991.064 221.08 992.004 221.94C992.944 222.8 993.414 224.17 993.414 226.05V237H991.494L990.984 234.72H990.864C990.164 235.6 989.424 236.25 988.644 236.67C987.884 237.09 986.824 237.3 985.464 237.3C984.004 237.3 982.794 236.92 981.834 236.16C980.874 235.38 980.394 234.17 980.394 232.53C980.394 230.93 981.024 229.7 982.284 228.84C983.544 227.96 985.484 227.48 988.104 227.4L990.834 227.31V226.35C990.834 225.01 990.544 224.08 989.964 223.56C989.384 223.04 988.564 222.78 987.504 222.78C986.664 222.78 985.864 222.91 985.104 223.17C984.344 223.41 983.634 223.69 982.974 224.01L982.164 222.03C982.864 221.65 983.694 221.33 984.654 221.07C985.614 220.79 986.614 220.65 987.654 220.65ZM988.434 229.23C986.434 229.31 985.044 229.63 984.264 230.19C983.504 230.75 983.124 231.54 983.124 232.56C983.124 233.46 983.394 234.12 983.934 234.54C984.494 234.96 985.204 235.17 986.064 235.17C987.424 235.17 988.554 234.8 989.454 234.06C990.354 233.3 990.804 232.14 990.804 230.58V229.14L988.434 229.23ZM1017.54 224.85V227.16H1005.57V224.85H1017.54ZM1037.35 237.3C1035.93 237.3 1034.66 237.01 1033.54 236.43C1032.44 235.85 1031.57 234.95 1030.93 233.73C1030.31 232.51 1030 230.95 1030 229.05C1030 227.07 1030.33 225.46 1030.99 224.22C1031.65 222.98 1032.54 222.07 1033.66 221.49C1034.8 220.91 1036.09 220.62 1037.53 220.62C1038.35 220.62 1039.14 220.71 1039.9 220.89C1040.66 221.05 1041.28 221.25 1041.76 221.49L1040.95 223.68C1040.47 223.5 1039.91 223.33 1039.27 223.17C1038.63 223.01 1038.03 222.93 1037.47 222.93C1034.31 222.93 1032.73 224.96 1032.73 229.02C1032.73 230.96 1033.11 232.45 1033.87 233.49C1034.65 234.51 1035.8 235.02 1037.32 235.02C1038.2 235.02 1038.97 234.93 1039.63 234.75C1040.31 234.57 1040.93 234.35 1041.49 234.09V236.43C1040.95 236.71 1040.35 236.92 1039.69 237.06C1039.05 237.22 1038.27 237.3 1037.35 237.3ZM1057.55 237H1054.88V223.11H1050.14C1049.88 226.49 1049.52 229.22 1049.06 231.3C1048.6 233.36 1047.99 234.86 1047.23 235.8C1046.47 236.74 1045.51 237.21 1044.35 237.21C1044.09 237.21 1043.83 237.19 1043.57 237.15C1043.33 237.13 1043.13 237.08 1042.97 237V235.02C1043.09 235.06 1043.22 235.09 1043.36 235.11C1043.5 235.13 1043.64 235.14 1043.78 235.14C1044.86 235.14 1045.72 233.99 1046.36 231.69C1047.02 229.39 1047.52 225.8 1047.86 220.92H1057.55V237ZM1068.75 220.65C1070.71 220.65 1072.16 221.08 1073.1 221.94C1074.04 222.8 1074.51 224.17 1074.51 226.05V237H1072.59L1072.08 234.72H1071.96C1071.26 235.6 1070.52 236.25 1069.74 236.67C1068.98 237.09 1067.92 237.3 1066.56 237.3C1065.1 237.3 1063.89 236.92 1062.93 236.16C1061.97 235.38 1061.49 234.17 1061.49 232.53C1061.49 230.93 1062.12 229.7 1063.38 228.84C1064.64 227.96 1066.58 227.48 1069.2 227.4L1071.93 227.31V226.35C1071.93 225.01 1071.64 224.08 1071.06 223.56C1070.48 223.04 1069.66 222.78 1068.6 222.78C1067.76 222.78 1066.96 222.91 1066.2 223.17C1065.44 223.41 1064.73 223.69 1064.07 224.01L1063.26 222.03C1063.96 221.65 1064.79 221.33 1065.75 221.07C1066.71 220.79 1067.71 220.65 1068.75 220.65ZM1069.53 229.23C1067.53 229.31 1066.14 229.63 1065.36 230.19C1064.6 230.75 1064.22 231.54 1064.22 232.56C1064.22 233.46 1064.49 234.12 1065.03 234.54C1065.59 234.96 1066.3 235.17 1067.16 235.17C1068.52 235.17 1069.65 234.8 1070.55 234.06C1071.45 233.3 1071.9 232.14 1071.9 230.58V229.14L1069.53 229.23ZM1092.49 214.26C1092.35 215.76 1091.84 216.9 1090.96 217.68C1090.1 218.44 1088.72 218.82 1086.82 218.82C1084.86 218.82 1083.47 218.44 1082.65 217.68C1081.85 216.92 1081.4 215.78 1081.3 214.26H1083.76C1083.86 215.34 1084.14 216.07 1084.6 216.45C1085.08 216.81 1085.84 216.99 1086.88 216.99C1087.8 216.99 1088.52 216.8 1089.04 216.42C1089.58 216.02 1089.9 215.3 1090 214.26H1092.49ZM1081.96 230.73C1081.96 230.97 1081.95 231.33 1081.93 231.81C1081.91 232.29 1081.88 232.77 1081.84 233.25C1081.82 233.73 1081.8 234.11 1081.78 234.39L1090.39 220.92H1093.63V237H1091.17V227.52C1091.17 227.2 1091.17 226.78 1091.17 226.26C1091.19 225.74 1091.21 225.23 1091.23 224.73C1091.25 224.21 1091.27 223.82 1091.29 223.56L1082.74 237H1079.47V220.92H1081.96V230.73ZM1110.69 220.92V234.78H1113.03V242.58H1110.48V237H1099.29V242.58H1096.77V234.78H1098.06C1099.44 232.88 1100.47 230.72 1101.15 228.3C1101.85 225.86 1102.21 223.4 1102.23 220.92H1110.69ZM1104.57 222.99C1104.49 224.35 1104.28 225.76 1103.94 227.22C1103.6 228.66 1103.16 230.04 1102.62 231.36C1102.1 232.68 1101.49 233.82 1100.79 234.78H1108.14V222.99H1104.57ZM1122.39 220.62C1123.77 220.62 1124.95 220.92 1125.93 221.52C1126.93 222.12 1127.69 222.97 1128.21 224.07C1128.75 225.15 1129.02 226.42 1129.02 227.88V229.47H1118.01C1118.05 231.29 1118.51 232.68 1119.39 233.64C1120.29 234.58 1121.54 235.05 1123.14 235.05C1124.16 235.05 1125.06 234.96 1125.84 234.78C1126.64 234.58 1127.46 234.3 1128.3 233.94V236.25C1127.48 236.61 1126.67 236.87 1125.87 237.03C1125.07 237.21 1124.12 237.3 1123.02 237.3C1121.5 237.3 1120.15 236.99 1118.97 236.37C1117.81 235.75 1116.9 234.83 1116.24 233.61C1115.6 232.37 1115.28 230.86 1115.28 229.08C1115.28 227.32 1115.57 225.81 1116.15 224.55C1116.75 223.29 1117.58 222.32 1118.64 221.64C1119.72 220.96 1120.97 220.62 1122.39 220.62ZM1122.36 222.78C1121.1 222.78 1120.1 223.19 1119.36 224.01C1118.64 224.81 1118.21 225.93 1118.07 227.37H1126.26C1126.24 226.01 1125.92 224.91 1125.3 224.07C1124.68 223.21 1123.7 222.78 1122.36 222.78ZM1140.77 220.62C1142.75 220.62 1144.34 221.31 1145.54 222.69C1146.76 224.07 1147.37 226.15 1147.37 228.93C1147.37 231.67 1146.76 233.75 1145.54 235.17C1144.34 236.59 1142.74 237.3 1140.74 237.3C1139.5 237.3 1138.47 237.07 1137.65 236.61C1136.85 236.13 1136.22 235.58 1135.76 234.96H1135.58C1135.62 235.3 1135.66 235.73 1135.7 236.25C1135.74 236.77 1135.76 237.22 1135.76 237.6V244.2H1133.12V220.92H1135.28L1135.64 223.11H1135.76C1136.24 222.41 1136.87 221.82 1137.65 221.34C1138.43 220.86 1139.47 220.62 1140.77 220.62ZM1140.29 222.84C1138.65 222.84 1137.49 223.3 1136.81 224.22C1136.15 225.14 1135.8 226.54 1135.76 228.42V228.93C1135.76 230.91 1136.08 232.44 1136.72 233.52C1137.38 234.58 1138.59 235.11 1140.35 235.11C1141.33 235.11 1142.13 234.84 1142.75 234.3C1143.39 233.76 1143.86 233.03 1144.16 232.11C1144.48 231.17 1144.64 230.1 1144.64 228.9C1144.64 227.06 1144.28 225.59 1143.56 224.49C1142.86 223.39 1141.77 222.84 1140.29 222.84Z" fill="#007BFF"/>
<path d="M588.675 411.01C591.801 411.01 594.158 411.477 595.745 412.41C597.355 413.32 598.16 414.918 598.16 417.205C598.16 418.675 597.751 419.9 596.935 420.88C596.118 421.837 594.94 422.455 593.4 422.735V422.91C594.45 423.073 595.395 423.377 596.235 423.82C597.098 424.263 597.775 424.893 598.265 425.71C598.755 426.527 599 427.588 599 428.895C599 431.158 598.218 432.908 596.655 434.145C595.115 435.382 593.003 436 590.32 436H581.535V411.01H588.675ZM589.305 421.65C591.451 421.65 592.921 421.312 593.715 420.635C594.508 419.935 594.905 418.908 594.905 417.555C594.905 416.178 594.415 415.198 593.435 414.615C592.478 414.008 590.938 413.705 588.815 413.705H584.685V421.65H589.305ZM584.685 424.275V433.34H589.725C591.941 433.34 593.481 432.908 594.345 432.045C595.208 431.182 595.64 430.05 595.64 428.65C595.64 427.343 595.185 426.293 594.275 425.5C593.388 424.683 591.79 424.275 589.48 424.275H584.685ZM618.963 421.965C618.963 423.132 618.613 424.042 617.913 424.695C617.213 425.348 616.315 425.792 615.218 426.025V426.165C616.385 426.328 617.4 426.748 618.263 427.425C619.127 428.078 619.558 429.105 619.558 430.505C619.558 432.092 618.963 433.41 617.773 434.46C616.607 435.487 614.67 436 611.963 436H603.878V417.24H611.928C613.258 417.24 614.448 417.392 615.498 417.695C616.572 417.975 617.412 418.465 618.018 419.165C618.648 419.842 618.963 420.775 618.963 421.965ZM615.848 422.35C615.848 421.463 615.522 420.822 614.868 420.425C614.238 420.005 613.2 419.795 611.753 419.795H606.958V424.94H611.193C614.297 424.94 615.848 424.077 615.848 422.35ZM616.373 430.505C616.373 429.432 615.965 428.662 615.148 428.195C614.332 427.728 613.13 427.495 611.543 427.495H606.958V433.515H611.613C613.153 433.515 614.332 433.293 615.148 432.85C615.965 432.383 616.373 431.602 616.373 430.505ZM631.289 416.89C632.899 416.89 634.276 417.24 635.419 417.94C636.586 418.64 637.473 419.632 638.079 420.915C638.709 422.175 639.024 423.657 639.024 425.36V427.215H626.179C626.226 429.338 626.763 430.96 627.789 432.08C628.839 433.177 630.298 433.725 632.164 433.725C633.354 433.725 634.404 433.62 635.314 433.41C636.248 433.177 637.204 432.85 638.184 432.43V435.125C637.228 435.545 636.283 435.848 635.349 436.035C634.416 436.245 633.308 436.35 632.024 436.35C630.251 436.35 628.676 435.988 627.299 435.265C625.946 434.542 624.884 433.468 624.114 432.045C623.368 430.598 622.994 428.837 622.994 426.76C622.994 424.707 623.333 422.945 624.009 421.475C624.709 420.005 625.678 418.873 626.914 418.08C628.174 417.287 629.633 416.89 631.289 416.89ZM631.254 419.41C629.784 419.41 628.618 419.888 627.754 420.845C626.914 421.778 626.413 423.085 626.249 424.765H635.804C635.781 423.178 635.408 421.895 634.684 420.915C633.961 419.912 632.818 419.41 631.254 419.41ZM657.73 417.24V433.41H660.46V442.51H657.485V436H644.43V442.51H641.49V433.41H642.995C644.605 431.193 645.807 428.673 646.6 425.85C647.417 423.003 647.837 420.133 647.86 417.24H657.73ZM650.59 419.655C650.497 421.242 650.252 422.887 649.855 424.59C649.459 426.27 648.945 427.88 648.315 429.42C647.709 430.96 646.997 432.29 646.18 433.41H654.755V419.655H650.59ZM667.042 428.685C667.042 428.965 667.03 429.385 667.007 429.945C666.984 430.505 666.949 431.065 666.902 431.625C666.879 432.185 666.855 432.628 666.832 432.955L676.877 417.24H680.657V436H677.787V424.94C677.787 424.567 677.787 424.077 677.787 423.47C677.81 422.863 677.834 422.268 677.857 421.685C677.88 421.078 677.904 420.623 677.927 420.32L667.952 436H664.137V417.24H667.042V428.685ZM699.577 419.83H693.452V436H690.407V419.83H684.352V417.24H699.577V419.83ZM710.176 416.89C711.786 416.89 713.163 417.24 714.306 417.94C715.473 418.64 716.359 419.632 716.966 420.915C717.596 422.175 717.911 423.657 717.911 425.36V427.215H705.066C705.113 429.338 705.649 430.96 706.676 432.08C707.726 433.177 709.184 433.725 711.051 433.725C712.241 433.725 713.291 433.62 714.201 433.41C715.134 433.177 716.091 432.85 717.071 432.43V435.125C716.114 435.545 715.169 435.848 714.236 436.035C713.303 436.245 712.194 436.35 710.911 436.35C709.138 436.35 707.563 435.988 706.186 435.265C704.833 434.542 703.771 433.468 703.001 432.045C702.254 430.598 701.881 428.837 701.881 426.76C701.881 424.707 702.219 422.945 702.896 421.475C703.596 420.005 704.564 418.873 705.801 418.08C707.061 417.287 708.519 416.89 710.176 416.89ZM710.141 419.41C708.671 419.41 707.504 419.888 706.641 420.845C705.801 421.778 705.299 423.085 705.136 424.765H714.691C714.668 423.178 714.294 421.895 713.571 420.915C712.848 419.912 711.704 419.41 710.141 419.41ZM734.859 417.24V425.045H745.044V417.24H748.124V436H745.044V427.635H734.859V436H731.779V417.24H734.859ZM770.374 426.585C770.374 429.688 769.581 432.092 767.994 433.795C766.431 435.498 764.307 436.35 761.624 436.35C759.967 436.35 758.486 435.977 757.179 435.23C755.896 434.46 754.881 433.352 754.134 431.905C753.387 430.435 753.014 428.662 753.014 426.585C753.014 423.482 753.796 421.09 755.359 419.41C756.922 417.73 759.046 416.89 761.729 416.89C763.432 416.89 764.926 417.275 766.209 418.045C767.516 418.792 768.531 419.888 769.254 421.335C770.001 422.758 770.374 424.508 770.374 426.585ZM756.199 426.585C756.199 428.802 756.631 430.563 757.494 431.87C758.381 433.153 759.781 433.795 761.694 433.795C763.584 433.795 764.972 433.153 765.859 431.87C766.746 430.563 767.189 428.802 767.189 426.585C767.189 424.368 766.746 422.63 765.859 421.37C764.972 420.11 763.572 419.48 761.659 419.48C759.746 419.48 758.357 420.11 757.494 421.37C756.631 422.63 756.199 424.368 756.199 426.585ZM795.38 417.24V436H792.615V424.03C792.615 423.54 792.627 423.027 792.65 422.49C792.697 421.953 792.744 421.428 792.79 420.915H792.685L786.56 436H783.97L778.02 420.915H777.915C777.985 421.965 778.02 423.038 778.02 424.135V436H775.255V417.24H779.35L785.265 432.325L791.285 417.24H795.38ZM808.614 416.89C810.224 416.89 811.6 417.24 812.744 417.94C813.91 418.64 814.797 419.632 815.404 420.915C816.034 422.175 816.349 423.657 816.349 425.36V427.215H803.504C803.55 429.338 804.087 430.96 805.114 432.08C806.164 433.177 807.622 433.725 809.489 433.725C810.679 433.725 811.729 433.62 812.639 433.41C813.572 433.177 814.529 432.85 815.509 432.43V435.125C814.552 435.545 813.607 435.848 812.674 436.035C811.74 436.245 810.632 436.35 809.349 436.35C807.575 436.35 806 435.988 804.624 435.265C803.27 434.542 802.209 433.468 801.439 432.045C800.692 430.598 800.319 428.837 800.319 426.76C800.319 424.707 800.657 422.945 801.334 421.475C802.034 420.005 803.002 418.873 804.239 418.08C805.499 417.287 806.957 416.89 808.614 416.89ZM808.579 419.41C807.109 419.41 805.942 419.888 805.079 420.845C804.239 421.778 803.737 423.085 803.574 424.765H813.129C813.105 423.178 812.732 421.895 812.009 420.915C811.285 419.912 810.142 419.41 808.579 419.41ZM830.049 416.89C832.359 416.89 834.214 417.695 835.614 419.305C837.038 420.915 837.749 423.342 837.749 426.585C837.749 429.782 837.038 432.208 835.614 433.865C834.214 435.522 832.348 436.35 830.014 436.35C828.568 436.35 827.366 436.082 826.409 435.545C825.476 434.985 824.741 434.343 824.204 433.62H823.994C824.041 434.017 824.088 434.518 824.134 435.125C824.181 435.732 824.204 436.257 824.204 436.7V444.4H821.124V417.24H823.644L824.064 419.795H824.204C824.764 418.978 825.499 418.29 826.409 417.73C827.319 417.17 828.533 416.89 830.049 416.89ZM829.489 419.48C827.576 419.48 826.223 420.017 825.429 421.09C824.659 422.163 824.251 423.797 824.204 425.99V426.585C824.204 428.895 824.578 430.68 825.324 431.94C826.094 433.177 827.506 433.795 829.559 433.795C830.703 433.795 831.636 433.48 832.359 432.85C833.106 432.22 833.654 431.368 834.004 430.295C834.378 429.198 834.564 427.95 834.564 426.55C834.564 424.403 834.144 422.688 833.304 421.405C832.488 420.122 831.216 419.48 829.489 419.48ZM864.699 419.83H858.574V436H855.529V419.83H849.474V417.24H864.699V419.83ZM875.298 416.89C876.908 416.89 878.285 417.24 879.428 417.94C880.595 418.64 881.481 419.632 882.088 420.915C882.718 422.175 883.033 423.657 883.033 425.36V427.215H870.188C870.235 429.338 870.771 430.96 871.798 432.08C872.848 433.177 874.306 433.725 876.173 433.725C877.363 433.725 878.413 433.62 879.323 433.41C880.256 433.177 881.213 432.85 882.193 432.43V435.125C881.236 435.545 880.291 435.848 879.358 436.035C878.425 436.245 877.316 436.35 876.033 436.35C874.26 436.35 872.685 435.988 871.308 435.265C869.955 434.542 868.893 433.468 868.123 432.045C867.376 430.598 867.003 428.837 867.003 426.76C867.003 424.707 867.341 422.945 868.018 421.475C868.718 420.005 869.686 418.873 870.923 418.08C872.183 417.287 873.641 416.89 875.298 416.89ZM875.263 419.41C873.793 419.41 872.626 419.888 871.763 420.845C870.923 421.778 870.421 423.085 870.258 424.765H879.813C879.79 423.178 879.416 421.895 878.693 420.915C877.97 419.912 876.826 419.41 875.263 419.41ZM902.089 436H898.974V419.795H893.444C893.141 423.738 892.721 426.923 892.184 429.35C891.647 431.753 890.936 433.503 890.049 434.6C889.162 435.697 888.042 436.245 886.689 436.245C886.386 436.245 886.082 436.222 885.779 436.175C885.499 436.152 885.266 436.093 885.079 436V433.69C885.219 433.737 885.371 433.772 885.534 433.795C885.697 433.818 885.861 433.83 886.024 433.83C887.284 433.83 888.287 432.488 889.034 429.805C889.804 427.122 890.387 422.933 890.784 417.24H902.089V436ZM915.288 416.89C916.898 416.89 918.275 417.24 919.418 417.94C920.585 418.64 921.472 419.632 922.078 420.915C922.708 422.175 923.023 423.657 923.023 425.36V427.215H910.178C910.225 429.338 910.762 430.96 911.788 432.08C912.838 433.177 914.297 433.725 916.163 433.725C917.353 433.725 918.403 433.62 919.313 433.41C920.247 433.177 921.203 432.85 922.183 432.43V435.125C921.227 435.545 920.282 435.848 919.348 436.035C918.415 436.245 917.307 436.35 916.023 436.35C914.25 436.35 912.675 435.988 911.298 435.265C909.945 434.542 908.883 433.468 908.113 432.045C907.367 430.598 906.993 428.837 906.993 426.76C906.993 424.707 907.332 422.945 908.008 421.475C908.708 420.005 909.677 418.873 910.913 418.08C912.173 417.287 913.632 416.89 915.288 416.89ZM915.253 419.41C913.783 419.41 912.617 419.888 911.753 420.845C910.913 421.778 910.412 423.085 910.248 424.765H919.803C919.78 423.178 919.407 421.895 918.683 420.915C917.96 419.912 916.817 419.41 915.253 419.41ZM938.999 416.96C940.866 417.123 942.488 417.613 943.864 418.43C945.264 419.247 946.349 420.343 947.119 421.72C947.889 423.097 948.274 424.73 948.274 426.62C948.274 429.443 947.446 431.695 945.789 433.375C944.156 435.055 941.893 436.023 938.999 436.28V444.4H935.989V436.28C934.146 436.117 932.524 435.638 931.124 434.845C929.724 434.028 928.639 432.932 927.869 431.555C927.099 430.155 926.714 428.51 926.714 426.62C926.714 423.773 927.531 421.51 929.164 419.83C930.821 418.15 933.131 417.193 936.094 416.96V409.4H938.999V416.96ZM936.094 419.515C933.948 419.725 932.384 420.437 931.404 421.65C930.424 422.84 929.934 424.497 929.934 426.62C929.934 428.743 930.424 430.412 931.404 431.625C932.408 432.838 933.971 433.55 936.094 433.76V419.515ZM938.999 433.76C941.099 433.527 942.639 432.803 943.619 431.59C944.599 430.377 945.089 428.72 945.089 426.62C945.089 424.52 944.588 422.875 943.584 421.685C942.604 420.495 941.076 419.783 938.999 419.55V433.76ZM969.471 426.585C969.471 429.688 968.677 432.092 967.091 433.795C965.527 435.498 963.404 436.35 960.721 436.35C959.064 436.35 957.582 435.977 956.276 435.23C954.992 434.46 953.977 433.352 953.231 431.905C952.484 430.435 952.111 428.662 952.111 426.585C952.111 423.482 952.892 421.09 954.456 419.41C956.019 417.73 958.142 416.89 960.826 416.89C962.529 416.89 964.022 417.275 965.306 418.045C966.612 418.792 967.627 419.888 968.351 421.335C969.097 422.758 969.471 424.508 969.471 426.585ZM955.296 426.585C955.296 428.802 955.727 430.563 956.591 431.87C957.477 433.153 958.877 433.795 960.791 433.795C962.681 433.795 964.069 433.153 964.956 431.87C965.842 430.563 966.286 428.802 966.286 426.585C966.286 424.368 965.842 422.63 964.956 421.37C964.069 420.11 962.669 419.48 960.756 419.48C958.842 419.48 957.454 420.11 956.591 421.37C955.727 422.63 955.296 424.368 955.296 426.585ZM977.432 417.24V425.045H987.617V417.24H990.697V436H987.617V427.635H977.432V436H974.352V417.24H977.432ZM1003.74 416.925C1006.03 416.925 1007.72 417.427 1008.82 418.43C1009.91 419.433 1010.46 421.032 1010.46 423.225V436H1008.22L1007.63 433.34H1007.49C1006.67 434.367 1005.81 435.125 1004.9 435.615C1004.01 436.105 1002.77 436.35 1001.19 436.35C999.484 436.35 998.072 435.907 996.952 435.02C995.832 434.11 995.272 432.698 995.272 430.785C995.272 428.918 996.007 427.483 997.477 426.48C998.947 425.453 1001.21 424.893 1004.27 424.8L1007.45 424.695V423.575C1007.45 422.012 1007.11 420.927 1006.44 420.32C1005.76 419.713 1004.8 419.41 1003.57 419.41C1002.59 419.41 1001.65 419.562 1000.77 419.865C999.88 420.145 999.052 420.472 998.282 420.845L997.337 418.535C998.154 418.092 999.122 417.718 1000.24 417.415C1001.36 417.088 1002.53 416.925 1003.74 416.925ZM1004.65 426.935C1002.32 427.028 1000.7 427.402 999.787 428.055C998.9 428.708 998.457 429.63 998.457 430.82C998.457 431.87 998.772 432.64 999.402 433.13C1000.06 433.62 1000.88 433.865 1001.89 433.865C1003.47 433.865 1004.79 433.433 1005.84 432.57C1006.89 431.683 1007.42 430.33 1007.42 428.51V426.83L1004.65 426.935ZM1017.52 436.245C1016.79 436.245 1016.19 436 1015.7 435.51C1015.21 435.02 1014.96 434.413 1014.96 433.69C1014.96 432.967 1015.21 432.36 1015.7 431.87C1016.19 431.38 1016.79 431.135 1017.52 431.135C1018.22 431.135 1018.81 431.38 1019.3 431.87C1019.79 432.36 1020.04 432.967 1020.04 433.69C1020.04 434.413 1019.79 435.02 1019.3 435.51C1018.81 436 1018.22 436.245 1017.52 436.245ZM1017.52 421.545C1016.79 421.545 1016.19 421.3 1015.7 420.81C1015.21 420.32 1014.96 419.713 1014.96 418.99C1014.96 418.267 1015.21 417.66 1015.7 417.17C1016.19 416.68 1016.79 416.435 1017.52 416.435C1018.22 416.435 1018.81 416.68 1019.3 417.17C1019.79 417.66 1020.04 418.267 1020.04 418.99C1020.04 419.713 1019.79 420.32 1019.3 420.81C1018.81 421.3 1018.22 421.545 1017.52 421.545Z" fill="black"/>
<path d="M806.419 620.665C803.992 619.452 802.779 617.538 802.779 614.925C802.779 613.665 803.094 612.51 803.724 611.46C804.354 610.41 805.299 609.582 806.559 608.975C807.819 608.345 809.359 608.03 811.179 608.03C812.976 608.03 814.504 608.345 815.764 608.975C817.047 609.582 818.004 610.41 818.634 611.46C819.264 612.51 819.579 613.665 819.579 614.925C819.579 616.232 819.241 617.387 818.564 618.39C817.911 619.37 817.036 620.128 815.939 620.665C817.269 621.155 818.319 621.96 819.089 623.08C819.859 624.177 820.244 625.472 820.244 626.965C820.244 628.482 819.859 629.823 819.089 630.99C818.319 632.157 817.246 633.055 815.869 633.685C814.492 634.315 812.929 634.63 811.179 634.63C809.429 634.63 807.866 634.315 806.489 633.685C805.136 633.055 804.074 632.157 803.304 630.99C802.534 629.823 802.149 628.482 802.149 626.965C802.149 625.448 802.534 624.142 803.304 623.045C804.074 621.948 805.112 621.155 806.419 620.665ZM815.764 615.415C815.764 614.108 815.356 613.105 814.539 612.405C813.722 611.705 812.602 611.355 811.179 611.355C809.779 611.355 808.671 611.705 807.854 612.405C807.037 613.105 806.629 614.12 806.629 615.45C806.629 616.617 807.049 617.573 807.889 618.32C808.752 619.043 809.849 619.405 811.179 619.405C812.509 619.405 813.606 619.032 814.469 618.285C815.332 617.538 815.764 616.582 815.764 615.415ZM811.179 622.415C809.639 622.415 808.379 622.8 807.399 623.57C806.442 624.317 805.964 625.402 805.964 626.825C805.964 628.155 806.431 629.24 807.364 630.08C808.297 630.897 809.569 631.305 811.179 631.305C812.766 631.305 814.014 630.885 814.924 630.045C815.857 629.205 816.324 628.132 816.324 626.825C816.324 625.425 815.846 624.34 814.889 623.57C813.956 622.8 812.719 622.415 811.179 622.415ZM829.403 627.07C829.637 628.237 830.138 629.123 830.908 629.73C831.678 630.337 832.717 630.64 834.023 630.64C835.68 630.64 836.893 629.987 837.663 628.68C838.433 627.373 838.818 625.145 838.818 621.995C838.258 622.788 837.465 623.407 836.438 623.85C835.435 624.27 834.338 624.48 833.148 624.48C831.632 624.48 830.255 624.177 829.018 623.57C827.782 622.94 826.802 622.018 826.078 620.805C825.378 619.568 825.028 618.075 825.028 616.325C825.028 613.758 825.775 611.717 827.268 610.2C828.785 608.66 830.862 607.89 833.498 607.89C836.672 607.89 838.923 608.952 840.253 611.075C841.607 613.175 842.283 616.407 842.283 620.77C842.283 623.78 842.027 626.242 841.513 628.155C841.023 630.068 840.16 631.515 838.923 632.495C837.687 633.475 835.972 633.965 833.778 633.965C831.282 633.965 829.357 633.312 828.003 632.005C826.65 630.698 825.892 629.053 825.728 627.07H829.403ZM833.848 621.12C835.248 621.12 836.345 620.688 837.138 619.825C837.955 618.938 838.363 617.772 838.363 616.325C838.363 614.715 837.932 613.467 837.068 612.58C836.228 611.67 835.073 611.215 833.603 611.215C832.133 611.215 830.967 611.682 830.103 612.615C829.263 613.525 828.843 614.727 828.843 616.22C828.843 617.643 829.252 618.822 830.068 619.755C830.908 620.665 832.168 621.12 833.848 621.12ZM846.65 620.91C846.65 616.873 847.327 613.723 848.68 611.46C850.057 609.173 852.414 608.03 855.75 608.03C859.087 608.03 861.432 609.173 862.785 611.46C864.162 613.723 864.85 616.873 864.85 620.91C864.85 624.993 864.162 628.19 862.785 630.5C861.432 632.787 859.087 633.93 855.75 633.93C852.414 633.93 850.057 632.787 848.68 630.5C847.327 628.19 846.65 624.993 846.65 620.91ZM860.93 620.91C860.93 619.02 860.802 617.422 860.545 616.115C860.312 614.808 859.822 613.747 859.075 612.93C858.329 612.09 857.22 611.67 855.75 611.67C854.28 611.67 853.172 612.09 852.425 612.93C851.679 613.747 851.177 614.808 850.92 616.115C850.687 617.422 850.57 619.02 850.57 620.91C850.57 622.87 850.687 624.515 850.92 625.845C851.154 627.175 851.644 628.248 852.39 629.065C853.16 629.882 854.28 630.29 855.75 630.29C857.22 630.29 858.329 629.882 859.075 629.065C859.845 628.248 860.347 627.175 860.58 625.845C860.814 624.515 860.93 622.87 860.93 620.91ZM871.277 628.575C873.517 626.638 875.279 625.052 876.562 623.815C877.869 622.555 878.954 621.248 879.817 619.895C880.681 618.542 881.112 617.188 881.112 615.835C881.112 614.435 880.774 613.338 880.097 612.545C879.444 611.752 878.406 611.355 876.982 611.355C875.606 611.355 874.532 611.798 873.762 612.685C873.016 613.548 872.619 614.715 872.572 616.185H868.722C868.792 613.525 869.586 611.495 871.102 610.095C872.642 608.672 874.591 607.96 876.947 607.96C879.491 607.96 881.474 608.66 882.897 610.06C884.344 611.46 885.067 613.327 885.067 615.66C885.067 617.34 884.636 618.962 883.772 620.525C882.932 622.065 881.917 623.453 880.727 624.69C879.561 625.903 878.067 627.315 876.247 628.925L874.672 630.325H885.767V633.65H868.757V630.745L871.277 628.575ZM888.747 612.125V608.485H896.027V634H892.002V612.125H888.747ZM906.479 627.07C906.712 628.237 907.214 629.123 907.984 629.73C908.754 630.337 909.792 630.64 911.099 630.64C912.755 630.64 913.969 629.987 914.739 628.68C915.509 627.373 915.894 625.145 915.894 621.995C915.334 622.788 914.54 623.407 913.514 623.85C912.51 624.27 911.414 624.48 910.224 624.48C908.707 624.48 907.33 624.177 906.094 623.57C904.857 622.94 903.877 622.018 903.154 620.805C902.454 619.568 902.104 618.075 902.104 616.325C902.104 613.758 902.85 611.717 904.344 610.2C905.86 608.66 907.937 607.89 910.574 607.89C913.747 607.89 915.999 608.952 917.329 611.075C918.682 613.175 919.359 616.407 919.359 620.77C919.359 623.78 919.102 626.242 918.589 628.155C918.099 630.068 917.235 631.515 915.999 632.495C914.762 633.475 913.047 633.965 910.854 633.965C908.357 633.965 906.432 633.312 905.079 632.005C903.725 630.698 902.967 629.053 902.804 627.07H906.479ZM910.924 621.12C912.324 621.12 913.42 620.688 914.214 619.825C915.03 618.938 915.439 617.772 915.439 616.325C915.439 614.715 915.007 613.467 914.144 612.58C913.304 611.67 912.149 611.215 910.679 611.215C909.209 611.215 908.042 611.682 907.179 612.615C906.339 613.525 905.919 614.727 905.919 616.22C905.919 617.643 906.327 618.822 907.144 619.755C907.984 620.665 909.244 621.12 910.924 621.12ZM925.93 628.575C928.17 626.638 929.932 625.052 931.215 623.815C932.522 622.555 933.607 621.248 934.47 619.895C935.334 618.542 935.765 617.188 935.765 615.835C935.765 614.435 935.427 613.338 934.75 612.545C934.097 611.752 933.059 611.355 931.635 611.355C930.259 611.355 929.185 611.798 928.415 612.685C927.669 613.548 927.272 614.715 927.225 616.185H923.375C923.445 613.525 924.239 611.495 925.755 610.095C927.295 608.672 929.244 607.96 931.6 607.96C934.144 607.96 936.127 608.66 937.55 610.06C938.997 611.46 939.72 613.327 939.72 615.66C939.72 617.34 939.289 618.962 938.425 620.525C937.585 622.065 936.57 623.453 935.38 624.69C934.214 625.903 932.72 627.315 930.9 628.925L929.325 630.325H940.42V633.65H923.41V630.745L925.93 628.575ZM960.376 611.915H948.651V618.88C949.141 618.227 949.864 617.678 950.821 617.235C951.801 616.792 952.839 616.57 953.936 616.57C955.896 616.57 957.482 616.99 958.696 617.83C959.932 618.67 960.807 619.732 961.321 621.015C961.857 622.298 962.126 623.652 962.126 625.075C962.126 626.802 961.787 628.342 961.111 629.695C960.457 631.025 959.466 632.075 958.136 632.845C956.829 633.615 955.219 634 953.306 634C950.762 634 948.721 633.37 947.181 632.11C945.641 630.85 944.719 629.182 944.416 627.105H948.301C948.557 628.202 949.129 629.077 950.016 629.73C950.902 630.36 952.011 630.675 953.341 630.675C954.997 630.675 956.234 630.173 957.051 629.17C957.891 628.167 958.311 626.837 958.311 625.18C958.311 623.5 957.891 622.217 957.051 621.33C956.211 620.42 954.974 619.965 953.341 619.965C952.197 619.965 951.229 620.257 950.436 620.84C949.666 621.4 949.106 622.17 948.756 623.15H944.976V608.415H960.376V611.915ZM965.754 612.125V608.485H973.034V634H969.009V612.125H965.754ZM983.486 627.07C983.719 628.237 984.221 629.123 984.991 629.73C985.761 630.337 986.799 630.64 988.106 630.64C989.762 630.64 990.976 629.987 991.746 628.68C992.516 627.373 992.901 625.145 992.901 621.995C992.341 622.788 991.547 623.407 990.521 623.85C989.517 624.27 988.421 624.48 987.231 624.48C985.714 624.48 984.337 624.177 983.101 623.57C981.864 622.94 980.884 622.018 980.161 620.805C979.461 619.568 979.111 618.075 979.111 616.325C979.111 613.758 979.857 611.717 981.351 610.2C982.867 608.66 984.944 607.89 987.581 607.89C990.754 607.89 993.006 608.952 994.336 611.075C995.689 613.175 996.366 616.407 996.366 620.77C996.366 623.78 996.109 626.242 995.596 628.155C995.106 630.068 994.242 631.515 993.006 632.495C991.769 633.475 990.054 633.965 987.861 633.965C985.364 633.965 983.439 633.312 982.086 632.005C980.732 630.698 979.974 629.053 979.811 627.07H983.486ZM987.931 621.12C989.331 621.12 990.427 620.688 991.221 619.825C992.037 618.938 992.446 617.772 992.446 616.325C992.446 614.715 992.014 613.467 991.151 612.58C990.311 611.67 989.156 611.215 987.686 611.215C986.216 611.215 985.049 611.682 984.186 612.615C983.346 613.525 982.926 614.727 982.926 616.22C982.926 617.643 983.334 618.822 984.151 619.755C984.991 620.665 986.251 621.12 987.931 621.12ZM1017.18 611.915H1005.46V618.88C1005.95 618.227 1006.67 617.678 1007.63 617.235C1008.61 616.792 1009.65 616.57 1010.74 616.57C1012.7 616.57 1014.29 616.99 1015.5 617.83C1016.74 618.67 1017.61 619.732 1018.13 621.015C1018.66 622.298 1018.93 623.652 1018.93 625.075C1018.93 626.802 1018.59 628.342 1017.92 629.695C1017.26 631.025 1016.27 632.075 1014.94 632.845C1013.64 633.615 1012.03 634 1010.11 634C1007.57 634 1005.53 633.37 1003.99 632.11C1002.45 630.85 1001.53 629.182 1001.22 627.105H1005.11C1005.36 628.202 1005.94 629.077 1006.82 629.73C1007.71 630.36 1008.82 630.675 1010.15 630.675C1011.8 630.675 1013.04 630.173 1013.86 629.17C1014.7 628.167 1015.12 626.837 1015.12 625.18C1015.12 623.5 1014.7 622.217 1013.86 621.33C1013.02 620.42 1011.78 619.965 1010.15 619.965C1009 619.965 1008.04 620.257 1007.24 620.84C1006.47 621.4 1005.91 622.17 1005.56 623.15H1001.78V608.415H1017.18V611.915Z" fill="black"/>
<path d="M489.389 528.91C489.389 524.873 490.066 521.723 491.419 519.46C492.796 517.173 495.152 516.03 498.489 516.03C501.826 516.03 504.171 517.173 505.524 519.46C506.901 521.723 507.589 524.873 507.589 528.91C507.589 532.993 506.901 536.19 505.524 538.5C504.171 540.787 501.826 541.93 498.489 541.93C495.152 541.93 492.796 540.787 491.419 538.5C490.066 536.19 489.389 532.993 489.389 528.91ZM503.669 528.91C503.669 527.02 503.541 525.422 503.284 524.115C503.051 522.808 502.561 521.747 501.814 520.93C501.067 520.09 499.959 519.67 498.489 519.67C497.019 519.67 495.911 520.09 495.164 520.93C494.417 521.747 493.916 522.808 493.659 524.115C493.426 525.422 493.309 527.02 493.309 528.91C493.309 530.87 493.426 532.515 493.659 533.845C493.892 535.175 494.382 536.248 495.129 537.065C495.899 537.882 497.019 538.29 498.489 538.29C499.959 538.29 501.067 537.882 501.814 537.065C502.584 536.248 503.086 535.175 503.319 533.845C503.552 532.515 503.669 530.87 503.669 528.91Z" fill="black"/>
<path d="M1098.38 535.07C1098.61 536.237 1099.11 537.123 1099.88 537.73C1100.65 538.337 1101.69 538.64 1103 538.64C1104.65 538.64 1105.87 537.987 1106.64 536.68C1107.41 535.373 1107.79 533.145 1107.79 529.995C1107.23 530.788 1106.44 531.407 1105.41 531.85C1104.41 532.27 1103.31 532.48 1102.12 532.48C1100.61 532.48 1099.23 532.177 1097.99 531.57C1096.76 530.94 1095.78 530.018 1095.05 528.805C1094.35 527.568 1094 526.075 1094 524.325C1094 521.758 1094.75 519.717 1096.24 518.2C1097.76 516.66 1099.84 515.89 1102.47 515.89C1105.65 515.89 1107.9 516.952 1109.23 519.075C1110.58 521.175 1111.26 524.407 1111.26 528.77C1111.26 531.78 1111 534.242 1110.49 536.155C1110 538.068 1109.13 539.515 1107.9 540.495C1106.66 541.475 1104.95 541.965 1102.75 541.965C1100.26 541.965 1098.33 541.312 1096.98 540.005C1095.62 538.698 1094.87 537.053 1094.7 535.07H1098.38ZM1102.82 529.12C1104.22 529.12 1105.32 528.688 1106.11 527.825C1106.93 526.938 1107.34 525.772 1107.34 524.325C1107.34 522.715 1106.91 521.467 1106.04 520.58C1105.2 519.67 1104.05 519.215 1102.58 519.215C1101.11 519.215 1099.94 519.682 1099.08 520.615C1098.24 521.525 1097.82 522.727 1097.82 524.22C1097.82 525.643 1098.23 526.822 1099.04 527.755C1099.88 528.665 1101.14 529.12 1102.82 529.12ZM1120.59 535.07C1120.83 536.237 1121.33 537.123 1122.1 537.73C1122.87 538.337 1123.91 538.64 1125.21 538.64C1126.87 538.64 1128.08 537.987 1128.85 536.68C1129.62 535.373 1130.01 533.145 1130.01 529.995C1129.45 530.788 1128.66 531.407 1127.63 531.85C1126.63 532.27 1125.53 532.48 1124.34 532.48C1122.82 532.48 1121.45 532.177 1120.21 531.57C1118.97 530.94 1117.99 530.018 1117.27 528.805C1116.57 527.568 1116.22 526.075 1116.22 524.325C1116.22 521.758 1116.97 519.717 1118.46 518.2C1119.98 516.66 1122.05 515.89 1124.69 515.89C1127.86 515.89 1130.11 516.952 1131.44 519.075C1132.8 521.175 1133.47 524.407 1133.47 528.77C1133.47 531.78 1133.22 534.242 1132.7 536.155C1132.21 538.068 1131.35 539.515 1130.11 540.495C1128.88 541.475 1127.16 541.965 1124.97 541.965C1122.47 541.965 1120.55 541.312 1119.19 540.005C1117.84 538.698 1117.08 537.053 1116.92 535.07H1120.59ZM1125.04 529.12C1126.44 529.12 1127.54 528.688 1128.33 527.825C1129.15 526.938 1129.55 525.772 1129.55 524.325C1129.55 522.715 1129.12 521.467 1128.26 520.58C1127.42 519.67 1126.26 519.215 1124.79 519.215C1123.32 519.215 1122.16 519.682 1121.29 520.615C1120.45 521.525 1120.03 522.727 1120.03 524.22C1120.03 525.643 1120.44 526.822 1121.26 527.755C1122.1 528.665 1123.36 529.12 1125.04 529.12ZM1142.81 535.07C1143.04 536.237 1143.55 537.123 1144.32 537.73C1145.09 538.337 1146.12 538.64 1147.43 538.64C1149.09 538.64 1150.3 537.987 1151.07 536.68C1151.84 535.373 1152.23 533.145 1152.23 529.995C1151.67 530.788 1150.87 531.407 1149.85 531.85C1148.84 532.27 1147.75 532.48 1146.56 532.48C1145.04 532.48 1143.66 532.177 1142.43 531.57C1141.19 530.94 1140.21 530.018 1139.49 528.805C1138.79 527.568 1138.44 526.075 1138.44 524.325C1138.44 521.758 1139.18 519.717 1140.68 518.2C1142.19 516.66 1144.27 515.89 1146.91 515.89C1150.08 515.89 1152.33 516.952 1153.66 519.075C1155.01 521.175 1155.69 524.407 1155.69 528.77C1155.69 531.78 1155.43 534.242 1154.92 536.155C1154.43 538.068 1153.57 539.515 1152.33 540.495C1151.09 541.475 1149.38 541.965 1147.19 541.965C1144.69 541.965 1142.76 541.312 1141.41 540.005C1140.06 538.698 1139.3 537.053 1139.14 535.07H1142.81ZM1147.26 529.12C1148.66 529.12 1149.75 528.688 1150.55 527.825C1151.36 526.938 1151.77 525.772 1151.77 524.325C1151.77 522.715 1151.34 521.467 1150.48 520.58C1149.64 519.67 1148.48 519.215 1147.01 519.215C1145.54 519.215 1144.37 519.682 1143.51 520.615C1142.67 521.525 1142.25 522.727 1142.25 524.22C1142.25 525.643 1142.66 526.822 1143.48 527.755C1144.32 528.665 1145.58 529.12 1147.26 529.12ZM1165.03 535.07C1165.26 536.237 1165.76 537.123 1166.53 537.73C1167.3 538.337 1168.34 538.64 1169.65 538.64C1171.3 538.64 1172.52 537.987 1173.29 536.68C1174.06 535.373 1174.44 533.145 1174.44 529.995C1173.88 530.788 1173.09 531.407 1172.06 531.85C1171.06 532.27 1169.96 532.48 1168.77 532.48C1167.26 532.48 1165.88 532.177 1164.64 531.57C1163.41 530.94 1162.43 530.018 1161.7 528.805C1161 527.568 1160.65 526.075 1160.65 524.325C1160.65 521.758 1161.4 519.717 1162.89 518.2C1164.41 516.66 1166.49 515.89 1169.12 515.89C1172.3 515.89 1174.55 516.952 1175.88 519.075C1177.23 521.175 1177.91 524.407 1177.91 528.77C1177.91 531.78 1177.65 534.242 1177.14 536.155C1176.65 538.068 1175.78 539.515 1174.55 540.495C1173.31 541.475 1171.6 541.965 1169.4 541.965C1166.91 541.965 1164.98 541.312 1163.63 540.005C1162.27 538.698 1161.52 537.053 1161.35 535.07H1165.03ZM1169.47 529.12C1170.87 529.12 1171.97 528.688 1172.76 527.825C1173.58 526.938 1173.99 525.772 1173.99 524.325C1173.99 522.715 1173.56 521.467 1172.69 520.58C1171.85 519.67 1170.7 519.215 1169.23 519.215C1167.76 519.215 1166.59 519.682 1165.73 520.615C1164.89 521.525 1164.47 522.727 1164.47 524.22C1164.47 525.643 1164.88 526.822 1165.69 527.755C1166.53 528.665 1167.79 529.12 1169.47 529.12ZM1187.24 535.07C1187.48 536.237 1187.98 537.123 1188.75 537.73C1189.52 538.337 1190.56 538.64 1191.86 538.64C1193.52 538.64 1194.73 537.987 1195.5 536.68C1196.27 535.373 1196.66 533.145 1196.66 529.995C1196.1 530.788 1195.31 531.407 1194.28 531.85C1193.28 532.27 1192.18 532.48 1190.99 532.48C1189.47 532.48 1188.1 532.177 1186.86 531.57C1185.62 530.94 1184.64 530.018 1183.92 528.805C1183.22 527.568 1182.87 526.075 1182.87 524.325C1182.87 521.758 1183.62 519.717 1185.11 518.2C1186.63 516.66 1188.7 515.89 1191.34 515.89C1194.51 515.89 1196.76 516.952 1198.09 519.075C1199.45 521.175 1200.12 524.407 1200.12 528.77C1200.12 531.78 1199.87 534.242 1199.35 536.155C1198.86 538.068 1198 539.515 1196.76 540.495C1195.53 541.475 1193.81 541.965 1191.62 541.965C1189.12 541.965 1187.2 541.312 1185.84 540.005C1184.49 538.698 1183.73 537.053 1183.57 535.07H1187.24ZM1191.69 529.12C1193.09 529.12 1194.19 528.688 1194.98 527.825C1195.8 526.938 1196.2 525.772 1196.2 524.325C1196.2 522.715 1195.77 521.467 1194.91 520.58C1194.07 519.67 1192.91 519.215 1191.44 519.215C1189.97 519.215 1188.81 519.682 1187.94 520.615C1187.1 521.525 1186.68 522.727 1186.68 524.22C1186.68 525.643 1187.09 526.822 1187.91 527.755C1188.75 528.665 1190.01 529.12 1191.69 529.12ZM1209.46 535.07C1209.69 536.237 1210.2 537.123 1210.97 537.73C1211.74 538.337 1212.77 538.64 1214.08 538.64C1215.74 538.64 1216.95 537.987 1217.72 536.68C1218.49 535.373 1218.88 533.145 1218.88 529.995C1218.32 530.788 1217.52 531.407 1216.5 531.85C1215.49 532.27 1214.4 532.48 1213.21 532.48C1211.69 532.48 1210.31 532.177 1209.08 531.57C1207.84 530.94 1206.86 530.018 1206.14 528.805C1205.44 527.568 1205.09 526.075 1205.09 524.325C1205.09 521.758 1205.83 519.717 1207.33 518.2C1208.84 516.66 1210.92 515.89 1213.56 515.89C1216.73 515.89 1218.98 516.952 1220.31 519.075C1221.66 521.175 1222.34 524.407 1222.34 528.77C1222.34 531.78 1222.08 534.242 1221.57 536.155C1221.08 538.068 1220.22 539.515 1218.98 540.495C1217.74 541.475 1216.03 541.965 1213.84 541.965C1211.34 541.965 1209.41 541.312 1208.06 540.005C1206.71 538.698 1205.95 537.053 1205.79 535.07H1209.46ZM1213.91 529.12C1215.31 529.12 1216.4 528.688 1217.2 527.825C1218.01 526.938 1218.42 525.772 1218.42 524.325C1218.42 522.715 1217.99 521.467 1217.13 520.58C1216.29 519.67 1215.13 519.215 1213.66 519.215C1212.19 519.215 1211.02 519.682 1210.16 520.615C1209.32 521.525 1208.9 522.727 1208.9 524.22C1208.9 525.643 1209.31 526.822 1210.13 527.755C1210.97 528.665 1212.23 529.12 1213.91 529.12ZM1231.68 535.07C1231.91 536.237 1232.41 537.123 1233.18 537.73C1233.95 538.337 1234.99 538.64 1236.3 538.64C1237.96 538.64 1239.17 537.987 1239.94 536.68C1240.71 535.373 1241.09 533.145 1241.09 529.995C1240.53 530.788 1239.74 531.407 1238.71 531.85C1237.71 532.27 1236.61 532.48 1235.42 532.48C1233.91 532.48 1232.53 532.177 1231.29 531.57C1230.06 530.94 1229.08 530.018 1228.35 528.805C1227.65 527.568 1227.3 526.075 1227.3 524.325C1227.3 521.758 1228.05 519.717 1229.54 518.2C1231.06 516.66 1233.14 515.89 1235.77 515.89C1238.95 515.89 1241.2 516.952 1242.53 519.075C1243.88 521.175 1244.56 524.407 1244.56 528.77C1244.56 531.78 1244.3 534.242 1243.79 536.155C1243.3 538.068 1242.44 539.515 1241.2 540.495C1239.96 541.475 1238.25 541.965 1236.05 541.965C1233.56 541.965 1231.63 541.312 1230.28 540.005C1228.93 538.698 1228.17 537.053 1228 535.07H1231.68ZM1236.12 529.12C1237.52 529.12 1238.62 528.688 1239.41 527.825C1240.23 526.938 1240.64 525.772 1240.64 524.325C1240.64 522.715 1240.21 521.467 1239.34 520.58C1238.5 519.67 1237.35 519.215 1235.88 519.215C1234.41 519.215 1233.24 519.682 1232.38 520.615C1231.54 521.525 1231.12 522.727 1231.12 524.22C1231.12 525.643 1231.53 526.822 1232.34 527.755C1233.18 528.665 1234.44 529.12 1236.12 529.12ZM1253.9 535.07C1254.13 536.237 1254.63 537.123 1255.4 537.73C1256.17 538.337 1257.21 538.64 1258.52 538.64C1260.17 538.64 1261.39 537.987 1262.16 536.68C1262.93 535.373 1263.31 533.145 1263.31 529.995C1262.75 530.788 1261.96 531.407 1260.93 531.85C1259.93 532.27 1258.83 532.48 1257.64 532.48C1256.12 532.48 1254.75 532.177 1253.51 531.57C1252.27 530.94 1251.29 530.018 1250.57 528.805C1249.87 527.568 1249.52 526.075 1249.52 524.325C1249.52 521.758 1250.27 519.717 1251.76 518.2C1253.28 516.66 1255.35 515.89 1257.99 515.89C1261.16 515.89 1263.42 516.952 1264.75 519.075C1266.1 521.175 1266.78 524.407 1266.78 528.77C1266.78 531.78 1266.52 534.242 1266.01 536.155C1265.52 538.068 1264.65 539.515 1263.42 540.495C1262.18 541.475 1260.46 541.965 1258.27 541.965C1255.77 541.965 1253.85 541.312 1252.5 540.005C1251.14 538.698 1250.38 537.053 1250.22 535.07H1253.9ZM1258.34 529.12C1259.74 529.12 1260.84 528.688 1261.63 527.825C1262.45 526.938 1262.86 525.772 1262.86 524.325C1262.86 522.715 1262.42 521.467 1261.56 520.58C1260.72 519.67 1259.57 519.215 1258.1 519.215C1256.63 519.215 1255.46 519.682 1254.6 520.615C1253.76 521.525 1253.34 522.727 1253.34 524.22C1253.34 525.643 1253.74 526.822 1254.56 527.755C1255.4 528.665 1256.66 529.12 1258.34 529.12ZM1276.11 535.07C1276.35 536.237 1276.85 537.123 1277.62 537.73C1278.39 538.337 1279.43 538.64 1280.73 538.64C1282.39 538.64 1283.6 537.987 1284.37 536.68C1285.14 535.373 1285.53 533.145 1285.53 529.995C1284.97 530.788 1284.17 531.407 1283.15 531.85C1282.14 532.27 1281.05 532.48 1279.86 532.48C1278.34 532.48 1276.96 532.177 1275.73 531.57C1274.49 530.94 1273.51 530.018 1272.79 528.805C1272.09 527.568 1271.74 526.075 1271.74 524.325C1271.74 521.758 1272.48 519.717 1273.98 518.2C1275.49 516.66 1277.57 515.89 1280.21 515.89C1283.38 515.89 1285.63 516.952 1286.96 519.075C1288.32 521.175 1288.99 524.407 1288.99 528.77C1288.99 531.78 1288.74 534.242 1288.22 536.155C1287.73 538.068 1286.87 539.515 1285.63 540.495C1284.4 541.475 1282.68 541.965 1280.49 541.965C1277.99 541.965 1276.07 541.312 1274.71 540.005C1273.36 538.698 1272.6 537.053 1272.44 535.07H1276.11ZM1280.56 529.12C1281.96 529.12 1283.05 528.688 1283.85 527.825C1284.66 526.938 1285.07 525.772 1285.07 524.325C1285.07 522.715 1284.64 521.467 1283.78 520.58C1282.94 519.67 1281.78 519.215 1280.31 519.215C1278.84 519.215 1277.68 519.682 1276.81 520.615C1275.97 521.525 1275.55 522.727 1275.55 524.22C1275.55 525.643 1275.96 526.822 1276.78 527.755C1277.62 528.665 1278.88 529.12 1280.56 529.12ZM1298.33 535.07C1298.56 536.237 1299.06 537.123 1299.83 537.73C1300.6 538.337 1301.64 538.64 1302.95 538.64C1304.61 538.64 1305.82 537.987 1306.59 536.68C1307.36 535.373 1307.74 533.145 1307.74 529.995C1307.18 530.788 1306.39 531.407 1305.36 531.85C1304.36 532.27 1303.26 532.48 1302.07 532.48C1300.56 532.48 1299.18 532.177 1297.94 531.57C1296.71 530.94 1295.73 530.018 1295 528.805C1294.3 527.568 1293.95 526.075 1293.95 524.325C1293.95 521.758 1294.7 519.717 1296.19 518.2C1297.71 516.66 1299.79 515.89 1302.42 515.89C1305.6 515.89 1307.85 516.952 1309.18 519.075C1310.53 521.175 1311.21 524.407 1311.21 528.77C1311.21 531.78 1310.95 534.242 1310.44 536.155C1309.95 538.068 1309.09 539.515 1307.85 540.495C1306.61 541.475 1304.9 541.965 1302.7 541.965C1300.21 541.965 1298.28 541.312 1296.93 540.005C1295.58 538.698 1294.82 537.053 1294.65 535.07H1298.33ZM1302.77 529.12C1304.17 529.12 1305.27 528.688 1306.06 527.825C1306.88 526.938 1307.29 525.772 1307.29 524.325C1307.29 522.715 1306.86 521.467 1305.99 520.58C1305.15 519.67 1304 519.215 1302.53 519.215C1301.06 519.215 1299.89 519.682 1299.03 520.615C1298.19 521.525 1297.77 522.727 1297.77 524.22C1297.77 525.643 1298.18 526.822 1298.99 527.755C1299.83 528.665 1301.09 529.12 1302.77 529.12ZM1320.55 535.07C1320.78 536.237 1321.28 537.123 1322.05 537.73C1322.82 538.337 1323.86 538.64 1325.17 538.64C1326.82 538.64 1328.04 537.987 1328.81 536.68C1329.58 535.373 1329.96 533.145 1329.96 529.995C1329.4 530.788 1328.61 531.407 1327.58 531.85C1326.58 532.27 1325.48 532.48 1324.29 532.48C1322.77 532.48 1321.4 532.177 1320.16 531.57C1318.92 530.94 1317.94 530.018 1317.22 528.805C1316.52 527.568 1316.17 526.075 1316.17 524.325C1316.17 521.758 1316.92 519.717 1318.41 518.2C1319.93 516.66 1322 515.89 1324.64 515.89C1327.81 515.89 1330.07 516.952 1331.4 519.075C1332.75 521.175 1333.43 524.407 1333.43 528.77C1333.43 531.78 1333.17 534.242 1332.66 536.155C1332.17 538.068 1331.3 539.515 1330.07 540.495C1328.83 541.475 1327.11 541.965 1324.92 541.965C1322.42 541.965 1320.5 541.312 1319.15 540.005C1317.79 538.698 1317.03 537.053 1316.87 535.07H1320.55ZM1324.99 529.12C1326.39 529.12 1327.49 528.688 1328.28 527.825C1329.1 526.938 1329.51 525.772 1329.51 524.325C1329.51 522.715 1329.07 521.467 1328.21 520.58C1327.37 519.67 1326.22 519.215 1324.75 519.215C1323.28 519.215 1322.11 519.682 1321.25 520.615C1320.41 521.525 1319.99 522.727 1319.99 524.22C1319.99 525.643 1320.39 526.822 1321.21 527.755C1322.05 528.665 1323.31 529.12 1324.99 529.12Z" fill="black"/>
<rect x="534" y="517" width="533" height="25" fill="#EBEBEB"/>
<rect x="882" y="484" width="30" height="91" fill="#EBEBEB" stroke="#C4C4C4" stroke-width="2"/>
</svg>
