<svg width="1600" height="900" viewBox="0 0 1600 900" fill="none" xmlns="http://www.w3.org/2000/svg">
<rect x="155.5" y="109.5" width="1289" height="681" rx="48.5" stroke="#007BFF" stroke-width="3"/>
<rect x="615.5" y="204.5" width="751" height="86" rx="10.5" stroke="#007BFF" stroke-width="3"/>
<rect x="615.5" y="319.5" width="751" height="86" rx="10.5" stroke="#007BFF" stroke-width="3"/>
<rect x="615.5" y="436.5" width="751" height="170" rx="10.5" stroke="#007BFF" stroke-width="3"/>
<rect x="281" y="54" width="218" height="97" fill="white"/>
<path d="M313.353 112.28C313.353 107.869 314.207 104.403 315.916 101.88C317.625 99.3571 319.969 98.0957 322.947 98.0957C324.331 98.0957 325.543 98.3317 326.585 98.8037V87.5H331.102V98.9502C332.241 98.3805 333.576 98.0957 335.105 98.0957C338.1 98.0957 340.452 99.3571 342.161 101.88C343.87 104.403 344.725 108.04 344.725 112.793C344.725 116.683 343.87 119.775 342.161 122.07C340.468 124.365 338.133 125.513 335.154 125.513C333.576 125.513 332.225 125.252 331.102 124.731V135.156H326.585V124.805C325.511 125.277 324.282 125.513 322.898 125.513C319.936 125.513 317.601 124.365 315.892 122.07C314.199 119.775 313.353 116.634 313.353 112.646V112.28ZM340.208 112.28C340.208 108.96 339.638 106.388 338.499 104.565C337.36 102.726 335.789 101.807 333.787 101.807C332.762 101.807 331.867 101.969 331.102 102.295V121.411C331.834 121.688 332.745 121.826 333.836 121.826C335.854 121.826 337.417 121.045 338.523 119.482C339.646 117.92 340.208 115.519 340.208 112.28ZM317.869 112.793C317.869 115.755 318.398 118.001 319.456 119.531C320.514 121.061 322.036 121.826 324.021 121.826C324.965 121.826 325.82 121.68 326.585 121.387V102.222C325.901 101.945 325.063 101.807 324.07 101.807C322.085 101.807 320.555 102.694 319.48 104.468C318.406 106.242 317.869 109.017 317.869 112.793ZM349.412 111.548C349.412 108.96 349.917 106.632 350.926 104.565C351.951 102.498 353.367 100.903 355.174 99.7803C356.997 98.6572 359.072 98.0957 361.399 98.0957C364.996 98.0957 367.902 99.3408 370.115 101.831C372.345 104.321 373.46 107.633 373.46 111.768V112.085C373.46 114.657 372.964 116.968 371.971 119.019C370.994 121.053 369.586 122.64 367.747 123.779C365.924 124.919 363.825 125.488 361.448 125.488C357.868 125.488 354.962 124.243 352.732 121.753C350.519 119.263 349.412 115.967 349.412 111.865V111.548ZM353.953 112.085C353.953 115.015 354.629 117.367 355.979 119.141C357.347 120.915 359.17 121.802 361.448 121.802C363.743 121.802 365.566 120.907 366.917 119.116C368.268 117.31 368.943 114.787 368.943 111.548C368.943 108.651 368.252 106.307 366.868 104.517C365.501 102.71 363.678 101.807 361.399 101.807C359.17 101.807 357.371 102.694 356.004 104.468C354.637 106.242 353.953 108.781 353.953 112.085ZM401.438 112.085C401.438 116.105 400.519 119.344 398.68 121.802C396.84 124.259 394.35 125.488 391.209 125.488C388.003 125.488 385.48 124.471 383.641 122.437V135.156H379.124V98.584H383.25L383.47 101.514C385.309 99.235 387.864 98.0957 391.136 98.0957C394.31 98.0957 396.816 99.292 398.655 101.685C400.511 104.077 401.438 107.406 401.438 111.67V112.085ZM396.922 111.572C396.922 108.594 396.287 106.242 395.018 104.517C393.748 102.791 392.007 101.929 389.793 101.929C387.059 101.929 385.008 103.141 383.641 105.566V118.188C384.992 120.597 387.059 121.802 389.842 121.802C392.007 121.802 393.724 120.947 394.993 119.238C396.279 117.513 396.922 114.958 396.922 111.572ZM422.41 119.019L431.395 98.584H437.034V125H432.518V105.786L423.973 125H420.848L412.132 105.371V125H407.615V98.584H413.475L422.41 119.019ZM460.618 125C460.358 124.479 460.146 123.551 459.983 122.217C457.884 124.398 455.377 125.488 452.464 125.488C449.86 125.488 447.719 124.756 446.043 123.291C444.383 121.81 443.553 119.938 443.553 117.676C443.553 114.925 444.594 112.793 446.678 111.279C448.777 109.749 451.723 108.984 455.516 108.984H459.91V106.909C459.91 105.33 459.438 104.077 458.494 103.149C457.55 102.205 456.159 101.733 454.319 101.733C452.708 101.733 451.357 102.14 450.267 102.954C449.176 103.768 448.631 104.753 448.631 105.908H444.09C444.09 104.59 444.554 103.32 445.481 102.1C446.425 100.863 447.695 99.8861 449.29 99.1699C450.901 98.4538 452.667 98.0957 454.588 98.0957C457.632 98.0957 460.016 98.8607 461.741 100.391C463.466 101.904 464.362 103.996 464.427 106.665V118.823C464.427 121.248 464.736 123.177 465.354 124.609V125H460.618ZM453.123 121.558C454.539 121.558 455.882 121.191 457.151 120.459C458.421 119.727 459.34 118.774 459.91 117.603V112.183H456.37C450.836 112.183 448.069 113.802 448.069 117.041C448.069 118.457 448.541 119.564 449.485 120.361C450.429 121.159 451.642 121.558 453.123 121.558Z" fill="#007BFF"/>
<path d="M409.491 239.226H413.556V263H409.491V245.664L398.527 263H394.462V239.226H398.527V256.584L409.491 239.226ZM433.771 257.617L441.857 239.226H446.933V263H442.868V245.708L435.177 263H432.365L424.521 245.334V263H420.456V239.226H425.729L433.771 257.617ZM471.652 239.226V263H467.565V253.75H461.435L455.832 263H451.437L457.414 253.134C455.89 252.578 454.718 251.721 453.898 250.563C453.092 249.392 452.689 248.029 452.689 246.477C452.689 244.309 453.502 242.565 455.128 241.247C456.754 239.914 458.93 239.24 461.654 239.226H471.652ZM456.776 246.521C456.776 247.678 457.172 248.615 457.963 249.333C458.754 250.036 459.801 250.395 461.105 250.41H467.565V242.521H461.72C460.211 242.521 459.01 242.895 458.117 243.642C457.223 244.375 456.776 245.334 456.776 246.521ZM478.046 260.869C478.046 260.166 478.251 259.58 478.661 259.111C479.086 258.642 479.716 258.408 480.551 258.408C481.386 258.408 482.016 258.642 482.44 259.111C482.88 259.58 483.1 260.166 483.1 260.869C483.1 261.542 482.88 262.106 482.44 262.561C482.016 263.015 481.386 263.242 480.551 263.242C479.716 263.242 479.086 263.015 478.661 262.561C478.251 262.106 478.046 261.542 478.046 260.869ZM478.068 241.467C478.068 240.764 478.273 240.178 478.683 239.709C479.108 239.24 479.738 239.006 480.573 239.006C481.408 239.006 482.038 239.24 482.462 239.709C482.902 240.178 483.122 240.764 483.122 241.467C483.122 242.141 482.902 242.705 482.462 243.159C482.038 243.613 481.408 243.84 480.573 243.84C479.738 243.84 479.108 243.613 478.683 243.159C478.273 242.705 478.068 242.141 478.068 241.467Z" fill="#007BFF"/>
<path d="M378.356 378.439C375.133 378.439 372.511 377.385 370.49 375.275C368.468 373.151 367.458 370.317 367.458 366.772V366.025C367.458 363.667 367.904 361.564 368.798 359.719C369.706 357.858 370.966 356.408 372.577 355.368C374.203 354.313 375.961 353.786 377.851 353.786C380.941 353.786 383.344 354.804 385.058 356.84C386.771 358.876 387.628 361.792 387.628 365.585V367.277H371.522C371.581 369.621 372.262 371.518 373.566 372.968C374.884 374.404 376.554 375.122 378.576 375.122C380.011 375.122 381.227 374.829 382.223 374.243C383.219 373.657 384.091 372.88 384.838 371.914L387.321 373.847C385.329 376.909 382.34 378.439 378.356 378.439ZM377.851 357.126C376.21 357.126 374.833 357.727 373.72 358.928C372.606 360.114 371.918 361.784 371.654 363.938H383.563V363.63C383.446 361.564 382.89 359.968 381.894 358.84C380.897 357.697 379.55 357.126 377.851 357.126ZM396.176 354.226L396.286 356.862C398.029 354.812 400.38 353.786 403.339 353.786C406.664 353.786 408.927 355.061 410.128 357.609C410.919 356.467 411.945 355.544 413.205 354.841C414.479 354.138 415.98 353.786 417.709 353.786C422.924 353.786 425.575 356.547 425.663 362.07V378H421.598V362.312C421.598 360.612 421.21 359.345 420.434 358.51C419.657 357.661 418.354 357.236 416.522 357.236C415.014 357.236 413.761 357.69 412.765 358.598C411.769 359.492 411.19 360.7 411.029 362.224V378H406.942V362.421C406.942 358.964 405.25 357.236 401.867 357.236C399.201 357.236 397.377 358.371 396.396 360.642V378H392.331V354.226H396.176ZM446.493 378C446.259 377.531 446.068 376.696 445.922 375.495C444.032 377.458 441.776 378.439 439.154 378.439C436.811 378.439 434.884 377.78 433.375 376.462C431.881 375.129 431.134 373.444 431.134 371.408C431.134 368.933 432.072 367.014 433.947 365.651C435.836 364.274 438.488 363.586 441.901 363.586H445.856V361.718C445.856 360.297 445.431 359.169 444.582 358.334C443.732 357.485 442.479 357.06 440.824 357.06C439.374 357.06 438.158 357.426 437.177 358.159C436.195 358.891 435.705 359.777 435.705 360.817H431.618C431.618 359.631 432.035 358.488 432.87 357.39C433.72 356.276 434.862 355.397 436.298 354.753C437.748 354.108 439.337 353.786 441.066 353.786C443.805 353.786 445.951 354.475 447.504 355.852C449.057 357.214 449.862 359.096 449.921 361.499V372.441C449.921 374.624 450.199 376.359 450.756 377.648V378H446.493ZM439.748 374.902C441.022 374.902 442.23 374.572 443.373 373.913C444.516 373.254 445.343 372.397 445.856 371.342V366.464H442.67C437.689 366.464 435.199 367.922 435.199 370.837C435.199 372.111 435.624 373.107 436.474 373.825C437.323 374.543 438.415 374.902 439.748 374.902ZM460.709 378H456.645V354.226H460.709V378ZM456.315 347.919C456.315 347.26 456.513 346.704 456.908 346.25C457.318 345.795 457.919 345.568 458.71 345.568C459.501 345.568 460.102 345.795 460.512 346.25C460.922 346.704 461.127 347.26 461.127 347.919C461.127 348.579 460.922 349.128 460.512 349.567C460.102 350.007 459.501 350.227 458.71 350.227C457.919 350.227 457.318 350.007 456.908 349.567C456.513 349.128 456.315 348.579 456.315 347.919ZM471.652 378H467.587V344.25H471.652V378ZM478.046 375.869C478.046 375.166 478.251 374.58 478.661 374.111C479.086 373.642 479.716 373.408 480.551 373.408C481.386 373.408 482.016 373.642 482.44 374.111C482.88 374.58 483.1 375.166 483.1 375.869C483.1 376.542 482.88 377.106 482.44 377.561C482.016 378.015 481.386 378.242 480.551 378.242C479.716 378.242 479.086 378.015 478.661 377.561C478.251 377.106 478.046 376.542 478.046 375.869ZM478.068 356.467C478.068 355.764 478.273 355.178 478.683 354.709C479.108 354.24 479.738 354.006 480.573 354.006C481.408 354.006 482.038 354.24 482.462 354.709C482.902 355.178 483.122 355.764 483.122 356.467C483.122 357.141 482.902 357.705 482.462 358.159C482.038 358.613 481.408 358.84 480.573 358.84C479.738 358.84 479.108 358.613 478.683 358.159C478.273 357.705 478.068 357.141 478.068 356.467Z" fill="#007BFF"/>
<path d="M251.2 492.122C252.65 492.122 253.917 491.682 255.001 490.803C256.085 489.924 256.686 488.826 256.803 487.507H260.648C260.575 488.87 260.106 490.166 259.242 491.396C258.378 492.627 257.221 493.608 255.771 494.341C254.335 495.073 252.812 495.439 251.2 495.439C247.963 495.439 245.385 494.363 243.466 492.209C241.562 490.042 240.609 487.083 240.609 483.333V482.651C240.609 480.337 241.034 478.279 241.884 476.477C242.733 474.675 243.949 473.276 245.531 472.28C247.128 471.284 249.01 470.786 251.178 470.786C253.844 470.786 256.056 471.584 257.814 473.181C259.586 474.778 260.531 476.851 260.648 479.399H256.803C256.686 477.861 256.1 476.602 255.045 475.62C254.005 474.624 252.716 474.126 251.178 474.126C249.113 474.126 247.509 474.873 246.366 476.367C245.238 477.847 244.674 479.993 244.674 482.805V483.574C244.674 486.313 245.238 488.423 246.366 489.902C247.494 491.382 249.105 492.122 251.2 492.122ZM264.142 482.893C264.142 480.564 264.596 478.469 265.504 476.609C266.427 474.749 267.702 473.313 269.328 472.302C270.968 471.292 272.836 470.786 274.931 470.786C278.168 470.786 280.783 471.907 282.775 474.148C284.782 476.389 285.785 479.37 285.785 483.091V483.376C285.785 485.691 285.338 487.771 284.445 489.617C283.566 491.448 282.299 492.876 280.644 493.901C279.003 494.927 277.113 495.439 274.975 495.439C271.752 495.439 269.137 494.319 267.13 492.078C265.138 489.836 264.142 486.87 264.142 483.179V482.893ZM268.229 483.376C268.229 486.013 268.837 488.13 270.053 489.727C271.283 491.323 272.924 492.122 274.975 492.122C277.04 492.122 278.681 491.316 279.896 489.705C281.112 488.079 281.72 485.808 281.72 482.893C281.72 480.286 281.098 478.176 279.853 476.565C278.622 474.939 276.981 474.126 274.931 474.126C272.924 474.126 271.305 474.924 270.075 476.521C268.844 478.118 268.229 480.403 268.229 483.376ZM289.806 482.893C289.806 480.564 290.26 478.469 291.168 476.609C292.091 474.749 293.366 473.313 294.992 472.302C296.632 471.292 298.5 470.786 300.595 470.786C303.832 470.786 306.447 471.907 308.439 474.148C310.446 476.389 311.449 479.37 311.449 483.091V483.376C311.449 485.691 311.002 487.771 310.109 489.617C309.23 491.448 307.963 492.876 306.308 493.901C304.667 494.927 302.777 495.439 300.639 495.439C297.416 495.439 294.801 494.319 292.794 492.078C290.802 489.836 289.806 486.87 289.806 483.179V482.893ZM293.893 483.376C293.893 486.013 294.501 488.13 295.717 489.727C296.947 491.323 298.588 492.122 300.639 492.122C302.704 492.122 304.345 491.316 305.561 489.705C306.776 488.079 307.384 485.808 307.384 482.893C307.384 480.286 306.762 478.176 305.517 476.565C304.286 474.939 302.646 474.126 300.595 474.126C298.588 474.126 296.969 474.924 295.739 476.521C294.508 478.118 293.893 480.403 293.893 483.376ZM326.984 472.588C329.972 472.588 332.36 473.591 334.147 475.598C335.949 477.59 336.85 480.22 336.85 483.486V483.86C336.85 486.101 336.417 488.108 335.553 489.88C334.689 491.638 333.444 493.008 331.818 493.989C330.207 494.956 328.346 495.439 326.237 495.439C323.043 495.439 320.473 494.377 318.524 492.253C316.576 490.115 315.602 487.251 315.602 483.662V481.685C315.602 476.689 316.525 472.72 318.371 469.775C320.231 466.831 322.97 465.037 326.588 464.392C328.639 464.026 330.023 463.579 330.741 463.052C331.459 462.524 331.818 461.799 331.818 460.876H335.158C335.158 462.708 334.74 464.136 333.905 465.161C333.085 466.187 331.767 466.912 329.95 467.336L326.918 468.018C324.501 468.589 322.685 469.556 321.469 470.918C320.268 472.266 319.484 474.067 319.118 476.323C321.271 473.833 323.893 472.588 326.984 472.588ZM326.193 475.928C324.201 475.928 322.619 476.602 321.447 477.949C320.275 479.282 319.689 481.135 319.689 483.508V483.86C319.689 486.409 320.275 488.43 321.447 489.924C322.633 491.404 324.23 492.144 326.237 492.144C328.258 492.144 329.855 491.396 331.027 489.902C332.199 488.408 332.785 486.226 332.785 483.354C332.785 481.113 332.191 479.319 331.005 477.971C329.833 476.609 328.229 475.928 326.193 475.928ZM345.221 471.226V491.682H353.922V471.226H357.987V491.682H366.667V471.226H370.753V491.682H374.093L373.698 502.053H370.05V495H341.134V471.226H345.221ZM388.375 495.439C385.153 495.439 382.531 494.385 380.509 492.275C378.488 490.151 377.477 487.317 377.477 483.772V483.025C377.477 480.667 377.924 478.564 378.817 476.719C379.726 474.858 380.985 473.408 382.597 472.368C384.223 471.313 385.98 470.786 387.87 470.786C390.961 470.786 393.363 471.804 395.077 473.84C396.791 475.876 397.648 478.792 397.648 482.585V484.277H381.542C381.601 486.621 382.282 488.518 383.585 489.968C384.904 491.404 386.574 492.122 388.595 492.122C390.031 492.122 391.247 491.829 392.243 491.243C393.239 490.657 394.11 489.88 394.857 488.914L397.34 490.847C395.348 493.909 392.36 495.439 388.375 495.439ZM387.87 474.126C386.229 474.126 384.853 474.727 383.739 475.928C382.626 477.114 381.938 478.784 381.674 480.938H393.583V480.63C393.466 478.564 392.909 476.968 391.913 475.84C390.917 474.697 389.569 474.126 387.87 474.126ZM421.796 495H417.731V484.849H406.811V495H402.724V471.226H406.811V481.531H417.731V471.226H421.796V495ZM443.725 471.226H447.79V495H443.725V477.664L432.76 495H428.695V471.226H432.76V488.584L443.725 471.226ZM464.181 495.439C460.958 495.439 458.336 494.385 456.315 492.275C454.293 490.151 453.283 487.317 453.283 483.772V483.025C453.283 480.667 453.729 478.564 454.623 476.719C455.531 474.858 456.791 473.408 458.402 472.368C460.028 471.313 461.786 470.786 463.676 470.786C466.767 470.786 469.169 471.804 470.883 473.84C472.597 475.876 473.454 478.792 473.454 482.585V484.277H457.348C457.406 486.621 458.087 488.518 459.391 489.968C460.709 491.404 462.379 492.122 464.401 492.122C465.836 492.122 467.052 491.829 468.048 491.243C469.044 490.657 469.916 489.88 470.663 488.914L473.146 490.847C471.154 493.909 468.166 495.439 464.181 495.439ZM463.676 474.126C462.035 474.126 460.658 474.727 459.545 475.928C458.432 477.114 457.743 478.784 457.479 480.938H469.389V480.63C469.271 478.564 468.715 476.968 467.719 475.84C466.723 474.697 465.375 474.126 463.676 474.126ZM478.046 492.869C478.046 492.166 478.251 491.58 478.661 491.111C479.086 490.642 479.716 490.408 480.551 490.408C481.386 490.408 482.016 490.642 482.44 491.111C482.88 491.58 483.1 492.166 483.1 492.869C483.1 493.542 482.88 494.106 482.44 494.561C482.016 495.015 481.386 495.242 480.551 495.242C479.716 495.242 479.086 495.015 478.661 494.561C478.251 494.106 478.046 493.542 478.046 492.869ZM478.068 473.467C478.068 472.764 478.273 472.178 478.683 471.709C479.108 471.24 479.738 471.006 480.573 471.006C481.408 471.006 482.038 471.24 482.462 471.709C482.902 472.178 483.122 472.764 483.122 473.467C483.122 474.141 482.902 474.705 482.462 475.159C482.038 475.613 481.408 475.84 480.573 475.84C479.738 475.84 479.108 475.613 478.683 475.159C478.273 474.705 478.068 474.141 478.068 473.467Z" fill="#007BFF"/>
<path d="M649.015 485H646.305V471.392H639.01V485H636.285V469.15H649.015V485ZM666.754 477.251C666.754 479.663 666.202 481.606 665.099 483.081C663.995 484.556 662.501 485.293 660.616 485.293C658.692 485.293 657.179 484.683 656.075 483.462V491.094H653.365V469.15H655.841L655.973 470.908C657.076 469.541 658.609 468.857 660.572 468.857C662.477 468.857 663.98 469.575 665.084 471.011C666.197 472.446 666.754 474.443 666.754 477.002V477.251ZM664.044 476.943C664.044 475.156 663.663 473.745 662.901 472.71C662.14 471.675 661.095 471.157 659.767 471.157C658.126 471.157 656.896 471.885 656.075 473.34V480.913C656.886 482.358 658.126 483.081 659.796 483.081C661.095 483.081 662.125 482.568 662.887 481.543C663.658 480.508 664.044 478.975 664.044 476.943ZM680.465 469.15H683.175V485H680.465V473.442L673.155 485H670.445V469.15H673.155V480.723L680.465 469.15ZM696.651 481.411L702.042 469.15H705.426V485H702.716V473.472L697.589 485H695.714L690.484 473.223V485H687.774V469.15H691.29L696.651 481.411ZM716.368 485.293C714.22 485.293 712.472 484.59 711.124 483.184C709.776 481.768 709.103 479.878 709.103 477.515V477.017C709.103 475.444 709.4 474.043 709.996 472.812C710.602 471.572 711.441 470.605 712.516 469.912C713.6 469.209 714.771 468.857 716.031 468.857C718.092 468.857 719.693 469.536 720.836 470.894C721.979 472.251 722.55 474.194 722.55 476.724V477.852H711.812C711.852 479.414 712.306 480.679 713.175 481.646C714.054 482.603 715.167 483.081 716.515 483.081C717.472 483.081 718.282 482.886 718.946 482.495C719.61 482.104 720.191 481.587 720.689 480.942L722.345 482.231C721.017 484.272 719.024 485.293 716.368 485.293ZM716.031 471.084C714.938 471.084 714.02 471.484 713.277 472.285C712.535 473.076 712.076 474.189 711.9 475.625H719.84V475.42C719.762 474.043 719.391 472.979 718.727 472.227C718.062 471.465 717.164 471.084 716.031 471.084ZM739.088 477.251C739.088 479.663 738.536 481.606 737.433 483.081C736.329 484.556 734.835 485.293 732.95 485.293C731.026 485.293 729.513 484.683 728.409 483.462V491.094H725.699V469.15H728.175L728.307 470.908C729.41 469.541 730.943 468.857 732.906 468.857C734.811 468.857 736.314 469.575 737.418 471.011C738.531 472.446 739.088 474.443 739.088 477.002V477.251ZM736.378 476.943C736.378 475.156 735.997 473.745 735.235 472.71C734.474 471.675 733.429 471.157 732.101 471.157C730.46 471.157 729.229 471.885 728.409 473.34V480.913C729.22 482.358 730.46 483.081 732.13 483.081C733.429 483.081 734.459 482.568 735.221 481.543C735.992 480.508 736.378 478.975 736.378 476.943ZM761.764 471.348H756.446V485H753.736V471.348H748.521V469.15H761.764V471.348ZM769.806 485.293C767.657 485.293 765.909 484.59 764.562 483.184C763.214 481.768 762.54 479.878 762.54 477.515V477.017C762.54 475.444 762.838 474.043 763.434 472.812C764.039 471.572 764.879 470.605 765.953 469.912C767.037 469.209 768.209 468.857 769.469 468.857C771.529 468.857 773.131 469.536 774.273 470.894C775.416 472.251 775.987 474.194 775.987 476.724V477.852H765.25C765.289 479.414 765.743 480.679 766.612 481.646C767.491 482.603 768.604 483.081 769.952 483.081C770.909 483.081 771.72 482.886 772.384 482.495C773.048 482.104 773.629 481.587 774.127 480.942L775.782 482.231C774.454 484.272 772.462 485.293 769.806 485.293ZM769.469 471.084C768.375 471.084 767.457 471.484 766.715 472.285C765.973 473.076 765.514 474.189 765.338 475.625H773.277V475.42C773.199 474.043 772.828 472.979 772.164 472.227C771.5 471.465 770.602 471.084 769.469 471.084ZM784.073 478.247H782.096V485H779.371V469.15H782.096V475.859H783.868L789.2 469.15H792.481L786.212 476.768L793.009 485H789.566L784.073 478.247ZM801.461 483.081C802.428 483.081 803.272 482.788 803.995 482.202C804.718 481.616 805.118 480.884 805.196 480.005H807.76C807.711 480.913 807.398 481.777 806.822 482.598C806.246 483.418 805.475 484.072 804.508 484.561C803.551 485.049 802.535 485.293 801.461 485.293C799.303 485.293 797.584 484.575 796.305 483.14C795.035 481.694 794.4 479.722 794.4 477.222V476.768C794.4 475.225 794.684 473.853 795.25 472.651C795.816 471.45 796.627 470.518 797.682 469.854C798.746 469.189 800.001 468.857 801.446 468.857C803.224 468.857 804.698 469.39 805.87 470.454C807.052 471.519 807.682 472.9 807.76 474.6H805.196C805.118 473.574 804.728 472.734 804.024 472.08C803.331 471.416 802.472 471.084 801.446 471.084C800.069 471.084 799 471.582 798.238 472.578C797.486 473.564 797.11 474.995 797.11 476.87V477.383C797.11 479.209 797.486 480.615 798.238 481.602C798.99 482.588 800.064 483.081 801.461 483.081ZM822.584 471.348H817.267V485H814.557V471.348H809.342V469.15H822.584V471.348ZM834.771 485C834.615 484.688 834.488 484.131 834.391 483.33C833.131 484.639 831.627 485.293 829.879 485.293C828.316 485.293 827.032 484.854 826.026 483.975C825.03 483.086 824.532 481.963 824.532 480.605C824.532 478.955 825.157 477.676 826.407 476.768C827.667 475.85 829.435 475.391 831.71 475.391H834.347V474.146C834.347 473.198 834.063 472.446 833.497 471.89C832.931 471.323 832.096 471.04 830.992 471.04C830.025 471.04 829.215 471.284 828.561 471.772C827.906 472.261 827.579 472.852 827.579 473.545H824.854C824.854 472.754 825.133 471.992 825.689 471.26C826.256 470.518 827.018 469.932 827.975 469.502C828.941 469.072 830.001 468.857 831.153 468.857C832.979 468.857 834.41 469.316 835.445 470.234C836.48 471.143 837.018 472.397 837.057 473.999V481.294C837.057 482.749 837.242 483.906 837.613 484.766V485H834.771ZM830.274 482.935C831.124 482.935 831.93 482.715 832.691 482.275C833.453 481.836 834.005 481.265 834.347 480.562V477.31H832.223C828.902 477.31 827.242 478.281 827.242 480.225C827.242 481.074 827.525 481.738 828.092 482.217C828.658 482.695 829.386 482.935 830.274 482.935Z" fill="#888888"/>
<path d="M639.405 238.672V257.7H646.744V238.672H649.542V257.7H656.837V238.672H659.649V260H636.578V238.672H639.405ZM670.87 260.293C668.722 260.293 666.974 259.59 665.626 258.184C664.278 256.768 663.604 254.878 663.604 252.515V252.017C663.604 250.444 663.902 249.043 664.498 247.812C665.104 246.572 665.943 245.605 667.018 244.912C668.102 244.209 669.273 243.857 670.533 243.857C672.594 243.857 674.195 244.536 675.338 245.894C676.48 247.251 677.052 249.194 677.052 251.724V252.852H666.314C666.354 254.414 666.808 255.679 667.677 256.646C668.556 257.603 669.669 258.081 671.017 258.081C671.974 258.081 672.784 257.886 673.448 257.495C674.112 257.104 674.693 256.587 675.191 255.942L676.847 257.231C675.519 259.272 673.526 260.293 670.87 260.293ZM670.533 246.084C669.439 246.084 668.521 246.484 667.779 247.285C667.037 248.076 666.578 249.189 666.402 250.625H674.342V250.42C674.264 249.043 673.893 247.979 673.229 247.227C672.564 246.465 671.666 246.084 670.533 246.084ZM693.194 244.15V260H690.47V246.392H685.079L684.757 252.324C684.581 255.049 684.122 256.997 683.38 258.169C682.647 259.341 681.48 259.951 679.879 260H678.795V257.612L679.571 257.554C680.45 257.456 681.08 256.948 681.461 256.03C681.842 255.112 682.086 253.413 682.193 250.933L682.486 244.15H693.194ZM697.413 257.788L698.351 256.631C699.405 255.264 700.006 253.213 700.152 250.479L700.401 244.15H710.611V257.788H712.647V264.658H709.938V260H698.878V264.658H696.168L696.183 257.788H697.413ZM700.621 257.788H707.901V246.655H703.023L702.862 250.435C702.696 253.589 701.949 256.04 700.621 257.788ZM714.933 251.929C714.933 250.376 715.235 248.979 715.841 247.739C716.456 246.499 717.306 245.542 718.39 244.868C719.483 244.194 720.729 243.857 722.125 243.857C724.283 243.857 726.026 244.604 727.354 246.099C728.692 247.593 729.361 249.58 729.361 252.061V252.251C729.361 253.794 729.063 255.181 728.468 256.411C727.882 257.632 727.037 258.584 725.934 259.268C724.84 259.951 723.58 260.293 722.154 260.293C720.006 260.293 718.263 259.546 716.925 258.052C715.597 256.558 714.933 254.58 714.933 252.119V251.929ZM717.657 252.251C717.657 254.009 718.062 255.42 718.873 256.484C719.693 257.549 720.787 258.081 722.154 258.081C723.531 258.081 724.625 257.544 725.436 256.47C726.246 255.386 726.651 253.872 726.651 251.929C726.651 250.19 726.236 248.784 725.406 247.71C724.586 246.626 723.492 246.084 722.125 246.084C720.787 246.084 719.708 246.616 718.888 247.681C718.067 248.745 717.657 250.269 717.657 252.251ZM745.709 260H742.999V253.232H735.719V260H732.994V244.15H735.719V251.021H742.999V244.15H745.709V260ZM774.068 238.672V260H771.256V240.986H763.609L763.229 249.438C763.082 252.271 762.789 254.399 762.35 255.825C761.92 257.251 761.285 258.301 760.445 258.975C759.605 259.639 758.482 259.98 757.076 260H756.153V257.7L756.739 257.671C757.647 257.603 758.346 257.31 758.834 256.792C759.322 256.265 759.693 255.43 759.947 254.287C760.201 253.145 760.382 251.387 760.489 249.014L760.929 238.672H774.068ZM789.01 244.15H791.72V260H789.01V248.442L781.7 260H778.99V244.15H781.7V255.723L789.01 244.15ZM809.474 250.42H806.881V260H804.068V238.672H806.881V248.076H809.078L816.534 238.672H820.035L811.891 249.014L820.636 260H817.193L809.474 250.42ZM827.389 256.03L831.08 244.15H833.98L827.608 262.446C826.622 265.083 825.055 266.401 822.906 266.401L822.394 266.357L821.383 266.167V263.97L822.115 264.028C823.033 264.028 823.746 263.843 824.254 263.472C824.771 263.101 825.196 262.422 825.528 261.436L826.129 259.824L820.475 244.15H823.434L827.389 256.03ZM849.376 260H846.666V246.392H839.371V260H836.646V244.15H849.376V260ZM860.304 260.293C858.155 260.293 856.407 259.59 855.06 258.184C853.712 256.768 853.038 254.878 853.038 252.515V252.017C853.038 250.444 853.336 249.043 853.932 247.812C854.537 246.572 855.377 245.605 856.451 244.912C857.535 244.209 858.707 243.857 859.967 243.857C862.027 243.857 863.629 244.536 864.771 245.894C865.914 247.251 866.485 249.194 866.485 251.724V252.852H855.748C855.787 254.414 856.241 255.679 857.11 256.646C857.989 257.603 859.103 258.081 860.45 258.081C861.407 258.081 862.218 257.886 862.882 257.495C863.546 257.104 864.127 256.587 864.625 255.942L866.28 257.231C864.952 259.272 862.96 260.293 860.304 260.293ZM859.967 246.084C858.873 246.084 857.955 246.484 857.213 247.285C856.471 248.076 856.012 249.189 855.836 250.625H863.775V250.42C863.697 249.043 863.326 247.979 862.662 247.227C861.998 246.465 861.1 246.084 859.967 246.084ZM883.023 252.251C883.023 254.663 882.472 256.606 881.368 258.081C880.265 259.556 878.771 260.293 876.886 260.293C874.962 260.293 873.448 259.683 872.345 258.462V266.094H869.635V244.15H872.11L872.242 245.908C873.346 244.541 874.879 243.857 876.842 243.857C878.746 243.857 880.25 244.575 881.354 246.011C882.467 247.446 883.023 249.443 883.023 252.002V252.251ZM880.313 251.943C880.313 250.156 879.933 248.745 879.171 247.71C878.409 246.675 877.364 246.157 876.036 246.157C874.396 246.157 873.165 246.885 872.345 248.34V255.913C873.155 257.358 874.396 258.081 876.065 258.081C877.364 258.081 878.395 257.568 879.156 256.543C879.928 255.508 880.313 253.975 880.313 251.943Z" fill="#888888"/>
<path d="M642.628 371.293C640.479 371.293 638.731 370.59 637.384 369.184C636.036 367.768 635.362 365.878 635.362 363.515V363.017C635.362 361.444 635.66 360.043 636.256 358.812C636.861 357.572 637.701 356.605 638.775 355.912C639.859 355.209 641.031 354.857 642.291 354.857C644.352 354.857 645.953 355.536 647.096 356.894C648.238 358.251 648.81 360.194 648.81 362.724V363.852H638.072C638.111 365.414 638.565 366.679 639.435 367.646C640.313 368.603 641.427 369.081 642.774 369.081C643.731 369.081 644.542 368.886 645.206 368.495C645.87 368.104 646.451 367.587 646.949 366.942L648.604 368.231C647.276 370.272 645.284 371.293 642.628 371.293ZM642.291 357.084C641.197 357.084 640.279 357.484 639.537 358.285C638.795 359.076 638.336 360.189 638.16 361.625H646.1V361.42C646.021 360.043 645.65 358.979 644.986 358.227C644.322 357.465 643.424 357.084 642.291 357.084ZM657.276 360.937L660.792 355.15H663.956L658.771 362.987L664.117 371H660.982L657.32 365.067L653.658 371H650.509L655.855 362.987L650.67 355.15H653.805L657.276 360.937ZM676.627 371C676.471 370.688 676.344 370.131 676.246 369.33C674.986 370.639 673.482 371.293 671.734 371.293C670.172 371.293 668.888 370.854 667.882 369.975C666.886 369.086 666.388 367.963 666.388 366.605C666.388 364.955 667.013 363.676 668.263 362.768C669.522 361.85 671.29 361.391 673.565 361.391H676.202V360.146C676.202 359.198 675.919 358.446 675.353 357.89C674.786 357.323 673.951 357.04 672.848 357.04C671.881 357.04 671.07 357.284 670.416 357.772C669.762 358.261 669.435 358.852 669.435 359.545H666.71C666.71 358.754 666.988 357.992 667.545 357.26C668.111 356.518 668.873 355.932 669.83 355.502C670.797 355.072 671.856 354.857 673.009 354.857C674.835 354.857 676.266 355.316 677.301 356.234C678.336 357.143 678.873 358.397 678.912 359.999V367.294C678.912 368.749 679.098 369.906 679.469 370.766V371H676.627ZM672.13 368.935C672.979 368.935 673.785 368.715 674.547 368.275C675.309 367.836 675.86 367.265 676.202 366.562V363.31H674.078C670.758 363.31 669.098 364.281 669.098 366.225C669.098 367.074 669.381 367.738 669.947 368.217C670.514 368.695 671.241 368.935 672.13 368.935ZM685.709 355.15L685.782 356.908C686.944 355.541 688.512 354.857 690.484 354.857C692.701 354.857 694.21 355.707 695.011 357.406C695.538 356.645 696.222 356.029 697.062 355.561C697.911 355.092 698.912 354.857 700.064 354.857C703.541 354.857 705.309 356.698 705.367 360.38V371H702.657V360.541C702.657 359.408 702.398 358.563 701.881 358.007C701.363 357.44 700.494 357.157 699.273 357.157C698.268 357.157 697.433 357.46 696.769 358.065C696.104 358.661 695.719 359.467 695.611 360.482V371H692.887V360.614C692.887 358.31 691.759 357.157 689.503 357.157C687.726 357.157 686.51 357.914 685.855 359.428V371H683.146V355.15H685.709ZM722.857 363.251C722.857 365.663 722.306 367.606 721.202 369.081C720.099 370.556 718.604 371.293 716.72 371.293C714.796 371.293 713.282 370.683 712.179 369.462V377.094H709.469V355.15H711.944L712.076 356.908C713.18 355.541 714.713 354.857 716.676 354.857C718.58 354.857 720.084 355.575 721.188 357.011C722.301 358.446 722.857 360.443 722.857 363.002V363.251ZM720.147 362.943C720.147 361.156 719.767 359.745 719.005 358.71C718.243 357.675 717.198 357.157 715.87 357.157C714.229 357.157 712.999 357.885 712.179 359.34V366.913C712.989 368.358 714.229 369.081 715.899 369.081C717.198 369.081 718.229 368.568 718.99 367.543C719.762 366.508 720.147 364.975 720.147 362.943ZM729.259 371H726.549V348.5H729.259V371ZM740.187 371.293C738.038 371.293 736.29 370.59 734.942 369.184C733.595 367.768 732.921 365.878 732.921 363.515V363.017C732.921 361.444 733.219 360.043 733.814 358.812C734.42 357.572 735.26 356.605 736.334 355.912C737.418 355.209 738.59 354.857 739.85 354.857C741.91 354.857 743.512 355.536 744.654 356.894C745.797 358.251 746.368 360.194 746.368 362.724V363.852H735.631C735.67 365.414 736.124 366.679 736.993 367.646C737.872 368.603 738.985 369.081 740.333 369.081C741.29 369.081 742.101 368.886 742.765 368.495C743.429 368.104 744.01 367.587 744.508 366.942L746.163 368.231C744.835 370.272 742.843 371.293 740.187 371.293ZM739.85 357.084C738.756 357.084 737.838 357.484 737.096 358.285C736.354 359.076 735.895 360.189 735.719 361.625H743.658V361.42C743.58 360.043 743.209 358.979 742.545 358.227C741.881 357.465 740.982 357.084 739.85 357.084ZM772.926 363.646C772.809 366.01 772.223 367.875 771.168 369.242C770.113 370.609 768.702 371.293 766.935 371.293C765.108 371.293 763.937 370.473 763.419 368.832C762.892 369.662 762.286 370.282 761.603 370.692C760.929 371.093 760.23 371.293 759.508 371.293C758.121 371.293 757.071 370.727 756.358 369.594C755.646 368.461 755.382 366.894 755.567 364.892C755.714 363.28 756.08 361.845 756.666 360.585C757.262 359.315 758.023 358.319 758.951 357.597C759.889 356.874 760.87 356.513 761.896 356.513C762.687 356.513 763.395 356.62 764.02 356.835C764.645 357.04 765.348 357.45 766.129 358.065L765.367 366.181C765.182 368.437 765.807 369.564 767.242 369.564C768.346 369.564 769.239 369.018 769.923 367.924C770.606 366.83 770.978 365.404 771.036 363.646C771.222 359.848 770.514 356.952 768.912 354.96C767.32 352.968 764.894 351.972 761.632 351.972C759.669 351.972 757.926 352.46 756.402 353.437C754.879 354.403 753.678 355.805 752.799 357.641C751.92 359.477 751.427 361.596 751.319 363.998C751.202 366.42 751.495 368.524 752.198 370.312C752.901 372.089 753.971 373.446 755.406 374.384C756.852 375.331 758.595 375.805 760.636 375.805C761.515 375.805 762.394 375.697 763.272 375.482C764.161 375.268 764.898 374.989 765.484 374.647L766.026 376.332C765.421 376.713 764.615 377.025 763.609 377.27C762.613 377.514 761.603 377.636 760.577 377.636C758.136 377.636 756.036 377.084 754.278 375.98C752.521 374.887 751.202 373.305 750.323 371.234C749.454 369.174 749.078 366.762 749.195 363.998C749.312 361.312 749.913 358.9 750.997 356.762C752.081 354.613 753.551 352.958 755.406 351.796C757.262 350.624 759.356 350.038 761.69 350.038C764.122 350.038 766.207 350.585 767.945 351.679C769.684 352.772 770.978 354.35 771.827 356.41C772.677 358.471 773.043 360.883 772.926 363.646ZM757.896 364.892C757.76 366.278 757.887 367.343 758.277 368.085C758.678 368.827 759.308 369.198 760.167 369.198C760.753 369.198 761.314 368.949 761.852 368.451C762.398 367.953 762.848 367.24 763.199 366.312L763.214 366.181L763.888 358.812C763.341 358.529 762.755 358.388 762.13 358.388C760.987 358.388 760.04 358.969 759.288 360.131C758.546 361.293 758.082 362.88 757.896 364.892ZM775.826 362.943C775.826 360.473 776.397 358.51 777.54 357.055C778.683 355.59 780.196 354.857 782.081 354.857C784.015 354.857 785.523 355.541 786.607 356.908L786.739 355.15H789.215V370.619C789.215 372.67 788.604 374.286 787.384 375.468C786.173 376.649 784.542 377.24 782.491 377.24C781.349 377.24 780.23 376.996 779.137 376.508C778.043 376.02 777.208 375.351 776.632 374.501L778.038 372.875C779.2 374.311 780.621 375.028 782.301 375.028C783.619 375.028 784.645 374.657 785.377 373.915C786.119 373.173 786.49 372.128 786.49 370.78V369.418C785.406 370.668 783.927 371.293 782.052 371.293C780.196 371.293 778.692 370.546 777.54 369.052C776.397 367.558 775.826 365.521 775.826 362.943ZM778.551 363.251C778.551 365.038 778.917 366.444 779.649 367.47C780.382 368.485 781.407 368.993 782.726 368.993C784.435 368.993 785.689 368.217 786.49 366.664V359.428C785.66 357.914 784.415 357.157 782.755 357.157C781.437 357.157 780.406 357.67 779.664 358.695C778.922 359.721 778.551 361.239 778.551 363.251ZM795.865 355.15L795.938 356.908C797.101 355.541 798.668 354.857 800.641 354.857C802.857 354.857 804.366 355.707 805.167 357.406C805.694 356.645 806.378 356.029 807.218 355.561C808.067 355.092 809.068 354.857 810.221 354.857C813.697 354.857 815.465 356.698 815.523 360.38V371H812.813V360.541C812.813 359.408 812.555 358.563 812.037 358.007C811.52 357.44 810.65 357.157 809.43 357.157C808.424 357.157 807.589 357.46 806.925 358.065C806.261 358.661 805.875 359.467 805.768 360.482V371H803.043V360.614C803.043 358.31 801.915 357.157 799.659 357.157C797.882 357.157 796.666 357.914 796.012 359.428V371H793.302V355.15H795.865ZM829.41 371C829.254 370.688 829.127 370.131 829.029 369.33C827.77 370.639 826.266 371.293 824.518 371.293C822.955 371.293 821.671 370.854 820.665 369.975C819.669 369.086 819.171 367.963 819.171 366.605C819.171 364.955 819.796 363.676 821.046 362.768C822.306 361.85 824.073 361.391 826.349 361.391H828.985V360.146C828.985 359.198 828.702 358.446 828.136 357.89C827.569 357.323 826.734 357.04 825.631 357.04C824.664 357.04 823.854 357.284 823.199 357.772C822.545 358.261 822.218 358.852 822.218 359.545H819.493C819.493 358.754 819.771 357.992 820.328 357.26C820.895 356.518 821.656 355.932 822.613 355.502C823.58 355.072 824.64 354.857 825.792 354.857C827.618 354.857 829.049 355.316 830.084 356.234C831.119 357.143 831.656 358.397 831.695 359.999V367.294C831.695 368.749 831.881 369.906 832.252 370.766V371H829.41ZM824.913 368.935C825.763 368.935 826.568 368.715 827.33 368.275C828.092 367.836 828.644 367.265 828.985 366.562V363.31H826.861C823.541 363.31 821.881 364.281 821.881 366.225C821.881 367.074 822.164 367.738 822.73 368.217C823.297 368.695 824.024 368.935 824.913 368.935ZM838.888 371H836.178V355.15H838.888V371ZM835.958 350.946C835.958 350.507 836.09 350.136 836.354 349.833C836.627 349.53 837.027 349.379 837.555 349.379C838.082 349.379 838.482 349.53 838.756 349.833C839.029 350.136 839.166 350.507 839.166 350.946C839.166 351.386 839.029 351.752 838.756 352.045C838.482 352.338 838.082 352.484 837.555 352.484C837.027 352.484 836.627 352.338 836.354 352.045C836.09 351.752 835.958 351.386 835.958 350.946ZM846.183 371H843.473V348.5H846.183V371ZM850.592 369.579C850.592 369.11 850.729 368.72 851.002 368.407C851.285 368.095 851.705 367.938 852.262 367.938C852.818 367.938 853.238 368.095 853.521 368.407C853.814 368.72 853.961 369.11 853.961 369.579C853.961 370.028 853.814 370.404 853.521 370.707C853.238 371.01 852.818 371.161 852.262 371.161C851.705 371.161 851.285 371.01 851.002 370.707C850.729 370.404 850.592 370.028 850.592 369.579ZM864.801 369.081C865.768 369.081 866.612 368.788 867.335 368.202C868.058 367.616 868.458 366.884 868.536 366.005H871.1C871.051 366.913 870.738 367.777 870.162 368.598C869.586 369.418 868.814 370.072 867.848 370.561C866.891 371.049 865.875 371.293 864.801 371.293C862.643 371.293 860.924 370.575 859.645 369.14C858.375 367.694 857.74 365.722 857.74 363.222V362.768C857.74 361.225 858.023 359.853 858.59 358.651C859.156 357.45 859.967 356.518 861.021 355.854C862.086 355.189 863.341 354.857 864.786 354.857C866.563 354.857 868.038 355.39 869.21 356.454C870.392 357.519 871.021 358.9 871.1 360.6H868.536C868.458 359.574 868.067 358.734 867.364 358.08C866.671 357.416 865.812 357.084 864.786 357.084C863.409 357.084 862.34 357.582 861.578 358.578C860.826 359.564 860.45 360.995 860.45 362.87V363.383C860.45 365.209 860.826 366.615 861.578 367.602C862.33 368.588 863.404 369.081 864.801 369.081ZM873.429 362.929C873.429 361.376 873.731 359.979 874.337 358.739C874.952 357.499 875.802 356.542 876.886 355.868C877.979 355.194 879.225 354.857 880.621 354.857C882.779 354.857 884.522 355.604 885.851 357.099C887.188 358.593 887.857 360.58 887.857 363.061V363.251C887.857 364.794 887.56 366.181 886.964 367.411C886.378 368.632 885.533 369.584 884.43 370.268C883.336 370.951 882.076 371.293 880.65 371.293C878.502 371.293 876.759 370.546 875.421 369.052C874.093 367.558 873.429 365.58 873.429 363.119V362.929ZM876.153 363.251C876.153 365.009 876.559 366.42 877.369 367.484C878.189 368.549 879.283 369.081 880.65 369.081C882.027 369.081 883.121 368.544 883.932 367.47C884.742 366.386 885.147 364.872 885.147 362.929C885.147 361.19 884.732 359.784 883.902 358.71C883.082 357.626 881.988 357.084 880.621 357.084C879.283 357.084 878.204 357.616 877.384 358.681C876.563 359.745 876.153 361.269 876.153 363.251ZM893.805 355.15L893.878 356.908C895.04 355.541 896.607 354.857 898.58 354.857C900.797 354.857 902.306 355.707 903.106 357.406C903.634 356.645 904.317 356.029 905.157 355.561C906.007 355.092 907.008 354.857 908.16 354.857C911.637 354.857 913.404 356.698 913.463 360.38V371H910.753V360.541C910.753 359.408 910.494 358.563 909.977 358.007C909.459 357.44 908.59 357.157 907.369 357.157C906.363 357.157 905.528 357.46 904.864 358.065C904.2 358.661 903.814 359.467 903.707 360.482V371H900.982V360.614C900.982 358.31 899.854 357.157 897.599 357.157C895.821 357.157 894.605 357.914 893.951 359.428V371H891.241V355.15H893.805Z" fill="#888888"/>
<path d="M781.895 690.993C781.895 689.772 781.431 688.828 780.503 688.161C779.591 687.478 777.988 686.892 775.693 686.403C773.415 685.915 771.6 685.329 770.249 684.646C768.914 683.962 767.922 683.148 767.271 682.204C766.636 681.26 766.318 680.137 766.318 678.835C766.318 676.67 767.23 674.839 769.053 673.342C770.892 671.844 773.236 671.096 776.084 671.096C779.079 671.096 781.504 671.869 783.359 673.415C785.231 674.961 786.167 676.939 786.167 679.348H781.626C781.626 678.111 781.097 677.045 780.039 676.149C778.997 675.254 777.679 674.807 776.084 674.807C774.44 674.807 773.154 675.165 772.227 675.881C771.299 676.597 770.835 677.533 770.835 678.688C770.835 679.779 771.266 680.601 772.129 681.154C772.992 681.708 774.546 682.237 776.792 682.741C779.054 683.246 780.885 683.848 782.285 684.548C783.685 685.248 784.718 686.094 785.386 687.087C786.069 688.063 786.411 689.26 786.411 690.676C786.411 693.036 785.467 694.932 783.579 696.364C781.691 697.78 779.242 698.488 776.23 698.488C774.115 698.488 772.243 698.114 770.615 697.365C768.988 696.617 767.71 695.575 766.782 694.24C765.871 692.889 765.415 691.433 765.415 689.87H769.932C770.013 691.384 770.615 692.588 771.738 693.483C772.878 694.362 774.375 694.802 776.23 694.802C777.939 694.802 779.307 694.46 780.332 693.776C781.374 693.076 781.895 692.149 781.895 690.993ZM808.604 695.388C806.846 697.455 804.266 698.488 800.864 698.488C798.049 698.488 795.9 697.674 794.419 696.047C792.954 694.403 792.214 691.978 792.197 688.771V671.584H796.714V688.649C796.714 692.653 798.341 694.655 801.597 694.655C805.047 694.655 807.342 693.369 808.481 690.798V671.584H812.998V698H808.701L808.604 695.388ZM842.246 685.085C842.246 689.121 841.318 692.368 839.463 694.826C837.607 697.268 835.117 698.488 831.992 698.488C828.656 698.488 826.076 697.308 824.253 694.948L824.033 698H819.883V660.5H824.399V674.489C826.222 672.227 828.737 671.096 831.943 671.096C835.15 671.096 837.664 672.308 839.487 674.733C841.326 677.159 842.246 680.479 842.246 684.694V685.085ZM837.729 684.572C837.729 681.496 837.135 679.12 835.947 677.443C834.759 675.767 833.05 674.929 830.82 674.929C827.842 674.929 825.701 676.312 824.399 679.079V690.505C825.783 693.272 827.939 694.655 830.869 694.655C833.034 694.655 834.718 693.817 835.923 692.141C837.127 690.464 837.729 687.941 837.729 684.572ZM852.207 671.584L852.329 674.514C854.266 672.235 856.878 671.096 860.166 671.096C863.861 671.096 866.375 672.512 867.71 675.344C868.589 674.074 869.728 673.049 871.128 672.268C872.544 671.486 874.212 671.096 876.133 671.096C881.927 671.096 884.873 674.164 884.971 680.3V698H880.454V680.568C880.454 678.68 880.023 677.272 879.16 676.345C878.298 675.401 876.849 674.929 874.814 674.929C873.138 674.929 871.746 675.433 870.64 676.442C869.533 677.435 868.89 678.778 868.711 680.471V698H864.17V680.69C864.17 676.849 862.29 674.929 858.53 674.929C855.568 674.929 853.542 676.19 852.451 678.713V698H847.935V671.584H852.207ZM896.714 698H892.197V671.584H896.714V698ZM891.831 664.577C891.831 663.845 892.051 663.226 892.49 662.722C892.946 662.217 893.613 661.965 894.492 661.965C895.371 661.965 896.038 662.217 896.494 662.722C896.95 663.226 897.178 663.845 897.178 664.577C897.178 665.31 896.95 665.92 896.494 666.408C896.038 666.896 895.371 667.141 894.492 667.141C893.613 667.141 892.946 666.896 892.49 666.408C892.051 665.92 891.831 665.31 891.831 664.577ZM910.093 665.188V671.584H915.024V675.075H910.093V691.457C910.093 692.515 910.312 693.312 910.752 693.85C911.191 694.37 911.94 694.631 912.998 694.631C913.519 694.631 914.235 694.533 915.146 694.338V698C913.958 698.326 912.803 698.488 911.68 698.488C909.661 698.488 908.14 697.878 907.114 696.657C906.089 695.437 905.576 693.703 905.576 691.457V675.075H900.767V671.584H905.576V665.188H910.093Z" fill="white"/>
<g filter="url(#filter0_d)">
<rect x="614" y="634" width="333" height="79" rx="18" fill="#007BFF"/>
<path d="M714.161 673.123C714.161 675.572 713.728 677.72 712.862 679.565C711.996 681.411 710.755 682.835 709.137 683.838C707.53 684.84 705.685 685.342 703.6 685.342C701.537 685.342 699.697 684.846 698.08 683.855C696.462 682.864 695.208 681.451 694.32 679.617C693.431 677.771 692.981 675.652 692.97 673.259V672.029C692.97 669.579 693.408 667.426 694.286 665.569C695.174 663.7 696.422 662.271 698.028 661.279C699.646 660.277 701.492 659.775 703.565 659.775C705.639 659.775 707.479 660.277 709.085 661.279C710.703 662.271 711.951 663.7 712.828 665.569C713.717 667.426 714.161 669.574 714.161 672.012V673.123ZM708.966 671.995C708.966 669.386 708.499 667.403 707.564 666.047C706.63 664.692 705.297 664.014 703.565 664.014C701.845 664.014 700.518 664.686 699.583 666.03C698.649 667.363 698.176 669.323 698.165 671.909V673.123C698.165 675.663 698.632 677.634 699.566 679.036C700.501 680.437 701.845 681.138 703.6 681.138C705.32 681.138 706.642 680.465 707.564 679.121C708.487 677.765 708.954 675.794 708.966 673.208V671.995ZM732.909 670.474H726.979V685H722.022V670.474H716.195V666.509H732.909V670.474ZM751.485 685H746.529V670.508H740.343V685H735.404V666.509H751.485V685ZM771.908 675.925C771.908 678.774 771.258 681.058 769.959 682.778C768.672 684.487 766.929 685.342 764.73 685.342C762.861 685.342 761.352 684.692 760.201 683.394V692.109H755.262V666.509H759.842L760.013 668.32C761.209 666.885 762.77 666.167 764.696 666.167C766.974 666.167 768.746 667.01 770.011 668.696C771.275 670.382 771.908 672.707 771.908 675.669V675.925ZM766.969 675.566C766.969 673.846 766.661 672.519 766.046 671.584C765.442 670.65 764.559 670.183 763.397 670.183C761.847 670.183 760.782 670.776 760.201 671.96V679.531C760.805 680.75 761.882 681.36 763.431 681.36C765.79 681.36 766.969 679.429 766.969 675.566ZM785.699 685C785.471 684.556 785.306 684.003 785.204 683.342C784.007 684.675 782.452 685.342 780.538 685.342C778.727 685.342 777.223 684.818 776.026 683.77C774.841 682.721 774.249 681.4 774.249 679.805C774.249 677.845 774.972 676.341 776.419 675.293C777.878 674.245 779.98 673.715 782.726 673.704H784.999V672.644C784.999 671.79 784.776 671.106 784.332 670.593C783.899 670.081 783.21 669.824 782.264 669.824C781.432 669.824 780.777 670.024 780.299 670.422C779.832 670.821 779.598 671.368 779.598 672.063H774.659C774.659 670.992 774.99 670.001 775.65 669.089C776.311 668.178 777.245 667.466 778.453 666.953C779.661 666.429 781.017 666.167 782.521 666.167C784.799 666.167 786.605 666.742 787.938 667.893C789.282 669.032 789.955 670.639 789.955 672.712V680.728C789.966 682.482 790.211 683.809 790.689 684.709V685H785.699ZM781.615 681.565C782.344 681.565 783.016 681.405 783.631 681.086C784.247 680.756 784.702 680.317 784.999 679.771V676.592H783.153C780.681 676.592 779.365 677.446 779.205 679.155L779.188 679.446C779.188 680.061 779.404 680.568 779.837 680.967C780.27 681.366 780.863 681.565 781.615 681.565ZM794.073 685V666.509H801.798C804.316 666.509 806.247 666.953 807.591 667.842C808.936 668.73 809.608 670.007 809.608 671.67C809.608 672.524 809.323 673.293 808.753 673.977C808.195 674.649 807.375 675.168 806.292 675.532C807.614 675.783 808.651 676.278 809.403 677.019C810.166 677.748 810.548 678.648 810.548 679.719C810.548 681.44 809.898 682.75 808.6 683.65C807.312 684.55 805.438 685 802.977 685H794.073ZM799.012 677.327V681.052H802.994C804.737 681.052 805.609 680.443 805.609 679.224C805.609 677.982 804.777 677.349 803.114 677.327H799.012ZM799.012 674.011H802.071C803.803 673.988 804.669 673.43 804.669 672.336C804.669 671.664 804.43 671.186 803.951 670.901C803.484 670.616 802.766 670.474 801.798 670.474H799.012V674.011ZM824.715 666.509H829.654V685H824.715V673.584L818.529 685H813.573V666.509H818.529V677.908L824.715 666.509ZM848.778 670.474H842.848V685H837.892V670.474H832.064V666.509H848.778V670.474ZM856.554 671.926H860.091C861.686 671.926 863.088 672.194 864.295 672.729C865.503 673.265 866.426 674.034 867.064 675.037C867.713 676.028 868.038 677.184 868.038 678.506C868.038 680.454 867.315 682.026 865.868 683.223C864.432 684.408 862.472 685 859.989 685H851.598V666.509H856.554V671.926ZM856.554 675.891V681.052H860.057C861.037 681.052 861.789 680.824 862.313 680.369C862.837 679.913 863.099 679.292 863.099 678.506C863.099 677.708 862.843 677.076 862.33 676.609C861.817 676.13 861.06 675.891 860.057 675.891H856.554Z" fill="white"/>
</g>
<defs>
<filter id="filter0_d" x="614" y="634" width="342.27" height="88.27" filterUnits="userSpaceOnUse" color-interpolation-filters="sRGB">
<feFlood flood-opacity="0" result="BackgroundImageFix"/>
<feColorMatrix in="SourceAlpha" type="matrix" values="0 0 0 0 0 0 0 0 0 0 0 0 0 0 0 0 0 0 127 0" result="hardAlpha"/>
<feOffset dx="5.27" dy="5.27"/>
<feGaussianBlur stdDeviation="2"/>
<feColorMatrix type="matrix" values="0 0 0 0 0 0 0 0 0 0 0 0 0 0 0 0 0 0 0.25 0"/>
<feBlend mode="normal" in2="BackgroundImageFix" result="effect1_dropShadow"/>
<feBlend mode="normal" in="SourceGraphic" in2="effect1_dropShadow" result="shape"/>
</filter>
</defs>
</svg>
