<svg width="1600" height="900" viewBox="0 0 1600 900" fill="none" xmlns="http://www.w3.org/2000/svg">
<rect x="74.5" y="305.5" width="595" height="313" rx="48.5" stroke="#007BFF" stroke-width="3"/>
<rect x="287.5" y="349.5" width="345" height="38" rx="10.5" stroke="#007BFF" stroke-width="3"/>
<rect x="287.5" y="402.5" width="345" height="38" rx="10.5" stroke="#007BFF" stroke-width="3"/>
<rect x="287.5" y="456.5" width="345" height="77" rx="10.5" stroke="#007BFF" stroke-width="3"/>
<rect x="132" y="279" width="100" height="45" fill="white"/>
<path d="M151.541 304.912C151.541 303.148 151.883 301.761 152.566 300.752C153.25 299.743 154.188 299.238 155.379 299.238C155.932 299.238 156.417 299.333 156.834 299.521V295H158.641V299.58C159.096 299.352 159.63 299.238 160.242 299.238C161.44 299.238 162.381 299.743 163.064 300.752C163.748 301.761 164.09 303.216 164.09 305.117C164.09 306.673 163.748 307.91 163.064 308.828C162.387 309.746 161.453 310.205 160.262 310.205C159.63 310.205 159.09 310.101 158.641 309.893V314.062H156.834V309.922C156.404 310.111 155.913 310.205 155.359 310.205C154.174 310.205 153.24 309.746 152.557 308.828C151.88 307.91 151.541 306.654 151.541 305.059V304.912ZM162.283 304.912C162.283 303.584 162.055 302.555 161.6 301.826C161.144 301.09 160.516 300.723 159.715 300.723C159.305 300.723 158.947 300.788 158.641 300.918V308.564C158.934 308.675 159.298 308.73 159.734 308.73C160.542 308.73 161.167 308.418 161.609 307.793C162.059 307.168 162.283 306.208 162.283 304.912ZM153.348 305.117C153.348 306.302 153.559 307.201 153.982 307.812C154.406 308.424 155.014 308.73 155.809 308.73C156.186 308.73 156.528 308.672 156.834 308.555V300.889C156.561 300.778 156.225 300.723 155.828 300.723C155.034 300.723 154.422 301.077 153.992 301.787C153.562 302.497 153.348 303.607 153.348 305.117ZM165.965 304.619C165.965 303.584 166.167 302.653 166.57 301.826C166.98 300.999 167.547 300.361 168.27 299.912C168.999 299.463 169.829 299.238 170.76 299.238C172.199 299.238 173.361 299.736 174.246 300.732C175.138 301.729 175.584 303.053 175.584 304.707V304.834C175.584 305.863 175.385 306.787 174.988 307.607C174.598 308.421 174.035 309.056 173.299 309.512C172.57 309.967 171.73 310.195 170.779 310.195C169.347 310.195 168.185 309.697 167.293 308.701C166.408 307.705 165.965 306.387 165.965 304.746V304.619ZM167.781 304.834C167.781 306.006 168.051 306.947 168.592 307.656C169.139 308.366 169.868 308.721 170.779 308.721C171.697 308.721 172.426 308.363 172.967 307.646C173.507 306.924 173.777 305.915 173.777 304.619C173.777 303.46 173.501 302.523 172.947 301.807C172.4 301.084 171.671 300.723 170.76 300.723C169.868 300.723 169.148 301.077 168.602 301.787C168.055 302.497 167.781 303.512 167.781 304.834ZM186.775 304.834C186.775 306.442 186.408 307.738 185.672 308.721C184.936 309.704 183.94 310.195 182.684 310.195C181.401 310.195 180.392 309.788 179.656 308.975V314.062H177.85V299.434H179.5L179.588 300.605C180.324 299.694 181.346 299.238 182.654 299.238C183.924 299.238 184.926 299.717 185.662 300.674C186.404 301.631 186.775 302.962 186.775 304.668V304.834ZM184.969 304.629C184.969 303.438 184.715 302.497 184.207 301.807C183.699 301.117 183.003 300.771 182.117 300.771C181.023 300.771 180.203 301.257 179.656 302.227V307.275C180.197 308.239 181.023 308.721 182.137 308.721C183.003 308.721 183.689 308.379 184.197 307.695C184.712 307.005 184.969 305.983 184.969 304.629ZM195.164 307.607L198.758 299.434H201.014V310H199.207V302.314L195.789 310H194.539L191.053 302.148V310H189.246V299.434H191.59L195.164 307.607ZM210.447 310C210.343 309.792 210.258 309.421 210.193 308.887C209.354 309.759 208.351 310.195 207.186 310.195C206.144 310.195 205.288 309.902 204.617 309.316C203.953 308.724 203.621 307.975 203.621 307.07C203.621 305.97 204.038 305.117 204.871 304.512C205.711 303.9 206.889 303.594 208.406 303.594H210.164V302.764C210.164 302.132 209.975 301.631 209.598 301.26C209.22 300.882 208.663 300.693 207.928 300.693C207.283 300.693 206.743 300.856 206.307 301.182C205.87 301.507 205.652 301.901 205.652 302.363H203.836C203.836 301.836 204.021 301.328 204.393 300.84C204.77 300.345 205.278 299.954 205.916 299.668C206.561 299.382 207.267 299.238 208.035 299.238C209.253 299.238 210.206 299.544 210.896 300.156C211.587 300.762 211.945 301.598 211.971 302.666V307.529C211.971 308.499 212.094 309.271 212.342 309.844V310H210.447ZM207.449 308.623C208.016 308.623 208.553 308.477 209.061 308.184C209.568 307.891 209.936 307.51 210.164 307.041V304.873H208.748C206.535 304.873 205.428 305.521 205.428 306.816C205.428 307.383 205.617 307.826 205.994 308.145C206.372 308.464 206.857 308.623 207.449 308.623Z" fill="#007BFF"/>
<path d="M191.996 364.434H193.803V375H191.996V367.295L187.123 375H185.316V364.434H187.123V372.148L191.996 364.434ZM202.787 372.607L206.381 364.434H208.637V375H206.83V367.314L203.412 375H202.162L198.676 367.148V375H196.869V364.434H199.213L202.787 372.607ZM219.623 364.434V375H217.807V370.889H215.082L212.592 375H210.639L213.295 370.615C212.618 370.368 212.097 369.987 211.732 369.473C211.374 368.952 211.195 368.346 211.195 367.656C211.195 366.693 211.557 365.918 212.279 365.332C213.002 364.74 213.969 364.44 215.18 364.434H219.623ZM213.012 367.676C213.012 368.19 213.188 368.607 213.539 368.926C213.891 369.238 214.356 369.398 214.936 369.404H217.807V365.898H215.209C214.538 365.898 214.005 366.064 213.607 366.396C213.21 366.722 213.012 367.148 213.012 367.676ZM222.465 374.053C222.465 373.74 222.556 373.48 222.738 373.271C222.927 373.063 223.207 372.959 223.578 372.959C223.949 372.959 224.229 373.063 224.418 373.271C224.613 373.48 224.711 373.74 224.711 374.053C224.711 374.352 224.613 374.603 224.418 374.805C224.229 375.007 223.949 375.107 223.578 375.107C223.207 375.107 222.927 375.007 222.738 374.805C222.556 374.603 222.465 374.352 222.465 374.053ZM222.475 365.43C222.475 365.117 222.566 364.857 222.748 364.648C222.937 364.44 223.217 364.336 223.588 364.336C223.959 364.336 224.239 364.44 224.428 364.648C224.623 364.857 224.721 365.117 224.721 365.43C224.721 365.729 224.623 365.98 224.428 366.182C224.239 366.383 223.959 366.484 223.588 366.484C223.217 366.484 222.937 366.383 222.748 366.182C222.566 365.98 222.475 365.729 222.475 365.43Z" fill="#007BFF"/>
<path d="M178.158 428.195C176.726 428.195 175.561 427.727 174.662 426.789C173.764 425.845 173.314 424.585 173.314 423.01V422.678C173.314 421.63 173.513 420.695 173.91 419.875C174.314 419.048 174.874 418.404 175.59 417.941C176.312 417.473 177.094 417.238 177.934 417.238C179.307 417.238 180.375 417.691 181.137 418.596C181.898 419.501 182.279 420.796 182.279 422.482V423.234H175.121C175.147 424.276 175.45 425.119 176.029 425.764C176.615 426.402 177.357 426.721 178.256 426.721C178.894 426.721 179.434 426.59 179.877 426.33C180.32 426.07 180.707 425.725 181.039 425.295L182.143 426.154C181.257 427.515 179.929 428.195 178.158 428.195ZM177.934 418.723C177.204 418.723 176.592 418.99 176.098 419.523C175.603 420.051 175.297 420.793 175.18 421.75H180.473V421.613C180.421 420.695 180.173 419.986 179.73 419.484C179.288 418.977 178.689 418.723 177.934 418.723ZM186.078 417.434L186.127 418.605C186.902 417.694 187.947 417.238 189.262 417.238C190.74 417.238 191.745 417.805 192.279 418.938C192.631 418.43 193.087 418.02 193.646 417.707C194.213 417.395 194.88 417.238 195.648 417.238C197.966 417.238 199.145 418.465 199.184 420.92V428H197.377V421.027C197.377 420.272 197.204 419.709 196.859 419.338C196.514 418.96 195.935 418.771 195.121 418.771C194.451 418.771 193.894 418.973 193.451 419.377C193.008 419.774 192.751 420.311 192.68 420.988V428H190.863V421.076C190.863 419.54 190.111 418.771 188.607 418.771C187.423 418.771 186.612 419.276 186.176 420.285V428H184.369V417.434H186.078ZM208.441 428C208.337 427.792 208.253 427.421 208.188 426.887C207.348 427.759 206.345 428.195 205.18 428.195C204.138 428.195 203.282 427.902 202.611 427.316C201.947 426.724 201.615 425.975 201.615 425.07C201.615 423.97 202.032 423.117 202.865 422.512C203.705 421.9 204.883 421.594 206.4 421.594H208.158V420.764C208.158 420.132 207.969 419.631 207.592 419.26C207.214 418.882 206.658 418.693 205.922 418.693C205.277 418.693 204.737 418.856 204.301 419.182C203.865 419.507 203.646 419.901 203.646 420.363H201.83C201.83 419.836 202.016 419.328 202.387 418.84C202.764 418.345 203.272 417.954 203.91 417.668C204.555 417.382 205.261 417.238 206.029 417.238C207.247 417.238 208.201 417.544 208.891 418.156C209.581 418.762 209.939 419.598 209.965 420.666V425.529C209.965 426.499 210.089 427.271 210.336 427.844V428H208.441ZM205.443 426.623C206.01 426.623 206.547 426.477 207.055 426.184C207.562 425.891 207.93 425.51 208.158 425.041V422.873H206.742C204.529 422.873 203.422 423.521 203.422 424.816C203.422 425.383 203.611 425.826 203.988 426.145C204.366 426.464 204.851 426.623 205.443 426.623ZM214.76 428H212.953V417.434H214.76V428ZM212.807 414.631C212.807 414.338 212.895 414.09 213.07 413.889C213.253 413.687 213.52 413.586 213.871 413.586C214.223 413.586 214.49 413.687 214.672 413.889C214.854 414.09 214.945 414.338 214.945 414.631C214.945 414.924 214.854 415.168 214.672 415.363C214.49 415.559 214.223 415.656 213.871 415.656C213.52 415.656 213.253 415.559 213.07 415.363C212.895 415.168 212.807 414.924 212.807 414.631ZM219.623 428H217.816V413H219.623V428ZM222.465 427.053C222.465 426.74 222.556 426.48 222.738 426.271C222.927 426.063 223.207 425.959 223.578 425.959C223.949 425.959 224.229 426.063 224.418 426.271C224.613 426.48 224.711 426.74 224.711 427.053C224.711 427.352 224.613 427.603 224.418 427.805C224.229 428.007 223.949 428.107 223.578 428.107C223.207 428.107 222.927 428.007 222.738 427.805C222.556 427.603 222.465 427.352 222.465 427.053ZM222.475 418.43C222.475 418.117 222.566 417.857 222.748 417.648C222.937 417.44 223.217 417.336 223.588 417.336C223.959 417.336 224.239 417.44 224.428 417.648C224.623 417.857 224.721 418.117 224.721 418.43C224.721 418.729 224.623 418.98 224.428 419.182C224.239 419.383 223.959 419.484 223.588 419.484C223.217 419.484 222.937 419.383 222.748 419.182C222.566 418.98 222.475 418.729 222.475 418.43Z" fill="#007BFF"/>
<path d="M121.645 480.721C122.289 480.721 122.852 480.525 123.334 480.135C123.816 479.744 124.083 479.256 124.135 478.67H125.844C125.811 479.275 125.603 479.852 125.219 480.398C124.835 480.945 124.32 481.382 123.676 481.707C123.038 482.033 122.361 482.195 121.645 482.195C120.206 482.195 119.06 481.717 118.207 480.76C117.361 479.796 116.938 478.481 116.938 476.814V476.512C116.938 475.483 117.126 474.568 117.504 473.768C117.882 472.967 118.422 472.345 119.125 471.902C119.835 471.46 120.671 471.238 121.635 471.238C122.82 471.238 123.803 471.593 124.584 472.303C125.372 473.012 125.792 473.934 125.844 475.066H124.135C124.083 474.383 123.822 473.823 123.354 473.387C122.891 472.944 122.318 472.723 121.635 472.723C120.717 472.723 120.004 473.055 119.496 473.719C118.995 474.376 118.744 475.33 118.744 476.58V476.922C118.744 478.139 118.995 479.077 119.496 479.734C119.997 480.392 120.714 480.721 121.645 480.721ZM127.396 476.619C127.396 475.584 127.598 474.653 128.002 473.826C128.412 472.999 128.979 472.361 129.701 471.912C130.43 471.463 131.26 471.238 132.191 471.238C133.63 471.238 134.792 471.736 135.678 472.732C136.57 473.729 137.016 475.053 137.016 476.707V476.834C137.016 477.863 136.817 478.787 136.42 479.607C136.029 480.421 135.466 481.056 134.73 481.512C134.001 481.967 133.161 482.195 132.211 482.195C130.779 482.195 129.617 481.697 128.725 480.701C127.839 479.705 127.396 478.387 127.396 476.746V476.619ZM129.213 476.834C129.213 478.006 129.483 478.947 130.023 479.656C130.57 480.366 131.299 480.721 132.211 480.721C133.129 480.721 133.858 480.363 134.398 479.646C134.939 478.924 135.209 477.915 135.209 476.619C135.209 475.46 134.932 474.523 134.379 473.807C133.832 473.084 133.103 472.723 132.191 472.723C131.299 472.723 130.58 473.077 130.033 473.787C129.486 474.497 129.213 475.512 129.213 476.834ZM138.803 476.619C138.803 475.584 139.005 474.653 139.408 473.826C139.818 472.999 140.385 472.361 141.107 471.912C141.837 471.463 142.667 471.238 143.598 471.238C145.036 471.238 146.199 471.736 147.084 472.732C147.976 473.729 148.422 475.053 148.422 476.707V476.834C148.422 477.863 148.223 478.787 147.826 479.607C147.436 480.421 146.872 481.056 146.137 481.512C145.408 481.967 144.568 482.195 143.617 482.195C142.185 482.195 141.023 481.697 140.131 480.701C139.245 479.705 138.803 478.387 138.803 476.746V476.619ZM140.619 476.834C140.619 478.006 140.889 478.947 141.43 479.656C141.977 480.366 142.706 480.721 143.617 480.721C144.535 480.721 145.264 480.363 145.805 479.646C146.345 478.924 146.615 477.915 146.615 476.619C146.615 475.46 146.339 474.523 145.785 473.807C145.238 473.084 144.509 472.723 143.598 472.723C142.706 472.723 141.986 473.077 141.439 473.787C140.893 474.497 140.619 475.512 140.619 476.834ZM155.326 472.039C156.654 472.039 157.715 472.485 158.51 473.377C159.311 474.262 159.711 475.431 159.711 476.883V477.049C159.711 478.045 159.519 478.937 159.135 479.725C158.751 480.506 158.197 481.115 157.475 481.551C156.758 481.98 155.932 482.195 154.994 482.195C153.575 482.195 152.432 481.723 151.566 480.779C150.701 479.829 150.268 478.556 150.268 476.961V476.082C150.268 473.862 150.678 472.098 151.498 470.789C152.325 469.48 153.542 468.683 155.15 468.396C156.062 468.234 156.677 468.035 156.996 467.801C157.315 467.566 157.475 467.244 157.475 466.834H158.959C158.959 467.648 158.773 468.283 158.402 468.738C158.038 469.194 157.452 469.516 156.645 469.705L155.297 470.008C154.223 470.262 153.415 470.691 152.875 471.297C152.341 471.896 151.993 472.697 151.83 473.699C152.787 472.592 153.952 472.039 155.326 472.039ZM154.975 473.523C154.089 473.523 153.386 473.823 152.865 474.422C152.344 475.014 152.084 475.838 152.084 476.893V477.049C152.084 478.182 152.344 479.08 152.865 479.744C153.393 480.402 154.102 480.73 154.994 480.73C155.893 480.73 156.602 480.398 157.123 479.734C157.644 479.07 157.904 478.1 157.904 476.824C157.904 475.828 157.641 475.031 157.113 474.432C156.592 473.826 155.88 473.523 154.975 473.523ZM163.432 471.434V480.525H167.299V471.434H169.105V480.525H172.963V471.434H174.779V480.525H176.264L176.088 485.135H174.467V482H161.615V471.434H163.432ZM182.611 482.195C181.179 482.195 180.014 481.727 179.115 480.789C178.217 479.845 177.768 478.585 177.768 477.01V476.678C177.768 475.63 177.966 474.695 178.363 473.875C178.767 473.048 179.327 472.404 180.043 471.941C180.766 471.473 181.547 471.238 182.387 471.238C183.76 471.238 184.828 471.691 185.59 472.596C186.352 473.501 186.732 474.796 186.732 476.482V477.234H179.574C179.6 478.276 179.903 479.119 180.482 479.764C181.068 480.402 181.811 480.721 182.709 480.721C183.347 480.721 183.887 480.59 184.33 480.33C184.773 480.07 185.16 479.725 185.492 479.295L186.596 480.154C185.71 481.515 184.382 482.195 182.611 482.195ZM182.387 472.723C181.658 472.723 181.046 472.99 180.551 473.523C180.056 474.051 179.75 474.793 179.633 475.75H184.926V475.613C184.874 474.695 184.626 473.986 184.184 473.484C183.741 472.977 183.142 472.723 182.387 472.723ZM197.465 482H195.658V477.488H190.805V482H188.988V471.434H190.805V476.014H195.658V471.434H197.465V482ZM207.211 471.434H209.018V482H207.211V474.295L202.338 482H200.531V471.434H202.338V479.148L207.211 471.434ZM216.303 482.195C214.87 482.195 213.705 481.727 212.807 480.789C211.908 479.845 211.459 478.585 211.459 477.01V476.678C211.459 475.63 211.658 474.695 212.055 473.875C212.458 473.048 213.018 472.404 213.734 471.941C214.457 471.473 215.238 471.238 216.078 471.238C217.452 471.238 218.52 471.691 219.281 472.596C220.043 473.501 220.424 474.796 220.424 476.482V477.234H213.266C213.292 478.276 213.594 479.119 214.174 479.764C214.76 480.402 215.502 480.721 216.4 480.721C217.038 480.721 217.579 480.59 218.021 480.33C218.464 480.07 218.852 479.725 219.184 479.295L220.287 480.154C219.402 481.515 218.074 482.195 216.303 482.195ZM216.078 472.723C215.349 472.723 214.737 472.99 214.242 473.523C213.747 474.051 213.441 474.793 213.324 475.75H218.617V475.613C218.565 474.695 218.318 473.986 217.875 473.484C217.432 472.977 216.833 472.723 216.078 472.723ZM222.465 481.053C222.465 480.74 222.556 480.48 222.738 480.271C222.927 480.063 223.207 479.959 223.578 479.959C223.949 479.959 224.229 480.063 224.418 480.271C224.613 480.48 224.711 480.74 224.711 481.053C224.711 481.352 224.613 481.603 224.418 481.805C224.229 482.007 223.949 482.107 223.578 482.107C223.207 482.107 222.927 482.007 222.738 481.805C222.556 481.603 222.465 481.352 222.465 481.053ZM222.475 472.43C222.475 472.117 222.566 471.857 222.748 471.648C222.937 471.44 223.217 471.336 223.588 471.336C223.959 471.336 224.239 471.44 224.428 471.648C224.623 471.857 224.721 472.117 224.721 472.43C224.721 472.729 224.623 472.98 224.428 473.182C224.239 473.383 223.959 473.484 223.588 473.484C223.217 473.484 222.937 473.383 222.748 473.182C222.566 472.98 222.475 472.729 222.475 472.43Z" fill="#007BFF"/>
<path d="M305.01 483H303.203V473.928H298.34V483H296.523V472.434H305.01V483ZM316.836 477.834C316.836 479.442 316.468 480.738 315.732 481.721C314.997 482.704 314.001 483.195 312.744 483.195C311.462 483.195 310.452 482.788 309.717 481.975V487.062H307.91V472.434H309.561L309.648 473.605C310.384 472.694 311.406 472.238 312.715 472.238C313.984 472.238 314.987 472.717 315.723 473.674C316.465 474.631 316.836 475.962 316.836 477.668V477.834ZM315.029 477.629C315.029 476.438 314.775 475.497 314.268 474.807C313.76 474.117 313.063 473.771 312.178 473.771C311.084 473.771 310.264 474.257 309.717 475.227V480.275C310.257 481.239 311.084 481.721 312.197 481.721C313.063 481.721 313.75 481.379 314.258 480.695C314.772 480.005 315.029 478.983 315.029 477.629ZM325.977 472.434H327.783V483H325.977V475.295L321.104 483H319.297V472.434H321.104V480.148L325.977 472.434ZM336.768 480.607L340.361 472.434H342.617V483H340.811V475.314L337.393 483H336.143L332.656 475.148V483H330.85V472.434H333.193L336.768 480.607ZM349.912 483.195C348.48 483.195 347.314 482.727 346.416 481.789C345.518 480.845 345.068 479.585 345.068 478.01V477.678C345.068 476.63 345.267 475.695 345.664 474.875C346.068 474.048 346.628 473.404 347.344 472.941C348.066 472.473 348.848 472.238 349.688 472.238C351.061 472.238 352.129 472.691 352.891 473.596C353.652 474.501 354.033 475.796 354.033 477.482V478.234H346.875C346.901 479.276 347.204 480.119 347.783 480.764C348.369 481.402 349.111 481.721 350.01 481.721C350.648 481.721 351.188 481.59 351.631 481.33C352.074 481.07 352.461 480.725 352.793 480.295L353.896 481.154C353.011 482.515 351.683 483.195 349.912 483.195ZM349.688 473.723C348.958 473.723 348.346 473.99 347.852 474.523C347.357 475.051 347.051 475.793 346.934 476.75H352.227V476.613C352.174 475.695 351.927 474.986 351.484 474.484C351.042 473.977 350.443 473.723 349.688 473.723ZM365.059 477.834C365.059 479.442 364.691 480.738 363.955 481.721C363.219 482.704 362.223 483.195 360.967 483.195C359.684 483.195 358.675 482.788 357.939 481.975V487.062H356.133V472.434H357.783L357.871 473.605C358.607 472.694 359.629 472.238 360.938 472.238C362.207 472.238 363.21 472.717 363.945 473.674C364.688 474.631 365.059 475.962 365.059 477.668V477.834ZM363.252 477.629C363.252 476.438 362.998 475.497 362.49 474.807C361.982 474.117 361.286 473.771 360.4 473.771C359.307 473.771 358.486 474.257 357.939 475.227V480.275C358.48 481.239 359.307 481.721 360.42 481.721C361.286 481.721 361.973 481.379 362.48 480.695C362.995 480.005 363.252 478.983 363.252 477.629ZM380.176 473.898H376.631V483H374.824V473.898H371.348V472.434H380.176V473.898ZM385.537 483.195C384.105 483.195 382.939 482.727 382.041 481.789C381.143 480.845 380.693 479.585 380.693 478.01V477.678C380.693 476.63 380.892 475.695 381.289 474.875C381.693 474.048 382.253 473.404 382.969 472.941C383.691 472.473 384.473 472.238 385.312 472.238C386.686 472.238 387.754 472.691 388.516 473.596C389.277 474.501 389.658 475.796 389.658 477.482V478.234H382.5C382.526 479.276 382.829 480.119 383.408 480.764C383.994 481.402 384.736 481.721 385.635 481.721C386.273 481.721 386.813 481.59 387.256 481.33C387.699 481.07 388.086 480.725 388.418 480.295L389.521 481.154C388.636 482.515 387.308 483.195 385.537 483.195ZM385.312 473.723C384.583 473.723 383.971 473.99 383.477 474.523C382.982 475.051 382.676 475.793 382.559 476.75H387.852V476.613C387.799 475.695 387.552 474.986 387.109 474.484C386.667 473.977 386.068 473.723 385.312 473.723ZM395.049 478.498H393.73V483H391.914V472.434H393.73V476.906H394.912L398.467 472.434H400.654L396.475 477.512L401.006 483H398.711L395.049 478.498ZM406.641 481.721C407.285 481.721 407.848 481.525 408.33 481.135C408.812 480.744 409.079 480.256 409.131 479.67H410.84C410.807 480.275 410.599 480.852 410.215 481.398C409.831 481.945 409.316 482.382 408.672 482.707C408.034 483.033 407.357 483.195 406.641 483.195C405.202 483.195 404.056 482.717 403.203 481.76C402.357 480.796 401.934 479.481 401.934 477.814V477.512C401.934 476.483 402.122 475.568 402.5 474.768C402.878 473.967 403.418 473.345 404.121 472.902C404.831 472.46 405.667 472.238 406.631 472.238C407.816 472.238 408.799 472.593 409.58 473.303C410.368 474.012 410.788 474.934 410.84 476.066H409.131C409.079 475.383 408.818 474.823 408.35 474.387C407.887 473.944 407.314 473.723 406.631 473.723C405.713 473.723 405 474.055 404.492 474.719C403.991 475.376 403.74 476.33 403.74 477.58V477.922C403.74 479.139 403.991 480.077 404.492 480.734C404.993 481.392 405.71 481.721 406.641 481.721ZM420.723 473.898H417.178V483H415.371V473.898H411.895V472.434H420.723V473.898ZM428.848 483C428.743 482.792 428.659 482.421 428.594 481.887C427.754 482.759 426.751 483.195 425.586 483.195C424.544 483.195 423.688 482.902 423.018 482.316C422.354 481.724 422.021 480.975 422.021 480.07C422.021 478.97 422.438 478.117 423.271 477.512C424.111 476.9 425.29 476.594 426.807 476.594H428.564V475.764C428.564 475.132 428.376 474.631 427.998 474.26C427.62 473.882 427.064 473.693 426.328 473.693C425.684 473.693 425.143 473.856 424.707 474.182C424.271 474.507 424.053 474.901 424.053 475.363H422.236C422.236 474.836 422.422 474.328 422.793 473.84C423.171 473.345 423.678 472.954 424.316 472.668C424.961 472.382 425.667 472.238 426.436 472.238C427.653 472.238 428.607 472.544 429.297 473.156C429.987 473.762 430.345 474.598 430.371 475.666V480.529C430.371 481.499 430.495 482.271 430.742 482.844V483H428.848ZM425.85 481.623C426.416 481.623 426.953 481.477 427.461 481.184C427.969 480.891 428.337 480.51 428.564 480.041V477.873H427.148C424.935 477.873 423.828 478.521 423.828 479.816C423.828 480.383 424.017 480.826 424.395 481.145C424.772 481.464 425.257 481.623 425.85 481.623Z" fill="#888888"/>
<path d="M298.604 361.781V374.467H303.496V361.781H305.361V374.467H310.225V361.781H312.1V376H296.719V361.781H298.604ZM319.58 376.195C318.148 376.195 316.982 375.727 316.084 374.789C315.186 373.845 314.736 372.585 314.736 371.01V370.678C314.736 369.63 314.935 368.695 315.332 367.875C315.736 367.048 316.296 366.404 317.012 365.941C317.734 365.473 318.516 365.238 319.355 365.238C320.729 365.238 321.797 365.691 322.559 366.596C323.32 367.501 323.701 368.796 323.701 370.482V371.234H316.543C316.569 372.276 316.872 373.119 317.451 373.764C318.037 374.402 318.779 374.721 319.678 374.721C320.316 374.721 320.856 374.59 321.299 374.33C321.742 374.07 322.129 373.725 322.461 373.295L323.564 374.154C322.679 375.515 321.351 376.195 319.58 376.195ZM319.355 366.723C318.626 366.723 318.014 366.99 317.52 367.523C317.025 368.051 316.719 368.793 316.602 369.75H321.895V369.613C321.842 368.695 321.595 367.986 321.152 367.484C320.71 366.977 320.111 366.723 319.355 366.723ZM334.463 365.434V376H332.646V366.928H329.053L328.838 370.883C328.721 372.699 328.415 373.998 327.92 374.779C327.432 375.561 326.654 375.967 325.586 376H324.863V374.408L325.381 374.369C325.967 374.304 326.387 373.965 326.641 373.354C326.895 372.742 327.057 371.609 327.129 369.955L327.324 365.434H334.463ZM337.275 374.525L337.9 373.754C338.604 372.842 339.004 371.475 339.102 369.652L339.268 365.434H346.074V374.525H347.432V379.105H345.625V376H338.252V379.105H336.445L336.455 374.525H337.275ZM339.414 374.525H344.268V367.104H341.016L340.908 369.623C340.798 371.726 340.299 373.36 339.414 374.525ZM348.955 370.619C348.955 369.584 349.157 368.653 349.561 367.826C349.971 366.999 350.537 366.361 351.26 365.912C351.989 365.463 352.819 365.238 353.75 365.238C355.189 365.238 356.351 365.736 357.236 366.732C358.128 367.729 358.574 369.053 358.574 370.707V370.834C358.574 371.863 358.376 372.787 357.979 373.607C357.588 374.421 357.025 375.056 356.289 375.512C355.56 375.967 354.72 376.195 353.77 376.195C352.337 376.195 351.175 375.697 350.283 374.701C349.398 373.705 348.955 372.387 348.955 370.746V370.619ZM350.771 370.834C350.771 372.006 351.042 372.947 351.582 373.656C352.129 374.366 352.858 374.721 353.77 374.721C354.688 374.721 355.417 374.363 355.957 373.646C356.497 372.924 356.768 371.915 356.768 370.619C356.768 369.46 356.491 368.523 355.938 367.807C355.391 367.084 354.661 366.723 353.75 366.723C352.858 366.723 352.139 367.077 351.592 367.787C351.045 368.497 350.771 369.512 350.771 370.834ZM369.473 376H367.666V371.488H362.812V376H360.996V365.434H362.812V370.014H367.666V365.434H369.473V376ZM388.379 361.781V376H386.504V363.324H381.406L381.152 368.959C381.055 370.847 380.859 372.266 380.566 373.217C380.28 374.167 379.857 374.867 379.297 375.316C378.737 375.759 377.988 375.987 377.051 376H376.436V374.467L376.826 374.447C377.432 374.402 377.897 374.206 378.223 373.861C378.548 373.51 378.796 372.953 378.965 372.191C379.134 371.43 379.255 370.258 379.326 368.676L379.619 361.781H388.379ZM398.34 365.434H400.146V376H398.34V368.295L393.467 376H391.66V365.434H393.467V373.148L398.34 365.434ZM411.982 369.613H410.254V376H408.379V361.781H410.254V368.051H411.719L416.689 361.781H419.023L413.594 368.676L419.424 376H417.129L411.982 369.613ZM423.926 373.354L426.387 365.434H428.32L424.072 377.631C423.415 379.389 422.37 380.268 420.938 380.268L420.596 380.238L419.922 380.111V378.646L420.41 378.686C421.022 378.686 421.497 378.562 421.836 378.314C422.181 378.067 422.464 377.615 422.686 376.957L423.086 375.883L419.316 365.434H421.289L423.926 373.354ZM438.584 376H436.777V366.928H431.914V376H430.098V365.434H438.584V376ZM445.869 376.195C444.437 376.195 443.271 375.727 442.373 374.789C441.475 373.845 441.025 372.585 441.025 371.01V370.678C441.025 369.63 441.224 368.695 441.621 367.875C442.025 367.048 442.585 366.404 443.301 365.941C444.023 365.473 444.805 365.238 445.645 365.238C447.018 365.238 448.086 365.691 448.848 366.596C449.609 367.501 449.99 368.796 449.99 370.482V371.234H442.832C442.858 372.276 443.161 373.119 443.74 373.764C444.326 374.402 445.068 374.721 445.967 374.721C446.605 374.721 447.145 374.59 447.588 374.33C448.031 374.07 448.418 373.725 448.75 373.295L449.854 374.154C448.968 375.515 447.64 376.195 445.869 376.195ZM445.645 366.723C444.915 366.723 444.303 366.99 443.809 367.523C443.314 368.051 443.008 368.793 442.891 369.75H448.184V369.613C448.132 368.695 447.884 367.986 447.441 367.484C446.999 366.977 446.4 366.723 445.645 366.723ZM461.016 370.834C461.016 372.442 460.648 373.738 459.912 374.721C459.176 375.704 458.18 376.195 456.924 376.195C455.641 376.195 454.632 375.788 453.896 374.975V380.062H452.09V365.434H453.74L453.828 366.605C454.564 365.694 455.586 365.238 456.895 365.238C458.164 365.238 459.167 365.717 459.902 366.674C460.645 367.631 461.016 368.962 461.016 370.668V370.834ZM459.209 370.629C459.209 369.438 458.955 368.497 458.447 367.807C457.939 367.117 457.243 366.771 456.357 366.771C455.264 366.771 454.443 367.257 453.896 368.227V373.275C454.437 374.239 455.264 374.721 456.377 374.721C457.243 374.721 457.93 374.379 458.438 373.695C458.952 373.005 459.209 371.983 459.209 370.629Z" fill="#888888"/>
<path d="M300.752 427.195C299.32 427.195 298.154 426.727 297.256 425.789C296.357 424.845 295.908 423.585 295.908 422.01V421.678C295.908 420.63 296.107 419.695 296.504 418.875C296.908 418.048 297.467 417.404 298.184 416.941C298.906 416.473 299.688 416.238 300.527 416.238C301.901 416.238 302.969 416.691 303.73 417.596C304.492 418.501 304.873 419.796 304.873 421.482V422.234H297.715C297.741 423.276 298.044 424.119 298.623 424.764C299.209 425.402 299.951 425.721 300.85 425.721C301.488 425.721 302.028 425.59 302.471 425.33C302.913 425.07 303.301 424.725 303.633 424.295L304.736 425.154C303.851 426.515 302.523 427.195 300.752 427.195ZM300.527 417.723C299.798 417.723 299.186 417.99 298.691 418.523C298.197 419.051 297.891 419.793 297.773 420.75H303.066V420.613C303.014 419.695 302.767 418.986 302.324 418.484C301.882 417.977 301.283 417.723 300.527 417.723ZM310.518 420.291L312.861 416.434H314.971L311.514 421.658L315.078 427H312.988L310.547 423.045L308.105 427H306.006L309.57 421.658L306.113 416.434H308.203L310.518 420.291ZM323.418 427C323.314 426.792 323.229 426.421 323.164 425.887C322.324 426.759 321.322 427.195 320.156 427.195C319.115 427.195 318.258 426.902 317.588 426.316C316.924 425.724 316.592 424.975 316.592 424.07C316.592 422.97 317.008 422.117 317.842 421.512C318.682 420.9 319.86 420.594 321.377 420.594H323.135V419.764C323.135 419.132 322.946 418.631 322.568 418.26C322.191 417.882 321.634 417.693 320.898 417.693C320.254 417.693 319.714 417.856 319.277 418.182C318.841 418.507 318.623 418.901 318.623 419.363H316.807C316.807 418.836 316.992 418.328 317.363 417.84C317.741 417.345 318.249 416.954 318.887 416.668C319.531 416.382 320.238 416.238 321.006 416.238C322.223 416.238 323.177 416.544 323.867 417.156C324.557 417.762 324.915 418.598 324.941 419.666V424.529C324.941 425.499 325.065 426.271 325.312 426.844V427H323.418ZM320.42 425.623C320.986 425.623 321.523 425.477 322.031 425.184C322.539 424.891 322.907 424.51 323.135 424.041V421.873H321.719C319.505 421.873 318.398 422.521 318.398 423.816C318.398 424.383 318.587 424.826 318.965 425.145C319.342 425.464 319.827 425.623 320.42 425.623ZM329.473 416.434L329.521 417.605C330.296 416.694 331.341 416.238 332.656 416.238C334.134 416.238 335.14 416.805 335.674 417.938C336.025 417.43 336.481 417.02 337.041 416.707C337.607 416.395 338.275 416.238 339.043 416.238C341.361 416.238 342.539 417.465 342.578 419.92V427H340.771V420.027C340.771 419.272 340.599 418.709 340.254 418.338C339.909 417.96 339.329 417.771 338.516 417.771C337.845 417.771 337.288 417.973 336.846 418.377C336.403 418.774 336.146 419.311 336.074 419.988V427H334.258V420.076C334.258 418.54 333.506 417.771 332.002 417.771C330.817 417.771 330.007 418.276 329.57 419.285V427H327.764V416.434H329.473ZM354.238 421.834C354.238 423.442 353.87 424.738 353.135 425.721C352.399 426.704 351.403 427.195 350.146 427.195C348.864 427.195 347.855 426.788 347.119 425.975V431.062H345.312V416.434H346.963L347.051 417.605C347.786 416.694 348.809 416.238 350.117 416.238C351.387 416.238 352.389 416.717 353.125 417.674C353.867 418.631 354.238 419.962 354.238 421.668V421.834ZM352.432 421.629C352.432 420.438 352.178 419.497 351.67 418.807C351.162 418.117 350.465 417.771 349.58 417.771C348.486 417.771 347.666 418.257 347.119 419.227V424.275C347.66 425.239 348.486 425.721 349.6 425.721C350.465 425.721 351.152 425.379 351.66 424.695C352.174 424.005 352.432 422.983 352.432 421.629ZM358.506 427H356.699V412H358.506V427ZM365.791 427.195C364.359 427.195 363.193 426.727 362.295 425.789C361.396 424.845 360.947 423.585 360.947 422.01V421.678C360.947 420.63 361.146 419.695 361.543 418.875C361.947 418.048 362.507 417.404 363.223 416.941C363.945 416.473 364.727 416.238 365.566 416.238C366.94 416.238 368.008 416.691 368.77 417.596C369.531 418.501 369.912 419.796 369.912 421.482V422.234H362.754C362.78 423.276 363.083 424.119 363.662 424.764C364.248 425.402 364.99 425.721 365.889 425.721C366.527 425.721 367.067 425.59 367.51 425.33C367.952 425.07 368.34 424.725 368.672 424.295L369.775 425.154C368.89 426.515 367.562 427.195 365.791 427.195ZM365.566 417.723C364.837 417.723 364.225 417.99 363.73 418.523C363.236 419.051 362.93 419.793 362.812 420.75H368.105V420.613C368.053 419.695 367.806 418.986 367.363 418.484C366.921 417.977 366.322 417.723 365.566 417.723ZM387.617 422.098C387.539 423.673 387.148 424.917 386.445 425.828C385.742 426.74 384.801 427.195 383.623 427.195C382.406 427.195 381.624 426.648 381.279 425.555C380.928 426.108 380.524 426.521 380.068 426.795C379.619 427.062 379.154 427.195 378.672 427.195C377.747 427.195 377.048 426.818 376.572 426.062C376.097 425.307 375.921 424.262 376.045 422.928C376.143 421.854 376.387 420.896 376.777 420.057C377.174 419.21 377.682 418.546 378.301 418.064C378.926 417.583 379.58 417.342 380.264 417.342C380.791 417.342 381.263 417.413 381.68 417.557C382.096 417.693 382.565 417.967 383.086 418.377L382.578 423.787C382.454 425.291 382.871 426.043 383.828 426.043C384.564 426.043 385.16 425.678 385.615 424.949C386.071 424.22 386.318 423.27 386.357 422.098C386.481 419.565 386.009 417.635 384.941 416.307C383.88 414.979 382.262 414.314 380.088 414.314C378.779 414.314 377.617 414.64 376.602 415.291C375.586 415.936 374.785 416.87 374.199 418.094C373.613 419.318 373.285 420.73 373.213 422.332C373.135 423.947 373.33 425.35 373.799 426.541C374.268 427.726 374.98 428.631 375.938 429.256C376.901 429.887 378.063 430.203 379.424 430.203C380.01 430.203 380.596 430.132 381.182 429.988C381.774 429.845 382.266 429.66 382.656 429.432L383.018 430.555C382.614 430.809 382.077 431.017 381.406 431.18C380.742 431.342 380.068 431.424 379.385 431.424C377.757 431.424 376.357 431.056 375.186 430.32C374.014 429.591 373.135 428.536 372.549 427.156C371.969 425.783 371.719 424.174 371.797 422.332C371.875 420.542 372.275 418.934 372.998 417.508C373.721 416.076 374.701 414.972 375.938 414.197C377.174 413.416 378.571 413.025 380.127 413.025C381.748 413.025 383.138 413.39 384.297 414.119C385.456 414.848 386.318 415.9 386.885 417.273C387.451 418.647 387.695 420.255 387.617 422.098ZM377.598 422.928C377.507 423.852 377.591 424.562 377.852 425.057C378.118 425.551 378.538 425.799 379.111 425.799C379.502 425.799 379.876 425.633 380.234 425.301C380.599 424.969 380.898 424.493 381.133 423.875L381.143 423.787L381.592 418.875C381.227 418.686 380.837 418.592 380.42 418.592C379.658 418.592 379.027 418.979 378.525 419.754C378.031 420.529 377.721 421.587 377.598 422.928ZM389.551 421.629C389.551 419.982 389.932 418.673 390.693 417.703C391.455 416.727 392.464 416.238 393.721 416.238C395.01 416.238 396.016 416.694 396.738 417.605L396.826 416.434H398.477V426.746C398.477 428.113 398.07 429.191 397.256 429.979C396.449 430.766 395.361 431.16 393.994 431.16C393.232 431.16 392.487 430.997 391.758 430.672C391.029 430.346 390.472 429.9 390.088 429.334L391.025 428.25C391.8 429.207 392.747 429.686 393.867 429.686C394.746 429.686 395.43 429.438 395.918 428.943C396.413 428.449 396.66 427.752 396.66 426.854V425.945C395.938 426.779 394.951 427.195 393.701 427.195C392.464 427.195 391.462 426.697 390.693 425.701C389.932 424.705 389.551 423.348 389.551 421.629ZM391.367 421.834C391.367 423.025 391.611 423.963 392.1 424.646C392.588 425.324 393.271 425.662 394.15 425.662C395.29 425.662 396.126 425.145 396.66 424.109V419.285C396.107 418.276 395.277 417.771 394.17 417.771C393.291 417.771 392.604 418.113 392.109 418.797C391.615 419.48 391.367 420.493 391.367 421.834ZM402.91 416.434L402.959 417.605C403.734 416.694 404.779 416.238 406.094 416.238C407.572 416.238 408.577 416.805 409.111 417.938C409.463 417.43 409.919 417.02 410.479 416.707C411.045 416.395 411.712 416.238 412.48 416.238C414.798 416.238 415.977 417.465 416.016 419.92V427H414.209V420.027C414.209 419.272 414.036 418.709 413.691 418.338C413.346 417.96 412.767 417.771 411.953 417.771C411.283 417.771 410.726 417.973 410.283 418.377C409.84 418.774 409.583 419.311 409.512 419.988V427H407.695V420.076C407.695 418.54 406.943 417.771 405.439 417.771C404.255 417.771 403.444 418.276 403.008 419.285V427H401.201V416.434H402.91ZM425.273 427C425.169 426.792 425.085 426.421 425.02 425.887C424.18 426.759 423.177 427.195 422.012 427.195C420.97 427.195 420.114 426.902 419.443 426.316C418.779 425.724 418.447 424.975 418.447 424.07C418.447 422.97 418.864 422.117 419.697 421.512C420.537 420.9 421.715 420.594 423.232 420.594H424.99V419.764C424.99 419.132 424.801 418.631 424.424 418.26C424.046 417.882 423.49 417.693 422.754 417.693C422.109 417.693 421.569 417.856 421.133 418.182C420.697 418.507 420.479 418.901 420.479 419.363H418.662C418.662 418.836 418.848 418.328 419.219 417.84C419.596 417.345 420.104 416.954 420.742 416.668C421.387 416.382 422.093 416.238 422.861 416.238C424.079 416.238 425.033 416.544 425.723 417.156C426.413 417.762 426.771 418.598 426.797 419.666V424.529C426.797 425.499 426.921 426.271 427.168 426.844V427H425.273ZM422.275 425.623C422.842 425.623 423.379 425.477 423.887 425.184C424.395 424.891 424.762 424.51 424.99 424.041V421.873H423.574C421.361 421.873 420.254 422.521 420.254 423.816C420.254 424.383 420.443 424.826 420.82 425.145C421.198 425.464 421.683 425.623 422.275 425.623ZM431.592 427H429.785V416.434H431.592V427ZM429.639 413.631C429.639 413.338 429.727 413.09 429.902 412.889C430.085 412.687 430.352 412.586 430.703 412.586C431.055 412.586 431.322 412.687 431.504 412.889C431.686 413.09 431.777 413.338 431.777 413.631C431.777 413.924 431.686 414.168 431.504 414.363C431.322 414.559 431.055 414.656 430.703 414.656C430.352 414.656 430.085 414.559 429.902 414.363C429.727 414.168 429.639 413.924 429.639 413.631ZM436.455 427H434.648V412H436.455V427ZM439.395 426.053C439.395 425.74 439.486 425.48 439.668 425.271C439.857 425.063 440.137 424.959 440.508 424.959C440.879 424.959 441.159 425.063 441.348 425.271C441.543 425.48 441.641 425.74 441.641 426.053C441.641 426.352 441.543 426.603 441.348 426.805C441.159 427.007 440.879 427.107 440.508 427.107C440.137 427.107 439.857 427.007 439.668 426.805C439.486 426.603 439.395 426.352 439.395 426.053ZM448.867 425.721C449.512 425.721 450.075 425.525 450.557 425.135C451.038 424.744 451.305 424.256 451.357 423.67H453.066C453.034 424.275 452.826 424.852 452.441 425.398C452.057 425.945 451.543 426.382 450.898 426.707C450.26 427.033 449.583 427.195 448.867 427.195C447.428 427.195 446.283 426.717 445.43 425.76C444.583 424.796 444.16 423.481 444.16 421.814V421.512C444.16 420.483 444.349 419.568 444.727 418.768C445.104 417.967 445.645 417.345 446.348 416.902C447.057 416.46 447.894 416.238 448.857 416.238C450.042 416.238 451.025 416.593 451.807 417.303C452.594 418.012 453.014 418.934 453.066 420.066H451.357C451.305 419.383 451.045 418.823 450.576 418.387C450.114 417.944 449.541 417.723 448.857 417.723C447.939 417.723 447.227 418.055 446.719 418.719C446.217 419.376 445.967 420.33 445.967 421.58V421.922C445.967 423.139 446.217 424.077 446.719 424.734C447.22 425.392 447.936 425.721 448.867 425.721ZM454.619 421.619C454.619 420.584 454.821 419.653 455.225 418.826C455.635 417.999 456.201 417.361 456.924 416.912C457.653 416.463 458.483 416.238 459.414 416.238C460.853 416.238 462.015 416.736 462.9 417.732C463.792 418.729 464.238 420.053 464.238 421.707V421.834C464.238 422.863 464.04 423.787 463.643 424.607C463.252 425.421 462.689 426.056 461.953 426.512C461.224 426.967 460.384 427.195 459.434 427.195C458.001 427.195 456.839 426.697 455.947 425.701C455.062 424.705 454.619 423.387 454.619 421.746V421.619ZM456.436 421.834C456.436 423.006 456.706 423.947 457.246 424.656C457.793 425.366 458.522 425.721 459.434 425.721C460.352 425.721 461.081 425.363 461.621 424.646C462.161 423.924 462.432 422.915 462.432 421.619C462.432 420.46 462.155 419.523 461.602 418.807C461.055 418.084 460.326 417.723 459.414 417.723C458.522 417.723 457.803 418.077 457.256 418.787C456.709 419.497 456.436 420.512 456.436 421.834ZM468.203 416.434L468.252 417.605C469.027 416.694 470.072 416.238 471.387 416.238C472.865 416.238 473.87 416.805 474.404 417.938C474.756 417.43 475.212 417.02 475.771 416.707C476.338 416.395 477.005 416.238 477.773 416.238C480.091 416.238 481.27 417.465 481.309 419.92V427H479.502V420.027C479.502 419.272 479.329 418.709 478.984 418.338C478.639 417.96 478.06 417.771 477.246 417.771C476.576 417.771 476.019 417.973 475.576 418.377C475.133 418.774 474.876 419.311 474.805 419.988V427H472.988V420.076C472.988 418.54 472.236 417.771 470.732 417.771C469.548 417.771 468.737 418.276 468.301 419.285V427H466.494V416.434H468.203Z" fill="#888888"/>
<g filter="url(#filter0_d)">
<rect x="286" y="547" width="154" height="44" rx="18" fill="#007BFF"/>
<path d="M324.949 568.713C324.949 570.113 324.702 571.34 324.207 572.395C323.712 573.449 323.003 574.263 322.078 574.836C321.16 575.409 320.105 575.695 318.914 575.695C317.736 575.695 316.684 575.412 315.76 574.846C314.835 574.279 314.119 573.472 313.611 572.424C313.104 571.369 312.846 570.158 312.84 568.791V568.088C312.84 566.688 313.09 565.458 313.592 564.396C314.1 563.329 314.812 562.512 315.73 561.945C316.655 561.372 317.71 561.086 318.895 561.086C320.079 561.086 321.131 561.372 322.049 561.945C322.973 562.512 323.686 563.329 324.188 564.396C324.695 565.458 324.949 566.685 324.949 568.078V568.713ZM321.98 568.068C321.98 566.577 321.714 565.445 321.18 564.67C320.646 563.895 319.884 563.508 318.895 563.508C317.911 563.508 317.153 563.892 316.619 564.66C316.085 565.422 315.815 566.542 315.809 568.02V568.713C315.809 570.165 316.076 571.291 316.609 572.092C317.143 572.893 317.911 573.293 318.914 573.293C319.897 573.293 320.652 572.909 321.18 572.141C321.707 571.366 321.974 570.24 321.98 568.762V568.068ZM335.662 567.199H332.273V575.5H329.441V567.199H326.111V564.934H335.662V567.199ZM346.277 575.5H343.445V567.219H339.91V575.5H337.088V564.934H346.277V575.5ZM357.947 570.314C357.947 571.942 357.576 573.247 356.834 574.23C356.098 575.207 355.102 575.695 353.846 575.695C352.778 575.695 351.915 575.324 351.258 574.582V579.562H348.436V564.934H351.053L351.15 565.969C351.834 565.148 352.726 564.738 353.826 564.738C355.128 564.738 356.141 565.22 356.863 566.184C357.586 567.147 357.947 568.475 357.947 570.168V570.314ZM355.125 570.109C355.125 569.126 354.949 568.368 354.598 567.834C354.253 567.3 353.748 567.033 353.084 567.033C352.199 567.033 351.59 567.372 351.258 568.049V572.375C351.603 573.072 352.218 573.42 353.104 573.42C354.451 573.42 355.125 572.316 355.125 570.109ZM365.828 575.5C365.698 575.246 365.604 574.93 365.545 574.553C364.861 575.314 363.973 575.695 362.879 575.695C361.844 575.695 360.984 575.396 360.301 574.797C359.624 574.198 359.285 573.443 359.285 572.531C359.285 571.411 359.699 570.552 360.525 569.953C361.359 569.354 362.56 569.051 364.129 569.045H365.428V568.439C365.428 567.951 365.301 567.561 365.047 567.268C364.799 566.975 364.406 566.828 363.865 566.828C363.39 566.828 363.016 566.942 362.742 567.17C362.475 567.398 362.342 567.71 362.342 568.107H359.52C359.52 567.495 359.708 566.929 360.086 566.408C360.464 565.887 360.997 565.48 361.688 565.188C362.378 564.888 363.152 564.738 364.012 564.738C365.314 564.738 366.346 565.067 367.107 565.725C367.876 566.376 368.26 567.294 368.26 568.479V573.059C368.266 574.061 368.406 574.82 368.68 575.334V575.5H365.828ZM363.494 573.537C363.911 573.537 364.295 573.446 364.646 573.264C364.998 573.075 365.258 572.824 365.428 572.512V570.695H364.373C362.96 570.695 362.208 571.184 362.117 572.16L362.107 572.326C362.107 572.678 362.231 572.967 362.479 573.195C362.726 573.423 363.064 573.537 363.494 573.537ZM370.613 575.5V564.934H375.027C376.466 564.934 377.57 565.188 378.338 565.695C379.106 566.203 379.49 566.932 379.49 567.883C379.49 568.371 379.327 568.811 379.002 569.201C378.683 569.585 378.214 569.882 377.596 570.09C378.351 570.233 378.943 570.516 379.373 570.939C379.809 571.356 380.027 571.87 380.027 572.482C380.027 573.465 379.656 574.214 378.914 574.729C378.178 575.243 377.107 575.5 375.701 575.5H370.613ZM373.436 571.115V573.244H375.711C376.707 573.244 377.205 572.896 377.205 572.199C377.205 571.49 376.73 571.128 375.779 571.115H373.436ZM373.436 569.221H375.184C376.173 569.208 376.668 568.889 376.668 568.264C376.668 567.88 376.531 567.606 376.258 567.443C375.991 567.281 375.581 567.199 375.027 567.199H373.436V569.221ZM388.123 564.934H390.945V575.5H388.123V568.977L384.588 575.5H381.756V564.934H384.588V571.447L388.123 564.934ZM401.873 567.199H398.484V575.5H395.652V567.199H392.322V564.934H401.873V567.199ZM406.316 568.029H408.338C409.249 568.029 410.05 568.182 410.74 568.488C411.43 568.794 411.958 569.234 412.322 569.807C412.693 570.373 412.879 571.034 412.879 571.789C412.879 572.902 412.465 573.801 411.639 574.484C410.818 575.161 409.699 575.5 408.279 575.5H403.484V564.934H406.316V568.029ZM406.316 570.295V573.244H408.318C408.878 573.244 409.308 573.114 409.607 572.854C409.907 572.593 410.057 572.238 410.057 571.789C410.057 571.333 409.91 570.972 409.617 570.705C409.324 570.432 408.891 570.295 408.318 570.295H406.316Z" fill="white"/>
</g>
<rect x="766" y="406" width="259" height="72" rx="18" fill="#007BFF"/>
<path d="M812.684 455.5H806.824V443.312H795.398V455.5H789.539V427.062H795.398V438.586H806.824V427.062H812.684V455.5ZM838.641 431.809H829.93V455.5H824.07V431.809H815.477V427.062H838.641V431.809ZM863.719 431.809H855.008V455.5H849.148V431.809H840.555V427.062H863.719V431.809ZM872.938 445.48V455.5H867.078V427.062H878.172C880.307 427.062 882.182 427.453 883.797 428.234C885.424 429.016 886.674 430.129 887.547 431.574C888.419 433.007 888.855 434.641 888.855 436.477C888.855 439.263 887.898 441.464 885.984 443.078C884.083 444.68 881.447 445.48 878.074 445.48H872.938ZM872.938 440.734H878.172C879.721 440.734 880.9 440.37 881.707 439.641C882.527 438.911 882.938 437.87 882.938 436.516C882.938 435.122 882.527 433.996 881.707 433.137C880.887 432.277 879.754 431.835 878.309 431.809H872.938V440.734ZM908.719 445.48V455.5H902.859V427.062H913.953C916.089 427.062 917.964 427.453 919.578 428.234C921.206 429.016 922.456 430.129 923.328 431.574C924.201 433.007 924.637 434.641 924.637 436.477C924.637 439.263 923.68 441.464 921.766 443.078C919.865 444.68 917.228 445.48 913.855 445.48H908.719ZM908.719 440.734H913.953C915.503 440.734 916.681 440.37 917.488 439.641C918.309 438.911 918.719 437.87 918.719 436.516C918.719 435.122 918.309 433.996 917.488 433.137C916.668 432.277 915.535 431.835 914.09 431.809H908.719V440.734ZM952.039 441.926C952.039 444.725 951.544 447.18 950.555 449.289C949.565 451.398 948.146 453.026 946.297 454.172C944.461 455.318 942.352 455.891 939.969 455.891C937.612 455.891 935.509 455.324 933.66 454.191C931.811 453.059 930.379 451.444 929.363 449.348C928.348 447.238 927.833 444.816 927.82 442.082V440.676C927.82 437.876 928.322 435.415 929.324 433.293C930.34 431.158 931.766 429.523 933.602 428.391C935.451 427.245 937.56 426.672 939.93 426.672C942.299 426.672 944.402 427.245 946.238 428.391C948.087 429.523 949.513 431.158 950.516 433.293C951.531 435.415 952.039 437.87 952.039 440.656V441.926ZM946.102 440.637C946.102 437.655 945.568 435.389 944.5 433.84C943.432 432.29 941.909 431.516 939.93 431.516C937.964 431.516 936.447 432.284 935.379 433.82C934.311 435.344 933.771 437.583 933.758 440.539V441.926C933.758 444.829 934.292 447.082 935.359 448.684C936.427 450.285 937.964 451.086 939.969 451.086C941.935 451.086 943.445 450.318 944.5 448.781C945.555 447.232 946.089 444.979 946.102 442.023V440.637ZM971.043 448.039C971.043 446.932 970.652 446.086 969.871 445.5C969.09 444.901 967.684 444.276 965.652 443.625C963.621 442.961 962.013 442.31 960.828 441.672C957.599 439.927 955.984 437.577 955.984 434.621C955.984 433.085 956.414 431.717 957.273 430.52C958.146 429.309 959.389 428.365 961.004 427.688C962.632 427.01 964.454 426.672 966.473 426.672C968.504 426.672 970.314 427.043 971.902 427.785C973.491 428.514 974.721 429.549 975.594 430.891C976.479 432.232 976.922 433.755 976.922 435.461H971.062C971.062 434.159 970.652 433.15 969.832 432.434C969.012 431.704 967.859 431.34 966.375 431.34C964.943 431.34 963.829 431.646 963.035 432.258C962.241 432.857 961.844 433.651 961.844 434.641C961.844 435.565 962.306 436.34 963.23 436.965C964.168 437.59 965.542 438.176 967.352 438.723C970.685 439.725 973.113 440.969 974.637 442.453C976.16 443.938 976.922 445.786 976.922 448C976.922 450.461 975.991 452.395 974.129 453.801C972.267 455.194 969.76 455.891 966.609 455.891C964.422 455.891 962.43 455.493 960.633 454.699C958.836 453.892 957.462 452.792 956.512 451.398C955.574 450.005 955.105 448.391 955.105 446.555H960.984C960.984 449.693 962.859 451.262 966.609 451.262C968.003 451.262 969.09 450.982 969.871 450.422C970.652 449.849 971.043 449.055 971.043 448.039ZM1002.31 431.809H993.602V455.5H987.742V431.809H979.148V427.062H1002.31V431.809Z" fill="white"/>
<path opacity="0.12" d="M1445.71 518H1334.29C1328.07 518 1323 514.649 1323 510.539V294.461C1323 290.351 1328.07 287 1334.29 287H1445.71C1451.93 287 1457 290.351 1457 294.461V510.539C1457 514.649 1451.93 518 1445.71 518Z" fill="#007BFF"/>
<path d="M1454.43 527H1325.51C1318.59 527 1313 523.283 1313 518.687V287.313C1313 282.717 1318.59 279 1325.51 279H1454.49C1461.41 279 1467 282.717 1467 287.313V518.687C1467 523.243 1461.35 527 1454.43 527Z" stroke="#007BFF" stroke-width="2" stroke-miterlimit="10"/>
<path d="M1470.67 537H1309.33C1306.93 537 1305 535.625 1305 534C1305 532.333 1306.99 531 1309.33 531H1470.67C1473.07 531 1475 532.375 1475 534C1475 535.625 1473.01 537 1470.67 537Z" stroke="#007BFF" stroke-width="2" stroke-miterlimit="10"/>
<path opacity="0.12" d="M1239.71 518H1128.29C1122.07 518 1117 514.649 1117 510.539V294.461C1117 290.351 1122.07 287 1128.29 287H1239.71C1245.93 287 1251 290.351 1251 294.461V510.539C1251 514.649 1245.93 518 1239.71 518Z" fill="#007BFF"/>
<path d="M1248.43 527H1119.51C1112.59 527 1107 523.283 1107 518.687V287.313C1107 282.717 1112.59 279 1119.51 279H1248.49C1255.41 279 1261 282.717 1261 287.313V518.687C1261 523.243 1255.35 527 1248.43 527Z" stroke="#007BFF" stroke-width="2" stroke-miterlimit="10"/>
<path d="M1264.67 537H1103.33C1100.93 537 1099 535.625 1099 534C1099 532.333 1100.99 531 1103.33 531H1264.67C1267.07 531 1269 532.375 1269 534C1269 535.625 1267.01 537 1264.67 537Z" stroke="#007BFF" stroke-width="2" stroke-miterlimit="10"/>
<path opacity="0.12" d="M1339.71 628H1228.29C1222.07 628 1217 624.649 1217 620.539V404.461C1217 400.351 1222.07 397 1228.29 397H1339.71C1345.93 397 1351 400.351 1351 404.461V620.539C1351 624.649 1345.93 628 1339.71 628Z" fill="#007BFF"/>
<path d="M1348.43 637H1219.51C1212.59 637 1207 633.283 1207 628.687V397.313C1207 392.717 1212.59 389 1219.51 389H1348.49C1355.41 389 1361 392.717 1361 397.313V628.687C1361 633.243 1355.35 637 1348.43 637Z" stroke="#007BFF" stroke-width="2" stroke-miterlimit="10"/>
<path d="M1364.67 647H1203.33C1200.93 647 1199 645.625 1199 644C1199 642.333 1200.99 641 1203.33 641H1364.67C1367.07 641 1369 642.375 1369 644C1369 645.625 1367.01 647 1364.67 647Z" stroke="#007BFF" stroke-width="2" stroke-miterlimit="10"/>
<path d="M334.4 150.94C334.4 156.12 333.513 160.647 331.74 164.52C330.013 168.347 327.447 171.333 324.04 173.48C320.633 175.627 316.41 176.7 311.37 176.7C306.19 176.7 301.873 175.627 298.42 173.48C295.013 171.333 292.47 168.323 290.79 164.45C289.11 160.577 288.27 156.05 288.27 150.87C288.27 145.737 289.11 141.257 290.79 137.43C292.47 133.603 295.013 130.617 298.42 128.47C301.873 126.323 306.213 125.25 311.44 125.25C316.433 125.25 320.633 126.323 324.04 128.47C327.447 130.57 330.013 133.557 331.74 137.43C333.513 141.257 334.4 145.76 334.4 150.94ZM294.92 150.94C294.92 157.24 296.25 162.21 298.91 165.85C301.57 169.443 305.723 171.24 311.37 171.24C317.063 171.24 321.217 169.443 323.83 165.85C326.443 162.21 327.75 157.24 327.75 150.94C327.75 144.64 326.443 139.717 323.83 136.17C321.217 132.577 317.087 130.78 311.44 130.78C305.793 130.78 301.617 132.577 298.91 136.17C296.25 139.717 294.92 144.64 294.92 150.94ZM374.038 143.66H361.788V176H355.698V143.66H343.588V138.48H374.038V143.66ZM416.639 138.48V176H410.479V143.73H391.089V176H384.929V138.48H416.639ZM449.96 137.78C454.58 137.78 458.29 139.39 461.09 142.61C463.937 145.83 465.36 150.683 465.36 157.17C465.36 163.563 463.937 168.417 461.09 171.73C458.29 175.043 454.557 176.7 449.89 176.7C446.997 176.7 444.593 176.163 442.68 175.09C440.813 173.97 439.343 172.687 438.27 171.24H437.85C437.943 172.033 438.037 173.037 438.13 174.25C438.223 175.463 438.27 176.513 438.27 177.4V192.8H432.11V138.48H437.15L437.99 143.59H438.27C439.39 141.957 440.86 140.58 442.68 139.46C444.5 138.34 446.927 137.78 449.96 137.78ZM448.84 142.96C445.013 142.96 442.307 144.033 440.72 146.18C439.18 148.327 438.363 151.593 438.27 155.98V157.17C438.27 161.79 439.017 165.36 440.51 167.88C442.05 170.353 444.873 171.59 448.98 171.59C451.267 171.59 453.133 170.96 454.58 169.7C456.073 168.44 457.17 166.737 457.87 164.59C458.617 162.397 458.99 159.9 458.99 157.1C458.99 152.807 458.15 149.377 456.47 146.81C454.837 144.243 452.293 142.96 448.84 142.96ZM492.887 137.85C497.46 137.85 500.843 138.853 503.037 140.86C505.23 142.867 506.327 146.063 506.327 150.45V176H501.847L500.657 170.68H500.377C498.743 172.733 497.017 174.25 495.197 175.23C493.423 176.21 490.95 176.7 487.777 176.7C484.37 176.7 481.547 175.813 479.307 174.04C477.067 172.22 475.947 169.397 475.947 165.57C475.947 161.837 477.417 158.967 480.357 156.96C483.297 154.907 487.823 153.787 493.937 153.6L500.307 153.39V151.15C500.307 148.023 499.63 145.853 498.277 144.64C496.923 143.427 495.01 142.82 492.537 142.82C490.577 142.82 488.71 143.123 486.937 143.73C485.163 144.29 483.507 144.943 481.967 145.69L480.077 141.07C481.71 140.183 483.647 139.437 485.887 138.83C488.127 138.177 490.46 137.85 492.887 137.85ZM494.707 157.87C490.04 158.057 486.797 158.803 484.977 160.11C483.203 161.417 482.317 163.26 482.317 165.64C482.317 167.74 482.947 169.28 484.207 170.26C485.513 171.24 487.17 171.73 489.177 171.73C492.35 171.73 494.987 170.867 497.087 169.14C499.187 167.367 500.237 164.66 500.237 161.02V157.66L494.707 157.87ZM551.585 147.93C551.585 150.263 550.885 152.083 549.485 153.39C548.085 154.697 546.288 155.583 544.095 156.05V156.33C546.428 156.657 548.458 157.497 550.185 158.85C551.912 160.157 552.775 162.21 552.775 165.01C552.775 168.183 551.585 170.82 549.205 172.92C546.872 174.973 542.998 176 537.585 176H521.415V138.48H537.515C540.175 138.48 542.555 138.783 544.655 139.39C546.802 139.95 548.482 140.93 549.695 142.33C550.955 143.683 551.585 145.55 551.585 147.93ZM545.355 148.7C545.355 146.927 544.702 145.643 543.395 144.85C542.135 144.01 540.058 143.59 537.165 143.59H527.575V153.88H536.045C542.252 153.88 545.355 152.153 545.355 148.7ZM546.405 165.01C546.405 162.863 545.588 161.323 543.955 160.39C542.322 159.457 539.918 158.99 536.745 158.99H527.575V171.03H536.885C539.965 171.03 542.322 170.587 543.955 169.7C545.588 168.767 546.405 167.203 546.405 165.01ZM587.437 138.48H594.157L578.127 156.54L595.487 176H588.347L571.407 156.96V176H565.247V138.48H571.407V156.68L587.437 138.48ZM620.008 137.85C624.581 137.85 627.964 138.853 630.158 140.86C632.351 142.867 633.448 146.063 633.448 150.45V176H628.968L627.778 170.68H627.498C625.864 172.733 624.138 174.25 622.318 175.23C620.544 176.21 618.071 176.7 614.898 176.7C611.491 176.7 608.668 175.813 606.428 174.04C604.188 172.22 603.068 169.397 603.068 165.57C603.068 161.837 604.538 158.967 607.478 156.96C610.418 154.907 614.944 153.787 621.058 153.6L627.428 153.39V151.15C627.428 148.023 626.751 145.853 625.398 144.64C624.044 143.427 622.131 142.82 619.658 142.82C617.698 142.82 615.831 143.123 614.058 143.73C612.284 144.29 610.628 144.943 609.088 145.69L607.198 141.07C608.831 140.183 610.768 139.437 613.008 138.83C615.248 138.177 617.581 137.85 620.008 137.85ZM621.828 157.87C617.161 158.057 613.918 158.803 612.098 160.11C610.324 161.417 609.438 163.26 609.438 165.64C609.438 167.74 610.068 169.28 611.328 170.26C612.634 171.24 614.291 171.73 616.298 171.73C619.471 171.73 622.108 170.867 624.208 169.14C626.308 167.367 627.358 164.66 627.358 161.02V157.66L621.828 157.87ZM692.62 137.92C696.353 138.247 699.596 139.227 702.35 140.86C705.15 142.493 707.32 144.687 708.86 147.44C710.4 150.193 711.17 153.46 711.17 157.24C711.17 162.887 709.513 167.39 706.2 170.75C702.933 174.11 698.406 176.047 692.62 176.56V192.8H686.6V176.56C682.913 176.233 679.67 175.277 676.87 173.69C674.07 172.057 671.9 169.863 670.36 167.11C668.82 164.31 668.05 161.02 668.05 157.24C668.05 151.547 669.683 147.02 672.95 143.66C676.263 140.3 680.883 138.387 686.81 137.92V122.8H692.62V137.92ZM686.81 143.03C682.516 143.45 679.39 144.873 677.43 147.3C675.47 149.68 674.49 152.993 674.49 157.24C674.49 161.487 675.47 164.823 677.43 167.25C679.436 169.677 682.563 171.1 686.81 171.52V143.03ZM692.62 171.52C696.82 171.053 699.9 169.607 701.86 167.18C703.82 164.753 704.8 161.44 704.8 157.24C704.8 153.04 703.796 149.75 701.79 147.37C699.83 144.99 696.773 143.567 692.62 143.1V171.52ZM757.062 157.17C757.062 163.377 755.476 168.183 752.302 171.59C749.176 174.997 744.929 176.7 739.562 176.7C736.249 176.7 733.286 175.953 730.672 174.46C728.106 172.92 726.076 170.703 724.582 167.81C723.089 164.87 722.342 161.323 722.342 157.17C722.342 150.963 723.906 146.18 727.032 142.82C730.159 139.46 734.406 137.78 739.772 137.78C743.179 137.78 746.166 138.55 748.732 140.09C751.346 141.583 753.376 143.777 754.822 146.67C756.316 149.517 757.062 153.017 757.062 157.17ZM728.712 157.17C728.712 161.603 729.576 165.127 731.302 167.74C733.076 170.307 735.876 171.59 739.702 171.59C743.482 171.59 746.259 170.307 748.032 167.74C749.806 165.127 750.692 161.603 750.692 157.17C750.692 152.737 749.806 149.26 748.032 146.74C746.259 144.22 743.459 142.96 739.632 142.96C735.806 142.96 733.029 144.22 731.302 146.74C729.576 149.26 728.712 152.737 728.712 157.17ZM788.175 137.78C792.795 137.78 796.505 139.39 799.305 142.61C802.152 145.83 803.575 150.683 803.575 157.17C803.575 163.563 802.152 168.417 799.305 171.73C796.505 175.043 792.772 176.7 788.105 176.7C785.212 176.7 782.808 176.163 780.895 175.09C779.028 173.97 777.558 172.687 776.485 171.24H776.065C776.158 172.033 776.252 173.037 776.345 174.25C776.438 175.463 776.485 176.513 776.485 177.4V192.8H770.325V138.48H775.365L776.205 143.59H776.485C777.605 141.957 779.075 140.58 780.895 139.46C782.715 138.34 785.142 137.78 788.175 137.78ZM787.055 142.96C783.228 142.96 780.522 144.033 778.935 146.18C777.395 148.327 776.578 151.593 776.485 155.98V157.17C776.485 161.79 777.232 165.36 778.725 167.88C780.265 170.353 783.088 171.59 787.195 171.59C789.482 171.59 791.348 170.96 792.795 169.7C794.288 168.44 795.385 166.737 796.085 164.59C796.832 162.397 797.205 159.9 797.205 157.1C797.205 152.807 796.365 149.377 794.685 146.81C793.052 144.243 790.508 142.96 787.055 142.96ZM857.141 138.48V176H851.611V152.06C851.611 151.08 851.635 150.053 851.681 148.98C851.775 147.907 851.868 146.857 851.961 145.83H851.751L839.501 176H834.321L822.421 145.83H822.211C822.351 147.93 822.421 150.077 822.421 152.27V176H816.891V138.48H825.081L836.911 168.65L848.951 138.48H857.141ZM872.618 176V138.48H878.778V153.88H888.508C893.361 153.88 896.955 154.767 899.288 156.54C901.621 158.313 902.788 160.973 902.788 164.52C902.788 168.02 901.645 170.82 899.358 172.92C897.071 174.973 893.361 176 888.228 176H872.618ZM909.018 176V138.48H915.178V176H909.018ZM887.668 171.03C890.328 171.03 892.498 170.587 894.178 169.7C895.858 168.767 896.698 167.157 896.698 164.87C896.698 162.583 895.928 161.043 894.388 160.25C892.848 159.41 890.631 158.99 887.738 158.99H878.778V171.03H887.668ZM958.444 138.48V154.09H978.814V138.48H984.974V176H978.814V159.27H958.444V176H952.284V138.48H958.444ZM1014.56 137.85C1019.14 137.85 1022.52 138.853 1024.71 140.86C1026.91 142.867 1028 146.063 1028 150.45V176H1023.52L1022.33 170.68H1022.05C1020.42 172.733 1018.69 174.25 1016.87 175.23C1015.1 176.21 1012.63 176.7 1009.45 176.7C1006.05 176.7 1003.22 175.813 1000.98 174.04C998.744 172.22 997.624 169.397 997.624 165.57C997.624 161.837 999.094 158.967 1002.03 156.96C1004.97 154.907 1009.5 153.787 1015.61 153.6L1021.98 153.39V151.15C1021.98 148.023 1021.31 145.853 1019.95 144.64C1018.6 143.427 1016.69 142.82 1014.21 142.82C1012.25 142.82 1010.39 143.123 1008.61 143.73C1006.84 144.29 1005.18 144.943 1003.64 145.69L1001.75 141.07C1003.39 140.183 1005.32 139.437 1007.56 138.83C1009.8 138.177 1012.14 137.85 1014.56 137.85ZM1016.38 157.87C1011.72 158.057 1008.47 158.803 1006.65 160.11C1004.88 161.417 1003.99 163.26 1003.99 165.64C1003.99 167.74 1004.62 169.28 1005.88 170.26C1007.19 171.24 1008.85 171.73 1010.85 171.73C1014.03 171.73 1016.66 170.867 1018.76 169.14C1020.86 167.367 1021.91 164.66 1021.91 161.02V157.66L1016.38 157.87ZM1079.83 176.7C1076.51 176.7 1073.55 176.023 1070.94 174.67C1068.37 173.317 1066.34 171.217 1064.85 168.37C1063.4 165.523 1062.68 161.883 1062.68 157.45C1062.68 152.83 1063.45 149.073 1064.99 146.18C1066.53 143.287 1068.6 141.163 1071.22 139.81C1073.88 138.457 1076.89 137.78 1080.25 137.78C1082.16 137.78 1084 137.99 1085.78 138.41C1087.55 138.783 1089 139.25 1090.12 139.81L1088.23 144.92C1087.11 144.5 1085.8 144.103 1084.31 143.73C1082.81 143.357 1081.41 143.17 1080.11 143.17C1072.73 143.17 1069.05 147.907 1069.05 157.38C1069.05 161.907 1069.93 165.383 1071.71 167.81C1073.53 170.19 1076.21 171.38 1079.76 171.38C1081.81 171.38 1083.61 171.17 1085.15 170.75C1086.73 170.33 1088.18 169.817 1089.49 169.21V174.67C1088.23 175.323 1086.83 175.813 1085.29 176.14C1083.79 176.513 1081.97 176.7 1079.83 176.7ZM1116.4 137.78C1119.62 137.78 1122.37 138.48 1124.66 139.88C1126.99 141.28 1128.77 143.263 1129.98 145.83C1131.24 148.35 1131.87 151.313 1131.87 154.72V158.43H1106.18C1106.27 162.677 1107.35 165.92 1109.4 168.16C1111.5 170.353 1114.42 171.45 1118.15 171.45C1120.53 171.45 1122.63 171.24 1124.45 170.82C1126.32 170.353 1128.23 169.7 1130.19 168.86V174.25C1128.28 175.09 1126.39 175.697 1124.52 176.07C1122.65 176.49 1120.44 176.7 1117.87 176.7C1114.32 176.7 1111.17 175.977 1108.42 174.53C1105.71 173.083 1103.59 170.937 1102.05 168.09C1100.56 165.197 1099.81 161.673 1099.81 157.52C1099.81 153.413 1100.49 149.89 1101.84 146.95C1103.24 144.01 1105.18 141.747 1107.65 140.16C1110.17 138.573 1113.09 137.78 1116.4 137.78ZM1116.33 142.82C1113.39 142.82 1111.06 143.777 1109.33 145.69C1107.65 147.557 1106.65 150.17 1106.32 153.53H1125.43C1125.38 150.357 1124.64 147.79 1123.19 145.83C1121.74 143.823 1119.46 142.82 1116.33 142.82ZM1162.77 137.78C1167.39 137.78 1171.1 139.39 1173.9 142.61C1176.75 145.83 1178.17 150.683 1178.17 157.17C1178.17 163.563 1176.75 168.417 1173.9 171.73C1171.1 175.043 1167.37 176.7 1162.7 176.7C1159.81 176.7 1157.4 176.163 1155.49 175.09C1153.62 173.97 1152.15 172.687 1151.08 171.24H1150.66C1150.75 172.033 1150.85 173.037 1150.94 174.25C1151.03 175.463 1151.08 176.513 1151.08 177.4V192.8H1144.92V138.48H1149.96L1150.8 143.59H1151.08C1152.2 141.957 1153.67 140.58 1155.49 139.46C1157.31 138.34 1159.74 137.78 1162.77 137.78ZM1161.65 142.96C1157.82 142.96 1155.12 144.033 1153.53 146.18C1151.99 148.327 1151.17 151.593 1151.08 155.98V157.17C1151.08 161.79 1151.83 165.36 1153.32 167.88C1154.86 170.353 1157.68 171.59 1161.79 171.59C1164.08 171.59 1165.94 170.96 1167.39 169.7C1168.88 168.44 1169.98 166.737 1170.68 164.59C1171.43 162.397 1171.8 159.9 1171.8 157.1C1171.8 152.807 1170.96 149.377 1169.28 146.81C1167.65 144.243 1165.1 142.96 1161.65 142.96ZM1221.66 147.93C1221.66 150.263 1220.96 152.083 1219.56 153.39C1218.16 154.697 1216.36 155.583 1214.17 156.05V156.33C1216.5 156.657 1218.53 157.497 1220.26 158.85C1221.98 160.157 1222.85 162.21 1222.85 165.01C1222.85 168.183 1221.66 170.82 1219.28 172.92C1216.94 174.973 1213.07 176 1207.66 176H1191.49V138.48H1207.59C1210.25 138.48 1212.63 138.783 1214.73 139.39C1216.87 139.95 1218.55 140.93 1219.77 142.33C1221.03 143.683 1221.66 145.55 1221.66 147.93ZM1215.43 148.7C1215.43 146.927 1214.77 145.643 1213.47 144.85C1212.21 144.01 1210.13 143.59 1207.24 143.59H1197.65V153.88H1206.12C1212.32 153.88 1215.43 152.153 1215.43 148.7ZM1216.48 165.01C1216.48 162.863 1215.66 161.323 1214.03 160.39C1212.39 159.457 1209.99 158.99 1206.82 158.99H1197.65V171.03H1206.96C1210.04 171.03 1212.39 170.587 1214.03 169.7C1215.66 168.767 1216.48 167.203 1216.48 165.01ZM1249.81 137.78C1253.03 137.78 1255.78 138.48 1258.07 139.88C1260.4 141.28 1262.18 143.263 1263.39 145.83C1264.65 148.35 1265.28 151.313 1265.28 154.72V158.43H1239.59C1239.68 162.677 1240.76 165.92 1242.81 168.16C1244.91 170.353 1247.83 171.45 1251.56 171.45C1253.94 171.45 1256.04 171.24 1257.86 170.82C1259.73 170.353 1261.64 169.7 1263.6 168.86V174.25C1261.69 175.09 1259.8 175.697 1257.93 176.07C1256.06 176.49 1253.85 176.7 1251.28 176.7C1247.73 176.7 1244.58 175.977 1241.83 174.53C1239.12 173.083 1237 170.937 1235.46 168.09C1233.97 165.197 1233.22 161.673 1233.22 157.52C1233.22 153.413 1233.9 149.89 1235.25 146.95C1236.65 144.01 1238.59 141.747 1241.06 140.16C1243.58 138.573 1246.5 137.78 1249.81 137.78ZM1249.74 142.82C1246.8 142.82 1244.47 143.777 1242.74 145.69C1241.06 147.557 1240.06 150.17 1239.73 153.53H1258.84C1258.79 150.357 1258.05 147.79 1256.6 145.83C1255.15 143.823 1252.87 142.82 1249.74 142.82ZM1296.18 137.78C1300.8 137.78 1304.51 139.39 1307.31 142.61C1310.16 145.83 1311.58 150.683 1311.58 157.17C1311.58 163.563 1310.16 168.417 1307.31 171.73C1304.51 175.043 1300.78 176.7 1296.11 176.7C1293.22 176.7 1290.81 176.163 1288.9 175.09C1287.03 173.97 1285.56 172.687 1284.49 171.24H1284.07C1284.16 172.033 1284.26 173.037 1284.35 174.25C1284.44 175.463 1284.49 176.513 1284.49 177.4V192.8H1278.33V138.48H1283.37L1284.21 143.59H1284.49C1285.61 141.957 1287.08 140.58 1288.9 139.46C1290.72 138.34 1293.15 137.78 1296.18 137.78ZM1295.06 142.96C1291.23 142.96 1288.53 144.033 1286.94 146.18C1285.4 148.327 1284.58 151.593 1284.49 155.98V157.17C1284.49 161.79 1285.24 165.36 1286.73 167.88C1288.27 170.353 1291.09 171.59 1295.2 171.59C1297.49 171.59 1299.35 170.96 1300.8 169.7C1302.29 168.44 1303.39 166.737 1304.09 164.59C1304.84 162.397 1305.21 159.9 1305.21 157.1C1305.21 152.807 1304.37 149.377 1302.69 146.81C1301.06 144.243 1298.51 142.96 1295.06 142.96Z" fill="#007BFF"/>
<path d="M523.19 220.92V227.61H531.92V220.92H534.56V237H531.92V229.83H523.19V237H520.55V220.92H523.19ZM545.742 220.65C547.702 220.65 549.152 221.08 550.092 221.94C551.032 222.8 551.502 224.17 551.502 226.05V237H549.582L549.072 234.72H548.952C548.252 235.6 547.512 236.25 546.732 236.67C545.972 237.09 544.912 237.3 543.552 237.3C542.092 237.3 540.882 236.92 539.922 236.16C538.962 235.38 538.482 234.17 538.482 232.53C538.482 230.93 539.112 229.7 540.372 228.84C541.632 227.96 543.572 227.48 546.192 227.4L548.922 227.31V226.35C548.922 225.01 548.632 224.08 548.052 223.56C547.472 223.04 546.652 222.78 545.592 222.78C544.752 222.78 543.952 222.91 543.192 223.17C542.432 223.41 541.722 223.69 541.062 224.01L540.252 222.03C540.952 221.65 541.782 221.33 542.742 221.07C543.702 220.79 544.702 220.65 545.742 220.65ZM546.522 229.23C544.522 229.31 543.132 229.63 542.352 230.19C541.592 230.75 541.212 231.54 541.212 232.56C541.212 233.46 541.482 234.12 542.022 234.54C542.582 234.96 543.292 235.17 544.152 235.17C545.512 235.17 546.642 234.8 547.542 234.06C548.442 233.3 548.892 232.14 548.892 230.58V229.14L546.522 229.23ZM578.806 220.56V237H576.076V234.57C575.556 235.41 574.826 236.07 573.886 236.55C572.966 237.01 571.946 237.24 570.826 237.24C569.546 237.24 568.396 236.98 567.376 236.46C566.356 235.92 565.546 235.12 564.946 234.06C564.366 233 564.076 231.71 564.076 230.19V220.56H566.776V229.83C566.776 231.45 567.186 232.7 568.006 233.58C568.826 234.44 569.946 234.87 571.366 234.87C572.826 234.87 573.976 234.42 574.816 233.52C575.656 232.62 576.076 231.31 576.076 229.59V220.56H578.806ZM586.145 223.23C586.625 222.29 587.305 221.56 588.185 221.04C589.085 220.52 590.175 220.26 591.455 220.26V223.08H590.735C587.675 223.08 586.145 224.74 586.145 228.06V237H583.415V220.56H586.145V223.23ZM597.337 214.8V237H594.607V214.8H597.337ZM613.39 224.85V227.16H601.42V224.85H613.39ZM624.843 220.65C626.803 220.65 628.253 221.08 629.193 221.94C630.133 222.8 630.603 224.17 630.603 226.05V237H628.683L628.173 234.72H628.053C627.353 235.6 626.613 236.25 625.833 236.67C625.073 237.09 624.013 237.3 622.653 237.3C621.193 237.3 619.983 236.92 619.023 236.16C618.063 235.38 617.583 234.17 617.583 232.53C617.583 230.93 618.213 229.7 619.473 228.84C620.733 227.96 622.673 227.48 625.293 227.4L628.023 227.31V226.35C628.023 225.01 627.733 224.08 627.153 223.56C626.573 223.04 625.753 222.78 624.693 222.78C623.853 222.78 623.053 222.91 622.293 223.17C621.533 223.41 620.823 223.69 620.163 224.01L619.353 222.03C620.053 221.65 620.883 221.33 621.843 221.07C622.803 220.79 623.803 220.65 624.843 220.65ZM625.623 229.23C623.623 229.31 622.233 229.63 621.453 230.19C620.693 230.75 620.313 231.54 620.313 232.56C620.313 233.46 620.583 234.12 621.123 234.54C621.683 234.96 622.393 235.17 623.253 235.17C624.613 235.17 625.743 234.8 626.643 234.06C627.543 233.3 627.993 232.14 627.993 230.58V229.14L625.623 229.23ZM647.51 220.92V234.78H649.85V242.58H647.3V237H636.11V242.58H633.59V234.78H634.88C636.26 232.88 637.29 230.72 637.97 228.3C638.67 225.86 639.03 223.4 639.05 220.92H647.51ZM641.39 222.99C641.31 224.35 641.1 225.76 640.76 227.22C640.42 228.66 639.98 230.04 639.44 231.36C638.92 232.68 638.31 233.82 637.61 234.78H644.96V222.99H641.39ZM660.651 220.62C662.631 220.62 664.221 221.31 665.421 222.69C666.641 224.07 667.251 226.15 667.251 228.93C667.251 231.67 666.641 233.75 665.421 235.17C664.221 236.59 662.621 237.3 660.621 237.3C659.381 237.3 658.351 237.07 657.531 236.61C656.731 236.13 656.101 235.58 655.641 234.96H655.461C655.501 235.3 655.541 235.73 655.581 236.25C655.621 236.77 655.641 237.22 655.641 237.6V244.2H653.001V220.92H655.161L655.521 223.11H655.641C656.121 222.41 656.751 221.82 657.531 221.34C658.311 220.86 659.351 220.62 660.651 220.62ZM660.171 222.84C658.531 222.84 657.371 223.3 656.691 224.22C656.031 225.14 655.681 226.54 655.641 228.42V228.93C655.641 230.91 655.961 232.44 656.601 233.52C657.261 234.58 658.471 235.11 660.231 235.11C661.211 235.11 662.011 234.84 662.631 234.3C663.271 233.76 663.741 233.03 664.041 232.11C664.361 231.17 664.521 230.1 664.521 228.9C664.521 227.06 664.161 225.59 663.441 224.49C662.741 223.39 661.651 222.84 660.171 222.84ZM677.668 220.62C679.048 220.62 680.228 220.92 681.208 221.52C682.208 222.12 682.968 222.97 683.488 224.07C684.028 225.15 684.298 226.42 684.298 227.88V229.47H673.288C673.328 231.29 673.788 232.68 674.668 233.64C675.568 234.58 676.818 235.05 678.418 235.05C679.438 235.05 680.338 234.96 681.118 234.78C681.918 234.58 682.738 234.3 683.578 233.94V236.25C682.758 236.61 681.948 236.87 681.148 237.03C680.348 237.21 679.398 237.3 678.298 237.3C676.778 237.3 675.428 236.99 674.248 236.37C673.088 235.75 672.178 234.83 671.518 233.61C670.878 232.37 670.558 230.86 670.558 229.08C670.558 227.32 670.848 225.81 671.428 224.55C672.028 223.29 672.858 222.32 673.918 221.64C674.998 220.96 676.248 220.62 677.668 220.62ZM677.638 222.78C676.378 222.78 675.378 223.19 674.638 224.01C673.918 224.81 673.488 225.93 673.348 227.37H681.538C681.518 226.01 681.198 224.91 680.578 224.07C679.958 223.21 678.978 222.78 677.638 222.78ZM694.842 237.3C693.422 237.3 692.152 237.01 691.032 236.43C689.932 235.85 689.062 234.95 688.422 233.73C687.802 232.51 687.492 230.95 687.492 229.05C687.492 227.07 687.822 225.46 688.482 224.22C689.142 222.98 690.032 222.07 691.152 221.49C692.292 220.91 693.582 220.62 695.022 220.62C695.842 220.62 696.632 220.71 697.392 220.89C698.152 221.05 698.772 221.25 699.252 221.49L698.442 223.68C697.962 223.5 697.402 223.33 696.762 223.17C696.122 223.01 695.522 222.93 694.962 222.93C691.802 222.93 690.222 224.96 690.222 229.02C690.222 230.96 690.602 232.45 691.362 233.49C692.142 234.51 693.292 235.02 694.812 235.02C695.692 235.02 696.462 234.93 697.122 234.75C697.802 234.57 698.422 234.35 698.982 234.09V236.43C698.442 236.71 697.842 236.92 697.182 237.06C696.542 237.22 695.762 237.3 694.842 237.3ZM720.764 208.74L712.544 242.1H709.844L718.034 208.74H720.764ZM744.601 220.26C745.881 220.26 747.021 220.53 748.021 221.07C749.021 221.59 749.811 222.38 750.391 223.44C750.971 224.5 751.261 225.79 751.261 227.31V237H748.561V227.7C748.561 226.06 748.151 224.81 747.331 223.95C746.531 223.07 745.441 222.63 744.061 222.63C742.641 222.63 741.511 223.09 740.671 224.01C739.831 224.91 739.411 226.22 739.411 227.94V237H736.711V227.7C736.711 226.06 736.301 224.81 735.481 223.95C734.681 223.07 733.591 222.63 732.211 222.63C730.791 222.63 729.661 223.09 728.821 224.01C727.981 224.91 727.561 226.22 727.561 227.94V237H724.831V220.56H727.561V222.93C728.101 222.07 728.821 221.41 729.721 220.95C730.641 220.49 731.651 220.26 732.751 220.26C734.131 220.26 735.351 220.57 736.411 221.19C737.471 221.81 738.261 222.72 738.781 223.92C739.241 222.76 740.001 221.86 741.061 221.22C742.121 220.58 743.301 220.26 744.601 220.26ZM769.9 220.56L760 244.74H757.18L760.42 236.82L753.79 220.56H756.82L761.98 233.88L767.08 220.56H769.9ZM784.044 224.85V227.16H772.074V224.85H784.044ZM797.327 220.26C798.567 220.26 799.687 220.53 800.687 221.07C801.687 221.59 802.467 222.38 803.027 223.44C803.607 224.5 803.897 225.79 803.897 227.31V237H801.197V227.7C801.197 226.06 800.787 224.81 799.967 223.95C799.147 223.07 798.027 222.63 796.607 222.63C795.167 222.63 794.017 223.08 793.157 223.98C792.317 224.88 791.897 226.19 791.897 227.91V237H789.167V214.8H791.897V222.9C792.437 222.06 793.177 221.41 794.117 220.95C795.077 220.49 796.147 220.26 797.327 220.26ZM807.337 228.72C807.337 227.04 807.677 225.57 808.357 224.31C809.037 223.03 809.967 222.04 811.147 221.34C812.347 220.64 813.677 220.29 815.137 220.29C816.577 220.29 817.827 220.6 818.887 221.22C819.947 221.84 820.737 222.62 821.257 223.56V220.56H824.017V237H821.257V233.94C820.717 234.9 819.907 235.7 818.827 236.34C817.767 236.96 816.527 237.27 815.107 237.27C813.647 237.27 812.327 236.91 811.147 236.19C809.967 235.47 809.037 234.46 808.357 233.16C807.677 231.86 807.337 230.38 807.337 228.72ZM821.257 228.75C821.257 227.51 821.007 226.43 820.507 225.51C820.007 224.59 819.327 223.89 818.467 223.41C817.627 222.91 816.697 222.66 815.677 222.66C814.657 222.66 813.727 222.9 812.887 223.38C812.047 223.86 811.377 224.56 810.877 225.48C810.377 226.4 810.127 227.48 810.127 228.72C810.127 229.98 810.377 231.08 810.877 232.02C811.377 232.94 812.047 233.65 812.887 234.15C813.727 234.63 814.657 234.87 815.677 234.87C816.697 234.87 817.627 234.63 818.467 234.15C819.327 233.65 820.007 232.94 820.507 232.02C821.007 231.08 821.257 229.99 821.257 228.75ZM836.64 220.26C838.64 220.26 840.26 220.87 841.5 222.09C842.74 223.29 843.36 225.03 843.36 227.31V237H840.66V227.7C840.66 226.06 840.25 224.81 839.43 223.95C838.61 223.07 837.49 222.63 836.07 222.63C834.63 222.63 833.48 223.08 832.62 223.98C831.78 224.88 831.36 226.19 831.36 227.91V237H828.63V220.56H831.36V222.9C831.9 222.06 832.63 221.41 833.55 220.95C834.49 220.49 835.52 220.26 836.64 220.26ZM846.8 228.72C846.8 227.04 847.14 225.57 847.82 224.31C848.5 223.03 849.43 222.04 850.61 221.34C851.81 220.64 853.15 220.29 854.63 220.29C855.91 220.29 857.1 220.59 858.2 221.19C859.3 221.77 860.14 222.54 860.72 223.5V214.8H863.48V237H860.72V233.91C860.18 234.89 859.38 235.7 858.32 236.34C857.26 236.96 856.02 237.27 854.6 237.27C853.14 237.27 851.81 236.91 850.61 236.19C849.43 235.47 848.5 234.46 847.82 233.16C847.14 231.86 846.8 230.38 846.8 228.72ZM860.72 228.75C860.72 227.51 860.47 226.43 859.97 225.51C859.47 224.59 858.79 223.89 857.93 223.41C857.09 222.91 856.16 222.66 855.14 222.66C854.12 222.66 853.19 222.9 852.35 223.38C851.51 223.86 850.84 224.56 850.34 225.48C849.84 226.4 849.59 227.48 849.59 228.72C849.59 229.98 849.84 231.08 850.34 232.02C850.84 232.94 851.51 233.65 852.35 234.15C853.19 234.63 854.12 234.87 855.14 234.87C856.16 234.87 857.09 234.63 857.93 234.15C858.79 233.65 859.47 232.94 859.97 232.02C860.47 231.08 860.72 229.99 860.72 228.75ZM870.823 214.8V237H868.093V214.8H870.823ZM876.886 217.89C876.366 217.89 875.926 217.71 875.566 217.35C875.206 216.99 875.026 216.55 875.026 216.03C875.026 215.51 875.206 215.07 875.566 214.71C875.926 214.35 876.366 214.17 876.886 214.17C877.386 214.17 877.806 214.35 878.146 214.71C878.506 215.07 878.686 215.51 878.686 216.03C878.686 216.55 878.506 216.99 878.146 217.35C877.806 217.71 877.386 217.89 876.886 217.89ZM878.206 220.56V237H875.476V220.56H878.206ZM890.869 220.26C892.869 220.26 894.489 220.87 895.729 222.09C896.969 223.29 897.589 225.03 897.589 227.31V237H894.889V227.7C894.889 226.06 894.479 224.81 893.659 223.95C892.839 223.07 891.719 222.63 890.299 222.63C888.859 222.63 887.709 223.08 886.849 223.98C886.009 224.88 885.589 226.19 885.589 227.91V237H882.859V220.56H885.589V222.9C886.129 222.06 886.859 221.41 887.779 220.95C888.719 220.49 889.749 220.26 890.869 220.26ZM908.828 220.29C910.248 220.29 911.488 220.6 912.548 221.22C913.628 221.84 914.428 222.62 914.948 223.56V220.56H917.708V237.36C917.708 238.86 917.388 240.19 916.748 241.35C916.108 242.53 915.188 243.45 913.988 244.11C912.808 244.77 911.428 245.1 909.848 245.1C907.688 245.1 905.888 244.59 904.448 243.57C903.008 242.55 902.158 241.16 901.898 239.4H904.598C904.898 240.4 905.518 241.2 906.458 241.8C907.398 242.42 908.528 242.73 909.848 242.73C911.348 242.73 912.568 242.26 913.508 241.32C914.468 240.38 914.948 239.06 914.948 237.36V233.91C914.408 234.87 913.608 235.67 912.548 236.31C911.488 236.95 910.248 237.27 908.828 237.27C907.368 237.27 906.038 236.91 904.838 236.19C903.658 235.47 902.728 234.46 902.048 233.16C901.368 231.86 901.028 230.38 901.028 228.72C901.028 227.04 901.368 225.57 902.048 224.31C902.728 223.03 903.658 222.04 904.838 221.34C906.038 220.64 907.368 220.29 908.828 220.29ZM914.948 228.75C914.948 227.51 914.698 226.43 914.198 225.51C913.698 224.59 913.018 223.89 912.158 223.41C911.318 222.91 910.388 222.66 909.368 222.66C908.348 222.66 907.418 222.9 906.578 223.38C905.738 223.86 905.068 224.56 904.568 225.48C904.068 226.4 903.818 227.48 903.818 228.72C903.818 229.98 904.068 231.08 904.568 232.02C905.068 232.94 905.738 233.65 906.578 234.15C907.418 234.63 908.348 234.87 909.368 234.87C910.388 234.87 911.318 234.63 912.158 234.15C913.018 233.65 913.698 232.94 914.198 232.02C914.698 231.08 914.948 229.99 914.948 228.75ZM933.722 224.85V227.16H921.752V224.85H933.722ZM945.535 222.81H942.085V237H939.355V222.81H937.225V220.56H939.355V219.39C939.355 217.55 939.825 216.21 940.765 215.37C941.725 214.51 943.255 214.08 945.355 214.08V216.36C944.155 216.36 943.305 216.6 942.805 217.08C942.325 217.54 942.085 218.31 942.085 219.39V220.56H945.535V222.81ZM955.888 237.27C954.348 237.27 952.948 236.92 951.688 236.22C950.448 235.52 949.468 234.53 948.748 233.25C948.048 231.95 947.698 230.45 947.698 228.75C947.698 227.07 948.058 225.59 948.778 224.31C949.518 223.01 950.518 222.02 951.778 221.34C953.038 220.64 954.448 220.29 956.008 220.29C957.568 220.29 958.978 220.64 960.238 221.34C961.498 222.02 962.488 223 963.208 224.28C963.948 225.56 964.318 227.05 964.318 228.75C964.318 230.45 963.938 231.95 963.178 233.25C962.438 234.53 961.428 235.52 960.148 236.22C958.868 236.92 957.448 237.27 955.888 237.27ZM955.888 234.87C956.868 234.87 957.788 234.64 958.648 234.18C959.508 233.72 960.198 233.03 960.718 232.11C961.258 231.19 961.528 230.07 961.528 228.75C961.528 227.43 961.268 226.31 960.748 225.39C960.228 224.47 959.548 223.79 958.708 223.35C957.868 222.89 956.958 222.66 955.978 222.66C954.978 222.66 954.058 222.89 953.218 223.35C952.398 223.79 951.738 224.47 951.238 225.39C950.738 226.31 950.488 227.43 950.488 228.75C950.488 230.09 950.728 231.22 951.208 232.14C951.708 233.06 952.368 233.75 953.188 234.21C954.008 234.65 954.908 234.87 955.888 234.87ZM970.638 223.23C971.118 222.29 971.798 221.56 972.678 221.04C973.578 220.52 974.668 220.26 975.948 220.26V223.08H975.228C972.168 223.08 970.638 224.74 970.638 228.06V237H967.908V220.56H970.638V223.23ZM998.869 220.26C1000.15 220.26 1001.29 220.53 1002.29 221.07C1003.29 221.59 1004.08 222.38 1004.66 223.44C1005.24 224.5 1005.53 225.79 1005.53 227.31V237H1002.83V227.7C1002.83 226.06 1002.42 224.81 1001.6 223.95C1000.8 223.07 999.709 222.63 998.329 222.63C996.909 222.63 995.779 223.09 994.939 224.01C994.099 224.91 993.679 226.22 993.679 227.94V237H990.979V227.7C990.979 226.06 990.569 224.81 989.749 223.95C988.949 223.07 987.859 222.63 986.479 222.63C985.059 222.63 983.929 223.09 983.089 224.01C982.249 224.91 981.829 226.22 981.829 227.94V237H979.099V220.56H981.829V222.93C982.369 222.07 983.089 221.41 983.989 220.95C984.909 220.49 985.919 220.26 987.019 220.26C988.399 220.26 989.619 220.57 990.679 221.19C991.739 221.81 992.529 222.72 993.049 223.92C993.509 222.76 994.269 221.86 995.329 221.22C996.389 220.58 997.569 220.26 998.869 220.26ZM1021.41 224.85V227.16H1009.44V224.85H1021.41ZM1029.26 223.59C1029.8 222.65 1030.6 221.87 1031.66 221.25C1032.74 220.61 1033.99 220.29 1035.41 220.29C1036.87 220.29 1038.19 220.64 1039.37 221.34C1040.57 222.04 1041.51 223.03 1042.19 224.31C1042.87 225.57 1043.21 227.04 1043.21 228.72C1043.21 230.38 1042.87 231.86 1042.19 233.16C1041.51 234.46 1040.57 235.47 1039.37 236.19C1038.19 236.91 1036.87 237.27 1035.41 237.27C1034.01 237.27 1032.77 236.96 1031.69 236.34C1030.63 235.7 1029.82 234.91 1029.26 233.97V244.8H1026.53V220.56H1029.26V223.59ZM1040.42 228.72C1040.42 227.48 1040.17 226.4 1039.67 225.48C1039.17 224.56 1038.49 223.86 1037.63 223.38C1036.79 222.9 1035.86 222.66 1034.84 222.66C1033.84 222.66 1032.91 222.91 1032.05 223.41C1031.21 223.89 1030.53 224.6 1030.01 225.54C1029.51 226.46 1029.26 227.53 1029.26 228.75C1029.26 229.99 1029.51 231.08 1030.01 232.02C1030.53 232.94 1031.21 233.65 1032.05 234.15C1032.91 234.63 1033.84 234.87 1034.84 234.87C1035.86 234.87 1036.79 234.63 1037.63 234.15C1038.49 233.65 1039.17 232.94 1039.67 232.02C1040.17 231.08 1040.42 229.98 1040.42 228.72ZM1045.78 228.72C1045.78 227.04 1046.12 225.57 1046.8 224.31C1047.48 223.03 1048.41 222.04 1049.59 221.34C1050.79 220.64 1052.12 220.29 1053.58 220.29C1055.02 220.29 1056.27 220.6 1057.33 221.22C1058.39 221.84 1059.18 222.62 1059.7 223.56V220.56H1062.46V237H1059.7V233.94C1059.16 234.9 1058.35 235.7 1057.27 236.34C1056.21 236.96 1054.97 237.27 1053.55 237.27C1052.09 237.27 1050.77 236.91 1049.59 236.19C1048.41 235.47 1047.48 234.46 1046.8 233.16C1046.12 231.86 1045.78 230.38 1045.78 228.72ZM1059.7 228.75C1059.7 227.51 1059.45 226.43 1058.95 225.51C1058.45 224.59 1057.77 223.89 1056.91 223.41C1056.07 222.91 1055.14 222.66 1054.12 222.66C1053.1 222.66 1052.17 222.9 1051.33 223.38C1050.49 223.86 1049.82 224.56 1049.32 225.48C1048.82 226.4 1048.57 227.48 1048.57 228.72C1048.57 229.98 1048.82 231.08 1049.32 232.02C1049.82 232.94 1050.49 233.65 1051.33 234.15C1052.17 234.63 1053.1 234.87 1054.12 234.87C1055.14 234.87 1056.07 234.63 1056.91 234.15C1057.77 233.65 1058.45 232.94 1058.95 232.02C1059.45 231.08 1059.7 229.99 1059.7 228.75ZM1073.86 220.29C1075.28 220.29 1076.52 220.6 1077.58 221.22C1078.66 221.84 1079.46 222.62 1079.98 223.56V220.56H1082.74V237.36C1082.74 238.86 1082.42 240.19 1081.78 241.35C1081.14 242.53 1080.22 243.45 1079.02 244.11C1077.84 244.77 1076.46 245.1 1074.88 245.1C1072.72 245.1 1070.92 244.59 1069.48 243.57C1068.04 242.55 1067.19 241.16 1066.93 239.4H1069.63C1069.93 240.4 1070.55 241.2 1071.49 241.8C1072.43 242.42 1073.56 242.73 1074.88 242.73C1076.38 242.73 1077.6 242.26 1078.54 241.32C1079.5 240.38 1079.98 239.06 1079.98 237.36V233.91C1079.44 234.87 1078.64 235.67 1077.58 236.31C1076.52 236.95 1075.28 237.27 1073.86 237.27C1072.4 237.27 1071.07 236.91 1069.87 236.19C1068.69 235.47 1067.76 234.46 1067.08 233.16C1066.4 231.86 1066.06 230.38 1066.06 228.72C1066.06 227.04 1066.4 225.57 1067.08 224.31C1067.76 223.03 1068.69 222.04 1069.87 221.34C1071.07 220.64 1072.4 220.29 1073.86 220.29ZM1079.98 228.75C1079.98 227.51 1079.73 226.43 1079.23 225.51C1078.73 224.59 1078.05 223.89 1077.19 223.41C1076.35 222.91 1075.42 222.66 1074.4 222.66C1073.38 222.66 1072.45 222.9 1071.61 223.38C1070.77 223.86 1070.1 224.56 1069.6 225.48C1069.1 226.4 1068.85 227.48 1068.85 228.72C1068.85 229.98 1069.1 231.08 1069.6 232.02C1070.1 232.94 1070.77 233.65 1071.61 234.15C1072.45 234.63 1073.38 234.87 1074.4 234.87C1075.42 234.87 1076.35 234.63 1077.19 234.15C1078.05 233.65 1078.73 232.94 1079.23 232.02C1079.73 231.08 1079.98 229.99 1079.98 228.75ZM1102.35 228.15C1102.35 228.67 1102.32 229.22 1102.26 229.8H1089.12C1089.22 231.42 1089.77 232.69 1090.77 233.61C1091.79 234.51 1093.02 234.96 1094.46 234.96C1095.64 234.96 1096.62 234.69 1097.4 234.15C1098.2 233.59 1098.76 232.85 1099.08 231.93H1102.02C1101.58 233.51 1100.7 234.8 1099.38 235.8C1098.06 236.78 1096.42 237.27 1094.46 237.27C1092.9 237.27 1091.5 236.92 1090.26 236.22C1089.04 235.52 1088.08 234.53 1087.38 233.25C1086.68 231.95 1086.33 230.45 1086.33 228.75C1086.33 227.05 1086.67 225.56 1087.35 224.28C1088.03 223 1088.98 222.02 1090.2 221.34C1091.44 220.64 1092.86 220.29 1094.46 220.29C1096.02 220.29 1097.4 220.63 1098.6 221.31C1099.8 221.99 1100.72 222.93 1101.36 224.13C1102.02 225.31 1102.35 226.65 1102.35 228.15ZM1099.53 227.58C1099.53 226.54 1099.3 225.65 1098.84 224.91C1098.38 224.15 1097.75 223.58 1096.95 223.2C1096.17 222.8 1095.3 222.6 1094.34 222.6C1092.96 222.6 1091.78 223.04 1090.8 223.92C1089.84 224.8 1089.29 226.02 1089.15 227.58H1099.53Z" fill="#007BFF"/>
<path d="M1085.71 505.709C1086.1 505.319 1086.1 504.686 1085.71 504.295L1079.36 497.914C1078.97 497.523 1078.34 497.521 1077.95 497.911C1077.56 498.3 1077.55 498.933 1077.94 499.325L1083.59 504.996L1077.91 510.639C1077.52 511.028 1077.52 511.661 1077.91 512.053C1078.3 512.444 1078.93 512.446 1079.32 512.056L1085.71 505.709ZM711.547 505.037C712.1 505.039 712.549 504.592 712.55 504.04C712.551 503.488 712.105 503.039 711.553 503.038L711.547 505.037ZM730.953 503.088C730.4 503.086 729.951 503.533 729.95 504.085C729.949 504.637 730.395 505.086 730.947 505.087L730.953 503.088ZM760.047 505.162C760.6 505.164 761.049 504.717 761.05 504.165C761.051 503.613 760.605 503.164 760.053 503.163L760.047 505.162ZM779.453 503.213C778.9 503.211 778.451 503.658 778.45 504.21C778.449 504.762 778.895 505.211 779.447 505.212L779.453 503.213ZM808.547 505.287C809.1 505.289 809.549 504.842 809.55 504.29C809.551 503.738 809.105 503.289 808.553 503.288L808.547 505.287ZM827.953 503.338C827.4 503.336 826.951 503.783 826.95 504.335C826.949 504.887 827.395 505.336 827.947 505.337L827.953 503.338ZM857.047 505.412C857.6 505.414 858.049 504.967 858.05 504.415C858.051 503.863 857.605 503.414 857.053 503.413L857.047 505.412ZM876.453 503.463C875.9 503.461 875.451 503.908 875.45 504.46C875.449 505.012 875.895 505.461 876.447 505.462L876.453 503.463ZM905.547 505.537C906.1 505.539 906.549 505.092 906.55 504.54C906.551 503.988 906.105 503.539 905.553 503.538L905.547 505.537ZM924.953 503.588C924.4 503.586 923.951 504.033 923.95 504.585C923.949 505.137 924.395 505.586 924.947 505.587L924.953 503.588ZM954.047 505.662C954.6 505.664 955.049 505.217 955.05 504.665C955.051 504.113 954.605 503.664 954.053 503.663L954.047 505.662ZM973.453 503.713C972.9 503.711 972.451 504.158 972.45 504.71C972.449 505.262 972.895 505.711 973.447 505.712L973.453 503.713ZM1002.55 505.787C1003.1 505.789 1003.55 505.342 1003.55 504.79C1003.55 504.238 1003.1 503.789 1002.55 503.788L1002.55 505.787ZM1021.95 503.838C1021.4 503.836 1020.95 504.283 1020.95 504.835C1020.95 505.387 1021.4 505.836 1021.95 505.837L1021.95 503.838ZM1051.05 505.912C1051.6 505.914 1052.05 505.467 1052.05 504.915C1052.05 504.363 1051.6 503.914 1051.05 503.913L1051.05 505.912ZM1070.45 503.963C1069.9 503.961 1069.45 504.408 1069.45 504.96C1069.45 505.512 1069.9 505.961 1070.45 505.962L1070.45 503.963ZM696.997 505L711.547 505.037L711.553 503.038L697.003 503L696.997 505ZM730.947 505.087L760.047 505.162L760.053 503.163L730.953 503.088L730.947 505.087ZM779.447 505.212L808.547 505.287L808.553 503.288L779.453 503.213L779.447 505.212ZM827.947 505.337L857.047 505.412L857.053 503.413L827.953 503.338L827.947 505.337ZM876.447 505.462L905.547 505.537L905.553 503.538L876.453 503.463L876.447 505.462ZM924.947 505.587L954.047 505.662L954.053 503.663L924.953 503.588L924.947 505.587ZM973.447 505.712L1002.55 505.787L1002.55 503.788L973.453 503.713L973.447 505.712ZM1021.95 505.837L1051.05 505.912L1051.05 503.913L1021.95 503.838L1021.95 505.837ZM1070.45 505.962L1085 506L1085 504L1070.45 503.963L1070.45 505.962ZM1086.41 506.418C1087.19 505.639 1087.2 504.372 1086.42 503.589L1073.72 490.829C1072.94 490.046 1071.68 490.042 1070.89 490.821C1070.11 491.6 1070.11 492.867 1070.89 493.65L1082.17 504.993L1070.83 516.277C1070.05 517.056 1070.04 518.323 1070.82 519.106C1071.6 519.889 1072.87 519.892 1073.65 519.113L1086.41 506.418ZM711.545 506.037C712.649 506.04 713.547 505.147 713.55 504.043C713.553 502.938 712.66 502.04 711.555 502.038L711.545 506.037ZM730.955 502.088C729.851 502.085 728.953 502.978 728.95 504.082C728.947 505.187 729.84 506.085 730.945 506.087L730.955 502.088ZM760.045 506.162C761.149 506.165 762.047 505.272 762.05 504.168C762.053 503.063 761.16 502.165 760.055 502.163L760.045 506.162ZM779.455 502.213C778.351 502.21 777.453 503.103 777.45 504.207C777.447 505.312 778.34 506.21 779.445 506.212L779.455 502.213ZM808.545 506.287C809.649 506.29 810.547 505.397 810.55 504.293C810.553 503.188 809.66 502.29 808.555 502.288L808.545 506.287ZM827.955 502.338C826.851 502.335 825.953 503.228 825.95 504.332C825.947 505.437 826.84 506.335 827.945 506.337L827.955 502.338ZM857.045 506.412C858.149 506.415 859.047 505.522 859.05 504.418C859.053 503.313 858.16 502.415 857.055 502.413L857.045 506.412ZM876.455 502.463C875.351 502.46 874.453 503.353 874.45 504.457C874.447 505.562 875.34 506.46 876.445 506.462L876.455 502.463ZM905.545 506.537C906.649 506.54 907.547 505.647 907.55 504.543C907.553 503.438 906.66 502.54 905.555 502.538L905.545 506.537ZM924.955 502.588C923.851 502.585 922.953 503.478 922.95 504.582C922.947 505.687 923.84 506.585 924.945 506.587L924.955 502.588ZM954.045 506.662C955.149 506.665 956.047 505.772 956.05 504.668C956.053 503.563 955.16 502.665 954.055 502.663L954.045 506.662ZM973.455 502.713C972.351 502.71 971.453 503.603 971.45 504.707C971.447 505.812 972.34 506.71 973.445 506.712L973.455 502.713ZM1002.54 506.787C1003.65 506.79 1004.55 505.897 1004.55 504.793C1004.55 503.688 1003.66 502.79 1002.56 502.788L1002.54 506.787ZM1021.96 502.838C1020.85 502.835 1019.95 503.728 1019.95 504.832C1019.95 505.937 1020.84 506.835 1021.94 506.837L1021.96 502.838ZM1051.04 506.912C1052.15 506.915 1053.05 506.022 1053.05 504.918C1053.05 503.813 1052.16 502.915 1051.06 502.913L1051.04 506.912ZM1070.46 502.963C1069.35 502.96 1068.45 503.853 1068.45 504.957C1068.45 506.062 1069.34 506.96 1070.44 506.962L1070.46 502.963ZM696.995 506L711.545 506.037L711.555 502.038L697.005 502L696.995 506ZM730.945 506.087L760.045 506.162L760.055 502.163L730.955 502.088L730.945 506.087ZM779.445 506.212L808.545 506.287L808.555 502.288L779.455 502.213L779.445 506.212ZM827.945 506.337L857.045 506.412L857.055 502.413L827.955 502.338L827.945 506.337ZM876.445 506.462L905.545 506.537L905.555 502.538L876.455 502.463L876.445 506.462ZM924.945 506.587L954.045 506.662L954.055 502.663L924.955 502.588L924.945 506.587ZM973.445 506.712L1002.54 506.787L1002.56 502.788L973.455 502.713L973.445 506.712ZM1021.94 506.837L1051.04 506.912L1051.06 502.913L1021.96 502.838L1021.94 506.837ZM1070.44 506.962L1084.99 507L1085.01 503L1070.46 502.963L1070.44 506.962Z" fill="#007BFF"/>
<defs>
<filter id="filter0_d" x="286" y="547" width="163.27" height="53.27" filterUnits="userSpaceOnUse" color-interpolation-filters="sRGB">
<feFlood flood-opacity="0" result="BackgroundImageFix"/>
<feColorMatrix in="SourceAlpha" type="matrix" values="0 0 0 0 0 0 0 0 0 0 0 0 0 0 0 0 0 0 127 0" result="hardAlpha"/>
<feOffset dx="5.27" dy="5.27"/>
<feGaussianBlur stdDeviation="2"/>
<feColorMatrix type="matrix" values="0 0 0 0 0 0 0 0 0 0 0 0 0 0 0 0 0 0 0.25 0"/>
<feBlend mode="normal" in2="BackgroundImageFix" result="effect1_dropShadow"/>
<feBlend mode="normal" in="SourceGraphic" in2="effect1_dropShadow" result="shape"/>
</filter>
</defs>
</svg>
