<svg width="1600" height="900" viewBox="0 0 1600 900" fill="none" xmlns="http://www.w3.org/2000/svg">
<path d="M506.79 176V126.02H544.31V176H538.08V131.55H513.09V176H506.79ZM575.001 137.78C579.621 137.78 583.331 139.39 586.131 142.61C588.978 145.83 590.401 150.683 590.401 157.17C590.401 163.563 588.978 168.417 586.131 171.73C583.331 175.043 579.598 176.7 574.931 176.7C572.038 176.7 569.635 176.163 567.721 175.09C565.855 173.97 564.385 172.687 563.311 171.24H562.891C562.985 172.033 563.078 173.037 563.171 174.25C563.265 175.463 563.311 176.513 563.311 177.4V192.8H557.151V138.48H562.191L563.031 143.59H563.311C564.431 141.957 565.901 140.58 567.721 139.46C569.541 138.34 571.968 137.78 575.001 137.78ZM573.881 142.96C570.055 142.96 567.348 144.033 565.761 146.18C564.221 148.327 563.405 151.593 563.311 155.98V157.17C563.311 161.79 564.058 165.36 565.551 167.88C567.091 170.353 569.915 171.59 574.021 171.59C576.308 171.59 578.175 170.96 579.621 169.7C581.115 168.44 582.211 166.737 582.911 164.59C583.658 162.397 584.031 159.9 584.031 157.1C584.031 152.807 583.191 149.377 581.511 146.81C579.878 144.243 577.335 142.96 573.881 142.96ZM606.028 161.37C606.028 161.93 606.004 162.77 605.958 163.89C605.911 165.01 605.841 166.13 605.748 167.25C605.701 168.37 605.654 169.257 605.608 169.91L625.698 138.48H633.258V176H627.518V153.88C627.518 153.133 627.518 152.153 627.518 150.94C627.564 149.727 627.611 148.537 627.658 147.37C627.704 146.157 627.751 145.247 627.798 144.64L607.848 176H600.218V138.48H606.028V161.37ZM685.448 138.48V176H679.918V152.06C679.918 151.08 679.941 150.053 679.988 148.98C680.081 147.907 680.175 146.857 680.268 145.83H680.058L667.808 176H662.628L650.728 145.83H650.518C650.658 147.93 650.728 150.077 650.728 152.27V176H645.198V138.48H653.388L665.218 168.65L677.258 138.48H685.448ZM711.915 137.78C715.135 137.78 717.888 138.48 720.175 139.88C722.508 141.28 724.281 143.263 725.495 145.83C726.755 148.35 727.385 151.313 727.385 154.72V158.43H701.695C701.788 162.677 702.861 165.92 704.915 168.16C707.015 170.353 709.931 171.45 713.665 171.45C716.045 171.45 718.145 171.24 719.965 170.82C721.831 170.353 723.745 169.7 725.705 168.86V174.25C723.791 175.09 721.901 175.697 720.035 176.07C718.168 176.49 715.951 176.7 713.385 176.7C709.838 176.7 706.688 175.977 703.935 174.53C701.228 173.083 699.105 170.937 697.565 168.09C696.071 165.197 695.325 161.673 695.325 157.52C695.325 153.413 696.001 149.89 697.355 146.95C698.755 144.01 700.691 141.747 703.165 140.16C705.685 138.573 708.601 137.78 711.915 137.78ZM711.845 142.82C708.905 142.82 706.571 143.777 704.845 145.69C703.165 147.557 702.161 150.17 701.835 153.53H720.945C720.898 150.357 720.151 147.79 718.705 145.83C717.258 143.823 714.971 142.82 711.845 142.82ZM754.786 137.78C759.406 137.78 763.116 139.39 765.916 142.61C768.763 145.83 770.186 150.683 770.186 157.17C770.186 163.563 768.763 168.417 765.916 171.73C763.116 175.043 759.383 176.7 754.716 176.7C751.823 176.7 749.42 176.163 747.506 175.09C745.64 173.97 744.17 172.687 743.096 171.24H742.676C742.77 172.033 742.863 173.037 742.956 174.25C743.05 175.463 743.096 176.513 743.096 177.4V192.8H736.936V138.48H741.976L742.816 143.59H743.096C744.216 141.957 745.686 140.58 747.506 139.46C749.326 138.34 751.753 137.78 754.786 137.78ZM753.666 142.96C749.84 142.96 747.133 144.033 745.546 146.18C744.006 148.327 743.19 151.593 743.096 155.98V157.17C743.096 161.79 743.843 165.36 745.336 167.88C746.876 170.353 749.7 171.59 753.806 171.59C756.093 171.59 757.96 170.96 759.406 169.7C760.9 168.44 761.996 166.737 762.696 164.59C763.443 162.397 763.816 159.9 763.816 157.1C763.816 152.807 762.976 149.377 761.296 146.81C759.663 144.243 757.12 142.96 753.666 142.96ZM828.356 147.93C828.356 150.263 827.656 152.083 826.256 153.39C824.856 154.697 823.06 155.583 820.866 156.05V156.33C823.2 156.657 825.23 157.497 826.956 158.85C828.683 160.157 829.546 162.21 829.546 165.01C829.546 168.183 828.356 170.82 825.976 172.92C823.643 174.973 819.77 176 814.356 176H798.186V138.48H814.286C816.946 138.48 819.326 138.783 821.426 139.39C823.573 139.95 825.253 140.93 826.466 142.33C827.726 143.683 828.356 145.55 828.356 147.93ZM822.126 148.7C822.126 146.927 821.473 145.643 820.166 144.85C818.906 144.01 816.83 143.59 813.936 143.59H804.346V153.88H812.816C819.023 153.88 822.126 152.153 822.126 148.7ZM823.176 165.01C823.176 162.863 822.36 161.323 820.726 160.39C819.093 159.457 816.69 158.99 813.516 158.99H804.346V171.03H813.656C816.736 171.03 819.093 170.587 820.726 169.7C822.36 168.767 823.176 167.203 823.176 165.01ZM844.328 161.37C844.328 161.93 844.305 162.77 844.258 163.89C844.212 165.01 844.142 166.13 844.048 167.25C844.002 168.37 843.955 169.257 843.908 169.91L863.998 138.48H871.558V176H865.818V153.88C865.818 153.133 865.818 152.153 865.818 150.94C865.865 149.727 865.912 148.537 865.958 147.37C866.005 146.157 866.052 145.247 866.098 144.64L846.148 176H838.518V138.48H844.328V161.37ZM911.359 138.48V170.82H916.819V189.02H910.869V176H884.759V189.02H878.879V170.82H881.889C885.109 166.387 887.512 161.347 889.099 155.7C890.732 150.007 891.572 144.267 891.619 138.48H911.359ZM897.079 143.31C896.892 146.483 896.402 149.773 895.609 153.18C894.815 156.54 893.789 159.76 892.529 162.84C891.315 165.92 889.892 168.58 888.259 170.82H905.409V143.31H897.079ZM969.183 138.48L953.713 156.68L970.513 176H963.513L947.273 156.96V176H941.533V156.96L925.293 176H918.293L935.093 156.68L919.623 138.48H926.343L941.533 156.68V138.48H947.273V156.68L962.533 138.48H969.183ZM989.795 137.78C993.015 137.78 995.769 138.48 998.055 139.88C1000.39 141.28 1002.16 143.263 1003.38 145.83C1004.64 148.35 1005.27 151.313 1005.27 154.72V158.43H979.575C979.669 162.677 980.742 165.92 982.795 168.16C984.895 170.353 987.812 171.45 991.545 171.45C993.925 171.45 996.025 171.24 997.845 170.82C999.712 170.353 1001.63 169.7 1003.59 168.86V174.25C1001.67 175.09 999.782 175.697 997.915 176.07C996.049 176.49 993.832 176.7 991.265 176.7C987.719 176.7 984.569 175.977 981.815 174.53C979.109 173.083 976.985 170.937 975.445 168.09C973.952 165.197 973.205 161.673 973.205 157.52C973.205 153.413 973.882 149.89 975.235 146.95C976.635 144.01 978.572 141.747 981.045 140.16C983.565 138.573 986.482 137.78 989.795 137.78ZM989.725 142.82C986.785 142.82 984.452 143.777 982.725 145.69C981.045 147.557 980.042 150.17 979.715 153.53H998.825C998.779 150.357 998.032 147.79 996.585 145.83C995.139 143.823 992.852 142.82 989.725 142.82ZM1040.72 143.66H1028.47V176H1022.38V143.66H1010.27V138.48H1040.72V143.66ZM1080.04 157.17C1080.04 163.377 1078.46 168.183 1075.28 171.59C1072.16 174.997 1067.91 176.7 1062.54 176.7C1059.23 176.7 1056.27 175.953 1053.65 174.46C1051.09 172.92 1049.06 170.703 1047.56 167.81C1046.07 164.87 1045.32 161.323 1045.32 157.17C1045.32 150.963 1046.89 146.18 1050.01 142.82C1053.14 139.46 1057.39 137.78 1062.75 137.78C1066.16 137.78 1069.15 138.55 1071.71 140.09C1074.33 141.583 1076.36 143.777 1077.8 146.67C1079.3 149.517 1080.04 153.017 1080.04 157.17ZM1051.69 157.17C1051.69 161.603 1052.56 165.127 1054.28 167.74C1056.06 170.307 1058.86 171.59 1062.68 171.59C1066.46 171.59 1069.24 170.307 1071.01 167.74C1072.79 165.127 1073.67 161.603 1073.67 157.17C1073.67 152.737 1072.79 149.26 1071.01 146.74C1069.24 144.22 1066.44 142.96 1062.61 142.96C1058.79 142.96 1056.01 144.22 1054.28 146.74C1052.56 149.26 1051.69 152.737 1051.69 157.17ZM1119.98 147.93C1119.98 150.263 1119.28 152.083 1117.88 153.39C1116.48 154.697 1114.68 155.583 1112.49 156.05V156.33C1114.82 156.657 1116.85 157.497 1118.58 158.85C1120.3 160.157 1121.17 162.21 1121.17 165.01C1121.17 168.183 1119.98 170.82 1117.6 172.92C1115.26 174.973 1111.39 176 1105.98 176H1089.81V138.48H1105.91C1108.57 138.48 1110.95 138.783 1113.05 139.39C1115.19 139.95 1116.87 140.93 1118.09 142.33C1119.35 143.683 1119.98 145.55 1119.98 147.93ZM1113.75 148.7C1113.75 146.927 1113.09 145.643 1111.79 144.85C1110.53 144.01 1108.45 143.59 1105.56 143.59H1095.97V153.88H1104.44C1110.64 153.88 1113.75 152.153 1113.75 148.7ZM1114.8 165.01C1114.8 162.863 1113.98 161.323 1112.35 160.39C1110.71 159.457 1108.31 158.99 1105.14 158.99H1095.97V171.03H1105.28C1108.36 171.03 1110.71 170.587 1112.35 169.7C1113.98 168.767 1114.8 167.203 1114.8 165.01Z" fill="#007BFF"/>
<path d="M571.29 228.75C571.29 227.05 571.63 225.57 572.31 224.31C572.99 223.03 573.93 222.04 575.13 221.34C576.35 220.64 577.74 220.29 579.3 220.29C581.32 220.29 582.98 220.78 584.28 221.76C585.6 222.74 586.47 224.1 586.89 225.84H583.95C583.67 224.84 583.12 224.05 582.3 223.47C581.5 222.89 580.5 222.6 579.3 222.6C577.74 222.6 576.48 223.14 575.52 224.22C574.56 225.28 574.08 226.79 574.08 228.75C574.08 230.73 574.56 232.26 575.52 233.34C576.48 234.42 577.74 234.96 579.3 234.96C580.5 234.96 581.5 234.68 582.3 234.12C583.1 233.56 583.65 232.76 583.95 231.72H586.89C586.45 233.4 585.57 234.75 584.25 235.77C582.93 236.77 581.28 237.27 579.3 237.27C577.74 237.27 576.35 236.92 575.13 236.22C573.93 235.52 572.99 234.53 572.31 233.25C571.63 231.97 571.29 230.47 571.29 228.75ZM597.703 237.27C596.163 237.27 594.763 236.92 593.503 236.22C592.263 235.52 591.283 234.53 590.563 233.25C589.863 231.95 589.513 230.45 589.513 228.75C589.513 227.07 589.873 225.59 590.593 224.31C591.333 223.01 592.333 222.02 593.593 221.34C594.853 220.64 596.263 220.29 597.823 220.29C599.383 220.29 600.793 220.64 602.053 221.34C603.313 222.02 604.303 223 605.023 224.28C605.763 225.56 606.133 227.05 606.133 228.75C606.133 230.45 605.753 231.95 604.993 233.25C604.253 234.53 603.243 235.52 601.963 236.22C600.683 236.92 599.263 237.27 597.703 237.27ZM597.703 234.87C598.683 234.87 599.603 234.64 600.463 234.18C601.323 233.72 602.013 233.03 602.533 232.11C603.073 231.19 603.343 230.07 603.343 228.75C603.343 227.43 603.083 226.31 602.563 225.39C602.043 224.47 601.363 223.79 600.523 223.35C599.683 222.89 598.773 222.66 597.793 222.66C596.793 222.66 595.873 222.89 595.033 223.35C594.213 223.79 593.553 224.47 593.053 225.39C592.553 226.31 592.303 227.43 592.303 228.75C592.303 230.09 592.543 231.22 593.023 232.14C593.523 233.06 594.183 233.75 595.003 234.21C595.823 234.65 596.723 234.87 597.703 234.87ZM617.732 220.26C619.732 220.26 621.352 220.87 622.592 222.09C623.832 223.29 624.452 225.03 624.452 227.31V237H621.752V227.7C621.752 226.06 621.342 224.81 620.522 223.95C619.702 223.07 618.582 222.63 617.162 222.63C615.722 222.63 614.572 223.08 613.712 223.98C612.872 224.88 612.452 226.19 612.452 227.91V237H609.722V220.56H612.452V222.9C612.992 222.06 613.722 221.41 614.642 220.95C615.582 220.49 616.612 220.26 617.732 220.26ZM632.242 222.81V232.5C632.242 233.3 632.412 233.87 632.752 234.21C633.092 234.53 633.682 234.69 634.522 234.69H636.532V237H634.072C632.552 237 631.412 236.65 630.652 235.95C629.892 235.25 629.512 234.1 629.512 232.5V222.81H627.382V220.56H629.512V216.42H632.242V220.56H636.532V222.81H632.242ZM638.819 228.72C638.819 227.04 639.159 225.57 639.839 224.31C640.519 223.03 641.449 222.04 642.629 221.34C643.829 220.64 645.159 220.29 646.619 220.29C648.059 220.29 649.309 220.6 650.369 221.22C651.429 221.84 652.219 222.62 652.739 223.56V220.56H655.499V237H652.739V233.94C652.199 234.9 651.389 235.7 650.309 236.34C649.249 236.96 648.009 237.27 646.589 237.27C645.129 237.27 643.809 236.91 642.629 236.19C641.449 235.47 640.519 234.46 639.839 233.16C639.159 231.86 638.819 230.38 638.819 228.72ZM652.739 228.75C652.739 227.51 652.489 226.43 651.989 225.51C651.489 224.59 650.809 223.89 649.949 223.41C649.109 222.91 648.179 222.66 647.159 222.66C646.139 222.66 645.209 222.9 644.369 223.38C643.529 223.86 642.859 224.56 642.359 225.48C641.859 226.4 641.609 227.48 641.609 228.72C641.609 229.98 641.859 231.08 642.359 232.02C642.859 232.94 643.529 233.65 644.369 234.15C645.209 234.63 646.139 234.87 647.159 234.87C648.179 234.87 649.109 234.63 649.949 234.15C650.809 233.65 651.489 232.94 651.989 232.02C652.489 231.08 652.739 229.99 652.739 228.75ZM659.093 228.75C659.093 227.05 659.433 225.57 660.113 224.31C660.793 223.03 661.733 222.04 662.933 221.34C664.153 220.64 665.543 220.29 667.103 220.29C669.123 220.29 670.783 220.78 672.083 221.76C673.403 222.74 674.273 224.1 674.693 225.84H671.753C671.473 224.84 670.923 224.05 670.103 223.47C669.303 222.89 668.303 222.6 667.103 222.6C665.543 222.6 664.283 223.14 663.323 224.22C662.363 225.28 661.883 226.79 661.883 228.75C661.883 230.73 662.363 232.26 663.323 233.34C664.283 234.42 665.543 234.96 667.103 234.96C668.303 234.96 669.303 234.68 670.103 234.12C670.903 233.56 671.453 232.76 671.753 231.72H674.693C674.253 233.4 673.373 234.75 672.053 235.77C670.733 236.77 669.083 237.27 667.103 237.27C665.543 237.27 664.153 236.92 662.933 236.22C661.733 235.52 660.793 234.53 660.113 233.25C659.433 231.97 659.093 230.47 659.093 228.75ZM681.665 222.81V232.5C681.665 233.3 681.835 233.87 682.175 234.21C682.515 234.53 683.105 234.69 683.945 234.69H685.955V237H683.495C681.975 237 680.835 236.65 680.075 235.95C679.315 235.25 678.935 234.1 678.935 232.5V222.81H676.805V220.56H678.935V216.42H681.665V220.56H685.955V222.81H681.665ZM711.841 220.56V237H709.111V234.57C708.591 235.41 707.861 236.07 706.921 236.55C706.001 237.01 704.981 237.24 703.861 237.24C702.581 237.24 701.431 236.98 700.411 236.46C699.391 235.92 698.581 235.12 697.981 234.06C697.401 233 697.111 231.71 697.111 230.19V220.56H699.811V229.83C699.811 231.45 700.221 232.7 701.041 233.58C701.861 234.44 702.981 234.87 704.401 234.87C705.861 234.87 707.011 234.42 707.851 233.52C708.691 232.62 709.111 231.31 709.111 229.59V220.56H711.841ZM722.271 237.27C721.011 237.27 719.881 237.06 718.881 236.64C717.881 236.2 717.091 235.6 716.511 234.84C715.931 234.06 715.611 233.17 715.551 232.17H718.371C718.451 232.99 718.831 233.66 719.511 234.18C720.211 234.7 721.121 234.96 722.241 234.96C723.281 234.96 724.101 234.73 724.701 234.27C725.301 233.81 725.601 233.23 725.601 232.53C725.601 231.81 725.281 231.28 724.641 230.94C724.001 230.58 723.011 230.23 721.671 229.89C720.451 229.57 719.451 229.25 718.671 228.93C717.911 228.59 717.251 228.1 716.691 227.46C716.151 226.8 715.881 225.94 715.881 224.88C715.881 224.04 716.131 223.27 716.631 222.57C717.131 221.87 717.841 221.32 718.761 220.92C719.681 220.5 720.731 220.29 721.911 220.29C723.731 220.29 725.201 220.75 726.321 221.67C727.441 222.59 728.041 223.85 728.121 225.45H725.391C725.331 224.59 724.981 223.9 724.341 223.38C723.721 222.86 722.881 222.6 721.821 222.6C720.841 222.6 720.061 222.81 719.481 223.23C718.901 223.65 718.611 224.2 718.611 224.88C718.611 225.42 718.781 225.87 719.121 226.23C719.481 226.57 719.921 226.85 720.441 227.07C720.981 227.27 721.721 227.5 722.661 227.76C723.841 228.08 724.801 228.4 725.541 228.72C726.281 229.02 726.911 229.48 727.431 230.1C727.971 230.72 728.251 231.53 728.271 232.53C728.271 233.43 728.021 234.24 727.521 234.96C727.021 235.68 726.311 236.25 725.391 236.67C724.491 237.07 723.451 237.27 722.271 237.27ZM746.813 222.81H743.363V237H740.633V222.81H738.503V220.56H740.633V219.39C740.633 217.55 741.103 216.21 742.043 215.37C743.003 214.51 744.533 214.08 746.632 214.08V216.36C745.433 216.36 744.583 216.6 744.083 217.08C743.603 217.54 743.363 218.31 743.363 219.39V220.56H746.813V222.81ZM757.166 237.27C755.626 237.27 754.226 236.92 752.966 236.22C751.726 235.52 750.746 234.53 750.026 233.25C749.326 231.95 748.976 230.45 748.976 228.75C748.976 227.07 749.336 225.59 750.056 224.31C750.796 223.01 751.796 222.02 753.056 221.34C754.316 220.64 755.726 220.29 757.286 220.29C758.846 220.29 760.256 220.64 761.516 221.34C762.776 222.02 763.766 223 764.486 224.28C765.226 225.56 765.596 227.05 765.596 228.75C765.596 230.45 765.216 231.95 764.456 233.25C763.716 234.53 762.706 235.52 761.426 236.22C760.146 236.92 758.726 237.27 757.166 237.27ZM757.166 234.87C758.146 234.87 759.066 234.64 759.926 234.18C760.786 233.72 761.476 233.03 761.996 232.11C762.536 231.19 762.806 230.07 762.806 228.75C762.806 227.43 762.546 226.31 762.026 225.39C761.506 224.47 760.826 223.79 759.986 223.35C759.146 222.89 758.236 222.66 757.256 222.66C756.256 222.66 755.336 222.89 754.496 223.35C753.676 223.79 753.016 224.47 752.516 225.39C752.016 226.31 751.766 227.43 751.766 228.75C751.766 230.09 752.006 231.22 752.486 232.14C752.986 233.06 753.646 233.75 754.466 234.21C755.286 234.65 756.186 234.87 757.166 234.87ZM771.915 223.23C772.395 222.29 773.075 221.56 773.955 221.04C774.855 220.52 775.945 220.26 777.225 220.26V223.08H776.505C773.445 223.08 771.915 224.74 771.915 228.06V237H769.185V220.56H771.915V223.23ZM808.144 220.26C809.424 220.26 810.564 220.53 811.564 221.07C812.564 221.59 813.354 222.38 813.934 223.44C814.514 224.5 814.804 225.79 814.804 227.31V237H812.104V227.7C812.104 226.06 811.694 224.81 810.874 223.95C810.074 223.07 808.984 222.63 807.604 222.63C806.184 222.63 805.054 223.09 804.214 224.01C803.374 224.91 802.954 226.22 802.954 227.94V237H800.254V227.7C800.254 226.06 799.844 224.81 799.024 223.95C798.224 223.07 797.134 222.63 795.754 222.63C794.334 222.63 793.204 223.09 792.364 224.01C791.524 224.91 791.104 226.22 791.104 227.94V237H788.374V220.56H791.104V222.93C791.644 222.07 792.364 221.41 793.264 220.95C794.184 220.49 795.194 220.26 796.294 220.26C797.674 220.26 798.894 220.57 799.954 221.19C801.014 221.81 801.804 222.72 802.324 223.92C802.784 222.76 803.544 221.86 804.604 221.22C805.664 220.58 806.844 220.26 808.144 220.26ZM826.453 237.27C824.913 237.27 823.513 236.92 822.253 236.22C821.013 235.52 820.033 234.53 819.313 233.25C818.613 231.95 818.263 230.45 818.263 228.75C818.263 227.07 818.623 225.59 819.343 224.31C820.083 223.01 821.083 222.02 822.343 221.34C823.603 220.64 825.013 220.29 826.573 220.29C828.133 220.29 829.543 220.64 830.803 221.34C832.063 222.02 833.053 223 833.773 224.28C834.513 225.56 834.883 227.05 834.883 228.75C834.883 230.45 834.503 231.95 833.743 233.25C833.003 234.53 831.993 235.52 830.713 236.22C829.433 236.92 828.013 237.27 826.453 237.27ZM826.453 234.87C827.433 234.87 828.353 234.64 829.213 234.18C830.073 233.72 830.763 233.03 831.283 232.11C831.823 231.19 832.093 230.07 832.093 228.75C832.093 227.43 831.833 226.31 831.313 225.39C830.793 224.47 830.113 223.79 829.273 223.35C828.433 222.89 827.523 222.66 826.543 222.66C825.543 222.66 824.623 222.89 823.783 223.35C822.963 223.79 822.303 224.47 821.803 225.39C821.303 226.31 821.053 227.43 821.053 228.75C821.053 230.09 821.293 231.22 821.773 232.14C822.273 233.06 822.933 233.75 823.753 234.21C824.573 234.65 825.473 234.87 826.453 234.87ZM841.202 223.23C841.682 222.29 842.362 221.56 843.242 221.04C844.142 220.52 845.232 220.26 846.512 220.26V223.08H845.792C842.732 223.08 841.202 224.74 841.202 228.06V237H838.472V220.56H841.202V223.23ZM864.664 228.15C864.664 228.67 864.634 229.22 864.574 229.8H851.434C851.534 231.42 852.084 232.69 853.084 233.61C854.104 234.51 855.334 234.96 856.774 234.96C857.954 234.96 858.934 234.69 859.714 234.15C860.514 233.59 861.074 232.85 861.394 231.93H864.334C863.894 233.51 863.014 234.8 861.694 235.8C860.374 236.78 858.734 237.27 856.774 237.27C855.214 237.27 853.814 236.92 852.574 236.22C851.354 235.52 850.394 234.53 849.694 233.25C848.994 231.95 848.644 230.45 848.644 228.75C848.644 227.05 848.984 225.56 849.664 224.28C850.344 223 851.294 222.02 852.514 221.34C853.754 220.64 855.174 220.29 856.774 220.29C858.334 220.29 859.714 220.63 860.914 221.31C862.114 221.99 863.034 222.93 863.674 224.13C864.334 225.31 864.664 226.65 864.664 228.15ZM861.844 227.58C861.844 226.54 861.614 225.65 861.154 224.91C860.694 224.15 860.064 223.58 859.264 223.2C858.484 222.8 857.614 222.6 856.654 222.6C855.274 222.6 854.094 223.04 853.114 223.92C852.154 224.8 851.604 226.02 851.464 227.58H861.844ZM877.675 217.89C877.155 217.89 876.715 217.71 876.355 217.35C875.995 216.99 875.815 216.55 875.815 216.03C875.815 215.51 875.995 215.07 876.355 214.71C876.715 214.35 877.155 214.17 877.675 214.17C878.175 214.17 878.595 214.35 878.935 214.71C879.295 215.07 879.475 215.51 879.475 216.03C879.475 216.55 879.295 216.99 878.935 217.35C878.595 217.71 878.175 217.89 877.675 217.89ZM878.995 220.56V237H876.265V220.56H878.995ZM891.658 220.26C893.658 220.26 895.278 220.87 896.518 222.09C897.758 223.29 898.378 225.03 898.378 227.31V237H895.678V227.7C895.678 226.06 895.268 224.81 894.448 223.95C893.628 223.07 892.508 222.63 891.088 222.63C889.648 222.63 888.498 223.08 887.638 223.98C886.798 224.88 886.378 226.19 886.378 227.91V237H883.648V220.56H886.378V222.9C886.918 222.06 887.648 221.41 888.568 220.95C889.508 220.49 890.538 220.26 891.658 220.26ZM909.527 222.81H906.077V237H903.347V222.81H901.217V220.56H903.347V219.39C903.347 217.55 903.817 216.21 904.757 215.37C905.717 214.51 907.247 214.08 909.347 214.08V216.36C908.147 216.36 907.297 216.6 906.797 217.08C906.317 217.54 906.077 218.31 906.077 219.39V220.56H909.527V222.81ZM919.88 237.27C918.34 237.27 916.94 236.92 915.68 236.22C914.44 235.52 913.46 234.53 912.74 233.25C912.04 231.95 911.69 230.45 911.69 228.75C911.69 227.07 912.05 225.59 912.77 224.31C913.51 223.01 914.51 222.02 915.77 221.34C917.03 220.64 918.44 220.29 920 220.29C921.56 220.29 922.97 220.64 924.23 221.34C925.49 222.02 926.48 223 927.2 224.28C927.94 225.56 928.31 227.05 928.31 228.75C928.31 230.45 927.93 231.95 927.17 233.25C926.43 234.53 925.42 235.52 924.14 236.22C922.86 236.92 921.44 237.27 919.88 237.27ZM919.88 234.87C920.86 234.87 921.78 234.64 922.64 234.18C923.5 233.72 924.19 233.03 924.71 232.11C925.25 231.19 925.52 230.07 925.52 228.75C925.52 227.43 925.26 226.31 924.74 225.39C924.22 224.47 923.54 223.79 922.7 223.35C921.86 222.89 920.95 222.66 919.97 222.66C918.97 222.66 918.05 222.89 917.21 223.35C916.39 223.79 915.73 224.47 915.23 225.39C914.73 226.31 914.48 227.43 914.48 228.75C914.48 230.09 914.72 231.22 915.2 232.14C915.7 233.06 916.36 233.75 917.18 234.21C918 234.65 918.9 234.87 919.88 234.87ZM955.948 237L953.218 234.24C952.198 235.3 951.108 236.09 949.948 236.61C948.788 237.11 947.478 237.36 946.018 237.36C944.578 237.36 943.298 237.1 942.178 236.58C941.078 236.06 940.218 235.32 939.598 234.36C938.998 233.4 938.698 232.28 938.698 231C938.698 229.54 939.108 228.26 939.928 227.16C940.768 226.04 941.998 225.16 943.618 224.52C942.978 223.76 942.518 223.06 942.238 222.42C941.958 221.78 941.818 221.08 941.818 220.32C941.818 219.44 942.038 218.65 942.478 217.95C942.938 217.23 943.588 216.67 944.428 216.27C945.268 215.87 946.238 215.67 947.338 215.67C948.418 215.67 949.358 215.88 950.158 216.3C950.958 216.72 951.558 217.31 951.958 218.07C952.358 218.81 952.538 219.64 952.498 220.56H949.768C949.788 219.74 949.558 219.1 949.078 218.64C948.598 218.16 947.978 217.92 947.218 217.92C946.418 217.92 945.768 218.15 945.268 218.61C944.788 219.05 944.548 219.62 944.548 220.32C944.548 220.92 944.708 221.5 945.028 222.06C945.368 222.62 945.928 223.31 946.708 224.13L952.948 230.4L953.488 229.56L955.528 226.14H958.468L956.008 230.4C955.668 231 955.268 231.63 954.808 232.29L959.518 237H955.948ZM946.018 235.02C947.098 235.02 948.068 234.81 948.928 234.39C949.808 233.97 950.638 233.32 951.418 232.44L945.268 226.26C942.708 227.24 941.428 228.79 941.428 230.91C941.428 232.09 941.848 233.07 942.688 233.85C943.548 234.63 944.658 235.02 946.018 235.02ZM969.054 228.72C969.054 227.04 969.394 225.57 970.074 224.31C970.754 223.03 971.684 222.04 972.864 221.34C974.064 220.64 975.404 220.29 976.884 220.29C978.164 220.29 979.354 220.59 980.454 221.19C981.554 221.77 982.394 222.54 982.974 223.5V214.8H985.734V237H982.974V233.91C982.434 234.89 981.634 235.7 980.574 236.34C979.514 236.96 978.274 237.27 976.854 237.27C975.394 237.27 974.064 236.91 972.864 236.19C971.684 235.47 970.754 234.46 970.074 233.16C969.394 231.86 969.054 230.38 969.054 228.72ZM982.974 228.75C982.974 227.51 982.724 226.43 982.224 225.51C981.724 224.59 981.044 223.89 980.184 223.41C979.344 222.91 978.414 222.66 977.394 222.66C976.374 222.66 975.444 222.9 974.604 223.38C973.764 223.86 973.094 224.56 972.594 225.48C972.094 226.4 971.844 227.48 971.844 228.72C971.844 229.98 972.094 231.08 972.594 232.02C973.094 232.94 973.764 233.65 974.604 234.15C975.444 234.63 976.374 234.87 977.394 234.87C978.414 234.87 979.344 234.63 980.184 234.15C981.044 233.65 981.724 232.94 982.224 232.02C982.724 231.08 982.974 229.99 982.974 228.75ZM1005.35 228.15C1005.35 228.67 1005.32 229.22 1005.26 229.8H992.117C992.217 231.42 992.767 232.69 993.767 233.61C994.787 234.51 996.017 234.96 997.457 234.96C998.637 234.96 999.617 234.69 1000.4 234.15C1001.2 233.59 1001.76 232.85 1002.08 231.93H1005.02C1004.58 233.51 1003.7 234.8 1002.38 235.8C1001.06 236.78 999.417 237.27 997.457 237.27C995.897 237.27 994.497 236.92 993.257 236.22C992.037 235.52 991.077 234.53 990.377 233.25C989.677 231.95 989.327 230.45 989.327 228.75C989.327 227.05 989.667 225.56 990.347 224.28C991.027 223 991.977 222.02 993.197 221.34C994.437 220.64 995.857 220.29 997.457 220.29C999.017 220.29 1000.4 220.63 1001.6 221.31C1002.8 221.99 1003.72 222.93 1004.36 224.13C1005.02 225.31 1005.35 226.65 1005.35 228.15ZM1002.53 227.58C1002.53 226.54 1002.3 225.65 1001.84 224.91C1001.38 224.15 1000.75 223.58 999.947 223.2C999.167 222.8 998.297 222.6 997.337 222.6C995.957 222.6 994.777 223.04 993.797 223.92C992.837 224.8 992.287 226.02 992.147 227.58H1002.53ZM1028.72 220.26C1030 220.26 1031.14 220.53 1032.14 221.07C1033.14 221.59 1033.93 222.38 1034.51 223.44C1035.09 224.5 1035.38 225.79 1035.38 227.31V237H1032.68V227.7C1032.68 226.06 1032.27 224.81 1031.45 223.95C1030.65 223.07 1029.56 222.63 1028.18 222.63C1026.76 222.63 1025.63 223.09 1024.79 224.01C1023.95 224.91 1023.53 226.22 1023.53 227.94V237H1020.83V227.7C1020.83 226.06 1020.42 224.81 1019.6 223.95C1018.8 223.07 1017.71 222.63 1016.33 222.63C1014.91 222.63 1013.78 223.09 1012.94 224.01C1012.1 224.91 1011.68 226.22 1011.68 227.94V237H1008.95V220.56H1011.68V222.93C1012.22 222.07 1012.94 221.41 1013.84 220.95C1014.76 220.49 1015.77 220.26 1016.87 220.26C1018.25 220.26 1019.47 220.57 1020.53 221.19C1021.59 221.81 1022.38 222.72 1022.9 223.92C1023.36 222.76 1024.12 221.86 1025.18 221.22C1026.24 220.58 1027.42 220.26 1028.72 220.26ZM1047.03 237.27C1045.49 237.27 1044.09 236.92 1042.83 236.22C1041.59 235.52 1040.61 234.53 1039.89 233.25C1039.19 231.95 1038.84 230.45 1038.84 228.75C1038.84 227.07 1039.2 225.59 1039.92 224.31C1040.66 223.01 1041.66 222.02 1042.92 221.34C1044.18 220.64 1045.59 220.29 1047.15 220.29C1048.71 220.29 1050.12 220.64 1051.38 221.34C1052.64 222.02 1053.63 223 1054.35 224.28C1055.09 225.56 1055.46 227.05 1055.46 228.75C1055.46 230.45 1055.08 231.95 1054.32 233.25C1053.58 234.53 1052.57 235.52 1051.29 236.22C1050.01 236.92 1048.59 237.27 1047.03 237.27ZM1047.03 234.87C1048.01 234.87 1048.93 234.64 1049.79 234.18C1050.65 233.72 1051.34 233.03 1051.86 232.11C1052.4 231.19 1052.67 230.07 1052.67 228.75C1052.67 227.43 1052.41 226.31 1051.89 225.39C1051.37 224.47 1050.69 223.79 1049.85 223.35C1049.01 222.89 1048.1 222.66 1047.12 222.66C1046.12 222.66 1045.2 222.89 1044.36 223.35C1043.54 223.79 1042.88 224.47 1042.38 225.39C1041.88 226.31 1041.63 227.43 1041.63 228.75C1041.63 230.09 1041.87 231.22 1042.35 232.14C1042.85 233.06 1043.51 233.75 1044.33 234.21C1045.15 234.65 1046.05 234.87 1047.03 234.87Z" fill="#007BFF"/>
<path d="M502.969 290.531H437.031C433.159 290.531 430 293.687 430 297.562V344.438C430 348.3 433.145 351.469 437.031 351.469H502.969C506.831 351.469 510 348.324 510 344.438V297.562C510 293.7 506.855 290.531 502.969 290.531ZM501.998 295.219L470.149 327.068L438.025 295.219H501.998ZM434.688 343.467V298.511L457.262 320.892L434.688 343.467ZM438.002 346.781L460.591 324.192L468.506 332.039C469.423 332.948 470.901 332.945 471.814 332.032L479.531 324.315L501.998 346.781H438.002ZM505.312 343.467L482.846 321L505.312 298.533V343.467Z" fill="#007BFF"/>
<g clip-path="url(#clip0)">
<path d="M852.739 339.712L841.574 328.548C837.587 324.56 830.809 326.156 829.214 331.339C828.018 334.927 824.031 336.921 820.442 336.123C812.468 334.13 801.702 323.763 799.708 315.39C798.512 311.801 800.905 307.814 804.493 306.618C809.677 305.023 811.271 298.245 807.284 294.258L796.12 283.093C792.93 280.302 788.146 280.302 785.354 283.093L777.779 290.669C770.203 298.643 778.576 319.776 797.316 338.516C816.056 357.256 837.188 366.028 845.163 358.053L852.739 350.477C855.53 347.288 855.53 342.503 852.739 339.712Z" fill="#007BFF"/>
</g>
<path d="M1156 281C1140.02 281 1127.03 293.997 1127.03 309.973C1127.03 329.799 1152.95 358.905 1154.06 360.135C1155.1 361.289 1156.91 361.287 1157.94 360.135C1159.04 358.905 1184.97 329.799 1184.97 309.973C1184.97 293.997 1171.98 281 1156 281ZM1156 324.55C1147.96 324.55 1141.42 318.011 1141.42 309.973C1141.42 301.935 1147.96 295.396 1156 295.396C1164.04 295.396 1170.58 301.935 1170.58 309.973C1170.58 318.011 1164.04 324.55 1156 324.55Z" fill="#007BFF"/>
<path d="M346.29 416.72C346.29 415.04 346.63 413.57 347.31 412.31C347.99 411.03 348.92 410.04 350.1 409.34C351.3 408.64 352.63 408.29 354.09 408.29C355.53 408.29 356.78 408.6 357.84 409.22C358.9 409.84 359.69 410.62 360.21 411.56V408.56H362.97V425H360.21V421.94C359.67 422.9 358.86 423.7 357.78 424.34C356.72 424.96 355.48 425.27 354.06 425.27C352.6 425.27 351.28 424.91 350.1 424.19C348.92 423.47 347.99 422.46 347.31 421.16C346.63 419.86 346.29 418.38 346.29 416.72ZM360.21 416.75C360.21 415.51 359.96 414.43 359.46 413.51C358.96 412.59 358.28 411.89 357.42 411.41C356.58 410.91 355.65 410.66 354.63 410.66C353.61 410.66 352.68 410.9 351.84 411.38C351 411.86 350.33 412.56 349.83 413.48C349.33 414.4 349.08 415.48 349.08 416.72C349.08 417.98 349.33 419.08 349.83 420.02C350.33 420.94 351 421.65 351.84 422.15C352.68 422.63 353.61 422.87 354.63 422.87C355.65 422.87 356.58 422.63 357.42 422.15C358.28 421.65 358.96 420.94 359.46 420.02C359.96 419.08 360.21 417.99 360.21 416.75ZM370.313 411.62C370.873 410.64 371.693 409.84 372.773 409.22C373.853 408.6 375.083 408.29 376.463 408.29C377.943 408.29 379.273 408.64 380.453 409.34C381.633 410.04 382.563 411.03 383.243 412.31C383.923 413.57 384.263 415.04 384.263 416.72C384.263 418.38 383.923 419.86 383.243 421.16C382.563 422.46 381.623 423.47 380.423 424.19C379.243 424.91 377.923 425.27 376.463 425.27C375.043 425.27 373.793 424.96 372.713 424.34C371.653 423.72 370.853 422.93 370.313 421.97V425H367.583V402.8H370.313V411.62ZM381.473 416.72C381.473 415.48 381.223 414.4 380.723 413.48C380.223 412.56 379.543 411.86 378.683 411.38C377.843 410.9 376.913 410.66 375.893 410.66C374.893 410.66 373.963 410.91 373.103 411.41C372.263 411.89 371.583 412.6 371.063 413.54C370.563 414.46 370.313 415.53 370.313 416.75C370.313 417.99 370.563 419.08 371.063 420.02C371.583 420.94 372.263 421.65 373.103 422.15C373.963 422.63 374.893 422.87 375.893 422.87C376.913 422.87 377.843 422.63 378.683 422.15C379.543 421.65 380.223 420.94 380.723 420.02C381.223 419.08 381.473 417.98 381.473 416.72ZM386.837 416.75C386.837 415.05 387.177 413.57 387.857 412.31C388.537 411.03 389.477 410.04 390.677 409.34C391.897 408.64 393.287 408.29 394.847 408.29C396.867 408.29 398.527 408.78 399.827 409.76C401.147 410.74 402.017 412.1 402.437 413.84H399.497C399.217 412.84 398.667 412.05 397.847 411.47C397.047 410.89 396.047 410.6 394.847 410.6C393.287 410.6 392.027 411.14 391.067 412.22C390.107 413.28 389.627 414.79 389.627 416.75C389.627 418.73 390.107 420.26 391.067 421.34C392.027 422.42 393.287 422.96 394.847 422.96C396.047 422.96 397.047 422.68 397.847 422.12C398.647 421.56 399.197 420.76 399.497 419.72H402.437C401.997 421.4 401.117 422.75 399.797 423.77C398.477 424.77 396.827 425.27 394.847 425.27C393.287 425.27 391.897 424.92 390.677 424.22C389.477 423.52 388.537 422.53 387.857 421.25C387.177 419.97 386.837 418.47 386.837 416.75ZM421.08 405.77C423.3 405.77 425.23 406.19 426.87 407.03C428.51 407.87 429.77 409.05 430.65 410.57C431.53 412.07 431.97 413.81 431.97 415.79C431.97 417.37 431.71 418.89 431.19 420.35C430.67 421.79 429.91 422.96 428.91 423.86C427.93 424.76 426.78 425.21 425.46 425.21C424.46 425.21 423.69 424.96 423.15 424.46C422.61 423.96 422.3 423.28 422.22 422.42C421.6 423.28 420.81 423.96 419.85 424.46C418.91 424.96 417.91 425.21 416.85 425.21C415.33 425.21 414.13 424.75 413.25 423.83C412.39 422.89 411.96 421.63 411.96 420.05C411.96 418.55 412.27 417.15 412.89 415.85C413.53 414.55 414.41 413.51 415.53 412.73C416.65 411.93 417.92 411.53 419.34 411.53C421.24 411.53 422.52 412.25 423.18 413.69L423.51 411.83H425.88L424.38 420.5C424.32 420.88 424.29 421.23 424.29 421.55C424.29 422.75 424.82 423.35 425.88 423.35C426.68 423.35 427.37 422.97 427.95 422.21C428.55 421.45 429 420.5 429.3 419.36C429.6 418.2 429.75 417.06 429.75 415.94C429.75 413.32 428.96 411.29 427.38 409.85C425.82 408.41 423.61 407.69 420.75 407.69C418.37 407.69 416.22 408.27 414.3 409.43C412.4 410.57 410.91 412.14 409.83 414.14C408.75 416.14 408.21 418.35 408.21 420.77C408.19 423.41 408.98 425.44 410.58 426.86C412.18 428.3 414.4 429.02 417.24 429.02C419.12 429.02 420.78 428.68 422.22 428L422.58 429.86C420.8 430.6 418.84 430.97 416.7 430.97C414.56 430.97 412.67 430.56 411.03 429.74C409.41 428.94 408.15 427.78 407.25 426.26C406.37 424.76 405.93 423.01 405.93 421.01C405.93 418.19 406.58 415.62 407.88 413.3C409.18 410.96 410.98 409.12 413.28 407.78C415.6 406.44 418.2 405.77 421.08 405.77ZM417.66 423.08C418.56 423.08 419.39 422.82 420.15 422.3C420.91 421.76 421.51 421.04 421.95 420.14C422.39 419.22 422.61 418.22 422.61 417.14C422.61 416.1 422.32 415.26 421.74 414.62C421.18 413.96 420.38 413.63 419.34 413.63C418.38 413.63 417.53 413.92 416.79 414.5C416.07 415.06 415.51 415.81 415.11 416.75C414.71 417.67 414.51 418.63 414.51 419.63C414.51 420.69 414.78 421.53 415.32 422.15C415.86 422.77 416.64 423.08 417.66 423.08ZM443.24 408.29C444.66 408.29 445.9 408.6 446.96 409.22C448.04 409.84 448.84 410.62 449.36 411.56V408.56H452.12V425.36C452.12 426.86 451.8 428.19 451.16 429.35C450.52 430.53 449.6 431.45 448.4 432.11C447.22 432.77 445.84 433.1 444.26 433.1C442.1 433.1 440.3 432.59 438.86 431.57C437.42 430.55 436.57 429.16 436.31 427.4H439.01C439.31 428.4 439.93 429.2 440.87 429.8C441.81 430.42 442.94 430.73 444.26 430.73C445.76 430.73 446.98 430.26 447.92 429.32C448.88 428.38 449.36 427.06 449.36 425.36V421.91C448.82 422.87 448.02 423.67 446.96 424.31C445.9 424.95 444.66 425.27 443.24 425.27C441.78 425.27 440.45 424.91 439.25 424.19C438.07 423.47 437.14 422.46 436.46 421.16C435.78 419.86 435.44 418.38 435.44 416.72C435.44 415.04 435.78 413.57 436.46 412.31C437.14 411.03 438.07 410.04 439.25 409.34C440.45 408.64 441.78 408.29 443.24 408.29ZM449.36 416.75C449.36 415.51 449.11 414.43 448.61 413.51C448.11 412.59 447.43 411.89 446.57 411.41C445.73 410.91 444.8 410.66 443.78 410.66C442.76 410.66 441.83 410.9 440.99 411.38C440.15 411.86 439.48 412.56 438.98 413.48C438.48 414.4 438.23 415.48 438.23 416.72C438.23 417.98 438.48 419.08 438.98 420.02C439.48 420.94 440.15 421.65 440.99 422.15C441.83 422.63 442.76 422.87 443.78 422.87C444.8 422.87 445.73 422.63 446.57 422.15C447.43 421.65 448.11 420.94 448.61 420.02C449.11 419.08 449.36 417.99 449.36 416.75ZM476.504 408.26C477.784 408.26 478.924 408.53 479.924 409.07C480.924 409.59 481.714 410.38 482.294 411.44C482.874 412.5 483.164 413.79 483.164 415.31V425H480.464V415.7C480.464 414.06 480.054 412.81 479.234 411.95C478.434 411.07 477.344 410.63 475.964 410.63C474.544 410.63 473.414 411.09 472.574 412.01C471.734 412.91 471.314 414.22 471.314 415.94V425H468.614V415.7C468.614 414.06 468.204 412.81 467.384 411.95C466.584 411.07 465.494 410.63 464.114 410.63C462.694 410.63 461.564 411.09 460.724 412.01C459.884 412.91 459.464 414.22 459.464 415.94V425H456.734V408.56H459.464V410.93C460.004 410.07 460.724 409.41 461.624 408.95C462.544 408.49 463.554 408.26 464.654 408.26C466.034 408.26 467.254 408.57 468.314 409.19C469.374 409.81 470.164 410.72 470.684 411.92C471.144 410.76 471.904 409.86 472.964 409.22C474.024 408.58 475.204 408.26 476.504 408.26ZM486.622 416.72C486.622 415.04 486.962 413.57 487.642 412.31C488.322 411.03 489.252 410.04 490.432 409.34C491.632 408.64 492.962 408.29 494.422 408.29C495.862 408.29 497.112 408.6 498.172 409.22C499.232 409.84 500.022 410.62 500.542 411.56V408.56H503.302V425H500.542V421.94C500.002 422.9 499.192 423.7 498.112 424.34C497.052 424.96 495.812 425.27 494.392 425.27C492.932 425.27 491.612 424.91 490.432 424.19C489.252 423.47 488.322 422.46 487.642 421.16C486.962 419.86 486.622 418.38 486.622 416.72ZM500.542 416.75C500.542 415.51 500.292 414.43 499.792 413.51C499.292 412.59 498.612 411.89 497.752 411.41C496.912 410.91 495.982 410.66 494.962 410.66C493.942 410.66 493.012 410.9 492.172 411.38C491.332 411.86 490.662 412.56 490.162 413.48C489.662 414.4 489.412 415.48 489.412 416.72C489.412 417.98 489.662 419.08 490.162 420.02C490.662 420.94 491.332 421.65 492.172 422.15C493.012 422.63 493.942 422.87 494.962 422.87C495.982 422.87 496.912 422.63 497.752 422.15C498.612 421.65 499.292 420.94 499.792 420.02C500.292 419.08 500.542 417.99 500.542 416.75ZM509.325 405.89C508.805 405.89 508.365 405.71 508.005 405.35C507.645 404.99 507.465 404.55 507.465 404.03C507.465 403.51 507.645 403.07 508.005 402.71C508.365 402.35 508.805 402.17 509.325 402.17C509.825 402.17 510.245 402.35 510.585 402.71C510.945 403.07 511.125 403.51 511.125 404.03C511.125 404.55 510.945 404.99 510.585 405.35C510.245 405.71 509.825 405.89 509.325 405.89ZM510.645 408.56V425H507.915V408.56H510.645ZM518.028 402.8V425H515.298V402.8H518.028ZM523.551 425.18C523.031 425.18 522.591 425 522.231 424.64C521.871 424.28 521.691 423.84 521.691 423.32C521.691 422.8 521.871 422.36 522.231 422C522.591 421.64 523.031 421.46 523.551 421.46C524.051 421.46 524.471 421.64 524.811 422C525.171 422.36 525.351 422.8 525.351 423.32C525.351 423.84 525.171 424.28 524.811 424.64C524.471 425 524.051 425.18 523.551 425.18ZM527.96 416.75C527.96 415.05 528.3 413.57 528.98 412.31C529.66 411.03 530.6 410.04 531.8 409.34C533.02 408.64 534.41 408.29 535.97 408.29C537.99 408.29 539.65 408.78 540.95 409.76C542.27 410.74 543.14 412.1 543.56 413.84H540.62C540.34 412.84 539.79 412.05 538.97 411.47C538.17 410.89 537.17 410.6 535.97 410.6C534.41 410.6 533.15 411.14 532.19 412.22C531.23 413.28 530.75 414.79 530.75 416.75C530.75 418.73 531.23 420.26 532.19 421.34C533.15 422.42 534.41 422.96 535.97 422.96C537.17 422.96 538.17 422.68 538.97 422.12C539.77 421.56 540.32 420.76 540.62 419.72H543.56C543.12 421.4 542.24 422.75 540.92 423.77C539.6 424.77 537.95 425.27 535.97 425.27C534.41 425.27 533.02 424.92 531.8 424.22C530.6 423.52 529.66 422.53 528.98 421.25C528.3 419.97 527.96 418.47 527.96 416.75ZM554.373 425.27C552.833 425.27 551.433 424.92 550.173 424.22C548.933 423.52 547.953 422.53 547.233 421.25C546.533 419.95 546.183 418.45 546.183 416.75C546.183 415.07 546.543 413.59 547.263 412.31C548.003 411.01 549.003 410.02 550.263 409.34C551.523 408.64 552.933 408.29 554.493 408.29C556.053 408.29 557.463 408.64 558.723 409.34C559.983 410.02 560.973 411 561.693 412.28C562.433 413.56 562.803 415.05 562.803 416.75C562.803 418.45 562.423 419.95 561.663 421.25C560.923 422.53 559.913 423.52 558.633 424.22C557.353 424.92 555.933 425.27 554.373 425.27ZM554.373 422.87C555.353 422.87 556.273 422.64 557.133 422.18C557.993 421.72 558.683 421.03 559.203 420.11C559.743 419.19 560.013 418.07 560.013 416.75C560.013 415.43 559.753 414.31 559.233 413.39C558.713 412.47 558.033 411.79 557.193 411.35C556.353 410.89 555.443 410.66 554.463 410.66C553.463 410.66 552.543 410.89 551.703 411.35C550.883 411.79 550.223 412.47 549.723 413.39C549.223 414.31 548.973 415.43 548.973 416.75C548.973 418.09 549.213 419.22 549.693 420.14C550.193 421.06 550.853 421.75 551.673 422.21C552.493 422.65 553.393 422.87 554.373 422.87ZM586.162 408.26C587.442 408.26 588.582 408.53 589.582 409.07C590.582 409.59 591.372 410.38 591.952 411.44C592.532 412.5 592.822 413.79 592.822 415.31V425H590.122V415.7C590.122 414.06 589.712 412.81 588.892 411.95C588.092 411.07 587.002 410.63 585.622 410.63C584.202 410.63 583.072 411.09 582.232 412.01C581.392 412.91 580.972 414.22 580.972 415.94V425H578.272V415.7C578.272 414.06 577.862 412.81 577.042 411.95C576.242 411.07 575.152 410.63 573.772 410.63C572.352 410.63 571.222 411.09 570.382 412.01C569.542 412.91 569.122 414.22 569.122 415.94V425H566.392V408.56H569.122V410.93C569.662 410.07 570.382 409.41 571.282 408.95C572.202 408.49 573.212 408.26 574.312 408.26C575.692 408.26 576.912 408.57 577.972 409.19C579.032 409.81 579.822 410.72 580.342 411.92C580.802 410.76 581.562 409.86 582.622 409.22C583.682 408.58 584.862 408.26 586.162 408.26Z" fill="#007BFF"/>
<path d="M757.14 409.8V407.31H762.78V429H760.02V409.8H757.14ZM767.139 426.81C769.679 424.77 771.669 423.1 773.109 421.8C774.549 420.48 775.759 419.11 776.739 417.69C777.739 416.25 778.239 414.84 778.239 413.46C778.239 412.16 777.919 411.14 777.279 410.4C776.659 409.64 775.649 409.26 774.249 409.26C772.889 409.26 771.829 409.69 771.069 410.55C770.329 411.39 769.929 412.52 769.869 413.94H767.229C767.309 411.7 767.989 409.97 769.269 408.75C770.549 407.53 772.199 406.92 774.219 406.92C776.279 406.92 777.909 407.49 779.109 408.63C780.329 409.77 780.939 411.34 780.939 413.34C780.939 415 780.439 416.62 779.439 418.2C778.459 419.76 777.339 421.14 776.079 422.34C774.819 423.52 773.209 424.9 771.249 426.48H781.569V428.76H767.139V426.81ZM784.665 412.77C784.805 410.93 785.515 409.49 786.795 408.45C788.075 407.41 789.735 406.89 791.775 406.89C793.135 406.89 794.305 407.14 795.285 407.64C796.285 408.12 797.035 408.78 797.535 409.62C798.055 410.46 798.315 411.41 798.315 412.47C798.315 413.71 797.955 414.78 797.235 415.68C796.535 416.58 795.615 417.16 794.475 417.42V417.57C795.775 417.89 796.805 418.52 797.565 419.46C798.325 420.4 798.705 421.63 798.705 423.15C798.705 424.29 798.445 425.32 797.925 426.24C797.405 427.14 796.625 427.85 795.585 428.37C794.545 428.89 793.295 429.15 791.835 429.15C789.715 429.15 787.975 428.6 786.615 427.5C785.255 426.38 784.495 424.8 784.335 422.76H786.975C787.115 423.96 787.605 424.94 788.445 425.7C789.285 426.46 790.405 426.84 791.805 426.84C793.205 426.84 794.265 426.48 794.985 425.76C795.725 425.02 796.095 424.07 796.095 422.91C796.095 421.41 795.595 420.33 794.595 419.67C793.595 419.01 792.085 418.68 790.065 418.68H789.375V416.4H790.095C791.935 416.38 793.325 416.08 794.265 415.5C795.205 414.9 795.675 413.98 795.675 412.74C795.675 411.68 795.325 410.83 794.625 410.19C793.945 409.55 792.965 409.23 791.685 409.23C790.445 409.23 789.445 409.55 788.685 410.19C787.925 410.83 787.475 411.69 787.335 412.77H784.665ZM814.241 416.85V419.16H802.271V416.85H814.241ZM818.255 424.17V422.1L828.785 407.52H832.055V421.8H835.055V424.17H832.055V429H829.355V424.17H818.255ZM829.475 410.37L821.405 421.8H829.475V410.37ZM851.612 409.68H841.082V416.52C841.542 415.88 842.222 415.36 843.122 414.96C844.022 414.54 844.992 414.33 846.032 414.33C847.692 414.33 849.042 414.68 850.082 415.38C851.122 416.06 851.862 416.95 852.302 418.05C852.762 419.13 852.992 420.28 852.992 421.5C852.992 422.94 852.722 424.23 852.182 425.37C851.642 426.51 850.812 427.41 849.692 428.07C848.592 428.73 847.222 429.06 845.582 429.06C843.482 429.06 841.782 428.52 840.482 427.44C839.182 426.36 838.392 424.92 838.112 423.12H840.782C841.042 424.26 841.592 425.15 842.432 425.79C843.272 426.43 844.332 426.75 845.612 426.75C847.192 426.75 848.382 426.28 849.182 425.34C849.982 424.38 850.382 423.12 850.382 421.56C850.382 420 849.982 418.8 849.182 417.96C848.382 417.1 847.202 416.67 845.642 416.67C844.582 416.67 843.652 416.93 842.852 417.45C842.072 417.95 841.502 418.64 841.142 419.52H838.562V407.28H851.612V409.68ZM868.71 412.47C868.27 410.25 866.9 409.14 864.6 409.14C862.82 409.14 861.49 409.83 860.61 411.21C859.73 412.57 859.3 414.82 859.32 417.96C859.78 416.92 860.54 416.11 861.6 415.53C862.68 414.93 863.88 414.63 865.2 414.63C867.26 414.63 868.9 415.27 870.12 416.55C871.36 417.83 871.98 419.6 871.98 421.86C871.98 423.22 871.71 424.44 871.17 425.52C870.65 426.6 869.85 427.46 868.77 428.1C867.71 428.74 866.42 429.06 864.9 429.06C862.84 429.06 861.23 428.6 860.07 427.68C858.91 426.76 858.1 425.49 857.64 423.87C857.18 422.25 856.95 420.25 856.95 417.87C856.95 410.53 859.51 406.86 864.63 406.86C866.59 406.86 868.13 407.39 869.25 408.45C870.37 409.51 871.03 410.85 871.23 412.47H868.71ZM864.63 416.94C863.77 416.94 862.96 417.12 862.2 417.48C861.44 417.82 860.82 418.35 860.34 419.07C859.88 419.77 859.65 420.63 859.65 421.65C859.65 423.17 860.09 424.41 860.97 425.37C861.85 426.31 863.11 426.78 864.75 426.78C866.15 426.78 867.26 426.35 868.08 425.49C868.92 424.61 869.34 423.43 869.34 421.95C869.34 420.39 868.94 419.17 868.14 418.29C867.34 417.39 866.17 416.94 864.63 416.94Z" fill="#007BFF"/>
<path d="M1111.67 430.35H1102.55L1100.87 435H1097.99L1105.55 414.21H1108.7L1116.23 435H1113.35L1111.67 430.35ZM1110.89 428.13L1107.11 417.57L1103.33 428.13H1110.89ZM1129.99 424.23C1130.75 424.35 1131.44 424.66 1132.06 425.16C1132.7 425.66 1133.2 426.28 1133.56 427.02C1133.94 427.76 1134.13 428.55 1134.13 429.39C1134.13 430.45 1133.86 431.41 1133.32 432.27C1132.78 433.11 1131.99 433.78 1130.95 434.28C1129.93 434.76 1128.72 435 1127.32 435H1119.52V414.09H1127.02C1128.44 414.09 1129.65 414.33 1130.65 414.81C1131.65 415.27 1132.4 415.9 1132.9 416.7C1133.4 417.5 1133.65 418.4 1133.65 419.4C1133.65 420.64 1133.31 421.67 1132.63 422.49C1131.97 423.29 1131.09 423.87 1129.99 424.23ZM1122.25 423.12H1126.84C1128.12 423.12 1129.11 422.82 1129.81 422.22C1130.51 421.62 1130.86 420.79 1130.86 419.73C1130.86 418.67 1130.51 417.84 1129.81 417.24C1129.11 416.64 1128.1 416.34 1126.78 416.34H1122.25V423.12ZM1127.08 432.75C1128.44 432.75 1129.5 432.43 1130.26 431.79C1131.02 431.15 1131.4 430.26 1131.4 429.12C1131.4 427.96 1131 427.05 1130.2 426.39C1129.4 425.71 1128.33 425.37 1126.99 425.37H1122.25V432.75H1127.08ZM1136.9 424.53C1136.9 422.49 1137.36 420.66 1138.28 419.04C1139.2 417.4 1140.45 416.12 1142.03 415.2C1143.63 414.28 1145.4 413.82 1147.34 413.82C1149.62 413.82 1151.61 414.37 1153.31 415.47C1155.01 416.57 1156.25 418.13 1157.03 420.15H1153.76C1153.18 418.89 1152.34 417.92 1151.24 417.24C1150.16 416.56 1148.86 416.22 1147.34 416.22C1145.88 416.22 1144.57 416.56 1143.41 417.24C1142.25 417.92 1141.34 418.89 1140.68 420.15C1140.02 421.39 1139.69 422.85 1139.69 424.53C1139.69 426.19 1140.02 427.65 1140.68 428.91C1141.34 430.15 1142.25 431.11 1143.41 431.79C1144.57 432.47 1145.88 432.81 1147.34 432.81C1148.86 432.81 1150.16 432.48 1151.24 431.82C1152.34 431.14 1153.18 430.17 1153.76 428.91H1157.03C1156.25 430.91 1155.01 432.46 1153.31 433.56C1151.61 434.64 1149.62 435.18 1147.34 435.18C1145.4 435.18 1143.63 434.73 1142.03 433.83C1140.45 432.91 1139.2 431.64 1138.28 430.02C1137.36 428.4 1136.9 426.57 1136.9 424.53ZM1163.92 431.22L1160.56 439.29H1158.73L1160.92 431.22H1163.92ZM1173.55 414.09C1175.83 414.09 1177.8 414.52 1179.46 415.38C1181.14 416.22 1182.42 417.43 1183.3 419.01C1184.2 420.59 1184.65 422.45 1184.65 424.59C1184.65 426.73 1184.2 428.59 1183.3 430.17C1182.42 431.73 1181.14 432.93 1179.46 433.77C1177.8 434.59 1175.83 435 1173.55 435H1167.04V414.09H1173.55ZM1173.55 432.75C1176.25 432.75 1178.31 432.04 1179.73 430.62C1181.15 429.18 1181.86 427.17 1181.86 424.59C1181.86 421.99 1181.14 419.96 1179.7 418.5C1178.28 417.04 1176.23 416.31 1173.55 416.31H1169.77V432.75H1173.55ZM1190.99 416.31V423.3H1198.61V425.55H1190.99V432.75H1199.51V435H1188.26V414.06H1199.51V416.31H1190.99ZM1215.46 414.09V416.31H1206.37V423.36H1213.75V425.58H1206.37V435H1203.64V414.09H1215.46Z" fill="#007BFF"/>
<rect x="376.5" y="483.5" width="413" height="79" rx="10.5" stroke="#007BFF" stroke-width="3"/>
<rect x="376.5" y="611.5" width="413" height="79" rx="10.5" stroke="#007BFF" stroke-width="3"/>
<rect x="842.5" y="483.5" width="411" height="207" rx="10.5" stroke="#007BFF" stroke-width="3"/>
<path d="M397.64 517.1C396.973 517.1 396.367 517.18 395.82 517.34C395.273 517.487 394.78 517.66 394.34 517.86L393.6 516.36C394.147 516.093 394.773 515.887 395.48 515.74C396.187 515.593 396.913 515.52 397.66 515.52C399.193 515.52 400.453 515.827 401.44 516.44C402.44 517.053 403.187 517.9 403.68 518.98C404.173 520.047 404.42 521.26 404.42 522.62C404.42 524.18 404.167 525.527 403.66 526.66C403.153 527.793 402.387 528.667 401.36 529.28C400.347 529.893 399.067 530.2 397.52 530.2C396.693 530.2 395.993 530.153 395.42 530.06C394.847 529.967 394.28 529.82 393.72 529.62V528.06C394.28 528.207 394.847 528.34 395.42 528.46C395.993 528.567 396.6 528.62 397.24 528.62C398.96 528.62 400.253 528.167 401.12 527.26C402 526.34 402.467 525.027 402.52 523.32H395.58V521.74H402.5C402.367 520.273 401.867 519.133 401 518.32C400.147 517.507 399.027 517.1 397.64 517.1ZM414.756 520.76H411.256V530H409.516V520.76H406.056V519.28H414.756V520.76ZM425.993 524.62C425.993 526.393 425.539 527.767 424.633 528.74C423.739 529.713 422.526 530.2 420.993 530.2C420.046 530.2 419.199 529.987 418.453 529.56C417.719 529.12 417.139 528.487 416.713 527.66C416.286 526.82 416.073 525.807 416.073 524.62C416.073 522.847 416.519 521.48 417.413 520.52C418.306 519.56 419.519 519.08 421.053 519.08C422.026 519.08 422.879 519.3 423.613 519.74C424.359 520.167 424.939 520.793 425.353 521.62C425.779 522.433 425.993 523.433 425.993 524.62ZM417.893 524.62C417.893 525.887 418.139 526.893 418.633 527.64C419.139 528.373 419.939 528.74 421.033 528.74C422.113 528.74 422.906 528.373 423.413 527.64C423.919 526.893 424.173 525.887 424.173 524.62C424.173 523.353 423.919 522.36 423.413 521.64C422.906 520.92 422.106 520.56 421.013 520.56C419.919 520.56 419.126 520.92 418.633 521.64C418.139 522.36 417.893 523.353 417.893 524.62ZM443.174 519.28V530H441.414V520.78H435.874V530H434.114V519.28H443.174ZM450.735 519.08C451.655 519.08 452.441 519.28 453.095 519.68C453.761 520.08 454.268 520.647 454.615 521.38C454.975 522.1 455.155 522.947 455.155 523.92V524.98H447.815C447.841 526.193 448.148 527.12 448.735 527.76C449.335 528.387 450.168 528.7 451.235 528.7C451.915 528.7 452.515 528.64 453.035 528.52C453.568 528.387 454.115 528.2 454.675 527.96V529.5C454.128 529.74 453.588 529.913 453.055 530.02C452.521 530.14 451.888 530.2 451.155 530.2C450.141 530.2 449.241 529.993 448.455 529.58C447.681 529.167 447.075 528.553 446.635 527.74C446.208 526.913 445.995 525.907 445.995 524.72C445.995 523.547 446.188 522.54 446.575 521.7C446.975 520.86 447.528 520.213 448.235 519.76C448.955 519.307 449.788 519.08 450.735 519.08ZM450.715 520.52C449.875 520.52 449.208 520.793 448.715 521.34C448.235 521.873 447.948 522.62 447.855 523.58H453.315C453.301 522.673 453.088 521.94 452.675 521.38C452.261 520.807 451.608 520.52 450.715 520.52ZM462.984 519.08C464.304 519.08 465.364 519.54 466.164 520.46C466.977 521.38 467.384 522.767 467.384 524.62C467.384 526.447 466.977 527.833 466.164 528.78C465.364 529.727 464.297 530.2 462.964 530.2C462.137 530.2 461.45 530.047 460.904 529.74C460.37 529.42 459.95 529.053 459.644 528.64H459.524C459.55 528.867 459.577 529.153 459.604 529.5C459.63 529.847 459.644 530.147 459.644 530.4V534.8H457.884V519.28H459.324L459.564 520.74H459.644C459.964 520.273 460.384 519.88 460.904 519.56C461.424 519.24 462.117 519.08 462.984 519.08ZM462.664 520.56C461.57 520.56 460.797 520.867 460.344 521.48C459.904 522.093 459.67 523.027 459.644 524.28V524.62C459.644 525.94 459.857 526.96 460.284 527.68C460.724 528.387 461.53 528.74 462.704 528.74C463.357 528.74 463.89 528.56 464.304 528.2C464.73 527.84 465.044 527.353 465.244 526.74C465.457 526.113 465.564 525.4 465.564 524.6C465.564 523.373 465.324 522.393 464.844 521.66C464.377 520.927 463.65 520.56 462.664 520.56ZM478.808 521.98C478.808 522.647 478.608 523.167 478.208 523.54C477.808 523.913 477.295 524.167 476.668 524.3V524.38C477.335 524.473 477.915 524.713 478.408 525.1C478.902 525.473 479.148 526.06 479.148 526.86C479.148 527.767 478.808 528.52 478.128 529.12C477.462 529.707 476.355 530 474.808 530H470.188V519.28H474.788C475.548 519.28 476.228 519.367 476.828 519.54C477.442 519.7 477.922 519.98 478.268 520.38C478.628 520.767 478.808 521.3 478.808 521.98ZM477.028 522.2C477.028 521.693 476.842 521.327 476.468 521.1C476.108 520.86 475.515 520.74 474.688 520.74H471.948V523.68H474.368C476.142 523.68 477.028 523.187 477.028 522.2ZM477.328 526.86C477.328 526.247 477.095 525.807 476.628 525.54C476.162 525.273 475.475 525.14 474.568 525.14H471.948V528.58H474.608C475.488 528.58 476.162 528.453 476.628 528.2C477.095 527.933 477.328 527.487 477.328 526.86ZM481.712 530V519.28H483.472V523.68H486.252C487.638 523.68 488.665 523.933 489.332 524.44C489.998 524.947 490.332 525.707 490.332 526.72C490.332 527.72 490.005 528.52 489.352 529.12C488.698 529.707 487.638 530 486.172 530H481.712ZM492.112 530V519.28H493.872V530H492.112ZM486.012 528.58C486.772 528.58 487.392 528.453 487.872 528.2C488.352 527.933 488.592 527.473 488.592 526.82C488.592 526.167 488.372 525.727 487.932 525.5C487.492 525.26 486.858 525.14 486.032 525.14H483.472V528.58H486.012ZM505.958 514.84C505.865 515.84 505.525 516.6 504.938 517.12C504.365 517.627 503.445 517.88 502.178 517.88C500.871 517.88 499.945 517.627 499.398 517.12C498.865 516.613 498.565 515.853 498.498 514.84H500.138C500.205 515.56 500.391 516.047 500.698 516.3C501.018 516.54 501.525 516.66 502.218 516.66C502.831 516.66 503.311 516.533 503.658 516.28C504.018 516.013 504.231 515.533 504.298 514.84H505.958ZM498.938 525.82C498.938 525.98 498.931 526.22 498.918 526.54C498.905 526.86 498.885 527.18 498.858 527.5C498.845 527.82 498.831 528.073 498.818 528.26L504.558 519.28H506.718V530H505.078V523.68C505.078 523.467 505.078 523.187 505.078 522.84C505.091 522.493 505.105 522.153 505.118 521.82C505.131 521.473 505.145 521.213 505.158 521.04L499.458 530H497.278V519.28H498.938V525.82ZM524.082 521.98C524.082 522.647 523.882 523.167 523.482 523.54C523.082 523.913 522.568 524.167 521.942 524.3V524.38C522.608 524.473 523.188 524.713 523.682 525.1C524.175 525.473 524.422 526.06 524.422 526.86C524.422 527.767 524.082 528.52 523.402 529.12C522.735 529.707 521.628 530 520.082 530H515.462V519.28H520.062C520.822 519.28 521.502 519.367 522.102 519.54C522.715 519.7 523.195 519.98 523.542 520.38C523.902 520.767 524.082 521.3 524.082 521.98ZM522.302 522.2C522.302 521.693 522.115 521.327 521.742 521.1C521.382 520.86 520.788 520.74 519.962 520.74H517.222V523.68H519.642C521.415 523.68 522.302 523.187 522.302 522.2ZM522.602 526.86C522.602 526.247 522.368 525.807 521.902 525.54C521.435 525.273 520.748 525.14 519.842 525.14H517.222V528.58H519.882C520.762 528.58 521.435 528.453 521.902 528.2C522.368 527.933 522.602 527.487 522.602 526.86ZM528.645 525.82C528.645 525.98 528.638 526.22 528.625 526.54C528.612 526.86 528.592 527.18 528.565 527.5C528.552 527.82 528.538 528.073 528.525 528.26L534.265 519.28H536.425V530H534.785V523.68C534.785 523.467 534.785 523.187 534.785 522.84C534.798 522.493 534.812 522.153 534.825 521.82C534.838 521.473 534.852 521.213 534.865 521.04L529.165 530H526.985V519.28H528.645V525.82ZM547.797 519.28V528.52H549.357V533.72H547.657V530H540.197V533.72H538.517V528.52H539.377C540.297 527.253 540.983 525.813 541.437 524.2C541.903 522.573 542.143 520.933 542.157 519.28H547.797ZM543.717 520.66C543.663 521.567 543.523 522.507 543.297 523.48C543.07 524.44 542.777 525.36 542.417 526.24C542.07 527.12 541.663 527.88 541.197 528.52H546.097V520.66H543.717ZM564.318 519.28L559.898 524.48L564.698 530H562.698L558.058 524.56V530H556.418V524.56L551.778 530H549.778L554.578 524.48L550.158 519.28H552.078L556.418 524.48V519.28H558.058V524.48L562.418 519.28H564.318ZM570.207 519.08C571.127 519.08 571.914 519.28 572.567 519.68C573.234 520.08 573.741 520.647 574.087 521.38C574.447 522.1 574.627 522.947 574.627 523.92V524.98H567.287C567.314 526.193 567.621 527.12 568.207 527.76C568.807 528.387 569.641 528.7 570.707 528.7C571.387 528.7 571.987 528.64 572.507 528.52C573.041 528.387 573.587 528.2 574.147 527.96V529.5C573.601 529.74 573.061 529.913 572.527 530.02C571.994 530.14 571.361 530.2 570.627 530.2C569.614 530.2 568.714 529.993 567.927 529.58C567.154 529.167 566.547 528.553 566.107 527.74C565.681 526.913 565.467 525.907 565.467 524.72C565.467 523.547 565.661 522.54 566.047 521.7C566.447 520.86 567.001 520.213 567.707 519.76C568.427 519.307 569.261 519.08 570.207 519.08ZM570.187 520.52C569.347 520.52 568.681 520.793 568.187 521.34C567.707 521.873 567.421 522.62 567.327 523.58H572.787C572.774 522.673 572.561 521.94 572.147 521.38C571.734 520.807 571.081 520.52 570.187 520.52ZM584.756 520.76H581.256V530H579.516V520.76H576.056V519.28H584.756V520.76Z" fill="black" fill-opacity="0.5"/>
<path d="M397.64 645.1C396.973 645.1 396.367 645.18 395.82 645.34C395.273 645.487 394.78 645.66 394.34 645.86L393.6 644.36C394.147 644.093 394.773 643.887 395.48 643.74C396.187 643.593 396.913 643.52 397.66 643.52C399.193 643.52 400.453 643.827 401.44 644.44C402.44 645.053 403.187 645.9 403.68 646.98C404.173 648.047 404.42 649.26 404.42 650.62C404.42 652.18 404.167 653.527 403.66 654.66C403.153 655.793 402.387 656.667 401.36 657.28C400.347 657.893 399.067 658.2 397.52 658.2C396.693 658.2 395.993 658.153 395.42 658.06C394.847 657.967 394.28 657.82 393.72 657.62V656.06C394.28 656.207 394.847 656.34 395.42 656.46C395.993 656.567 396.6 656.62 397.24 656.62C398.96 656.62 400.253 656.167 401.12 655.26C402 654.34 402.467 653.027 402.52 651.32H395.58V649.74H402.5C402.367 648.273 401.867 647.133 401 646.32C400.147 645.507 399.027 645.1 397.64 645.1ZM414.756 648.76H411.256V658H409.516V648.76H406.056V647.28H414.756V648.76ZM425.993 652.62C425.993 654.393 425.539 655.767 424.633 656.74C423.739 657.713 422.526 658.2 420.993 658.2C420.046 658.2 419.199 657.987 418.453 657.56C417.719 657.12 417.139 656.487 416.713 655.66C416.286 654.82 416.073 653.807 416.073 652.62C416.073 650.847 416.519 649.48 417.413 648.52C418.306 647.56 419.519 647.08 421.053 647.08C422.026 647.08 422.879 647.3 423.613 647.74C424.359 648.167 424.939 648.793 425.353 649.62C425.779 650.433 425.993 651.433 425.993 652.62ZM417.893 652.62C417.893 653.887 418.139 654.893 418.633 655.64C419.139 656.373 419.939 656.74 421.033 656.74C422.113 656.74 422.906 656.373 423.413 655.64C423.919 654.893 424.173 653.887 424.173 652.62C424.173 651.353 423.919 650.36 423.413 649.64C422.906 648.92 422.106 648.56 421.013 648.56C419.919 648.56 419.126 648.92 418.633 649.64C418.139 650.36 417.893 651.353 417.893 652.62ZM442.734 649.98C442.734 650.647 442.534 651.167 442.134 651.54C441.734 651.913 441.221 652.167 440.594 652.3V652.38C441.261 652.473 441.841 652.713 442.334 653.1C442.827 653.473 443.074 654.06 443.074 654.86C443.074 655.767 442.734 656.52 442.054 657.12C441.387 657.707 440.281 658 438.734 658H434.114V647.28H438.714C439.474 647.28 440.154 647.367 440.754 647.54C441.367 647.7 441.847 647.98 442.194 648.38C442.554 648.767 442.734 649.3 442.734 649.98ZM440.954 650.2C440.954 649.693 440.767 649.327 440.394 649.1C440.034 648.86 439.441 648.74 438.614 648.74H435.874V651.68H438.294C440.067 651.68 440.954 651.187 440.954 650.2ZM441.254 654.86C441.254 654.247 441.021 653.807 440.554 653.54C440.087 653.273 439.401 653.14 438.494 653.14H435.874V656.58H438.534C439.414 656.58 440.087 656.453 440.554 656.2C441.021 655.933 441.254 655.487 441.254 654.86ZM453.038 648.76H449.538V658H447.798V648.76H444.338V647.28H453.038V648.76ZM464.274 652.62C464.274 654.393 463.821 655.767 462.914 656.74C462.021 657.713 460.807 658.2 459.274 658.2C458.327 658.2 457.481 657.987 456.734 657.56C456.001 657.12 455.421 656.487 454.994 655.66C454.567 654.82 454.354 653.807 454.354 652.62C454.354 650.847 454.801 649.48 455.694 648.52C456.587 647.56 457.801 647.08 459.334 647.08C460.307 647.08 461.161 647.3 461.894 647.74C462.641 648.167 463.221 648.793 463.634 649.62C464.061 650.433 464.274 651.433 464.274 652.62ZM456.174 652.62C456.174 653.887 456.421 654.893 456.914 655.64C457.421 656.373 458.221 656.74 459.314 656.74C460.394 656.74 461.187 656.373 461.694 655.64C462.201 654.893 462.454 653.887 462.454 652.62C462.454 651.353 462.201 650.36 461.694 649.64C461.187 648.92 460.387 648.56 459.294 648.56C458.201 648.56 457.407 648.92 456.914 649.64C456.421 650.36 456.174 651.353 456.174 652.62ZM472.163 647.08C473.483 647.08 474.543 647.54 475.343 648.46C476.157 649.38 476.563 650.767 476.563 652.62C476.563 654.447 476.157 655.833 475.343 656.78C474.543 657.727 473.477 658.2 472.143 658.2C471.317 658.2 470.63 658.047 470.083 657.74C469.55 657.42 469.13 657.053 468.823 656.64H468.703C468.73 656.867 468.757 657.153 468.783 657.5C468.81 657.847 468.823 658.147 468.823 658.4V662.8H467.063V647.28H468.503L468.743 648.74H468.823C469.143 648.273 469.563 647.88 470.083 647.56C470.603 647.24 471.297 647.08 472.163 647.08ZM471.843 648.56C470.75 648.56 469.977 648.867 469.523 649.48C469.083 650.093 468.85 651.027 468.823 652.28V652.62C468.823 653.94 469.037 654.96 469.463 655.68C469.903 656.387 470.71 656.74 471.883 656.74C472.537 656.74 473.07 656.56 473.483 656.2C473.91 655.84 474.223 655.353 474.423 654.74C474.637 654.113 474.743 653.4 474.743 652.6C474.743 651.373 474.503 650.393 474.023 649.66C473.557 648.927 472.83 648.56 471.843 648.56ZM488.688 652.62C488.688 654.393 488.235 655.767 487.328 656.74C486.435 657.713 485.221 658.2 483.688 658.2C482.741 658.2 481.895 657.987 481.148 657.56C480.415 657.12 479.835 656.487 479.408 655.66C478.981 654.82 478.768 653.807 478.768 652.62C478.768 650.847 479.215 649.48 480.108 648.52C481.001 647.56 482.215 647.08 483.748 647.08C484.721 647.08 485.575 647.3 486.308 647.74C487.055 648.167 487.635 648.793 488.048 649.62C488.475 650.433 488.688 651.433 488.688 652.62ZM480.588 652.62C480.588 653.887 480.835 654.893 481.328 655.64C481.835 656.373 482.635 656.74 483.728 656.74C484.808 656.74 485.601 656.373 486.108 655.64C486.615 654.893 486.868 653.887 486.868 652.62C486.868 651.353 486.615 650.36 486.108 649.64C485.601 648.92 484.801 648.56 483.708 648.56C482.615 648.56 481.821 648.92 481.328 649.64C480.835 650.36 480.588 651.353 480.588 652.62ZM500.157 642.84C500.064 643.84 499.724 644.6 499.137 645.12C498.564 645.627 497.644 645.88 496.377 645.88C495.071 645.88 494.144 645.627 493.597 645.12C493.064 644.613 492.764 643.853 492.697 642.84H494.337C494.404 643.56 494.591 644.047 494.897 644.3C495.217 644.54 495.724 644.66 496.417 644.66C497.031 644.66 497.511 644.533 497.857 644.28C498.217 644.013 498.431 643.533 498.497 642.84H500.157ZM493.137 653.82C493.137 653.98 493.131 654.22 493.117 654.54C493.104 654.86 493.084 655.18 493.057 655.5C493.044 655.82 493.031 656.073 493.017 656.26L498.757 647.28H500.917V658H499.277V651.68C499.277 651.467 499.277 651.187 499.277 650.84C499.291 650.493 499.304 650.153 499.317 649.82C499.331 649.473 499.344 649.213 499.357 649.04L493.657 658H491.477V647.28H493.137V653.82ZM518.281 649.98C518.281 650.647 518.081 651.167 517.681 651.54C517.281 651.913 516.768 652.167 516.141 652.3V652.38C516.808 652.473 517.388 652.713 517.881 653.1C518.374 653.473 518.621 654.06 518.621 654.86C518.621 655.767 518.281 656.52 517.601 657.12C516.934 657.707 515.828 658 514.281 658H509.661V647.28H514.261C515.021 647.28 515.701 647.367 516.301 647.54C516.914 647.7 517.394 647.98 517.741 648.38C518.101 648.767 518.281 649.3 518.281 649.98ZM516.501 650.2C516.501 649.693 516.314 649.327 515.941 649.1C515.581 648.86 514.988 648.74 514.161 648.74H511.421V651.68H513.841C515.614 651.68 516.501 651.187 516.501 650.2ZM516.801 654.86C516.801 654.247 516.568 653.807 516.101 653.54C515.634 653.273 514.948 653.14 514.041 653.14H511.421V656.58H514.081C514.961 656.58 515.634 656.453 516.101 656.2C516.568 655.933 516.801 655.487 516.801 654.86ZM522.844 653.82C522.844 653.98 522.838 654.22 522.824 654.54C522.811 654.86 522.791 655.18 522.764 655.5C522.751 655.82 522.738 656.073 522.724 656.26L528.464 647.28H530.624V658H528.984V651.68C528.984 651.467 528.984 651.187 528.984 650.84C528.998 650.493 529.011 650.153 529.024 649.82C529.038 649.473 529.051 649.213 529.064 649.04L523.364 658H521.184V647.28H522.844V653.82ZM541.996 647.28V656.52H543.556V661.72H541.856V658H534.396V661.72H532.716V656.52H533.576C534.496 655.253 535.183 653.813 535.636 652.2C536.103 650.573 536.343 648.933 536.356 647.28H541.996ZM537.916 648.66C537.863 649.567 537.723 650.507 537.496 651.48C537.269 652.44 536.976 653.36 536.616 654.24C536.269 655.12 535.863 655.88 535.396 656.52H540.296V648.66H537.916ZM558.517 647.28L554.097 652.48L558.897 658H556.897L552.257 652.56V658H550.617V652.56L545.977 658H543.977L548.777 652.48L544.357 647.28H546.277L550.617 652.48V647.28H552.257V652.48L556.617 647.28H558.517ZM564.406 647.08C565.326 647.08 566.113 647.28 566.766 647.68C567.433 648.08 567.94 648.647 568.286 649.38C568.646 650.1 568.826 650.947 568.826 651.92V652.98H561.486C561.513 654.193 561.82 655.12 562.406 655.76C563.006 656.387 563.84 656.7 564.906 656.7C565.586 656.7 566.186 656.64 566.706 656.52C567.24 656.387 567.786 656.2 568.346 655.96V657.5C567.8 657.74 567.26 657.913 566.726 658.02C566.193 658.14 565.56 658.2 564.826 658.2C563.813 658.2 562.913 657.993 562.126 657.58C561.353 657.167 560.746 656.553 560.306 655.74C559.88 654.913 559.666 653.907 559.666 652.72C559.666 651.547 559.86 650.54 560.246 649.7C560.646 648.86 561.2 648.213 561.906 647.76C562.626 647.307 563.46 647.08 564.406 647.08ZM564.386 648.52C563.546 648.52 562.88 648.793 562.386 649.34C561.906 649.873 561.62 650.62 561.526 651.58H566.986C566.973 650.673 566.76 649.94 566.346 649.38C565.933 648.807 565.28 648.52 564.386 648.52ZM578.955 648.76H575.455V658H573.715V648.76H570.255V647.28H578.955V648.76Z" fill="black" fill-opacity="0.5"/>
<path d="M869.64 510.1C868.973 510.1 868.367 510.18 867.82 510.34C867.273 510.487 866.78 510.66 866.34 510.86L865.6 509.36C866.147 509.093 866.773 508.887 867.48 508.74C868.187 508.593 868.913 508.52 869.66 508.52C871.193 508.52 872.453 508.827 873.44 509.44C874.44 510.053 875.187 510.9 875.68 511.98C876.173 513.047 876.42 514.26 876.42 515.62C876.42 517.18 876.167 518.527 875.66 519.66C875.153 520.793 874.387 521.667 873.36 522.28C872.347 522.893 871.067 523.2 869.52 523.2C868.693 523.2 867.993 523.153 867.42 523.06C866.847 522.967 866.28 522.82 865.72 522.62V521.06C866.28 521.207 866.847 521.34 867.42 521.46C867.993 521.567 868.6 521.62 869.24 521.62C870.96 521.62 872.253 521.167 873.12 520.26C874 519.34 874.467 518.027 874.52 516.32H867.58V514.74H874.5C874.367 513.273 873.867 512.133 873 511.32C872.147 510.507 871.027 510.1 869.64 510.1ZM886.756 513.76H883.256V523H881.516V513.76H878.056V512.28H886.756V513.76ZM897.993 517.62C897.993 519.393 897.539 520.767 896.633 521.74C895.739 522.713 894.526 523.2 892.993 523.2C892.046 523.2 891.199 522.987 890.453 522.56C889.719 522.12 889.139 521.487 888.713 520.66C888.286 519.82 888.073 518.807 888.073 517.62C888.073 515.847 888.519 514.48 889.413 513.52C890.306 512.56 891.519 512.08 893.053 512.08C894.026 512.08 894.879 512.3 895.613 512.74C896.359 513.167 896.939 513.793 897.353 514.62C897.779 515.433 897.993 516.433 897.993 517.62ZM889.893 517.62C889.893 518.887 890.139 519.893 890.633 520.64C891.139 521.373 891.939 521.74 893.033 521.74C894.113 521.74 894.906 521.373 895.413 520.64C895.919 519.893 896.173 518.887 896.173 517.62C896.173 516.353 895.919 515.36 895.413 514.64C894.906 513.92 894.106 513.56 893.013 513.56C891.919 513.56 891.126 513.92 890.633 514.64C890.139 515.36 889.893 516.353 889.893 517.62ZM913.514 513.76H910.014V523H908.274V513.76H904.814V512.28H913.514V513.76ZM920.726 512.08C922.046 512.08 923.106 512.54 923.906 513.46C924.719 514.38 925.126 515.767 925.126 517.62C925.126 519.447 924.719 520.833 923.906 521.78C923.106 522.727 922.039 523.2 920.706 523.2C919.879 523.2 919.192 523.047 918.646 522.74C918.112 522.42 917.692 522.053 917.386 521.64H917.266C917.292 521.867 917.319 522.153 917.346 522.5C917.372 522.847 917.386 523.147 917.386 523.4V527.8H915.626V512.28H917.066L917.306 513.74H917.386C917.706 513.273 918.126 512.88 918.646 512.56C919.166 512.24 919.859 512.08 920.726 512.08ZM920.406 513.56C919.312 513.56 918.539 513.867 918.086 514.48C917.646 515.093 917.412 516.027 917.386 517.28V517.62C917.386 518.94 917.599 519.96 918.026 520.68C918.466 521.387 919.272 521.74 920.446 521.74C921.099 521.74 921.632 521.56 922.046 521.2C922.472 520.84 922.786 520.353 922.986 519.74C923.199 519.113 923.306 518.4 923.306 517.6C923.306 516.373 923.066 515.393 922.586 514.66C922.119 513.927 921.392 513.56 920.406 513.56ZM932.07 512.08C932.99 512.08 933.777 512.28 934.43 512.68C935.097 513.08 935.604 513.647 935.95 514.38C936.31 515.1 936.49 515.947 936.49 516.92V517.98H929.15C929.177 519.193 929.484 520.12 930.07 520.76C930.67 521.387 931.504 521.7 932.57 521.7C933.25 521.7 933.85 521.64 934.37 521.52C934.904 521.387 935.45 521.2 936.01 520.96V522.5C935.464 522.74 934.924 522.913 934.39 523.02C933.857 523.14 933.224 523.2 932.49 523.2C931.477 523.2 930.577 522.993 929.79 522.58C929.017 522.167 928.41 521.553 927.97 520.74C927.544 519.913 927.33 518.907 927.33 517.72C927.33 516.547 927.524 515.54 927.91 514.7C928.31 513.86 928.864 513.213 929.57 512.76C930.29 512.307 931.124 512.08 932.07 512.08ZM932.05 513.52C931.21 513.52 930.544 513.793 930.05 514.34C929.57 514.873 929.284 515.62 929.19 516.58H934.65C934.637 515.673 934.424 514.94 934.01 514.38C933.597 513.807 932.944 513.52 932.05 513.52ZM946.62 513.76H943.12V523H941.38V513.76H937.92V512.28H946.62V513.76ZM950.391 518.82C950.391 518.98 950.385 519.22 950.371 519.54C950.358 519.86 950.338 520.18 950.311 520.5C950.298 520.82 950.285 521.073 950.271 521.26L956.011 512.28H958.171V523H956.531V516.68C956.531 516.467 956.531 516.187 956.531 515.84C956.545 515.493 956.558 515.153 956.571 514.82C956.585 514.473 956.598 514.213 956.611 514.04L950.911 523H948.731V512.28H950.391V518.82ZM970.263 507.84C970.169 508.84 969.829 509.6 969.243 510.12C968.669 510.627 967.749 510.88 966.483 510.88C965.176 510.88 964.249 510.627 963.703 510.12C963.169 509.613 962.869 508.853 962.803 507.84H964.443C964.509 508.56 964.696 509.047 965.003 509.3C965.323 509.54 965.829 509.66 966.523 509.66C967.136 509.66 967.616 509.533 967.963 509.28C968.323 509.013 968.536 508.533 968.603 507.84H970.263ZM963.243 518.82C963.243 518.98 963.236 519.22 963.223 519.54C963.209 519.86 963.189 520.18 963.163 520.5C963.149 520.82 963.136 521.073 963.123 521.26L968.863 512.28H971.023V523H969.383V516.68C969.383 516.467 969.383 516.187 969.383 515.84C969.396 515.493 969.409 515.153 969.423 514.82C969.436 514.473 969.449 514.213 969.463 514.04L963.763 523H961.583V512.28H963.243V518.82ZM988.386 514.98C988.386 515.647 988.186 516.167 987.786 516.54C987.386 516.913 986.873 517.167 986.246 517.3V517.38C986.913 517.473 987.493 517.713 987.986 518.1C988.48 518.473 988.726 519.06 988.726 519.86C988.726 520.767 988.386 521.52 987.706 522.12C987.04 522.707 985.933 523 984.386 523H979.766V512.28H984.366C985.126 512.28 985.806 512.367 986.406 512.54C987.02 512.7 987.5 512.98 987.846 513.38C988.206 513.767 988.386 514.3 988.386 514.98ZM986.606 515.2C986.606 514.693 986.42 514.327 986.046 514.1C985.686 513.86 985.093 513.74 984.266 513.74H981.526V516.68H983.946C985.72 516.68 986.606 516.187 986.606 515.2ZM986.906 519.86C986.906 519.247 986.673 518.807 986.206 518.54C985.74 518.273 985.053 518.14 984.146 518.14H981.526V521.58H984.186C985.066 521.58 985.74 521.453 986.206 521.2C986.673 520.933 986.906 520.487 986.906 519.86ZM992.95 518.82C992.95 518.98 992.943 519.22 992.93 519.54C992.917 519.86 992.897 520.18 992.87 520.5C992.857 520.82 992.843 521.073 992.83 521.26L998.57 512.28H1000.73V523H999.09V516.68C999.09 516.467 999.09 516.187 999.09 515.84C999.103 515.493 999.117 515.153 999.13 514.82C999.143 514.473 999.157 514.213 999.17 514.04L993.47 523H991.29V512.28H992.95V518.82ZM1012.1 512.28V521.52H1013.66V526.72H1011.96V523H1004.5V526.72H1002.82V521.52H1003.68C1004.6 520.253 1005.29 518.813 1005.74 517.2C1006.21 515.573 1006.45 513.933 1006.46 512.28H1012.1ZM1008.02 513.66C1007.97 514.567 1007.83 515.507 1007.6 516.48C1007.37 517.44 1007.08 518.36 1006.72 519.24C1006.37 520.12 1005.97 520.88 1005.5 521.52H1010.4V513.66H1008.02ZM1028.62 512.28L1024.2 517.48L1029 523H1027L1022.36 517.56V523H1020.72V517.56L1016.08 523H1014.08L1018.88 517.48L1014.46 512.28H1016.38L1020.72 517.48V512.28H1022.36V517.48L1026.72 512.28H1028.62ZM1034.51 512.08C1035.43 512.08 1036.22 512.28 1036.87 512.68C1037.54 513.08 1038.05 513.647 1038.39 514.38C1038.75 515.1 1038.93 515.947 1038.93 516.92V517.98H1031.59C1031.62 519.193 1031.93 520.12 1032.51 520.76C1033.11 521.387 1033.95 521.7 1035.01 521.7C1035.69 521.7 1036.29 521.64 1036.81 521.52C1037.35 521.387 1037.89 521.2 1038.45 520.96V522.5C1037.91 522.74 1037.37 522.913 1036.83 523.02C1036.3 523.14 1035.67 523.2 1034.93 523.2C1033.92 523.2 1033.02 522.993 1032.23 522.58C1031.46 522.167 1030.85 521.553 1030.41 520.74C1029.99 519.913 1029.77 518.907 1029.77 517.72C1029.77 516.547 1029.97 515.54 1030.35 514.7C1030.75 513.86 1031.31 513.213 1032.01 512.76C1032.73 512.307 1033.57 512.08 1034.51 512.08ZM1034.49 513.52C1033.65 513.52 1032.99 513.793 1032.49 514.34C1032.01 514.873 1031.73 515.62 1031.63 516.58H1037.09C1037.08 515.673 1036.87 514.94 1036.45 514.38C1036.04 513.807 1035.39 513.52 1034.49 513.52ZM1049.06 513.76H1045.56V523H1043.82V513.76H1040.36V512.28H1049.06V513.76Z" fill="black" fill-opacity="0.5"/>
<g filter="url(#filter0_d)">
<rect x="633" y="737" width="333" height="79" rx="18" fill="#007BFF"/>
<path d="M704.141 763.117H709.285V788H704.141V771.474L694.178 788H689.051V763.117H694.178V779.677L704.141 763.117ZM728.853 773.166C727.964 773.166 727.258 773.417 726.734 773.918C726.21 774.408 725.948 775.069 725.948 775.9H721.299C721.299 774.647 721.63 773.502 722.291 772.465C722.963 771.429 723.874 770.62 725.025 770.039C726.187 769.458 727.463 769.167 728.853 769.167C731.462 769.167 733.541 770.021 735.091 771.73C736.64 773.428 737.415 775.747 737.415 778.686V779.011C737.415 780.834 737.073 782.457 736.39 783.881C735.706 785.294 734.715 786.394 733.416 787.18C732.129 787.954 730.619 788.342 728.887 788.342C726.609 788.342 724.774 787.687 723.384 786.376C721.994 785.066 721.299 783.317 721.299 781.13H725.948C725.948 782.076 726.21 782.856 726.734 783.471C727.269 784.075 727.987 784.377 728.887 784.377C729.878 784.377 730.676 784.029 731.28 783.334C731.884 782.628 732.254 781.586 732.391 780.207H727.435V777.182H732.391C732.06 774.505 730.881 773.166 728.853 773.166ZM754.966 773.474H749.036V788H744.08V773.474H738.252V769.509H754.966V773.474ZM756.18 778.583C756.18 776.749 756.533 775.114 757.239 773.679C757.946 772.243 758.96 771.132 760.281 770.346C761.614 769.56 763.158 769.167 764.913 769.167C767.408 769.167 769.441 769.93 771.014 771.457C772.597 772.984 773.48 775.057 773.663 777.678L773.697 778.942C773.697 781.779 772.905 784.058 771.321 785.778C769.738 787.487 767.613 788.342 764.947 788.342C762.281 788.342 760.15 787.487 758.555 785.778C756.972 784.069 756.18 781.745 756.18 778.806V778.583ZM761.119 778.942C761.119 780.697 761.449 782.041 762.11 782.976C762.771 783.898 763.716 784.36 764.947 784.36C766.143 784.36 767.077 783.904 767.75 782.993C768.422 782.07 768.758 780.6 768.758 778.583C768.758 776.863 768.422 775.53 767.75 774.584C767.077 773.639 766.132 773.166 764.913 773.166C763.705 773.166 762.771 773.639 762.11 774.584C761.449 775.519 761.119 776.971 761.119 778.942ZM785.779 788V769.509H793.504C796.022 769.509 797.953 769.953 799.297 770.842C800.642 771.73 801.314 773.007 801.314 774.67C801.314 775.524 801.029 776.293 800.459 776.977C799.901 777.649 799.081 778.168 797.999 778.532C799.32 778.783 800.357 779.278 801.109 780.019C801.872 780.748 802.254 781.648 802.254 782.719C802.254 784.44 801.604 785.75 800.306 786.65C799.018 787.55 797.144 788 794.683 788H785.779ZM790.718 780.327V784.052H794.7C796.443 784.052 797.315 783.443 797.315 782.224C797.315 780.982 796.483 780.349 794.82 780.327H790.718ZM790.718 777.011H793.777C795.509 776.988 796.375 776.43 796.375 775.336C796.375 774.664 796.136 774.186 795.657 773.901C795.19 773.616 794.472 773.474 793.504 773.474H790.718V777.011ZM816.421 769.509H821.36V788H816.421V776.584L810.235 788H805.279V769.509H810.235V780.908L816.421 769.509ZM825.394 784.018C826.51 782.833 827.268 781.66 827.667 780.498C828.065 779.335 828.287 777.689 828.333 775.559L828.47 769.509H842.073V784.018H844.739V793.554H839.8V788H828.846V793.554H823.804V784.018H825.394ZM831.221 784.018H837.151V773.593H833.306L833.272 775.815C833.169 779.21 832.486 781.944 831.221 784.018ZM865.042 781.147H862.803V788H857.864V781.147H855.66L851.985 788H846.021L851.849 778.327L846.089 769.509H852.208L856.053 776.413H857.864V769.509H862.803V776.413H864.649L868.511 769.509H874.629L868.904 778.208L874.783 788H868.716L865.042 781.147ZM885.328 788.342C882.616 788.342 880.406 787.51 878.697 785.847C876.999 784.183 876.15 781.967 876.15 779.199V778.72C876.15 776.863 876.509 775.205 877.227 773.747C877.945 772.277 878.959 771.149 880.269 770.363C881.591 769.566 883.095 769.167 884.781 769.167C887.31 769.167 889.298 769.965 890.745 771.56C892.203 773.155 892.933 775.416 892.933 778.344V780.361H881.158C881.317 781.569 881.796 782.537 882.593 783.266C883.402 783.995 884.422 784.36 885.652 784.36C887.555 784.36 889.042 783.671 890.113 782.292L892.54 785.009C891.799 786.057 890.796 786.878 889.532 787.47C888.267 788.051 886.866 788.342 885.328 788.342ZM884.764 773.166C883.784 773.166 882.986 773.496 882.371 774.157C881.767 774.818 881.38 775.764 881.209 776.994H888.079V776.601C888.056 775.507 887.76 774.664 887.19 774.072C886.621 773.468 885.812 773.166 884.764 773.166ZM910.894 773.474H904.964V788H900.008V773.474H894.18V769.509H910.894V773.474Z" fill="white"/>
</g>
<defs>
<filter id="filter0_d" x="633" y="737" width="342.27" height="88.27" filterUnits="userSpaceOnUse" color-interpolation-filters="sRGB">
<feFlood flood-opacity="0" result="BackgroundImageFix"/>
<feColorMatrix in="SourceAlpha" type="matrix" values="0 0 0 0 0 0 0 0 0 0 0 0 0 0 0 0 0 0 127 0" result="hardAlpha"/>
<feOffset dx="5.27" dy="5.27"/>
<feGaussianBlur stdDeviation="2"/>
<feColorMatrix type="matrix" values="0 0 0 0 0 0 0 0 0 0 0 0 0 0 0 0 0 0 0.25 0"/>
<feBlend mode="normal" in2="BackgroundImageFix" result="effect1_dropShadow"/>
<feBlend mode="normal" in="SourceGraphic" in2="effect1_dropShadow" result="shape"/>
</filter>
<clipPath id="clip0">
<rect width="80" height="80" fill="white" transform="translate(773 281)"/>
</clipPath>
</defs>
</svg>
